<svg width="216.423" height="250.549" viewBox="0 0 57.262 66.291" xmlns="http://www.w3.org/2000/svg"><g transform="translate(0 -230.71)" stroke-width=".265"><g fill="#2f2e41"><ellipse transform="rotate(-21.078)" cx="-85.855" cy="236.23" rx="3.281" ry="10.451"/><circle cx="24.211" cy="267.03" r="20.902"/><path d="M33.813 294.79l-6.35.018-.032-11.377 6.35-.018zm-12.699.036l-6.35.018-.032-11.377 6.35-.017z"/><ellipse transform="rotate(-.16)" cx="27.768" cy="295.09" rx="5.292" ry="1.984"/><ellipse transform="rotate(-.16)" cx="15.068" cy="294.83" rx="5.292" ry="1.984"/></g><circle cx="23.667" cy="261.74" r="7.144" fill="#fff"/><circle cx="23.667" cy="261.74" r="2.381" fill="#3f3d56"/><path d="M44.432 247.54c1.667-7.563-3.75-15.186-12.098-17.025-8.348-1.84-16.467 2.8-18.133 10.364-1.667 7.563 3.87 10.335 12.218 12.175s16.346 2.05 18.013-5.513z" fill="#222"/><ellipse transform="rotate(-25.535)" cx="-67.834" cy="252.71" rx="10.451" ry="3.281" fill="#2f2e41"/><path d="M34.499 274.54c.006 2.046-5.25 6.1-11.096 6.117-5.845.016-11.341-5.728-11.347-7.774-.006-2.046 5.482.382 11.327.365 5.845-.016 11.11-.754 11.116 1.292z" fill="#fff"/></g></svg>