<svg width="256.77" height="250.549" viewBox="0 0 67.937 66.291" xmlns="http://www.w3.org/2000/svg"><g fill="#2f2e41" transform="translate(8.689 -230.71)"><ellipse transform="matrix(-.27156 -.96242 .95647 -.29182 0 0)" cx="-257.38" cy="-71.565" rx="3.249" ry="10.556"/><g stroke-width=".265"><circle cx="24.211" cy="267.03" r="20.902"/><path d="M33.813 294.79l-6.35.018-.032-11.377 6.35-.018zm-12.699.036l-6.35.018-.032-11.377 6.35-.017z"/><ellipse transform="rotate(-.16)" cx="27.768" cy="295.09" rx="5.292" ry="1.984"/><ellipse transform="rotate(-.16)" cx="15.068" cy="294.83" rx="5.292" ry="1.984"/></g></g><g stroke-width=".265" transform="translate(8.689 -230.71)"><circle cx="23.667" cy="261.74" r="7.144" fill="#fff"/><circle cx="24.234" cy="265.14" r="2.381" fill="#3f3d56"/><path d="M44.432 247.54c1.667-7.563-3.75-15.186-12.098-17.025-8.348-1.84-16.467 2.8-18.133 10.364-1.667 7.563 3.87 10.335 12.218 12.175s16.346 2.05 18.013-5.513z" fill="#222"/><ellipse transform="rotate(15.605)" cx="120.63" cy="249.22" rx="10.451" ry="3.281" fill="#2f2e41"/><path d="M34.499 274.54c.006 2.046-5.25 6.1-11.096 6.117-5.845.016-11.341-5.728-11.347-7.774-.006-2.046 5.482.382 11.327.365 5.845-.016 11.11-.754 11.116 1.292z" fill="#fff"/></g></svg>