<svg width="241.16" height="485.858" viewBox="0 0 63.807 128.55" xmlns="http://www.w3.org/2000/svg"><g transform="translate(14.323 -201.08)" stroke-width=".265"><g fill="#2f2e41"><circle cx="13.91" cy="299.74" r="20.902"/><path d="M4.385 316.14h6.35v11.377h-6.35zm12.7 0h6.35v11.377h-6.35z"/><ellipse cx="9.677" cy="327.65" rx="5.292" ry="1.984"/><ellipse cx="22.377" cy="327.39" rx="5.292" ry="1.984"/></g><circle cx="14.439" cy="294.45" r="7.144" fill="#fff"/><circle cx="14.439" cy="291.27" r="2.381" fill="#3f3d56"/><path d="M-6.366 280.3c-1.688-7.558 3.708-15.196 12.05-17.059 8.343-1.863 16.474 2.754 18.162 10.313 1.688 7.559-3.84 10.346-12.184 12.209-8.343 1.863-16.34 2.095-18.028-5.463z" fill="#222"/><g fill="#2f2e41"><ellipse transform="rotate(-65.077)" cx="-238.33" cy="143.52" rx="10.451" ry="3.281"/><ellipse transform="rotate(-27.893)" cx="-140.01" cy="246.05" rx="3.281" ry="10.451"/><circle cx="19.97" cy="237.88" r="20.902"/><path d="M7.676 252.32l6.248 1.131-2.027 11.195-6.248-1.131zm12.497 2.262l6.248 1.132-2.027 11.195-6.248-1.132z"/><ellipse transform="rotate(-49.739)" cx="-189.87" cy="190.1" rx="1.984" ry="5.292"/><ellipse transform="rotate(-49.739)" cx="-196.09" cy="179.33" rx="1.984" ry="5.292"/></g><circle cx="21.434" cy="232.76" r="7.144" fill="#fff"/><circle cx="25.727" cy="232.72" r="2.381" fill="#3f3d56"/><path d="M3.482 215.14c-.315-7.738 6.355-14.293 14.896-14.64 8.54-.347 15.72 5.645 16.035 13.383.314 7.738-5.623 9.496-14.164 9.843-8.542.347-16.452-.848-16.767-8.586z" fill="#222"/><ellipse transform="rotate(-12.91)" cx="-14.018" cy="236.93" rx="10.451" ry="3.281" fill="#2f2e41"/><ellipse transform="rotate(-12.91)" cx="-55.535" cy="234.41" rx="10.451" ry="3.281" fill="#2f2e41"/><path d="M14.229 246.11a4.763 4.763 0 0 0 9.373 1.697c.468-2.588-1.533-3.504-4.121-3.973-2.588-.468-4.783-.312-5.252 2.276z" fill="#fff"/></g></svg>