<svg width="272.29mm" height="272.98" viewBox="0 0 272.29 72.226" xmlns="http://www.w3.org/2000/svg"><g fill="none" stroke-linecap="round" stroke-linejoin="round" stroke-miterlimit="10" stroke-width=".706"><path d="M69.008 60.82h15.45m-27.241 0h6.229M87.623 50.7h140.94m3.557 0h9.322" stroke="#3a4144"/><path d="M.358 23.2h29.998" stroke="#fff"/><path d="M251.94 50.7h9.322M74.138 8.28a8.476 8.476 0 0 0-10.179 6.074 5.491 5.491 0 0 0-2.029-.39 5.515 5.515 0 1 0 0 11.029h4.517M79.35 12.04a8.511 8.511 0 0 0-3.393-3.101m9.373 7.821a4.591 4.591 0 0 0-2.863-.996 4.59 4.59 0 0 0-1.85.389c-.04-.92-.225-1.8-.533-2.621M72.122 24.99h10.345a4.613 4.613 0 0 0 4.613-4.613M68.003 24.99h2.563M6.807 56.2h102.5m-24.849 4.62a1.88 1.88 0 1 1 3.76 0 1.88 1.88 0 0 1-3.76 0z" stroke="#3a4144"/><path d="M222.13 70a1.88 1.88 0 1 1 3.76 0 1.88 1.88 0 0 1-3.76 0z" stroke="#fff"/></g><path d="M104.09 46.62l-4.554-.808 5.769-32.526 4.554.808-5.769 32.526" fill="#fab44e"/><path d="M104.09 46.62l-4.554-.808 5.769-32.526 4.554.808zm.91-31.61l2.05.364m-2.37 1.456l1.025.182m-1.345 1.628l1.025.182m-1.355 1.638l1.026.182m-1.346 1.638l2.05.364m-2.37 1.456l1.026.182m-1.346 1.628l1.025.182m-1.355 1.638l1.026.182m-1.346 1.638l2.05.364m-2.37 1.456l1.026.182m-1.346 1.628l1.025.182M101.45 35l1.025.182m-1.345 1.638l2.05.364m-2.37 1.456l1.026.182m-1.346 1.638l1.026.182m-1.356 1.628l1.026.182m-1.344 1.638l2.05.364" fill="none" stroke="#3a4144" stroke-linecap="round" stroke-linejoin="round" stroke-miterlimit="10" stroke-width=".706"/><path d="M103.12 46.1l-2.468-.867 6.959-19.803 2.468.867L103.12 46.1" fill="#93d9bd"/><path d="M103.12 46.1l-2.468-.867 6.959-19.803 2.468.867z" fill="none" stroke="#3a4144" stroke-linecap="round" stroke-linejoin="round" stroke-miterlimit="10" stroke-width=".706"/><path d="M107.61 25.43l2.17-2.229.298 3.096z" fill="#fab44e"/><path d="M107.61 25.43l2.17-2.229.298 3.096z" fill="none" stroke="#3a4144" stroke-linecap="round" stroke-linejoin="round" stroke-miterlimit="10" stroke-width=".706"/><path d="M108.93 24.08l.975.343-.117-1.224z" fill="#3a4144"/><path d="M108.93 24.08l.975.343-.117-1.224zm-7.04 21.58l6.96-19.803" fill="none" stroke="#3a4144" stroke-linecap="round" stroke-linejoin="round" stroke-miterlimit="10" stroke-width=".706"/><path d="M102.73 47.21l-2.468-.867.392-1.116 2.468.868-.392 1.115" fill="#c4cbc9"/><path d="M102.73 47.21l-2.468-.867.392-1.116 2.468.868z" fill="none" stroke="#3a4144" stroke-linecap="round" stroke-linejoin="round" stroke-miterlimit="10" stroke-width=".706"/><path d="M101.99 49.32l-2.468-.867.74-2.108 2.469.867-.741 2.108" fill="#f0f0ef"/><path d="M101.99 49.32l-2.468-.867.74-2.108 2.469.867z" fill="none" stroke="#3a4144" stroke-linecap="round" stroke-linejoin="round" stroke-miterlimit="10" stroke-width=".706"/><path d="M97.452 25.41l2.605-.242 1.94 20.9-2.605.242-1.94-20.9" fill="#ee43aa"/><path d="M97.452 25.41l2.605-.242 1.94 20.9-2.605.242z" fill="none" stroke="#3a4144" stroke-linecap="round" stroke-linejoin="round" stroke-miterlimit="10" stroke-width=".706"/><path d="M102 46.07l-1.042 2.931-1.563-2.689z" fill="#fab44e"/><path d="M102 46.07l-1.042 2.931-1.563-2.689z" fill="none" stroke="#3a4144" stroke-linecap="round" stroke-linejoin="round" stroke-miterlimit="10" stroke-width=".706"/><path d="M101.37 47.84l-1.03.095.618 1.063z" fill="#3a4144"/><path d="M101.37 47.84l-1.03.095.618 1.063zm-2.615-22.55l1.94 20.9" fill="none" stroke="#3a4144" stroke-linecap="round" stroke-linejoin="round" stroke-miterlimit="10" stroke-width=".706"/><path d="M97.343 24.23l2.605-.242.11 1.177-2.606.242-.109-1.177" fill="#c4cbc9"/><path d="M97.343 24.23l2.605-.242.11 1.177-2.606.242z" fill="none" stroke="#3a4144" stroke-linecap="round" stroke-linejoin="round" stroke-miterlimit="10" stroke-width=".706"/><path d="M97.136 22.01l2.606-.242.206 2.225-2.605.242-.207-2.225" fill="#f0f0ef"/><path d="M97.136 22.01l2.606-.242.206 2.225-2.605.242z" fill="none" stroke="#3a4144" stroke-linecap="round" stroke-linejoin="round" stroke-miterlimit="10" stroke-width=".706"/><path d="M108.38 37.12H97.033v11.619c0 1.08.876 1.957 1.957 1.957h7.434c1.08 0 1.957-.876 1.957-1.957V37.12" fill="#c4cbc9"/><path d="M108.38 37.12H97.033v11.619c0 1.08.876 1.957 1.957 1.957h7.434c1.08 0 1.957-.876 1.957-1.957z" fill="none" stroke="#3a4144" stroke-linecap="round" stroke-linejoin="round" stroke-miterlimit="10" stroke-width=".706"/><path d="M109.05 34.48h-12.7v2.646h12.7V34.48" fill="#d7dcdb"/><path d="M109.05 34.48h-12.7v2.646h12.7zm-10.539 2.7v5.271m8.279.579v1.426m0 1.204v1.426M232.15 27.27a3.933 3.933 0 0 0 3.554 2.247h30.252a5.981 5.981 0 0 0 0-11.963 5.96 5.96 0 0 0-2.201.423c-1.038-3.938-4.622-6.842-8.887-6.842-4.943 0-8.974 3.904-9.18 8.797a5 5 0 0 0-6.838 3.297 3.922 3.922 0 0 0-3.145-1.578m-1.845.459a3.932 3.932 0 0 0-2.086 3.473" fill="none" stroke="#3a4144" stroke-linecap="round" stroke-linejoin="round" stroke-miterlimit="10" stroke-width=".706"/><path d="M166.453 4.223h7.126V14.32h-7.126z" fill="#fab44e"/><path d="M181.783 59.771H158.25c-.95 0-1.359-1.04-.602-1.536a11.513 11.513 0 0 0 3.841-4.161c1.441-2.637 1.49-5.061 1.49-5.061h14.077s.05 2.424 1.49 5.06a11.507 11.507 0 0 0 3.841 4.162c.757.496.348 1.536-.602 1.536z" fill="#93d9bd"/><path d="M178.046 53.05c-.954-2.208-.992-4.037-.992-4.037h-14.076s-.038 1.828-.992 4.037z" fill="#92e0c0"/><path d="M201.536 14.897v29.395h-63.04V14.897c0-2.224 2.09-4.024 4.67-4.024h53.7c2.58 0 4.67 1.8 4.67 4.024z" fill="#93d9bd"/><path d="M138.496 41.384h63.04v2.91h-63.04z" fill="#92e0c0"/><path d="M199.47 51.083h-58.908c-1.14 0-2.066-.797-2.066-1.78v-5.744h63.041v5.744c0 .983-.925 1.78-2.066 1.78z" fill="#fff"/><path d="M171.433 47.321c0 .675-.634 1.22-1.417 1.22s-1.417-.545-1.417-1.22c0-.674.634-1.22 1.417-1.22s1.417.546 1.417 1.22zm6.017-40.646h-14.866c-.704 0-1.274-.491-1.274-1.097V3.406c0-.606.57-1.097 1.274-1.097h14.867c.703 0 1.273.491 1.273 1.097v2.172c0 .606-.57 1.097-1.273 1.097z" fill="#fab44e"/><g fill="none" stroke="#3a4144" stroke-width="5.559"><path d="M465.14 50.852h-61.316a7.5 7.5 0 0 0-7.5 7.5c0 4.144 3.355 7.5 7.5 7.5h61.316c4.144 0 7.5-3.356 7.5-7.5a7.5 7.5 0 0 0-7.5-7.5zM10.789 15h26.445a7.5 7.5 0 1 0 0-15H10.789a7.5 7.5 0 1 0 0 15zM468.43 215.48a7.497 7.497 0 0 0-7.5 7.5v192.67c0 4.2-3.414 7.613-7.61 7.613h-59.046a7.5 7.5 0 1 0 0 15h59.047c12.465 0 22.609-10.145 22.609-22.613V222.98a7.5 7.5 0 0 0-7.5-7.5zM363.66 423.27H22.61c-4.195 0-7.61-3.414-7.61-7.613v-292.02c0-14.691 11.954-26.648 26.649-26.648h56.004c4.144 0 7.5-3.356 7.5-7.5a7.5 7.5 0 0 0-7.5-7.5H41.649C18.684 81.989 0 100.673 0 123.637v292.02c0 12.469 10.145 22.613 22.609 22.613h151.85c-4.641 15.414-13.715 33.766-31.465 47.234-5.125 3.89-7.11 10.348-5.059 16.445 2.055 6.11 7.547 10.055 13.988 10.055h172.08c6.441 0 11.934-3.946 13.988-10.055 2.05-6.098.066-12.555-5.059-16.445-17.75-13.47-26.824-31.824-31.465-47.238h62.188a7.5 7.5 0 0 0 7.5-7.5 7.496 7.496 0 0 0-7.5-7.496zm-40.379 73.734L152.661 497c22.172-17.094 32.543-40.359 37.391-58.73h95.844c4.848 18.363 15.211 41.617 37.391 58.734z" transform="matrix(.13677 0 0 .11782 137.47 .33)"/><path d="M434.28 81.984H271.51V61.351h20.801c9.27 0 16.809-7.54 16.809-16.809v-3.356h156.02c4.14 0 7.5-3.359 7.5-7.5s-3.36-7.5-7.5-7.5H309.12v-.078c0-9.27-7.54-16.812-16.812-16.812h-108.7c-9.27 0-16.812 7.543-16.812 16.812v.079H10.786c-4.144 0-7.5 3.359-7.5 7.5s3.356 7.5 7.5 7.5h156.01v3.355c0 9.27 7.543 16.809 16.812 16.809h20.797v20.633h-76.137a7.5 7.5 0 0 0 0 15h306.01c14.691 0 26.648 11.957 26.648 26.648v68.727c0 4.144 3.356 7.5 7.5 7.5a7.5 7.5 0 0 0 7.5-7.5v-68.727c0-22.965-18.684-41.648-41.648-41.648zM181.8 44.543V26.105c0-.996.812-1.809 1.812-1.809h108.7c.997 0 1.81.813 1.81 1.809v18.438c0 .996-.813 1.809-1.81 1.809h-108.7c-1 0-1.812-.813-1.812-1.809zm37.609 16.809h37.105v20.633h-37.105z" transform="matrix(.13677 0 0 .11782 137.47 .33)"/></g><path d="M165.115 16.186c-.567 0-1.025.396-1.025.884v.184c0 .488.458.884 1.025.884s1.026-.396 1.026-.884v-.184c0-.488-.459-.884-1.026-.884zm5.927 1.068v-.184c0-.488-.46-.884-1.026-.884-.567 0-1.026.396-1.026.884v.184c0 .488.459.883 1.026.883.566 0 1.026-.395 1.026-.883zm3.876.883c.566 0 1.025-.395 1.025-.883v-.184c0-.488-.46-.884-1.025-.884-.567 0-1.026.396-1.026.884v.184c0 .488.459.883 1.026.883zm-12.451 13.037V26.02c0-.488-.459-.884-1.025-.884-.567 0-1.026.396-1.026.884v5.155c0 .488.459.884 1.026.884.566 0 1.025-.396 1.025-.884zm3.666 0c0 .488.459.884 1.026.884s1.025-.396 1.025-.884V26.02c0-.488-.458-.884-1.025-.884s-1.026.396-1.026.884zm6.741-6.038c-.567 0-1.025.396-1.025.883v5.156c0 .487.458.883 1.025.883s1.026-.396 1.026-.883v-5.156c0-.487-.46-.883-1.026-.883zm6.743 6.038V26.02c0-.488-.46-.884-1.026-.884-.567 0-1.026.396-1.026.884v5.155c0 .488.46.884 1.026.884.567 0 1.026-.396 1.026-.884z" fill="#48c397"/></svg>