<svg viewBox="0 0 50 200" xmlns="http://www.w3.org/2000/svg"><path d="M0 150.63c0 2.055.458 3.644 1.373 4.746.915 1.121 2.154 1.776 3.717 1.963.686.112 2.878.167 6.596.186v2.486h6.1v-2.617h21.921v-6.727H17.785v-4.484h-6.1v3.923l-3.507-.017c-.8 0-1.335-.131-1.602-.393-.343-.355-.513-.934-.513-1.719 0-.616.151-1.402.437-2.355H1.03C.342 147.491 0 149.154 0 150.63zm10.79-55.461c0 3.009.667 5.717 2.02 8.146 1.354 2.43 3.203 4.317 5.548 5.663 2.363 1.345 4.937 2.02 7.72 2.02 4.042 0 7.567-1.384 10.578-4.15 3.012-2.765 4.518-6.577 4.518-11.454 0-5.4-2-9.586-5.985-12.557l-6.252-5.159c2.974-.541 5.585-1.906 7.834-4.148 2.955-2.934 4.422-6.484 4.422-10.633 0-2.803-.667-5.4-2.002-7.736s-3.181-4.185-5.564-5.549c-2.364-1.345-4.919-2.037-7.645-2.037-2.726-.037-5.243.635-7.588 1.98a14.716 14.716 0 0 0-5.547 5.625 15.28 15.28 0 0 0-2.039 7.7c0 3.774 1.316 7.118 3.928 10.033.4.43.819.842 1.238 1.234h-.02l15.194 14.051.113.094c2.192 1.719 3.28 4.13 3.28 7.232 0 2.523-.782 4.56-2.345 6.092-1.563 1.55-3.584 2.316-6.062 2.316-2.554 0-4.632-.804-6.272-2.43-1.62-1.625-2.44-3.754-2.44-6.37 0-1.44.249-2.692.725-3.776.477-1.065 1.353-2.166 2.592-3.25l-3.336-5.85c-2.116 1.402-3.754 3.214-4.898 5.438-1.144 2.205-1.717 4.709-1.717 7.475zm.323 77.006c0 1.308.267 2.58.782 3.832.533 1.252 1.449 2.653 2.802 4.186h-3.011v6.914h28.02v-6.915H28.632c-2.879 0-4.746-.094-5.604-.28-1.658-.374-2.936-1.046-3.889-1.999-.934-.971-1.41-2.112-1.41-3.476 0-1.028.286-1.907.858-2.598.571-.71 1.391-1.196 2.459-1.477 1.086-.28 3.278-.43 6.556-.43h12.105v-6.913H21.272c-3.202 0-5.623.785-7.281 2.355-1.925 1.85-2.879 4.129-2.879 6.8zm.057-138.28c0 1.27.363 2.412 1.049 3.44.705 1.046 3.07 2.52 3.07 2.52h-3.603v5.981h28.02v-6.914H28.499l-1.354-.093c-3.889 0-6.5-.355-7.834-1.065-1.334-.71-2.002-1.57-2.002-2.598 0-.504.209-1.138.61-1.923l-6.024-2.075c-.477.953-.725 1.868-.725 2.727zm0-20.908c0 1.663.324 3.231.953 4.67.63 1.458 1.584 2.822 2.842 4.074h-3.28v6.914H50v-6.914H36.484c1.353-1.345 2.327-2.728 2.918-4.092.59-1.383.894-2.859.894-4.447 0-3.57-1.39-6.671-4.154-9.287C33.359 1.289 29.908-.001 25.79-.001c-4.29 0-7.777 1.251-10.521 3.793-2.726 2.522-4.1 5.588-4.1 9.195zm.02 116.06c0 3.625 1.258 6.82 3.755 9.604 2.898 3.176 6.482 4.765 10.81 4.765 4.04 0 7.471-1.402 10.292-4.205 2.822-2.803 4.233-6.203 4.233-10.184 0-2.69-.649-5.176-1.926-7.418a13.863 13.863 0 0 0-5.338-5.307 14.581 14.581 0 0 0-7.32-1.943c-2.574-.019-4.995.634-7.225 1.924-2.23 1.29-4.003 3.084-5.318 5.383s-1.963 4.764-1.963 7.38zm.496 70.951h28.02v-6.914h-28.02zm5.756-137.27c0-2.373.802-4.336 2.365-5.85 1.582-1.532 3.64-2.296 6.156-2.296 2.516 0 4.575.784 6.195 2.335 1.602 1.551 2.403 3.512 2.403 5.848s-.801 4.28-2.383 5.813c-1.582 1.513-3.66 2.279-6.215 2.279-2.478 0-4.518-.768-6.12-2.318-1.6-1.533-2.402-3.475-2.402-5.811zm.382-48.248c0-2.186.744-3.999 2.211-5.437 1.468-1.44 3.354-2.149 5.66-2.149 2.326 0 4.232.728 5.72 2.186 1.505 1.457 2.25 3.27 2.25 5.4 0 2.205-.743 4.037-2.192 5.494-1.468 1.458-3.393 2.186-5.795 2.186-2.326 0-4.214-.728-5.682-2.186-1.448-1.457-2.171-3.289-2.171-5.494zm.018 114.44c0-2.224.726-4.055 2.193-5.494 1.468-1.439 3.355-2.148 5.7-2.148 2.306-.038 4.212.71 5.699 2.168 1.487 1.457 2.23 3.287 2.23 5.492s-.742 4.018-2.19 5.457c-1.469 1.439-3.395 2.148-5.759 2.148-2.287 0-4.173-.729-5.66-2.168-1.468-1.439-2.213-3.269-2.213-5.455z" fill="gray"/></svg>