<svg width="280mm" height="247.892" viewBox="0 0 280 65.588" xmlns="http://www.w3.org/2000/svg"><g fill="none" stroke-linecap="round" stroke-linejoin="round" stroke-miterlimit="10" stroke-width=".662"><path d="M77.582 53.75h15.386m-27.128 0h6.203m24.077-8.94h140.36m3.54 0h9.283" stroke="#3a4144"/><path d="M9.217 20.52H39.09m67.21 44.74h9.497" stroke="#fff"/><path d="M259.76 44.81h9.284M82.691 7.34a9.485 9.485 0 0 0-1.978-.207c-3.915 0-7.206 2.365-8.159 5.572a6.084 6.084 0 0 0-2.02-.345c-3.033 0-5.492 2.18-5.492 4.87s2.459 4.871 5.492 4.871h4.498M87.881 10.66c-.819-1.166-1.989-2.119-3.38-2.74m9.335 6.91a4.951 4.951 0 0 0-2.851-.88c-.656 0-1.279.124-1.843.344a6.741 6.741 0 0 0-.53-2.315M80.683 22.1h10.302c2.537 0 4.594-1.824 4.594-4.075M76.581 22.1h2.552M15.639 49.66h102.08m-24.751 4.09c0-.917.838-1.66 1.872-1.66 1.034 0 1.873.743 1.873 1.66 0 .917-.839 1.66-1.873 1.66s-1.872-.743-1.872-1.66z" stroke="#3a4144"/><path d="M230.07 61.85c0-.917.838-1.66 1.872-1.66 1.034 0 1.873.743 1.873 1.66 0 .917-.839 1.66-1.873 1.66s-1.872-.743-1.872-1.66zm-229.74 0c0-.917.84-1.66 1.873-1.66 1.034 0 1.873.743 1.873 1.66 0 .917-.839 1.66-1.873 1.66S.331 62.768.331 61.85z" stroke="#fff"/></g><path d="M112.52 41.2l-4.535-.713 5.745-28.728 4.535.713L112.52 41.2" fill="#fab44e"/><path d="M112.52 41.2l-4.535-.713 5.745-28.728 4.535.713zm.9-27.92l2.042.321M113.1 14.89l1.02.16m-1.34 1.44l1.02.16m-1.34 1.45l1.021.16m-1.341 1.44l2.042.322m-2.362 1.288l1.021.16m-1.341 1.45l1.02.16m-1.34 1.44l1.021.16m-1.341 1.45l2.042.321m-2.372 1.279l1.021.16m-1.341 1.45l1.02.16m-1.34 1.44l1.02.16m-1.34 1.45l2.042.321m-2.362 1.279l1.021.16m-1.341 1.45l1.021.16m-1.341 1.44l1.021.16m-1.341 1.45l2.042.321" fill="none" stroke="#3a4144" stroke-linecap="round" stroke-linejoin="round" stroke-miterlimit="10" stroke-width=".662"/><path d="M111.55 40.74l-2.458-.766 6.93-17.491 2.458.766-6.93 17.491" fill="#93d9bd"/><path d="M111.55 40.74l-2.458-.766 6.93-17.491 2.458.766z" fill="none" stroke="#3a4144" stroke-linecap="round" stroke-linejoin="round" stroke-miterlimit="10" stroke-width=".662"/><path d="M116.03 22.49l2.16-1.969.298 2.735z" fill="#fab44e"/><path d="M116.03 22.49l2.16-1.969.298 2.735z" fill="none" stroke="#3a4144" stroke-linecap="round" stroke-linejoin="round" stroke-miterlimit="10" stroke-width=".662"/><path d="M117.33 21.3l.971.303-.117-1.081z" fill="#3a4144"/><path d="M117.33 21.3l.971.303-.117-1.081zm-7 19.06l6.93-17.49" fill="none" stroke="#3a4144" stroke-linecap="round" stroke-linejoin="round" stroke-miterlimit="10" stroke-width=".662"/><path d="M111.16 41.73l-2.458-.766.39-.985 2.458.766-.39.985" fill="#c4cbc9"/><path d="M111.16 41.73l-2.458-.766.39-.985 2.458.766z" fill="none" stroke="#3a4144" stroke-linecap="round" stroke-linejoin="round" stroke-miterlimit="10" stroke-width=".662"/><path d="M110.43 43.59l-2.458-.766.738-1.862 2.458.766-.738 1.862" fill="#f0f0ef"/><path d="M110.43 43.59l-2.458-.766.738-1.862 2.458.766z" fill="none" stroke="#3a4144" stroke-linecap="round" stroke-linejoin="round" stroke-miterlimit="10" stroke-width=".662"/><path d="M105.91 22.47l2.594-.213 1.932 18.46-2.594.213-1.932-18.46" fill="#ee43aa"/><path d="M105.91 22.47l2.594-.213 1.932 18.46-2.594.213z" fill="none" stroke="#3a4144" stroke-linecap="round" stroke-linejoin="round" stroke-miterlimit="10" stroke-width=".662"/><path d="M110.43 40.72l-1.038 2.589-1.556-2.375z" fill="#fab44e"/><path d="M110.43 40.72l-1.038 2.589-1.556-2.375z" fill="none" stroke="#3a4144" stroke-linecap="round" stroke-linejoin="round" stroke-miterlimit="10" stroke-width=".662"/><path d="M109.81 42.28l-1.025.084.615.939z" fill="#3a4144"/><path d="M109.81 42.28l-1.025.084.615.939zm-2.6-19.92l1.931 18.46" fill="none" stroke="#3a4144" stroke-linecap="round" stroke-linejoin="round" stroke-miterlimit="10" stroke-width=".662"/><path d="M105.8 21.43l2.594-.214.109 1.04-2.594.213-.109-1.039" fill="#c4cbc9"/><path d="M105.8 21.43l2.594-.214.109 1.04-2.594.213z" fill="none" stroke="#3a4144" stroke-linecap="round" stroke-linejoin="round" stroke-miterlimit="10" stroke-width=".662"/><path d="M105.59 19.47l2.595-.214.205 1.965-2.594.214-.206-1.965" fill="#f0f0ef"/><path d="M105.59 19.47l2.595-.214.205 1.965-2.594.214z" fill="none" stroke="#3a4144" stroke-linecap="round" stroke-linejoin="round" stroke-miterlimit="10" stroke-width=".662"/><path d="M116.79 32.82h-11.3v10.262c0 .955.872 1.728 1.949 1.728h7.403c1.076 0 1.948-.773 1.948-1.728V32.82" fill="#c4cbc9"/><path d="M116.79 32.82h-11.3v10.262c0 .955.872 1.728 1.949 1.728h7.403c1.076 0 1.948-.773 1.948-1.728z" fill="none" stroke="#3a4144" stroke-linecap="round" stroke-linejoin="round" stroke-miterlimit="10" stroke-width=".662"/><path d="M117.46 30.48h-12.647v2.337h12.647V30.48" fill="#d7dcdb"/><path d="M117.46 30.48h-12.647v2.337h12.647zm-10.5 2.39v4.656m8.25.504v1.26m0 1.07v1.26m124.84-17.51c.629 1.173 1.977 1.985 3.54 1.985h30.126c3.289 0 5.956-2.366 5.956-5.283 0-2.918-2.667-5.284-5.957-5.284-.775 0-1.513.136-2.192.374-1.033-3.478-4.603-6.043-8.85-6.043-4.923 0-8.936 3.448-9.142 7.77a5.506 5.506 0 0 0-1.999-.373c-2.309 0-4.245 1.395-4.81 3.285-.715-.845-1.85-1.394-3.133-1.394m-1.839.413c-1.236.584-2.078 1.739-2.078 3.068" fill="none" stroke="#3a4144" stroke-linecap="round" stroke-linejoin="round" stroke-miterlimit="10" stroke-width=".662"/><path d="M216.268 4.096v44.27c0 1.51-1.271 2.731-2.837 2.731h-24.69c-1.568 0-2.837-1.222-2.837-2.73V4.096c0-1.509 1.27-2.731 2.837-2.731h24.69c1.566 0 2.837 1.222 2.837 2.73z" fill="#93d9bd"/><path d="M185.903 7.921h30.365v5.911h-30.365z" fill="#fff"/><path d="M216.268 4.096V7.92h-30.365V4.096c0-1.509 1.27-2.731 2.837-2.731h24.69c1.567 0 2.838 1.222 2.838 2.73zm0 40.359v3.912c0 1.508-1.271 2.73-2.837 2.73h-24.69c-1.568 0-2.837-1.222-2.837-2.73v-3.912z" fill="#fab44e"/><path d="M176.76 4.096v44.27c0 1.51-1.272 2.731-2.838 2.731h-24.69c-1.567 0-2.837-1.222-2.837-2.73V4.096c0-1.509 1.27-2.731 2.837-2.731h24.69c1.566 0 2.837 1.222 2.837 2.73z" fill="#fff"/><path d="M176.76 4.096V7.92h-30.366V4.096c0-1.509 1.27-2.731 2.837-2.731h24.69c1.567 0 2.837 1.222 2.837 2.73zm0 40.359v3.912c0 1.508-1.272 2.73-2.838 2.73h-24.69c-1.567 0-2.837-1.222-2.837-2.73v-3.912z" fill="#93d9bd"/><path d="M150.052 16.05h23.05v6.656h-23.05z" fill="#fab44e"/><path d="M190.233 17.483h8.62v8.296h-8.62z" fill="#fff"/><path d="M203.318 17.483h8.62v8.296h-8.62z" fill="#fab44e"/><path d="M484.32 0H308.7c-15.262 0-27.68 12.414-27.68 27.68v251.27a7.5 7.5 0 0 0 7.5 7.5c4.144 0 7.5-3.356 7.5-7.5V27.68c0-6.992 5.688-12.68 12.68-12.68h175.62c6.992 0 12.68 5.687 12.68 12.68v327.16c0 6.988-5.688 12.676-12.68 12.676H308.7c-6.992 0-12.68-5.688-12.68-12.676v-45.273c0-4.144-3.356-7.5-7.5-7.5a7.5 7.5 0 0 0-7.5 7.5v45.273c0 15.262 12.418 27.676 27.68 27.676h175.62c15.266 0 27.68-12.414 27.68-27.676V27.68C512 12.414 499.586 0 484.32 0z" fill="none" stroke="#3a4144" stroke-width="5.08" transform="matrix(.14059 0 0 .13532 145.34 .35)"/><path d="M194.313 5.658h7.894c.583 0 1.054-.454 1.054-1.015 0-.56-.471-1.015-1.054-1.015h-7.894c-.583 0-1.054.454-1.054 1.015 0 .56.471 1.015 1.054 1.015zm14.121.076c.583 0 1.054-.454 1.054-1.015v-.152c0-.56-.471-1.015-1.054-1.015-.582 0-1.054.454-1.054 1.015v.152c0 .56.472 1.015 1.054 1.015zm-2.746 0c.582 0 1.055-.454 1.055-1.015v-.152c0-.56-.473-1.015-1.055-1.015s-1.054.454-1.054 1.015v.152c0 .56.472 1.015 1.054 1.015zm-2.37 41.028h-4.467c-.582 0-1.054.455-1.054 1.015 0 .56.472 1.015 1.054 1.015h4.467c.583 0 1.054-.454 1.054-1.015 0-.56-.471-1.015-1.054-1.015z" fill="#fff"/><path d="M203.3 0H27.68C12.418 0 .004 12.414.004 27.68v159.27a7.5 7.5 0 1 0 15 0V27.68c0-6.992 5.688-12.68 12.676-12.68H203.3c6.992 0 12.68 5.688 12.68 12.68v327.16c0 6.988-5.687 12.676-12.68 12.676H27.68c-6.988 0-12.676-5.688-12.676-12.676V217.57a7.5 7.5 0 1 0-15 0v137.27c0 15.262 12.414 27.676 27.676 27.676H203.3c15.262 0 27.68-12.414 27.68-27.676V27.68C230.98 12.414 218.562 0 203.3 0z" fill="none" stroke="#3a4144" stroke-width="5.08" transform="matrix(.14059 0 0 .13532 145.34 .35)"/><path d="M162.699 3.628h-7.895c-.582 0-1.054.454-1.054 1.015 0 .56.472 1.015 1.054 1.015h7.894c.583 0 1.055-.454 1.055-1.015 0-.56-.472-1.015-1.054-1.015zm6.226-.076c-.582 0-1.054.454-1.054 1.015v.152c0 .56.472 1.015 1.054 1.015.583 0 1.055-.454 1.055-1.015v-.152c0-.56-.472-1.015-1.055-1.015zm-2.745 0c-.582 0-1.055.454-1.055 1.015v.152c0 .56.473 1.015 1.055 1.015s1.054-.454 1.054-1.015v-.152c0-.56-.472-1.015-1.054-1.015zm-2.37 43.21h-4.466c-.582 0-1.054.455-1.054 1.015 0 .56.472 1.015 1.054 1.015h4.467c.582 0 1.054-.454 1.054-1.015 0-.56-.472-1.015-1.054-1.015z" fill="#fff"/><path d="M158.752 25.216h-8.364c-.582 0-1.054.454-1.054 1.015 0 .56.472 1.015 1.054 1.015h8.364c.582 0 1.054-.454 1.054-1.015 0-.56-.472-1.015-1.054-1.015zm0 3.525h-8.364c-.582 0-1.054.455-1.054 1.015 0 .561.472 1.015 1.054 1.015h8.364c.582 0 1.054-.454 1.054-1.015 0-.56-.472-1.015-1.054-1.015zm0 3.526h-8.364c-.582 0-1.054.454-1.054 1.014 0 .561.472 1.015 1.054 1.015h8.364c.582 0 1.054-.454 1.054-1.015 0-.56-.472-1.014-1.054-1.014zm0 3.525h-8.364c-.582 0-1.054.454-1.054 1.015 0 .56.472 1.014 1.054 1.014h8.364c.582 0 1.054-.454 1.054-1.014 0-.561-.472-1.015-1.054-1.015zm0 3.525h-8.364c-.582 0-1.054.454-1.054 1.015 0 .56.472 1.015 1.054 1.015h8.364c.582 0 1.054-.455 1.054-1.015 0-.561-.472-1.015-1.054-1.015zm0-26.041c.582 0 1.054-.455 1.054-1.015 0-.561-.472-1.015-1.054-1.015h-8.364c-.582 0-1.054.454-1.054 1.015 0 .56.472 1.015 1.054 1.015zm14.355 11.94h-10.408c-.583 0-1.055.454-1.055 1.015 0 .56.472 1.015 1.055 1.015h10.408c.582 0 1.054-.454 1.054-1.015 0-.56-.472-1.015-1.054-1.015zm0 3.525h-10.408c-.583 0-1.055.455-1.055 1.015 0 .561.472 1.015 1.055 1.015h10.408c.582 0 1.054-.454 1.054-1.015 0-.56-.472-1.015-1.054-1.015zm0 3.526h-10.408c-.583 0-1.055.454-1.055 1.014 0 .561.472 1.015 1.055 1.015h10.408c.582 0 1.054-.454 1.054-1.015 0-.56-.472-1.014-1.054-1.014zm0 3.525h-10.408c-.583 0-1.055.454-1.055 1.015 0 .56.472 1.014 1.055 1.014h10.408c.582 0 1.054-.454 1.054-1.014 0-.561-.472-1.015-1.054-1.015zm0 3.525h-10.408c-.583 0-1.055.454-1.055 1.015 0 .56.472 1.015 1.055 1.015h10.408c.582 0 1.054-.455 1.054-1.015 0-.561-.472-1.015-1.054-1.015zm32.581-29.455h-16.165c-.582 0-1.054.454-1.054 1.014 0 .561.472 1.015 1.054 1.015h16.165c.582 0 1.055-.454 1.055-1.015 0-.56-.473-1.014-1.055-1.014z" fill="#abb0b7"/><path d="M190.233 29.823h8.62c.582 0 1.054-.455 1.054-1.015 0-.561-.472-1.015-1.054-1.015h-8.62c-.582 0-1.054.454-1.054 1.015 0 .56.472 1.015 1.054 1.015zm0 3.241h8.62c.582 0 1.054-.454 1.054-1.015s-.472-1.015-1.054-1.015h-8.62c-.582 0-1.054.454-1.054 1.015s.472 1.015 1.054 1.015zm0 3.241h8.62c.582 0 1.054-.455 1.054-1.015 0-.561-.472-1.015-1.054-1.015h-8.62c-.582 0-1.054.454-1.054 1.015 0 .56.472 1.015 1.054 1.015zm6.103 3.575v.155c0 .56.472 1.014 1.055 1.014.582 0 1.054-.454 1.054-1.014v-.155c0-.56-.472-1.015-1.054-1.015-.583 0-1.055.454-1.055 1.015zm5.804.155v-.155c0-.56-.473-1.014-1.055-1.014s-1.054.454-1.054 1.014v.155c0 .561.472 1.015 1.054 1.015.582 0 1.055-.454 1.055-1.015zm1.587-.155v.155c0 .56.472 1.014 1.054 1.014.583 0 1.055-.454 1.055-1.014v-.155c0-.56-.472-1.015-1.055-1.015-.582 0-1.054.454-1.054 1.015zm-.409-10.057h8.62c.582 0 1.054-.455 1.054-1.015 0-.561-.472-1.015-1.055-1.015h-8.62c-.581 0-1.054.454-1.054 1.015 0 .56.473 1.015 1.055 1.015zm0 3.241h8.62c.582 0 1.054-.454 1.054-1.015s-.472-1.015-1.055-1.015h-8.62c-.581 0-1.054.454-1.054 1.015s.473 1.015 1.055 1.015zm0 3.241h8.62c.582 0 1.054-.455 1.054-1.015 0-.561-.472-1.015-1.055-1.015h-8.62c-.581 0-1.054.454-1.054 1.015 0 .56.473 1.015 1.055 1.015z" fill="#48c397"/><path d="M252.32 167.98a7.497 7.497 0 0 0-10.605 0 7.497 7.497 0 0 0 0 10.605l12.672 12.676-12.672 12.672a7.497 7.497 0 0 0 0 10.605c1.46 1.465 3.383 2.195 5.3 2.195s3.84-.73 5.306-2.195l17.977-17.977a7.497 7.497 0 0 0 0-10.605z" fill="none" stroke="#3a4144" stroke-width="5.08" transform="matrix(.14059 0 0 .13532 145.34 .35)"/></svg>