<svg width="272.29mm" height="261.747" viewBox="0 0 272.29 69.254" xmlns="http://www.w3.org/2000/svg"><g fill="none" stroke-linecap="round" stroke-linejoin="round" stroke-miterlimit="10" stroke-width=".706"><path d="M69.008 67.02h15.45m-27.241 0h6.229M87.623 56.9h140.94m3.557 0h9.322" stroke="#3a4144"/><path d="M.358 29.4h29.998" stroke="#fff"/><path d="M251.94 56.9h9.322M74.138 14.47a8.476 8.476 0 0 0-10.179 6.074 5.491 5.491 0 0 0-2.029-.39 5.515 5.515 0 1 0 0 11.029h4.517M79.35 18.24a8.511 8.511 0 0 0-3.393-3.101m9.373 7.821a4.591 4.591 0 0 0-2.863-.996 4.59 4.59 0 0 0-1.85.389c-.04-.92-.225-1.8-.533-2.621M72.122 31.19h10.345a4.613 4.613 0 0 0 4.613-4.613M68.003 31.19h2.563M6.807 62.39h102.5m-24.849 4.63a1.88 1.88 0 1 1 3.76 0 1.88 1.88 0 0 1-3.76 0z" stroke="#3a4144"/></g><path d="M104.09 52.82l-4.554-.808 5.769-32.526 4.554.808-5.769 32.526" fill="#fab44e"/><path d="M104.09 52.82l-4.554-.808 5.769-32.526 4.554.808zm.91-31.61l2.05.364m-2.37 1.446l1.025.182m-1.345 1.638l1.025.182m-1.355 1.638l1.026.182m-1.346 1.638l2.05.364m-2.37 1.446l1.026.182m-1.346 1.638l1.025.182m-1.355 1.638l1.026.182m-1.346 1.638l2.05.364m-2.37 1.446l1.026.182m-1.346 1.638l1.025.182M101.45 41.2l1.025.182m-1.345 1.638l2.05.364m-2.37 1.456l1.026.182m-1.346 1.628l1.026.182m-1.356 1.638l1.026.182m-1.344 1.638l2.05.364" fill="none" stroke="#3a4144" stroke-linecap="round" stroke-linejoin="round" stroke-miterlimit="10" stroke-width=".706"/><path d="M103.12 52.3l-2.468-.867 6.959-19.803 2.468.867L103.12 52.3" fill="#93d9bd"/><path d="M103.12 52.3l-2.468-.867 6.959-19.803 2.468.867z" fill="none" stroke="#3a4144" stroke-linecap="round" stroke-linejoin="round" stroke-miterlimit="10" stroke-width=".706"/><path d="M107.61 31.62l2.17-2.229.298 3.097z" fill="#fab44e"/><path d="M107.61 31.62l2.17-2.229.298 3.097z" fill="none" stroke="#3a4144" stroke-linecap="round" stroke-linejoin="round" stroke-miterlimit="10" stroke-width=".706"/><path d="M108.93 30.28l.975.343-.117-1.224z" fill="#3a4144"/><path d="M108.93 30.28l.975.343-.117-1.224zm-7.04 21.58l6.96-19.803" fill="none" stroke="#3a4144" stroke-linecap="round" stroke-linejoin="round" stroke-miterlimit="10" stroke-width=".706"/><path d="M102.73 53.41l-2.468-.867.392-1.116 2.468.868-.392 1.115" fill="#c4cbc9"/><path d="M102.73 53.41l-2.468-.867.392-1.116 2.468.868z" fill="none" stroke="#3a4144" stroke-linecap="round" stroke-linejoin="round" stroke-miterlimit="10" stroke-width=".706"/><path d="M101.99 55.52l-2.468-.867.74-2.108 2.469.867-.741 2.108" fill="#f0f0ef"/><path d="M101.99 55.52l-2.468-.867.74-2.108 2.469.867z" fill="none" stroke="#3a4144" stroke-linecap="round" stroke-linejoin="round" stroke-miterlimit="10" stroke-width=".706"/><path d="M97.452 31.61l2.605-.242 1.94 20.9-2.605.242-1.94-20.9" fill="#ee43aa"/><path d="M97.452 31.61l2.605-.242 1.94 20.9-2.605.242z" fill="none" stroke="#3a4144" stroke-linecap="round" stroke-linejoin="round" stroke-miterlimit="10" stroke-width=".706"/><path d="M102 52.27l-1.042 2.931-1.563-2.689z" fill="#fab44e"/><path d="M102 52.27l-1.042 2.931-1.563-2.689z" fill="none" stroke="#3a4144" stroke-linecap="round" stroke-linejoin="round" stroke-miterlimit="10" stroke-width=".706"/><path d="M101.37 54.04l-1.03.095.618 1.063z" fill="#3a4144"/><path d="M101.37 54.04l-1.03.095.618 1.063zm-2.615-22.55l1.94 20.9" fill="none" stroke="#3a4144" stroke-linecap="round" stroke-linejoin="round" stroke-miterlimit="10" stroke-width=".706"/><path d="M97.343 30.43l2.605-.242.11 1.177-2.606.242-.109-1.177" fill="#c4cbc9"/><path d="M97.343 30.43l2.605-.242.11 1.177-2.606.242z" fill="none" stroke="#3a4144" stroke-linecap="round" stroke-linejoin="round" stroke-miterlimit="10" stroke-width=".706"/><path d="M97.136 28.21l2.606-.242.206 2.225-2.605.242-.207-2.225" fill="#f0f0ef"/><path d="M97.136 28.21l2.606-.242.206 2.225-2.605.242z" fill="none" stroke="#3a4144" stroke-linecap="round" stroke-linejoin="round" stroke-miterlimit="10" stroke-width=".706"/><path d="M108.38 43.32H97.033v11.619c0 1.08.876 1.957 1.957 1.957h7.434c1.08 0 1.957-.876 1.957-1.957V43.32" fill="#c4cbc9"/><path d="M108.38 43.32H97.033v11.619c0 1.08.876 1.957 1.957 1.957h7.434c1.08 0 1.957-.876 1.957-1.957z" fill="none" stroke="#3a4144" stroke-linecap="round" stroke-linejoin="round" stroke-miterlimit="10" stroke-width=".706"/><path d="M109.05 40.68h-12.7v2.646h12.7V40.68" fill="#d7dcdb"/><path d="M109.05 40.68h-12.7v2.646h12.7zm-10.539 2.7v5.271m8.279.579v1.426m0 1.204v1.426M232.15 33.47a3.933 3.933 0 0 0 3.554 2.247h30.252a5.981 5.981 0 0 0 0-11.963 5.96 5.96 0 0 0-2.201.423c-1.038-3.938-4.622-6.842-8.887-6.842-4.943 0-8.974 3.904-9.18 8.797a5 5 0 0 0-6.838 3.297 3.923 3.923 0 0 0-3.145-1.578m-1.845.459a3.932 3.932 0 0 0-2.086 3.473" fill="none" stroke="#3a4144" stroke-linecap="round" stroke-linejoin="round" stroke-miterlimit="10" stroke-width=".706"/><path d="M172.516 17.985c0 9.18-7.442 16.622-16.622 16.622s-16.622-7.442-16.622-16.622 7.443-16.622 16.622-16.622c9.18 0 16.622 7.442 16.622 16.622z" fill="#93d9bd"/><path d="M141.447 22.201a2.175 2.175 0 1 1-4.35 0 2.175 2.175 0 0 1 4.35 0zm10.483-10.482a2.176 2.176 0 1 1-4.351 0 2.176 2.176 0 0 1 4.351 0zm11.118 11.118a2.176 2.176 0 1 1-4.351 0 2.176 2.176 0 0 1 4.351 0zm14.438-14.438a2.176 2.176 0 1 1-4.351 0 2.176 2.176 0 0 1 4.351 0z" fill="#fab44e"/><path d="M187.072 17.985a2.176 2.176 0 1 1-4.352 0 2.176 2.176 0 0 1 4.352 0z" fill="#ffc850"/><path d="M146.84 46.899h5.952V63.64h-5.952zm10.026 0h5.952V63.64h-5.952z" fill="#ff8031"/><path d="M166.892 41.946h5.952v21.695h-5.952z" fill="#fab44e"/><path d="M176.919 34.563h5.952v29.078h-5.952zm10.026-7.636h5.952v36.714h-5.952zm10.027-8.942h5.952V63.64h-5.952z" fill="#93d9bd"/><g fill="#474d54"><path d="M139.859 25.338a17.56 17.56 0 0 0 3.7 5.254 1.012 1.012 0 0 0 1.436-.016c.393-.4.386-1.044-.015-1.435a15.556 15.556 0 0 1-3.344-4.798 3.177 3.177 0 0 0 .49-3.564l6.205-6.205a3.172 3.172 0 0 0 2.767.039l6.824 6.823a.93.93 0 0 0 .059.053c-.192.41-.3.867-.3 1.348a3.195 3.195 0 0 0 3.191 3.191 3.195 3.195 0 0 0 2.97-4.357l7.248-7.248c.268 1.145.41 2.337.41 3.563 0 8.605-7 15.606-15.606 15.606a15.6 15.6 0 0 1-7.784-2.077 1.015 1.015 0 1 0-1.014 1.76 17.634 17.634 0 0 0 8.798 2.348c9.725 0 17.637-7.913 17.637-17.637 0-1.816-.276-3.568-.787-5.217l1.4-1.4a3.185 3.185 0 0 0 2.688-.166l5.26 5.26a3.195 3.195 0 0 0 2.805 4.713 3.195 3.195 0 0 0 3.191-3.19 3.195 3.195 0 0 0-4.508-2.907l-5.364-5.363a3.195 3.195 0 0 0-2.906-4.508 3.195 3.195 0 0 0-3.191 3.19c0 .607.17 1.175.465 1.658l-.634.634C169.17 4.595 163.02.348 155.893.348c-9.725 0-17.637 7.912-17.637 17.637 0 .392.015.786.04 1.178a3.196 3.196 0 0 0-2.216 3.038 3.195 3.195 0 0 0 3.779 3.136zm45.037-8.513a1.161 1.161 0 0 1 0 2.321 1.16 1.16 0 0 1 0-2.32zM175.31 7.24c.64 0 1.16.52 1.16 1.16a1.161 1.161 0 0 1-2.32 0c0-.64.52-1.16 1.16-1.16zm-26.717 4.48c0-.64.52-1.16 1.16-1.16a1.161 1.161 0 0 1 0 2.32c-.64 0-1.16-.52-1.16-1.16zm12.279 12.278a1.161 1.161 0 0 1 0-2.32 1.16 1.16 0 0 1 0 2.32zm-4.979-21.619c6.577 0 12.216 4.09 14.51 9.859l-7.874 7.873a3.17 3.17 0 0 0-1.657-.465c-.541 0-1.05.135-1.497.374l-.018-.02-6.786-6.786c.238-.446.374-.955.374-1.495a3.195 3.195 0 0 0-3.191-3.19 3.195 3.195 0 0 0-3.191 3.19c0 .51.12.99.333 1.417l-6.208 6.208a3.207 3.207 0 0 0-.356-.15c-.03-.401-.046-.806-.046-1.208 0-8.606 7.001-15.606 15.606-15.606zm-17.782 19.823a1.161 1.161 0 0 1 2.32 0 1.161 1.161 0 0 1-2.32 0z" fill="none" stroke="#3a4144" stroke-width=".706"/><path d="M204.384 64.657a1.015 1.015 0 1 0 0-2.031h-.446V40.397a1.015 1.015 0 1 0-2.031 0v22.229h-3.92V19.002h3.92v17.25a1.016 1.016 0 0 0 2.03 0V17.986c0-.56-.453-1.015-1.015-1.015h-5.95c-.562 0-1.016.454-1.016 1.015v44.64h-2.044V26.927c0-.56-.455-1.015-1.016-1.015h-5.951c-.56 0-1.016.455-1.016 1.015v35.699h-2.043V34.563c0-.56-.455-1.015-1.016-1.015h-5.951c-.562 0-1.016.454-1.016 1.015v28.063h-2.044v-20.68c0-.56-.454-1.015-1.015-1.015h-5.952c-.56 0-1.015.454-1.015 1.015v20.68h-2.044V46.899c0-.561-.455-1.016-1.016-1.016h-5.951c-.561 0-1.016.455-1.016 1.016v5.87a1.015 1.015 0 1 0 2.031 0v-4.855h3.92v14.712h-3.92v-5.712a1.015 1.015 0 1 0-2.03 0v5.712h-2.045V46.899c0-.561-.454-1.016-1.015-1.016h-5.95c-.562 0-1.016.455-1.016 1.016v15.727h-7.781a1.015 1.015 0 1 0 0 2.03zM187.96 27.943h3.92v34.683h-3.92zm-10.026 7.636h3.92v27.046h-3.92zm-10.027 7.382h3.922v19.664h-3.922zm-20.052 4.953h3.92v14.711h-3.92z" fill="#93d9bd" stroke="#3a4144" stroke-width=".706"/><path d="M202.922 4.262c.561 0 1.015-.454 1.015-1.015v-.223a1.015 1.015 0 1 0-2.03 0v.223c0 .561.454 1.015 1.015 1.015zm-3.456 0c.56 0 1.015-.454 1.015-1.015v-.223a1.015 1.015 0 1 0-2.03 0v.223c0 .561.454 1.015 1.015 1.015z"/><path d="M199.466 8.313h3.432a1.015 1.015 0 1 0 0-2.03h-3.432a1.016 1.016 0 0 0 0 2.03z" fill="#93d9bd" stroke="#3a4144" stroke-width=".706"/><path d="M193.744 11.59h9.153a1.015 1.015 0 1 0 0-2.031h-9.153a1.016 1.016 0 0 0 0 2.03z" fill="none" stroke="#3a4144" stroke-width=".706"/></g></svg>