<?xml version="1.0" encoding="utf-8"?>
<!-- Generator: Adobe Illustrator 21.0.0, SVG Export Plug-In . SVG Version: 6.00 Build 0)  -->
<svg version="1.1" id="Слой_1" xmlns="http://www.w3.org/2000/svg" xmlns:xlink="http://www.w3.org/1999/xlink" x="0px" y="0px"
	 viewBox="0 0 529 411" style="enable-background:new 0 0 529 411;" xml:space="preserve">
<style type="text/css">
	.st0{fill:#AB4FFC;}
	.st1{fill:#FFFFFF;}
	.st2{fill:#333333;}
	.st3{fill:#3099FF;}
	.st4{fill:#13EA9D;}
	.st5{fill:#FFCC00;}
	.st6{fill:#FFD200;}
	.st7{clip-path:url(#SVGID_2_);fill:#333333;}
	.st8{fill:#1D82D6;}
	.st9{fill:#009AFF;}
	.st10{opacity:0.15;}
	.st11{fill:#BEEDFD;}
	.st12{fill:#2F2F2F;}
	.st13{fill:#2DC458;}
	.st14{fill:#3399FF;}
	.st15{clip-path:url(#SVGID_4_);fill:#333333;}
	.st16{clip-path:url(#SVGID_6_);fill:#333333;}
	.st17{clip-path:url(#SVGID_8_);fill:#333333;}
	.st18{fill:#FFFFFF;stroke:#0099FF;stroke-width:3;stroke-miterlimit:10;}
	.st19{fill:none;stroke:#FFCC00;stroke-width:3;stroke-miterlimit:10;}
	.st20{fill:none;stroke:#00C44E;stroke-width:3;stroke-miterlimit:10;}
	.st21{fill:none;stroke:#C34EFF;stroke-width:3;stroke-miterlimit:10;}
</style>
<g>
	<path class="st0" d="M21.6,37c-4.2,0-8.3-1.5-11.5-4.2l1.9-2.3c2.7,2.3,6,3.5,9.5,3.5l0,0c3.9,0,7.6-1.5,10.4-4.3s4.3-6.5,4.3-10.4
		S34.8,11.6,32,8.8s-6.5-4.3-10.4-4.3l0,0C17.7,4.5,14,6,11.2,8.8s-4.3,6.5-4.3,10.4h-3C3.8,14.5,5.7,10,9,6.7s7.8-5.2,12.5-5.2l0,0
		c4.7,0,9.2,1.8,12.5,5.2c3.3,3.3,5.2,7.8,5.2,12.5s-1.8,9.2-5.2,12.5C30.8,35.1,26.3,37,21.6,37L21.6,37z"/>
	<polygon class="st0" points="4,20.7 1.6,13.7 4.4,12.8 5.8,16.9 9.7,15.6 10.7,18.5 	"/>
	<polygon class="st0" points="21.9,23.9 14.4,14.1 16.8,12.3 22.5,19.7 25.9,17.1 27.7,19.5 	"/>
</g>
<g>
	<path class="st1" d="M64,41.5c-4.8,0-9.4-1.7-13.1-4.8l1.3-1.5c3.3,2.8,7.5,4.3,11.8,4.3l0,0c4.9,0,9.5-1.9,12.9-5.4
		c3.5-3.5,5.4-8.1,5.3-12.9c0-4.9-1.9-9.5-5.4-12.9C73.4,4.9,68.9,3,64,3l0,0c-10.1,0-18.3,8.2-18.3,18.3h-2C43.7,10.1,52.8,1,64,1
		l0,0c5.4,0,10.5,2.1,14.3,5.9s5.9,8.9,5.9,14.3s-2.1,10.5-5.9,14.3C74.5,39.4,69.4,41.5,64,41.5L64,41.5z"/>
	<polygon class="st1" points="43.6,22 41,14.5 42.9,13.8 44.8,19.5 50.1,17.7 50.8,19.6 	"/>
	<polygon class="st1" points="64.6,25.7 56.1,14.7 57.7,13.5 64.9,22.9 69.6,19.4 70.8,20.9 	"/>
</g>
<polygon class="st2" points="104,21.2 86,3.1 88.1,1 104,16.9 119.9,1 122.1,3.1 "/>
<polygon class="st2" points="144.6,42.2 124,21.6 144.6,1 146.7,3.1 128.2,21.6 146.7,40.1 "/>
<polygon class="st2" points="150.1,42.2 148,40.1 166.5,21.6 148,3.1 150.1,1 170.7,21.6 "/>
<g>
	<polygon class="st3" points="184.9,12 183.5,10.6 187.6,6.5 183.5,2.4 184.9,1 190.4,6.5 	"/>
	<rect x="172" y="5.5" class="st3" width="16.5" height="2"/>
</g>
<polygon class="st1" points="193.3,9.3 192.7,8.5 195.9,5.5 192.7,2.3 193.5,1.7 197.3,5.6 "/>
<g>
	<ellipse class="st4" cx="228.5" cy="27.5" rx="29.5" ry="26"/>
	<path class="st4" d="M249.8,42.5c0,0-0.8,8.8,4,12.8c0,0-15-0.5-16-6.5S249.8,42.5,249.8,42.5z"/>
	<circle class="st1" cx="238.5" cy="27.6" r="2.5"/>
	<circle class="st1" cx="229.5" cy="27.6" r="2.5"/>
	<circle class="st1" cx="220.5" cy="27.6" r="2.5"/>
</g>
<g>
	<ellipse class="st0" cx="289" cy="27.3" rx="29.5" ry="26"/>
	<path class="st0" d="M267.8,42.3c0,0,0.8,8.8-4,12.8c0,0,15-0.5,16-6.5S267.8,42.3,267.8,42.3z"/>
	<circle class="st1" cx="279" cy="27.4" r="2.5"/>
	<circle class="st1" cx="288" cy="27.4" r="2.5"/>
	<circle class="st1" cx="297" cy="27.4" r="2.5"/>
</g>
<g>
	<ellipse class="st5" cx="349.5" cy="27.6" rx="29.5" ry="26"/>
	<path class="st5" d="M370.8,42.6c0,0-0.8,8.8,4,12.8c0,0-15-0.5-16-6.5S370.8,42.6,370.8,42.6z"/>
	<circle class="st1" cx="359.5" cy="27.7" r="2.5"/>
	<circle class="st1" cx="350.5" cy="27.7" r="2.5"/>
	<circle class="st1" cx="341.5" cy="27.7" r="2.5"/>
</g>
<g>
	<path class="st2" d="M59.8,131.3c-0.2,0-0.3,0-0.5-0.1l-47.1-15c-3-0.9-6.3,0.5-7.6,3.3c-0.3,0.6-1,1-1.7,0.8s-1.2-0.8-1.2-1.5
		c0-0.2,0-0.4,0.1-0.5l18.6-58.2c0.5-1.7,2.3-2.6,4-2.1l51.3,16.3c1.7,0.5,2.6,2.4,2.1,4l-16.5,51.8C61,130.9,60.4,131.3,59.8,131.3
		z M10.3,113c0.9,0,1.9,0.1,2.8,0.4l0,0L58.8,128l16.1-50.4c0-0.1,0-0.2-0.1-0.3L23.5,61c-0.1,0-0.2,0-0.3,0.2L6.5,113.8
		C7.7,113.3,9,113,10.3,113z"/>
	<path class="st2" d="M55.3,146.4L7.5,131.1c-4.9-1.5-7.6-6.8-6.1-11.6c1.6-4.9,6.8-7.6,11.7-6.1l47.1,15l-0.9,2.9l-47.1-15
		c-3.3-1-6.7,0.7-7.9,3.9v0.1l-0.1,0.2c-0.9,3.3,0.9,6.7,4.2,7.8l47.8,15.3L55.3,146.4z"/>
	<path class="st2" d="M34.4,97.2l-6-6.8l-8.6,2.2l10.4-32.5l14.6,4.6L34.4,97.2z M29.4,87l3.7,4.2L41,66.7l-8.9-2.8l-7.8,24.5
		L29.4,87z"/>
	
		<rect x="32.9" y="104.9" transform="matrix(0.3038 -0.9527 0.9527 0.3038 -100.0622 123.404)" class="st2" width="3" height="50.5"/>
</g>
<path class="st1" d="M82.5,70.1c-1.7-1-3-2.6-3.5-4.6c-0.5-1.9-0.2-4,0.8-5.7c0.6-1.1,1.6-2,2.7-2.7L83,58c-1,0.6-1.8,1.4-2.3,2.3
	c-0.9,1.5-1.1,3.3-0.7,4.9c0.4,1.7,1.5,3.1,3,4L82.5,70.1z"/>
<g>
	<path class="st1" d="M110.1,83H88.9c-2.2,0-3.9-1.8-3.9-3.9V64.9c0-2.2,1.8-3.9,3.9-3.9h21.2c2.2,0,3.9,1.8,3.9,3.9v14.2
		C114,81.2,112.2,83,110.1,83z M88.9,63c-1.1,0-1.9,0.9-1.9,1.9v14.2c0,1.1,0.9,1.9,1.9,1.9h21.2c1.1,0,1.9-0.9,1.9-1.9V64.9
		c0-1.1-0.9-1.9-1.9-1.9H88.9z"/>
	<path class="st1" d="M99.7,77.2c-3.2,0-5.7-2.6-5.7-5.7s2.6-5.7,5.7-5.7s5.7,2.6,5.7,5.7S102.9,77.2,99.7,77.2z M99.7,67.7
		c-2.1,0-3.8,1.7-3.8,3.8s1.7,3.8,3.8,3.8s3.8-1.7,3.8-3.8S101.8,67.7,99.7,67.7z"/>
	<rect x="91" y="57" class="st1" width="5" height="2"/>
</g>
<g>
	<g id="Слой_1_1_">
		<path class="st6" d="M130.5,88.1c-4.1,0-8-1.6-11-4.5c-2.9-2.9-4.6-6.8-4.6-11c0-4.1,1.6-8.1,4.5-11s6.8-4.6,11-4.6
			c1,0,2,0.1,3,0.3l2.3,0.4l-0.8,2.2c-0.8,2.4-0.7,3.8-0.3,4.2c0.6,0.7,1.5,1,2.3,0.9h0.2h0.6c1.2-0.1,2.4,0.4,3.3,1.4l0.1,0.1
			c0.5,0.8,0.9,1.8,1,2.7c0.4,1.7,0.7,2.9,2.4,3.5l1.6,0.5l-0.2,1.6C144.8,82.3,138.2,88,130.5,88.1L130.5,88.1z M130.5,59
			c-3.6,0-7,1.4-9.6,4s-4,6-3.9,9.6c0,3.6,1.4,7,4,9.6c2.6,2.5,5.9,3.9,9.5,3.9l0,0c6.6,0,12.4-5,13.4-11.5c-2.8-1-3.3-3.2-3.7-5
			c-0.1-0.7-0.4-1.4-0.7-1.9c-0.4-0.5-1-0.7-1.6-0.7h-0.6c-1.5,0.2-3.1-0.3-4.1-1.6c-1-1.1-1.1-3.2-0.1-6.2
			C132.2,59.1,131.4,59,130.5,59z"/>
		<circle class="st6" cx="123.5" cy="76.5" r="1.5"/>
		<circle class="st6" cx="131.5" cy="80.5" r="1.5"/>
		<circle class="st6" cx="125.5" cy="65.5" r="1.5"/>
		<circle class="st6" cx="128.5" cy="72.5" r="1.5"/>
		<circle class="st6" cx="138.5" cy="75.5" r="1.5"/>
	</g>
</g>
<g>
	<rect x="152.2" y="55.8" transform="matrix(0.7071 -0.7071 0.7071 0.7071 0.9443 126.5279)" class="st1" width="2" height="12.7"/>
	<rect x="146.8" y="61.2" transform="matrix(0.7071 -0.7071 0.7071 0.7071 0.8771 126.4901)" class="st1" width="12.7" height="2"/>
</g>
<g>
	<g>
		<g>
			<g>
				<g>
					<defs>
						<rect id="SVGID_1_" x="159" y="57" width="17" height="137"/>
					</defs>
					<clipPath id="SVGID_2_">
						<use xlink:href="#SVGID_1_"  style="overflow:visible;"/>
					</clipPath>
					<path class="st7" d="M162.3,227l-3.2-2.6l9.1-11.4c4.4-5.5,4.4-14.8,0-20.3c-5.6-7-5.6-18.4,0-25.5c4.4-5.5,4.4-14.8,0-20.3
						c-5.6-7-5.6-18.4,0-25.5c4.4-5.5,4.4-14.8,0-20.3c-5.6-7-5.6-18.4,0-25.5c4.4-5.5,4.4-14.8,0-20.3l3.2-2.6
						c5.6,7,5.6,18.4,0,25.5c-4.4,5.5-4.4,14.8,0,20.3c5.6,7,5.6,18.4,0,25.5c-4.4,5.5-4.4,14.8,0,20.3c5.6,7,5.6,18.4,0,25.5
						c-4.4,5.5-4.4,14.8,0,20.3c5.6,7,5.6,18.4,0,25.5L162.3,227z"/>
				</g>
			</g>
		</g>
	</g>
</g>
<g>
	<path class="st3" d="M193.5,59.8c8.5,0,13.5,3,13.7,4.5v0.2V84l-0.3,0.7c-1.2,1.7-6,4-13.5,4s-12.3-2.3-13.5-4l-0.3-0.7V64.4v-0.2
		C180,62.7,185,59.8,193.5,59.8 M193.5,57c-8.8,0-15.9,3-16.4,6.9H177v20.6l0.5,1.4c1.8,3.2,8.3,5.5,16,5.5s14.1-2.4,16-5.5l0.5-1.4
		V63.9l0,0C209.4,60,202.3,57,193.5,57z"/>
	<path class="st3" d="M207.3,64.6L207.3,64.6l-0.3,0.7c-1.2,1.7-6,4-13.5,4s-12.3-2.3-13.5-4l-0.3-0.7v-0.1H177v0.6l0.5,1.4
		c1.8,3.2,8.3,5.5,16,5.5s14.1-2.3,16-5.5l0.5-1.4v-0.6L207.3,64.6L207.3,64.6z"/>
	<path class="st3" d="M207.3,74.2L207.3,74.2l-0.3,0.7c-1.2,1.7-6,4-13.5,4s-12.3-2.3-13.5-4l-0.3-0.7l0,0H177v0.6l0.5,1.4
		c1.8,3.2,8.3,5.5,16,5.5s14.1-2.3,16-5.5l0.5-1.4v-0.6H207.3z"/>
</g>
<g>
	<path class="st1" d="M224,59c6.2,0,9.8,2.2,10,3.3v0.1v14.2l-0.2,0.5c-0.9,1.2-4.4,2.9-9.8,2.9c-5.5,0-9-1.7-9.8-2.9l-0.2-0.5V62.4
		v-0.1C214.1,61.2,217.8,59,224,59 M224,57c-6.4,0-11.6,2.2-12,5l0,0v15l0.4,1c1.3,2.3,6,4,11.6,4s10.3-1.7,11.6-4l0.4-1V62l0,0
		C235.6,59.2,230.4,57,224,57z"/>
	<path class="st1" d="M234,62.5L234,62.5l-0.2,0.5c-0.8,1.3-4.4,2.9-9.8,2.9s-9-1.7-9.8-2.9l-0.2-0.5l0,0h-2v0.4l0.4,1
		c1.3,2.3,6,4,11.6,4s10.3-1.7,11.6-4l0.4-1v-0.4H234z"/>
	<path class="st1" d="M234,69.5L234,69.5l-0.2,0.5c-0.9,1.2-4.4,2.9-9.8,2.9c-5.5,0-9-1.7-9.8-2.9l-0.2-0.4l0,0h-2V70l0.4,1
		c1.3,2.3,6,4,11.6,4s10.3-1.7,11.6-4l0.4-1v-0.5H234z"/>
</g>
<g>
	<path class="st3" d="M264,78.2l26.6-16.8v-0.8c0-2-1.6-3.6-3.6-3.6h-45.2c-2,0-3.6,1.6-3.6,3.6v0.1L264,78.2z"/>
	<path class="st3" d="M264,81.8l-25.8-17.4v27.3c0,2,1.6,3.6,3.6,3.6H287c2,0,3.6-1.6,3.6-3.6V64.8L264,81.8z"/>
</g>
<g>
	<path class="st8" d="M293.1,89l-0.1-4.4c0-1,0.5-1.9,1.3-2.4c6.4-4.6,35.3-25.1,36.3-25.1s29.1,21.4,35.3,26.1
		c0.7,0.6,1.2,1.5,1.2,2.4V90l-36.5,25L293.1,89z"/>
	<path class="st3" d="M330,112c0,0-27.7-19.4-37-24v40c0,2.8,2.2,5,5,5h64c2.8,0,5-2.2,5-5V88.5L330,112z"/>
	<path class="st1" d="M330,112l23-14.6V77h-46v19.4C317.9,103.5,330,112,330,112z"/>
	<rect x="316" y="85" class="st3" width="26.5" height="3"/>
	<rect x="316" y="92" class="st3" width="17.5" height="3"/>
</g>
<g>
	<path class="st1" d="M18.1,215.4c-8.9,0-15.8-7.9-16.6-8.8c-0.6-0.8-0.6-1.9,0-2.6c0.3-0.4,7.4-8.8,16.6-8.8s16.3,8.4,16.6,8.8l0,0
		c0.6,0.8,0.6,1.9,0,2.6C33.9,207.5,27,215.4,18.1,215.4z M18.1,197.2c-8.3,0-15,8-15.1,8.1c0.7,0.9,7.1,8.2,15.1,8.2
		s14.4-7.3,15.1-8.1l0.8-0.7l-0.8,0.6C33.1,205.2,26.4,197.2,18.1,197.2z"/>
	<path class="st1" d="M18.1,215.4c-5.6,0-10.2-4.6-10.2-10.2S12.5,195,18.1,195s10.2,4.6,10.2,10.2S23.7,215.4,18.1,215.4z
		 M18.1,197c-4.5,0-8.2,3.7-8.2,8.2s3.7,8.2,8.2,8.2s8.2-3.7,8.2-8.2S22.6,197,18.1,197z"/>
	<path class="st1" d="M18.1,212c-3.7,0-6.8-3-6.8-6.8h2c0,2.7,2.2,4.8,4.8,4.8s4.8-2.2,4.8-4.8s-2.2-4.8-4.8-4.8v-2
		c3.7,0,6.8,3,6.8,6.8S21.8,212,18.1,212z"/>
</g>
<path class="st9" d="M42,195L42,195L42,195v2.4h-1.2c-0.4,0-0.6,0.5-0.6,0.9v1.5l0,0H42v2.4h-1.8v4.8h-2.4v-4.8H36v-2.4h1.8v-2.4
	c0-1.3,1.1-2.4,2.4-2.4H42z"/>
<g>
	<path class="st2" d="M71.8,230.8c-15.1,0-25.3-4.9-28.7-13.7c-0.6-1.5,0.8-3.9,4.1-7.1c2-1.8,4.3-3.2,6.8-4.2
		c2.9-1.2,6-1.9,9.2-2.3c0.3,0,0.5,0,0.7-0.1c0.9-0.1,1.1-0.1,1.5-0.5c0.6-0.6,1.1-1.2,1.7-1.9c0.6-0.8,1.3-1.6,2.1-2.3
		c1.9-1.8,4.3-3.1,7-3.7c2.3-0.4,4.1,0.2,5,1.7l0.1,0.1c0.4,0.8,0.5,1.7,0.4,2.6c-0.1,1.4-0.2,2.8-0.3,4.2
		c11.8,1.8,22.8,6.7,23.3,12.6c0.1,1-0.4,2-1.4,3.1C99.1,224.1,84.7,230.8,71.8,230.8z M46,216.2c3,7.5,12.1,11.6,25.8,11.6
		c14.4,0,29.5-8.7,30-11.2c-0.4-4.6-15-10.6-30-10.6c-2.2,0-4.2,0.1-6.1,0.3l0,0c-0.5,0.1-1,0.2-1.4,0.2c-0.2,0-0.4,0-0.6,0.1
		c-2.9,0.3-5.7,1-8.4,2.1c-2.2,0.8-4.1,2-5.8,3.6C48,213.4,46.3,215.4,46,216.2z M45.9,216L45.9,216L45.9,216z M71.8,203
		c2.2,0,4.5,0.1,6.7,0.4c0.1-1.3,0.2-2.6,0.3-4v-0.1c0-0.3,0-0.7-0.1-1c-0.2-0.3-0.9-0.4-1.8-0.2c-2,0.5-4,1.5-5.5,2.9
		c-0.7,0.6-1.3,1.3-1.9,2l0,0C70.2,203,71,203,71.8,203z"/>
	<circle class="st2" cx="53.4" cy="214.8" r="1.4"/>
	<path class="st2" d="M111.6,226.8c-0.5,0-0.9-0.2-1.2-0.6c-0.5-0.7-0.4-1.6,0.3-2.1c0.1-0.1,0.2-0.2,0.3-0.3
		c0.4-0.5,0.6-1.1,0.6-1.7s-0.3-1.2-0.8-1.6c-0.3-0.3-0.8-0.5-1.2-0.7c-2.1-0.9-4.1-1.7-6-1.6l-0.3-3c1.5-0.2,2.9-0.6,4.3-1.2
		c1.2-0.6,2.1-1.6,2.6-2.8c0.4-1,0.2-2.2-0.6-3c-0.6-0.6-0.5-1.6,0.1-2.1c0.6-0.6,1.6-0.5,2.1,0.1c1.5,1.7,2,4,1.2,6.2
		c-0.7,1.8-2,3.2-3.6,4.1c0.5,0.2,0.9,0.4,1.4,0.6c0.7,0.3,1.4,0.7,2,1.2c1.1,1,1.7,2.3,1.8,3.7s-0.4,2.8-1.3,3.8
		c-0.2,0.3-0.5,0.5-0.7,0.7C112.2,226.7,111.9,226.8,111.6,226.8z"/>
	<path class="st2" d="M57.7,227.1l-2.1-2.2c2.9-2.7,4.3-7.3,3.6-12.2c-0.3-2.3-1-4-2.2-5l1.9-2.3c1.7,1.5,2.8,3.8,3.2,6.9
		C63,218.2,61.3,223.7,57.7,227.1z"/>
</g>
<g>
	<path class="st2" d="M170.5,251.2l-54.5-14l37-42.2l54.4,14L170.5,251.2z M121.5,235.5l47.9,12.3l32.5-37.1L154,198.4L121.5,235.5z
		"/>
	<path class="st2" d="M155.9,275c-4.3,0-7.6-0.9-8.4-3.4l-9-29l2.9-0.9l9,29c0.5,1.7,9.9,2.4,25.3-2.3c15.3-4.7,22.6-10.6,22.1-12.3
		l-9.1-29.1l2.9-0.9l9.1,29.1c1.9,6.2-14.3,13-24.1,16.1C170.7,273,162.2,275,155.9,275z"/>
	<polygon class="st2" points="211.9,235.5 204,210.1 206.9,209.2 214.8,234.7 	"/>
	<polygon class="st2" points="211.6,244.5 208.7,243.6 211.7,234.4 214.6,235.3 	"/>
	<polygon class="st2" points="220.2,241.9 212.4,236 214.3,233.6 222,239.5 	"/>
	<polygon class="st2" points="214.6,244 211.9,235.5 214.8,234.6 217.5,243.1 	"/>
</g>
<path class="st9" d="M235,207h-2.7v-4.5c0-0.7-0.8-1.3-1.5-1.3s-1.1,0.6-1.1,1.3v4.5H227v-8h2.7v1.3c0.4-0.7,1.5-1.1,2.3-1.1
	c1.7,0,3,1.4,3,3V207 M225.7,207H223v-8h2.7V207 M224.3,195c0.7,0,1.3,0.6,1.3,1.3s-0.5,1.4-1.3,1.4s-1.3-0.6-1.3-1.4
	S223.6,195,224.3,195z"/>
<g>
	<g class="st10">
		<polygon points="236,228.1 257.9,250.1 291.9,250.1 291.9,220.1 283,210.7 237,210.7 		"/>
	</g>
	<path class="st1" d="M236,211.7c0-0.6,0.4-1,1-1l0,0h5.7c2.1-0.1,4.2,0.7,5.8,2.2c1.4,1.7,2.2,4,2,6.2c0.1,2.3-0.6,4.5-2.1,6.3
		c-1.5,1.6-3.6,2.4-5.8,2.3H237c-0.6,0-1-0.4-1-1V211.7z M239.8,213.7v11.1h2.5c1.3,0.1,2.6-0.4,3.5-1.4c0.9-1.2,1.3-2.7,1.2-4.2
		c0.1-1.4-0.4-2.9-1.2-4c-1-1-2.4-1.5-3.8-1.4L239.8,213.7z"/>
	<path class="st1" d="M259.8,227.7H253c-0.6,0-1-0.4-1-1v-14.9c0-0.6,0.4-1,1-1h6.7c1.3-0.1,2.6,0.3,3.7,1.1
		c0.9,0.8,1.4,1.9,1.4,3.1c0,1.7-1.1,3.1-2.6,3.7v0.1c2.8,0,3.4,3,3.4,4.1c0.1,1.3-0.5,2.6-1.5,3.5
		C262.8,227.3,261.3,227.8,259.8,227.7z M255.9,213.4v4.4h2.6c0.8,0,1.5-0.2,2.1-0.6c0.9-0.8,1-2.2,0.2-3.1l-0.1-0.1
		c-0.5-0.4-1.2-0.6-1.9-0.6L255.9,213.4z M255.9,225h3c0.8,0.1,1.6-0.2,2.3-0.6c0.5-0.5,0.8-1.1,0.8-1.8s-0.3-1.4-0.8-1.8
		c-0.7-0.4-1.5-0.7-2.3-0.6h-3V225z"/>
	<path class="st1" d="M282.9,210.8h-2.3c-0.4,0-0.8,0.2-0.9,0.6l-4.1,10.1l-4.1-10.1c-0.2-0.4-0.5-0.6-0.9-0.6h-2.3
		c-0.6,0-1,0.4-1,1v15.9h2.8v-11.4h0.3l4.3,11.2h1.9l4.2-11.2h0.3v11.4h2.8l0.1-15.9C283.9,211.3,283.4,210.8,282.9,210.8z"/>
	<path class="st11" d="M236.5,203.9v-1c0.7,0.3,1.5,0.5,2.3,0.5c1.4,0,2.1-0.4,2.1-1.4c0-0.3-0.1-0.5-0.2-0.7
		c-0.2-0.2-0.4-0.4-0.6-0.5c-0.5-0.2-1-0.4-1.5-0.6c-0.6-0.2-1.1-0.5-1.5-1c-0.4-0.4-0.5-1-0.5-1.5c0-0.6,0.3-1.2,0.7-1.6
		c0.6-0.4,1.3-0.6,2-0.6c0.8,0,1.6,0.2,2.3,0.5l-0.3,0.9c-0.6-0.3-1.3-0.4-2-0.4c-0.5,0-0.9,0.1-1.3,0.3c-0.3,0.2-0.5,0.5-0.4,0.9
		c0,0.3,0,0.6,0.2,0.8c0.1,0.2,0.3,0.4,0.6,0.5c0.4,0.2,0.8,0.4,1.2,0.5c0.7,0.2,1.3,0.5,1.9,1c0.4,0.4,0.6,0.9,0.6,1.5
		c0,0.7-0.3,1.3-0.8,1.8c-0.7,0.5-1.5,0.7-2.3,0.6C238,204.3,237.2,204.1,236.5,203.9z"/>
	<path class="st11" d="M243.9,203.4c-0.5-0.7-0.8-1.6-0.7-2.4c0-0.9,0.2-1.7,0.7-2.4c0.5-0.6,1.2-0.9,2-0.9s1.5,0.3,2,1l0,0l0.1-0.9
		h0.8v9.3h-1v-2.8c0-0.3,0-0.7,0.1-1h-0.1c-0.4,0.7-1.2,1-2,1C245,204.3,244.3,203.9,243.9,203.4z M244.2,200.9
		c0,1.7,0.6,2.5,1.8,2.5c0.5,0,1-0.1,1.4-0.5c0.3-0.5,0.5-1.1,0.4-1.8v-0.2c0.1-0.7-0.1-1.4-0.5-1.9c-0.3-0.4-0.9-0.6-1.4-0.6
		s-1.1,0.2-1.4,0.7C244.3,199.6,244.1,200.3,244.2,200.9L244.2,200.9z"/>
	<path class="st11" d="M250.9,204.1V195h1v9.1H250.9z"/>
</g>
<g>
	<path class="st12" d="M327.4,228.6c-1.4-0.2-3.3-0.6-3.3-0.6s2.4-0.5,3.5-0.8s3.8-1.3,3.8-1.3s-0.4,1.2-0.6,1.7l-0.5,1.3
		C330.3,228.9,328.7,228.8,327.4,228.6 M320.7,227c-0.7-0.3-1.3-0.7-1.9-1.1l6.2-1.6l-2.3,3.4C322.7,227.7,321.6,227.4,320.7,227
		 M326,224.2c0.6,0.3,1.3,0.6,2,0.8c1.1,0.2,2.2,0.4,3.3,0.5c0,0-2.8,1-4.2,1.4s-3.8,0.9-3.8,0.9L326,224.2z M321.9,221.3
		c0.4,0.4,0.8,0.9,1.2,1.3c0.5,0.4,1,0.7,1.6,1l-6.2,2L321.9,221.3z M316.9,224.1c-0.4-0.6-0.7-1.2-0.8-1.8l5.2-1.2l-3.1,4.4
		C317.6,225,317.2,224.6,316.9,224.1 M328.6,224.6c-0.7-0.2-1.4-0.5-2-0.9c0,0,2.3-1,3.3-1.4s3.2-1.6,3.2-1.6s-0.4,1.4-0.6,2.1
		s-0.8,2.2-0.8,2.2C330.6,225,329.6,224.8,328.6,224.6 M324,222.2c-0.5-0.5-1-1-1.5-1.5c0,0,2-0.6,2.8-0.9c0.8-0.3,2.6-0.9,2.6-0.9
		s-0.6,1.2-0.9,1.9c-0.4,0.8-0.9,1.6-1.4,2.4C325.5,223.2,324.6,222.6,324,222.2 M327.9,220.8c0.4-0.7,0.9-2.1,0.9-2.1
		s0.8,0.5,1.8,0.9c0.7,0.3,1.5,0.6,2.3,0.8c0,0-2.4,1.1-3.3,1.5s-2.8,1.2-2.8,1.2S327.5,221.5,327.9,220.8 M330.9,219.2
		c-0.7-0.3-1.6-1-1.6-1l2.4-1.3c0.5-0.3,1.8-1.1,1.8-1.1s0,1.5,0,2.1s-0.3,2.1-0.3,2.1C332.3,219.8,331.6,219.5,330.9,219.2
		 M334,211.4l-0.8,0.3l0.1,3.4l-3.2-2.3l-0.5,0.2l3.4,2.5l-4,2.3c0.2-0.8,0.3-1.6,0.4-2.3c0.1-1.1,0-2.4,0-2.4l-0.6,0.3
		c0.1,0.7,0.1,1.4,0,2.1c-0.1,0.8-0.3,1.6-0.5,2.3c-0.5-0.4-0.9-0.9-1.3-1.4c-0.4-0.6-0.7-1.2-1-1.8l-0.5,0.2
		c0.2,0.6,0.5,1.2,0.8,1.8c0.4,0.6,0.9,1.2,1.5,1.7c-0.7,0.4-1.5,0.7-2.3,1l-2.6,0.8c0,0,1-1.6,1.4-2.6s1-2.6,1-2.6l-0.8,0.3
		c0,0-0.5,1.2-1.1,2.3s-1.6,2.6-1.6,2.6c-0.3-0.5-0.5-1.1-0.5-1.7c0-0.6,0-1.2,0.1-1.7l-1,0.4c-0.1,0.6-0.1,1.1,0,1.7
		c0.1,0.6,0.3,1.2,0.6,1.8l-5.3,1.5c0.3-0.6,0.5-1.2,0.9-1.8c0.4-0.5,1-1.5,1-1.5s-3.3,2.7-2.7,4.7c1.5,5.4,12.6,6,15,6.1h0.4
		c1.9-3.1,3.1-6.6,3.6-10.3C334.6,213.8,334.1,211.5,334,211.4L334,211.4z"/>
	<path class="st12" d="M323.3,197.4c0.7-0.5,1.5-0.9,2.3-1.2c1.1-0.5,2.2-0.8,2.2-0.8c0.1,0.5,0.2,0.9,0.3,1.4
		c0.2,0.5,0.6,1.4,0.6,1.4L323.3,197.4z M323.5,196.7c-1.1,0.5-2.1,1.2-2.9,2l0.8,0.9c0.1-0.4,0.2-0.7,0.5-1s0.5-0.5,0.9-0.7
		l1.6,2.5l1.3,0.1l-2.6-2.8c0,0,1.7,0.5,2.6,0.6c1,0.1,3,0.4,3,0.4l-2.9,1.9l0.8,0.2l2.3-1.8l1.1,2l0.9,0.1l0,0
		c-0.6-1-1.1-2-1.6-3.1s-1.2-3-1.2-3S325.4,195.8,323.5,196.7"/>
	<path class="st12" d="M323.8,213.1l2.5-1.5c0,0-1,1.2-1.8,1.8c-0.7,0.6-1.5,1.2-2.3,1.7L323.8,213.1z M325.8,212.9
		c0.5-0.5,1-1.1,1.5-1.7c0,0,0.3,0.4,0.4,0.7s0.2,0.7,0.3,1c0,0-1.2,0.5-1.8,0.8c-0.5,0.3-3.1,1.4-3.1,1.4S325.1,213.6,325.8,212.9
		 M325.1,210.9c0.2-0.4,0.4-0.8,0.5-1.2c0.2,0.1,0.4,0.2,0.6,0.3c0.2,0.2,0.4,0.3,0.5,0.6l-2.4,1.7
		C324.2,212.3,324.8,211.4,325.1,210.9 M328.3,211.5c-0.1-0.4-0.4-1-0.4-1l4-2.2c0,0-0.7,1.1-1.3,2s-1.9,2.2-1.9,2.2
		S328.5,211.9,328.3,211.5 M331.5,210.2c0.7-0.7,1.7-2.2,1.7-2.2c0.6,0.3,1.1,0.7,1.6,1.1c0.5,0.4,0.9,0.8,1.3,1.2l-6.7,2.2
		L331.5,210.2 M326.8,209.3c-0.2-0.2-0.5-0.4-0.8-0.5l2.9-2.5c0,0-0.3,1.1-0.5,1.8c-0.3,0.7-0.6,1.3-1,1.8
		C327.4,210,327,209.6,326.8,209.3 M329.3,207.5c0.1-0.5,0.2-0.9,0.3-1.4l2.3,1.3l-3.3,2C328.6,209.3,329.1,208.2,329.3,207.5
		 M340,207.2c0.5-0.7,0.9-1.5,1.2-2.3c0.9,0.5,1.7,1.1,2.5,1.7c0.7,0.6,1.4,1.3,2,2c-1.2,0.1-2.5,0.2-3.7,0.4c-1.9,0.3-4.7,1-4.7,1
		C338.3,209.1,339.1,208.2,340,207.2 M325.9,206.5c0-0.5-0.1-1.1-0.2-1.6c0.5,0.1,1,0.2,1.4,0.3c0.7,0.2,1.4,0.5,1.4,0.5l-2.8,2.6
		C325.9,207.7,325.9,207.1,325.9,206.5 M335.4,208.4c-0.4-0.4-0.8-0.7-1.2-1.1c0,0,1.9-0.9,2.9-1.3c1-0.3,3.6-1.1,3.6-1.1
		s-0.9,1.2-1.6,2.2c-0.8,1-2.4,2.9-2.4,2.9S335.9,208.9,335.4,208.4 M331.7,205.9l-1.3-0.7l4.2-2.5c-0.2,0.8-0.4,1.6-0.7,2.4
		c-0.3,0.6-0.6,1.1-1,1.6C332.9,206.6,332.3,206.2,331.7,205.9 M334.7,204.6c0.2-0.6,0.4-1.2,0.5-1.9c0,0,1.6,0.5,2.6,0.8
		s2.6,1,2.6,1s-2.6,0.7-3.5,0.9c-0.9,0.3-1.8,0.7-2.7,1.1C334.1,206.5,334.5,205.5,334.7,204.6 M329.8,203c-0.1-0.5-0.2-0.9-0.3-1.4
		c0,0,1,0.1,1.9,0.3s2.4,0.6,2.4,0.6l-4,2.4C329.8,204.9,329.8,203.6,329.8,203 M326.1,203.9l2.7-2.4c0.2,0.5,0.3,1,0.4,1.5
		c0.1,0.6,0.1,1.3,0.1,1.9L326.1,203.9z M324.7,200.7l3.5,0.6l-2.8,2.2L324.7,200.7z M323.3,201.2c-0.4-0.5-1.2-1.2-1.2-1.2l1.8,0.5
		c0.1,0.2,0.2,0.5,0.3,0.7c0.2,0.6,0.3,1.2,0.5,1.8C324.7,203,323.7,201.7,323.3,201.2 M320.7,199.4c0.4,0.5,5.2,4.1,4.7,8
		c-0.2,1.8-0.8,3.6-1.8,5.1c-1.9,2.4-4,4.6-6.4,6.5l0,0c0.2-0.1,2.7-1.6,6.1-3.2c1.6-0.8,3.6-1.5,5.3-2.2c3.6-1.4,7.2-2.5,10.9-3.3
		c3.7-0.9,6.7-1.4,6.9-1.4l0,0c-1.9-3.1-4.9-5.4-8.4-6.4c-3.8-1.1-12.1-2.4-14.9-2.9c-2.3-0.4-2.6-1.1-2.6-1.1
		C320.3,198.9,320.4,199.2,320.7,199.4"/>
	<path class="st12" d="M317.5,241.3V240c0.2,0.1,0.3,0.3,0.5,0.3c0.2,0.1,0.4,0.2,0.6,0.3s0.4,0.1,0.7,0.2c0.2,0,0.4,0.1,0.6,0.1
		c0.5,0,1.1-0.1,1.5-0.4c0.5-0.4,0.6-1.1,0.3-1.7c-0.1-0.2-0.3-0.4-0.5-0.5c-0.2-0.2-0.4-0.3-0.7-0.4l-0.9-0.4
		c-0.3-0.2-0.6-0.3-0.9-0.5s-0.5-0.3-0.7-0.6c-0.2-0.2-0.4-0.4-0.5-0.7c-0.3-0.6-0.2-1.4,0.1-2c0.2-0.3,0.4-0.6,0.7-0.8
		c0.3-0.2,0.6-0.4,1-0.4c0.4-0.1,0.8-0.1,1.2-0.1c0.7,0,1.4,0.1,2,0.3v1.2c-0.6-0.4-1.4-0.6-2.1-0.6c-0.2,0-0.5,0-0.7,0.1
		c-0.2,0-0.4,0.1-0.6,0.2c-0.2,0.1-0.3,0.3-0.5,0.4c-0.1,0.2-0.2,0.4-0.2,0.7c0,0.2,0,0.4,0.1,0.6c0.1,0.2,0.2,0.3,0.4,0.5
		c0.2,0.2,0.4,0.3,0.6,0.4l0.9,0.4c0.3,0.2,0.6,0.3,0.9,0.5s0.5,0.4,0.8,0.6c0.2,0.2,0.4,0.5,0.5,0.7c0.1,0.3,0.2,0.6,0.2,0.9
		c0,0.4-0.1,0.8-0.3,1.2c-0.2,0.3-0.4,0.6-0.7,0.8c-0.3,0.2-0.7,0.4-1,0.4c-0.4,0.1-0.8,0.1-1.3,0.1H319c-0.2,0-0.4-0.1-0.7-0.1
		c-0.2,0-0.4-0.1-0.6-0.2C317.7,241.4,317.5,241.4,317.5,241.3 M329.8,238.6h-4.6c0,0.6,0.2,1.2,0.6,1.7c0.4,0.4,1,0.6,1.6,0.6
		c0.8,0,1.5-0.3,2.1-0.7v1c-0.7,0.5-1.5,0.7-2.3,0.6c-0.8,0-1.6-0.3-2.2-0.9c-0.6-0.7-0.9-1.6-0.8-2.5c0-0.9,0.3-1.8,0.9-2.5
		c0.5-0.6,1.3-1,2.2-1c0.8,0,1.5,0.3,2,0.8c0.5,0.7,0.8,1.5,0.7,2.3L329.8,238.6z M328.7,237.7c0-0.5-0.1-1-0.5-1.4
		c-0.3-0.3-0.7-0.5-1.2-0.5s-0.9,0.2-1.3,0.5c-0.3,0.4-0.5,0.9-0.5,1.4H328.7z M334.5,236.1c-0.2-0.2-0.5-0.2-0.8-0.2
		c-0.5,0-0.9,0.2-1.1,0.6c-0.3,0.5-0.4,1.1-0.4,1.7v3.4h-1.1V235h1.1v1.4l0,0c0.1-0.4,0.4-0.8,0.7-1.1c0.3-0.2,0.6-0.4,1-0.4
		c0.2,0,0.4,0,0.6,0.1L334.5,236.1z M341,235l-2.6,6.6h-1l-2.5-6.6h1.2l1.7,4.8c0.1,0.3,0.2,0.6,0.2,0.9l0,0c0-0.3,0.1-0.6,0.2-0.9
		l1.8-4.8H341z M347.2,238.6h-4.7c0,0.6,0.2,1.2,0.6,1.7c0.4,0.4,1,0.6,1.6,0.6c0.8,0,1.5-0.3,2.1-0.7v1c-0.7,0.5-1.5,0.7-2.3,0.6
		c-0.8,0.1-1.7-0.3-2.2-0.9c-0.6-0.7-0.9-1.6-0.8-2.5c0-0.9,0.3-1.8,0.9-2.5c0.5-0.6,1.3-1,2.2-1c0.8,0,1.5,0.3,2,0.8
		c0.5,0.7,0.8,1.5,0.7,2.3v0.6L347.2,238.6L347.2,238.6z M346.1,237.7c0-0.5-0.1-1-0.5-1.4c-0.3-0.3-0.8-0.5-1.2-0.5
		c-0.5,0-0.9,0.2-1.3,0.5c-0.4,0.4-0.6,0.9-0.7,1.4H346.1z M351.9,236.1c-0.2-0.2-0.5-0.2-0.8-0.2c-0.5,0-0.9,0.2-1.1,0.6
		c-0.3,0.5-0.5,1.1-0.5,1.8v3.4h-1.1V235h1.1v1.4l0,0c0.1-0.4,0.4-0.8,0.7-1.1c0.3-0.2,0.6-0.4,1-0.4c0.2,0,0.4,0,0.6,0.1
		L351.9,236.1z"/>
	<path id="_Контур_" class="st12" d="M296.7,230.8h-0.4v-2.3c0-0.2,0-0.4,0-0.7l0,0c0,0.1-0.1,0.2-0.1,0.3l-1.2,2.6h-0.2
		l-1.2-2.6c0-0.1-0.1-0.2-0.1-0.4l0,0c0,0.1,0,0.4,0,0.7v2.3h-0.4v-3.4h0.5l1,2.4c0.1,0.1,0.1,0.3,0.2,0.4l0,0
		c0.1-0.2,0.1-0.3,0.2-0.4l1.1-2.4h0.5L296.7,230.8"/>
	<path class="st12" d="M297.8,227.7l-0.2-0.1c-0.4-0.6,0.7-0.6,0.4,0L297.8,227.7 M298,230.8h-0.4v-2.5h0.4V230.8z"/>
	<path id="_Контур_2" class="st12" d="M300.4,230.7c-0.2,0.1-0.4,0.2-0.7,0.2c-0.3,0-0.6-0.1-0.9-0.3
		c-0.2-0.2-0.3-0.6-0.3-0.9c0-0.4,0.1-0.7,0.4-1c0.2-0.3,0.6-0.4,0.9-0.4c0.2,0,0.4,0,0.6,0.1v0.4c-0.2-0.1-0.4-0.2-0.6-0.2
		s-0.5,0.1-0.6,0.3c-0.2,0.2-0.3,0.5-0.2,0.7c0,0.2,0.1,0.5,0.2,0.7c0.2,0.2,0.4,0.3,0.6,0.3s0.4-0.1,0.6-0.2V230.7"/>
	<path id="_Контур_3" class="st12" d="M302.3,228.8c-0.1-0.1-0.2-0.1-0.3-0.1c-0.2,0-0.3,0.1-0.4,0.2
		c-0.1,0.2-0.2,0.4-0.2,0.7v1.3H301v-2.5h0.4v0.5l0,0c0-0.2,0.1-0.3,0.3-0.4c0.1-0.1,0.2-0.1,0.4-0.1c0.1,0,0.2,0,0.2,0V228.8"/>
	<path class="st12" d="M303.7,230.9c-0.3,0-0.6-0.1-0.9-0.3c-0.2-0.2-0.3-0.6-0.3-0.9c0-0.4,0.1-0.7,0.3-1c0.2-0.2,0.6-0.4,0.9-0.3
		c0.3,0,0.6,0.1,0.9,0.3c0.2,0.3,0.3,0.6,0.3,0.9c0,0.3-0.1,0.7-0.3,0.9C304.3,230.8,304,230.9,303.7,230.9 M303.7,228.6
		c-0.2,0-0.4,0.1-0.5,0.3c-0.2,0.2-0.2,0.5-0.2,0.7s0.1,0.5,0.2,0.7c0.2,0.2,0.4,0.3,0.6,0.3s0.4-0.1,0.6-0.3
		c0.1-0.2,0.2-0.5,0.2-0.7c0-0.3-0.1-0.5-0.2-0.7C304.2,228.7,304,228.6,303.7,228.6"/>
	<path id="_Контур_4" class="st12" d="M305.4,230.7v-0.4c0.2,0.2,0.5,0.2,0.7,0.2c0.4,0,0.5-0.1,0.5-0.3V230l-0.2-0.1
		l-0.2-0.1l-0.2-0.1l-0.3-0.1l-0.2-0.1l-0.1-0.2V229c0-0.1,0-0.2,0.1-0.3l0.2-0.2c0.1-0.1,0.2-0.1,0.3-0.1c0.1,0,0.2,0,0.4,0
		c0.2,0,0.4,0,0.6,0.1v0.4c-0.2-0.1-0.4-0.2-0.6-0.2h-0.2l-0.1,0.1l-0.1,0.1v0.1v0.2l0.1,0.1l0.2,0.1l0.2,0.1l0.3,0.1l0.2,0.2
		l0.1,0.2c0,0.1,0,0.2,0,0.3s0,0.2-0.1,0.3l-0.2,0.2c-0.1,0.1-0.2,0.1-0.3,0.1c-0.1,0-0.2,0-0.4,0
		C305.8,230.8,305.6,230.8,305.4,230.7"/>
	<path class="st12" d="M308.6,230.9c-0.3,0-0.6-0.1-0.9-0.3c-0.2-0.2-0.3-0.6-0.3-0.9c0-0.4,0.1-0.7,0.3-1c0.2-0.2,0.6-0.4,0.9-0.3
		c0.3,0,0.6,0.1,0.9,0.3c0.2,0.3,0.3,0.6,0.3,0.9c0,0.3-0.1,0.7-0.3,0.9C309.3,230.8,309,230.9,308.6,230.9 M308.7,228.6
		c-0.2,0-0.5,0.1-0.6,0.3c-0.2,0.2-0.2,0.5-0.2,0.7s0.1,0.5,0.2,0.7c0.2,0.2,0.4,0.3,0.6,0.3s0.4-0.1,0.6-0.3
		c0.1-0.2,0.2-0.5,0.2-0.7c0-0.3-0.1-0.5-0.2-0.7C309.1,228.7,308.9,228.6,308.7,228.6"/>
	<path id="_Контур_5" class="st12" d="M311.6,227.5l-0.3-0.1c-0.3,0-0.4,0.2-0.4,0.5v0.4h0.6v0.3H311v2.1h-0.4v-2.1h-0.4v-0.3
		h0.4V228c0-0.2,0.1-0.4,0.2-0.6c0.1-0.1,0.4-0.2,0.6-0.2c0.1,0,0.2,0,0.3,0L311.6,227.5"/>
	<path id="_Контур_6" class="st12" d="M313.2,230.8c-0.1,0.1-0.2,0.1-0.4,0.1c-0.4,0-0.6-0.2-0.6-0.7v-1.4h-0.4v-0.3h0.4v-0.6
		l0.4-0.1v0.7h0.6v0.3h-0.6v1.4c0,0.1,0,0.2,0.1,0.3s0.2,0.1,0.3,0.1c0.1,0,0.2,0,0.3-0.1L313.2,230.8"/>
	<path class="st12" d="M314.6,241.4h-4.7v-9h1.2v7.9h3.6v1.1 M300.9,237c0,0.9,0.3,1.9,0.8,2.6c0.5,0.6,1.3,1,2.2,1
		c0.9,0,1.7-0.3,2.3-0.9c0.6-0.7,0.9-1.7,0.8-2.6c0.1-1-0.2-1.9-0.8-2.7c-0.5-0.6-1.3-1-2.2-0.9c-0.9,0-1.7,0.3-2.2,1
		C301.1,235.1,300.8,236.1,300.9,237 M308.4,243.8c-0.3,0.1-0.7,0.1-1,0.1c-0.5,0-1.1-0.1-1.6-0.4c-0.8-0.5-1.5-1.2-2.1-1.9
		c-1.1,0.1-2.2-0.4-3-1.3c-0.8-0.9-1.2-2.1-1.2-3.2c-0.1-1.3,0.4-2.5,1.2-3.4c0.8-0.9,2-1.3,3.2-1.3c1.1,0,2.2,0.4,3,1.3
		c0.8,0.9,1.2,2,1.2,3.2c0,1.1-0.2,2.1-0.8,3c-0.5,0.8-1.3,1.4-2.3,1.6c0.4,0.4,0.8,0.8,1.3,1.1c0.4,0.2,0.8,0.3,1.2,0.3
		c0.3,0,0.6,0,0.9-0.2L308.4,243.8z M293,239.8c0.3,0.3,0.7,0.5,1.1,0.6c0.4,0.2,0.9,0.2,1.3,0.2c1.3,0,1.9-0.5,1.9-1.4
		c0-0.2-0.1-0.5-0.2-0.7s-0.3-0.4-0.5-0.5s-0.7-0.4-1.3-0.7c-0.7-0.3-1.3-0.7-1.8-1.2c-0.3-0.4-0.4-0.8-0.4-1.3
		c0-0.7,0.3-1.4,0.9-1.8c0.7-0.5,1.5-0.7,2.3-0.7c0.7,0,1.4,0.1,2,0.3v1.2c-0.6-0.4-1.3-0.6-2-0.6c-0.5,0-0.9,0.1-1.4,0.3
		c-0.3,0.2-0.5,0.6-0.5,1c0,0.3,0.1,0.7,0.4,0.9c0.5,0.4,1,0.7,1.6,0.9c0.7,0.3,1.3,0.7,1.8,1.3c0.8,1,0.7,2.4-0.3,3.2l0,0
		c-0.7,0.5-1.5,0.7-2.4,0.6c-0.4,0-0.8-0.1-1.2-0.1c-0.4-0.1-0.7-0.2-1-0.4L293,239.8z"/>
</g>
<g>
	<path class="st3" d="M387.4,228.6c-1.4-0.2-3.3-0.6-3.3-0.6s2.4-0.5,3.5-0.8s3.8-1.3,3.8-1.3s-0.4,1.2-0.6,1.7l-0.5,1.3
		C390.3,228.9,388.7,228.8,387.4,228.6 M380.7,227c-0.7-0.3-1.3-0.7-1.9-1.1l6.2-1.6l-2.3,3.4C382.7,227.7,381.6,227.4,380.7,227
		 M386,224.2c0.6,0.3,1.3,0.6,2,0.8c1.1,0.2,2.2,0.4,3.3,0.5c0,0-2.8,1-4.2,1.4s-3.8,0.9-3.8,0.9L386,224.2z M381.9,221.3
		c0.4,0.4,0.8,0.9,1.2,1.3c0.5,0.4,1,0.7,1.6,1l-6.2,2L381.9,221.3z M376.9,224.1c-0.4-0.6-0.7-1.2-0.8-1.8l5.2-1.2l-3.1,4.4
		C377.6,225,377.2,224.6,376.9,224.1 M388.6,224.6c-0.7-0.2-1.4-0.5-2-0.9c0,0,2.3-1,3.3-1.4s3.2-1.6,3.2-1.6s-0.4,1.4-0.6,2.1
		s-0.8,2.2-0.8,2.2C390.6,225,389.6,224.8,388.6,224.6 M384,222.2c-0.5-0.5-1-1-1.5-1.5c0,0,2-0.6,2.8-0.9c0.8-0.3,2.6-0.9,2.6-0.9
		s-0.6,1.2-0.9,1.9c-0.4,0.8-0.9,1.6-1.4,2.4C385.5,223.2,384.6,222.6,384,222.2 M387.9,220.8c0.4-0.7,0.9-2.1,0.9-2.1
		s0.8,0.5,1.8,0.9c0.7,0.3,1.5,0.6,2.3,0.8c0,0-2.4,1.1-3.3,1.5s-2.8,1.2-2.8,1.2S387.5,221.5,387.9,220.8 M390.9,219.2
		c-0.7-0.3-1.6-1-1.6-1l2.4-1.3c0.5-0.3,1.8-1.1,1.8-1.1s0,1.5,0,2.1s-0.3,2.1-0.3,2.1C392.3,219.8,391.6,219.5,390.9,219.2
		 M394,211.4l-0.8,0.3l0.1,3.4l-3.2-2.3l-0.5,0.2l3.4,2.5l-4,2.3c0.2-0.8,0.3-1.6,0.4-2.3c0.1-1.1,0-2.4,0-2.4l-0.6,0.3
		c0.1,0.7,0.1,1.4,0,2.1c-0.1,0.8-0.3,1.6-0.5,2.3c-0.5-0.4-0.9-0.9-1.3-1.4c-0.4-0.6-0.7-1.2-1-1.8l-0.5,0.2
		c0.2,0.6,0.5,1.2,0.8,1.8c0.4,0.6,0.9,1.2,1.5,1.7c-0.7,0.4-1.5,0.7-2.3,1l-2.6,0.8c0,0,1-1.6,1.4-2.6s1-2.6,1-2.6l-0.8,0.3
		c0,0-0.5,1.2-1.1,2.3s-1.6,2.6-1.6,2.6c-0.3-0.5-0.5-1.1-0.5-1.7c0-0.6,0-1.2,0.1-1.7l-1,0.4c-0.1,0.6-0.1,1.1,0,1.7
		c0.1,0.6,0.3,1.2,0.6,1.8l-5.3,1.5c0.3-0.6,0.5-1.2,0.9-1.8c0.4-0.5,1-1.5,1-1.5s-3.3,2.7-2.7,4.7c1.5,5.4,12.6,6,15,6.1h0.4
		c1.9-3.1,3.1-6.6,3.6-10.3C394.6,213.8,394.1,211.5,394,211.4L394,211.4z"/>
	<path class="st3" d="M383.3,197.4c0.7-0.5,1.5-0.9,2.3-1.2c1.1-0.5,2.2-0.8,2.2-0.8c0.1,0.5,0.2,0.9,0.3,1.4
		c0.2,0.5,0.6,1.4,0.6,1.4L383.3,197.4z M383.5,196.7c-1.1,0.5-2.1,1.2-2.9,2l0.8,0.9c0.1-0.4,0.2-0.7,0.5-1s0.5-0.5,0.9-0.7
		l1.6,2.5l1.3,0.1l-2.6-2.8c0,0,1.7,0.5,2.6,0.6c1,0.1,3,0.4,3,0.4l-2.9,1.9l0.8,0.2l2.3-1.8l1.1,2l0.9,0.1l0,0
		c-0.6-1-1.1-2-1.6-3.1s-1.2-3-1.2-3S385.4,195.8,383.5,196.7"/>
	<path class="st3" d="M383.8,213.1l2.5-1.5c0,0-1,1.2-1.8,1.8c-0.7,0.6-1.5,1.2-2.3,1.7L383.8,213.1z M385.8,212.9
		c0.5-0.5,1-1.1,1.5-1.7c0,0,0.3,0.4,0.4,0.7s0.2,0.7,0.3,1c0,0-1.2,0.5-1.8,0.8c-0.5,0.3-3.1,1.4-3.1,1.4S385.1,213.6,385.8,212.9
		 M385.1,210.9c0.2-0.4,0.4-0.8,0.5-1.2c0.2,0.1,0.4,0.2,0.6,0.3c0.2,0.2,0.4,0.3,0.5,0.6l-2.4,1.7
		C384.2,212.3,384.8,211.4,385.1,210.9 M388.3,211.5c-0.1-0.4-0.4-1-0.4-1l4-2.2c0,0-0.7,1.1-1.3,2s-1.9,2.2-1.9,2.2
		S388.5,211.9,388.3,211.5 M391.5,210.2c0.7-0.7,1.7-2.2,1.7-2.2c0.6,0.3,1.1,0.7,1.6,1.1c0.5,0.4,0.9,0.8,1.3,1.2l-6.7,2.2
		L391.5,210.2 M386.8,209.3c-0.2-0.2-0.5-0.4-0.8-0.5l2.9-2.5c0,0-0.3,1.1-0.5,1.8c-0.3,0.7-0.6,1.3-1,1.8
		C387.4,210,387,209.6,386.8,209.3 M389.3,207.5c0.1-0.5,0.2-0.9,0.3-1.4l2.3,1.3l-3.3,2C388.6,209.3,389.1,208.2,389.3,207.5
		 M400,207.2c0.5-0.7,0.9-1.5,1.2-2.3c0.9,0.5,1.7,1.1,2.5,1.7c0.7,0.6,1.4,1.3,2,2c-1.2,0.1-2.5,0.2-3.7,0.4c-1.9,0.3-4.7,1-4.7,1
		C398.3,209.1,399.1,208.2,400,207.2 M385.9,206.5c0-0.5-0.1-1.1-0.2-1.6c0.5,0.1,1,0.2,1.4,0.3c0.7,0.2,1.4,0.5,1.4,0.5l-2.8,2.6
		C385.9,207.7,385.9,207.1,385.9,206.5 M395.4,208.4c-0.4-0.4-0.8-0.7-1.2-1.1c0,0,1.9-0.9,2.9-1.3c1-0.3,3.6-1.1,3.6-1.1
		s-0.9,1.2-1.6,2.2c-0.8,1-2.4,2.9-2.4,2.9S395.9,208.9,395.4,208.4 M391.7,205.9l-1.3-0.7l4.2-2.5c-0.2,0.8-0.4,1.6-0.7,2.4
		c-0.3,0.6-0.6,1.1-1,1.6C392.9,206.6,392.3,206.2,391.7,205.9 M394.7,204.6c0.2-0.6,0.4-1.2,0.5-1.9c0,0,1.6,0.5,2.6,0.8
		s2.6,1,2.6,1s-2.6,0.7-3.5,0.9c-0.9,0.3-1.8,0.7-2.7,1.1C394.1,206.5,394.5,205.5,394.7,204.6 M389.8,203c-0.1-0.5-0.2-0.9-0.3-1.4
		c0,0,1,0.1,1.9,0.3s2.4,0.6,2.4,0.6l-4,2.4C389.8,204.9,389.8,203.6,389.8,203 M386.1,203.9l2.7-2.4c0.2,0.5,0.3,1,0.4,1.5
		c0.1,0.6,0.1,1.3,0.1,1.9L386.1,203.9z M384.7,200.7l3.5,0.6l-2.8,2.2L384.7,200.7z M383.3,201.2c-0.4-0.5-1.2-1.2-1.2-1.2l1.8,0.5
		c0.1,0.2,0.2,0.5,0.3,0.7c0.2,0.6,0.3,1.2,0.5,1.8C384.7,203,383.7,201.7,383.3,201.2 M380.7,199.4c0.4,0.5,5.2,4.1,4.7,8
		c-0.2,1.8-0.8,3.6-1.8,5.1c-1.9,2.4-4,4.6-6.4,6.5l0,0c0.2-0.1,2.7-1.6,6.1-3.2c1.6-0.8,3.6-1.5,5.3-2.2c3.6-1.4,7.2-2.5,10.9-3.3
		c3.7-0.9,6.7-1.4,6.9-1.4l0,0c-1.9-3.1-4.9-5.4-8.4-6.4c-3.8-1.1-12.1-2.4-14.9-2.9c-2.3-0.4-2.6-1.1-2.6-1.1
		C380.3,198.9,380.4,199.2,380.7,199.4"/>
	<path class="st3" d="M377.5,241.3V240c0.2,0.1,0.3,0.3,0.5,0.3c0.2,0.1,0.4,0.2,0.6,0.3s0.4,0.1,0.7,0.2c0.2,0,0.4,0.1,0.6,0.1
		c0.5,0,1.1-0.1,1.5-0.4c0.5-0.4,0.6-1.1,0.3-1.7c-0.1-0.2-0.3-0.4-0.5-0.5c-0.2-0.2-0.4-0.3-0.7-0.4l-0.9-0.4
		c-0.3-0.2-0.6-0.3-0.9-0.5s-0.5-0.3-0.7-0.6c-0.2-0.2-0.4-0.4-0.5-0.7c-0.3-0.6-0.2-1.4,0.1-2c0.2-0.3,0.4-0.6,0.7-0.8
		c0.3-0.2,0.6-0.4,1-0.4c0.4-0.1,0.8-0.1,1.2-0.1c0.7,0,1.4,0.1,2,0.3v1.2c-0.6-0.4-1.4-0.6-2.1-0.6c-0.2,0-0.5,0-0.7,0.1
		c-0.2,0-0.4,0.1-0.6,0.2c-0.2,0.1-0.3,0.3-0.5,0.4c-0.1,0.2-0.2,0.4-0.2,0.7c0,0.2,0,0.4,0.1,0.6c0.1,0.2,0.2,0.3,0.4,0.5
		c0.2,0.2,0.4,0.3,0.6,0.4l0.9,0.4c0.3,0.2,0.6,0.3,0.9,0.5s0.5,0.4,0.8,0.6c0.2,0.2,0.4,0.5,0.5,0.7c0.1,0.3,0.2,0.6,0.2,0.9
		c0,0.4-0.1,0.8-0.3,1.2c-0.2,0.3-0.4,0.6-0.7,0.8c-0.3,0.2-0.7,0.4-1,0.4c-0.4,0.1-0.8,0.1-1.3,0.1H379c-0.2,0-0.4-0.1-0.7-0.1
		c-0.2,0-0.4-0.1-0.6-0.2C377.7,241.4,377.5,241.4,377.5,241.3 M389.8,238.6h-4.6c0,0.6,0.2,1.2,0.6,1.7c0.4,0.4,1,0.6,1.6,0.6
		c0.8,0,1.5-0.3,2.1-0.7v1c-0.7,0.5-1.5,0.7-2.3,0.6c-0.8,0-1.6-0.3-2.2-0.9c-0.6-0.7-0.9-1.6-0.8-2.5c0-0.9,0.3-1.8,0.9-2.5
		c0.5-0.6,1.3-1,2.2-1c0.8,0,1.5,0.3,2,0.8c0.5,0.7,0.8,1.5,0.7,2.3L389.8,238.6z M388.7,237.7c0-0.5-0.1-1-0.5-1.4
		c-0.3-0.3-0.7-0.5-1.2-0.5s-0.9,0.2-1.3,0.5c-0.3,0.4-0.5,0.9-0.5,1.4H388.7z M394.5,236.1c-0.2-0.2-0.5-0.2-0.8-0.2
		c-0.5,0-0.9,0.2-1.1,0.6c-0.3,0.5-0.4,1.1-0.4,1.7v3.4h-1.1V235h1.1v1.4l0,0c0.1-0.4,0.4-0.8,0.7-1.1c0.3-0.2,0.6-0.4,1-0.4
		c0.2,0,0.4,0,0.6,0.1L394.5,236.1z M401,235l-2.6,6.6h-1l-2.5-6.6h1.2l1.7,4.8c0.1,0.3,0.2,0.6,0.2,0.9l0,0c0-0.3,0.1-0.6,0.2-0.9
		l1.8-4.8H401z M407.2,238.6h-4.7c0,0.6,0.2,1.2,0.6,1.7c0.4,0.4,1,0.6,1.6,0.6c0.8,0,1.5-0.3,2.1-0.7v1c-0.7,0.5-1.5,0.7-2.3,0.6
		c-0.8,0.1-1.7-0.3-2.2-0.9c-0.6-0.7-0.9-1.6-0.8-2.5c0-0.9,0.3-1.8,0.9-2.5c0.5-0.6,1.3-1,2.2-1c0.8,0,1.5,0.3,2,0.8
		c0.5,0.7,0.8,1.5,0.7,2.3v0.6L407.2,238.6L407.2,238.6z M406.1,237.7c0-0.5-0.1-1-0.5-1.4c-0.3-0.3-0.8-0.5-1.2-0.5
		c-0.5,0-0.9,0.2-1.3,0.5c-0.4,0.4-0.6,0.9-0.7,1.4H406.1z M411.9,236.1c-0.2-0.2-0.5-0.2-0.8-0.2c-0.5,0-0.9,0.2-1.1,0.6
		c-0.3,0.5-0.5,1.1-0.5,1.8v3.4h-1.1V235h1.1v1.4l0,0c0.1-0.4,0.4-0.8,0.7-1.1c0.3-0.2,0.6-0.4,1-0.4c0.2,0,0.4,0,0.6,0.1
		L411.9,236.1z"/>
	<path id="_Контур__1_" class="st3" d="M356.7,230.8h-0.4v-2.3c0-0.2,0-0.4,0-0.7l0,0c0,0.1-0.1,0.2-0.1,0.3l-1.2,2.6h-0.2
		l-1.2-2.6c0-0.1-0.1-0.2-0.1-0.4l0,0c0,0.1,0,0.4,0,0.7v2.3h-0.4v-3.4h0.5l1,2.4c0.1,0.1,0.1,0.3,0.2,0.4l0,0
		c0.1-0.2,0.1-0.3,0.2-0.4l1.1-2.4h0.5L356.7,230.8"/>
	<path class="st3" d="M357.8,227.7l-0.2-0.1c-0.4-0.6,0.7-0.6,0.4,0L357.8,227.7 M358,230.8h-0.4v-2.5h0.4V230.8z"/>
	<path id="_Контур_2_1_" class="st3" d="M360.4,230.7c-0.2,0.1-0.4,0.2-0.7,0.2c-0.3,0-0.6-0.1-0.9-0.3
		c-0.2-0.2-0.3-0.6-0.3-0.9c0-0.4,0.1-0.7,0.4-1c0.2-0.3,0.6-0.4,0.9-0.4c0.2,0,0.4,0,0.6,0.1v0.4c-0.2-0.1-0.4-0.2-0.6-0.2
		s-0.5,0.1-0.6,0.3c-0.2,0.2-0.3,0.5-0.2,0.7c0,0.2,0.1,0.5,0.2,0.7c0.2,0.2,0.4,0.3,0.6,0.3s0.4-0.1,0.6-0.2V230.7"/>
	<path id="_Контур_3_1_" class="st3" d="M362.3,228.8c-0.1-0.1-0.2-0.1-0.3-0.1c-0.2,0-0.3,0.1-0.4,0.2
		c-0.1,0.2-0.2,0.4-0.2,0.7v1.3H361v-2.5h0.4v0.5l0,0c0-0.2,0.1-0.3,0.3-0.4c0.1-0.1,0.2-0.1,0.4-0.1c0.1,0,0.2,0,0.2,0V228.8"/>
	<path class="st3" d="M363.7,230.9c-0.3,0-0.6-0.1-0.9-0.3c-0.2-0.2-0.3-0.6-0.3-0.9c0-0.4,0.1-0.7,0.3-1c0.2-0.2,0.6-0.4,0.9-0.3
		c0.3,0,0.6,0.1,0.9,0.3c0.2,0.3,0.3,0.6,0.3,0.9c0,0.3-0.1,0.7-0.3,0.9C364.3,230.8,364,230.9,363.7,230.9 M363.7,228.6
		c-0.2,0-0.4,0.1-0.5,0.3c-0.2,0.2-0.2,0.5-0.2,0.7s0.1,0.5,0.2,0.7c0.2,0.2,0.4,0.3,0.6,0.3s0.4-0.1,0.6-0.3
		c0.1-0.2,0.2-0.5,0.2-0.7c0-0.3-0.1-0.5-0.2-0.7C364.2,228.7,364,228.6,363.7,228.6"/>
	<path id="_Контур_4_1_" class="st3" d="M365.4,230.7v-0.4c0.2,0.2,0.5,0.2,0.7,0.2c0.4,0,0.5-0.1,0.5-0.3V230l-0.2-0.1
		l-0.2-0.1l-0.2-0.1l-0.3-0.1l-0.2-0.1l-0.1-0.2V229c0-0.1,0-0.2,0.1-0.3l0.2-0.2c0.1-0.1,0.2-0.1,0.3-0.1c0.1,0,0.2,0,0.4,0
		c0.2,0,0.4,0,0.6,0.1v0.4c-0.2-0.1-0.4-0.2-0.6-0.2h-0.2l-0.1,0.1l-0.1,0.1v0.1v0.2l0.1,0.1l0.2,0.1l0.2,0.1l0.3,0.1l0.2,0.2
		l0.1,0.2c0,0.1,0,0.2,0,0.3s0,0.2-0.1,0.3l-0.2,0.2c-0.1,0.1-0.2,0.1-0.3,0.1c-0.1,0-0.2,0-0.4,0
		C365.8,230.8,365.6,230.8,365.4,230.7"/>
	<path class="st3" d="M368.6,230.9c-0.3,0-0.6-0.1-0.9-0.3c-0.2-0.2-0.3-0.6-0.3-0.9c0-0.4,0.1-0.7,0.3-1c0.2-0.2,0.6-0.4,0.9-0.3
		c0.3,0,0.6,0.1,0.9,0.3c0.2,0.3,0.3,0.6,0.3,0.9c0,0.3-0.1,0.7-0.3,0.9C369.3,230.8,369,230.9,368.6,230.9 M368.7,228.6
		c-0.2,0-0.5,0.1-0.6,0.3c-0.2,0.2-0.2,0.5-0.2,0.7s0.1,0.5,0.2,0.7c0.2,0.2,0.4,0.3,0.6,0.3s0.4-0.1,0.6-0.3
		c0.1-0.2,0.2-0.5,0.2-0.7c0-0.3-0.1-0.5-0.2-0.7C369.1,228.7,368.9,228.6,368.7,228.6"/>
	<path id="_Контур_5_1_" class="st3" d="M371.6,227.5l-0.3-0.1c-0.3,0-0.4,0.2-0.4,0.5v0.4h0.6v0.3H371v2.1h-0.4v-2.1h-0.4
		v-0.3h0.4V228c0-0.2,0.1-0.4,0.2-0.6c0.1-0.1,0.4-0.2,0.6-0.2c0.1,0,0.2,0,0.3,0L371.6,227.5"/>
	<path id="_Контур_6_1_" class="st3" d="M373.2,230.8c-0.1,0.1-0.2,0.1-0.4,0.1c-0.4,0-0.6-0.2-0.6-0.7v-1.4h-0.4v-0.3h0.4
		v-0.6l0.4-0.1v0.7h0.6v0.3h-0.6v1.4c0,0.1,0,0.2,0.1,0.3s0.2,0.1,0.3,0.1c0.1,0,0.2,0,0.3-0.1L373.2,230.8"/>
	<path class="st3" d="M374.6,241.4h-4.7v-9h1.2v7.9h3.6v1.1 M360.9,237c0,0.9,0.3,1.9,0.8,2.6c0.5,0.6,1.3,1,2.2,1
		c0.9,0,1.7-0.3,2.3-0.9c0.6-0.7,0.9-1.7,0.8-2.6c0.1-1-0.2-1.9-0.8-2.7c-0.5-0.6-1.3-1-2.2-0.9c-0.9,0-1.7,0.3-2.2,1
		C361.1,235.1,360.8,236.1,360.9,237 M368.4,243.8c-0.3,0.1-0.7,0.1-1,0.1c-0.5,0-1.1-0.1-1.6-0.4c-0.8-0.5-1.5-1.2-2.1-1.9
		c-1.1,0.1-2.2-0.4-3-1.3c-0.8-0.9-1.2-2.1-1.2-3.2c-0.1-1.3,0.4-2.5,1.2-3.4c0.8-0.9,2-1.3,3.2-1.3c1.1,0,2.2,0.4,3,1.3
		c0.8,0.9,1.2,2,1.2,3.2c0,1.1-0.2,2.1-0.8,3c-0.5,0.8-1.3,1.4-2.3,1.6c0.4,0.4,0.8,0.8,1.3,1.1c0.4,0.2,0.8,0.3,1.2,0.3
		c0.3,0,0.6,0,0.9-0.2L368.4,243.8z M353,239.8c0.3,0.3,0.7,0.5,1.1,0.6c0.4,0.2,0.9,0.2,1.3,0.2c1.3,0,1.9-0.5,1.9-1.4
		c0-0.2-0.1-0.5-0.2-0.7s-0.3-0.4-0.5-0.5s-0.7-0.4-1.3-0.7c-0.7-0.3-1.3-0.7-1.8-1.2c-0.3-0.4-0.4-0.8-0.4-1.3
		c0-0.7,0.3-1.4,0.9-1.8c0.7-0.5,1.5-0.7,2.3-0.7c0.7,0,1.4,0.1,2,0.3v1.2c-0.6-0.4-1.3-0.6-2-0.6c-0.5,0-0.9,0.1-1.4,0.3
		c-0.3,0.2-0.5,0.6-0.5,1c0,0.3,0.1,0.7,0.4,0.9c0.5,0.4,1,0.7,1.6,0.9c0.7,0.3,1.3,0.7,1.8,1.3c0.8,1,0.7,2.4-0.3,3.2l0,0
		c-0.7,0.5-1.5,0.7-2.4,0.6c-0.4,0-0.8-0.1-1.2-0.1c-0.4-0.1-0.7-0.2-1-0.4L353,239.8z"/>
</g>
<path class="st0" d="M444.7,208.8c-2.7-6-12.9-7.4-14.9-7.6l-0.8-0.1c-1-1.6-1.8-3.4-2.2-5.3c0-0.3-0.2-0.6-0.5-0.7
	c-0.3-0.1-0.6-0.2-0.8-0.1c-2.1,0.7-7,2.6-7.4,4.9c0,0.1,0,0.2,0,0.3c0,0.3,0.1,0.7,0.4,0.9c4.3,3.5,4,6.1,4,6.1c0,0.1,0,0.1,0,0.2
	c0.3,3.5-5,8.6-7,10.2l-0.1,0.1L415,218l-0.1,0.1c-1.3,1.2-2.1,2.9-1.9,4.6c0.3,2.1,2.5,3.5,4.8,4.9c3.3,2,9,2.1,10.2,2.1h0.3
	c0.3,0,0.6-0.1,0.8-0.4c4.4-5.4,3.8-14.3,3.5-17c3.7-1,7.5-1.7,11.3-2.1c0.5,0,0.9-0.4,0.9-1C444.8,209.2,444.8,209,444.7,208.8z
	 M423.9,204.7c0.9,0.7,1.9,1.4,2.8,2.3c-0.8,1.1-1.7,2.2-2.6,3.3c0.3-0.9,0.5-1.8,0.4-2.8C424.6,206.6,424.3,205.6,423.9,204.7z
	 M429.1,203.1c-0.4,0.8-0.8,1.5-1.2,2.3c-1.4-1.2-2.6-2.1-3.7-2.9c0.8,0.1,1.7,0.3,2.4,0.3S428.4,203.1,429.1,203.1L429.1,203.1z
	 M430.5,210.8c-2.2,0.6-4.4,1.4-6.6,2.3c1.5-1.5,2.9-3.1,4.1-4.8C429,209.2,429.8,210,430.5,210.8L430.5,210.8z M416.3,219.8
	c1.3-0.9,2.6-1.8,4-2.5c0.3,1.3,0.8,2.5,1.4,3.6c-2.2,0.4-4.4,0.6-6.5,0.7C415.4,220.9,415.8,220.3,416.3,219.8z M422.2,216.2
	l0.6-0.3c0.4-0.2,0.9-0.4,1.3-0.6c-0.2,1.4-0.5,2.8-1,4.2C422.7,218.5,422.4,217.4,422.2,216.2z M430.3,207.7c2.9,0,5.8,0.4,8.7,1.1
	c-1.8,0.3-3.9,0.8-6.4,1.4C431.9,209.4,431.1,208.5,430.3,207.7z M429.9,205.7c0.4-0.7,0.8-1.5,1.1-2.3c3.6,0.6,7.7,1.9,10.1,4
	C437.5,206.3,433.7,205.7,429.9,205.7L429.9,205.7z M425.1,197.4c0.4,1.2,0.8,2.4,1.4,3.5c-2.2-0.3-4.4-0.8-5.8-1h-0.2
	C421.9,198.8,423.5,198,425.1,197.4z M415.4,223.6c2.1-0.1,4.2-0.3,6.2-0.6c-0.7,1.2-1.6,2.3-2.6,3.3l-0.2-0.1
	C417.5,225.5,416.4,224.6,415.4,223.6L415.4,223.6z M423.3,223.9c0.9,1.4,1.8,2.7,2.9,3.9c-1.7-0.1-3.5-0.4-5.2-0.8
	C421.9,226.1,422.7,225,423.3,223.9L423.3,223.9z M428.3,227.2c-1.3-1.5-2.6-3.2-3.6-4.9c2.1-0.5,4.1-1.4,5.9-2.5
	C430.3,222.4,429.5,224.9,428.3,227.2L428.3,227.2z M430.7,217.2c-1.6,1.4-3.6,2.3-5.6,2.9c0.6-1.8,1-3.7,1.1-5.6
	c1.5-0.6,3-1.1,4.4-1.5C430.7,214.4,430.8,215.8,430.7,217.2L430.7,217.2z"/>
<path class="st1" d="M483.1,211.2c-3.2-7-15.1-8.7-17.4-8.9l-0.9-0.1c-1.2-1.9-2.1-4-2.5-6.1c0-0.3-0.2-0.7-0.5-0.8
	c-0.3-0.2-0.7-0.2-1-0.1c-2.4,0.8-8.2,3.1-8.6,5.8c0,0.1,0,0.2,0,0.3c0,0.4,0.1,0.8,0.4,1c5,4.1,4.7,7.2,4.7,7.2c0,0.1,0,0.2,0,0.3
	c0.4,4.1-5.8,10.1-8.2,12l-0.1,0.1l-0.4,0.3l-0.2,0.1c-1.5,1.3-2.4,3.3-2.3,5.3c0.4,2.5,2.9,4.2,5.6,5.7c3.9,2.3,10.6,2.4,12,2.4
	h0.3c0.3,0,0.7-0.2,0.9-0.4c5.1-6.4,4.4-16.7,4.1-19.9c4.3-1.2,8.8-2,13.2-2.5c0.6,0,1.1-0.6,1.1-1.2
	C483.2,211.5,483.1,211.4,483.1,211.2L483.1,211.2z M458.7,206.4c1,0.8,2.2,1.7,3.3,2.7c-1,1.3-2,2.6-3.1,3.8c0.4-1,0.5-2.1,0.5-3.2
	C459.5,208.5,459.3,207.4,458.7,206.4z M464.9,204.5c-0.4,0.9-0.9,1.8-1.4,2.6c-1.5-1.3-3.1-2.5-4.3-3.4c1,0.1,2,0.3,2.8,0.4
	S464,204.4,464.9,204.5L464.9,204.5z M466.6,213.5c-2.6,0.7-5.2,1.6-7.7,2.7c1.7-1.8,3.4-3.6,4.9-5.6
	C464.8,211.6,465.7,212.5,466.6,213.5L466.6,213.5z M449.9,224c1.5-1.1,3.1-2.1,4.7-3c0.4,1.5,0.9,2.9,1.5,4.3
	c-2.5,0.5-5.1,0.7-7.7,0.8C448.8,225.3,449.3,224.6,449.9,224z M456.8,219.9l0.8-0.4c0.5-0.3,1-0.5,1.5-0.7c-0.2,1.7-0.6,3.4-1.1,5
	C457.4,222.5,457,221.2,456.8,219.9z M466.3,209.9c3.4,0,6.8,0.5,10.2,1.4c-2.1,0.4-4.6,0.9-7.4,1.6
	C468.1,211.8,467.2,210.8,466.3,209.9L466.3,209.9z M465.8,207.6c0.5-0.9,1-1.8,1.4-2.7c4.3,0.7,9,2.2,11.8,4.7
	C474.7,208.2,470.3,207.6,465.8,207.6L465.8,207.6z M460.2,197.7c0.4,1.4,1,2.7,1.7,4c-2.5-0.4-5.2-0.9-6.8-1.2h-0.2
	C456.5,199.3,458.3,198.4,460.2,197.7z M448.8,228.4c2.4-0.1,4.9-0.3,7.3-0.7c-0.8,1.4-1.9,2.7-3.1,3.8l-0.2-0.1
	C451.3,230.7,449.9,229.7,448.8,228.4z M458.1,228.9c1,1.6,2.1,3.1,3.3,4.6c-2-0.1-4.1-0.4-6.1-0.9
	C456.4,231.4,457.3,230.1,458.1,228.9L458.1,228.9z M463.9,232.7c-1.6-1.8-3-3.7-4.3-5.7c2.5-0.6,4.8-1.6,7-3
	C466.3,227,465.4,230,463.9,232.7L463.9,232.7z M466.8,220.9c-1.9,1.6-4.2,2.8-6.6,3.4c0.7-2.1,1.1-4.3,1.2-6.6
	c1.8-0.7,3.5-1.3,5.1-1.8C466.7,217.6,466.8,219.3,466.8,220.9L466.8,220.9z"/>
<g>
	<path class="st2" d="M1,309.7h2.3v-9.3l3.7,8.1c0.3,0.9,1.2,1.5,2.2,1.3c0.9,0.1,1.8-0.4,2.1-1.3l3.6-8.1v9.3h2.4v-9.3
		c0.1-0.7-0.4-1.4-1.1-1.6c-1.8-0.5-3-0.1-3.5,1.1l-3.6,8l-3.5-8c-0.5-1.2-1.7-1.7-3.5-1.1c-0.7,0.2-1.2,0.8-1.1,1.6
		C1,300.4,1,309.7,1,309.7z"/>
	<path class="st2" d="M19.3,302.1h2.4v5.1c0,0.3,0.1,0.9,1.4,1c0.7,0,5.1,0,5.1,0V302h2.4v8.4c0,2.1-2.5,2.5-3.7,2.5h-7.5v-1.6h7.5
		c1.5-0.2,1.3-0.9,1.3-1.2v-0.6h-5c-2.3,0-3.8-1-3.9-2.2C19.4,307.3,19.4,302.1,19.3,302.1L19.3,302.1z"/>
	<path class="st2" d="M70.2,296.2c-1.2-0.1-2.4,0.1-3.5,0.5c-0.3,0.1-0.7,0.1-0.7,0.5c0.1,0.1,0.2,0.4,0.3,0.6
		c0.2,0.4,0.6,0.8,0.9,1.1c0.4,0.3,0.8,0.6,1.2,0.8c0.7,0.4,1.5,0.7,2.2,1.1c0.4,0.3,0.8,0.6,1.2,0.8c0.2,0.1,0.3,0.4,0.6,0.5l0,0
		c-0.1-0.2-0.2-0.4-0.3-0.6l-0.5-0.5c-0.5-0.7-1.2-1.3-1.9-1.8c-0.6-0.4-1.8-0.9-2.1-1.6l0,0c0.4-0.1,0.8-0.2,1.3-0.3
		c0.6-0.2,1.2-0.1,1.8-0.3c0.3-0.1,0.6-0.2,0.9-0.3v-0.2c-0.3-0.3-0.6-0.8-0.9-1.1c-0.9-0.8-1.9-1.6-3-2.2c-0.6-0.4-1.3-0.6-1.9-0.9
		c-0.2-0.1-0.6-0.2-0.7-0.3c-0.3-0.5-0.6-1-0.8-1.5c-0.5-1-1-2.1-1.5-3.1c-0.3-0.7-0.6-1.4-0.9-2c-1.7-2.8-4.1-5.2-7-6.8
		c-0.7-0.4-1.5-0.6-2.3-0.7l-1.4-0.1c-0.3-0.2-0.6-0.4-0.8-0.6c-1-0.6-3.7-2.1-4.5-0.2c-0.5,1.2,0.7,2.3,1.1,2.9
		c0.3,0.4,0.7,0.9,0.9,1.4c0.1,0.3,0.2,0.6,0.3,1c0.3,0.8,0.6,1.6,0.9,2.4c0.2,0.4,0.4,0.7,0.7,1.1c0.1,0.2,0.4,0.3,0.5,0.6
		c-0.2,0.4-0.4,0.9-0.5,1.3c-0.6,2-0.4,4.2,0.5,6.1c0.3,0.4,1,1.4,1.9,1.1c0.9-0.4,0.6-1.4,0.9-2.3c0-0.2,0-0.4,0.1-0.5l0,0
		c0.3,0.5,0.5,1,0.7,1.5c0.6,0.9,1.4,1.7,2.3,2.4c0.4,0.3,0.8,0.9,1.3,1.1V297l0,0c-0.1-0.1-0.3-0.3-0.4-0.4
		c-0.3-0.3-0.7-0.7-0.9-1.1c-0.8-1-1.4-2.1-2-3.3c-0.3-0.6-0.5-1.2-0.8-1.7c-0.1-0.2-0.1-0.5-0.3-0.6c-0.3,0.4-0.6,0.8-0.9,1.2
		c-0.3,0.9-0.5,1.8-0.5,2.8c-0.1,0,0,0-0.1,0c-0.6-0.1-0.8-0.7-1-1.3c-0.6-1.6-0.6-3.2-0.2-4.8c0.1-0.4,0.7-1.6,0.5-1.9
		s-0.5-0.5-0.7-0.8c-0.3-0.4-0.5-0.8-0.7-1.2c-0.4-1-0.7-2.1-1.1-3.1c-0.3-0.5-0.6-1-0.9-1.4c-0.4-0.4-0.7-0.9-1-1.4
		c-0.1-0.2-0.2-0.5-0.1-0.7c0-0.1,0.1-0.2,0.3-0.2c0.2-0.2,0.9,0,1.1,0.2c0.6,0.2,1.2,0.5,1.8,0.9c0.3,0.2,0.5,0.5,0.8,0.6H51
		c0.6,0.1,1.2,0,1.8,0.2c0.9,0.3,1.8,0.7,2.6,1.3c2.4,1.5,4.3,3.7,5.6,6.2c0.2,0.4,0.3,0.8,0.5,1.2c0.4,0.9,0.8,1.8,1.2,2.7
		c0.3,0.9,0.8,1.7,1.3,2.4c0.3,0.4,1.4,0.6,1.8,0.8c0.4,0.1,0.8,0.3,1.3,0.5c0.6,0.4,1.2,0.8,1.8,1.2
		C69.2,295.3,70.1,295.8,70.2,296.2L70.2,296.2z"/>
	<path class="st2" d="M51.8,280.5c-0.2,0-0.5,0-0.7,0.1l0,0l0,0c0.2,0.3,0.4,0.5,0.6,0.7c0.1,0.3,0.3,0.6,0.4,0.9l0,0
		c0.3-0.2,0.4-0.6,0.4-0.9c-0.1-0.1-0.2-0.2-0.2-0.4C52.1,280.7,51.9,280.6,51.8,280.5z"/>
	<path class="st2" d="M32.4,309.7h6.8c0.7,0,1.5-0.1,2.2-0.5c1-0.5,1.5-1.1,1.5-1.9v-1.7c0-0.7-0.6-1.3-1.7-1.7
		c-0.6-0.2-1.3-0.3-2-0.3h-2.9c-1,0-1.4-0.3-1.5-0.9c0-0.1,0-0.1,0-0.2v-1.1c0-0.1,0-0.1,0-0.2c0.1-0.5,0.4-0.6,1.2-0.7h7v-1.6h-6.7
		c-0.6,0-1.3,0-1.9,0.2c-1.4,0.4-2,1.1-2,2.3v1.4c0,1.1,1.2,2,3.2,2.2c0.2,0,0.5,0,0.7,0h2.4c0.1,0,0.2,0,0.3,0
		c0.7,0.1,1.1,0.2,1.3,0.5c0.1,0.1,0.2,0.3,0.2,0.4v1.4c0,0.2-0.1,0.4-0.3,0.6c-0.3,0.2-0.6,0.3-1,0.3H39h-6.5L32.4,309.7
		L32.4,309.7z"/>
	<path class="st2" d="M57.6,307c0,1.6,1.2,2.5,3.6,2.7c0.2,0,0.5,0,0.7,0H68v-1.5h-6.2c-1.4,0-1.9-0.3-1.9-1.2v-8.1h-2.4v8.1H57.6z"
		/>
	<path class="st2" d="M44.4,307v-5.6c0-1.4,1-2.3,3-2.6c0.2,0,0.4,0,0.6,0h4.5c0.2,0,0.4,0,0.7,0c2,0.3,3,1.1,3,2.6v5.6
		c0.1,1-0.5,1.9-1.4,2.2l2.3,2.1h-2.8l-1.9-1.7l-1.9,0.1H48c-0.5,0-0.9-0.1-1.4-0.2C45.1,309.1,44.4,308.3,44.4,307L44.4,307z
		 M46.9,306.9c0,0.1,0,0.2,0,0.2c0.1,0.7,0.7,1,1.7,1h2.1l-2-1.8h2.7l1.7,1.6c0.3-0.2,0.5-0.4,0.6-0.8c0-0.1,0-0.2,0-0.2v-5.4
		c0-0.1,0-0.1,0-0.2c-0.1-0.6-0.7-1-1.7-1h-3.5c-1,0-1.7,0.5-1.7,1.2C46.9,301.5,46.9,306.9,46.9,306.9z"/>
	<path class="st2" d="M69.2,309.7h0.3v-1.3H70v-0.3h-1.3v0.3h0.5V309.7z M71.8,309.7h0.3v-1.6h-0.5l-0.4,1.1l-0.5-1.1h-0.5v1.6h0.3
		v-1.2l0,0l0.4,1.2h0.2l0.5-1.2l0,0L71.8,309.7L71.8,309.7z"/>
</g>
<g>
	<path class="st9" d="M74,309.7h2.4v-9.3l3.7,8.1c0.3,0.9,1.2,1.5,2.2,1.3c0.9,0.1,1.8-0.4,2.2-1.3l3.6-8.1v9.3h2.4v-9.3
		c0.1-0.7-0.4-1.4-1.1-1.6c-1.8-0.5-3-0.1-3.5,1.1l-3.6,8l-3.5-8c-0.5-1.2-1.7-1.7-3.5-1.1c-0.7,0.2-1.2,0.8-1.1,1.6
		C74,300.4,74,309.7,74,309.7z"/>
	<path class="st9" d="M92.3,302.1h2.4v5.1c0,0.3,0.1,0.9,1.4,1c0.7,0,5.1,0,5.1,0V302h2.4v8.4c0,2.1-2.5,2.5-3.7,2.5h-7.5v-1.6h7.5
		c1.5-0.2,1.3-0.9,1.3-1.2v-0.6h-5c-2.3,0-3.8-1-3.8-2.2C92.4,307.3,92.4,302.1,92.3,302.1L92.3,302.1z"/>
	<path class="st9" d="M143.2,296.2c-1.2-0.1-2.4,0.1-3.5,0.5c-0.3,0.1-0.7,0.1-0.7,0.5c0.1,0.1,0.2,0.4,0.3,0.6
		c0.2,0.4,0.6,0.8,0.9,1.1c0.4,0.3,0.8,0.6,1.2,0.8c0.7,0.4,1.5,0.7,2.2,1.1c0.4,0.3,0.8,0.6,1.2,0.8c0.2,0.1,0.3,0.4,0.6,0.5l0,0
		c-0.1-0.2-0.2-0.4-0.3-0.6l-0.5-0.5c-0.5-0.7-1.2-1.3-1.9-1.8c-0.6-0.4-1.8-0.9-2.1-1.6l0,0c0.4-0.1,0.8-0.2,1.3-0.3
		c0.6-0.2,1.2-0.1,1.8-0.3c0.3-0.1,0.6-0.2,0.9-0.3v-0.2c-0.3-0.3-0.6-0.8-0.9-1.1c-0.9-0.8-1.9-1.6-3-2.2c-0.6-0.4-1.3-0.6-1.9-0.9
		c-0.2-0.1-0.6-0.2-0.7-0.3c-0.3-0.5-0.6-1-0.8-1.5c-0.5-1-1-2.1-1.5-3.1c-0.3-0.7-0.6-1.4-0.9-2c-1.7-2.8-4.1-5.2-7-6.8
		c-0.7-0.4-1.5-0.6-2.3-0.7l-1.4-0.1c-0.3-0.2-0.6-0.4-0.8-0.6c-1-0.6-3.7-2.1-4.4-0.2c-0.5,1.2,0.7,2.3,1.1,2.9
		c0.3,0.4,0.7,0.9,0.9,1.4c0.1,0.3,0.2,0.6,0.3,1c0.3,0.8,0.6,1.6,0.9,2.4c0.2,0.4,0.4,0.7,0.7,1.1c0.1,0.2,0.4,0.3,0.5,0.6
		c-0.2,0.4-0.4,0.9-0.5,1.3c-0.6,2-0.4,4.2,0.5,6.1c0.3,0.4,1,1.4,1.9,1.1c0.9-0.4,0.6-1.4,0.9-2.3c0.1-0.2,0-0.4,0.1-0.5l0,0
		c0.3,0.5,0.5,1,0.7,1.5c0.6,0.9,1.4,1.7,2.4,2.4c0.4,0.3,0.8,0.9,1.3,1.1V297l0,0c-0.1-0.1-0.3-0.3-0.4-0.4
		c-0.3-0.3-0.7-0.7-0.9-1.1c-0.8-1-1.4-2.1-2-3.3c-0.3-0.6-0.5-1.2-0.8-1.7c-0.1-0.2-0.1-0.5-0.3-0.6c-0.3,0.4-0.6,0.8-0.9,1.2
		c-0.3,0.9-0.5,1.8-0.5,2.8c-0.1,0,0,0-0.1,0c-0.6-0.1-0.8-0.7-1-1.3c-0.6-1.6-0.6-3.2-0.2-4.8c0.1-0.4,0.7-1.6,0.4-1.9
		c-0.2-0.4-0.5-0.5-0.7-0.8c-0.3-0.4-0.5-0.8-0.7-1.2c-0.4-1-0.7-2.1-1.1-3.1c-0.3-0.5-0.6-1-0.9-1.4c-0.4-0.4-0.7-0.9-1-1.4
		c-0.1-0.2-0.2-0.5-0.1-0.7c0-0.1,0.1-0.2,0.3-0.2c0.2-0.2,0.9,0,1.1,0.2c0.6,0.2,1.2,0.5,1.8,0.9c0.3,0.2,0.5,0.5,0.8,0.6h0.4
		c0.6,0.1,1.2,0,1.8,0.2c0.9,0.3,1.8,0.7,2.6,1.3c2.4,1.5,4.3,3.7,5.6,6.2c0.2,0.4,0.3,0.8,0.5,1.2c0.4,0.9,0.8,1.8,1.2,2.7
		c0.3,0.9,0.8,1.7,1.3,2.4c0.3,0.4,1.4,0.6,1.9,0.8c0.4,0.1,0.8,0.3,1.3,0.5c0.6,0.4,1.2,0.8,1.8,1.2
		C142.2,295.3,143.1,295.8,143.2,296.2L143.2,296.2z"/>
	<path class="st9" d="M124.8,280.5c-0.2,0-0.5,0-0.7,0.1l0,0l0,0c0.2,0.3,0.4,0.5,0.6,0.7c0.1,0.3,0.3,0.6,0.4,0.9l0,0
		c0.3-0.2,0.4-0.6,0.4-0.9c-0.1-0.1-0.2-0.2-0.2-0.4C125.1,280.7,124.9,280.6,124.8,280.5z"/>
	<path class="st9" d="M105.4,309.7h6.8c0.7,0,1.5-0.1,2.2-0.5c1-0.5,1.5-1.1,1.5-1.9v-1.7c0-0.7-0.6-1.3-1.7-1.7
		c-0.6-0.2-1.3-0.3-2-0.3h-2.9c-1,0-1.4-0.3-1.5-0.9c0-0.1,0-0.1,0-0.2v-1.1c0-0.1,0-0.1,0-0.2c0.1-0.5,0.4-0.6,1.2-0.7h7v-1.6h-6.7
		c-0.6,0-1.3,0-1.9,0.2c-1.4,0.4-2,1.1-2,2.3v1.4c0,1.1,1.2,2,3.2,2.2c0.2,0,0.5,0,0.7,0h2.4c0.1,0,0.2,0,0.3,0
		c0.7,0.1,1.1,0.2,1.3,0.5c0.1,0.1,0.2,0.3,0.2,0.4v1.4c0,0.2-0.1,0.4-0.3,0.6c-0.3,0.2-0.6,0.3-1,0.3H112h-6.5L105.4,309.7
		L105.4,309.7z"/>
	<path class="st9" d="M130.6,307c0,1.6,1.2,2.5,3.6,2.7c0.2,0,0.4,0,0.7,0h6.2v-1.5h-6.2c-1.4,0-1.9-0.3-1.9-1.2v-8.1h-2.4
		L130.6,307L130.6,307z"/>
	<path class="st9" d="M117.4,307v-5.6c0-1.4,1-2.3,3-2.6c0.2,0,0.4,0,0.6,0h4.5c0.2,0,0.4,0,0.7,0c2,0.3,3,1.1,3,2.6v5.6
		c0.1,1-0.5,1.9-1.4,2.2l2.3,2.1h-2.8l-1.9-1.7l-1.9,0.1H121c-0.5,0-0.9-0.1-1.4-0.2C118.1,309.1,117.4,308.3,117.4,307L117.4,307z
		 M119.9,306.9c0,0.1,0,0.2,0.1,0.2c0.1,0.7,0.7,1,1.7,1h2.1l-2-1.8h2.7l1.7,1.6c0.3-0.2,0.5-0.4,0.6-0.8c0-0.1,0-0.2,0-0.2v-5.4
		c0-0.1,0-0.1,0-0.2c-0.1-0.6-0.7-1-1.7-1h-3.5c-1,0-1.7,0.5-1.7,1.2C119.9,301.5,119.9,306.9,119.9,306.9z"/>
	<path class="st9" d="M142.2,309.7h0.3v-1.3h0.4v-0.3h-1.3v0.3h0.5v1.3H142.2z M144.8,309.7h0.3v-1.6h-0.5l-0.4,1.1l-0.5-1.1h-0.5
		v1.6h0.3v-1.2l0,0l0.4,1.2h0.2l0.5-1.2l0,0L144.8,309.7L144.8,309.7z"/>
</g>
<g>
	<path class="st13" d="M179.1,329.2L179.1,329.2c-0.9,0-1.7-0.4-2.2-1.1c-1.3-1.6-2.5-3.3-3.7-5.1c0,0,0,0,0,0.1l-0.2,0.2
		c-2.3,2.1-5.6,2.8-8.6,1.6l-0.2-0.1c-0.9-0.5-1.4-1.5-1.5-2.5c0-2.4,3.6-7,6.2-8.5c-0.8-3.6-1.9-7.1-3.2-10.5c-1.1-2-2.4-4-3.8-5.8
		c-0.1,1-0.7,2-1.6,2.4c-1,0.5-2.1,0.3-3-0.3c-2-1.7-3.3-4-3.7-6.5V293c-0.1-1.3,0.2-2.5,0.7-3.7c-7.2-6.1-7.3-6.2-7.3-7.6
		c0-0.2,0-0.3,0-0.5V281c0.2-1.1,0.9-2,1.8-2.6c1.2-0.8,2.6-1,3.9-0.7l0.6,0.1c1.9-1.3,4.2-1.9,6.6-1.7c4.6,0.6,8.9,2.6,12.2,5.8
		c4.6-0.5,9.6,0.7,10.8,5.3c0.2,0.7,0.1,1.5-0.3,2.1c-0.4,0.7-1.1,1.2-1.9,1.3c-0.6,0.1-1.3,0.3-1.9,0.5c1.2,3.9,1.6,8,1.2,12
		c-0.2,3.8-0.7,7.7-1.5,11.5c2.4,2.6,5.6,7.1,4.6,10.8c-0.3,1.6-1.4,2.9-2.8,3.6C180,329.1,179.6,329.2,179.1,329.2z M179.3,326.2
		L179.3,326.2L179.3,326.2z M179,326.2L179,326.2L179,326.2z M173.6,319.6h0.1c0.5,0,1.1,0.2,1.6,1.1c1.2,1.8,2.5,3.7,3.8,5.4
		c0.5-0.3,0.9-0.8,1-1.4v-0.1c0.5-1.8-1.2-5.1-4.4-8.5l-0.5-0.6l0.2-0.8c0.8-3.9,1.4-7.9,1.6-11.9c0.4-4.1-0.2-8.4-1.6-12.2
		l-0.5-1.5l1.5-0.5c0.9-0.3,2.3-0.6,3.5-0.9c-1.1-3.6-7-3-8.2-2.8L171,285l-0.5-0.6c-2.9-3-6.7-4.9-10.8-5.4c-1.7-0.1-3.6,0.4-5,1.5
		l-0.5,0.4l-2-0.3c-0.6-0.1-1.2,0-1.7,0.3c-0.2,0.1-0.4,0.3-0.4,0.6c0.6,0.7,3.4,3.1,7.2,6.3l1,0.9l-0.8,1.1
		c-0.6,0.8-0.9,1.9-0.8,2.9c0.3,1.7,1.1,3.2,2.3,4.3c0-1.3,0.6-2.6,1.6-3.4l1.1-0.9l1,1c2.3,2.5,4.3,5.3,5.9,8.3l0.1,0.2
		c1.5,3.9,2.7,8,3.6,12.1l0.3,1.1l-1.7,0.9c-1.9,1-4.7,4.8-4.9,5.9l0,0c1.8,0.6,3.8,0.2,5.2-1c0.6-0.8,1.5-1.3,2.5-1.4L173.6,319.6z
		 M180.1,287.6L180.1,287.6L180.1,287.6z M150,281.6L150,281.6L150,281.6z"/>
</g>
<g>
	<path class="st0" d="M217.2,329.4c-0.9,0-1.7-0.4-2.2-1.1c-1.3-1.6-2.5-3.4-3.7-5.1c0,0,0,0-0.1,0.1l-0.2,0.2
		c-2.3,2.1-5.6,2.8-8.6,1.6l-0.3-0.2c-0.8-0.5-1.3-1.4-1.4-2.4v-0.1c0-2.3,3.7-6.9,6.2-8.4c-0.8-3.6-1.9-7.1-3.2-10.6
		c-1.1-2.1-2.4-4.1-3.9-5.9c0,1-0.6,2-1.6,2.5s-2.2,0.3-3-0.3c-2-1.7-3.3-4-3.7-6.6V293c-0.1-1.3,0.2-2.5,0.7-3.7
		c-7.2-6.1-7.3-6.2-7.3-7.6c0-0.2,0-0.3,0-0.5V281c0.2-1.1,0.9-2,1.8-2.6c1.2-0.8,2.6-1,4-0.7l0.5,0.1c2-1.3,4.3-1.9,6.6-1.7
		c4.6,0.6,8.9,2.7,12.1,5.9c4.6-0.5,9.7,0.6,10.9,5.3c0.2,0.7,0.1,1.5-0.3,2.1c-0.4,0.7-1.1,1.2-1.9,1.4c-0.7,0.2-1.4,0.3-2,0.5
		c1.2,3.9,1.6,8,1.3,12c-0.2,3.9-0.7,7.8-1.5,11.6c2.4,2.6,5.6,7.1,4.6,10.8c-0.3,1.6-1.4,2.9-2.8,3.6
		C218.1,329.3,217.6,329.4,217.2,329.4z M217.3,326.4L217.3,326.4L217.3,326.4z M217.1,326.4L217.1,326.4L217.1,326.4z M211.6,319.8
		h0.1c0.7,0,1.2,0.4,1.6,1.1c1.2,1.8,2.5,3.7,3.9,5.5c0.6-0.3,0.9-0.8,1-1.4v-0.1c0.6-2.2-1.9-5.8-4.4-8.5l-0.5-0.6l0.2-0.8
		c0.8-3.9,1.4-7.9,1.6-12c0.4-4.2-0.2-8.4-1.6-12.3l-0.5-1.5l1.5-0.5c1.1-0.3,2.7-0.8,3.5-0.9c-1.2-3.7-7.1-3-8.3-2.8l-0.8,0.1
		l-0.5-0.6c-2.8-3-6.7-5-10.8-5.5c-1.8-0.1-3.6,0.4-5.1,1.5l-0.5,0.4l-1.9-0.3c-0.6-0.1-1.2,0-1.7,0.3c-0.2,0.1-0.4,0.3-0.5,0.6
		c0.6,0.7,3.4,3.1,7.2,6.3l1,0.9l-0.8,1.1c-0.6,0.9-0.9,1.9-0.8,2.9c0.3,1.7,1.1,3.2,2.3,4.3c0-1.3,0.6-2.6,1.7-3.5l1.1-0.8l0.9,1
		c2.3,2.5,4.3,5.3,5.9,8.3l0.1,0.2c1.5,4,2.7,8.1,3.6,12.2l0.3,1.1l-1.7,0.9c-1.9,1-4.7,4.8-4.9,5.9c1.8,0.6,3.7,0.2,5.1-1.1
		C209.6,320.4,210.5,319.9,211.6,319.8L211.6,319.8z M211.7,321.7l-1,0.7c0,0,0,0,0.1,0.1L211.7,321.7z M211.8,321.6L211.8,321.6
		l0.2-0.1L211.8,321.6z M218.2,287.7L218.2,287.7L218.2,287.7L218.2,287.7z M188,281.6L188,281.6L188,281.6z"/>
</g>
<g>
	<path class="st1" d="M251,322.2C250.9,322.2,250.9,322.2,251,322.2c-0.7,0-1.3-0.3-1.7-0.8c-1.2-1.5-2.4-3.1-3.4-4.7
		c-0.1,0.1-0.3,0.2-0.4,0.3l-0.1,0.1c-1.9,1.8-4.7,2.3-7.1,1.3l-0.2-0.1c-0.7-0.4-1.1-1.1-1.1-1.9c0-1.9,3.2-6.1,5.5-7.3
		c-0.8-3.2-1.7-6.5-2.9-9.6c-1.1-2.1-2.5-4-4-5.8c-0.1,0.2-0.1,0.4,0,0.6c0.1,1-0.4,1.8-1.2,2.2c-0.8,0.4-1.6,0.3-2.3-0.3
		c-1.7-1.4-2.8-3.4-3.1-5.6c-0.1-1.2,0.2-2.4,0.7-3.4c-6.4-5.4-6.5-5.5-6.5-6.6c0-0.1,0-0.2,0-0.4c0.2-1,0.7-1.7,1.4-2.2
		c1-0.6,2.2-0.8,3.3-0.5l0.5,0.1c1.7-1.1,3.6-1.6,5.6-1.5c4.1,0.5,7.8,2.3,10.7,5.1c3.9-0.5,8.3,0.4,9.3,4.4
		c0.1,0.6,0.1,1.2-0.2,1.7s-0.8,0.9-1.4,1c-0.7,0.2-1.4,0.3-2.1,0.5c1.1,3.4,1.5,7.1,1.2,10.7c-0.2,3.4-0.7,6.9-1.3,10.3
		c2.1,2.3,5,6.2,4.1,9.3c-0.2,1.2-1.1,2.4-2.3,2.9C251.6,322.1,251.3,322.2,251,322.2z M246.1,314.5L246.1,314.5
		c0.3,0,0.9,0.1,1.2,0.8c1,1.6,2.2,3.3,3.5,4.8c0,0.1,0.1,0.1,0.2,0.1c0.7-0.3,1.2-0.9,1.3-1.6c0.6-2.1-1.7-5.4-4-7.9l-0.4-0.4
		l0.1-0.5c0.7-3.5,1.2-7,1.4-10.5c0.3-3.7-0.2-7.5-1.4-10.9l-0.4-1l1-0.3c0.8-0.2,2-0.6,3.2-0.8c0.1,0,0.1,0,0.1-0.1
		c0,0,0-0.1,0-0.2c-1-3.7-6.5-3-7.6-2.9l-0.5,0.1l-0.4-0.4c-2.6-2.7-6-4.5-9.7-4.9c-1.6-0.1-3.3,0.4-4.6,1.4l-0.3,0.2l-1.4-0.2
		c-0.7-0.2-1.3-0.1-1.8,0.3c-0.3,0.2-0.5,0.5-0.6,0.9v0.1c0.2,0.3,2.5,2.3,6.4,5.6l0.7,0.6l-0.5,0.7c-0.6,0.8-0.9,1.8-0.8,2.8
		c0.2,1.6,1.1,3.2,2.4,4.3c0,0,0.1,0,0.2,0c0.1,0,0.1-0.1,0.1-0.2c-0.2-1.2,0.3-2.4,1.3-3.2l0.7-0.6l0.6,0.7c2,2.2,3.8,4.6,5.2,7.2
		v0.1c1.3,3.4,2.4,7,3.2,10.6l0.2,0.8l-1.3,0.6c-1.9,0.9-4.5,4.6-4.5,5.5c0,0.1,0.1,0.2,0.2,0.3c1.7,0.6,3.6,0.2,4.9-0.9
		C244.5,315,245.2,314.6,246.1,314.5L246.1,314.5z M246.2,315.8l-0.6,0.4c0,0,0,0,0.1,0.1L246.2,315.8z M246.2,315.8L246.2,315.8
		l0.2-0.1L246.2,315.8z"/>
</g>
<g>
	<path class="st1" d="M268,297.5c-4.2,0-7.7-3.4-7.7-7.7c0-4.2,3.4-7.7,7.7-7.7s7.7,3.4,7.7,7.7C275.6,294.1,272.2,297.5,268,297.5z
		 M268,284.2c-3.1,0-5.7,2.6-5.7,5.7s2.5,5.7,5.7,5.7s5.7-2.5,5.7-5.7S271.1,284.2,268,284.2z"/>
	<path class="st1" d="M279.9,307.8h-2.3c0-5.3-4.3-9.6-9.6-9.6s-9.6,4.3-9.6,9.6H256c0-6.6,5.4-12,12-12S279.9,301.2,279.9,307.8z"
		/>
	<path class="st1" d="M288,291.4c-4.2,0-7.7-3.4-7.7-7.7c0-4.2,3.4-7.7,7.7-7.7s7.7,3.4,7.7,7.7C295.7,287.9,292.2,291.4,288,291.4z
		 M288,278c-3.1,0-5.7,2.6-5.7,5.7s2.6,5.7,5.7,5.7s5.7-2.5,5.7-5.7S291.1,278,288,278z"/>
	<path class="st1" d="M300,301.7h-2.3c0-5.3-4.3-9.6-9.6-9.6s-9.6,4.3-9.6,9.6H276c0-6.6,5.4-12,12-12S300,295.1,300,301.7z"/>
</g>
<g>
	<path class="st1" d="M345,319h-38c-3.3,0-6-2.7-6-6v-31c0-3.3,2.7-6,6-6h38c3.3,0,6,2.7,6,6v31C351,316.3,348.3,319,345,319z
		 M307,278c-2.2,0-4,1.8-4,4v31c0,2.2,1.8,4,4,4h38c2.2,0,4-1.8,4-4v-31c0-2.2-1.8-4-4-4H307z"/>
	<path class="st1" d="M337.3,313.7c-0.5,0-1-0.2-1.3-0.7l-2.8-4.3l-2.7,2.6c-0.2,0.2-0.5,0.4-0.8,0.4c-0.4,0.1-0.8,0-1.1-0.3
		s-0.5-0.6-0.6-1l-3.2-19.3c-0.1-0.6,0.2-1.2,0.7-1.5l1.5-0.9v0.9l0,0l16.6,10.6c0.3,0.2,0.4,0.4,0.5,0.6c0.3,0.7,0,1.6-0.7,2
		l-3.5,1.5l2.8,4.3c0.4,0.7,0.3,1.6-0.4,2l-4.2,2.8C337.9,313.6,337.6,313.7,337.3,313.7z M337.7,311.9L337.7,311.9
		C337.8,311.9,337.7,311.9,337.7,311.9z M333.6,305.7l3.9,5.9l3.3-2.2l-3.9-5.9l4.8-2l-14.8-9.4l2.9,17.3L333.6,305.7z M330,310.2
		L330,310.2L330,310.2z M329.1,309.9L329.1,309.9L329.1,309.9z M326.7,290.9L326.7,290.9L326.7,290.9z"/>
</g>
<g>
	<path class="st5" d="M390.5,314.9h-32c-3.6,0-6.5-2.9-6.5-6.5v-25.9c0-3.6,2.9-6.5,6.5-6.5h32c3.6,0,6.5,2.9,6.5,6.5v25.9
		C397,312,394.1,314.9,390.5,314.9z M358.5,279c-1.9,0-3.5,1.6-3.5,3.5v25.9c0,1.9,1.6,3.5,3.5,3.5h32c1.9,0,3.5-1.6,3.5-3.5v-25.9
		c0-1.9-1.6-3.5-3.5-3.5H358.5z"/>
	<path class="st5" d="M384.4,310.3c-0.6,0-1.2-0.3-1.6-0.9l-2.1-3.1l-1.8,1.8c-0.3,0.3-0.6,0.4-1,0.5c-0.5,0.1-1,0-1.5-0.3
		c-0.4-0.3-0.7-0.7-0.8-1.3l-2.8-16.9c-0.1-0.8,0.2-1.6,0.9-2c0.6-0.4,1.4-0.4,2,0l14.5,9.3c0.3,0.2,0.6,0.5,0.7,0.8
		c0.2,0.5,0.2,1,0,1.5s-0.5,0.9-1,1.1l-2.4,1l2.1,3.1c0.6,0.9,0.3,2.1-0.5,2.7l-3.7,2.4C385.2,310.2,384.8,310.3,384.4,310.3z
		 M381.3,301.6l3.5,5.3l1.8-1.2l-3.5-5.3l3.8-1.6l-10.7-6.9l2.1,12.6L381.3,301.6z M376.8,305.9L376.8,305.9L376.8,305.9z
		 M375.8,289.5L375.8,289.5C375.8,289.6,375.8,289.6,375.8,289.5z"/>
</g>
<g>
	<path class="st13" d="M435,296.1h-15.3c-3.1,0-5.6-2.5-5.6-5.6v-8.9c0-3.1,2.5-5.6,5.6-5.6H435c3.1,0,5.6,2.5,5.6,5.6v8.9
		C440.6,293.6,438.1,296.1,435,296.1z M419.7,279c-1.4,0-2.6,1.2-2.6,2.6v8.9c0,1.4,1.2,2.6,2.6,2.6H435c1.4,0,2.6-1.2,2.6-2.6v-8.9
		c0-1.4-1.2-2.6-2.6-2.6H419.7z"/>
	<path class="st13" d="M418,323.1h-14.5c-3,0-5.5-2.5-5.5-5.5v-9.1c0-3,2.5-5.5,5.5-5.5H418c3,0,5.5,2.5,5.5,5.5v9.1
		C423.5,320.6,421,323.1,418,323.1z M403.5,305.9c-1.4,0-2.5,1.1-2.5,2.5v9.1c0,1.4,1.1,2.5,2.5,2.5H418c1.4,0,2.5-1.1,2.5-2.5v-9.1
		c0-1.4-1.1-2.5-2.5-2.5H403.5z"/>
	<path class="st13" d="M451.3,323.1h-14.5c-3,0-5.5-2.5-5.5-5.5v-9.1c0-3,2.5-5.5,5.5-5.5h14.5c3,0,5.5,2.5,5.5,5.5v9.1
		C456.8,320.6,454.3,323.1,451.3,323.1z M436.8,305.9c-1.4,0-2.5,1.1-2.5,2.5v9.1c0,1.4,1.1,2.5,2.5,2.5h14.5c1.4,0,2.5-1.1,2.5-2.5
		v-9.1c0-1.4-1.1-2.5-2.5-2.5H436.8z"/>
	<polygon class="st13" points="410.2,305.7 408.8,303.1 428.1,293 444.1,303.1 442.4,305.7 427.9,296.5 	"/>
</g>
<g>
	<path class="st1" d="M490.1,293.2h-12.7c-2.8,0-5.1-2.3-5.1-5.1v-7c0-2.8,2.3-5.1,5.1-5.1h12.7c2.8,0,5.1,2.3,5.1,5.1v7
		C495.2,290.9,492.9,293.2,490.1,293.2z M477.4,278c-1.7,0-3.1,1.4-3.1,3.1v7c0,1.7,1.4,3.1,3.1,3.1h12.7c1.7,0,3.1-1.4,3.1-3.1v-7
		c0-1.7-1.4-3.1-3.1-3.1H477.4z"/>
	<path class="st1" d="M475,317.2h-12c-2.8,0-5-2.2-5-5V305c0-2.8,2.2-5,5-5h12c2.8,0,5,2.2,5,5v7.2C480,314.9,477.8,317.2,475,317.2
		z M463,301.9c-1.7,0-3,1.4-3,3v7.2c0,1.7,1.4,3,3,3h12c1.7,0,3-1.4,3-3v-7.2c0-1.7-1.4-3-3-3H463z"/>
	<path class="st1" d="M504.6,317.2h-12c-2.8,0-5-2.2-5-5V305c0-2.8,2.2-5,5-5h12c2.8,0,5,2.2,5,5v7.2
		C509.6,314.9,507.3,317.2,504.6,317.2z M492.6,301.9c-1.7,0-3,1.4-3,3v7.2c0,1.7,1.4,3,3,3h12c1.7,0,3-1.4,3-3v-7.2
		c0-1.7-1.4-3-3-3H492.6z"/>
	<polygon class="st1" points="468.3,301.8 467.4,300 484.4,291.2 498.4,300.1 497.4,301.7 484.3,293.5 	"/>
</g>
<g>
	<path class="st14" d="M16.2,355.6c-3.7,0-7.2-2.1-8.9-5.6c-2.3-4.9-0.2-10.7,4.7-13c2.4-1.1,5-1.2,7.5-0.3c2.4,0.9,4.4,2.7,5.5,5
		c2.3,4.9,0.2,10.7-4.7,13C19,355.3,17.6,355.6,16.2,355.6z M16.2,339.1c-1,0-1.9,0.2-2.8,0.6c-3.4,1.6-4.8,5.6-3.3,9
		c1.6,3.4,5.6,4.8,9,3.3c3.4-1.6,4.8-5.6,3.3-9c-0.8-1.6-2.1-2.9-3.8-3.5C17.8,339.2,17,339.1,16.2,339.1z"/>
	
		<rect x="8.2" y="331.8" transform="matrix(0.9067 -0.4218 0.4218 0.9067 -139.9147 35.2416)" class="st14" width="3" height="4.1"/>
	<rect x="3" y="350.7" transform="matrix(0.9133 -0.4072 0.4072 0.9133 -143.0225 32.376)" class="st14" width="3.1" height="3"/>
	
		<rect x="1.7" y="339.6" transform="matrix(0.2979 -0.9546 0.9546 0.2979 -323.7774 242.8754)" class="st14" width="3" height="3.8"/>
	
		<rect x="19.1" y="331.7" transform="matrix(0.3555 -0.9347 0.9347 0.3555 -297.9957 234.3012)" class="st14" width="3.5" height="3"/>
	<path class="st14" d="M28.9,363.9c-0.5,0-1,0-1.5-0.1c-3.2-0.4-6.1-2-8.1-4.6l-1.3-1.7l2-0.7c0.2-0.1,0.3-0.1,0.5-0.2
		c2.9-1.1,5.2-3.3,6.4-6.2s1.3-6,0.1-8.9l-0.8-2l2.1-0.1c3.9-0.2,7.7,1.6,10.2,4.7c2,2.6,2.9,5.8,2.5,9s-2,6.1-4.6,8.1
		C34.3,363,31.7,363.9,28.9,363.9z M23,358.8c1.3,1.1,3,1.8,4.7,2c2.4,0.3,4.9-0.4,6.8-1.9c4-3.1,4.7-8.9,1.6-12.9
		c-1.4-1.8-3.4-3-5.7-3.4c0.7,3,0.4,6.2-0.9,9C28.3,354.8,26,357.3,23,358.8z"/>
</g>
<g>
	<path class="st1" d="M56.9,353.1c-3.2,0-6.3-1.8-7.8-5c-1-2.1-1.1-4.4-0.3-6.6s2.4-3.9,4.4-4.8c2.1-1,4.4-1.1,6.6-0.3
		s3.9,2.4,4.8,4.4c1,2.1,1.1,4.4,0.3,6.6s-2.4,3.9-4.4,4.8C59.3,352.8,58.1,353.1,56.9,353.1z M56.9,337.9c-1,0-1.9,0.2-2.8,0.6l0,0
		c-1.6,0.7-2.8,2.1-3.4,3.7c-0.6,1.7-0.5,3.4,0.2,5c1.5,3.3,5.5,4.7,8.8,3.2c1.6-0.7,2.8-2.1,3.4-3.7c0.6-1.7,0.5-3.4-0.2-5
		s-2.1-2.8-3.7-3.4C58.4,338,57.6,337.9,56.9,337.9z"/>
	
		<rect x="49.9" y="331.6" transform="matrix(0.9067 -0.4217 0.4217 0.9067 -135.8906 52.5688)" class="st1" width="2" height="3.8"/>
	<rect x="44.7" y="349.4" transform="matrix(0.9131 -0.4077 0.4077 0.9131 -138.8485 49.26)" class="st1" width="2.9" height="2"/>
	
		<rect x="43.9" y="338.8" transform="matrix(0.2981 -0.9545 0.9545 0.2981 -293.5933 281.9289)" class="st1" width="2" height="3.5"/>
	
		<rect x="59.5" y="331.9" transform="matrix(0.3552 -0.9348 0.9348 0.3552 -271.7627 271.8698)" class="st1" width="3.3" height="2"/>
	<path class="st1" d="M68.6,360.8c-0.5,0-0.9,0-1.4-0.1c-2.9-0.4-5.4-1.8-7.2-4.1l-0.9-1.1l1.3-0.5c0.2-0.1,0.3-0.1,0.5-0.2
		c5.7-2.2,8.5-8.7,6.3-14.4l-0.5-1.3l1.4-0.1c3.5-0.2,6.9,1.4,9.1,4.2c3.7,4.7,2.8,11.6-1.9,15.2C73.4,360,71,360.8,68.6,360.8z
		 M62.5,356.4c1.4,1.3,3.1,2.1,5,2.4c2.3,0.3,4.7-0.3,6.5-1.8c3.9-3,4.6-8.6,1.6-12.4c-1.5-1.9-3.7-3.1-6.1-3.4
		C71.2,347.2,68.3,353.6,62.5,356.4z"/>
</g>
<g>
	<path class="st3" d="M98.5,332.4l-12,12l-5.5-5.5l1.4-1.4l4.1,4.1L97.1,331L98.5,332.4z"/>
</g>
<g>
	<path class="st9" d="M116,332.5c-0.6,0.3-1.2,0.4-1.9,0.5c0.7-0.4,1.2-1.1,1.5-1.8c-0.6,0.4-1.3,0.7-2.1,0.8c-0.6-0.7-1.5-1-2.4-1
		c-1.8,0-3.3,1.4-3.3,3.2c0,0.3,0,0.5,0.1,0.8c-2.6-0.1-5.1-1.4-6.8-3.4c-0.3,0.5-0.4,1.1-0.4,1.6c0,1.1,0.5,2.1,1.5,2.7
		c-0.5,0-1-0.1-1.5-0.4l0,0c0,1.6,1.1,2.9,2.6,3.2c-0.5,0.1-1,0.2-1.5,0.1c0.4,1.3,1.7,2.3,3.1,2.3c-1.2,0.9-2.6,1.4-4.1,1.4
		c-0.3,0-0.5,0-0.8,0c1.5,1,3.2,1.5,5,1.5c5.1,0,9.3-4.1,9.3-9.2v-0.1c0-0.1,0-0.3,0-0.4C115,333.8,115.6,333.2,116,332.5z"/>
</g>
<g>
	<g>
		<g>
			<g>
				<g>
					<defs>
						<rect id="SVGID_3_" x="511" width="17" height="137"/>
					</defs>
					<clipPath id="SVGID_4_">
						<use xlink:href="#SVGID_3_"  style="overflow:visible;"/>
					</clipPath>
					<path class="st15" d="M514.3,170l-3.2-2.6l9.1-11.4c4.4-5.5,4.4-14.8,0-20.3c-5.6-7-5.6-18.4,0-25.5c4.4-5.5,4.4-14.8,0-20.3
						c-5.6-7-5.6-18.4,0-25.5c4.4-5.5,4.4-14.8,0-20.3c-5.6-7-5.6-18.4,0-25.5c4.4-5.5,4.4-14.8,0-20.3l3.2-2.6
						c5.6,7,5.6,18.4,0,25.5c-4.4,5.5-4.4,14.8,0,20.3c5.6,7,5.6,18.4,0,25.5c-4.4,5.5-4.4,14.8,0,20.3c5.6,7,5.6,18.4,0,25.5
						c-4.4,5.5-4.4,14.8,0,20.3c5.6,7,5.6,18.4,0,25.5L514.3,170z"/>
				</g>
			</g>
		</g>
	</g>
</g>
<g>
	<g>
		<g>
			<g>
				<g>
					<defs>
						<rect id="SVGID_5_" x="511" y="137" width="17" height="137"/>
					</defs>
					<clipPath id="SVGID_6_">
						<use xlink:href="#SVGID_5_"  style="overflow:visible;"/>
					</clipPath>
					<path class="st16" d="M514.3,307l-3.2-2.6l9.1-11.4c4.4-5.5,4.4-14.8,0-20.3c-5.6-7-5.6-18.4,0-25.5c4.4-5.5,4.4-14.8,0-20.3
						c-5.6-7-5.6-18.4,0-25.5c4.4-5.5,4.4-14.8,0-20.3c-5.6-7-5.6-18.4,0-25.5c4.4-5.5,4.4-14.8,0-20.3l3.2-2.6
						c5.6,7,5.6,18.4,0,25.5c-4.4,5.5-4.4,14.8,0,20.3c5.6,7,5.6,18.4,0,25.5c-4.4,5.5-4.4,14.8,0,20.3c5.6,7,5.6,18.4,0,25.5
						c-4.4,5.5-4.4,14.8,0,20.3c5.6,7,5.6,18.4,0,25.5L514.3,307z"/>
				</g>
			</g>
		</g>
	</g>
</g>
<g>
	<g>
		<g>
			<g>
				<g>
					<defs>
						<rect id="SVGID_7_" x="511" y="274" width="17" height="137"/>
					</defs>
					<clipPath id="SVGID_8_">
						<use xlink:href="#SVGID_7_"  style="overflow:visible;"/>
					</clipPath>
					<path class="st17" d="M514.3,444l-3.2-2.6l9.1-11.4c4.4-5.5,4.4-14.8,0-20.3c-5.6-7-5.6-18.4,0-25.5c4.4-5.5,4.4-14.8,0-20.3
						c-5.6-7-5.6-18.4,0-25.5c4.4-5.5,4.4-14.8,0-20.3c-5.6-7-5.6-18.4,0-25.5c4.4-5.5,4.4-14.8,0-20.3l3.2-2.6
						c5.6,7,5.6,18.4,0,25.5c-4.4,5.5-4.4,14.8,0,20.3c5.6,7,5.6,18.4,0,25.5c-4.4,5.5-4.4,14.8,0,20.3c5.6,7,5.6,18.4,0,25.5
						c-4.4,5.5-4.4,14.8,0,20.3c5.6,7,5.6,18.4,0,25.5L514.3,444z"/>
				</g>
			</g>
		</g>
	</g>
</g>
<path class="st1" d="M34.9,366.3c-0.5,0.2-1.1,0.4-1.6,0.5c0.6-0.4,1-0.9,1.3-1.6c-0.6,0.3-1.2,0.6-1.8,0.7
	c-0.5-0.6-1.3-0.9-2.1-0.9c-1.6,0-2.8,1.3-2.8,2.9c0,0.2,0,0.4,0.1,0.7c-2.4-0.1-4.5-1.3-5.9-3c-0.2,0.4-0.4,0.9-0.4,1.4
	c0,1,0.5,1.9,1.3,2.4c-0.5,0-0.9-0.1-1.3-0.3l0,0c0,1.4,1,2.5,2.3,2.8c-0.2,0.1-0.5,0.1-0.8,0.1c-0.2,0-0.4,0-0.5-0.1
	c0.4,1.1,1.4,2,2.7,2c-1,0.8-2.2,1.2-3.6,1.2c-0.2,0-0.5,0-0.7,0c1.3,0.8,2.8,1.3,4.4,1.3c5.3,0,8.1-4.4,8.1-8.1c0-0.1,0-0.2,0-0.4
	C34.1,367.4,34.6,366.9,34.9,366.3z"/>
<path class="st1" d="M20,377h-2.7v-4.5c0-0.7-0.8-1.3-1.5-1.3c-0.7,0-1.2,0.6-1.2,1.3v4.5H12v-8h2.7v1.3c0.4-0.7,1.6-1.2,2.3-1.2
	c1.7,0,3,1.4,3,3V377 M10.7,377H8v-8h2.7V377 M9.3,365c0.7,0,1.3,0.6,1.3,1.3c0,0.7-0.6,1.3-1.3,1.3S8,367.1,8,366.3
	C8,365.6,8.6,365,9.3,365z"/>
<path class="st1" d="M7,365L7,365L7,365v2.4H5.8c-0.4,0-0.6,0.5-0.6,0.9v1.5l0,0H7v2.4H5.2v4.8H2.8v-4.8H1v-2.4h1.8v-2.4
	c0-1.3,1.1-2.4,2.4-2.4H7z"/>
<path class="st14" d="M34.9,379.3c-0.5,0.2-1.1,0.4-1.6,0.5c0.6-0.4,1-0.9,1.3-1.6c-0.6,0.3-1.2,0.6-1.8,0.7
	c-0.5-0.6-1.3-0.9-2.1-0.9c-1.6,0-2.8,1.3-2.8,2.9c0,0.2,0,0.4,0.1,0.7c-2.4-0.1-4.5-1.3-5.9-3c-0.2,0.4-0.4,0.9-0.4,1.4
	c0,1,0.5,1.9,1.3,2.4c-0.5,0-0.9-0.1-1.3-0.3l0,0c0,1.4,1,2.5,2.3,2.8c-0.2,0.1-0.5,0.1-0.8,0.1c-0.2,0-0.4,0-0.5-0.1
	c0.4,1.1,1.4,2,2.7,2c-1,0.8-2.2,1.2-3.6,1.2c-0.2,0-0.5,0-0.7,0c1.3,0.8,2.8,1.3,4.4,1.3c5.3,0,8.1-4.4,8.1-8.1c0-0.1,0-0.2,0-0.4
	C34.1,380.4,34.6,379.9,34.9,379.3z"/>
<path class="st14" d="M20,390h-2.7v-4.5c0-0.7-0.8-1.3-1.5-1.3c-0.7,0-1.2,0.6-1.2,1.3v4.5H12v-8h2.7v1.3c0.4-0.7,1.6-1.2,2.3-1.2
	c1.7,0,3,1.4,3,3V390 M10.7,390H8v-8h2.7V390 M9.3,378c0.7,0,1.3,0.6,1.3,1.3c0,0.7-0.6,1.3-1.3,1.3S8,380.1,8,379.3
	C8,378.6,8.6,378,9.3,378z"/>
<path class="st14" d="M7,378L7,378L7,378v2.4H5.8c-0.4,0-0.6,0.5-0.6,0.9v1.5l0,0H7v2.4H5.2v4.8H2.8v-4.8H1v-2.4h1.8v-2.4
	c0-1.3,1.1-2.4,2.4-2.4H7z"/>
<g>
	<g>
		<line class="st18" x1="134.5" y1="350" x2="148.1" y2="346.5"/>
		<line class="st18" x1="134.8" y1="350" x2="121.1" y2="346.5"/>
	</g>
	<path class="st18" d="M134.8,336"/>
	<line class="st18" x1="134.6" y1="348.5" x2="134.6" y2="335.2"/>
	<g>
		<line class="st18" x1="125.6" y1="362" x2="134.7" y2="349.8"/>
		<line class="st18" x1="143.6" y1="362" x2="134.5" y2="349.8"/>
	</g>
	<circle class="st18" cx="134.6" cy="349.9" r="3"/>
	<circle class="st18" cx="134.6" cy="336" r="3"/>
	<circle class="st18" cx="148.1" cy="346.2" r="3"/>
	<circle class="st18" cx="121.5" cy="346.2" r="3"/>
	<circle class="st18" cx="125.1" cy="362.1" r="3"/>
	<circle class="st18" cx="143.5" cy="362.1" r="3"/>
</g>
<g>
	<path class="st19" d="M194.7,343.5c-0.4-0.4-8.7-10.3-19.4-10.3c0,0,0,0,0,0l0,0c0,0,0,0,0,0c-10.6,0-19,9.9-19.4,10.3
		c-0.4,0.5-0.4,1.2,0,1.7c0.4,0.4,8.7,10.3,19.4,10.3c0,0,0,0,0,0l0,0c0,0,0,0,0,0c10.6,0,19-9.9,19.4-10.3
		C195.1,344.6,195.1,343.9,194.7,343.5z"/>
	<circle class="st19" cx="175.3" cy="344.2" r="11.2"/>
	<path class="st19" d="M175.3,337.1c3.9,0,7.1,3.2,7.1,7.1c0,3.9-3.2,7.1-7.1,7.1s-7.1-3.2-7.1-7.1"/>
</g>
<g>
	<g>
		<circle class="st20" cx="210.5" cy="345.3" r="6.7"/>
		<path class="st20" d="M199.7,363.3c0-6,4.8-10.8,10.8-10.8c6,0,10.8,4.8,10.8,10.8"/>
	</g>
	<g>
		<circle class="st20" cx="230.5" cy="339.1" r="6.7"/>
		<path class="st20" d="M219.7,357.1c0-6,4.8-10.8,10.8-10.8c6,0,10.8,4.8,10.8,10.8"/>
	</g>
</g>
<g>
	<path class="st21" d="M276.8,348.1h-12.7c-2.3,0-4.1-1.8-4.1-4.1v-7.1c0-2.3,1.8-4.1,4.1-4.1h12.7c2.3,0,4.1,1.8,4.1,4.1v7.1
		C280.9,346.2,279,348.1,276.8,348.1z"/>
	<path class="st21" d="M261.7,372h-12c-2.2,0-4-1.8-4-4v-7.2c0-2.2,1.8-4,4-4h12c2.2,0,4,1.8,4,4v7.2
		C265.7,370.2,263.9,372,261.7,372z"/>
	<path class="st21" d="M291.3,372h-12c-2.2,0-4-1.8-4-4v-7.2c0-2.2,1.8-4,4-4h12c2.2,0,4,1.8,4,4v7.2
		C295.3,370.2,293.5,372,291.3,372z"/>
	<polyline class="st21" points="254.5,356.7 271,348.1 284.6,356.7 	"/>
</g>
</svg>
