<svg data-name="Layer 1" viewBox="0 0 226.87 601.9" xmlns="http://www.w3.org/2000/svg"><circle cx="138.77" cy="85.253" r="36.8" fill="#2f2e41"/><g fill="#9f616a"><path d="M168.47 576.4l-7-34 17 4 7 30zm-89 0v-30h17v28zm104-348s-2 43-4 46-20 46-20 46l-9-28s14-23 12-36-.74-28.997-.74-28.997z"/><circle cx="126.47" cy="96.4" r="28"/><path d="M149.47 99.4s-1 40 6 46-40 1-40 1 10-28 2-34 32-13 32-13z"/></g><path d="M112.47 144.4s6-11 14-10 34 3 35 5 4 9 6 11 17 5 18 17-36 85-36 85 5 17 4 21 5 16 4 21 15 35 7 74v63s27 109 19 117-35 3-40 0-26-154-26-154l-10-51-1 112s2 94-5 97-34 4-36-2c-1.56-4.68-9.202-129.19-12.491-183.77a203.9 203.9 0 0 1 4.403-56.175c4.162-18.878 10.204-41.057 17.088-50.058 13-17 21-71 21-71l-17-31s10-10 16-10 18-4 18-4z" fill="#2f2e41"/><path d="M179.47 160.4l5.274 3.59s3.726 64.41.726 68.41-23.857 2.048-25.429-1.476S179.47 160.4 179.47 160.4z" fill="#2f2e41"/><path d="M90.298 218.96c2.927 20.307 5.492 38.383-9.475 54.737a280.86 280.86 0 0 1-50.534 43.772c-1.836 4.863-28.785 40.572-30.156 26.328-1.37-14.244 7.94-25.411 21.172-37.456 13.231-12.045 31.742-38.18 42.187-52.521s6.145-23.283 5.782-35.261 16.918.546 21.024.4z" fill="#9f616a"/><g fill="#2f2e41"><path d="M79.475 558.2s-1 11.201-4 14.201-11 7-10 18 7.5 11.5 7.5 11.5l-.5-2.5 3 1 .5 1.5h28s.5-10.5-.5-15.5-1-29-4-28-11 2-13 6-8 2.598-7-6.2zm101.995 0s1 11.201 4 14.201 11 7 10 18-7.5 11.5-7.5 11.5l.5-2.5-3 1-.5 1.5h-28s-.5-10.5.5-15.5 1-29 4-28 11 2 13 6 8 2.598 7-6.2zM92.475 155.4l-14 3s0 22-4 31-11 30-8 31 31 15 33 7 7-72-7-72z"/><circle cx="178.64" cy="36.8" r="36.8"/><path d="M210.38 67.272a36.802 36.802 0 0 1-56.829-19.323 36.802 36.802 0 1 0 71.787-15.091 36.788 36.788 0 0 1-14.958 34.414z"/><circle cx="148.59" cy="91.386" r="26.987"/><ellipse cx="125.89" cy="81.266" rx="23.92" ry="18.707"/></g><ellipse cx="119.51" cy="100.43" rx="4.54" ry="8.032" fill="#a0616a"/></svg>