<svg data-name="Layer 1" viewBox="0 0 846 605" xmlns="http://www.w3.org/2000/svg"><path fill="#f1f1f1" d="M0 22h822v470H0z"/><path fill="none" stroke="#3f3d56" stroke-miterlimit="10" stroke-width="2" d="M23 1h822v470H23zM23 26.087h822"/><circle cx="42" cy="14" r="7"/><circle cx="63" cy="14" r="7" fill="#666"/><circle cx="84" cy="14" r="7" fill="#ccc"/><path d="M526.07 326.32a130.62 130.62 0 0 0-92.365-222.99v130.62zM433.7 103.33a130.64 130.64 0 0 0-62.488 245.36L433.7 233.96z" fill="none" stroke="#000" stroke-width=".5"/><path d="M153 345.13h25.013v25.013H153z"/><path fill="#666" d="M189.13 345.13h25.013v25.013H189.13z"/><path fill="#ccc" d="M225.26 345.13h25.013v25.013H225.26z"/><g fill="#3f3d56"><path d="M585.17 350.68H688v4.169H585.17zM585.17 363.19H688v4.169H585.17zM585.17 375.7H688v4.169H585.17z"/></g><path fill="#ffb9b9" d="M630.35 561.22l1.65 13.77 9.37 4.41 10.46-3.3 7.16 3.3 2.21-12.67-12.67-14.32z"/><path d="M636.96 571.69s-8.54-9.957-8.677-4.978-18.866 22.055-18.866 22.055-29.196 8.814-6.61 14.323 72.163-10.467 73.815-13.772-13.772-28.645-15.424-26.442-9.915 9.915-24.238 8.814z" fill="#2f2e41"/><path d="M616.03 408.08s-3.305 25.891 0 29.747 1.653 11.568 0 12.67 2.204 5.509 4.958 7.712 6.61 12.12 6.61 12.12 14.873 39.111 14.873 42.967 6.61 12.12 6.06 14.873 3.856 11.568 3.305 13.221 7.161 16.526 4.958 18.73-32.501 9.916-30.85 4.958 2.755-11.017 1.653-11.017-6.06-6.06-4.957-8.263-33.052-60.045-33.052-60.045z" fill="#2f2e41"/><path d="M636.96 571.69s-8.54-9.957-8.677-4.978-18.866 22.055-18.866 22.055-29.196 8.814-6.61 14.323 72.163-10.467 73.815-13.772-13.772-28.645-15.424-26.442-9.915 9.915-24.238 8.814z" opacity=".1"/><path d="M616.03 408.08s-3.305 25.891 0 29.747 1.653 11.568 0 12.67 2.204 5.509 4.958 7.712 6.61 12.12 6.61 12.12 14.873 39.111 14.873 42.967 6.61 12.12 6.06 14.873 3.856 11.568 3.305 13.221 7.161 16.526 4.958 18.73-32.501 9.916-30.85 4.958 2.755-11.017 1.653-11.017-6.06-6.06-4.957-8.263-33.052-60.045-33.052-60.045z" opacity=".1"/><path fill="#ffb9b9" d="M559.84 554.38l-6.06 15.43 2.75 21.48 17.63-1.1 9.92-8.81v-18.73z"/><path d="M563.14 573.11s-6.06-19.831-9.365-14.323a87.161 87.161 0 0 0-5.508 11.017s-26.993 17.628-34.154 17.628-13.772 8.814-4.407 12.119 80.978 7.712 82.079 0-1.102-32.501-4.407-29.747-20.382 8.814-24.238 3.305z" fill="#2f2e41"/><path d="M562.59 325.77s-3.856 28.645-2.204 34.705-1.101 96.953 1.102 101.91 3.856 36.908 3.856 40.764-4.407 35.256-5.508 38.01-4.407 12.119-2.755 16.526 24.238 15.424 27.543 11.568.551-15.975 3.306-16.526 6.06-26.442 6.06-26.442l18.178-101.36s34.154-84.834 26.442-93.097-76.02-6.06-76.02-6.06z" fill="#2f2e41"/><circle cx="582.97" cy="103.22" r="26.993" fill="#ffb9b9"/><path d="M572.15 114.15s8.814 23.136 7.712 28.094 25.891-8.814 25.891-8.814-1.652-26.993 0-34.154c1.653-7.161-33.603 14.873-33.603 14.873z" fill="#ffb9b9"/><path d="M647.07 275.98c-.121 4.622-.198 7.376-.198 7.376s1.652 25.34-1.102 33.603-2.754 14.323-4.407 19.831c-.485 1.603-7.079 2.463-16.339 2.843-8.494.347-19.23.297-29.538.06-17.066-.396-32.975-1.31-35.652-1.801-6.06-1.102 1.102-10.466-1.102-15.424s3.856-68.308 3.856-68.308-.55-35.806 2.204-49.578 13.221-35.806 15.424-38.561.55-4.407-4.407-7.712 0-15.975 0-15.975c9.365-7.713 33.052-8.814 33.052-8.814s36.357 37.459 38.561 45.17c1.333 4.661.854 41.889.27 70.633a5660.046 5660.046 0 0 1-.623 26.657z" fill="none" stroke="#000"/><path d="M600.6 344.5s-20.933 42.968-4.407 45.722 24.789-39.112 24.789-39.112z" fill="#ffb9b9"/><path d="M557.74 89.54c-.955-4.63 2.584-8.957 6.31-11.865a46.112 46.112 0 0 1 28.369-9.674c7.224.039 14.68 1.95 20.14 6.68 6.369 5.518 9.274 14.365 8.739 22.775s-4.192 16.385-9.125 23.216c-2.368 3.28-6.17 6.673-9.954 5.244a9.251 9.251 0 0 1-3.681-3.11 57.103 57.103 0 0 1-6.311-9.699c-1.354-2.631-2.527-5.404-4.446-7.657s-4.803-3.946-7.735-3.542c-2.421.334-4.797 2.039-7.106 1.238-2.57-.891-3.19-4.177-3.395-6.888-.224-2.973-.065-6.416-.89-9.226-.903.482-10.471 4.727-10.915 2.508z" fill="#2f2e41"/><path d="M647.07 275.98c-6.17 22.25-20.321 59.747-21.131 61.361-.204.413-.523 1.223-.914 2.292-8.495.347-19.231.297-29.538.06 1.597-4.175 3.46-8.208 3.46-9.513 0-2.755 13.22-73.816 13.22-73.816s-10.466-31.4-19.83-57.841 27.818-21.208 27.818-21.208c19.831-4.958 23.412 3.58 23.412 3.58s1.746 46.438 4.126 68.43c.612 5.635 1.262 9.662 1.934 10.895.881 1.614-.309 7.685-2.556 15.76z" opacity=".1"/><path d="M556.07 367.32l-97.365-91.365-57.488 118.73a130.04 130.04 0 0 0 62.488 15.891c36.071 0 68.727-19.621 92.365-43.259z" fill="#575a89"/><path d="M548.07 374.32l-92.365-92.365-62.488 114.73a130.69 130.69 0 0 0 154.85-22.367z" fill="#575a89"/><path fill="none" stroke="#3f3d56" stroke-miterlimit="10" stroke-width="2" d="M397 604h396"/><g fill="#3f3d56"><path stroke="#3f3d56" stroke-miterlimit="10" stroke-width="2" d="M738.08 604.96V488.87"/><circle cx="738.08" cy="488.87" r="16.417"/><path d="M738.08 560.42s-2.345-50.443-50.424-44.58"/></g></svg>