<svg data-name="Layer 1" viewBox="0 0 1026.1 670" xmlns="http://www.w3.org/2000/svg"><path d="M272.33 92h2v166.89h-2zm67 0h2v166.89h-2zm676.85 242.55c24.034 138.02 9.384 273.76-101.11 320.04-110.49 46.283-244.37-21.968-299.02-152.44s53.236-199.72 101.11-320.04c97.214-244.34 224.38-276.17 299.02 152.44z" fill="#f2f2f2"/><circle cx="924.56" cy="560.97" r="6.535" fill="#ff6584"/><g fill="#3f3d56"><path d="M956.58 669.44v-74.412m-.999.001h2v74.411h-2z"/><circle cx="956.58" cy="595.03" r="10.523"/><path d="M956.58 640.89s-1.503-32.332-32.32-28.574"/></g><path d="M187.8 91h302v2h-302zm0 93h302v2h-302zm0 74h302v2h-302z" fill="#f2f2f2"/><path d="M208.3 348.5h269v2h-269z" fill="#3f3d56"/><path d="M192.8 366a17 17 0 1 1 17-17 17.019 17.019 0 0 1-17 17zm0-32a15 15 0 1 0 15 15 15.017 15.017 0 0 0-15-15zm79.559-75h2v90h-2zm67-74h2v164h-2zm68-93h2v257h-2z" fill="#3f3d56"/><g fill="#222"><circle cx="273.33" cy="349" r="14.588"/><circle cx="340.8" cy="349" r="14.588"/><circle cx="408.27" cy="349" r="14.588"/><circle cx="408.8" cy="92" r="14"/><circle cx="408.43" cy="184.89" r="14"/><circle cx="340.8" cy="185" r="14"/><circle cx="340.43" cy="258.89" r="14"/><circle cx="273.8" cy="259" r="14"/></g><g fill="#f2f2f2"><circle cx="163.8" cy="92" r="13"/><circle cx="163.8" cy="184" r="13"/><circle cx="163.8" cy="259" r="13"/></g><path d="M163.8 0h70v6.545h-70zm0 14.727h70v6.545h-70zm0 14.728h70V36h-70z" fill="#3f3d56"/><path d="M966.8 669h-540" fill="none" stroke="#3f3d56" stroke-miterlimit="10" stroke-width="2"/><path d="M447.8 478h70v6.545h-70zm0 14.727h70v6.545h-70zm0 14.728h70V514h-70z" fill="#3f3d56"/><path d="M557.33 669.47a96.869 96.869 0 0 1-83.41-47.982l-.505-.867 83.164-47.947v-96.137l1.002.003a96.466 96.466 0 0 1-.251 192.93zm-81.17-48.123a94.47 94.47 0 1 0 82.419-142.8v95.284l-.5.288z" fill="#2f2e41"/><circle cx="557.33" cy="573" r="36.297" fill="#222"/><circle cx="557.33" cy="573" r="18.104" fill="#2f2e41"/><path d="M477.43 79.89h24v24h-24zm0 92h24v24h-24zm0 75h24v24h-24z" fill="#222"/><path d="M502.43 361.89h-26v-26h26zm-24-2h22v-22h-22z" fill="#3f3d56"/><g transform="matrix(-3.7795 0 0 3.7795 889.41 -630.05)" stroke-width=".265"><g fill="#2f2e41"><circle cx="13.91" cy="299.74" r="20.902"/><path d="M4.385 316.14h6.35v11.377h-6.35zm12.7 0h6.35v11.377h-6.35z"/><ellipse cx="9.677" cy="327.65" rx="5.292" ry="1.984"/><ellipse cx="22.377" cy="327.39" rx="5.292" ry="1.984"/></g><circle cx="14.439" cy="294.45" r="7.144" fill="#fff"/><circle cx="14.439" cy="291.27" r="2.381" fill="#3f3d56"/><path d="M-6.366 280.3c-1.688-7.558 3.708-15.196 12.05-17.059 8.343-1.863 16.474 2.754 18.162 10.313 1.688 7.559-3.84 10.346-12.184 12.209-8.343 1.863-16.34 2.095-18.028-5.463z" fill="#222"/><g fill="#2f2e41"><ellipse transform="rotate(-65.077)" cx="-238.33" cy="143.52" rx="10.451" ry="3.281"/><ellipse transform="rotate(-27.893)" cx="-140.01" cy="246.05" rx="3.281" ry="10.451"/><circle cx="19.97" cy="237.88" r="20.902"/><path d="M7.676 252.32l6.248 1.131-2.027 11.195-6.248-1.131zm12.497 2.262l6.248 1.132-2.027 11.195-6.248-1.132z"/><ellipse transform="rotate(-49.739)" cx="-189.87" cy="190.1" rx="1.984" ry="5.292"/><ellipse transform="rotate(-49.739)" cx="-196.09" cy="179.33" rx="1.984" ry="5.292"/></g><circle cx="21.434" cy="232.76" r="7.144" fill="#fff"/><circle cx="25.727" cy="232.72" r="2.381" fill="#3f3d56"/><path d="M3.482 215.14c-.315-7.738 6.355-14.293 14.896-14.64 8.54-.347 15.72 5.645 16.035 13.383.314 7.738-5.623 9.496-14.164 9.843-8.542.347-16.452-.848-16.767-8.586z" fill="#222"/><ellipse transform="rotate(-12.91)" cx="-14.018" cy="236.93" rx="10.451" ry="3.281" fill="#2f2e41"/><ellipse transform="rotate(-12.91)" cx="-55.535" cy="234.41" rx="10.451" ry="3.281" fill="#2f2e41"/><path d="M14.229 246.11a4.763 4.763 0 0 0 9.373 1.697c.468-2.588-1.533-3.504-4.121-3.973-2.588-.468-4.783-.312-5.252 2.276z" fill="#fff"/></g><g transform="translate(.003 -456.7) scale(3.7795)" stroke-width=".265"><g fill="#2f2e41"><ellipse transform="rotate(-21.078)" cx="-85.855" cy="236.23" rx="3.281" ry="10.451"/><circle cx="24.211" cy="267.03" r="20.902"/><path d="M33.813 294.79l-6.35.018-.032-11.377 6.35-.018zm-12.699.036l-6.35.018-.032-11.377 6.35-.017z"/><ellipse transform="rotate(-.16)" cx="27.768" cy="295.09" rx="5.292" ry="1.984"/><ellipse transform="rotate(-.16)" cx="15.068" cy="294.83" rx="5.292" ry="1.984"/></g><circle cx="23.667" cy="261.74" r="7.144" fill="#fff"/><circle cx="23.667" cy="261.74" r="2.381" fill="#3f3d56"/><path d="M44.432 247.54c1.667-7.563-3.75-15.186-12.098-17.025-8.348-1.84-16.467 2.8-18.133 10.364-1.667 7.563 3.87 10.335 12.218 12.175s16.346 2.05 18.013-5.513z" fill="#222"/><ellipse transform="rotate(-25.535)" cx="-67.834" cy="252.71" rx="10.451" ry="3.281" fill="#2f2e41"/><path d="M34.499 274.54c.006 2.046-5.25 6.1-11.096 6.117-5.845.016-11.341-5.728-11.347-7.774-.006-2.046 5.482.382 11.327.365 5.845-.016 11.11-.754 11.116 1.292z" fill="#fff"/></g></svg>