<svg data-name="Layer 1" viewBox="0 0 1027.5 696.06" xmlns="http://www.w3.org/2000/svg"><circle cx="696.25" cy="355.7" r="76.752" fill="#222" opacity=".4"/><path d="M270 461.9h428v116H270z" fill="none" stroke="#000"/><path d="M670.59 174.51l-17.09 8.088 15.125-11.31a85.352 85.352 0 0 0-8.258-10.867l-74.117 18.422 66.948-25.538a85.339 85.339 0 0 0-9.722-7.41l-112.94 18.19a84.64 84.64 0 0 0-18.537 52.821h170a84.594 84.594 0 0 0-11.413-42.395zM684.126 50.2A495.97 495.97 0 0 0 466.006.005c-153.83 0-291.36 69.753-382.71 179.35 156.43-34.275 428.78-93.606 600.83-129.15z" fill="#f2f2f2"/><path d="M0 693.902h1020v2H0z" fill="#2f2e41"/><path d="M595.86 216.9l-57.864-85.95s87.631 30.592 77.686 85.95z" fill="#3f3d56"/><path d="M598.14 216.9l57.864-85.95s-87.631 30.592-77.686 85.95z" fill="#222"/><path d="M698.5 695.9h-429v-640h429zm-427-2h425v-636h-425z" fill="#2f2e41"/><path d="M271 71.083h427v2H271z" fill="#2f2e41"/><g fill="#222"><circle cx="282" cy="63.902" r="4"/><circle cx="293" cy="63.902" r="4"/><circle cx="304" cy="63.902" r="4"/><path d="M286 84.902h18v10h-18zm0 79h88v10h-88z"/></g><path d="M687 94.901h-88v-10h88zm-401 86.001h148v6H286zm0 13h140v6H286zm0 13h102v6H286zm34 178h58v6h-58zm0 13h54.865v6H320zm0 13h39.973v6H320zm135-26h58v6h-58zm0 13h54.865v6H455zm0 13h39.973v6H455zm140-26h58v6h-58zm0 13h54.865v6H595zm0 13h39.973v6H595z" fill="#f2f2f2"/><path d="M410 611.9h88v10h-88z" fill="#222"/><path d="M410 628.9h148v6H410zm0 13h140v6H410zm0 13h102v6H410z" fill="#f2f2f2"/><path d="M312.5 271.9h348v2h-348zm-.5 35h74v66h-74z" fill="#222" opacity=".3"/><path d="M447 306.9h74v66h-74zm140 0h74v66h-74z" fill="#3f3d56"/><g fill="#222"><path d="M474.359 372.625l-.977-.02c.021-1.08.632-26.56 10.663-33.604l.56.8c-9.626 6.758-10.242 32.564-10.246 32.824z"/><circle cx="489.21" cy="333.8" r="4.881"/><path d="M488.22 351.034a15.198 15.198 0 0 1-7.842.338 13.85 13.85 0 0 1 14.24-4.884 15.198 15.198 0 0 1-6.399 4.546zm126.139 21.591l-.977-.02c.021-1.08.632-26.56 10.663-33.604l.56.8c-9.626 6.758-10.242 32.564-10.246 32.824z"/><circle cx="629.21" cy="333.8" r="4.881"/><path d="M628.22 351.034a15.198 15.198 0 0 1-7.842.338 13.85 13.85 0 0 1 14.24-4.884 15.198 15.198 0 0 1-6.399 4.546zM286 498.902h88v10h-88z"/></g><path d="M286 515.9h148v6H286zm0 13h140v6H286zm0 13h102v6H286z" fill="#f2f2f2"/><circle cx="611.75" cy="512.7" r="31.248" fill="#222" opacity=".4"/><circle cx="553.92" cy="527.63" r="21.92" fill="#222" opacity=".4"/><g fill="#93d9bd"><circle cx="167.5" cy="582.4" r="79"/><path d="M131.5 644.4h24v43h-24zm48 0h24v43h-24z"/><ellipse cx="151.5" cy="687.9" rx="20" ry="7.5"/><ellipse cx="199.5" cy="686.9" rx="20" ry="7.5"/></g><circle cx="169.5" cy="562.4" r="27" fill="#fff"/><circle cx="169.5" cy="550.4" r="9" fill="#3f3d56"/><path d="M90.867 508.93c-6.379-28.567 14.012-57.434 45.544-64.475s62.265 10.41 68.644 38.978-14.518 39.104-46.05 46.145-61.759 7.92-68.138-20.648z" fill="#222"/><g fill="#93d9bd"><ellipse transform="rotate(-65.077 190.49 613.57)" cx="313.53" cy="596.96" rx="39.5" ry="12.4"/><ellipse transform="rotate(-27.893 -79.903 743.63)" cx="168.53" cy="620.96" rx="12.4" ry="39.5"/><ellipse transform="rotate(-21.078 589.08 806.44)" cx="906.26" cy="625.62" rx="12.4" ry="39.5"/><circle cx="893.19" cy="583.1" r="79"/><path d="M929.48 688l-24 .067-.12-43 24-.067zm-47.997.138l-24 .068-.12-43 24-.067z"/><ellipse transform="rotate(-.16 -35451 31532)" cx="995.74" cy="790.53" rx="20" ry="7.5"/><ellipse transform="rotate(-.16 -35499 31531)" cx="947.73" cy="789.66" rx="20" ry="7.5"/></g><circle cx="891.13" cy="563.11" r="27" fill="#fff"/><circle cx="891.13" cy="563.11" r="9" fill="#3f3d56"/><path d="M969.62 509.42c6.299-28.586-14.173-57.395-45.724-64.347s-62.236 10.584-68.535 39.17 14.628 39.062 46.18 46.015 61.78 7.747 68.08-20.838z" fill="#222"/><ellipse transform="rotate(-25.535 800.19 787.5)" cx="1068.3" cy="648.17" rx="39.5" ry="12.4" fill="#93d9bd"/><path d="M932.07 611.5c.021 7.732-19.844 23.056-41.936 23.118s-42.865-21.648-42.887-29.38 20.718 1.442 42.809 1.38 41.992-2.85 42.014 4.882z" fill="#fff"/><circle cx="917.25" cy="468.7" r="110.25" fill="#222" opacity=".4"/><g fill="#93d9bd"><circle cx="190.4" cy="348.59" r="79"/><path d="M143.94 403.19l23.616 4.275-7.66 42.312-23.616-4.275zm47.232 8.551l23.616 4.275-7.66 42.312-23.616-4.275z"/><ellipse transform="rotate(-49.739 132.57 605.53)" cx="285.69" cy="563.48" rx="7.5" ry="20"/><ellipse transform="rotate(-49.739 86.321 597.16)" cx="239.44" cy="555.1" rx="7.5" ry="20"/></g><circle cx="195.94" cy="329.27" r="27" fill="#fff"/><circle cx="207.03" cy="319.59" r="9" fill="#3f3d56"/><path d="M128.08 262.65c-1.188-29.247 24.019-54.02 56.3-55.331s59.415 21.335 60.603 50.582-21.252 35.892-53.534 37.203-62.181-3.207-63.37-32.454z" fill="#222"/><ellipse transform="rotate(-12.91 -144.16 766.35)" cx="349.6" cy="436.17" rx="39.5" ry="12.4" fill="#93d9bd"/><ellipse transform="rotate(-12.91 -299.23 792.14)" cx="194.53" cy="461.96" rx="39.5" ry="12.4" fill="#93d9bd"/><path d="M168.71 379.72a18 18 0 0 0 35.425 6.413c1.77-9.782-5.793-13.244-15.575-15.015s-18.079-1.18-19.85 8.602z" fill="#fff"/><path d="M305.54 263.17l70.883 21.25-18.953 63.22-70.883-21.25z" fill="#3f3d56"/><g fill="#222"><path d="M312.868 333.977l-.93-.298c.33-1.03 8.232-25.261 19.863-29.127l.308.926c-11.162 3.71-19.162 28.252-19.241 28.5z"/><circle cx="338.24" cy="301.05" r="4.881"/><path d="M332.34 317.28a15.198 15.198 0 0 1-7.609-1.927 13.85 13.85 0 0 1 15.043-.59 15.198 15.198 0 0 1-7.434 2.517z"/></g></svg>