<svg width="280mm" height="70mm" viewBox="0 0 280 70" xmlns="http://www.w3.org/2000/svg"><g fill="none" stroke-linecap="round" stroke-linejoin="round" stroke-miterlimit="10" stroke-width=".693"><path d="M77.589 57.03h15.384m-27.125 0h6.202m24.074-9.8h140.34m3.546 0h9.282" stroke="#3a4144"/><path d="M9.232 20.61h29.87M106.3 69.65h9.496" stroke="#fff"/><path d="M259.74 47.23h9.283M82.697 6.16a8.683 8.683 0 0 0-1.978-.226c-3.914 0-7.205 2.592-8.158 6.107a5.604 5.604 0 0 0-2.02-.378c-3.032 0-5.491 2.39-5.491 5.34 0 2.948 2.459 5.339 5.491 5.339h4.497M87.886 9.8a8.391 8.391 0 0 0-3.379-3.003m9.334 7.573a4.654 4.654 0 0 0-2.85-.965c-.657 0-1.28.136-1.843.377a7.992 7.992 0 0 0-.531-2.538M80.689 22.34H90.99c2.537 0 4.593-2 4.593-4.467M76.588 22.34h2.552M15.653 52.55h102.07m-24.75 4.48c0-1.005.838-1.82 1.872-1.82 1.034 0 1.872.815 1.872 1.82 0 1.006-.838 1.82-1.872 1.82-1.034 0-1.872-.814-1.872-1.82z" stroke="#3a4144"/><path d="M230.06 65.92c0-1.006.838-1.82 1.872-1.82 1.034 0 1.872.814 1.872 1.82 0 1.005-.838 1.82-1.872 1.82-1.034 0-1.872-.815-1.872-1.82zm-229.714 0c0-1.006.839-1.82 1.873-1.82s1.872.814 1.872 1.82c0 1.005-.838 1.82-1.872 1.82-1.034 0-1.873-.815-1.873-1.82z" stroke="#fff"/></g><path d="M112.52 43.28l-4.535-.782 5.744-31.493 4.535.782-5.744 31.493" fill="#fab44e"/><path d="M112.52 43.28l-4.535-.782 5.744-31.493 4.535.782zm.91-30.6l2.042.352m-2.362 1.398l1.02.176m-1.34 1.584l1.02.176m-1.35 1.584l1.021.176m-1.341 1.584l2.042.353m-2.362 1.407l1.021.176M111.5 23.23l1.02.176m-1.34 1.584l1.021.176m-1.341 1.584l2.042.352m-2.362 1.408l1.021.176m-1.341 1.584l1.02.176m-1.34 1.584l1.02.176m-1.34 1.584l2.042.352m-2.372 1.408l1.021.176m-1.341 1.584l1.021.176m-1.341 1.584l1.021.176m-1.341 1.584l2.042.352" fill="none" stroke="#3a4144" stroke-linecap="round" stroke-linejoin="round" stroke-miterlimit="10" stroke-width=".693"/><path d="M111.56 42.78l-2.458-.84 6.93-19.174 2.457.84-6.929 19.174" fill="#93d9bd"/><path d="M111.56 42.78l-2.458-.84 6.93-19.174 2.457.84z" fill="none" stroke="#3a4144" stroke-linecap="round" stroke-linejoin="round" stroke-miterlimit="10" stroke-width=".693"/><path d="M116.03 22.76l2.16-2.158.298 2.998z" fill="#fab44e"/><path d="M116.03 22.76l2.16-2.158.298 2.998z" fill="none" stroke="#3a4144" stroke-linecap="round" stroke-linejoin="round" stroke-miterlimit="10" stroke-width=".693"/><path d="M117.34 21.46l.971.332-.117-1.185z" fill="#3a4144"/><path d="M117.34 21.46l.971.332-.117-1.185zm-7.01 20.9l6.93-19.174" fill="none" stroke="#3a4144" stroke-linecap="round" stroke-linejoin="round" stroke-miterlimit="10" stroke-width=".693"/><path d="M111.17 43.86l-2.458-.84.39-1.08 2.458.84-.39 1.08" fill="#c4cbc9"/><path d="M111.17 43.86l-2.458-.84.39-1.08 2.458.84z" fill="none" stroke="#3a4144" stroke-linecap="round" stroke-linejoin="round" stroke-miterlimit="10" stroke-width=".693"/><path d="M110.43 45.9l-2.458-.84.738-2.04 2.458.84-.738 2.04" fill="#f0f0ef"/><path d="M110.43 45.9l-2.458-.84.738-2.04 2.458.84z" fill="none" stroke="#3a4144" stroke-linecap="round" stroke-linejoin="round" stroke-miterlimit="10" stroke-width=".693"/><path d="M105.91 22.75l2.594-.234 1.932 20.236-2.594.234-1.932-20.237" fill="#ee43aa"/><path d="M105.91 22.75l2.594-.234 1.932 20.236-2.594.234z" fill="none" stroke="#3a4144" stroke-linecap="round" stroke-linejoin="round" stroke-miterlimit="10" stroke-width=".693"/><path d="M110.44 42.75l-1.038 2.838-1.556-2.604z" fill="#fab44e"/><path d="M110.44 42.75l-1.038 2.838-1.556-2.604z" fill="none" stroke="#3a4144" stroke-linecap="round" stroke-linejoin="round" stroke-miterlimit="10" stroke-width=".693"/><path d="M109.81 44.47l-1.025.092.615 1.03z" fill="#3a4144"/><path d="M109.81 44.47l-1.025.092.615 1.03zm-2.6-21.84l1.931 20.236" fill="none" stroke="#3a4144" stroke-linecap="round" stroke-linejoin="round" stroke-miterlimit="10" stroke-width=".693"/><path d="M105.8 21.61l2.594-.234.109 1.14-2.595.233-.108-1.139" fill="#c4cbc9"/><path d="M105.8 21.61l2.594-.234.109 1.14-2.595.233z" fill="none" stroke="#3a4144" stroke-linecap="round" stroke-linejoin="round" stroke-miterlimit="10" stroke-width=".693"/><path d="M105.6 19.45l2.595-.234.205 2.154-2.594.234-.206-2.154" fill="#f0f0ef"/><path d="M105.6 19.45l2.595-.234.205 2.154-2.594.234z" fill="none" stroke="#3a4144" stroke-linecap="round" stroke-linejoin="round" stroke-miterlimit="10" stroke-width=".693"/><path d="M116.79 34.09h-11.299v11.25c0 1.047.872 1.895 1.949 1.895h7.402c1.076 0 1.948-.848 1.948-1.895V34.09" fill="#c4cbc9"/><path d="M116.79 34.09h-11.299v11.25c0 1.047.872 1.895 1.949 1.895h7.402c1.076 0 1.948-.848 1.948-1.895z" fill="none" stroke="#3a4144" stroke-linecap="round" stroke-linejoin="round" stroke-miterlimit="10" stroke-width=".693"/><path d="M117.46 31.53h-12.646v2.562h12.646V31.53" fill="#d7dcdb"/><path d="M117.46 31.53h-12.646v2.562h12.646zm-10.49 2.62v5.104m8.24.556v1.38m0 1.17v1.38m124.83-19.19a3.928 3.928 0 0 0 3.54 2.176h30.122c3.29 0 5.956-2.593 5.956-5.792 0-3.198-2.667-5.791-5.956-5.791-.775 0-1.513.148-2.192.41-1.033-3.813-4.602-6.625-8.848-6.625-4.923 0-8.936 3.78-9.142 8.517a5.08 5.08 0 0 0-1.999-.408c-2.308 0-4.245 1.528-4.81 3.6a3.943 3.943 0 0 0-3.132-1.528m-1.839.441c-1.236.64-2.077 1.906-2.077 3.363" fill="none" stroke="#3a4144" stroke-linecap="round" stroke-linejoin="round" stroke-miterlimit="10" stroke-width=".693"/><path d="M202.949 3.57v45.02c0 .567-.47 1.025-1.048 1.025h-55.323a1.036 1.036 0 0 1-1.047-1.025V3.568c0-1.238 1.026-2.243 2.292-2.243h52.834c1.264 0 2.291 1.005 2.291 2.245z" fill="#fff"/><path d="M202.949 31.07v17.52c0 .566-.47 1.025-1.048 1.025h-16.246a13.808 13.808 0 0 1-.875-4.853c0-7.809 6.49-14.163 14.47-14.163 1.277 0 2.517.164 3.699.47zm0-27.5v8.02H145.53V3.57c0-1.24 1.027-2.245 2.292-2.245h52.834c1.265 0 2.291 1.005 2.291 2.244z" fill="#e4eaf8"/><path d="M202.949 9.796H145.53v-6.16c0-1.276 1.057-2.31 2.36-2.31h52.698c1.303 0 2.36 1.034 2.36 2.31z" fill="#fab44e"/><path d="M169.66 38.002h-12.95c-.921 0-1.668-.73-1.668-1.632v-3.484c0-.902.747-1.633 1.668-1.633h12.952c.92 0 1.667.731 1.667 1.633v3.484c0 .901-.746 1.632-1.667 1.632z" fill="#93d9bd"/><path d="M193.066 32.839v3.578c0 .876-.725 1.586-1.62 1.586h-11.295c-.895 0-1.62-.71-1.62-1.586V32.84c0-.876.726-1.586 1.62-1.586h11.295c.607 0 1.135.326 1.412.808.134.23.208.495.208.778z" fill="#fab44e"/><path d="M193.066 32.839v3.578c0 .876-.725 1.586-1.62 1.586h-4.909a14.424 14.424 0 0 1 6.321-5.942c.134.23.208.495.208.778z" fill="#f9b428"/><path d="M211.886 44.763c0 6.832-5.658 12.37-12.637 12.37-6.978 0-12.636-5.538-12.636-12.37 0-6.83 5.658-12.368 12.636-12.368 6.98 0 12.637 5.537 12.637 12.368z" fill="#93d9bd"/><path d="M204.393 42.044h-2.364v-2.315a.936.936 0 0 0-.946-.925h-3.666a.936.936 0 0 0-.946.925v2.314h-2.364a.936.936 0 0 0-.946.926v3.588c0 .512.424.926.946.926h2.364v2.315c0 .511.424.925.946.925h3.666a.936.936 0 0 0 .946-.925v-2.315h2.364a.936.936 0 0 0 .946-.926v-3.588a.936.936 0 0 0-.946-.925z" fill="#fff"/><path d="M169.66 26.434h-12.95c-.921 0-1.668-.73-1.668-1.632v-3.484c0-.902.747-1.633 1.668-1.633h12.952c.92 0 1.667.731 1.667 1.633v3.484c0 .902-.746 1.632-1.667 1.632zm21.737 0h-11.199c-.92 0-1.668-.73-1.668-1.632v-3.484c0-.902.747-1.633 1.668-1.633h11.2c.92 0 1.667.731 1.667 1.633v3.484c0 .902-.747 1.632-1.668 1.632z" fill="#93d9bd"/><path d="M184.14 4.737h-30.908a.99.99 0 0 0-1.001.98.99.99 0 0 0 1.001.98h30.908a.99.99 0 0 0 1.001-.98.99.99 0 0 0-1.001-.98z" fill="#fff"/><path d="M188.33 4.507a.99.99 0 0 0-1 .98v.147a.99.99 0 0 0 1 .98.99.99 0 0 0 1.002-.98v-.147a.99.99 0 0 0-1.001-.98zm3.459 0a.99.99 0 0 0-1.002.98v.147a.99.99 0 0 0 1.002.98.99.99 0 0 0 1-.98v-.147a.99.99 0 0 0-1-.98zm3.459 0a.99.99 0 0 0-1.002.98v.147a.99.99 0 0 0 1.002.98.99.99 0 0 0 1.001-.98v-.147a.99.99 0 0 0-1.001-.98z" fill="#ff8031"/><path d="M503.49 299.55a7.502 7.502 0 0 0-9.875-3.871 7.505 7.505 0 0 0-3.871 9.879c4.816 11.012 7.254 22.734 7.254 34.844 0 48.055-39.094 87.148-87.148 87.148-48.051 0-87.145-39.094-87.145-87.148 0-48.051 39.094-87.145 87.145-87.145 24.305 0 47.688 10.266 64.156 28.168a7.498 7.498 0 0 0 10.598.445 7.502 7.502 0 0 0 .441-10.598c-11.094-12.062-24.87-21.16-39.988-26.723V25.68c0-13.883-11.293-25.176-25.176-25.176H25.171C11.288.503-.005 11.796-.005 25.68v343.78c0 8.59 6.989 15.582 15.578 15.582h182.11a7.5 7.5 0 0 0 7.5-7.504 7.5 7.5 0 0 0-7.5-7.5H15.573a.58.58 0 0 1-.578-.578V25.68c0-5.61 4.563-10.176 10.176-10.176h394.71c5.61 0 10.176 4.563 10.176 10.176v214.61a101.696 101.696 0 0 0-20.207-2.039 101.64 101.64 0 0 0-39.137 7.8c-6.934 2.907-14.68 7.567-14.68 7.567a103.008 103.008 0 0 0-29.355 27.543l-8.89 15c-6.461 13.391-10.087 28.398-10.087 44.238 0 10.301 1.54 20.25 4.391 29.633h-83.789a7.502 7.502 0 0 0 0 15.004h89.68c16.598 34.016 51.54 57.512 91.867 57.512 56.324 0 102.15-45.824 102.15-102.15 0-14.188-2.863-27.934-8.508-40.852z" fill="none" stroke="#3a4144" stroke-width="5.232" transform="matrix(.13351 0 0 .13068 144.53 .28)"/><path d="M166.869 41.757v.147a.99.99 0 0 0 1.001.98.99.99 0 0 0 1.002-.98v-.147a.99.99 0 0 0-1.002-.98.99.99 0 0 0-1.001.98zm4.459-.981a.99.99 0 0 0-1.001.98v.148a.99.99 0 0 0 1.001.98.99.99 0 0 0 1.001-.98v-.147a.991.991 0 0 0-1-.98zm8.204-24.625v-.147a.991.991 0 0 0-1.001-.98.99.99 0 0 0-1.001.98v.147a.99.99 0 0 0 1.001.98.991.991 0 0 0 1.001-.98zm3.458 0v-.147a.99.99 0 0 0-1.001-.98.991.991 0 0 0-1.001.98v.147a.99.99 0 0 0 1 .98.99.99 0 0 0 1.002-.98z" fill="#abb0b7"/></svg>