<?xml version="1.0" encoding="UTF-8" standalone="no"?>
<svg
   xmlns:dc="http://purl.org/dc/elements/1.1/"
   xmlns:cc="http://creativecommons.org/ns#"
   xmlns:rdf="http://www.w3.org/1999/02/22-rdf-syntax-ns#"
   xmlns:svg="http://www.w3.org/2000/svg"
   xmlns="http://www.w3.org/2000/svg"
   xmlns:sodipodi="http://sodipodi.sourceforge.net/DTD/sodipodi-0.dtd"
   xmlns:inkscape="http://www.inkscape.org/namespaces/inkscape"
   height="512pt"
   viewBox="0 -18 512 511"
   width="512pt"
   version="1.1"
   id="svg40"
   sodipodi:docname="040-diagram-1.svg"
   inkscape:version="0.92.3 (2405546, 2018-03-11)">
  <metadata
     id="metadata46">
    <rdf:RDF>
      <cc:Work
         rdf:about="">
        <dc:format>image/svg+xml</dc:format>
        <dc:type
           rdf:resource="http://purl.org/dc/dcmitype/StillImage" />
      </cc:Work>
    </rdf:RDF>
  </metadata>
  <defs
     id="defs44" />
  <sodipodi:namedview
     pagecolor="#ffffff"
     bordercolor="#666666"
     borderopacity="1"
     objecttolerance="10"
     gridtolerance="10"
     guidetolerance="10"
     inkscape:pageopacity="0"
     inkscape:pageshadow="2"
     inkscape:window-width="1920"
     inkscape:window-height="1016"
     id="namedview42"
     showgrid="false"
     inkscape:zoom="0.48889805"
     inkscape:cx="-250.51347"
     inkscape:cy="-208.47495"
     inkscape:window-x="0"
     inkscape:window-y="27"
     inkscape:window-maximized="1"
     inkscape:current-layer="svg40" />
  <g
     id="g38"
     style="fill:#474d54">
    <path
       d="m 27.910156,185.07812 c 6.652344,14.50782 15.828125,27.54688 27.332032,38.80469 1.460937,1.42969 3.355468,2.14063 5.246093,2.14063 1.945313,0 3.890625,-0.75391 5.359375,-2.25391 2.898438,-2.96094 2.847656,-7.71094 -0.113281,-10.60547 -10.472656,-10.25 -18.773437,-22.16015 -24.699219,-35.4375 3.792969,-4.18359 6.105469,-9.73047 6.105469,-15.80859 0,-3.77735 -0.898437,-7.34766 -2.484375,-10.51563 l 45.828125,-45.82812 c 3.167969,1.58594 6.738281,2.48437 10.515625,2.48437 3.54297,0 6.90625,-0.79296 9.92578,-2.19921 l 50.39844,50.39843 c 0.14062,0.14063 0.28906,0.26953 0.4375,0.39453 -1.41797,3.02735 -2.21485,6.39844 -2.21485,9.95313 0,13 10.57422,23.57031 23.57032,23.57031 12.99609,0 23.57031,-10.57031 23.57031,-23.57031 0,-3.03906 -0.58203,-5.94141 -1.63672,-8.61328 l 53.53516,-53.53125 c 1.98047,8.45312 3.03125,17.26172 3.03125,26.3125 0,63.5625 -51.71094,115.27343 -115.27344,115.27343 -20.20703,0 -40.08594,-5.30468 -57.492188,-15.33984 -3.585937,-2.06641 -8.175781,-0.83984 -10.242187,2.75391 -2.070313,3.58593 -0.835937,8.17187 2.75,10.24218 19.679685,11.34766 42.152345,17.34375 64.984375,17.34375 71.83203,0 130.27344,-58.4414 130.27344,-130.27343 0,-13.40625 -2.03907,-26.34766 -5.81641,-38.527346 l 10.34766,-10.347656 c 2.66797,1.054687 5.57031,1.636718 8.60937,1.636718 4.06641,0 7.89844,-1.035156 11.23828,-2.855468 l 38.85547,38.855472 c -1.82031,3.33984 -2.85547,7.16797 -2.85547,11.23828 0,12.99609 10.57032,23.57031 23.57032,23.57031 12.99609,0 23.57031,-10.57422 23.57031,-23.57031 0,-13 -10.57422,-23.57031 -23.57031,-23.57031 -3.46875,0 -6.75782,0.75781 -9.72657,2.10546 L 311.22266,69.691406 c 1.34765,-2.96875 2.10547,-6.257812 2.10547,-9.726562 0,-12.996094 -10.57032,-23.570313 -23.57032,-23.570313 -12.99609,0 -23.57031,10.574219 -23.57031,23.570313 0,4.480468 1.25781,8.671875 3.4375,12.242187 l -4.68359,4.683594 C 244.40625,31.867188 198.97266,0.5 146.34375,0.5 74.511719,0.5 16.070312,58.941406 16.070312,130.77344 c 0,2.89843 0.109376,5.80859 0.300782,8.70312 C 6.882812,142.52734 0,151.42969 0,161.91406 c 0,13 10.574219,23.57031 23.570312,23.57031 1.484376,0.004 2.933594,-0.14062 4.339844,-0.40625 z M 360.5625,122.20313 c 4.72656,0 8.57031,3.84375 8.57031,8.57031 0,4.72265 -3.84375,8.57031 -8.57031,8.57031 -4.72266,0 -8.57031,-3.84766 -8.57031,-8.57031 0,-4.72656 3.84765,-8.57031 8.57031,-8.57031 z M 289.75781,51.394531 c 4.72656,0 8.57031,3.847657 8.57031,8.570313 0,4.726562 -3.84375,8.570312 -8.57031,8.570312 -4.72656,0 -8.57031,-3.84375 -8.57031,-8.570312 0,-4.722656 3.84375,-8.570313 8.57031,-8.570313 z M 92.429688,84.488281 c 0,-4.726562 3.84375,-8.570312 8.570312,-8.570312 4.72266,0 8.56641,3.84375 8.56641,8.570312 0,4.726563 -3.84375,8.570313 -8.56641,8.570313 -4.726562,0 -8.570312,-3.84375 -8.570312,-8.570313 z m 90.687502,90.687499 c -4.72657,0 -8.57032,-3.84375 -8.57032,-8.57031 0,-4.72266 3.84375,-8.57031 8.57032,-8.57031 4.72656,0 8.57031,3.84765 8.57031,8.57031 0,4.72656 -3.84375,8.57031 -8.57031,8.57031 z M 146.34375,15.5 c 48.57812,0 90.23047,30.203125 107.17187,72.816406 l -58.15625,58.156254 c -3.57031,-2.17969 -7.76171,-3.4375 -12.24218,-3.4375 -3.99219,0 -7.75391,1 -11.05469,2.76171 -0.043,-0.0469 -0.082,-0.0977 -0.12891,-0.14453 L 121.8125,95.53125 c 1.75781,-3.296875 2.75781,-7.054688 2.75781,-11.042969 0,-12.996093 -10.57422,-23.570312 -23.57031,-23.570312 -12.996094,0 -23.570312,10.574219 -23.570312,23.570312 0,3.757813 0.890624,7.3125 2.460937,10.464844 L 34.039062,140.80469 C 33.191406,140.38281 32.3125,140.01172 31.410156,139.69141 31.1875,136.73047 31.070312,133.74219 31.070312,130.77344 31.070312,67.210938 82.78125,15.5 146.34375,15.5 Z M 15,161.91406 c 0,-4.72265 3.84375,-8.5664 8.570312,-8.5664 4.726563,0 8.570313,3.84375 8.570313,8.5664 0,4.72656 -3.84375,8.57031 -8.570313,8.57031 C 18.84375,170.48437 15,166.64062 15,161.91406 Z m 0,0"
       id="path26"
       inkscape:connector-curvature="0" />
    <path
       d="m 504.5,475.48828 c 4.14453,0 7.5,-3.35547 7.5,-7.5 0,-4.14453 -3.35547,-7.5 -7.5,-7.5 h -3.29688 V 296.30469 c 0,-4.14453 -3.35546,-7.5 -7.5,-7.5 -4.14062,0 -7.5,3.35547 -7.5,7.5 V 460.48828 H 457.24609 V 138.27344 h 28.95703 V 265.6875 c 0,4.14062 3.35938,7.5 7.5,7.5 4.14454,0 7.5,-3.35938 7.5,-7.5 V 130.77344 c 0,-4.14453 -3.35546,-7.5 -7.5,-7.5 h -43.95703 c -4.14453,0 -7.5,3.35547 -7.5,7.5 V 460.48828 H 427.14844 V 196.82031 c 0,-4.14062 -3.35547,-7.5 -7.5,-7.5 h -43.95703 c -4.14063,0 -7.5,3.35938 -7.5,7.5 V 460.48828 H 353.09766 V 253.21875 c 0,-4.14453 -3.35938,-7.5 -7.5,-7.5 h -43.96094 c -4.14453,0 -7.5,3.35547 -7.5,7.5 V 460.48828 H 279.03906 V 307.74609 c 0,-4.14453 -3.35547,-7.5 -7.5,-7.5 h -43.95703 c -4.14453,0 -7.5,3.35547 -7.5,7.5 V 460.48828 H 204.98437 V 344.32812 c 0,-4.14453 -3.35546,-7.5 -7.5,-7.5 h -43.95703 c -4.14453,0 -7.5,3.35547 -7.5,7.5 v 43.35547 c 0,4.14453 3.35547,7.5 7.5,7.5 4.14453,0 7.5,-3.35547 7.5,-7.5 v -35.85547 h 28.95703 v 108.66016 h -28.95703 v -42.1875 c 0,-4.14062 -3.35547,-7.5 -7.5,-7.5 -4.14453,0 -7.5,3.35938 -7.5,7.5 v 42.1875 H 130.92969 V 344.32812 c 0,-4.14453 -3.35547,-7.5 -7.5,-7.5 H 79.476562 c -4.144531,0 -7.5,3.35547 -7.5,7.5 v 116.16016 h -57.46875 c -4.140624,0 -7.5,3.35547 -7.5,7.5 0,4.14063 3.359376,7.5 7.5,7.5 z M 383.19141,204.32031 h 28.95703 v 256.16797 h -28.95703 z m -74.05469,56.39844 h 28.96094 v 199.76953 h -28.96094 z m -74.05469,54.52734 h 28.96094 V 460.48828 H 235.08203 Z M 86.976562,351.82812 H 115.93359 V 460.48828 H 86.976562 Z m 0,0"
       id="path28"
       inkscape:connector-curvature="0" />
    <path
       d="m 493.70312,29.414062 c 4.14454,0 7.5,-3.355468 7.5,-7.5 v -1.648437 c 0,-4.140625 -3.35546,-7.5 -7.5,-7.5 -4.14062,0 -7.5,3.359375 -7.5,7.5 v 1.648437 c 0,4.144532 3.35938,7.5 7.5,7.5 z m 0,0"
       id="path30"
       inkscape:connector-curvature="0" />
    <path
       d="m 468.16797,29.414062 c 4.14453,0 7.5,-3.355468 7.5,-7.5 v -1.648437 c 0,-4.140625 -3.35547,-7.5 -7.5,-7.5 -4.14063,0 -7.5,3.359375 -7.5,7.5 v 1.648437 c 0,4.144532 3.35937,7.5 7.5,7.5 z m 0,0"
       id="path32"
       inkscape:connector-curvature="0" />
    <path
       d="m 468.16797,59.332031 h 25.35547 c 4.14062,0 7.5,-3.355469 7.5,-7.5 0,-4.140625 -3.35938,-7.5 -7.5,-7.5 h -25.35547 c -4.14063,0 -7.5,3.359375 -7.5,7.5 0,4.144531 3.35937,7.5 7.5,7.5 z m 0,0"
       id="path34"
       inkscape:connector-curvature="0" />
    <path
       d="m 425.91406,83.535156 h 67.60547 c 4.14453,0 7.5,-3.355468 7.5,-7.5 0,-4.140625 -3.35547,-7.5 -7.5,-7.5 h -67.60547 c -4.14062,0 -7.5,3.359375 -7.5,7.5 0,4.144532 3.35938,7.5 7.5,7.5 z m 0,0"
       id="path36"
       inkscape:connector-curvature="0" />
  </g>
</svg>
