<?xml version="1.0" encoding="UTF-8" standalone="no"?>
<svg
   xmlns:dc="http://purl.org/dc/elements/1.1/"
   xmlns:cc="http://creativecommons.org/ns#"
   xmlns:rdf="http://www.w3.org/1999/02/22-rdf-syntax-ns#"
   xmlns:svg="http://www.w3.org/2000/svg"
   xmlns="http://www.w3.org/2000/svg"
   xmlns:sodipodi="http://sodipodi.sourceforge.net/DTD/sodipodi-0.dtd"
   xmlns:inkscape="http://www.inkscape.org/namespaces/inkscape"
   height="512pt"
   viewBox="0 -65 512 512"
   width="512pt"
   version="1.1"
   id="svg88"
   sodipodi:docname="043-redesign.svg"
   inkscape:version="0.92.3 (2405546, 2018-03-11)">
  <metadata
     id="metadata94">
    <rdf:RDF>
      <cc:Work
         rdf:about="">
        <dc:format>image/svg+xml</dc:format>
        <dc:type
           rdf:resource="http://purl.org/dc/dcmitype/StillImage" />
      </cc:Work>
    </rdf:RDF>
  </metadata>
  <defs
     id="defs92" />
  <sodipodi:namedview
     pagecolor="#ffffff"
     bordercolor="#666666"
     borderopacity="1"
     objecttolerance="10"
     gridtolerance="10"
     guidetolerance="10"
     inkscape:pageopacity="0"
     inkscape:pageshadow="2"
     inkscape:window-width="1920"
     inkscape:window-height="1016"
     id="namedview90"
     showgrid="false"
     inkscape:zoom="1.3828125"
     inkscape:cx="59.28874"
     inkscape:cy="325.58145"
     inkscape:window-x="0"
     inkscape:window-y="27"
     inkscape:window-maximized="1"
     inkscape:current-layer="svg88" />
  <path
     d="m504.5 27.679688v28.269531h-215.980469v-28.269531c0-11.148438 9.03125-20.179688 20.179688-20.179688h175.621093c11.140626 0 20.179688 9.03125 20.179688 20.179688zm0 0"
     fill="#ffc850"
     id="path6"
     style="fill:#808080" />
  <path
     d="m504.5 325.933594v28.910156c0 11.144531-9.039062 20.175781-20.175781 20.175781h-175.625c-11.148438 0-20.179688-9.03125-20.179688-20.175781v-28.910156zm0 0"
     fill="#ffc850"
     id="path8"
     style="fill:#999999" />
  <path
     d="m223.480469 27.679688v28.269531h-215.980469v-28.269531c0-11.148438 9.03125-20.179688 20.175781-20.179688h175.625c11.140625 0 20.179688 9.03125 20.179688 20.179688zm0 0"
     fill="#abffdb"
     id="path12"
     style="fill:#cccccc" />
  <path
     d="m223.480469 325.933594v28.910156c0 11.144531-9.039063 20.175781-20.179688 20.175781h-175.625c-11.144531 0-20.175781-9.03125-20.175781-20.175781v-28.910156zm0 0"
     fill="#abffdb"
     id="path14"
     style="fill:#cccccc" />
  <path
     d="m33.515625 116.023438h163.949219v49.1875h-163.949219zm0 0"
     fill="#ffc850"
     id="path16"
     style="fill:#666666" />
  <path
     d="m319.316406 126.613281h61.308594v61.308594h-61.308594zm0 0"
     fill="#fff"
     id="path18" />
  <path
     d="m412.394531 126.613281h61.308594v61.308594h-61.308594zm0 0"
     fill="#ff9052"
     id="path20"
     style="fill:#cccccc" />
  <path
     d="m484.320312 0h-175.621093c-15.261719 0-27.679688 12.414062-27.679688 27.679688v251.269531c0 4.144531 3.359375 7.5 7.5 7.5 4.144531 0 7.5-3.355469 7.5-7.5v-251.269531c0-6.992188 5.6875-12.679688 12.679688-12.679688h175.621093c6.992188 0 12.679688 5.6875 12.679688 12.679688v327.164062c0 6.988281-5.6875 12.675781-12.679688 12.675781h-175.621093c-6.992188 0-12.679688-5.6875-12.679688-12.675781v-45.273438c0-4.144531-3.355469-7.5-7.5-7.5-4.140625 0-7.5 3.355469-7.5 7.5v45.273438c0 15.261719 12.417969 27.675781 27.679688 27.675781h175.621093c15.265626 0 27.679688-12.414062 27.679688-27.675781v-327.164062c0-15.265626-12.414062-27.679688-27.679688-27.679688zm0 0"
     fill="#474d54"
     id="path22" />
  <path
     d="m348.34375 39.226562h56.148438c4.144531 0 7.5-3.359374 7.5-7.5 0-4.144531-3.355469-7.5-7.5-7.5h-56.148438c-4.144531 0-7.5 3.355469-7.5 7.5 0 4.140626 3.355469 7.5 7.5 7.5zm0 0"
     fill="#fff"
     id="path24" />
  <path
     d="m448.777344 39.785156c4.144531 0 7.5-3.355468 7.5-7.5v-1.121094c0-4.144531-3.355469-7.5-7.5-7.5-4.140625 0-7.5 3.355469-7.5 7.5v1.121094c0 4.144532 3.359375 7.5 7.5 7.5zm0 0"
     fill="#fff"
     id="path26" />
  <path
     d="m429.253906 39.785156c4.140625 0 7.5-3.355468 7.5-7.5v-1.121094c0-4.144531-3.359375-7.5-7.5-7.5-4.144531 0-7.5 3.355469-7.5 7.5v1.121094c0 4.144532 3.355469 7.5 7.5 7.5zm0 0"
     fill="#fff"
     id="path28" />
  <path
     d="m412.394531 342.976562h-31.769531c-4.140625 0-7.5 3.359376-7.5 7.5 0 4.144532 3.359375 7.5 7.5 7.5h31.769531c4.144531 0 7.5-3.355468 7.5-7.5 0-4.140624-3.355469-7.5-7.5-7.5zm0 0"
     fill="#fff"
     id="path30" />
  <path
     d="m203.300781 0h-175.625c-15.261719 0-27.675781 12.414062-27.675781 27.679688v159.269531c0 4.144531 3.359375 7.5 7.5 7.5s7.5-3.355469 7.5-7.5v-159.269531c0-6.992188 5.6875-12.679688 12.675781-12.679688h175.625c6.992188 0 12.679688 5.6875 12.679688 12.679688v327.164062c0 6.988281-5.6875 12.675781-12.679688 12.675781h-175.625c-6.988281 0-12.675781-5.6875-12.675781-12.675781v-137.273438c0-4.144531-3.359375-7.5-7.5-7.5s-7.5 3.355469-7.5 7.5v137.273438c0 15.261719 12.414062 27.675781 27.675781 27.675781h175.625c15.261719 0 27.679688-12.414062 27.679688-27.675781v-327.164062c0-15.265626-12.417969-27.679688-27.679688-27.679688zm0 0"
     fill="#474d54"
     id="path32" />
  <path
     d="m123.472656 24.226562h-56.152344c-4.140624 0-7.5 3.355469-7.5 7.5 0 4.140626 3.359376 7.5 7.5 7.5h56.148438c4.144531 0 7.5-3.359374 7.5-7.5 0-4.144531-3.355469-7.5-7.496094-7.5zm0 0"
     fill="#fff"
     id="path34" />
  <path
     d="m167.757812 23.664062c-4.144531 0-7.5 3.355469-7.5 7.5v1.121094c0 4.144532 3.355469 7.5 7.5 7.5 4.140626 0 7.5-3.355468 7.5-7.5v-1.121094c0-4.144531-3.359374-7.5-7.5-7.5zm0 0"
     fill="#fff"
     id="path36" />
  <path
     d="m148.230469 23.664062c-4.140625 0-7.5 3.355469-7.5 7.5v1.121094c0 4.144532 3.359375 7.5 7.5 7.5 4.144531 0 7.5-3.355468 7.5-7.5v-1.121094c0-4.144531-3.355469-7.5-7.5-7.5zm0 0"
     fill="#fff"
     id="path38" />
  <path
     d="m131.375 342.976562h-31.769531c-4.140625 0-7.5 3.359376-7.5 7.5 0 4.144532 3.359375 7.5 7.5 7.5h31.769531c4.140625 0 7.5-3.355468 7.5-7.5 0-4.140624-3.359375-7.5-7.5-7.5zm0 0"
     fill="#fff"
     id="path40" />
  <g
     fill="#abb0b7"
     id="g66">
    <path
       d="m95.394531 183.761719h-59.488281c-4.140625 0-7.5 3.355469-7.5 7.5 0 4.140625 3.359375 7.5 7.5 7.5h59.488281c4.140625 0 7.5-3.359375 7.5-7.5 0-4.144531-3.355469-7.5-7.5-7.5zm0 0"
       id="path42" />
    <path
       d="m95.394531 209.808594h-59.488281c-4.140625 0-7.5 3.359375-7.5 7.5 0 4.144531 3.359375 7.5 7.5 7.5h59.488281c4.140625 0 7.5-3.355469 7.5-7.5 0-4.140625-3.355469-7.5-7.5-7.5zm0 0"
       id="path44" />
    <path
       d="m95.394531 235.859375h-59.488281c-4.140625 0-7.5 3.359375-7.5 7.5 0 4.144531 3.359375 7.5 7.5 7.5h59.488281c4.140625 0 7.5-3.355469 7.5-7.5 0-4.140625-3.355469-7.5-7.5-7.5zm0 0"
       id="path46" />
    <path
       d="m95.394531 261.910156h-59.488281c-4.140625 0-7.5 3.355469-7.5 7.5 0 4.144532 3.359375 7.5 7.5 7.5h59.488281c4.140625 0 7.5-3.355468 7.5-7.5 0-4.144531-3.355469-7.5-7.5-7.5zm0 0"
       id="path48" />
    <path
       d="m95.394531 287.960938h-59.488281c-4.140625 0-7.5 3.355468-7.5 7.5 0 4.140624 3.359375 7.5 7.5 7.5h59.488281c4.140625 0 7.5-3.359376 7.5-7.5 0-4.144532-3.355469-7.5-7.5-7.5zm0 0"
       id="path50" />
    <path
       d="m95.394531 95.519531c4.144531 0 7.5-3.359375 7.5-7.5 0-4.144531-3.355469-7.5-7.5-7.5h-59.488281c-4.140625 0-7.5 3.355469-7.5 7.5 0 4.140625 3.359375 7.5 7.5 7.5zm0 0"
       id="path52" />
    <path
       d="m197.503906 183.761719h-74.03125c-4.144531 0-7.5 3.355469-7.5 7.5 0 4.140625 3.355469 7.5 7.5 7.5h74.03125c4.140625 0 7.5-3.359375 7.5-7.5 0-4.144531-3.359375-7.5-7.5-7.5zm0 0"
       id="path54" />
    <path
       d="m197.503906 209.808594h-74.03125c-4.144531 0-7.5 3.359375-7.5 7.5 0 4.144531 3.355469 7.5 7.5 7.5h74.03125c4.140625 0 7.5-3.355469 7.5-7.5 0-4.140625-3.359375-7.5-7.5-7.5zm0 0"
       id="path56" />
    <path
       d="m197.503906 235.859375h-74.03125c-4.144531 0-7.5 3.359375-7.5 7.5 0 4.144531 3.355469 7.5 7.5 7.5h74.03125c4.140625 0 7.5-3.355469 7.5-7.5 0-4.140625-3.359375-7.5-7.5-7.5zm0 0"
       id="path58" />
    <path
       d="m197.503906 261.910156h-74.03125c-4.144531 0-7.5 3.355469-7.5 7.5 0 4.144532 3.355469 7.5 7.5 7.5h74.03125c4.140625 0 7.5-3.355468 7.5-7.5 0-4.144531-3.359375-7.5-7.5-7.5zm0 0"
       id="path60" />
    <path
       d="m197.503906 287.960938h-74.03125c-4.144531 0-7.5 3.355468-7.5 7.5 0 4.140624 3.355469 7.5 7.5 7.5h74.03125c4.140625 0 7.5-3.359376 7.5-7.5 0-4.144532-3.359375-7.5-7.5-7.5zm0 0"
       id="path62" />
    <path
       d="m429.253906 70.289062h-114.976562c-4.140625 0-7.5 3.355469-7.5 7.5 0 4.144532 3.359375 7.5 7.5 7.5h114.976562c4.140625 0 7.5-3.355468 7.5-7.5 0-4.144531-3.359375-7.5-7.5-7.5zm0 0"
       id="path64" />
  </g>
  <path
     d="m319.316406 217.796875h61.308594c4.144531 0 7.5-3.359375 7.5-7.5 0-4.144531-3.355469-7.5-7.5-7.5h-61.308594c-4.140625 0-7.5 3.355469-7.5 7.5 0 4.140625 3.359375 7.5 7.5 7.5zm0 0"
     fill="#48c397"
     id="path68"
     style="fill:#b3b3b3" />
  <path
     d="m319.316406 241.746094h61.308594c4.144531 0 7.5-3.355469 7.5-7.5 0-4.144532-3.355469-7.5-7.5-7.5h-61.308594c-4.140625 0-7.5 3.355468-7.5 7.5 0 4.144531 3.359375 7.5 7.5 7.5zm0 0"
     fill="#48c397"
     id="path70"
     style="fill:#b3b3b3" />
  <path
     d="m319.316406 265.699219h61.308594c4.144531 0 7.5-3.359375 7.5-7.5 0-4.144531-3.355469-7.5-7.5-7.5h-61.308594c-4.140625 0-7.5 3.355469-7.5 7.5 0 4.140625 3.359375 7.5 7.5 7.5zm0 0"
     fill="#48c397"
     id="path72"
     style="fill:#b3b3b3" />
  <path
     d="m362.726562 292.121094v1.144531c0 4.144531 3.355469 7.5 7.5 7.5 4.140626 0 7.5-3.355469 7.5-7.5v-1.144531c0-4.140625-3.359374-7.5-7.5-7.5-4.144531 0-7.5 3.359375-7.5 7.5zm0 0"
     fill="#48c397"
     id="path74"
     style="fill:#808080" />
  <path
     d="m404.011719 293.265625v-1.144531c0-4.140625-3.359375-7.5-7.5-7.5-4.144531 0-7.5 3.359375-7.5 7.5v1.144531c0 4.144531 3.355469 7.5 7.5 7.5 4.140625 0 7.5-3.359375 7.5-7.5zm0 0"
     fill="#48c397"
     id="path76"
     style="fill:#808080" />
  <path
     d="m415.296875 292.121094v1.144531c0 4.144531 3.355469 7.5 7.5 7.5 4.140625 0 7.5-3.355469 7.5-7.5v-1.144531c0-4.140625-3.359375-7.5-7.5-7.5-4.144531 0-7.5 3.359375-7.5 7.5zm0 0"
     fill="#48c397"
     id="path78"
     style="fill:#4d4d4d" />
  <path
     d="m412.394531 217.796875h61.308594c4.144531 0 7.5-3.359375 7.5-7.5 0-4.144531-3.355469-7.5-7.5-7.5h-61.308594c-4.140625 0-7.5 3.355469-7.5 7.5 0 4.140625 3.359375 7.5 7.5 7.5zm0 0"
     fill="#48c397"
     id="path80"
     style="fill:#b3b3b3" />
  <path
     d="m412.394531 241.746094h61.308594c4.144531 0 7.5-3.355469 7.5-7.5 0-4.144532-3.355469-7.5-7.5-7.5h-61.308594c-4.140625 0-7.5 3.355468-7.5 7.5 0 4.144531 3.359375 7.5 7.5 7.5zm0 0"
     fill="#48c397"
     id="path82"
     style="fill:#b3b3b3" />
  <path
     d="m412.394531 265.699219h61.308594c4.144531 0 7.5-3.359375 7.5-7.5 0-4.144531-3.355469-7.5-7.5-7.5h-61.308594c-4.140625 0-7.5 3.355469-7.5 7.5 0 4.140625 3.359375 7.5 7.5 7.5zm0 0"
     fill="#48c397"
     id="path84"
     style="fill:#b3b3b3" />
  <path
     d="m252.316406 167.980469c-2.929687-2.929688-7.679687-2.929688-10.605468 0-2.929688 2.929687-2.929688 7.675781 0 10.605469l12.671874 12.675781-12.671874 12.671875c-2.929688 2.929687-2.929688 7.675781 0 10.605468 1.460937 1.464844 3.382812 2.195313 5.300781 2.195313s3.839843-.730469 5.304687-2.195313l17.976563-17.976562c2.929687-2.929688 2.929687-7.675781 0-10.605469zm0 0"
     fill="#474d54"
     id="path86" />
</svg>
