<?xml version="1.0" encoding="UTF-8" standalone="no"?>
<svg
   xmlns:dc="http://purl.org/dc/elements/1.1/"
   xmlns:cc="http://creativecommons.org/ns#"
   xmlns:rdf="http://www.w3.org/1999/02/22-rdf-syntax-ns#"
   xmlns:svg="http://www.w3.org/2000/svg"
   xmlns="http://www.w3.org/2000/svg"
   xmlns:sodipodi="http://sodipodi.sourceforge.net/DTD/sodipodi-0.dtd"
   xmlns:inkscape="http://www.inkscape.org/namespaces/inkscape"
   height="512pt"
   viewBox="0 -25 512 512"
   width="512pt"
   version="1.1"
   id="svg48"
   sodipodi:docname="044-website-1.svg"
   inkscape:version="0.92.3 (2405546, 2018-03-11)">
  <metadata
     id="metadata54">
    <rdf:RDF>
      <cc:Work
         rdf:about="">
        <dc:format>image/svg+xml</dc:format>
        <dc:type
           rdf:resource="http://purl.org/dc/dcmitype/StillImage" />
      </cc:Work>
    </rdf:RDF>
  </metadata>
  <defs
     id="defs52" />
  <sodipodi:namedview
     pagecolor="#ffffff"
     bordercolor="#666666"
     borderopacity="1"
     objecttolerance="10"
     gridtolerance="10"
     guidetolerance="10"
     inkscape:pageopacity="0"
     inkscape:pageshadow="2"
     inkscape:window-width="1920"
     inkscape:window-height="1016"
     id="namedview50"
     showgrid="false"
     inkscape:zoom="0.48889805"
     inkscape:cx="-393.66951"
     inkscape:cy="-182.59834"
     inkscape:window-x="0"
     inkscape:window-y="27"
     inkscape:window-maximized="1"
     inkscape:current-layer="svg48" />
  <path
     d="m7.5 286.726562h496.992188v26.625h-496.992188zm0 0"
     fill="#e4eaf8"
     id="path8"
     style="fill:#4d4d4d" />
  <path
     d="m267.171875 341.058594c0 6.167968-5 11.171875-11.171875 11.171875s-11.171875-5.003907-11.171875-11.171875c0-6.171875 5-11.175782 11.171875-11.175782s11.171875 5.003907 11.171875 11.175782zm0 0"
     fill="#fff"
     id="path12" />
  <path
     d="m68.253906 56.035156h281.621094v35.921875h-281.621094zm0 0"
     fill="#ffc850"
     id="path14"
     style="fill:#4d4d4d" />
  <path
     d="m150.902344 231.246094h281.621094v26.207031h-281.621094zm0 0"
     fill="#ffc850"
     id="path16"
     style="fill:#4d4d4d" />
  <path
     d="m467.679688 0h-138.035157c-4.144531 0-7.5 3.355469-7.5 7.5s3.355469 7.5 7.5 7.5h138.035157c16.167968 0 29.320312 13.152344 29.320312 29.320312v314.871094c0 4.847656-3.945312 8.792969-8.792969 8.792969h-53.230469c-4.144531 0-7.5 3.359375-7.5 7.5 0 4.144531 3.355469 7.5 7.5 7.5h53.230469c13.121094 0 23.792969-10.671875 23.792969-23.792969v-314.871094c0-24.4375-19.882812-44.320312-44.320312-44.320312zm0 0"
     fill="#474d54"
     id="path18" />
  <path
     d="m404.355469 367.984375h-380.5625c-4.847657 0-8.792969-3.945313-8.792969-8.792969v-314.871094c0-16.167968 13.152344-29.320312 29.320312-29.320312h254.703126c4.144531 0 7.5-3.355469 7.5-7.5s-3.355469-7.5-7.5-7.5h-254.703126c-24.4375 0-44.320312 19.882812-44.320312 44.320312v314.871094c0 13.121094 10.671875 23.792969 23.792969 23.792969h164.511719c-4.925782 16.726563-14.75 37.113281-34.351563 51.988281-5.324219 4.039063-7.386719 10.742188-5.253906 17.078125 2.136719 6.34375 7.835937 10.441407 14.527343 10.441407h185.546876c6.691406 0 12.390624-4.101563 14.527343-10.441407 2.132813-6.335937.066407-13.039062-5.253906-17.078125-19.625-14.890625-29.441406-35.320312-34.351563-51.988281h80.660157c4.144531 0 7.5-3.355469 7.5-7.5 0-4.140625-3.355469-7.5-7.5-7.5zm-55.375 78.9375c.09375.074219.128906.117187.128906.117187.03125.109376-.058594.371094-.144531.433594 0 0-.054688.019532-.191406.019532h-185.546876c-.132812 0-.1875-.019532-.1875-.019532-.089843-.0625-.183593-.324218-.152343-.421875 0 0 .027343-.050781.132812-.128906 24.476563-18.574219 35.703125-44.191406 40.851563-63.9375h104.257812c5.128906 19.660156 16.34375 45.339844 40.851563 63.9375zm0 0"
     fill="#474d54"
     id="path20" />
  <g
     fill="#abb0b7"
     id="g46">
    <path
       d="m379.464844 48.535156c-4.144532 0-7.5 3.355469-7.5 7.5v35.921875c0 4.140625 3.355468 7.5 7.5 7.5 4.144531 0 7.5-3.359375 7.5-7.5v-35.921875c0-4.144531-3.359375-7.5-7.5-7.5zm0 0"
       id="path22" />
    <path
       d="m413.492188 91.957031v-35.921875c0-4.144531-3.355469-7.5-7.5-7.5-4.140626 0-7.5 3.355469-7.5 7.5v35.921875c0 4.140625 3.359374 7.5 7.5 7.5 4.144531 0 7.5-3.359375 7.5-7.5zm0 0"
       id="path24" />
    <path
       d="m440.023438 91.957031v-35.921875c0-4.144531-3.355469-7.5-7.5-7.5-4.140626 0-7.5 3.355469-7.5 7.5v35.921875c0 4.140625 3.359374 7.5 7.5 7.5 4.144531 0 7.5-3.359375 7.5-7.5zm0 0"
       id="path26" />
    <path
       d="m121.3125 223.746094c-4.144531 0-7.5 3.359375-7.5 7.5v26.207031c0 4.144531 3.355469 7.5 7.5 7.5 4.140625 0 7.5-3.355469 7.5-7.5v-26.207031c0-4.140625-3.359375-7.5-7.5-7.5zm0 0"
       id="path28" />
    <path
       d="m87.28125 231.246094v26.207031c0 4.144531 3.359375 7.5 7.5 7.5 4.144531 0 7.5-3.355469 7.5-7.5v-26.207031c0-4.140625-3.355469-7.5-7.5-7.5-4.140625 0-7.5 3.359375-7.5 7.5zm0 0"
       id="path30" />
    <path
       d="m60.753906 231.246094v26.207031c0 4.144531 3.355469 7.5 7.5 7.5 4.140625 0 7.5-3.355469 7.5-7.5v-26.207031c0-4.140625-3.359375-7.5-7.5-7.5-4.144531 0-7.5 3.359375-7.5 7.5zm0 0"
       id="path32" />
    <path
       d="m177.804688 195.203125c.71875.21875 1.449218.320313 2.164062.320313 3.222656 0 6.203125-2.09375 7.179688-5.335938 5.039062-16.738281 10.605468-32.660156 16.5-49.515625l1.128906-3.226563c1.367187-3.910156-.695313-8.1875-4.605469-9.554687-3.914063-1.367187-8.1875.699219-9.554687 4.605469l-1.128907 3.222656c-5.949219 17.015625-11.566406 33.089844-16.703125 50.140625-1.195312 3.96875 1.050782 8.152344 5.019532 9.34375zm0 0"
       id="path34" />
    <path
       d="m137.34375 162.078125c3.195312 9.042969 6.503906 18.394531 9.144531 27.539063 1.902344 6.804687 11.734375 7.375 14.257813.664062 2.792968-7.367188 4.996094-14.386719 7.125-21.175781 1.917968-6.101563 3.726562-11.871094 5.953125-17.953125 1.425781-3.890625-.574219-8.195313-4.464844-9.621094-3.890625-1.421875-8.195313.578125-9.621094 4.464844-2.230469 6.105468-4.105469 12.019531-5.902343 17.746094-.785157-2.234376-1.570313-4.457032-2.351563-6.664063-2.824219-7.980469-5.742187-16.238281-8.222656-24.394531-1.207031-3.960938-5.394531-6.195313-9.359375-4.992188-3.960938 1.203125-6.199219 5.394532-4.992188 9.355469 2.578125 8.476563 5.554688 16.894531 8.433594 25.03125 3.195312 9.042969-2.878906-8.136719 0 0zm0 0"
       id="path36" />
    <path
       d="m266.910156 195.203125c.722656.21875 1.453125.320313 2.167969.320313 3.222656 0 6.199219-2.09375 7.179687-5.335938 5.039063-16.738281 10.605469-32.660156 16.5-49.515625l1.128907-3.226563c1.367187-3.910156-.695313-8.1875-4.605469-9.554687-3.917969-1.367187-8.1875.699219-9.554688 4.605469l-1.128906 3.222656c-5.949218 17.015625-11.566406 33.089844-16.703125 50.140625-1.195312 3.96875 1.050781 8.152344 5.015625 9.34375zm0 0"
       id="path38" />
    <path
       d="m258.46875 141.53125c-3.890625-1.421875-8.195312.578125-9.621094 4.464844-2.234375 6.105468-4.105468 12.019531-5.902344 17.746094-.785156-2.234376-1.570312-4.457032-2.351562-6.664063-2.824219-7.980469-5.742188-16.238281-8.222656-24.394531-1.207032-3.960938-5.394532-6.195313-9.359375-4.992188-3.960938 1.203125-6.199219 5.394532-4.992188 9.355469 2.578125 8.476563 5.554688 16.894531 8.433594 25.03125 3.199219 9.042969 6.503906 18.394531 9.144531 27.539063 1.902344 6.800781 11.734375 7.375 14.257813.664062 2.792969-7.367188 4.996093-14.386719 7.128906-21.175781 1.914063-6.105469 3.726563-11.871094 5.949219-17.953125 1.421875-3.886719-.574219-8.195313-4.464844-9.621094-3.890625-1.421875 3.890625 1.425781 0 0zm0 0"
       id="path40" />
    <path
       d="m368.835938 132.496094-1.128907 3.226562c-5.949219 17.015625-11.566406 33.085938-16.703125 50.136719-1.195312 3.96875 1.050782 8.152344 5.019532 9.347656.71875.214844 1.449218.320313 2.164062.320313 3.222656 0 6.203125-2.09375 7.179688-5.339844 5.039062-16.738281 10.605468-32.660156 16.5-49.515625l1.128906-3.226563c1.367187-3.910156-.695313-8.1875-4.605469-9.554687-3.914063-1.367187-8.191406.699219-9.554687 4.605469zm0 0"
       id="path42" />
    <path
       d="m331.425781 195.125c3.328125 0 6.332031-1.632812 7.539063-4.84375 2.792968-7.367188 4.996094-14.386719 7.125-21.175781 1.917968-6.101563 3.726562-11.871094 5.953125-17.953125 1.425781-3.890625-.574219-8.195313-4.464844-9.621094-3.890625-1.421875-8.195313.578125-9.621094 4.464844-2.234375 6.105468-4.105469 12.019531-5.902343 17.746094-.785157-2.234376-1.570313-4.457032-2.351563-6.664063-2.824219-7.980469-5.742187-16.238281-8.222656-24.394531-1.207031-3.960938-5.394531-6.195313-9.359375-4.992188s-6.199219 5.394532-4.992188 9.355469c2.578125 8.476563 5.554688 16.894531 8.433594 25.03125 3.199219 9.042969 6.503906 18.394531 9.144531 27.539063.851563 3.050781 3.53125 5.285156 6.71875 5.507812 0 0-1.503906-.105469 0 0zm0 0"
       id="path44" />
  </g>
</svg>
