<svg version="1.1" viewBox="0 0 541.1 414.1" xmlns="http://www.w3.org/2000/svg">
          <defs>
                    <clipPath id="clipPath20">
                              <path d="m0 500h500v-500h-500z"/>
                    </clipPath>
                    <clipPath id="clipPath28">
                              <path d="m39.088 125.51h386.4v-40.798h-386.4z"/>
                    </clipPath>
                    <clipPath id="clipPath44">
                              <path d="m390.64 98.375h54.275v-13.661h-54.275z"/>
                    </clipPath>
                    <clipPath id="clipPath60">
                              <path d="m60.616 395.29h378.17v-308.27h-378.17z"/>
                    </clipPath>
                    <clipPath id="clipPath128">
                              <path d="m145.86 308.25h244.51v-182.74h-244.51z"/>
                    </clipPath>
                    <clipPath id="clipPath148">
                              <path d="m0 500h500v-500h-500z"/>
                    </clipPath>
                    <clipPath id="clipPath288">
                              <path d="m141.47 296.96h148.6v-114.47h-148.6z"/>
                    </clipPath>
                    <clipPath id="clipPath304">
                              <path d="m224.13 296.96h155.83v-114.47h-155.83z"/>
                    </clipPath>
                    <clipPath id="clipPath320">
                              <path d="m78.461 217.05h129.89v-91.536h-129.89z"/>
                    </clipPath>
                    <clipPath id="clipPath454">
                              <path d="m80.081 217.04h55.629v-91.534h-55.629z"/>
                    </clipPath>
                    <clipPath id="clipPath470">
                              <path d="m83.8 217.04h75.618v-91.534h-75.618z"/>
                    </clipPath>
                    <clipPath id="clipPath486">
                              <path d="m367.62 214.65h50.759v-89.136h-50.759z"/>
                    </clipPath>
                    <clipPath id="clipPath612">
                              <path d="m360.22 208.83h36.597v-36.597h-36.597z"/>
                    </clipPath>
                    <clipPath id="clipPath628">
                              <path d="m360.22 208.83h47.803v-47.803h-47.803z"/>
                    </clipPath>
                    <clipPath id="clipPath644">
                              <path d="m368.85 174.19h42.123v-42.122h-42.123z"/>
                    </clipPath>
                    <clipPath id="clipPath660">
                              <path d="m53.582 236.51h46.411v-38.109h-46.411z"/>
                    </clipPath>
                    <clipPath id="clipPath680">
                              <path d="m56.507 229.09h31.478v-17.593h-31.478z"/>
                    </clipPath>
                    <clipPath id="clipPath708">
                              <path d="m154.42 325.56h46.411v-38.109h-46.411z"/>
                    </clipPath>
                    <clipPath id="clipPath740">
                              <path d="m379.88 320.37h41.198v-41.203h-41.198z"/>
                    </clipPath>
                    <clipPath id="clipPath760">
                              <path d="m384.26 306.78h24.451v-14.553h-24.451z"/>
                    </clipPath>
                    <clipPath id="clipPath788">
                              <path d="m399.98 242.94h40.301v-38.108h-40.301z"/>
                    </clipPath>
          </defs>
          <g transform="matrix(1.3333 0 0 -1.3333 -52.118 527.05)">
                    <g>
                              <g clip-path="url(#clipPath20)">
                                        <g>
                                                  <g>
                                                            <g clip-path="url(#clipPath28)" opacity=".050003">
                                                                      <g transform="translate(418.65 125.51)">
                                                                                <path d="m0 0h-341.59c-3.773 0-6.831-3.058-6.831-6.83 0-3.773 3.058-6.831 6.831-6.831h137.78c3.38-0.411 5.996-3.288 5.996-6.772 0-1.887-0.768-3.598-1.998-4.829-0.933-0.94-2.143-1.606-3.495-1.875h-169.42c-3.773 0-6.831-3.058-6.831-6.831 0-3.772 3.058-6.83 6.831-6.83h321.85c3.773 0 6.83 3.058 6.83 6.83 0 3.773-3.057 6.831-6.83 6.831h-25.332c-3.135 0.622-5.5 3.387-5.5 6.704 0 1.887 0.769 3.589 2.008 4.829 1.047 1.047 2.443 1.753 3.999 1.943h75.707c3.772 0 6.831 3.058 6.831 6.831 0 3.772-3.059 6.83-6.831 6.83"/>
                                                                      </g>
                                                            </g>
                                                  </g>
                                        </g>
                                        <g>
                                                  <g>
                                                            <g clip-path="url(#clipPath44)" opacity=".050003">
                                                                      <g transform="translate(438.08 84.714)">
                                                                                <path d="m0 0h-40.613c-3.773 0-6.83 3.058-6.83 6.83 0 3.773 3.057 6.831 6.83 6.831h40.613c3.772 0 6.831-3.058 6.831-6.831 0-3.772-3.059-6.83-6.831-6.83"/>
                                                                      </g>
                                                            </g>
                                                  </g>
                                        </g>
                                        <g>
                                                  <g>
                                                            <g clip-path="url(#clipPath60)" opacity=".5">
                                                                      <g transform="translate(286.81 387.26)">
                                                                                <path d="m0 0c-0.146 0-0.293 0.017-0.44 0.053-11.629 2.834-23.654 4.27-35.738 4.27h-0.27c-1.021 0-1.85 0.828-1.85 1.85s0.829 1.85 1.85 1.85h0.27c12.379 0 24.698-1.472 36.614-4.374 0.993-0.242 1.602-1.243 1.36-2.236-0.206-0.846-0.963-1.413-1.796-1.413m-115.17-17.741c-0.625 0-1.235 0.316-1.583 0.889-0.531 0.873-0.254 2.012 0.62 2.542 18.763 11.407 39.324 18.538 61.112 21.194 1.022 0.121 1.937-0.599 2.061-1.613 0.123-1.014-0.599-1.937-1.613-2.061-21.262-2.592-41.328-9.55-59.638-20.682-0.3-0.182-0.632-0.269-0.959-0.269m186.45-22.321c-0.472 0-0.945 0.18-1.305 0.54-4.277 4.261-8.859 8.306-13.617 12.023-0.805 0.629-0.948 1.792-0.319 2.598 0.63 0.805 1.794 0.947 2.598 0.318 4.874-3.808 9.567-7.952 13.949-12.317 0.724-0.722 0.726-1.893 5e-3 -2.617-0.362-0.363-0.836-0.545-1.311-0.545m-227.48-14.148c-0.399 0-0.801 0.128-1.139 0.393-0.805 0.629-0.947 1.792-0.317 2.597 3.81 4.87 7.957 9.561 12.325 13.943 0.722 0.723 1.893 0.726 2.617 4e-3s0.726-1.894 4e-3 -2.617c-4.265-4.277-8.313-8.856-12.031-13.61-0.366-0.466-0.91-0.71-1.459-0.71m271.16-75.043c-0.922 0-1.719 0.688-1.834 1.626-2.603 21.258-9.574 41.319-20.717 59.625-0.532 0.873-0.255 2.011 0.618 2.543 0.872 0.532 2.011 0.255 2.542-0.619 11.42-18.758 18.563-39.315 21.231-61.1 0.123-1.014-0.598-1.937-1.613-2.061-0.076-0.01-0.152-0.014-0.227-0.014m-303.43-18.887c-1.022 0-1.851 0.828-1.851 1.85v0.166c0 12.423 1.479 24.772 4.397 36.715 0.243 0.993 1.245 1.601 2.237 1.359 0.992-0.243 1.601-1.244 1.358-2.237-2.847-11.656-4.291-23.709-4.291-35.823v-0.18c0-1.022-0.828-1.85-1.85-1.85m300.18-36.256c-0.147 0-0.295 0.016-0.443 0.052-0.993 0.244-1.6 1.246-1.356 2.239 2.875 11.711 4.333 23.822 4.333 35.995v0.36c0 1.021 0.828 1.851 1.85 1.851s1.85-0.83 1.85-1.851v-0.36c0-12.469-1.493-24.877-4.439-36.877-0.207-0.845-0.963-1.409-1.795-1.409m-278.16-42.482c-0.625 0-1.235 0.316-1.583 0.89-11.396 18.771-18.514 39.336-21.157 61.126-0.123 1.014 0.599 1.936 1.614 2.059 1.02 0.122 1.937-0.599 2.059-1.613 2.58-21.264 9.526-41.334 20.647-59.651 0.53-0.873 0.252-2.012-0.621-2.542-0.301-0.182-0.632-0.269-0.959-0.269m237.97-28.735c-0.473 0-0.947 0.18-1.308 0.542-0.723 0.722-0.723 1.894-1e-3 2.617 4.27 4.272 8.324 8.847 12.048 13.596 0.629 0.805 1.793 0.945 2.597 0.314 0.805-0.631 0.946-1.794 0.315-2.599-3.815-4.864-7.967-9.55-12.342-13.927-0.361-0.363-0.836-0.543-1.309-0.543m-201.53-12.307c-0.398 0-0.8 0.129-1.139 0.395-4.866 3.81-9.555 7.96-13.935 12.333-0.723 0.722-0.724 1.893-3e-3 2.617 0.722 0.723 1.893 0.725 2.617 2e-3 4.276-4.269 8.852-8.32 13.603-12.04 0.804-0.63 0.946-1.792 0.315-2.597-0.364-0.466-0.908-0.71-1.458-0.71m112.26-31.219c-0.923 0-1.722 0.689-1.834 1.629-0.123 1.014 0.6 1.936 1.615 2.058 21.265 2.566 41.338 9.502 59.662 20.611 0.874 0.529 2.012 0.25 2.541-0.623 0.53-0.873 0.251-2.012-0.622-2.541-18.777-11.385-39.348-18.491-61.139-21.121-0.075-9e-3 -0.149-0.013-0.223-0.013m-18.395-1.104c-12.492 0-24.866 1.486-36.834 4.418-0.992 0.243-1.6 1.245-1.357 2.236 0.244 0.992 1.245 1.598 2.237 1.358 11.683-2.862 23.765-4.313 35.91-4.313 1.022 0 1.896-0.827 1.896-1.849 0-1.023-0.783-1.85-1.806-1.85v1.85l-0.036-1.85z" fill="#fff"/>
                                                                      </g>
                                                                      <g transform="translate(316.59 353.96)">
                                                                                <path d="m0 0c-0.313 0-0.632 0.08-0.923 0.248-6.058 3.493-12.441 6.514-18.971 8.98-0.956 0.361-1.438 1.429-1.077 2.385 0.363 0.956 1.428 1.438 2.386 1.077 6.715-2.536 13.279-5.644 19.511-9.236 0.886-0.511 1.188-1.642 0.678-2.528-0.342-0.593-0.964-0.926-1.604-0.926m-132.24-0.186c-0.638 0-1.259 0.331-1.602 0.922-0.513 0.884-0.212 2.016 0.671 2.53 12.52 7.264 26.046 12.415 40.2 15.31 0.999 0.207 1.979-0.441 2.184-1.442 0.204-1.001-0.441-1.979-1.442-2.183-13.762-2.815-26.912-7.824-39.084-14.887-0.292-0.169-0.612-0.25-0.927-0.25m-59.246-72.708c-0.194 0-0.39 0.031-0.584 0.095-0.97 0.322-1.494 1.37-1.172 2.34 7.996 24.044 22.638 45.288 42.343 61.434 0.789 0.647 1.956 0.531 2.604-0.259s0.532-1.956-0.259-2.604c-19.163-15.702-33.402-36.36-41.176-59.739-0.258-0.776-0.981-1.267-1.756-1.267m256.05-20.309c-0.889 0-1.674 0.645-1.823 1.552-3.969 24.33-14.767 46.97-31.226 65.475-0.68 0.764-0.611 1.933 0.152 2.613 0.764 0.68 1.935 0.61 2.612-0.153 16.927-19.031 28.032-42.316 32.114-67.338 0.165-1.009-0.519-1.96-1.528-2.125-0.101-0.016-0.201-0.024-0.301-0.024m-261.07-42.792c-0.891 0-1.677 0.646-1.824 1.554-1.145 7.061-1.729 14.296-1.736 21.505-1e-3 1.022 0.827 1.851 1.849 1.852h1e-3c1.022 0 1.85-0.827 1.851-1.849 7e-3 -7.011 0.574-14.049 1.688-20.916 0.163-1.008-0.521-1.959-1.53-2.123-0.101-0.016-0.2-0.023-0.299-0.023m256.04-20.55c-0.194 0-0.39 0.031-0.585 0.096-0.969 0.323-1.493 1.372-1.17 2.341 4.429 13.273 6.675 27.169 6.675 41.298v0.248c0 1.022 0.828 1.851 1.85 1.851s1.85-0.829 1.85-1.851v-0.248c0-14.528-2.309-28.817-6.864-42.469-0.26-0.776-0.981-1.266-1.756-1.266m-59.31-72.651c-0.639 0-1.261 0.331-1.604 0.923-0.511 0.884-0.21 2.015 0.675 2.528 6.036 3.496 11.841 7.512 17.252 11.936 0.79 0.649 1.956 0.532 2.603-0.261 0.647-0.79 0.53-1.956-0.261-2.603-5.564-4.55-11.532-8.68-17.74-12.274-0.292-0.169-0.611-0.249-0.925-0.249m-132.25-0.063c-0.313 0-0.632 0.079-0.923 0.249-12.504 7.224-23.716 16.375-33.326 27.2-0.678 0.765-0.609 1.935 0.155 2.614 0.765 0.677 1.934 0.607 2.612-0.156 9.346-10.529 20.25-19.428 32.41-26.455 0.885-0.511 1.187-1.642 0.677-2.528-0.343-0.592-0.965-0.924-1.605-0.924m66.072-17.659c-16.355 0-32.334 2.911-47.493 8.653-0.955 0.362-1.437 1.431-1.075 2.386 0.362 0.956 1.429 1.439 2.386 1.075 14.739-5.583 30.277-8.413 46.182-8.413 8.804 0 17.603 0.882 26.15 2.622 0.999 0.205 1.978-0.443 2.182-1.445 0.203-1.001-0.443-1.978-1.444-2.182-8.79-1.789-17.836-2.696-26.888-2.696" fill="#fff"/>
                                                                      </g>
                                                                      <g transform="translate(304.94 333.71)">
                                                                                <path d="m0 0c-0.313 0-0.632 0.08-0.922 0.248-4.975 2.868-10.215 5.348-15.572 7.371-0.956 0.361-1.439 1.429-1.077 2.385 0.361 0.956 1.428 1.437 2.385 1.077 5.543-2.094 10.964-4.66 16.112-7.627 0.886-0.511 1.189-1.642 0.678-2.527-0.341-0.594-0.964-0.927-1.604-0.927m-108.88-0.153c-0.639 0-1.26 0.331-1.603 0.923-0.513 0.883-0.212 2.015 0.672 2.528 10.338 5.999 21.507 10.253 33.197 12.644 1.002 0.207 1.978-0.441 2.183-1.442 0.205-1-0.441-1.979-1.442-2.183-11.296-2.311-22.09-6.422-32.081-12.219-0.292-0.17-0.611-0.251-0.926-0.251m-48.78-59.863c-0.194 0-0.391 0.03-0.585 0.095-0.969 0.322-1.494 1.37-1.172 2.339 6.604 19.856 18.694 37.398 34.966 50.731 0.79 0.647 1.955 0.532 2.604-0.259 0.647-0.79 0.532-1.956-0.258-2.603-15.73-12.889-27.418-29.845-33.8-49.037-0.259-0.775-0.981-1.266-1.755-1.266m210.82-16.721c-0.889 0-1.675 0.645-1.823 1.552-3.259 19.97-12.121 38.554-25.632 53.744-0.68 0.763-0.61 1.933 0.153 2.612 0.764 0.68 1.933 0.61 2.612-0.153 13.978-15.715 23.148-34.943 26.518-55.606 0.165-1.009-0.519-1.96-1.527-2.125-0.102-0.016-0.201-0.024-0.301-0.024m-214.95-35.233c-0.892 0-1.677 0.646-1.824 1.554-0.946 5.833-1.428 11.807-1.433 17.758-1e-3 1.022 0.827 1.85 1.849 1.851h1e-3c1.022 0 1.849-0.827 1.85-1.848 5e-3 -5.754 0.471-11.531 1.386-17.168 0.163-1.01-0.522-1.96-1.531-2.123-0.1-0.017-0.2-0.024-0.298-0.024m210.81-16.92c-0.194 0-0.391 0.032-0.585 0.096-0.97 0.323-1.493 1.371-1.17 2.341 3.636 10.895 5.478 22.301 5.478 33.899v0.205c0 1.022 0.828 1.85 1.851 1.85 1.021 0 1.85-0.828 1.85-1.85v-0.205c0-11.997-1.908-23.797-5.668-35.07-0.26-0.775-0.981-1.266-1.756-1.266m-48.833-59.818c-0.639 0-1.26 0.331-1.603 0.924-0.512 0.883-0.21 2.015 0.674 2.527 4.957 2.871 9.722 6.167 14.16 9.798 0.792 0.647 1.957 0.531 2.604-0.26 0.646-0.792 0.53-1.957-0.26-2.603-4.594-3.757-9.522-7.167-14.65-10.136-0.292-0.17-0.611-0.25-0.925-0.25m-108.89-0.05c-0.314 0-0.632 0.08-0.924 0.249-10.325 5.965-19.584 13.523-27.519 22.461-0.679 0.765-0.609 1.935 0.155 2.613 0.765 0.678 1.934 0.608 2.612-0.155 7.672-8.642 16.623-15.948 26.603-21.716 0.885-0.51 1.188-1.642 0.677-2.527-0.343-0.593-0.965-0.925-1.604-0.925m54.4-14.54c-13.505 0-26.7 2.404-39.218 7.146-0.956 0.361-1.437 1.43-1.075 2.384 0.362 0.956 1.428 1.441 2.385 1.076 12.098-4.581 24.852-6.905 37.908-6.905 7.228 0 14.449 0.724 21.466 2.152 0.997 0.205 1.978-0.443 2.182-1.445 0.203-1.001-0.443-1.977-1.444-2.181-7.259-1.478-14.73-2.227-22.204-2.227" fill="#fff"/>
                                                                      </g>
                                                                      <g transform="translate(105.01 343.08)">
                                                                                <path d="m0 0c-4.045 0-7.336-3.292-7.336-7.337s3.291-7.336 7.336-7.336 7.337 3.291 7.337 7.336-3.292 7.337-7.337 7.337m0-16.524c-5.066 0-9.187 4.121-9.187 9.187s4.121 9.187 9.187 9.187c5.065 0 9.187-4.121 9.187-9.187s-4.122-9.187-9.187-9.187" fill="#fff"/>
                                                                      </g>
                                                                      <g transform="translate(380.56 118.54)">
                                                                                <path d="m0 0c-5.116 0-9.279-4.163-9.279-9.28s4.163-9.281 9.279-9.281c5.117 0 9.28 4.164 9.28 9.281s-4.163 9.28-9.28 9.28m0-21.936c-6.978 0-12.655 5.677-12.655 12.656 0 6.978 5.677 12.655 12.655 12.655 6.979 0 12.656-5.677 12.656-12.655 0-6.979-5.677-12.656-12.656-12.656" fill="#fff"/>
                                                                      </g>
                                                                      <g transform="translate(142.42 378.38)">
                                                                                <path d="m0 0c2.143-0.996 3.876-2.729 4.872-4.871 0.995 2.142 2.728 3.875 4.871 4.871-2.143 0.996-3.876 2.729-4.871 4.872-0.996-2.143-2.729-3.876-4.872-4.872m4.872-9.994c-0.511 0-0.926 0.414-0.926 0.925 0 4.49-3.653 8.144-8.144 8.144-0.511 0-0.925 0.414-0.925 0.925s0.414 0.925 0.925 0.925c4.491 0 8.144 3.654 8.144 8.145 0 0.511 0.415 0.925 0.926 0.925 0.51 0 0.925-0.414 0.925-0.925 0-4.491 3.653-8.145 8.144-8.145 0.511 0 0.925-0.414 0.925-0.925s-0.414-0.925-0.925-0.925c-4.491 0-8.144-3.654-8.144-8.144 0-0.511-0.415-0.925-0.925-0.925" fill="#fff"/>
                                                                      </g>
                                                                      <g transform="translate(341.59 97.446)">
                                                                                <path d="m0 0c2.143-0.996 3.876-2.729 4.871-4.871 0.996 2.142 2.729 3.875 4.872 4.871-2.143 0.995-3.876 2.729-4.872 4.871-0.995-2.142-2.728-3.876-4.871-4.871m4.871-9.995c-0.511 0-0.925 0.414-0.925 0.926 0 4.49-3.653 8.144-8.144 8.144-0.512 0-0.925 0.413-0.925 0.925s0.413 0.925 0.925 0.925c4.491 0 8.144 3.653 8.144 8.144 0 0.512 0.414 0.926 0.925 0.926 0.512 0 0.926-0.414 0.926-0.926 0-4.491 3.653-8.144 8.144-8.144 0.511 0 0.925-0.413 0.925-0.925s-0.414-0.925-0.925-0.925c-4.491 0-8.144-3.654-8.144-8.144 0-0.512-0.414-0.926-0.926-0.926" fill="#fff"/>
                                                                      </g>
                                                                      <g transform="translate(429.72 279.12)">
                                                                                <path d="m0 0c0 4.988-4.081 9.069-9.069 9.069 4.988 0 9.069 4.082 9.069 9.07 0-4.988 4.081-9.07 9.069-9.07-4.988 0-9.069-4.081-9.069-9.069" fill="#fff"/>
                                                                      </g>
                                                                      <g transform="translate(310.03 382.31)">
                                                                                <path d="M 0,0 V 0 C 0,2.552 -2.088,4.64 -4.641,4.64 -2.088,4.64 0,6.728 0,9.28 0,6.728 2.088,4.64 4.64,4.64 2.088,4.64 0,2.552 0,0" fill="#fff"/>
                                                                      </g>
                                                                      <g transform="translate(67.205 240.32)">
                                                                                <path d="m0 0c1.606-0.925 2.944-2.263 3.868-3.869 0.925 1.606 2.262 2.944 3.868 3.869-1.606 0.924-2.943 2.262-3.868 3.868-0.924-1.606-2.262-2.944-3.868-3.868m3.868-10.458c-0.766 0-1.388 0.622-1.388 1.388 0 4.236-3.445 7.682-7.681 7.682-0.767 0-1.388 0.621-1.388 1.388s0.621 1.388 1.388 1.388c4.236 0 7.681 3.446 7.681 7.681 0 0.767 0.622 1.388 1.388 1.388 0.767 0 1.388-0.621 1.388-1.388 0-4.235 3.446-7.681 7.682-7.681 0.767 0 1.388-0.621 1.388-1.388s-0.621-1.388-1.388-1.388c-4.236 0-7.682-3.446-7.682-7.682 0-0.766-0.621-1.388-1.388-1.388" fill="#fff"/>
                                                                      </g>
                                                                      <g transform="translate(370.57 353.64)">
                                                                                <path d="m0 0c0-1.628-1.32-2.948-2.948-2.948-1.629 0-2.948 1.32-2.948 2.948s1.319 2.949 2.948 2.949c1.628 0 2.948-1.321 2.948-2.949" fill="#fff"/>
                                                                      </g>
                                                                      <g transform="translate(295.63 119.24)">
                                                                                <path d="m0 0c0-2.097-1.7-3.797-3.797-3.797s-3.797 1.7-3.797 3.797 1.7 3.797 3.797 3.797 3.797-1.7 3.797-3.797" fill="#fff"/>
                                                                      </g>
                                                                      <g transform="translate(132.52 106.87)">
                                                                                <path d="m0 0c0-2.097-1.7-3.797-3.797-3.797s-3.796 1.7-3.796 3.797 1.699 3.797 3.796 3.797 3.797-1.7 3.797-3.797" fill="#fff"/>
                                                                      </g>
                                                                      <g transform="translate(266.36 371)">
                                                                                <path d="m0 0c0-0.83-0.673-1.503-1.503-1.503s-1.503 0.673-1.503 1.503c0 0.831 0.673 1.503 1.503 1.503s1.503-0.672 1.503-1.503" fill="#fff"/>
                                                                      </g>
                                                            </g>
                                                  </g>
                                        </g>
                                        <g>
                                                  <g>
                                                            <g clip-path="url(#clipPath128)" opacity=".14999">
                                                                      <g transform="translate(390.34 298.89)">
                                                                                <path d="m0 0c-0.329 5.219-4.671 9.354-9.974 9.354h-224.51c-5.304 0-9.645-4.135-9.974-9.354-0.02-0.213-0.026-0.426-0.026-0.645v-136.77c0-5.522 4.477-10 10-10h77.094l-0.026-0.076-6.64-19.923h-3.414c-0.757 0-1.371-0.614-1.371-1.371v-3.225c0-0.757 0.614-1.371 1.371-1.371h90.481c0.758 0 1.371 0.614 1.371 1.371v3.225c0 0.757-0.613 1.371-1.371 1.371h-3.413l-6.642 19.923-0.025 0.076h77.094c5.523 0 10 4.478 10 10v136.77c0 0.219-6e-3 0.432-0.026 0.645"/>
                                                                      </g>
                                                            </g>
                                                  </g>
                                        </g>
                              </g>
                    </g>
                    <g transform="translate(303.62 128.25)">
                              <path d="m0 0h-85.804l11.613 34.838h62.579z" fill="#f5f5f5"/>
                    </g>
                    <g>
                              <g clip-path="url(#clipPath148)">
                                        <g transform="translate(382.97 298.25)">
                                                  <path d="m0 0v-136.77c0-5.522-4.478-10-10-10h-224.51c-5.523 0-10 4.478-10 10v136.77c0 0.219 7e-3 0.432 0.026 0.645 0.329 5.219 4.671 9.355 9.974 9.355h224.51c5.304 0 9.646-4.136 9.975-9.355 0.018-0.213 0.025-0.426 0.025-0.645" fill="#001636"/>
                                        </g>
                                        <g transform="translate(382.97 174.7)">
                                                  <path d="m0 0v-13.226c0-5.522-4.478-10-10-10h-224.51c-5.523 0-10 4.478-10 10v13.226z" fill="#fff"/>
                                        </g>
                                        <g transform="translate(382.97 296.32)">
                                                  <path d="m0 0v-113.84h-244.51v113.84c0 0.213 7e-3 0.426 0.026 0.632h244.46c0.018-0.206 0.025-0.419 0.025-0.632" fill="#fff"/>
                                        </g>
                                        <g transform="translate(263.43 303.49)">
                                                  <path d="m0 0c0-1.5-1.215-2.715-2.715-2.715-1.499 0-2.715 1.215-2.715 2.715s1.216 2.715 2.715 2.715c1.5 0 2.715-1.215 2.715-2.715" fill="#000712"/>
                                        </g>
                                        <g transform="translate(305.96 125.51)">
                                                  <path d="m0 0h-90.481c-0.758 0-1.372 0.614-1.372 1.371v3.226c0 0.757 0.614 1.371 1.372 1.371h90.481c0.757 0 1.371-0.614 1.371-1.371v-3.226c0-0.757-0.614-1.371-1.371-1.371" fill="#f5f5f5"/>
                                        </g>
                                        <g transform="translate(298.09 144.81)">
                                                  <path d="m0 0h-74.759l2.219 6.664h70.32z" fill="#e8e8e8"/>
                                        </g>
                                        <g transform="translate(302.54 131.48)">
                                                  <path d="m0 0h-83.649l1.038 3.116h81.572z" fill="#e8e8e8"/>
                                        </g>
                                        <g transform="translate(382.97 296.92)">
                                                  <path d="m0 0v-6.478h-244.51v6.478c0 0.012 7e-3 0.024 0.026 0.036h244.46c0.018-0.012 0.025-0.024 0.025-0.036" fill="#e8e8e8"/>
                                        </g>
                                        <g transform="translate(323.37 291.8)">
                                                  <path d="m0 0h-125.32c-1.039 0-1.882 0.843-1.882 1.882s0.843 1.882 1.882 1.882h125.32c1.039 0 1.882-0.843 1.882-1.882s-0.843-1.882-1.882-1.882" fill="#fff"/>
                                        </g>
                                        <g transform="translate(382.97 197.94)">
                                                  <path d="m0 0v-16.315h-244.51v16.315c0 0.031 7e-3 0.061 0.026 0.091h244.46c0.018-0.03 0.025-0.06 0.025-0.091" fill="#b9d5ed"/>
                                        </g>
                                        <g transform="translate(270.38 215.67)">
                                                  <path d="m0 0c0-4.098-3.321-7.42-7.419-7.42s-7.419 3.322-7.419 7.42c0 4.097 3.321 7.419 7.419 7.419s7.419-3.322 7.419-7.419" fill="#fcaf3b"/>
                                        </g>
                                        <g transform="translate(267.34 203.09)">
                                                  <path d="m0 0h-21.452c-0.89 0-1.612 0.722-1.612 1.612 0 0.891 0.722 1.614 1.612 1.614h21.452c0.891 0 1.612-0.723 1.612-1.614 0-0.89-0.721-1.612-1.612-1.612" fill="#b9d5ed"/>
                                        </g>
                                        <g transform="translate(280.03 203.09)">
                                                  <path d="m0 0h-8.333c-0.891 0-1.613 0.722-1.613 1.612 0 0.891 0.722 1.614 1.613 1.614h8.333c0.891 0 1.612-0.723 1.612-1.614 0-0.89-0.721-1.612-1.612-1.612" fill="#b9d5ed"/>
                                        </g>
                                        <g transform="translate(327.29 215.67)">
                                                  <path d="m0 0c0-4.098-3.322-7.42-7.419-7.42-4.098 0-7.42 3.322-7.42 7.42 0 4.097 3.322 7.419 7.42 7.419 4.097 0 7.419-3.322 7.419-7.419" fill="#fcaf3b"/>
                                        </g>
                                        <g transform="translate(315.7 203.09)">
                                                  <path d="m0 0h-8.333c-0.891 0-1.613 0.722-1.613 1.612 0 0.891 0.722 1.614 1.613 1.614h8.333c0.891 0 1.613-0.723 1.613-1.614 0-0.89-0.722-1.612-1.613-1.612" fill="#b9d5ed"/>
                                        </g>
                                        <g transform="translate(332.37 203.09)">
                                                  <path d="m0 0h-12.741c-0.891 0-1.613 0.722-1.613 1.612 0 0.891 0.722 1.614 1.613 1.614h12.741c0.891 0 1.613-0.723 1.613-1.614 0-0.89-0.722-1.612-1.613-1.612" fill="#b9d5ed"/>
                                        </g>
                                        <g transform="translate(210.86 215.67)">
                                                  <path d="m0 0c0-4.098-3.321-7.42-7.419-7.42s-7.419 3.322-7.419 7.42c0 4.097 3.321 7.419 7.419 7.419s7.419-3.322 7.419-7.419" fill="#fcaf3b"/>
                                        </g>
                                        <g transform="translate(205.38 203.09)">
                                                  <path d="m0 0h-8.468c-0.89 0-1.613 0.722-1.613 1.612 0 0.891 0.723 1.614 1.613 1.614h8.468c0.891 0 1.613-0.723 1.613-1.614 0-0.89-0.722-1.612-1.613-1.612" fill="#b9d5ed"/>
                                        </g>
                                        <g transform="translate(192.53 203.09)">
                                                  <path d="m0 0h-3.468c-0.89 0-1.613 0.722-1.613 1.612 0 0.891 0.723 1.614 1.613 1.614h3.468c0.891 0 1.613-0.723 1.613-1.614 0-0.89-0.722-1.612-1.613-1.612" fill="#b9d5ed"/>
                                        </g>
                                        <g transform="translate(217.83 203.09)">
                                                  <path d="m0 0h-7.742c-0.89 0-1.612 0.722-1.612 1.612 0 0.891 0.722 1.614 1.612 1.614h7.742c0.891 0 1.613-0.723 1.613-1.614 0-0.89-0.722-1.612-1.613-1.612" fill="#b9d5ed"/>
                                        </g>
                                        <g transform="translate(222.54 189.63)">
                                                  <path d="m0 0v-8.005h-50.106v7.964c0.189 0.188 0.296 0.297 0.485 0.485h49.177c0.173-0.173 0.271-0.27 0.444-0.444" fill="#4890ca"/>
                                        </g>
                                        <g transform="translate(285.77 189.63)">
                                                  <path d="m0 0v-8.005h-50.106v7.964c0.189 0.188 0.296 0.297 0.485 0.485h49.177z" fill="#4890ca"/>
                                        </g>
                                        <g transform="translate(348.99 189.63)">
                                                  <path d="m0 0v-8.005h-50.106v7.964c0.189 0.188 0.296 0.297 0.485 0.485h49.177c0.173-0.173 0.271-0.27 0.444-0.444" fill="#4890ca"/>
                                        </g>
                                        <g transform="translate(177.91 275.43)">
                                                  <path d="m0 0h-5.769c-1.625 0-2.942 1.317-2.942 2.942v5.124c0 1.624 1.317 2.942 2.942 2.942h5.769c1.625 0 2.942-1.318 2.942-2.942v-5.124c0-1.625-1.317-2.942-2.942-2.942" fill="#fcaf3b"/>
                                        </g>
                                        <g transform="translate(267.45 279.36)">
                                                  <path d="m0 0h-8.508c-0.868 0-1.572 0.704-1.572 1.572 0 0.869 0.704 1.573 1.572 1.573h8.508c0.868 0 1.572-0.704 1.572-1.573 0-0.868-0.704-1.572-1.572-1.572" fill="#b9d5ed"/>
                                        </g>
                                        <g transform="translate(332.58 279.36)">
                                                  <path d="m0 0h-22.573c-0.869 0-1.573 0.704-1.573 1.572 0 0.869 0.704 1.573 1.573 1.573h22.573c0.868 0 1.572-0.704 1.572-1.573 0-0.868-0.704-1.572-1.572-1.572" fill="#b9d5ed"/>
                                        </g>
                                        <g transform="translate(351.04 279.36)">
                                                  <path d="m0 0h-12.369c-0.657 0-1.191 0.533-1.191 1.191v0.763c0 0.658 0.534 1.191 1.191 1.191h12.369c0.658 0 1.191-0.533 1.191-1.191v-0.763c0-0.658-0.533-1.191-1.191-1.191" fill="#b9d5ed"/>
                                        </g>
                                        <g transform="translate(293.1 279.36)">
                                                  <path d="m0 0h-17.197c-0.869 0-1.574 0.704-1.574 1.572 0 0.869 0.705 1.573 1.574 1.573h17.197c0.868 0 1.572-0.704 1.572-1.573 0-0.868-0.704-1.572-1.572-1.572" fill="#b9d5ed"/>
                                        </g>
                                        <g transform="translate(302.46 279.36)">
                                                  <path d="m0 0h-5.101c-0.869 0-1.573 0.704-1.573 1.572 0 0.869 0.704 1.573 1.573 1.573h5.101c0.868 0 1.572-0.704 1.572-1.573 0-0.868-0.704-1.572-1.572-1.572" fill="#b9d5ed"/>
                                        </g>
                                        <g transform="translate(382.97 272.84)">
                                                  <path d="M 0,0 V -44.545 H -244.509 V 0 c 0,0.084 0.007,0.166 0.026,0.247 H -0.025 C -0.007,0.166 0,0.084 0,0" fill="#fcaf3b"/>
                                        </g>
                                        <g transform="translate(215.55 272.84)">
                                                  <path d="M 0,0 V -44.545 H -77.095 V 0 c 0,0.084 0.003,0.166 0.009,0.247 H -0.008 C -0.002,0.166 0,0.084 0,0" fill="#4488bf"/>
                                        </g>
                                        <g transform="translate(222.81 247.51)">
                                                  <path d="m0 0-3.064 3.064c-0.252 0.252-0.252 0.661 0 0.913l2.943 2.943 0.912-0.912-2.487-2.487 2.608-2.609z" fill="#fff"/>
                                        </g>
                                        <g transform="translate(373.59 247.51)">
                                                  <path d="m0 0 3.064 3.064c0.252 0.252 0.252 0.661 0 0.913l-2.943 2.943-0.912-0.912 2.487-2.487-2.608-2.609z" fill="#fff"/>
                                        </g>
                                        <g>
                                                  <g>
                                                            <g clip-path="url(#clipPath288)" opacity=".14999">
                                                                      <g transform="translate(290.07 296.96)">
                                                                                <path d="m0 0-114.47-114.47h-34.122v7.231l107.23 107.24z" fill="#fff"/>
                                                                      </g>
                                                            </g>
                                                  </g>
                                        </g>
                                        <g>
                                                  <g>
                                                            <g clip-path="url(#clipPath304)" opacity=".14999">
                                                                      <g transform="translate(379.96 296.96)">
                                                                                <path d="m0 0-114.47-114.47h-41.36l114.47 114.47z" fill="#fff"/>
                                                                      </g>
                                                            </g>
                                                  </g>
                                        </g>
                                        <g>
                                                  <g>
                                                            <g clip-path="url(#clipPath320)" opacity=".14999">
                                                                      <g transform="translate(204.32 217.05)">
                                                                                <path d="m0 0h-121.83c-2.225 0-4.029-1.804-4.029-4.028v-83.477c0-2.225 1.804-4.029 4.029-4.029h4.992v-2e-3h111.84v2e-3h4.999c2.225 0 4.029 1.804 4.029 4.029v83.477c0 2.224-1.804 4.028-4.029 4.028"/>
                                                                      </g>
                                                            </g>
                                                  </g>
                                        </g>
                                        <g transform="translate(196.92 125.51)">
                                                  <path d="m0 0h-121.83c-2.224 0-4.028 1.804-4.028 4.029v83.477c0 2.224 1.804 4.028 4.028 4.028h121.83c2.225 0 4.029-1.804 4.029-4.028v-83.477c0-2.225-1.804-4.029-4.029-4.029" fill="#001636"/>
                                        </g>
                                        <path d="m191.92 125.51h-111.84v91.534h111.84z" fill="#fff"/>
                                        <g transform="translate(191.84 217)">
                                                  <path d="m0 0v-5.491h-111.75v5.491c0 0.01 3e-3 0.021 0.012 0.03h111.72c9e-3 -9e-3 0.012-0.02 0.012-0.03" fill="#e8e8e8"/>
                                        </g>
                                        <g transform="translate(164.25 213.21)">
                                                  <path d="m0 0h-56.565c-0.671 0-1.214 0.544-1.214 1.215 0 0.67 0.543 1.214 1.214 1.214h56.565c0.67 0 1.214-0.544 1.214-1.214 0-0.671-0.544-1.215-1.214-1.215" fill="#fff"/>
                                        </g>
                                        <g transform="translate(191.84 153)">
                                                  <path d="M 0,0 V -23.096 H -111.747 V 0 c 0,0.043 0.003,0.086 0.012,0.128 H -0.012 C -0.003,0.086 0,0.043 0,0" fill="#b9d5ed"/>
                                        </g>
                                        <g transform="translate(140.39 165.06)">
                                                  <path d="m0 0c0-1.873-1.518-3.391-3.391-3.391-1.872 0-3.39 1.518-3.39 3.391s1.518 3.391 3.39 3.391c1.873 0 3.391-1.518 3.391-3.391" fill="#fcaf3b"/>
                                        </g>
                                        <g transform="translate(139 159.31)">
                                                  <path d="m0 0h-9.804c-0.406 0-0.737 0.33-0.737 0.737 0 0.408 0.331 0.738 0.737 0.738h9.804c0.407 0 0.737-0.33 0.737-0.738 0-0.407-0.33-0.737-0.737-0.737" fill="#b9d5ed"/>
                                        </g>
                                        <g transform="translate(144.8 159.31)">
                                                  <path d="m0 0h-3.809c-0.407 0-0.736 0.33-0.736 0.737 0 0.408 0.329 0.738 0.736 0.738h3.809c0.407 0 0.737-0.33 0.737-0.738 0-0.407-0.33-0.737-0.737-0.737" fill="#b9d5ed"/>
                                        </g>
                                        <g transform="translate(166.39 165.06)">
                                                  <path d="m0 0c0-1.873-1.518-3.391-3.391-3.391-1.872 0-3.39 1.518-3.39 3.391s1.518 3.391 3.39 3.391c1.873 0 3.391-1.518 3.391-3.391" fill="#fcaf3b"/>
                                        </g>
                                        <g transform="translate(161.1 159.31)">
                                                  <path d="m0 0h-3.808c-0.407 0-0.737 0.33-0.737 0.737 0 0.408 0.33 0.738 0.737 0.738h3.808c0.407 0 0.737-0.33 0.737-0.738 0-0.407-0.33-0.737-0.737-0.737" fill="#b9d5ed"/>
                                        </g>
                                        <g transform="translate(168.72 159.31)">
                                                  <path d="m0 0h-5.823c-0.407 0-0.738 0.33-0.738 0.737 0 0.408 0.331 0.738 0.738 0.738h5.823c0.407 0 0.737-0.33 0.737-0.738 0-0.407-0.33-0.737-0.737-0.737" fill="#b9d5ed"/>
                                        </g>
                                        <g transform="translate(113.19 165.06)">
                                                  <path d="m0 0c0-1.873-1.518-3.391-3.391-3.391s-3.391 1.518-3.391 3.391 1.518 3.391 3.391 3.391 3.391-1.518 3.391-3.391" fill="#fcaf3b"/>
                                        </g>
                                        <g transform="translate(110.68 159.31)">
                                                  <path d="m0 0h-3.87c-0.407 0-0.737 0.33-0.737 0.737 0 0.408 0.33 0.738 0.737 0.738h3.87c0.407 0 0.737-0.33 0.737-0.738 0-0.407-0.33-0.737-0.737-0.737" fill="#b9d5ed"/>
                                        </g>
                                        <g transform="translate(104.81 159.31)">
                                                  <path d="m0 0h-1.584c-0.408 0-0.738 0.33-0.738 0.737 0 0.408 0.33 0.738 0.738 0.738h1.584c0.407 0 0.737-0.33 0.737-0.738 0-0.407-0.33-0.737-0.737-0.737" fill="#b9d5ed"/>
                                        </g>
                                        <g transform="translate(116.37 159.31)">
                                                  <path d="m0 0h-3.538c-0.407 0-0.737 0.33-0.737 0.737 0 0.408 0.33 0.738 0.737 0.738h3.538c0.407 0 0.737-0.33 0.737-0.738 0-0.407-0.33-0.737-0.737-0.737" fill="#b9d5ed"/>
                                        </g>
                                        <g transform="translate(118.52 148.46)">
                                                  <path d="m0 0v-14.508c0-0.569-0.461-1.03-1.03-1.03h-20.84c-0.568 0-1.03 0.461-1.03 1.03v14.508c0 0.569 0.462 1.03 1.03 1.03h20.84c0.569 0 1.03-0.461 1.03-1.03" fill="#4890ca"/>
                                        </g>
                                        <g transform="translate(147.42 148.46)">
                                                  <path d="m0 0v-14.508c0-0.569-0.461-1.03-1.03-1.03h-20.84c-0.569 0-1.03 0.461-1.03 1.03v14.508c0 0.569 0.461 1.03 1.03 1.03h20.84c0.569 0 1.03-0.461 1.03-1.03" fill="#4890ca"/>
                                        </g>
                                        <g transform="translate(176.31 148.46)">
                                                  <path d="m0 0v-14.508c0-0.569-0.461-1.03-1.03-1.03h-20.839c-0.569 0-1.03 0.461-1.03 1.03v14.508c0 0.569 0.461 1.03 1.03 1.03h20.839c0.569 0 1.03-0.461 1.03-1.03" fill="#4890ca"/>
                                        </g>
                                        <g transform="translate(98.127 204.19)">
                                                  <path d="m0 0h-2.637c-0.742 0-1.344 0.602-1.344 1.345v2.342c0 0.742 0.602 1.343 1.344 1.343h2.637c0.743 0 1.344-0.601 1.344-1.343v-2.342c0-0.743-0.601-1.345-1.344-1.345" fill="#fcaf3b"/>
                                        </g>
                                        <g transform="translate(139.05 205.98)">
                                                  <path d="m0 0h-3.888c-0.397 0-0.719 0.321-0.719 0.719 0 0.396 0.322 0.718 0.719 0.718h3.888c0.397 0 0.719-0.322 0.719-0.718 0-0.398-0.322-0.719-0.719-0.719" fill="#b9d5ed"/>
                                        </g>
                                        <g transform="translate(168.81 205.98)">
                                                  <path d="m0 0h-10.316c-0.397 0-0.719 0.321-0.719 0.719 0 0.396 0.322 0.718 0.719 0.718h10.316c0.397 0 0.719-0.322 0.719-0.718 0-0.398-0.322-0.719-0.719-0.719" fill="#b9d5ed"/>
                                        </g>
                                        <g transform="translate(177.25 205.98)">
                                                  <path d="m0 0h-5.653c-0.301 0-0.544 0.243-0.544 0.544v0.349c0 0.3 0.243 0.544 0.544 0.544h5.653c0.301 0 0.544-0.244 0.544-0.544v-0.349c0-0.301-0.243-0.544-0.544-0.544" fill="#b9d5ed"/>
                                        </g>
                                        <g transform="translate(150.77 205.98)">
                                                  <path d="m0 0h-7.859c-0.397 0-0.719 0.321-0.719 0.719 0 0.396 0.322 0.718 0.719 0.718h7.859c0.397 0 0.719-0.322 0.719-0.718 0-0.398-0.322-0.719-0.719-0.719" fill="#b9d5ed"/>
                                        </g>
                                        <g transform="translate(155.05 205.98)">
                                                  <path d="m0 0h-2.332c-0.396 0-0.718 0.321-0.718 0.719 0 0.396 0.322 0.718 0.718 0.718h2.332c0.397 0 0.719-0.322 0.719-0.718 0-0.398-0.322-0.719-0.719-0.719" fill="#b9d5ed"/>
                                        </g>
                                        <g transform="translate(191.84 196.15)">
                                                  <path d="M 0,0 V -24.205 H -111.747 V 0 c 0,0.046 0.003,0.09 0.012,0.134 H -0.012 C -0.003,0.09 0,0.046 0,0" fill="#fcaf3b"/>
                                        </g>
                                        <g transform="translate(115.33 196.15)">
                                                  <path d="M 0,0 V -24.205 H -35.234 V 0 c 0,0.046 0.001,0.09 0.004,0.134 H -0.004 C -0.001,0.09 0,0.046 0,0" fill="#4488bf"/>
                                        </g>
                                        <g transform="translate(118.65 182.53)">
                                                  <path d="m0 0-1.401 1.401c-0.115 0.116-0.115 0.302 0 0.416l1.345 1.346 0.417-0.417-1.136-1.137 1.192-1.192z" fill="#fff"/>
                                        </g>
                                        <g transform="translate(187.56 182.53)">
                                                  <path d="m0 0 1.4 1.401c0.116 0.116 0.116 0.302 0 0.416l-1.345 1.346-0.417-0.417 1.137-1.137-1.192-1.192z" fill="#fff"/>
                                        </g>
                                        <g transform="translate(75.25 160.64)">
                                                  <path d="m0 0c-0.846 0-1.531 0.686-1.531 1.531v18.21c0 0.846 0.685 1.531 1.531 1.531 0.845 0 1.531-0.685 1.531-1.531v-18.21c0-0.845-0.686-1.531-1.531-1.531" fill="#000712"/>
                                        </g>
                                        <g transform="translate(196.44 160.64)">
                                                  <path d="m0 0c-0.846 0-1.531 0.686-1.531 1.531v18.21c0 0.846 0.685 1.531 1.531 1.531 0.845 0 1.531-0.685 1.531-1.531v-18.21c0-0.845-0.686-1.531-1.531-1.531" fill="#000712"/>
                                        </g>
                                        <g>
                                                  <g>
                                                            <g clip-path="url(#clipPath454)" opacity=".14999">
                                                                      <g transform="translate(135.71 217.04)">
                                                                                <path d="m0 0-0.013-0.013-0.386-0.638-1.045-1.721-0.368-0.612-10.771-17.779-14.755-24.341-11.396-18.809-14.079-23.225-2.662-4.396h-0.154v39.959l3.925 6.471 14.749 24.341 10.778 17.779 0.367 0.612 1.044 1.721 0.387 0.638 6e-3 0.013z" fill="#fff"/>
                                                                      </g>
                                                            </g>
                                                  </g>
                                        </g>
                                        <g>
                                                  <g>
                                                            <g clip-path="url(#clipPath470)" opacity=".14999">
                                                                      <g transform="translate(159.42 217.04)">
                                                                                <path d="m0 0-0.013-0.013-0.386-0.638-1.038-1.721-0.374-0.612-4.022-6.64-0.871-1.438-5.879-9.701-14.754-24.341-11.404-18.809-2.417-3.99-9.83-16.218-1.825-3.017-2.668-4.396h-20.138l2.663 4.396 9.16 15.11 2.713 4.48 2.205 3.635 3.745 6.176 0.844 1.398 1.677 2.766 3.016 4.976 2.121 3.493 3.384 5.589 3.139 5.183 0.316 0.522 7.909 13.047 10.778 17.779 0.367 0.612 1.045 1.721 0.387 0.638 6e-3 0.013z" fill="#fff"/>
                                                                      </g>
                                                            </g>
                                                  </g>
                                        </g>
                                        <g>
                                                  <g>
                                                            <g clip-path="url(#clipPath486)" opacity=".14999">
                                                                      <g transform="translate(418.38 208.8)">
                                                                                <path d="m0 0c0 8e-3 -1e-3 0.016-5e-3 0.023v2.018c0 2.1-1.707 3.807-3.807 3.807h-43.14c-2.101 0-3.807-1.707-3.807-3.807v-81.523c0-2.1 1.706-3.807 3.807-3.807h43.14c2.1 0 3.807 1.707 3.807 3.807v75.296h5e-3z"/>
                                                                      </g>
                                                            </g>
                                                  </g>
                                        </g>
                                        <g transform="translate(410.97 210.84)">
                                                  <path d="m0 0v-81.523c0-2.1-1.706-3.807-3.807-3.807h-43.14c-2.1 0-3.807 1.707-3.807 3.807v81.523c0 2.1 1.707 3.807 3.807 3.807h43.14c2.101 0 3.807-1.707 3.807-3.807" fill="#001636"/>
                                        </g>
                                        <path d="m410.98 132.06h-50.754v76.763h50.754z" fill="#fff"/>
                                        <g transform="translate(410.98 208.8)">
                                                  <path d="m0 0v-4.186h-50.75v4.186c0 8e-3 1e-3 0.016 5e-3 0.023h50.739c4e-3 -7e-3 6e-3 -0.015 6e-3 -0.023" fill="#e8e8e8"/>
                                        </g>
                                        <g transform="translate(397.8 205.69)">
                                                  <path d="m0 0h-24.398c-0.662 0-1.198 0.536-1.198 1.197 0 0.66 0.536 1.197 1.198 1.197h24.398c0.661 0 1.196-0.537 1.196-1.197 0-0.661-0.535-1.197-1.196-1.197" fill="#fff"/>
                                        </g>
                                        <g transform="translate(410.97 154.42)">
                                                  <path d="M 0,0 V -14.166 H -50.75 V 0 c 0,0.026 0.002,0.053 0.006,0.078 H -0.005 C -0.001,0.053 0,0.026 0,0" fill="#b9d5ed"/>
                                        </g>
                                        <g transform="translate(388.66 168.08)">
                                                  <path d="m0 0c0-1.297-1.052-2.349-2.349-2.349s-2.348 1.052-2.348 2.349 1.051 2.349 2.348 2.349 2.349-1.052 2.349-2.349" fill="#fcaf3b"/>
                                        </g>
                                        <g transform="translate(387.69 164.09)">
                                                  <path d="m0 0h-6.791c-0.281 0-0.51 0.229-0.51 0.511 0 0.281 0.229 0.51 0.51 0.51h6.791c0.282 0 0.511-0.229 0.511-0.51 0-0.282-0.229-0.511-0.511-0.511" fill="#b9d5ed"/>
                                        </g>
                                        <g transform="translate(391.71 164.09)">
                                                  <path d="m0 0h-2.638c-0.282 0-0.51 0.229-0.51 0.511 0 0.281 0.228 0.51 0.51 0.51h2.638c0.282 0 0.511-0.229 0.511-0.51 0-0.282-0.229-0.511-0.511-0.511" fill="#b9d5ed"/>
                                        </g>
                                        <g transform="translate(406.67 168.08)">
                                                  <path d="m0 0c0-1.297-1.052-2.349-2.349-2.349s-2.348 1.052-2.348 2.349 1.051 2.349 2.348 2.349 2.349-1.052 2.349-2.349" fill="#fcaf3b"/>
                                        </g>
                                        <g transform="translate(403 164.09)">
                                                  <path d="m0 0h-2.638c-0.282 0-0.51 0.229-0.51 0.511 0 0.281 0.228 0.51 0.51 0.51h2.638c0.282 0 0.511-0.229 0.511-0.51 0-0.282-0.229-0.511-0.511-0.511" fill="#b9d5ed"/>
                                        </g>
                                        <g transform="translate(408.28 164.09)">
                                                  <path d="m0 0h-4.033c-0.282 0-0.511 0.229-0.511 0.511 0 0.281 0.229 0.51 0.511 0.51h4.033c0.282 0 0.511-0.229 0.511-0.51 0-0.282-0.229-0.511-0.511-0.511" fill="#b9d5ed"/>
                                        </g>
                                        <g transform="translate(369.81 168.08)">
                                                  <path d="m0 0c0-1.297-1.052-2.349-2.35-2.349-1.296 0-2.348 1.052-2.348 2.349s1.052 2.349 2.348 2.349c1.298 0 2.35-1.052 2.35-2.349" fill="#fcaf3b"/>
                                        </g>
                                        <g transform="translate(368.08 164.09)">
                                                  <path d="m0 0h-2.681c-0.282 0-0.51 0.229-0.51 0.511 0 0.281 0.228 0.51 0.51 0.51h2.681c0.282 0 0.511-0.229 0.511-0.51 0-0.282-0.229-0.511-0.511-0.511" fill="#b9d5ed"/>
                                        </g>
                                        <g transform="translate(364.01 164.09)">
                                                  <path d="m0 0h-1.099c-0.281 0-0.509 0.229-0.509 0.511 0 0.281 0.228 0.51 0.509 0.51h1.099c0.281 0 0.51-0.229 0.51-0.51 0-0.282-0.229-0.511-0.51-0.511" fill="#b9d5ed"/>
                                        </g>
                                        <g transform="translate(372.02 164.09)">
                                                  <path d="m0 0h-2.451c-0.282 0-0.511 0.229-0.511 0.511 0 0.281 0.229 0.51 0.511 0.51h2.451c0.281 0 0.51-0.229 0.51-0.51 0-0.282-0.229-0.511-0.51-0.511" fill="#b9d5ed"/>
                                        </g>
                                        <g transform="translate(377.67 150.67)">
                                                  <path d="m0 0v-6.59c0-0.258-0.209-0.468-0.468-0.468h-9.464c-0.258 0-0.467 0.21-0.467 0.468v6.59c0 0.258 0.209 0.468 0.467 0.468h9.464c0.259 0 0.468-0.21 0.468-0.468" fill="#4890ca"/>
                                        </g>
                                        <g transform="translate(390.8 150.67)">
                                                  <path d="m0 0v-6.59c0-0.258-0.21-0.468-0.468-0.468h-9.464c-0.258 0-0.467 0.21-0.467 0.468v6.59c0 0.258 0.209 0.468 0.467 0.468h9.464c0.258 0 0.468-0.21 0.468-0.468" fill="#4890ca"/>
                                        </g>
                                        <g transform="translate(403.92 150.67)">
                                                  <path d="m0 0v-6.59c0-0.258-0.21-0.468-0.468-0.468h-9.465c-0.257 0-0.467 0.21-0.467 0.468v6.59c0 0.258 0.21 0.468 0.467 0.468h9.465c0.258 0 0.468-0.21 0.468-0.468" fill="#4890ca"/>
                                        </g>
                                        <g transform="translate(367.77 196.47)">
                                                  <path d="m0 0h-2.349c-0.662 0-1.198 0.537-1.198 1.198v2.086c0 0.661 0.536 1.198 1.198 1.198h2.349c0.661 0 1.197-0.537 1.197-1.198v-2.086c0-0.661-0.536-1.198-1.197-1.198" fill="#b9d5ed"/>
                                        </g>
                                        <g transform="translate(378.2 198.18)">
                                                  <path d="m0 0h-2.89c-0.295 0-0.533 0.239-0.533 0.534s0.238 0.534 0.533 0.534h2.89c0.295 0 0.533-0.239 0.533-0.534s-0.238-0.534-0.533-0.534" fill="#b9d5ed"/>
                                        </g>
                                        <g transform="translate(400.31 198.18)">
                                                  <path d="m0 0h-7.664c-0.295 0-0.534 0.239-0.534 0.534s0.239 0.534 0.534 0.534h7.664c0.295 0 0.534-0.239 0.534-0.534s-0.239-0.534-0.534-0.534" fill="#b9d5ed"/>
                                        </g>
                                        <g transform="translate(406.58 198.18)">
                                                  <path d="m0 0h-4.2c-0.223 0-0.404 0.182-0.404 0.404v0.26c0 0.223 0.181 0.404 0.404 0.404h4.2c0.224 0 0.404-0.181 0.404-0.404v-0.26c0-0.222-0.18-0.404-0.404-0.404" fill="#b9d5ed"/>
                                        </g>
                                        <g transform="translate(386.91 198.18)">
                                                  <path d="m0 0h-5.84c-0.295 0-0.534 0.239-0.534 0.534s0.239 0.534 0.534 0.534h5.84c0.295 0 0.533-0.239 0.533-0.534s-0.238-0.534-0.533-0.534" fill="#b9d5ed"/>
                                        </g>
                                        <g transform="translate(390.09 198.18)">
                                                  <path d="m0 0h-1.731c-0.295 0-0.535 0.239-0.535 0.534s0.24 0.534 0.535 0.534h1.731c0.295 0 0.534-0.239 0.534-0.534s-0.239-0.534-0.534-0.534" fill="#b9d5ed"/>
                                        </g>
                                        <g transform="translate(410.97 191.11)">
                                                  <path d="M 0,0 V -16.898 H -50.75 V 0 c 0,0.031 0.002,0.062 0.006,0.093 H -0.005 C -0.001,0.062 0,0.031 0,0" fill="#fcaf3b"/>
                                        </g>
                                        <g transform="translate(376.22 191.11)">
                                                  <path d="M 0,0 V -16.898 H -16.002 V 0 c 0,0.031 10e-4,0.062 0.002,0.093 H -0.002 C 0,0.062 0,0.031 0,0" fill="#4488bf"/>
                                        </g>
                                        <g transform="translate(377.73 181.99)">
                                                  <path d="m0 0-0.636 0.637c-0.052 0.051-0.052 0.136 0 0.189l0.611 0.611 0.189-0.19-0.516-0.516 0.541-0.542z" fill="#fff"/>
                                        </g>
                                        <g transform="translate(409.02 181.99)">
                                                  <path d="m0 0 0.636 0.637c0.052 0.051 0.052 0.136 0 0.189l-0.611 0.611-0.189-0.19 0.517-0.516-0.542-0.542z" fill="#fff"/>
                                        </g>
                                        <g>
                                                  <g>
                                                            <g clip-path="url(#clipPath612)" opacity=".14999">
                                                                      <g transform="translate(396.82 208.83)">
                                                                                <path d="m0 0-36.597-36.597v17.081l19.516 19.516z" fill="#fff"/>
                                                                      </g>
                                                            </g>
                                                  </g>
                                        </g>
                                        <g>
                                                  <g>
                                                            <g clip-path="url(#clipPath628)" opacity=".14999">
                                                                      <g transform="translate(408.02 208.83)">
                                                                                <path d="m0 0-47.803-47.803v7.449l40.355 40.354z" fill="#fff"/>
                                                                      </g>
                                                            </g>
                                                  </g>
                                        </g>
                                        <g>
                                                  <g>
                                                            <g clip-path="url(#clipPath644)" opacity=".14999">
                                                                      <g transform="translate(410.97 174.19)">
                                                                                <path d="m0 0v-14.843l-27.279-27.279h-14.843z" fill="#fff"/>
                                                                      </g>
                                                            </g>
                                                  </g>
                                        </g>
                                        <g>
                                                  <g>
                                                            <g clip-path="url(#clipPath660)" opacity=".14999">
                                                                      <g transform="translate(97.988 236.51)">
                                                                                <path d="m0 0h-42.402c-1.107 0-2.004-0.897-2.004-2.004v-25.441c0-1.108 0.897-2.005 2.004-2.005h23.745l8.423-8.422c0.505-0.505 1.368-0.148 1.368 0.567v7.855h8.866c1.107 0 2.004 0.897 2.004 2.005v25.441c0 1.107-0.897 2.004-2.004 2.004"/>
                                                                      </g>
                                                            </g>
                                                  </g>
                                        </g>
                                        <g transform="translate(93.363 236.51)">
                                                  <path d="m0 0h-42.402c-1.107 0-2.004-0.897-2.004-2.004v-25.441c0-1.108 0.897-2.005 2.004-2.005h23.745l8.422-8.422c0.506-0.505 1.369-0.148 1.369 0.567v7.855h8.866c1.107 0 2.004 0.897 2.004 2.005v25.441c0 1.107-0.897 2.004-2.004 2.004" fill="#4890ca"/>
                                        </g>
                                        <g>
                                                  <g>
                                                            <g clip-path="url(#clipPath680)" opacity=".10001">
                                                                      <g transform="translate(86.974 211.5)">
                                                                                <path d="m0 0h-29.454c-0.559 0-1.012 0.453-1.012 1.012v16.581h31.478v-16.581c0-0.559-0.453-1.012-1.012-1.012" fill="#fff"/>
                                                                      </g>
                                                            </g>
                                                  </g>
                                        </g>
                                        <g transform="translate(88.044 229.09)">
                                                  <path d="m0 0h-31.537v1.577c0 0.717 0.581 1.299 1.299 1.299h28.939c0.717 0 1.299-0.582 1.299-1.299z" fill="#fff"/>
                                        </g>
                                        <g transform="translate(72.276 225.34)">
                                                  <path d="m0 0c-2.681 0-4.862-2.181-4.862-4.862s2.181-4.863 4.862-4.863 4.862 2.182 4.862 4.863-2.181 4.862-4.862 4.862m0-11.187c-3.487 0-6.325 2.837-6.325 6.325 0 3.487 2.838 6.325 6.325 6.325s6.324-2.838 6.324-6.325c0-3.488-2.837-6.325-6.324-6.325" fill="#fff"/>
                                        </g>
                                        <g transform="translate(71.02 222.98)">
                                                  <path d="m0 0 3.941-2.275c0.175-0.101 0.175-0.353 0-0.454l-3.941-2.275c-0.174-0.1-0.393 0.025-0.393 0.227v4.55c0 0.202 0.219 0.328 0.393 0.227" fill="#fff"/>
                                        </g>
                                        <g>
                                                  <g>
                                                            <g clip-path="url(#clipPath708)" opacity=".14999">
                                                                      <g transform="translate(198.83 325.56)">
                                                                                <path d="m0 0h-42.401c-1.108 0-2.005-0.897-2.005-2.004v-25.441c0-1.108 0.897-2.005 2.005-2.005h23.744l8.423-8.422c0.505-0.505 1.368-0.148 1.368 0.567v7.855h8.866c1.107 0 2.005 0.897 2.005 2.005v25.441c0 1.107-0.898 2.004-2.005 2.004"/>
                                                                      </g>
                                                            </g>
                                                  </g>
                                        </g>
                                        <g transform="translate(194.2 325.56)">
                                                  <path d="m0 0h-42.402c-1.107 0-2.004-0.897-2.004-2.004v-25.442c0-1.107 0.897-2.004 2.004-2.004h23.745l8.423-8.422c0.505-0.505 1.368-0.148 1.368 0.567v7.855h8.866c1.107 0 2.004 0.897 2.004 2.004v25.442c0 1.107-0.897 2.004-2.004 2.004" fill="#fcaf3b"/>
                                        </g>
                                        <g transform="translate(181.65 314.08)">
                                                  <path d="m0 0h-17.468c-0.678 0-1.228 0.55-1.228 1.229 0 0.678 0.55 1.228 1.228 1.228h17.468c0.679 0 1.229-0.55 1.229-1.228 0-0.679-0.55-1.229-1.229-1.229" fill="#fff"/>
                                        </g>
                                        <g transform="translate(186.6 310.22)">
                                                  <path d="m0 0h-27.371c-0.678 0-1.229 0.55-1.229 1.228s0.551 1.229 1.229 1.229h27.371c0.678 0 1.228-0.551 1.228-1.229s-0.55-1.228-1.228-1.228" fill="#fff"/>
                                        </g>
                                        <g transform="translate(179.67 306.36)">
                                                  <path d="m0 0h-13.51c-0.678 0-1.228 0.55-1.228 1.228s0.55 1.228 1.228 1.228h13.51c0.678 0 1.228-0.55 1.228-1.228s-0.55-1.228-1.228-1.228" fill="#fff"/>
                                        </g>
                                        <g>
                                                  <g>
                                                            <g clip-path="url(#clipPath740)" opacity=".14999">
                                                                      <g transform="translate(419.09 290.97)">
                                                                                <path d="m0 0c4.863 10.282 0.472 22.56-9.81 27.424-10.281 4.864-22.559 0.472-27.423-9.81-4.641-9.809-0.852-21.431 8.435-26.703-1.49-0.396-2.84-0.699-3.717-0.884-0.232-0.049-0.231-0.383 2e-3 -0.43 4.257-0.859 8.777-1.243 12.741-1.391 0.18-7e-3 0.354 1e-3 0.524 0.015 7.935-0.239 15.636 4.144 19.248 11.779"/>
                                                                      </g>
                                                            </g>
                                                  </g>
                                        </g>
                                        <g transform="translate(414.47 290.97)">
                                                  <path d="m0 0c4.864 10.282 0.473 22.56-9.81 27.424-10.281 4.864-22.559 0.472-27.422-9.81-4.642-9.809-0.852-21.431 8.435-26.703-1.491-0.396-2.841-0.699-3.718-0.884-0.232-0.049-0.23-0.383 3e-3 -0.43 4.256-0.859 8.776-1.243 12.74-1.391 0.181-7e-3 0.354 1e-3 0.524 0.015 7.935-0.239 15.636 4.144 19.248 11.779" fill="#4890ca"/>
                                        </g>
                                        <g>
                                                  <g>
                                                            <g clip-path="url(#clipPath760)" opacity=".10001">
                                                                      <g transform="translate(408.71 305.57)">
                                                                                <path d="m0 0v-12.129c0-0.664-0.517-1.212-1.157-1.212h-22.136c-0.634 0-1.157 0.548-1.157 1.212v12.129c0 0.447 0.234 0.837 0.578 1.046 0.173 0.109 0.365 0.166 0.579 0.166h22.136c0.214 0 0.406-0.057 0.579-0.166 0.344-0.202 0.578-0.599 0.578-1.046" fill="#fff"/>
                                                                      </g>
                                                            </g>
                                                  </g>
                                        </g>
                                        <g transform="translate(408.14 306.62)">
                                                  <path d="m0 0-10.827-11.35c-0.221-0.224-0.51-0.354-0.82-0.354-0.303 0-0.599 0.13-0.813 0.354l-10.834 11.35c0.173 0.108 0.365 0.166 0.579 0.166h0.24l10.497-11.004c0.179-0.187 0.49-0.187 0.662 0l10.503 11.004h0.234c0.214 0 0.406-0.058 0.579-0.166" fill="#fff"/>
                                        </g>
                                        <g transform="translate(407.17 292.23)">
                                                  <path d="m0 0h-0.971l-5.895 6.176 0.481 0.513z" fill="#fff"/>
                                        </g>
                                        <g transform="translate(392.68 298.41)">
                                                  <path d="m0 0-5.896-6.176h-0.977l6.384 6.689z" fill="#fff"/>
                                        </g>
                                        <g>
                                                  <g>
                                                            <g clip-path="url(#clipPath788)" opacity=".14999">
                                                                      <g transform="translate(438.28 242.94)">
                                                                                <path d="m0 0h-36.292c-1.106 0-2.004-0.897-2.004-2.005v-25.44c0-1.108 0.898-2.005 2.004-2.005h8.866v-7.856c0-0.714 0.864-1.071 1.368-0.566l8.423 8.422h17.635c1.107 0 2.005 0.897 2.005 2.005v25.44c0 1.108-0.898 2.005-2.005 2.005"/>
                                                                      </g>
                                                            </g>
                                                  </g>
                                        </g>
                                        <g transform="translate(397.36 242.94)">
                                                  <path d="m0 0h36.292c1.106 0 2.004-0.897 2.004-2.005v-25.44c0-1.108-0.898-2.005-2.004-2.005h-17.636l-8.422-8.422c-0.505-0.505-1.369-0.148-1.369 0.566v7.856h-8.865c-1.107 0-2.005 0.897-2.005 2.005v25.44c0 1.108 0.898 2.005 2.005 2.005" fill="#fcaf3b"/>
                                        </g>
                                        <g transform="translate(413.8 219.87)">
                                                  <path d="m0 0c-1.913 0.309-3.628 1.218-4.946 2.525 0.084 0.084 0.168 0.168 0.256 0.247 0.277 0.257 0.575 0.491 0.883 0.711 0.949-1.464 2.262-2.67 3.814-3.484-2e-3 0-4e-3 0-7e-3 1e-3m2.907 0c-3e-3 -1e-3 -5e-3 -1e-3 -8e-3 -1e-3 1.551 0.814 2.865 2.019 3.813 3.482 0.308-0.219 0.604-0.453 0.883-0.709 0.089-0.079 0.172-0.164 0.257-0.247-1.319-1.307-3.032-2.216-4.945-2.525m7.611 9.675v-1e-3h-2.205c-0.105 1.531-0.554 2.969-1.266 4.239 2e-3 1e-3 3e-3 2e-3 4e-3 2e-3 0.453 0.299 0.877 0.634 1.274 1.005 1.238-1.429 2.04-3.249 2.193-5.245m-2.923 5.993c-0.343-0.316-0.711-0.606-1.101-0.868-1e-3 -1e-3 -2e-3 -1e-3 -3e-3 -2e-3 -0.927 1.316-2.158 2.402-3.592 3.155 3e-3 0 5e-3 -1e-3 8e-3 -1e-3 1.792-0.29 3.408-1.103 4.688-2.284m-7.595 2.284c3e-3 0 5e-3 1e-3 7e-3 1e-3 -1.434-0.753-2.664-1.839-3.592-3.154 0 0-1e-3 0-2e-3 1e-3 -0.39 0.262-0.759 0.552-1.103 0.868 1.279 1.181 2.898 1.994 4.69 2.284m-5.421-3.032c0.396-0.369 0.821-0.706 1.275-1.007 0-1e-3 2e-3 -2e-3 3e-3 -3e-3 -0.711-1.27-1.158-2.706-1.262-4.236h-2.208v1e-3c0.152 1.996 0.955 3.816 2.192 5.245m1.98-9.968c-0.554 1.116-0.885 2.36-0.935 3.675h5.306v-2.424h-1e-3c-1.501-0.076-2.917-0.481-4.175-1.141-0.067-0.035-0.131-0.074-0.195-0.11m0.518-0.911c0.08 0.044 0.159 0.09 0.241 0.132 1.094 0.562 2.316 0.907 3.611 0.98h1e-3v-4.443c-1.578 0.724-2.915 1.886-3.853 3.331m8.752-1e-3c-0.937-1.444-2.274-2.606-3.852-3.33v4.443c1.292-0.073 2.513-0.418 3.606-0.978 0.084-0.042 0.164-0.09 0.246-0.135m0.519 0.91c-0.068 0.037-0.134 0.076-0.202 0.112-1.258 0.662-2.67 1.065-4.169 1.141v2.424h5.306c-0.05-1.316-0.382-2.561-0.935-3.677m0.915 4.724h-5.286v2.564c1.501 0.076 2.915 0.482 4.172 1.14 0.62-1.113 1.011-2.368 1.114-3.704m-1.678 4.595c-1.093-0.563-2.314-0.908-3.608-0.981v3.954c1.446-0.663 2.689-1.694 3.608-2.973m-8.265-2e-3c0.92 1.28 2.163 2.312 3.61 2.975v-3.955h-1e-3c-1.292 0.073-2.514 0.419-3.608 0.979 0 1e-3 -1e-3 1e-3 -1e-3 1e-3m3.61-4.593h-5.285c0.101 1.336 0.494 2.592 1.113 3.706l1e-3 -1e-3c1.258-0.662 2.671-1.065 4.17-1.141h1e-3zm6.306-5.28c0.652 1.279 1.037 2.713 1.089 4.233h2.211c-0.075-2.009-0.807-3.853-1.985-5.324-0.075 0.073-0.149 0.147-0.226 0.218-0.34 0.317-0.706 0.605-1.089 0.873m-14.867 4.233h2.213c0.052-1.52 0.437-2.954 1.088-4.233-0.383-0.266-0.748-0.553-1.091-0.873-0.076-0.07-0.15-0.144-0.225-0.217-1.178 1.471-1.911 3.315-1.985 5.323m-1.055 0.349c0-5.591 4.55-10.138 10.138-10.138 5.591 0 10.138 4.547 10.138 10.138 0 2.561-0.955 4.906-2.529 6.692-0.231 0.265-0.477 0.516-0.736 0.751-1.807 1.672-4.222 2.695-6.873 2.695-2.65 0-5.065-1.023-6.873-2.695-0.259-0.235-0.505-0.486-0.735-0.751-1.573-1.786-2.53-4.131-2.53-6.692" fill="#fff"/>
                                        </g>
                              </g>
                    </g>
          </g>
</svg>
