<svg version="1.1" viewBox="0 0 490.67 463.66" xmlns="http://www.w3.org/2000/svg">
          <defs>
                    <clipPath id="clipPath20">
                              <path d="m0 500h500v-500h-500z"/>
                    </clipPath>
                    <clipPath id="clipPath112">
                              <path d="m0 500h500v-500h-500z"/>
                    </clipPath>
                    <clipPath id="clipPath324">
                              <path d="m319.68 194.14h46.38v-52.79h-46.38z"/>
                    </clipPath>
          </defs>
          <g transform="matrix(1.3333 0 0 -1.3333 -88 536.95)">
                    <g>
                              <g clip-path="url(#clipPath20)">
                                        <g transform="translate(434,87.709)">
                                                  <path d="m0 0c0 3.196-82.38 5.787-184 5.787-101.62 0-184-2.591-184-5.787 0-3.195 82.379-5.787 184-5.787 101.62 0 184 2.592 184 5.787" fill="#5fb360"/>
                                        </g>
                                        <g transform="translate(409.31 60.754)">
                                                  <path d="m0 0c0 3.196-71.325 5.787-159.31 5.787-87.983 0-159.31-2.591-159.31-5.787s71.326-5.787 159.31-5.787c87.985 0 159.31 2.591 159.31 5.787" fill="#5fb360"/>
                                        </g>
                                        <g transform="translate(294.97 71.235)">
                                                  <path d="M 0,0 H -132.013 V -10.293 H 16.485 l -3.558,4.254 C 9.724,-2.212 4.99,0 0,0" fill="#fff"/>
                                        </g>
                                        <g transform="translate(171.88 71.235)">
                                                  <path d="m0 0h-37.391c-1.218 0-2.206-0.988-2.206-2.206v-5.881c0-1.219 0.988-2.206 2.206-2.206h53.876l-3.559 4.254c-3.202 3.827-7.936 6.039-12.926 6.039" fill="#b8f9ff"/>
                                        </g>
                                        <g transform="translate(157.23 75.436)">
                                                  <path d="m0 0h-8.507c-1.131 0-2.048-0.917-2.048-2.048v-2.152h12.603v2.152c0 1.131-0.917 2.048-2.048 2.048" fill="#2a3958"/>
                                        </g>
                                        <g transform="translate(175.29 75.436)">
                                                  <path d="m0 0h-8.507c-1.131 0-2.048-0.917-2.048-2.048v-2.152h12.603v2.152c0 1.131-0.917 2.048-2.048 2.048" fill="#2a3958"/>
                                        </g>
                                        <g transform="translate(193.36 75.436)">
                                                  <path d="m0 0h-8.507c-1.131 0-2.048-0.917-2.048-2.048v-2.152h12.603v2.152c0 1.131-0.917 2.048-2.048 2.048" fill="#2a3958"/>
                                        </g>
                                        <g transform="translate(211.42 75.436)">
                                                  <path d="m0 0h-8.507c-1.131 0-2.048-0.917-2.048-2.048v-2.152h12.603v2.152c0 1.131-0.917 2.048-2.048 2.048" fill="#2a3958"/>
                                        </g>
                                        <g transform="translate(247.55 75.436)">
                                                  <path d="m0 0h-8.507c-1.131 0-2.048-0.917-2.048-2.048v-2.152h12.603v2.152c0 1.131-0.917 2.048-2.048 2.048" fill="#2a3958"/>
                                        </g>
                                        <g transform="translate(265.62 75.436)">
                                                  <path d="m0 0h-8.507c-1.131 0-2.048-0.917-2.048-2.048v-2.152h12.603v2.152c0 1.131-0.917 2.048-2.048 2.048" fill="#2a3958"/>
                                        </g>
                                        <g transform="translate(283.68 75.436)">
                                                  <path d="m0 0h-8.507c-1.131 0-2.048-0.917-2.048-2.048v-2.152h12.603v2.152c0 1.131-0.917 2.048-2.048 2.048" fill="#2a3958"/>
                                        </g>
                                        <g transform="translate(159.96 75.436)">
                                                  <path d="m0 0h-8.507c-1.131 0-2.048-0.917-2.048-2.048v-2.152h12.603v2.152c0 1.131-0.917 2.048-2.048 2.048" fill="#3a5799"/>
                                        </g>
                                        <g transform="translate(178.03 75.436)">
                                                  <path d="m0 0h-8.507c-1.131 0-2.048-0.917-2.048-2.048v-2.152h12.603v2.152c0 1.131-0.917 2.048-2.048 2.048" fill="#3a5799"/>
                                        </g>
                                        <g transform="translate(196.09 75.436)">
                                                  <path d="m0 0h-8.507c-1.131 0-2.048-0.917-2.048-2.048v-2.152h12.603v2.152c0 1.131-0.917 2.048-2.048 2.048" fill="#3a5799"/>
                                        </g>
                                        <g transform="translate(232.22 75.436)">
                                                  <path d="m0 0h-26.572c-1.131 0-2.048-0.917-2.048-2.048v-2.152h30.668v2.152c0 1.131-0.917 2.048-2.048 2.048" fill="#3a5799"/>
                                        </g>
                                        <g transform="translate(250.28 75.436)">
                                                  <path d="m0 0h-8.507c-1.131 0-2.048-0.917-2.048-2.048v-2.152h12.603v2.152c0 1.131-0.917 2.048-2.048 2.048" fill="#3a5799"/>
                                        </g>
                                        <g transform="translate(268.35 75.436)">
                                                  <path d="m0 0h-8.507c-1.131 0-2.048-0.917-2.048-2.048v-2.152h12.603v2.152c0 1.131-0.917 2.048-2.048 2.048" fill="#3a5799"/>
                                        </g>
                                        <g transform="translate(286.41 75.436)">
                                                  <path d="m0 0h-8.507c-1.132 0-2.049-0.917-2.049-2.048v-2.152h12.604v2.152c0 1.131-0.917 2.048-2.048 2.048" fill="#3a5799"/>
                                        </g>
                                        <g transform="translate(163.28 382.78)">
                                                  <path d="m0 0h-19.822c-6.003 0-10.87-4.867-10.87-10.87v-14.067c0-4.76 3.065-8.796 7.325-10.267l0.348-7.539 9.766 6.936h13.253c6.003 0 10.87 4.867 10.87 10.87v14.067c0 6.003-4.867 10.87-10.87 10.87" fill="#b7f8fe"/>
                                        </g>
                                        <g transform="translate(187.22 402.71)">
                                                  <path d="m0 0h-26.151c-7.92 0-14.34-6.42-14.34-14.341v-18.558c0-7.92 6.42-14.341 14.34-14.341h17.485l12.884-9.15 0.458 9.946c5.621 1.941 9.664 7.265 9.664 13.545v18.558c0 7.921-6.42 14.341-14.34 14.341" fill="#fff"/>
                                        </g>
                              </g>
                    </g>
                    <text transform="matrix(1 0 0 -1 153.37 370.78)" fill="#19803e" font-family="'Montserrat Extra Bold'" font-size="22.74px" font-weight="800">
                              <tspan x="0 11.711048 16.691086 24.96841 29.948448" y="0">&lt; / &gt;</tspan>
                    </text>
                    <g>
                              <g clip-path="url(#clipPath112)">
                                        <g transform="translate(273.8 96.055)">
                                                  <path d="m0 0h-45.287l6.159 45.286h32.969z" fill="#98edf5"/>
                                        </g>
                                        <g transform="translate(195.52 87.709)">
                                                  <path d="m0 0 0.818 1.26c2.873 4.42 7.787 7.086 13.058 7.086h77.89c5.47 0 10.54-2.87 13.354-7.561l0.471-0.785z" fill="#b8f9ff"/>
                                        </g>
                                        <g transform="translate(384.72 322.86)">
                                                  <path d="m0 0v-175.13c0-3.53-2.859-6.38-6.38-6.38h-265.98c-3.53 0-6.39 2.85-6.39 6.38v175.13c0 0.16 0 0.32 0.01 0.48 0.15 4.84 4.06 8.75 8.9 8.9 0.16 0.01 0.32 0.01 0.48 0.01h260.16c0.1 0 0.2-0.01 0.301-0.01 4.839-0.15 8.739-4.05 8.889-8.9 0.01-0.16 0.01-0.32 0.01-0.48" fill="#b8f9ff"/>
                                        </g>
                                        <g transform="translate(105.97 322.86)">
                                                  <path d="m0 0v-145.85h278.75v145.85c0 5.183-4.201 9.384-9.384 9.384h-259.98c-5.183 0-9.384-4.201-9.384-9.384" fill="#202d45"/>
                                        </g>
                                        <g transform="translate(394.03 323.14)">
                                                  <path d="m0 0v-175.42c0-3.53-2.86-6.38-6.391-6.38h-265.98c-3.52 0-6.38 2.85-6.38 6.38v175.42c0 0.12 0 0.24 0.01 0.36 0.24 4.71 4.01 8.49 8.719 8.73 0.121 0.01 0.241 0.01 0.361 0.01h260.56c0.121 0 0.241 0 0.361-0.01 4.719-0.24 8.49-4.01 8.729-8.73 0.011-0.12 0.011-0.24 0.011-0.36" fill="#fff"/>
                                        </g>
                                        <g transform="translate(263.76 154.43)">
                                                  <path d="m0 0c2.622 3.649 1.789 8.733-1.86 11.356-3.65 2.623-8.735 1.79-11.357-1.86-2.622-3.649-1.789-8.734 1.861-11.356 3.649-2.622 8.733-1.789 11.356 1.86" fill="#b8f9ff"/>
                                        </g>
                                        <g transform="translate(204.64 87.709)">
                                                  <path d="m0 0 0.819 1.26c2.872 4.42 7.786 7.086 13.058 7.086h77.889c5.47 0 10.54-2.87 13.354-7.561l0.471-0.785z" fill="#fff"/>
                                        </g>
                                        <g transform="translate(115.28 323.15)">
                                                  <path d="m0 0v-146.14h278.75v146.14c0 5.022-4.072 9.093-9.093 9.093h-260.56c-5.022 0-9.093-4.071-9.093-9.093" fill="#2a3958"/>
                                        </g>
                                        <g transform="translate(124.46 317.89)">
                                                  <path d="m0 0v-127.77c0-2.743 2.223-4.965 4.965-4.965h252.34c2.742 0 4.965 2.222 4.965 4.965v127.77c0 2.742-2.223 4.965-4.965 4.965h-252.34c-2.742 0-4.965-2.223-4.965-4.965" fill="#3a5799"/>
                                        </g>
                                        <g transform="translate(279.8 96.055)">
                                                  <path d="m0 0h-45.287l6.159 45.286h32.969z" fill="#b8f9ff"/>
                                        </g>
                                        <g transform="translate(386.72 301.64)">
                                                  <path d="m0 0h-262.26v16.744c0 2.466 1.999 4.465 4.465 4.465h253.34c2.466 0 4.465-1.999 4.465-4.465z" fill="#fff"/>
                                        </g>
                                        <g transform="translate(350.8 312.25)">
                                                  <path d="m0 0c0 1.672-1.355 3.027-3.027 3.027s-3.028-1.355-3.028-3.027 1.356-3.028 3.028-3.028 3.027 1.356 3.027 3.028" fill="#f7622a"/>
                                        </g>
                                        <g transform="translate(362.26 312.25)">
                                                  <path d="m0 0c0 1.672-1.355 3.027-3.027 3.027s-3.028-1.355-3.028-3.027 1.356-3.028 3.028-3.028 3.027 1.356 3.027 3.028" fill="#22a851"/>
                                        </g>
                                        <g transform="translate(373.73 312.25)">
                                                  <path d="m0 0c0 1.672-1.355 3.027-3.027 3.027s-3.028-1.355-3.028-3.027 1.356-3.028 3.028-3.028 3.027 1.356 3.027 3.028" fill="#fcd740"/>
                                        </g>
                                        <path d="m157.05 280.93h-14.569v5.333h14.569z" fill="#f7622a"/>
                                        <path d="m191.38 280.93h-26.284v5.333h26.284z" fill="#fcd740"/>
                                        <path d="m207.08 269.6h-54.594v5.333h54.594z" fill="#fff"/>
                                        <path d="m229.7 269.6h-14.568v5.333h14.568z" fill="#3fc9ee"/>
                                        <path d="m207.08 258.26h-54.594v5.333h54.594z" fill="#fff"/>
                                        <path d="m229.7 258.26h-14.568v5.333h14.568z" fill="#3fc9ee"/>
                                        <path d="m207.08 246.93h-54.594v5.333h54.594z" fill="#fff"/>
                                        <path d="m229.7 246.93h-14.568v5.333h14.568z" fill="#3fc9ee"/>
                                        <path d="m157.05 235.6h-14.569v5.334h14.569z" fill="#f7622a"/>
                                        <path d="m191.38 235.6h-26.284v5.334h26.284z" fill="#fcd740"/>
                                        <path d="m179.78 224.26h-27.297v5.333h27.297z" fill="#3fc9ee"/>
                                        <path d="m229.7 224.26h-41.865v5.333h41.865z" fill="#fff"/>
                                        <path d="m179.78 212.93h-27.297v5.333h27.297z" fill="#3fc9ee"/>
                                        <path d="m229.7 212.93h-41.865v5.333h41.865z" fill="#fff"/>
                                        <path d="m179.78 201.6h-27.297v5.334h27.297z" fill="#3fc9ee"/>
                                        <path d="m229.7 201.6h-41.865v5.334h41.865z" fill="#fff"/>
                                        <path d="m294.18 280.93h-14.568v5.333h14.568z" fill="#fcd740"/>
                                        <path d="m328.51 280.93h-26.284v5.333h26.284z" fill="#22a851"/>
                                        <path d="m302.23 269.6h-12.611v5.333h12.611z" fill="#fff"/>
                                        <path d="m366.82 269.6h-56.551v5.333h56.551z" fill="#3fc9ee"/>
                                        <path d="m302.23 258.26h-12.611v5.333h12.611z" fill="#fff"/>
                                        <path d="m366.82 258.26h-56.551v5.333h56.551z" fill="#f7622a"/>
                                        <path d="m302.23 246.93h-12.611v5.333h12.611z" fill="#fff"/>
                                        <path d="m366.82 246.93h-56.551v5.333h56.551z" fill="#3fc9ee"/>
                                        <path d="m294.18 235.6h-14.568v5.334h14.568z" fill="#fcd740"/>
                                        <path d="m328.51 235.6h-26.284v5.334h26.284z" fill="#22a851"/>
                                        <path d="m334.52 224.26h-44.911v5.333h44.911z" fill="#3fc9ee"/>
                                        <path d="m366.82 224.26h-24.251v5.333h24.251z" fill="#fff"/>
                                        <path d="m334.52 212.93h-44.911v5.333h44.911z" fill="#22a851"/>
                                        <path d="m366.82 212.93h-24.251v5.333h24.251z" fill="#fff"/>
                                        <path d="m334.52 201.6h-44.911v5.334h44.911z" fill="#3fc9ee"/>
                                        <path d="m366.82 201.6h-24.251v5.334h24.251z" fill="#fff"/>
                                        <g transform="translate(254.65 289.26)">
                                                  <path d="m0 0v-96.287" fill="none" stroke="#202d45" stroke-linecap="round" stroke-linejoin="round" stroke-miterlimit="10"/>
                                        </g>
                                        <g transform="translate(288.87 344.48)">
                                                  <path d="m0 0c0.946 6.156 4.29 10.704 8.251 10.688 1.911-8e-3 3.67-1.079 5.079-2.876 1.73 5.364 5.118 9.007 9.003 8.991 2.038-9e-3 3.93-1.026 5.513-2.764 2.209 5.355 5.901 8.86 10.071 8.843 6.708-0.028 12.107-9.162 12.061-20.402-4e-3 -0.912-0.047-1.808-0.121-2.688z" fill="#fff"/>
                                        </g>
                                        <g transform="translate(324.85 339.68)">
                                                  <path d="m0 0 0.049 11.597-15.695 0.065-0.048-11.597-4.13 0.018 5.959-7.236 5.958-7.237 6.018 7.187 6.019 7.186z" fill="#22a851"/>
                                        </g>
                                        <g transform="translate(142.45 96.526)">
                                                  <path d="m0 0h-51.33c-2.037 0-3.69 1.652-3.69 3.69v62.108c0 2.038 1.653 3.69 3.69 3.69h51.33c2.038 0 3.69-1.652 3.69-3.69v-62.108c0-2.038-1.652-3.69-3.69-3.69" fill="#202d45"/>
                                        </g>
                                        <path d="m105.8 154.7h-5.513v2.271h5.513z" fill="#f7622a"/>
                                        <path d="m118.79 154.7h-9.945v2.271h9.945z" fill="#fcd740"/>
                                        <path d="m124.73 149.87h-20.657v2.271h20.657z" fill="#fff"/>
                                        <path d="m133.29 149.87h-5.513v2.271h5.513z" fill="#3fc9ee"/>
                                        <path d="m124.73 145.04h-20.657v2.271h20.657z" fill="#fff"/>
                                        <path d="m133.29 145.04h-5.513v2.271h5.513z" fill="#3fc9ee"/>
                                        <path d="m124.73 140.22h-20.657v2.271h20.657z" fill="#fff"/>
                                        <path d="m133.29 140.22h-5.513v2.271h5.513z" fill="#3fc9ee"/>
                                        <path d="m105.8 135.39h-5.513v2.271h5.513z" fill="#f7622a"/>
                                        <path d="m118.79 135.39h-9.945v2.271h9.945z" fill="#fcd740"/>
                                        <path d="m114.4 130.56h-10.329v2.271h10.329z" fill="#3fc9ee"/>
                                        <path d="m133.29 130.56h-15.841v2.271h15.841z" fill="#fff"/>
                                        <path d="m114.4 125.73h-10.329v2.271h10.329z" fill="#3fc9ee"/>
                                        <path d="m133.29 125.73h-15.841v2.271h15.841z" fill="#fff"/>
                                        <path d="m114.4 120.9h-10.329v2.271h10.329z" fill="#3fc9ee"/>
                                        <path d="m133.29 120.9h-15.841v2.271h15.841z" fill="#fff"/>
                                        <g transform="translate(150.33 87.709)">
                                                  <path d="m0 0h-67.086v46.823l33.543-28.2 33.543 28.2z" fill="#fccb00"/>
                                        </g>
                                        <g transform="translate(83.245 87.709)">
                                                  <path d="M 0,0 33.543,38.975 67.086,0 Z" fill="#fcd740"/>
                                        </g>
                                        <g transform="translate(359.8 71.025)">
                                                  <path d="m0 0c-20.804 0-16.416-2-18.583-10.083h43.127c0.965 0 1.621 1.065 1.104 1.881-2.756 4.36-14.526 8.202-25.648 8.202" fill="#fff"/>
                                        </g>
                                        <g transform="translate(347.83 70.127)">
                                                  <path d="m0 0c-6.64 0-9.182-3.396-9.589-7.824-0.068-0.733 0.528-1.361 1.264-1.361h25.132c0 5.073-9.501 9.185-16.807 9.185" fill="#b8f9ff"/>
                                        </g>
                                        <g transform="translate(358.17 70.877)">
                                                  <path d="m0 0c-1.434 0.488-2.896 0.784-4.403 0.912-0.641 0.055-0.636-0.945 2e-3 -1 1.417-0.12 2.791-0.418 4.136-0.877 0.611-0.207 0.871 0.759 0.265 0.965" fill="#2a3958"/>
                                        </g>
                                        <g transform="translate(394.03 233.97)">
                                                  <path d="m0 0c-7.158 0-12.961 5.803-12.961 12.961s5.803 12.961 12.961 12.961 12.961-5.803 12.961-12.961-5.803-12.961-12.961-12.961m21.577 8.57v8.781l-5.327 0.903c-0.276 0.849-0.617 1.669-1.017 2.454l3.128 4.406-6.208 6.208-4.406-3.128c-0.785 0.4-1.604 0.74-2.453 1.016l-0.903 5.328h-8.782l-0.903-5.328c-0.849-0.276-1.668-0.616-2.453-1.016l-4.406 3.128-6.208-6.208 3.128-4.406c-0.4-0.785-0.74-1.605-1.016-2.454l-5.328-0.903v-8.781l5.328-0.903c0.276-0.849 0.616-1.669 1.016-2.453l-3.128-4.406 6.208-6.208 4.406 3.128c0.785-0.4 1.604-0.741 2.453-1.017l0.903-5.327h8.782l0.903 5.327c0.849 0.276 1.668 0.617 2.453 1.017l4.406-3.128 6.208 6.208-3.128 4.406c0.4 0.784 0.741 1.604 1.017 2.453z" fill="#fff"/>
                                        </g>
                                        <g transform="translate(410.28 269.64)">
                                                  <path d="m0 0c-3.646 0-6.601 2.955-6.601 6.601 0 3.645 2.955 6.601 6.601 6.601s6.602-2.956 6.602-6.601c0-3.646-2.956-6.601-6.602-6.601m10.989 4.365v4.471l-2.713 0.461c-0.141 0.432-0.314 0.849-0.517 1.249l1.593 2.244-3.163 3.162-2.244-1.593c-0.399 0.204-0.816 0.377-1.249 0.517l-0.46 2.713h-4.471l-0.46-2.713c-0.433-0.14-0.851-0.313-1.25-0.517l-2.244 1.593-3.162-3.162 1.593-2.244c-0.203-0.4-0.377-0.817-0.517-1.249l-2.713-0.461v-4.471l2.713-0.46c0.14-0.432 0.314-0.85 0.517-1.25l-1.593-2.243 3.162-3.162 2.244 1.593c0.399-0.204 0.817-0.377 1.25-0.518l0.46-2.713h4.471l0.46 2.713c0.433 0.141 0.85 0.314 1.249 0.518l2.244-1.593 3.163 3.162-1.593 2.243c0.203 0.4 0.376 0.818 0.517 1.25z" fill="#fcd740"/>
                                        </g>
                                        <g transform="translate(389.95 255.99)">
                                                  <path d="m0 0 4.935-4.936c1.315-1.314 1.315-3.445 0-4.761-1.315-1.314-3.446-1.314-4.761 0l-5.012 5.013c-1.84-3.736-1.214-8.378 1.895-11.486 2.827-2.828 6.922-3.597 10.452-2.331l13.086-13.086c1.648-1.649 4.356-1.816 6.053-0.218 1.756 1.654 1.788 4.419 0.094 6.112l-13.212 13.213c1.266 3.529 0.496 7.625-2.331 10.452-3.029 3.029-7.514 3.698-11.199 2.028" fill="#22a851"/>
                                        </g>
                                        <g transform="translate(412.45 228.51)">
                                                  <path d="m0 0c-0.58-0.58-1.521-0.58-2.101 0l-8.417 8.417c-0.58 0.58-0.58 1.521 0 2.101s1.521 0.58 2.101 0l8.417-8.418c0.58-0.58 0.58-1.521 0-2.1" fill="#19803e"/>
                                        </g>
                                        <g>
                                                  <g>
                                                            <g clip-path="url(#clipPath324)" opacity=".10001">
                                                                      <g transform="translate(333.65 155.79)">
                                                                                <path d="m0 0-2.881 15.8h22.811l2.88-15.8zm25.899 21.22-1.49 8.139-1.639 8.991h-6.96l1.639-8.991 1.21-6.599h-22.819l-1.2 6.599-1.64 8.991h-6.971l1.641-8.991 1.21-6.599 0.279-1.54 0.99-5.42 2.88-15.8 1.281-6.96 1.36-7.48h6.96l-1.36 7.48h22.81l1.369-7.48h6.96z" fill="#202d45"/>
                                                                      </g>
                                                            </g>
                                                  </g>
                                        </g>
                                        <g transform="translate(374.25 87.709)">
                                                  <path d="m0 0h6.965l-19.432 106.43h-6.965z" fill="#fcd740"/>
                                        </g>
                                        <g transform="translate(344.47 87.709)">
                                                  <path d="m0 0h6.965l-19.431 106.43h-6.966z" fill="#fcd740"/>
                                        </g>
                                        <g transform="translate(378.24 103.3)">
                                                  <path d="m0 0-1.271 6.965h-36.619l1.272-6.965z" fill="#fcd740"/>
                                        </g>
                                        <g transform="translate(374.08 126.06)">
                                                  <path d="m0 0-1.271 6.965h-36.619l1.272-6.965z" fill="#fcd740"/>
                                        </g>
                                        <g transform="translate(369.93 148.82)">
                                                  <path d="m0 0-1.271 6.966h-36.62l1.273-6.966z" fill="#fcd740"/>
                                        </g>
                                        <g transform="translate(365.77 171.58)">
                                                  <path d="m0 0-1.271 6.965h-36.619l1.272-6.965z" fill="#fcd740"/>
                                        </g>
                                        <g transform="translate(416.32 124.12)">
                                                  <path d="m0 0h-18.246c-5.017 0-9.084-4.067-9.084-9.084v-18.246c0-5.017 4.067-9.084 9.084-9.084h18.246c5.017 0 9.084 4.067 9.084 9.084v18.246c0 5.017-4.067 9.084-9.084 9.084" fill="#3a5799"/>
                                        </g>
                                        <g transform="translate(408.79 103.96)">
                                                  <path d="m0 0h-3.905l0.71 3.905h3.905zm7.221 3.905c1.06 0 1.921 0.86 1.921 1.921v0.063c0 1.061-0.861 1.922-1.921 1.922h-1.896l0.476 2.616c0.215 1.179-0.692 2.264-1.89 2.264-0.929 0-1.724-0.664-1.89-1.577l-0.601-3.303h-3.905l0.475 2.616c0.215 1.179-0.691 2.264-1.889 2.264-0.929 0-1.725-0.664-1.891-1.577l-0.601-3.303h-4.025c-1.061 0-1.921-0.861-1.921-1.922v-0.063c0-1.061 0.86-1.921 1.921-1.921h3.315l-0.71-3.905h-2.605c-1.061 0-1.921-0.86-1.921-1.922v-0.062c0-1.062 0.86-1.921 1.921-1.921h1.895l-0.475-2.617c-0.215-1.18 0.691-2.265 1.89-2.265 0.928 0 1.724 0.664 1.89 1.577l0.601 3.305h3.905l-0.476-2.617c-0.214-1.18 0.692-2.265 1.89-2.265 0.929 0 1.725 0.664 1.891 1.577l0.6 3.305h4.026c1.06 0 1.921 0.859 1.921 1.921v0.062c0 1.062-0.861 1.922-1.921 1.922h-3.316l0.71 3.905z" fill="#fff"/>
                                        </g>
                                        <g transform="translate(390.41 163.31)">
                                                  <path d="m0 0h7.688c4.551 0 8.241-3.689 8.241-8.24v-19.24" fill="none" stroke="#22a851" stroke-miterlimit="10" stroke-width="2"/>
                                        </g>
                                        <g transform="translate(390.41 163.31)">
                                                  <path d="m0 0c0 2.117-1.717 3.833-3.833 3.833-2.117 0-3.834-1.716-3.834-3.833s1.717-3.833 3.834-3.833c2.116 0 3.833 1.716 3.833 3.833z" fill="none" stroke="#22a851" stroke-miterlimit="10" stroke-width="2"/>
                                        </g>
                                        <g transform="translate(410.17 131.7)">
                                                  <path d="m0 0c0 2.117-1.716 3.833-3.833 3.833s-3.833-1.716-3.833-3.833 1.716-3.833 3.833-3.833 3.833 1.716 3.833 3.833z" fill="none" stroke="#22a851" stroke-miterlimit="10" stroke-width="2"/>
                                        </g>
                                        <g transform="translate(188.11 148.93)">
                                                  <path d="m0 0v-41.71c0-4.551-3.689-8.24-8.24-8.24h-14.238" fill="none" stroke="#22a851" stroke-miterlimit="10" stroke-width="2"/>
                                        </g>
                                        <g transform="translate(188.11 148.93)">
                                                  <path d="m0 0c2.117 0 3.833 1.717 3.833 3.834 0 2.116-1.716 3.833-3.833 3.833s-3.833-1.717-3.833-3.833c0-2.117 1.716-3.834 3.833-3.834z" fill="none" stroke="#22a851" stroke-miterlimit="10" stroke-width="2"/>
                                        </g>
                                        <g transform="translate(161.5 95.146)">
                                                  <path d="m0 0c2.117 0 3.833 1.716 3.833 3.833s-1.716 3.833-3.833 3.833-3.833-1.716-3.833-3.833 1.716-3.833 3.833-3.833z" fill="none" stroke="#22a851" stroke-miterlimit="10" stroke-width="2"/>
                                        </g>
                                        <g transform="translate(216.46 380.71)">
                                                  <path d="m0 0h19.697c4.551 0 8.24-3.689 8.24-8.24v-56.264" fill="none" stroke="#22a851" stroke-miterlimit="10" stroke-width="2"/>
                                        </g>
                                        <g transform="translate(216.46 380.71)">
                                                  <path d="m0 0c0 2.117-1.716 3.833-3.833 3.833s-3.834-1.716-3.834-3.833 1.717-3.833 3.834-3.833 3.833 1.716 3.833 3.833z" fill="none" stroke="#22a851" stroke-miterlimit="10" stroke-width="2"/>
                                        </g>
                                        <g transform="translate(248.23 312.08)">
                                                  <path d="m0 0c0 2.117-1.716 3.833-3.833 3.833-2.118 0-3.834-1.716-3.834-3.833s1.716-3.833 3.834-3.833c2.117 0 3.833 1.716 3.833 3.833z" fill="none" stroke="#22a851" stroke-miterlimit="10" stroke-width="2"/>
                                        </g>
                              </g>
                    </g>
          </g>
</svg>
