<svg version="1.1" viewBox="0 0 531.97 437.19" xmlns="http://www.w3.org/2000/svg">
    <defs>
        <clipPath id="clipPath20">
            <path d="m0 500h500v-500h-500z"/>
        </clipPath>
        <clipPath id="clipPath108">
            <path d="m0 500h500v-500h-500z"/>
        </clipPath>
        <clipPath id="clipPath132">
            <path d="m150.6 280.38h101.02v-125.32h-101.02z"/>
        </clipPath>
        <clipPath id="clipPath494">
            <path d="m245.78 310.75h86.95v-50.301h-86.95z"/>
        </clipPath>
    </defs>
    <g transform="matrix(1.3333 0 0 -1.3333 -70.354 558.64)">
        <g>
            <g clip-path="url(#clipPath20)">
                <g transform="translate(130.56 185.57)">
                    <path d="m0 0c-0.466 0-0.928-0.012-1.389-0.028 0.384 1.534 0.592 3.126 0.592 4.76 0 12.262-11.381 22.202-25.42 22.202-13.848 0-25.101-9.671-25.407-21.702-10.436-4.695-17.647-14.729-17.647-26.351 0-16.12 13.872-29.189 30.983-29.189 7.408 0 14.205 2.453 19.537 6.538 5.134-3.383 11.652-5.412 18.751-5.412 16.555 0 29.976 11.01 29.976 24.591s-13.421 24.591-29.976 24.591z"
                          fill="none" stroke="#d2afff" stroke-miterlimit="10" stroke-width=".756"/>
                </g>
                <g transform="translate(111.78 173.88)">
                    <path d="m0 0v-64.666" fill="none" stroke="#d2afff" stroke-miterlimit="10" stroke-width=".756"/>
                </g>
                <g transform="translate(82.013 164.19)">
                    <path d="m0 0 29.768-14.505 24.483 13.695" fill="none" stroke="#d2afff" stroke-miterlimit="10"
                          stroke-width=".756"/>
                </g>
                <g transform="translate(97.892 189.87)">
                    <path d="m0 0 13.889-25.679 11.251 10.987" fill="none" stroke="#d2afff" stroke-miterlimit="10"
                          stroke-width=".756"/>
                </g>
                <g transform="translate(125.3 315.98)">
                    <path d="m0 0h-0.012c-1.48 0-2.454 1.466-1.974 2.867 0.43 1.254 0.567 2.644 0.327 4.091-0.669 4.039-4.327 6.905-8.422 6.905h-45.193c-4.115 0-7.797-2.888-8.442-6.952-0.826-5.198 3.167-9.682 8.208-9.682h0.501c3.377 0 5.996-2.794 5.969-6.172v-0.073c0-4.979 4.037-9.015 9.016-9.015h40.022c4.979 0 9.016 4.036 9.016 9.015 0 4.98-4.037 9.016-9.016 9.016"
                          fill="#6e64c3"/>
                </g>
                <g transform="translate(433.63 193.4)">
                    <path d="m0 0c-1.185 1.186-3.768 1.188-6.66 0.677-4.096-0.726-7.104 3.74-4.922 7.281 4.6 7.465 9.197 16.327 6.817 18.708-2.214 2.214-10.895-0.57-16.697-2.789-2.795-1.069-5.877 0.631-6.451 3.568-1.765 9.037-5.581 25.469-10.005 25.469-4.437 0-8.264-16.533-10.021-25.552-0.567-2.908-3.603-4.62-6.382-3.595-6.176 2.277-15.787 5.276-18.164 2.899-2.381-2.381 2.216-11.242 6.817-18.708 2.182-3.541-0.827-8.007-4.922-7.281-2.892 0.511-5.475 0.509-6.661-0.677-4.922-4.922 2.378-20.201 16.304-34.127 2.419-2.419 4.878-4.635 7.316-6.624 1.234-1.005 1.877-2.569 1.726-4.153-0.228-2.377 0.232-4.284 1.474-5.526 1.981-1.98 5.638-1.977 10.207-0.366 1.034 0.364 2.164 0.364 3.198 0 4.569-1.611 8.226-1.614 10.206 0.366 1.243 1.242 1.703 3.149 1.475 5.526-0.152 1.584 0.491 3.148 1.725 4.153 2.438 1.989 4.898 4.205 7.317 6.624 13.926 13.926 21.225 29.205 16.303 34.127z"
                          fill="none" stroke="#d2afff" stroke-miterlimit="10" stroke-width=".864"/>
                </g>
                <g transform="translate(395.01 220.89)">
                    <path d="m0 0v-112.98" fill="none" stroke="#d2afff" stroke-miterlimit="10" stroke-width=".864"/>
                </g>
                <g transform="translate(410.19 205.38)">
                    <path d="M 0,0 -15.176,-15.177 -30.353,0" fill="none" stroke="#d2afff" stroke-miterlimit="10"
                          stroke-width=".864"/>
                </g>
                <g transform="translate(410.19 176.91)">
                    <path d="M 0,0 -15.176,-15.177 -30.353,0" fill="none" stroke="#d2afff" stroke-miterlimit="10"
                          stroke-width=".864"/>
                </g>
                <g transform="translate(439.07 119.14)">
                    <path d="m0 0c0 6.442-5.224 11.665-11.666 11.665h-145.4v-23.331h145.4c6.442 0 11.666 5.223 11.666 11.666"
                          fill="#6e64c3"/>
                </g>
                <g transform="translate(405.16 385.37)">
                    <path d="m0 0c-0.052 3.292-2.884 5.869-6.178 5.869-7.586-1e-3 -13.204 5e-3 -17.079 0.011-3.318 6e-3 -6.172 2.468-6.532 5.766-0.273 2.499-1.258 4.866-4.008 4.866h-34.911c-3.258 0-6.06-2.548-6.111-5.805-0.052-3.303 2.609-5.996 5.899-5.996 0.325-1e-3 0.861-3e-3 1.488-5e-3 0.444-2e-3 0.892-0.049 1.317-0.179 2.649-0.814 4.011-3.524 3.234-6.04-0.623-2.014-2.568-3.328-4.678-3.333-3.126-8e-3 -6.598-0.016-6.57-0.016-3.109 0-5.785-2.433-5.834-5.543-0.049-3.152 2.491-5.722 5.632-5.722h59.701c3.975 0 6.311 3.47 5.761 6.655-0.304 1.764 0.958 3.402 2.748 3.41 0.103 0 0.157 1e-3 0.157 1e-3 3.326 0 6.017 2.723 5.964 6.061z"
                          fill="none" stroke="#d2afff" stroke-miterlimit="10" stroke-width=".864"/>
                </g>
                <g transform="translate(427.52 379.67)">
                    <path d="m0 0h-6.277c-2.88 0-5.214-2.334-5.214-5.214s2.334-5.214 5.214-5.214h6.277c2.88 0 5.215 2.334 5.215 5.214s-2.335 5.214-5.215 5.214z"
                          fill="none" stroke="#d2afff" stroke-miterlimit="10" stroke-width=".864"/>
                </g>
                <g transform="translate(315.06 390.61)">
                    <path d="m0 0h-7.17c-3.11 0-5.633 2.521-5.633 5.632s2.523 5.633 5.633 5.633h7.17c3.11 0 5.632-2.522 5.632-5.633s-2.522-5.632-5.632-5.632z"
                          fill="none" stroke="#d2afff" stroke-miterlimit="10" stroke-width=".864"/>
                </g>
                <g transform="translate(432.81 301.38)">
                    <path d="m0 0v5.874c0 3.488-2.828 6.316-6.317 6.316h-0.22c-2.688 0-5.036 1.717-5.964 4.239-0.353 0.961-0.743 1.903-1.168 2.826-1.125 2.443-0.682 5.317 1.22 7.218l0.152 0.153c2.467 2.467 2.467 6.467 0 8.934l-4.153 4.153c-2.467 2.467-6.466 2.467-8.933 0l-0.153-0.153c-1.901-1.901-4.776-2.344-7.218-1.22-0.923 0.426-1.866 0.815-2.826 1.169-2.523 0.928-4.238 3.276-4.238 5.963v0.22c0 3.489-2.828 6.317-6.318 6.317h-5.874c-3.488 0-6.316-2.828-6.316-6.317v-0.22c0-2.687-1.717-5.035-4.238-5.963-0.961-0.354-1.904-0.743-2.827-1.169-2.442-1.124-5.316-0.681-7.217 1.22l-0.154 0.153c-2.467 2.467-6.466 2.467-8.932 0l-4.154-4.153c-2.466-2.467-2.466-6.467 0-8.934l0.153-0.153c1.901-1.901 2.343-4.775 1.219-7.218-0.424-0.923-0.815-1.865-1.168-2.826-0.927-2.522-3.276-4.239-5.963-4.239h-0.22c-3.489 0-6.318-2.828-6.318-6.316v-5.874c0-3.488 2.829-6.316 6.318-6.316h0.22c2.687 0 5.036-1.717 5.963-4.239 0.353-0.961 0.744-1.903 1.168-2.826 1.124-2.443 0.682-5.317-1.219-7.218l-0.153-0.153c-2.466-2.467-2.466-6.467 0-8.934l4.154-4.153c2.466-2.467 6.465-2.467 8.932 0l0.154 0.153c1.901 1.902 4.775 2.344 7.217 1.22 0.923-0.426 1.867-0.815 2.827-1.169 2.522-0.928 4.238-3.276 4.238-5.963v-0.22c0-3.489 2.828-6.317 6.316-6.317h5.874c3.49 0 6.318 2.828 6.318 6.317v0.22c0 2.687 1.715 5.035 4.238 5.963 0.96 0.354 1.902 0.744 2.826 1.169 2.442 1.124 5.317 0.682 7.218-1.22l0.153-0.153c2.467-2.467 6.466-2.467 8.933 0l4.153 4.153c2.467 2.467 2.467 6.467 0 8.934l-0.152 0.153c-1.902 1.901-2.345 4.775-1.22 7.218 0.425 0.923 0.815 1.865 1.168 2.826 0.928 2.522 3.276 4.239 5.964 4.239h0.22c3.489 0 6.317 2.828 6.317 6.316z"
                          fill="none" stroke="#d2afff" stroke-miterlimit="10" stroke-width=".864"/>
                </g>
                <g transform="translate(409.26 304.31)">
                    <path d="m0 0c0-14.093-11.425-25.517-25.518-25.517-14.092 0-25.517 11.424-25.517 25.517s11.425 25.518 25.517 25.518c14.093 0 25.518-11.425 25.518-25.518z"
                          fill="none" stroke="#d2afff" stroke-miterlimit="10" stroke-width=".864"/>
                </g>
                <g transform="translate(124.42 245.15)">
                    <path d="m0 0v2.771c0 1.646-1.334 2.98-2.98 2.98h-0.103c-1.269 0-2.376 0.81-2.814 1.999-0.166 0.454-0.351 0.898-0.551 1.333-0.531 1.153-0.322 2.509 0.575 3.405l0.072 0.073c1.164 1.163 1.164 3.05 0 4.213l-1.959 1.96c-1.163 1.163-3.05 1.163-4.214 0l-0.072-0.072c-0.897-0.897-2.253-1.106-3.405-0.576-0.435 0.201-0.88 0.385-1.333 0.552-1.19 0.437-2 1.545-2 2.813v0.104c0 1.645-1.334 2.979-2.979 2.979h-2.771c-1.646 0-2.98-1.334-2.98-2.979v-0.104c0-1.268-0.81-2.376-2-2.813-0.453-0.167-0.897-0.351-1.333-0.552-1.152-0.53-2.507-0.321-3.404 0.576l-0.073 0.072c-1.163 1.163-3.05 1.163-4.214 0l-1.959-1.96c-1.164-1.163-1.164-3.05 0-4.213l0.072-0.073c0.897-0.896 1.106-2.252 0.575-3.405-0.2-0.435-0.384-0.879-0.551-1.333-0.437-1.189-1.545-1.999-2.813-1.999h-0.104c-1.645 0-2.979-1.334-2.979-2.98v-2.771c0-1.646 1.334-2.979 2.979-2.979h0.104c1.268 0 2.376-0.81 2.813-2 0.167-0.453 0.351-0.898 0.551-1.333 0.531-1.152 0.322-2.508-0.575-3.405l-0.072-0.072c-1.164-1.164-1.164-3.051 0-4.214l1.959-1.96c1.164-1.163 3.051-1.163 4.214 0l0.073 0.072c0.897 0.898 2.252 1.106 3.404 0.576 0.436-0.201 0.881-0.384 1.333-0.551 1.19-0.438 2-1.546 2-2.814v-0.103c0-1.646 1.334-2.98 2.98-2.98h2.771c1.645 0 2.979 1.334 2.979 2.98v0.103c0 1.268 0.81 2.376 2 2.814 0.453 0.167 0.898 0.35 1.333 0.551 1.152 0.53 2.508 0.322 3.405-0.576l0.072-0.072c1.164-1.163 3.051-1.163 4.214 0l1.959 1.96c1.164 1.163 1.164 3.05 0 4.214l-0.072 0.072c-0.897 0.897-1.106 2.253-0.575 3.405 0.2 0.435 0.385 0.88 0.551 1.333 0.438 1.19 1.545 2 2.814 2h0.103c1.646 0 2.98 1.333 2.98 2.979z"
                          fill="none" stroke="#d2afff" stroke-miterlimit="10" stroke-width=".756"/>
                </g>
                <g transform="translate(113.31 246.54)">
                    <path d="m0 0c0-6.648-5.39-12.037-12.038-12.037s-12.037 5.389-12.037 12.037 5.389 12.037 12.037 12.037 12.038-5.389 12.038-12.037z"
                          fill="none" stroke="#d2afff" stroke-miterlimit="10" stroke-width=".756"/>
                </g>
                <g transform="translate(85.34 266.83)">
                    <path d="m0 0 0.255 1.926c0.152 1.143-0.652 2.194-1.796 2.345l-0.072 0.01c-0.882 0.116-1.577 0.781-1.771 1.649-0.074 0.33-0.161 0.656-0.261 0.977-0.262 0.85 8e-3 1.773 0.714 2.314l0.056 0.043c0.917 0.702 1.09 2.013 0.389 2.929l-1.181 1.542c-0.702 0.916-2.014 1.09-2.929 0.389l-0.057-0.044c-0.706-0.541-1.668-0.561-2.42-0.086-0.284 0.179-0.576 0.348-0.876 0.506-0.786 0.414-1.247 1.258-1.13 2.139l9e-3 0.072c0.152 1.144-0.652 2.194-1.796 2.346l-1.926 0.255c-1.144 0.152-2.194-0.653-2.346-1.796l-9e-3 -0.073c-0.117-0.881-0.782-1.576-1.649-1.771-0.33-0.074-0.656-0.161-0.977-0.26-0.85-0.263-1.773 7e-3 -2.314 0.713l-0.043 0.057c-0.702 0.916-2.014 1.09-2.93 0.388l-1.542-1.181c-0.916-0.701-1.089-2.013-0.388-2.929l0.044-0.057c0.54-0.705 0.561-1.667 0.086-2.419-0.18-0.284-0.348-0.576-0.506-0.876-0.414-0.786-1.259-1.247-2.139-1.13l-0.073 9e-3c-1.143 0.152-2.193-0.653-2.345-1.797l-0.255-1.925c-0.152-1.144 0.652-2.194 1.796-2.346l0.072-9e-3c0.881-0.117 1.577-0.782 1.771-1.649 0.075-0.33 0.162-0.657 0.261-0.978 0.262-0.849-8e-3 -1.772-0.714-2.313l-0.057-0.044c-0.916-0.701-1.09-2.012-0.388-2.928l1.182-1.543c0.701-0.916 2.012-1.09 2.928-0.388l0.057 0.043c0.706 0.541 1.668 0.561 2.42 0.087 0.284-0.18 0.576-0.349 0.875-0.506 0.787-0.414 1.248-1.258 1.131-2.14l-0.01-0.072c-0.151-1.144 0.653-2.194 1.797-2.345l1.926-0.256c1.144-0.151 2.194 0.653 2.345 1.797l0.01 0.072c0.117 0.881 0.782 1.577 1.649 1.771 0.33 0.074 0.656 0.161 0.977 0.26 0.85 0.263 1.773-7e-3 2.314-0.713l0.044-0.057c0.701-0.916 2.012-1.09 2.928-0.388l1.543 1.181c0.916 0.702 1.089 2.013 0.388 2.929l-0.044 0.057c-0.541 0.706-0.561 1.668-0.086 2.42 0.18 0.284 0.348 0.576 0.506 0.875 0.414 0.787 1.258 1.248 2.14 1.131l0.071-0.01c1.144-0.151 2.195 0.653 2.346 1.797z"
                          fill="none" stroke="#d2afff" stroke-miterlimit="10" stroke-width=".756"/>
                </g>
                <g transform="translate(77.745 268.82)">
                    <path d="m0 0c-0.612-4.621-4.854-7.87-9.475-7.257-4.621 0.612-7.87 4.854-7.258 9.475 0.613 4.62 4.855 7.87 9.476 7.257 4.62-0.612 7.869-4.854 7.257-9.475z"
                          fill="none" stroke="#d2afff" stroke-miterlimit="10" stroke-width=".756"/>
                </g>
                <g transform="translate(445.41 107.47)">
                    <path d="m0 0h-23.042c-3.5 0-6.337 2.837-6.337 6.337s2.837 6.337 6.337 6.337h23.042c3.5 0 6.337-2.837 6.337-6.337s-2.837-6.337-6.337-6.337"
                          fill="#6e64c3"/>
                </g>
            </g>
        </g>
        <g>
            <g clip-path="url(#clipPath108)">
                <g transform="translate(386.07 152.7)">
                    <path d="m0 0c0-6.204-5.029-11.233-11.233-11.233h-254.91c-6.205 0-11.234 5.029-11.234 11.233v177.14c0 6.204 5.029 11.233 11.234 11.233h254.91c6.204 0 11.233-5.029 11.233-11.233z"
                          fill="#eeeeee"/>
                </g>
                <g transform="translate(374.84 341.07)">
                    <path d="m0 0h-254.91c-6.204 0-11.233-5.029-11.233-11.233v-177.14c0-6.205 5.029-11.234 11.233-11.234h254.91c6.204 0 11.233 5.029 11.233 11.234v177.14c0 6.204-5.029 11.233-11.233 11.233m0-188.38h-254.91v177.14h254.91z"
                          fill="#1e2d64"/>
                </g>
                <g transform="translate(346.32 165.51)">
                    <path d="m0 0c0-4.216-3.418-7.634-7.633-7.634h-183.48c-4.215 0-7.633 3.418-7.633 7.634v143.73c0 4.215 3.418 7.633 7.633 7.633h183.48c4.215 0 7.633-3.418 7.633-7.633z"
                          fill="#fff"/>
                </g>
                <g transform="translate(338.69 316.88)">
                    <path d="m0 0h-183.48c-4.215 0-7.633-3.417-7.633-7.633v-13.97h198.75v13.97c0 4.216-3.418 7.633-7.633 7.633"
                          fill="#d2afff"/>
                </g>
                <g>
                    <g>
                        <g clip-path="url(#clipPath132)" opacity=".39999">
                            <g transform="translate(218.27 155.21)">
                                <path d="m0 0-64.977 18.757c-1.97 0.568-3.106 2.626-2.537 4.596l28.616 99.134c0.568 1.97 2.627 3.106 4.596 2.537l64.977-18.756c1.97-0.569 3.106-2.626 2.537-4.596l-28.616-99.135c-0.569-1.97-2.626-3.105-4.596-2.537"
                                      fill="#6c9baa"/>
                            </g>
                        </g>
                    </g>
                </g>
                <g transform="translate(216.08 159.31)">
                    <path d="m0 0-64.977 18.756c-1.97 0.569-3.106 2.627-2.537 4.597l28.616 99.134c0.568 1.97 2.626 3.105 4.596 2.537l64.977-18.756c1.97-0.569 3.106-2.627 2.537-4.597l-28.616-99.134c-0.569-1.97-2.626-3.105-4.596-2.537"
                          fill="#6e64c3"/>
                </g>
                <path d="m236.46 277.13h-75.054v-110.61h75.054zm-0.863-109.74h-73.326v108.88h73.326z" fill="#d2afff"/>
                <g transform="translate(320.69 310.54)">
                    <path d="m0 0h12.386" fill="none" stroke="#eeeeee" stroke-linecap="round" stroke-miterlimit="10"
                          stroke-width="2.804"/>
                </g>
                <g transform="translate(320.69 305.63)">
                    <path d="m0 0h12.386" fill="none" stroke="#eeeeee" stroke-linecap="round" stroke-miterlimit="10"
                          stroke-width="2.804"/>
                </g>
                <g transform="translate(320.69 300.72)">
                    <path d="m0 0h12.386" fill="none" stroke="#eeeeee" stroke-linecap="round" stroke-miterlimit="10"
                          stroke-width="2.804"/>
                </g>
                <g transform="translate(302.53 300.72)">
                    <path d="m0 0h-84.085c-2.71 0-4.907 2.197-4.907 4.908 0 2.71 2.197 4.907 4.907 4.907h84.085c2.711 0 4.908-2.197 4.908-4.907 0-2.711-2.197-4.908-4.908-4.908"
                          fill="#eeeeee"/>
                </g>
                <g transform="translate(159.66 308.32)">
                    <path d="m0 0-4.488-4.488" fill="none" stroke="#fff" stroke-linecap="round" stroke-miterlimit="10"
                          stroke-width="1.872"/>
                </g>
                <g transform="translate(159.66 303.83)">
                    <path d="m0 0-4.488 4.488" fill="none" stroke="#fff" stroke-linecap="round" stroke-miterlimit="10"
                          stroke-width="1.872"/>
                </g>
                <g transform="translate(178.76 303.83)">
                    <path d="m0 0v0c-1.239 0-2.244 1.004-2.244 2.244 0 1.239 1.005 2.244 2.244 2.244s2.244-1.005 2.244-2.244c0-1.24-1.005-2.244-2.244-2.244z"
                          fill="none" stroke="#fff" stroke-linecap="round" stroke-miterlimit="10" stroke-width="1.872"/>
                </g>
                <g transform="translate(165.4 306.08)">
                    <path d="m0 0h4.808" fill="none" stroke="#fff" stroke-linecap="round" stroke-miterlimit="10"
                          stroke-width="1.872"/>
                </g>
                <path d="m297.73 120.15h-93.671v21.314h93.671z" fill="#0f1446"/>
                <g transform="translate(326.88 107.47)">
                    <path d="m 0,0 h -153.307 c 0,7 5.674,12.674 12.674,12.674 H -12.674 C -5.675,12.674 0,7 0,0"
                          fill="#1e2d64"/>
                </g>
                <g transform="translate(309.92 221.32)">
                    <path d="m0 0h-54.737c-2.764 0-5.004 2.24-5.004 5.004 0 2.763 2.24 5.004 5.004 5.004h54.737c2.764 0 5.004-2.241 5.004-5.004 0-2.764-2.24-5.004-5.004-5.004z"
                          fill="none" stroke="#d2afff" stroke-miterlimit="10" stroke-width=".864"/>
                </g>
                <g transform="translate(309.92 203.18)">
                    <path d="m0 0h-54.737c-2.764 0-5.004 2.24-5.004 5.004s2.24 5.004 5.004 5.004h54.737c2.764 0 5.004-2.24 5.004-5.004s-2.24-5.004-5.004-5.004z"
                          fill="none" stroke="#d2afff" stroke-miterlimit="10" stroke-width=".864"/>
                </g>
                <g transform="translate(326.84 221.32)">
                    <path d="m0 0c-2.764 0-5.004 2.24-5.004 5.004 0 2.763 2.24 5.004 5.004 5.004s5.004-2.241 5.004-5.004c0-2.764-2.24-5.004-5.004-5.004z"
                          fill="none" stroke="#d2afff" stroke-miterlimit="10" stroke-width=".864"/>
                </g>
                <g transform="translate(326.84 203.18)">
                    <path d="m0 0c-2.764 0-5.004 2.24-5.004 5.004s2.24 5.004 5.004 5.004 5.004-2.24 5.004-5.004-2.24-5.004-5.004-5.004z"
                          fill="none" stroke="#d2afff" stroke-miterlimit="10" stroke-width=".864"/>
                </g>
                <g transform="translate(314.93 189.17)">
                    <path d="m0 0c0-2.764-2.24-5.004-5.004-5.004h-54.737c-2.764 0-5.004 2.24-5.004 5.004s2.24 5.004 5.004 5.004h54.737c2.764 0 5.004-2.24 5.004-5.004z"
                          fill="none" stroke="#d2afff" stroke-miterlimit="10" stroke-width=".864"/>
                </g>
                <g transform="translate(314.93 171.02)">
                    <path d="m0 0c0-2.764-2.24-5.004-5.004-5.004h-54.737c-2.764 0-5.004 2.24-5.004 5.004s2.24 5.004 5.004 5.004h54.737c2.764 0 5.004-2.24 5.004-5.004z"
                          fill="none" stroke="#d2afff" stroke-miterlimit="10" stroke-width=".864"/>
                </g>
                <g transform="translate(326.84 184.16)">
                    <path d="m0 0c-2.764 0-5.004 2.24-5.004 5.004s2.24 5.004 5.004 5.004 5.004-2.24 5.004-5.004-2.24-5.004-5.004-5.004z"
                          fill="none" stroke="#d2afff" stroke-miterlimit="10" stroke-width=".864"/>
                </g>
                <g transform="translate(331.85 171.02)">
                    <path d="m0 0c0-2.764-2.24-5.004-5.004-5.004s-5.004 2.24-5.004 5.004 2.24 5.004 5.004 5.004 5.004-2.24 5.004-5.004z"
                          fill="none" stroke="#d2afff" stroke-miterlimit="10" stroke-width=".864"/>
                </g>
                <g transform="translate(339.99 91.951)">
                    <path d="m0 0h66.824" fill="none" stroke="#41378c" stroke-miterlimit="10" stroke-width="1.728"/>
                </g>
                <g transform="translate(192.56 107.41)">
                    <path d="m0 0h-138.31" fill="none" stroke="#41378c" stroke-linecap="round" stroke-miterlimit="10"
                          stroke-width="1.728"/>
                </g>
                <g transform="translate(146.7 183.25)">
                    <path d="m0 0c1.214-2.904 3.876-7.466 7.12-10.08 3.605-2.942 7.293-2.505 11.069-0.016 0.388 0.256 0.835 0.127 1.05-0.198 0.2-0.305 0.148-0.702-0.106-0.945-8.584-8.248-18.522-1.037-23.841 9.068-1.597 3.033 2.995 5.456 4.594 2.418 0.035-0.067 0.068-0.135 0.096-0.204z"
                          fill="#fa968c"/>
                </g>
                <g transform="translate(149.74 177.74)">
                    <path d="m0 0c-4e-3 7e-3 -9e-3 0.013-0.014 0.019-2.021 2.96-2.616 4.735-3.142 5.735-0.668 1.268-2.238 1.756-3.507 1.088-1.268-0.668-1.755-2.238-1.087-3.506 1.099-2.088 2.214-3.666 3.406-5.164 0.383 0.408 3.43 1.501 4.344 1.828"
                          fill="#fa870a"/>
                </g>
                <g transform="translate(145.66 165.33)">
                    <path d="m0 0c1.033 3e-3 1.884 0.822 1.909 1.854 0.029 1.217 0.117 2.485 9e-3 3.777-0.372 4.483-0.75 9.056-0.967 11.685-0.105 1.269-1.164 2.242-2.436 2.242h-8.278c-1.371 0-2.493-1.087-2.533-2.458-0.097-3.322-0.308-9.47-0.675-15.04l-1e-3 -0.021c-0.074-1.117 0.794-2.07 1.913-2.067z"
                          fill="#fab9af"/>
                </g>
                <g transform="translate(143.1 110.25)">
                    <path d="m0 0c-0.896 1.017-1.119 3.304-1.114 5.373 3e-3 1.224-1.555 1.748-2.309 0.783l-0.017-6.467c1.24-0.34 2.666-0.34 3.44 0.311"
                          fill="#fa968c"/>
                </g>
                <g transform="translate(142.94 110.35)">
                    <path d="m0 0c-0.012 4e-3 -0.022 0.012-0.034 0.018-0.532-0.2-1.132-0.317-1.807-0.317-0.579 0-1.104 0.084-1.578 0.233l-0.267-1.495c-0.077-0.431 0.243-0.832 0.682-0.845 2.099-0.065 7.474-0.206 7.617 0.027 0.676 1.093-2.378 1.514-4.613 2.379"
                          fill="#46738c"/>
                </g>
                <g transform="translate(139.28 136.31)">
                    <path d="m0 0c-0.275-1.962-0.319-14.53 0.122-20.915l2.706-0.026c1.353 6.193 2.614 18.223 2.883 20.141 4e-3 0.025 5e-3 0.048 8e-3 0.072 1.507 6.664 2.254 19.639 2.194 22.266-0.08 3.564-2.391 6.401-5.159 6.339-2.769-0.063-4.947-3.003-4.866-6.566 0.05-2.237 2.242-20.382 2.112-21.311"
                          fill="#1c9585"/>
                </g>
                <g transform="translate(147.2 157.85)">
                    <path d="m0 0c-0.081 3.563-2.391 6.401-5.159 6.339-2.769-0.063-4.947-3.003-4.866-6.567 0.036-1.623 1.2-11.621 1.787-17.339 0.56 1.301 1.163 2.601 1.725 3.909 0.254 4.549 2.834 8.623 6.465 11.277 0.043 1.071 0.059 1.901 0.048 2.381"
                          fill="#177d75"/>
                </g>
                <g transform="translate(127.2 111.24)">
                    <path d="m0 0c-0.199 1.931 0.681 4.107 1.456 6.172-0.481 1.057-1.985 1.047-2.452-0.016l-1.677-3.817c-0.056-0.125-0.061-0.273-4e-3 -0.397 0.556-1.22 1.883-1.853 2.677-1.942"
                          fill="#fab9af"/>
                </g>
                <g transform="translate(128.68 109.92)">
                    <path d="m0 0c-0.652 0.318-1.142 0.871-1.413 1.527-1.277 0.414-2.165 1.319-2.667 2.413-0.257-0.208-0.527-0.455-0.695-0.7-0.231-0.335-0.548-0.781-0.772-1.094-0.158-0.222-0.13-0.524 0.065-0.714l1.006-0.986c0.192-0.187 2.093-1.829 2.585-1.895 1.264-0.17 3.597-0.441 3.676-0.14 0.136 0.522-0.866 1.141-1.785 1.589"
                          fill="#46738c"/>
                </g>
                <g transform="translate(132.16 137.91)">
                    <path d="m0 0c-0.683-1.541-4.849-14.555-6.325-20.896 0.651-0.589 1.457-1.054 2.4-0.992 2.571 5.029 8.686 15.96 9.834 18.453 2.076 3.101 4.355 20.777 4.279 24.08-0.08 3.564-2.39 6.402-5.159 6.338-2.768-0.062-5.447-2.941-5.367-6.505 0.053-2.305 0.799-19.436 0.338-20.478"
                          fill="#39ae96"/>
                </g>
                <g transform="translate(144.25 184.88)">
                    <path d="m0 0h-1.344c-0.468-1.083-1.458-1.92-2.994-1.92-1.539 0-2.53 0.837-2.997 1.92h-1.227c-1.253 0-2.28-0.991-2.316-2.245-0.094-3.267-0.239-7.502-0.613-13.193-0.34-5.153-1.513-6.763-0.851-13.403 0 0 11.206-1.067 15.273 0.966 0.614 4.682 0.777 9.401 0.4 13.948-0.377 4.526-0.758 9.143-0.974 11.76-0.101 1.227-1.126 2.167-2.357 2.167"
                          fill="#ffa50a"/>
                </g>
                <g transform="translate(167.35 174.1)">
                    <path d="m0 0s-2.167 0.204-2.448-0.437-0.352-1.123 0.565-1.567 2.387-0.616 3.289-0.544c0.903 0.073 2.363 0.834 2.466 1.019 0.373 0.673-1.247 0.369-2.039 0.259-0.792-0.108-1.697-0.153-1.642 0.244 0.056 0.395 1.588 0.49 1.801 0.922 0.214 0.433-1.992 0.104-1.992 0.104"
                          fill="#fa968c"/>
                </g>
                <g transform="translate(137.68 182.2)">
                    <path d="m0 0c3.605-8.084 21.224-7.536 26.499-7.616l0.041-1e-3c0.411-6e-3 0.738-0.344 0.732-0.755-0.014-0.927-1.105-0.819-4.667-1.507-24.668-4.84-31.684 11.52-25.705 12.215 1.843 0.215 3.1-2.336 3.1-2.336"
                          fill="#fab9af"/>
                </g>
                <g transform="translate(140.43 179.23)">
                    <path d="m0 0c-2.384 1.682-2.802 3.377-2.811 3.417l0.014-0.076-0.184 0.424c-0.616 1.417-2.245 2.163-3.677 1.585l-0.065-0.027c-1.725-0.722-1.376-2.76-1.376-2.76 0.042-0.285 0.619-3.647 4.586-6.621 0 0 3.834 3.831 3.513 4.058"
                          fill="#fa870a"/>
                </g>
                <g transform="translate(138.61 188.67)">
                    <path d="m0 0h-0.159c-1.21 0-2.19 0.98-2.19 2.19v3.238h2.349z" fill="#3c5a73"/>
                </g>
                <g transform="translate(141.6 184.88)">
                    <path d="m0 0h-4.325l1.247 4.312 2.949-0.364z" fill="#fab9af"/>
                </g>
                <g transform="translate(141.47 188.83)">
                    <path d="m0 0-2.949 0.364-0.581-2.01c0.66-0.744 1.639-1.898 2.712-1.898 0.34 0 0.651 0.096 0.929 0.273z"
                          fill="#fa968c"/>
                </g>
                <g transform="translate(140.63 186.83)">
                    <path d="m0 0c-1.989 0-3.602 1.613-3.602 3.603v4.012h6.178s0-3.133-0.45-5.247c-0.337-1.586-1.112-2.368-2.126-2.368"
                          fill="#fab9af"/>
                </g>
                <g transform="translate(138.07 191.19)">
                    <path d="m0 0c0-0.783-0.375-1.418-0.837-1.418s-0.972 1.026-0.972 1.81c0 0.783 0.51 1.026 0.972 1.026s0.837-0.635 0.837-1.418"
                          fill="#fab9af"/>
                </g>
                <g transform="translate(143.83 196.45)">
                    <path d="m0 0s-1.377-0.367-3.216-0.223l-2.085 1e-3c-1.253 1e-3 -2.269-1.015-2.269-2.268v-0.486l0.67-0.873 0.65-1.015h0.082c0.398 0 0.723 0.309 0.748 0.701 0.041 0.646 0.487 1.187 1.135 1.187h1.85c1.127 0 1.712-0.605 1.712-1.448l-0.057-0.713s1.675 1.397 0.78 5.137"
                          fill="#3c5a73"/>
                </g>
                <g transform="translate(165.9 174.48)">
                    <path d="m0 0s-2.107 0.543-2.486-0.045-0.526-1.053 0.309-1.637c0.836-0.583 2.26-0.986 3.163-1.056 0.902-0.072 2.464 0.449 2.595 0.615 0.475 0.604-1.173 0.561-1.972 0.579s-1.7 0.117-1.583 0.499c0.118 0.382 1.645 0.233 1.925 0.627 0.278 0.393-1.951 0.418-1.951 0.418"
                          fill="#fab9af"/>
                </g>
                <g transform="translate(248.38 201.65)">
                    <path d="m0 0c-2.142-1.142-4.611-0.433-6.039 1.539-3.027 3.905-3.61 13.625-3.836 18.554-0.041 0.913 1.292 1.067 1.471 0.181 0.588-2.901 1.113-5.419 1.746-7.822 0.57-2.104 2.811-9.764 4.648-8.628 2.266 1.485 4.636 8.25 4.271 7.25 0.491 1.347 1.98 2.04 3.327 1.549s2.04-1.98 1.549-3.327c-0.365-1-3.361-7.443-7.137-9.296"
                          fill="#fa968c"/>
                </g>
                <g transform="translate(247.65 207.32)">
                    <path d="m0 0c0.594 0.87 1.145 1.778 1.653 2.71 0.503 0.909 1.016 1.919 1.375 2.778l0.018 0.043c0.029 0.07 0.061 0.137 0.097 0.204 0.668 1.269 2.237 1.756 3.505 1.088 1.269-0.668 1.756-2.237 1.088-3.506-0.626-1.19-1.232-2.163-1.924-3.187-0.469-0.676-1.075-1.767-1.588-2.412-3.134 0.144-4.228 2.276-4.224 2.282"
                          fill="#ffa0be"/>
                </g>
                <g transform="translate(250.28 188.87)">
                    <path d="m0 0c0.056-0.52 0.414-0.941 0.91-1.106 3.175-1.054 7.986-1.622 13.188-2.072 0.75-0.065 1.41 0.511 1.424 1.264 0.04 2.105-0.853 6.023-1.113 9.986-0.325 4.928-0.528 10.308-0.637 13.783-0.065 2.075-1.766 3.715-3.841 3.715h-5.798c-1.956 0-3.584-1.494-3.745-3.443-0.223-2.695-0.548-6.623-0.868-10.483-0.305-3.666 0.252-9.515 0.48-11.644"
                          fill="#fab9af"/>
                </g>
                <g transform="translate(257.7 145.97)">
                    <path d="m0 0-0.019-5.127 0.446-2.497c0.076-0.433-0.243-0.832-0.683-0.846-2.098-0.064-7.473-0.206-7.617 0.027-0.676 1.093 2.379 1.514 4.614 2.379s0.693 9.35 0.693 9.35z"
                          fill="#fa968c"/>
                </g>
                <g transform="translate(254.44 139.9)">
                    <path d="m0 0c0.012 5e-3 0.021 0.013 0.033 0.019 0.533-0.2 1.132-0.317 1.808-0.317 0.579 0 1.104 0.084 1.578 0.233l0.267-1.495c0.076-0.432-0.244-0.832-0.683-0.845-2.099-0.065-7.473-0.206-7.617 0.027-0.676 1.093 2.379 1.514 4.614 2.378"
                          fill="#f57a2f"/>
                </g>
                <g transform="translate(250.19 187.4)">
                    <path d="m0 0c-0.081-3.563 1.321-26.172 4.089-26.235 2.769-0.063 5.856 22.444 5.937 26.007 0.081 3.564-2.098 6.504-4.866 6.567-2.769 0.062-5.079-2.776-5.16-6.339"
                          fill="#0091c8"/>
                </g>
                <g transform="translate(258.1 165.87)">
                    <path d="m0 0c0.274-1.962 0.319-14.53-0.122-20.915h-2.521c-1.353 6.193-2.799 18.197-3.068 20.115-4e-3 0.025-5e-3 0.048-9e-3 0.072-1.506 6.664-2.253 19.638-2.194 22.266 0.081 3.564 2.392 6.401 5.16 6.339 2.769-0.063 4.947-3.003 4.866-6.566-0.05-2.238-2.242-20.382-2.112-21.311"
                          fill="#0073aa"/>
                </g>
                <g transform="translate(256.68 174.1)">
                    <path d="m0 0c0.616-1.494 1.18-3.013 1.718-4.549 0.576 5.664 1.779 15.978 1.816 17.629 0.081 3.564-2.097 6.504-4.866 6.566-2.769 0.063-5.079-2.775-5.159-6.338-0.011-0.481 5e-3 -1.31 0.048-2.381 3.537-2.586 6.08-6.52 6.443-10.927"
                          fill="#00558c"/>
                </g>
                <g transform="translate(263.75 145.97)">
                    <path d="m0 0-0.019-5.127 0.446-2.497c0.076-0.433-0.243-0.832-0.683-0.846-2.098-0.064-7.473-0.206-7.617 0.027-0.676 1.093 2.379 1.514 4.614 2.379s0.693 9.35 0.693 9.35z"
                          fill="#fa968c"/>
                </g>
                <g transform="translate(260.49 139.9)">
                    <path d="m0 0c0.013 5e-3 0.022 0.013 0.034 0.019 0.533-0.2 1.132-0.317 1.808-0.317 0.579 0 1.104 0.084 1.578 0.233l0.267-1.495c0.076-0.432-0.244-0.832-0.683-0.845-2.099-0.065-7.473-0.206-7.617 0.027-0.676 1.093 2.379 1.514 4.613 2.378"
                          fill="#ff8c46"/>
                </g>
                <g transform="translate(256.24 187.4)">
                    <path d="m0 0c-0.081-3.563 1.32-26.172 4.089-26.235 2.768-0.063 5.257 22.527 5.338 26.09 0.081 3.564-1.499 6.421-4.268 6.484-2.768 0.062-5.078-2.776-5.159-6.339"
                          fill="#0091c8"/>
                </g>
                <g transform="translate(264.15 165.87)">
                    <path d="m0 0c0.274-1.962 0.319-14.53-0.122-20.915h-2.521c-1.353 6.193-2.799 18.197-3.068 20.115-4e-3 0.025-5e-3 0.048-9e-3 0.072-1.506 6.664-2.851 19.721-2.792 22.349 0.08 3.564 2.99 6.318 5.758 6.256 2.769-0.063 4.349-2.92 4.268-6.483-0.051-2.238-1.644-20.465-1.514-21.394"
                          fill="#0091c8"/>
                </g>
                <g transform="translate(250.78 212.27)">
                    <path d="m0 0c0.101 1.227 1.125 2.167 2.357 2.167h1.344c0.467-1.083 1.458-1.92 2.995-1.92 1.539 0 2.528 0.837 2.996 1.92h1.226c1.254 0 2.281-0.991 2.317-2.245 0.094-3.267 0.189-8.221 0.564-13.912 0.339-5.152 1.777-7.508 1.067-12.749 0 0-13.513-1.037-15.771 1.554-0.25 2.688-0.447 8.878-0.069 13.425 0.377 4.526 0.758 9.143 0.974 11.76"
                          fill="#ff82aa"/>
                </g>
                <g transform="translate(237.91 223.67)">
                    <path d="m0 0s0.052-2.549 0.664-2.887c0.613-0.338 1.009-0.192 1.495 0.562 0.552 0.857 0.693 2.352 0.716 3.258 0.012 0.51-0.675 2.492-0.85 2.611-0.636 0.433-0.286-1.404-0.249-2.202 0.036-0.799-0.212-1.229-0.601-1.138s-0.327 1.345-0.739 1.597c-0.412 0.251-0.436-1.801-0.436-1.801"
                          fill="#fa968c"/>
                </g>
                <g transform="translate(264.51 210.22)">
                    <path d="m0 0c-7.262-9.898-20.776-15.709-30.96-6.077-0.639 0.604 0.128 1.621 0.883 1.185l0.034-0.019c4.688-2.706 9.001-3.884 14.386-1.621 4.501 1.939 8.552 5.743 11.449 9.561l0.054 0.071c2.052 2.705 6.163-0.358 4.154-3.1"
                          fill="#fab9af"/>
                </g>
                <g transform="translate(256.51 209.13)">
                    <path d="m0 0c1.741 1.563 3.956 4.643 3.956 4.643s1.05 1.24 3.21 0.336c1.726-0.723 1.376-2.761 1.376-2.761-0.042-0.284-0.619-3.647-4.586-6.62 0 0-3.163 1.466-3.956 4.402"
                          fill="#ffa0be"/>
                </g>
                <g transform="translate(257.83 217.45)">
                    <path d="m0 0 0.155-0.034c1.181-0.263 2.352 0.481 2.615 1.663l0.702 3.159-2.293 0.511z"
                          fill="#3c5a73"/>
                </g>
                <g transform="translate(255.78 214.44)">
                    <path d="m0 0h4.325l-1.247 4.312-2.948-0.364z" fill="#fab9af"/>
                </g>
                <g transform="translate(255.91 218.39)">
                    <path d="m0 0 2.948 0.365 0.581-2.01c-0.66-0.744-1.638-1.898-2.712-1.898-0.34 0-0.65 0.096-0.929 0.272z"
                          fill="#fa968c"/>
                </g>
                <g transform="translate(255.46 216.1)">
                    <path d="m0 0c1.941-0.432 3.866 0.793 4.298 2.734l0.871 3.918-6.031 1.341s-0.68-3.057-0.7-5.22c-0.014-1.621 0.572-2.552 1.562-2.773"
                          fill="#fab9af"/>
                </g>
                <g transform="translate(258.91 219.8)">
                    <path d="m0 0c-0.17-0.765 0.058-1.466 0.509-1.565 0.451-0.101 1.172 0.79 1.342 1.554 0.17 0.765-0.275 1.113-0.727 1.213-0.451 0.101-0.954-0.438-1.124-1.202"
                          fill="#fab9af"/>
                </g>
                <g transform="translate(253.83 222.57)">
                    <path d="m0 0c-0.032 0.519 0.052 1.038 0.247 1.521 0.485 1.196 1.825 1.71 3.044 1.287 0.125-0.044 0.257-0.081 0.397-0.113l2.035-0.452c1.223-0.271 1.995-1.483 1.722-2.707l-0.105-0.473-0.877-0.718-0.821-0.839-0.08 0.017c-0.389 0.086-0.639 0.459-0.579 0.847 0.101 0.64-0.217 1.265-0.849 1.405l-1.807 0.402c-1.099 0.244-1.803-0.219-1.985-1.041l-0.099-0.709z"
                          fill="#3c5a73"/>
                </g>
                <g transform="translate(232.89 206.43)">
                    <path d="m0 0s0.151-2.171 0.829-2.345c0.678-0.173 1.165-0.166 1.454 0.812 0.29 0.977 0.221 2.456 3e-3 3.334-0.219 0.879-1.206 2.196-1.405 2.267-0.724 0.26-0.161-1.29 0.075-2.053 0.235-0.764 0.426-1.65 0.026-1.66-0.399-9e-3 -0.741 1.487-1.202 1.627-0.462 0.141 0.22-1.982 0.22-1.982"
                          fill="#fab9af"/>
                </g>
                <g transform="translate(259.59 199.33)">
                    <path d="m0 0 16.717-91.854" fill="none" stroke="#41b5e6" stroke-linecap="round"
                          stroke-miterlimit="10" stroke-width="1.296"/>
                </g>
                <g transform="translate(251.57 107.47)">
                    <path d="m0 0-16.717 91.854" fill="none" stroke="#41b5e6" stroke-linecap="round"
                          stroke-miterlimit="10" stroke-width="1.296"/>
                </g>
                <g transform="translate(236.82 191.95)">
                    <path d="m0 0h24.188" fill="none" stroke="#41b5e6" stroke-linecap="round" stroke-miterlimit="10"
                          stroke-width="1.296"/>
                </g>
                <g transform="translate(238.43 180.87)">
                    <path d="m0 0h24.526" fill="none" stroke="#41b5e6" stroke-linecap="round" stroke-miterlimit="10"
                          stroke-width="1.296"/>
                </g>
                <g transform="translate(240.66 169.79)">
                    <path d="m0 0h24.307" fill="none" stroke="#41b5e6" stroke-linecap="round" stroke-miterlimit="10"
                          stroke-width="1.296"/>
                </g>
                <g transform="translate(242.83 158.71)">
                    <path d="m0 0h24.162" fill="none" stroke="#41b5e6" stroke-linecap="round" stroke-miterlimit="10"
                          stroke-width="1.296"/>
                </g>
                <g transform="translate(244.56 147.63)">
                    <path d="m0 0h24.442" fill="none" stroke="#41b5e6" stroke-linecap="round" stroke-miterlimit="10"
                          stroke-width="1.296"/>
                </g>
                <g transform="translate(246.2 136.75)">
                    <path d="m0 0h24.781" fill="none" stroke="#41b5e6" stroke-linecap="round" stroke-miterlimit="10"
                          stroke-width="1.296"/>
                </g>
                <g transform="translate(248.64 125.47)">
                    <path d="m0 0h24.402" fill="none" stroke="#41b5e6" stroke-linecap="round" stroke-miterlimit="10"
                          stroke-width="1.296"/>
                </g>
                <g transform="translate(250.31 114.39)">
                    <path d="m0 0h24.468" fill="none" stroke="#41b5e6" stroke-linecap="round" stroke-miterlimit="10"
                          stroke-width="1.296"/>
                </g>
                <g transform="translate(234.85 199.33)">
                    <path d="m0 0-16.716-91.854" fill="none" stroke="#a8e5ff" stroke-linecap="round"
                          stroke-miterlimit="10" stroke-width="1.296"/>
                </g>
                <g transform="translate(242.88 107.47)">
                    <path d="m0 0 16.716 91.854" fill="none" stroke="#a8e5ff" stroke-linecap="round"
                          stroke-miterlimit="10" stroke-width="1.296"/>
                </g>
                <g transform="translate(257.62 191.95)">
                    <path d="m0 0h-24.117" fill="none" stroke="#a8e5ff" stroke-linecap="round" stroke-miterlimit="10"
                          stroke-width="1.296"/>
                </g>
                <g transform="translate(256.02 180.87)">
                    <path d="m0 0h-24.526" fill="none" stroke="#a8e5ff" stroke-linecap="round" stroke-miterlimit="10"
                          stroke-width="1.296"/>
                </g>
                <g transform="translate(253.78 169.79)">
                    <path d="m0 0h-24.307" fill="none" stroke="#a8e5ff" stroke-linecap="round" stroke-miterlimit="10"
                          stroke-width="1.296"/>
                </g>
                <g transform="translate(251.62 158.71)">
                    <path d="m0 0h-24.162" fill="none" stroke="#a8e5ff" stroke-linecap="round" stroke-miterlimit="10"
                          stroke-width="1.296"/>
                </g>
                <g transform="translate(249.88 147.63)">
                    <path d="m0 0h-24.442" fill="none" stroke="#a8e5ff" stroke-linecap="round" stroke-miterlimit="10"
                          stroke-width="1.296"/>
                </g>
                <g transform="translate(248.24 136.75)">
                    <path d="m0 0h-24.781" fill="none" stroke="#a8e5ff" stroke-linecap="round" stroke-miterlimit="10"
                          stroke-width="1.296"/>
                </g>
                <g transform="translate(245.81 125.47)">
                    <path d="m0 0h-24.401" fill="none" stroke="#a8e5ff" stroke-linecap="round" stroke-miterlimit="10"
                          stroke-width="1.296"/>
                </g>
                <g transform="translate(244.14 114.39)">
                    <path d="m0 0h-24.468" fill="none" stroke="#a8e5ff" stroke-linecap="round" stroke-miterlimit="10"
                          stroke-width="1.296"/>
                </g>
                <g transform="translate(259.92 224)">
                    <path d="m0 0c0.138-1.117-3.878-2.533-4.937-2.664s-2.03 0.669-2.167 1.786c-0.139 1.117 0.608 2.13 1.667 2.26 1.059 0.131 5.299-0.265 5.437-1.382"
                          fill="#3c5a73"/>
                </g>
                <path d="m333.07 241.27h-82.667v35.861h82.667z" fill="none" stroke="#d2afff" stroke-miterlimit="10"
                      stroke-width=".864"/>
                <g>
                    <g>
                        <g clip-path="url(#clipPath494)" opacity=".39999">
                            <g transform="translate(330.09 275.53)">
                                <path d="m0 0-74.595-15.015c-1.78-0.358-3.513 0.795-3.872 2.575l-5.778 28.709c-0.358 1.78 0.794 3.514 2.575 3.872l74.594 15.014c1.78 0.359 3.514-0.794 3.872-2.574l5.779-28.709c0.359-1.78-0.795-3.514-2.575-3.872"
                                      fill="#6c9baa"/>
                            </g>
                        </g>
                    </g>
                </g>
                <g transform="translate(330.46 279.2)">
                    <path d="m0 0-74.595-15.014c-1.78-0.359-3.513 0.794-3.872 2.574l-5.779 28.709c-0.358 1.78 0.795 3.514 2.575 3.872l74.595 15.015c1.78 0.358 3.513-0.795 3.872-2.575l5.778-28.709c0.359-1.78-0.794-3.514-2.574-3.872"
                          fill="#6e64c3"/>
                </g>
                <g transform="translate(247.64 284.59)">
                    <path d="m0 0 9.979 16.13 1.818 107.9 57.241-95.611 12.174-9.18" fill="none" stroke="#fff"
                          stroke-linecap="round" stroke-miterlimit="10" stroke-width="1.296"/>
                </g>
                <g transform="translate(172.92 363.49)">
                    <path d="m0 0c1.918-1.938 16.536-17.468 15.745-17.957-0.685-0.423-17.925 11.961-19.844 13.9-1.918 1.938-2.556 4.417-1.424 5.537 1.131 1.121 3.604 0.458 5.523-1.48"
                          fill="#41b5e6"/>
                </g>
                <g transform="translate(193.4 343.37)">
                    <path d="m0 0c-1.854 0.861-5.413 4.33-8.905 7.504l-0.872-2.344 5.612-5.175c1.243-0.523 3.227-0.594 4.165 0.015"
                          fill="#fab9af"/>
                </g>
                <g transform="translate(193.08 343.59)">
                    <path d="m0 0c-1.266-0.449-2.816-0.455-3.929-0.174 0.021-0.407 0.032-1.498 0.045-1.883 9e-3 -0.272 0.216-0.495 0.486-0.527 0 0 8.631-0.057 8.617 0.254-0.097 2.19-4.605 1.974-5.219 2.33"
                          fill="#ff8c46"/>
                </g>
                <g transform="translate(204.04 343.37)">
                    <path d="m0 0c-1.854 0.861-5.413 4.33-8.905 7.504l-0.872-2.344 5.612-5.175c1.242-0.523 3.227-0.594 4.165 0.015"
                          fill="#fab9af"/>
                </g>
                <g transform="translate(203.72 343.59)">
                    <path d="m0 0c-1.266-0.449-2.816-0.455-3.929-0.174 0.021-0.407 0.032-1.498 0.045-1.883 9e-3 -0.272 0.216-0.495 0.486-0.527 0 0 8.631-0.057 8.618 0.254-0.098 2.19-4.606 1.974-5.22 2.33"
                          fill="#ff8c46"/>
                </g>
                <g transform="translate(179.38 359.53)">
                    <path d="m0 0c1.186-1.198 11.885-9.578 17.25-13.266 0.75 0.546 1.215 0.992 1.762 1.742-3.743 4.228-11.756 13.794-13.658 15.772-2.129 3.065-17.754 11.637-20.856 12.773-3.348 1.225-6.833 0.11-7.785-2.49-0.952-2.601 0.751-6.146 4.098-7.371 2.166-0.793 18.387-6.35 19.189-7.16"
                          fill="#0073aa"/>
                </g>
                <g transform="translate(165.32 375.87)">
                    <path d="m0 0c-0.562 0.263-1.023 0.464-1.344 0.582-3.347 1.225-6.833 0.11-7.784-2.49-0.953-2.601 0.75-6.146 4.098-7.371 1.087-0.398 5.713-1.996 10.154-3.591-2.682 3.782-4.551 8.07-5.124 12.87"
                          fill="#00558c"/>
                </g>
                <g transform="translate(174.18 363.68)">
                    <path d="m0 0c-1.343 1.934-8.054 6.057-13.606 9.124-0.785 0.433-1.737 0.358-2.466-0.162-1.648-1.173-3.377-2.242-5.095-3.319-0.721-0.452-1.128-1.268-1.052-2.115 0.019-0.214 0.034-0.428 0.044-0.645 0.012-0.271-0.2-0.192-0.205-0.46 5.136-1.801 16.368-6.006 17.026-6.671 1.186-1.197 11.975-9.74 17.341-13.428 1.111 0.392 1.696 0.944 2.288 1.601-3.743 4.229-12.373 14.096-14.275 16.075"
                          fill="#0091c8"/>
                </g>
                <g transform="translate(151.42 396.97)">
                    <path d="m0 0c6.456-5.984 20.219-6.635 28.998-6.305 0.997 0.038 1.087-1.299 0.215-1.467-10.322-1.98-24.11-2.499-32.532 3.786-2.749 2.051 0.354 6.217 3.107 4.163 0.074-0.055 0.146-0.116 0.212-0.177"
                          fill="#fa968c"/>
                </g>
                <g transform="translate(156.65 394.21)">
                    <path d="m0 0c-0.945 0.465-4.622 2.283-5.358 2.854l-0.037 0.029c-0.058 0.046-0.12 0.089-0.184 0.13-1.205 0.776-2.811 0.427-3.587-0.778s-0.428-2.812 0.778-3.588c1.131-0.727 2.137-1.276 3.244-1.827 0.741-0.358 1.498-0.683 2.262-0.992 0.132 0.543 2.889 4.169 2.882 4.172"
                          fill="#aac85a"/>
                </g>
                <g transform="translate(163.29 376.29)">
                    <path d="m0 0-11.493-10.187c-1.386 0.499-2.659 5.609-4.898 10.261-2.421 5.03-5.262 10.486-6.813 13.426-0.639 1.212-0.197 2.711 0.997 3.386l7.202 4.07c1.109 0.627 2.512 0.303 3.229-0.752 1.483-2.183 3.556-7.254 6.086-10.973 2.566-3.772 5.69-9.231 5.69-9.231"
                          fill="#fab9af"/>
                </g>
                <g transform="translate(148.36 397.28)">
                    <path d="m0 0-1.17-0.661c0.126-1.173-0.325-2.39-1.663-3.146-1.339-0.757-2.613-0.515-3.553 0.199l-1.068-0.604c-1.091-0.617-1.497-1.986-0.912-3.095 1.526-2.89 4.438-8.474 6.912-13.614 2.239-4.651 3.37-9.511 4.898-10.261 5.121 3.531 11.646 7.157 12.252 10.377 0 0-7.967 11.761-12.578 20.078-0.597 1.076-2.047 1.333-3.118 0.727"
                          fill="#82be50"/>
                </g>
                <g transform="translate(182.61 389.16)">
                    <path d="m0 0s-1.981-0.899-2.457-0.386c-0.475 0.514-0.699 0.946 0.022 1.665 0.723 0.72 2.056 1.363 2.932 1.589 0.877 0.225 2.505-0.017 2.663-0.158 0.572-0.514-1.058-0.755-1.843-0.911-0.783-0.156-1.653-0.409-1.472-0.765 0.182-0.357 1.661 0.054 2.004-0.285s-1.849-0.749-1.849-0.749"
                          fill="#fa968c"/>
                </g>
                <g transform="translate(143.13 398.22)">
                    <path d="m0 0-0.156-0.029c-1.189-0.225-2.335 0.556-2.56 1.744l-0.602 3.181 2.308 0.437z"
                          fill="#a56941"/>
                </g>
                <g transform="translate(146.77 395.06)">
                    <path d="m0 0-3.645-1.512-0.379 0.443 0.197 4.734 2.965 0.189z" fill="#fab9af"/>
                </g>
                <g transform="translate(145.91 398.92)">
                    <path d="m0 0-2.965-0.19-0.079-1.901c0.787-0.608 1.7-1.263 2.754-1.063 0.335 0.064 0.651 0.253 0.892 0.478z"
                          fill="#fa968c"/>
                </g>
                <g transform="translate(145.45 396.79)">
                    <path d="m0 0c-1.955-0.37-3.839 0.915-4.209 2.87l-0.747 3.942 6.071 1.149s0.582-3.077 0.533-5.238c-0.036-1.622-0.652-2.534-1.648-2.723"
                          fill="#fab9af"/>
                </g>
                <g transform="translate(141.6 402.25)">
                    <path d="m0 0-1.141-0.216 0.098-0.517 1.141 0.216z" fill="#a56941"/>
                </g>
                <g transform="translate(142.13 400.6)">
                    <path d="m0 0c0.146-0.769-0.104-1.462-0.559-1.549-0.454-0.086-1.146 0.828-1.292 1.597-0.145 0.769 0.31 1.103 0.765 1.189 0.454 0.086 0.94-0.467 1.086-1.237"
                          fill="#fab9af"/>
                </g>
                <g transform="translate(147.29 403.21)">
                    <path d="m0 0c0.049 0.518-0.019 1.041-0.199 1.528 0 0-0.309 1.765-1.063 1.97-0.686 0.186-1.683-0.408-2.338-0.686-0.48-0.205-2.048-0.388-2.048-0.388-1.232-0.232-2.041-1.419-1.809-2.65l0.091-0.478 1.184-0.737 0.464-0.872 0.081 0.015c0.39 0.074 0.653 0.439 0.604 0.828-0.079 0.642 0.258 1.257 0.894 1.377l1.819 0.344c1.107 0.21 1.795-0.276 1.951-1.104l0.076-0.71z"
                          fill="#a56941"/>
                </g>
                <g transform="translate(246.95 417.43)">
                    <path d="m0 0-89.532-38.335" fill="none" stroke="#fff" stroke-miterlimit="10" stroke-width="1.296"/>
                </g>
                <g transform="translate(149.47 387.05)">
                    <path d="m0 0c3.2-1.835 6.221-2.382 9.472-2.712 5.607-0.678 15.551 2.739 14.55 2.435 0.854 0.259 1.349-0.947 0.564-1.364-4.416-2.347-10.445-4.808-15.103-4.843l-2.365-0.043c-7.755 0.287-14.25 4.292-17.112 8.385-0.819 1.172-0.533 2.786 0.638 3.605 2.906 2.031 3.642-2.212 9.356-5.463"
                          fill="#fab9af"/>
                </g>
                <g transform="translate(147.35 388.62)">
                    <path d="m0 0c-2.188 1.752-3.644 3.424-3.671 3.455l0.049-0.06-1.433 1.082s-1.525 0.563-2.96-1.288c-1.147-1.478 0.161-3.08 0.161-3.08 0.175-0.227 0.96-2.25 5.167-4.626 0 0 2.994 4.271 2.687 4.517"
                          fill="#aac85a"/>
                </g>
                <g transform="translate(175.16 387.6)">
                    <path d="m0 0s-2.131-0.439-2.213-1.134-9e-3 -1.176 0.998-1.333 2.463 0.108 3.305 0.441c0.841 0.334 2.015 1.488 2.059 1.695 0.161 0.752-1.3-0.012-2.025-0.348-0.726-0.335-1.578-0.642-1.641-0.248-0.063 0.395 1.375 0.933 1.453 1.409 0.077 0.476-1.936-0.482-1.936-0.482"
                          fill="#fab9af"/>
                </g>
                <g transform="translate(329.49 226.33)">
                    <path d="m0 0c0-1.462-1.185-2.647-2.646-2.647-1.462 0-2.647 1.185-2.647 2.647 0 1.461 1.185 2.646 2.647 2.646 1.461 0 2.646-1.185 2.646-2.646"
                          fill="#55c7a6"/>
                </g>
                <g transform="translate(329.49 208.24)">
                    <path d="m0 0c0-1.462-1.185-2.647-2.646-2.647-1.462 0-2.647 1.185-2.647 2.647 0 1.461 1.185 2.646 2.647 2.646 1.461 0 2.646-1.185 2.646-2.646"
                          fill="#55c7a6"/>
                </g>
                <g transform="translate(351.79 179.07)">
                    <path d="m0 0s0.692-1.562 0.18-3.155c-0.513-1.594-0.197-3.567 1.131-5.011 0 0 0.255 2.256 0.705 3.336 0.449 1.08 0.154 4.26-2.016 4.83"
                          fill="#fff"/>
                </g>
                <g transform="translate(355.26 179.75)">
                    <path d="m 0,0 c 0,0 -2.377,-1.495 -2.088,-3.511 0,0 -1.269,0.9 -1.557,3.996 C -3.843,2.631 0,0 0,0"
                          fill="#fff0f2"/>
                </g>
                <g transform="translate(368.28 170.37)">
                    <path d="m0 0c-1.188 0.525-2.176 1.425-2.65 2.634-0.77 1.957-2.188 3.497-3.937 4.251-0.867 0.374-1.44 1.21-1.44 2.153h-2.349v-1.792c-3.228-0.729-5.666-4.025-5.666-7.985 0-4.34 2.929-7.876 6.616-8.116 0.524-3.897 3.419-6.881 6.923-6.881 3.874 0 7.015 3.644 7.015 8.139 0 3.472-1.874 6.429-4.512 7.597"
                          fill="#fff"/>
                </g>
                <g transform="translate(354.75 167.27)" fill="#a05a2c">
                    <path d="m0 0c-0.03-0.258-0.064-0.413-0.097-0.578-0.031-0.171-0.07-0.33-0.113-0.484-0.08-0.312-0.169-0.62-0.283-0.917-0.2-0.601-0.482-1.185-0.797-1.75-0.637-1.134-1.596-2.141-2.692-2.934-0.581-0.336-1.184-0.679-1.8-0.892-0.626-0.156-1.261-0.408-1.874-0.433-0.611-0.032-1.24-0.118-1.821-0.071-0.578 0.06-1.151 0.138-1.717 0.215-2.181 0.504-4.158 1.286-5.942 2.313l-1.331 0.768c-0.449 0.246-0.879 0.515-1.283 0.822l-2.46 1.753c-0.334 0.238-0.412 0.701-0.174 1.035 0.207 0.291 0.586 0.387 0.901 0.25l0.052-0.024c1.793-0.782 3.549-1.605 5.358-2.18 1.791-0.62 3.609-1.01 5.316-1.109 1.709-0.052 3.185 0.356 4.07 1.188 0.425 0.451 0.814 0.927 1.059 1.565 0.119 0.315 0.251 0.633 0.319 0.979 0.05 0.168 0.078 0.338 0.102 0.506 0.016 0.086 0.027 0.168 0.03 0.241 8e-3 0.078 0.016 0.165 9e-3 0.153 0.114 1.427 1.364 2.491 2.792 2.376 1.427-0.115 2.49-1.365 2.376-2.792"
                          fill="#a05a2c"/>
                </g>
                <g transform="translate(349.31 145.03)" fill="#a05a2c">
                    <path d="m0 0c2.259-2.591 15.294-3.673 15.294-3.673 0.963 1.116-3.521 13.862-3.521 13.862s2.16 9.2 2.063 12.521c-0.04 1.371-1.162 2.459-2.533 2.459h-8.273c-1.275 0-2.337-0.973-2.441-2.244-0.217-2.63 3.219-12.447 3.219-12.447s-5.76-8.238-3.808-10.478"
                          fill="#a05a2c"/>
                </g>
                <g transform="translate(356.45 94.763)" fill="#c87137">
                    <path d="m0 0c-0.084-0.173-0.092-0.373-0.022-0.553 0.069-0.178 0.209-0.321 0.387-0.393 1.615-0.657 2.252-0.445 3.194 0.211l-6e-3 7.837-1.547 2.338c-0.36 0.545-1.206 0.222-1.114-0.424 0.461-3.249 0.897-8.2-0.656-8.537-5e-3 -1e-3 -0.115-0.229-0.236-0.479"
                          fill="#c87137"/>
                </g>
                <g transform="translate(358.07 94.388)" fill="#008080">
                    <path d="m0 0c-0.39 0.047-1.258 0.465-1.422 0.794-3.278-0.284-4.85-1.362-4.85-2.32 0.143-0.234 5.759-0.041 7.859 0.014 0.439 0.012 0.615 0.431 0.539 0.864l-0.149 1.232c-0.3-0.389-0.974-0.703-1.977-0.584"
                          fill="#008080"/>
                </g>
                <g transform="translate(380.58 131.82)" fill="#a05a2c">
                    <path d="m0 0c-6.257-1.724-16.905-5.178-18.625-6.058-2.428-1.242-3.161-3.592-2.437-5.01 0.726-1.418 2.635-1.366 5.063-0.123 1.674 0.855 11.408 6.386 16.906 9.71-0.211 0.632-0.727 0.841-0.907 1.481"
                          fill="#a05a2c"/>
                </g>
                <g transform="translate(386.18 131.21)" fill="#a05a2c">
                    <path d="m0 0c0.192 3e-3 0.374 0.085 0.504 0.228 0.129 0.142 0.193 0.331 0.179 0.523-0.138 1.737-0.613 2.212-1.62 2.761-2.212-1.28-4.416-2.571-7.908-3.863-0.597-1.211 0.723-2.465 1.905-1.81 2.61 1.446 5.676 2.89 6.406 2.158 3e-3 -4e-3 0.256-1e-3 0.534 3e-3"
                          fill="#a05a2c"/>
                </g>
                <g transform="translate(385.79 132.82)" fill="#008080">
                    <path d="m0 0c0.134-0.37 0.149-1.332-0.071-1.627 1.722-2.804 3.39-3.726 4.247-3.297 0.144 0.234-2.544 5.168-3.535 7.02-0.207 0.387-0.661 0.357-1.014 0.095l-1.034-0.686c0.482-0.093 1.065-0.555 1.407-1.505"
                          fill="#008080"/>
                </g>
                <g transform="translate(357.68 101.77)" fill="#c87137">
                    <path d="m0 0c0.701-0.418 1.589-0.331 2.291-0.746 0.158 6.55-0.029 17.212-0.358 19.063-0.478 2.685-2.136 4.636-3.704 4.357-1.568-0.278-2.452-2.682-1.974-5.366 0.3-1.689 2.209-11.036 3.745-17.308"
                          fill="#c87137"/>
                </g>
                <g transform="translate(349.56 142.81)" fill="#c87137">
                    <path d="m0 0c0.203-3.559 3.404-25.983 6.169-25.825 2.766 0.158 4.047 22.84 3.843 26.398-0.204 3.559-2.611 6.316-5.375 6.157-2.765-0.159-4.841-3.171-4.637-6.73"
                          fill="#c87137"/>
                </g>
                <g transform="translate(353.81 143.65)" fill="#a05a2c">
                    <path d="m0 0c0.061-3.564 4.06-23.874 6.828-23.826 2.77 0.048 3.758 20.514 3.696 24.079-0.061 3.563-2.853 6.334-5.622 6.286-2.768-0.048-4.964-2.976-4.902-6.539"
                          fill="#a05a2c"/>
                </g>
                <g transform="translate(355.26 169.63)" fill="#a05a2c">
                    <path d="m0 0 3.753 0.394-1.188 4.107-2.427-0.301z" fill="#a05a2c"/>
                </g>
                <g transform="translate(355.4 173.83)" fill="#a05a2c">
                    <path d="m0 0 2.428 0.301 0.371-1.282c-0.544-0.614-1.242-1.937-2.125-1.937-0.28 0-0.536 0.079-0.766 0.225z"
                          fill="#a05a2c"/>
                </g>
                <g transform="translate(355.32 171.84)" fill="#a05a2c">
                    <path d="m0 0c0.824 0 1.715 0.413 2.943 1.485 0.705 0.617 1.227 1.69 1.227 2.415v4.013h-6.178s-0.464-2.13-0.013-4.244c0.337-1.587 1.373-3.669 2.021-3.669"
                          fill="#a05a2c"/>
                </g>
                <path d="m358.66 178.22h1.161v-0.526h-1.161z" fill="#fff"/>
                <g transform="translate(358.44 176.5)" fill="#a05a2c">
                    <path d="m0 0c0-0.782 0.375-1.417 0.837-1.417s0.972 1.026 0.972 1.809-0.51 1.026-0.972 1.026-0.837-0.635-0.837-1.418"
                          fill="#a05a2c"/>
                </g>
                <g transform="translate(357.98 181.54)">
                    <path d="m0 0h-2.085c-0.568-1e-3 -1.12 0.141-1.609 0.403-0.789 0.422-1.784 0.301-2.293-0.434-0.504-0.728-0.681-1.679 0.65-2.563 0.685-0.453 1.684 0.05 2.351-0.169 0.041 2e-3 0.077 9e-3 0.12 9e-3h1.85c0.648 0 1.094-0.541 1.135-1.186 0.025-0.392 0.35-0.702 0.748-0.702h0.081l0.295 0.943 1.026 0.945v0.486c0 1.253-1.016 2.269-2.269 2.268"
                          fill="#fff"/>
                </g>
                <g transform="translate(330.6 165.12)" fill="#a05a2c">
                    <path d="m0 0s2.094-0.594 2.487-0.016c0.394 0.579 0.551 1.04-0.269 1.644-0.822 0.603-2.236 1.041-3.136 1.134-0.9 0.092-2.475-0.39-2.609-0.552-0.491-0.594 1.159-0.59 1.957-0.627 0.799-0.037 1.696-0.158 1.57-0.538-0.127-0.379-1.65-0.192-1.939-0.579s1.939-0.466 1.939-0.466"
                          fill="#a05a2c"/>
                </g>
                <g transform="translate(333.41 163.01)">
                    <path d="m0 0c0-2.744-2.225-4.968-4.969-4.968s-4.969 2.224-4.969 4.968 2.225 4.969 4.969 4.969 4.969-2.225 4.969-4.969"
                          fill="#55c7a6"/>
                </g>
                <g transform="translate(330.62 159.79)" fill="#a05a2c">
                    <path d="m0 0s2.106 0.544 2.486-0.045c0.379-0.588 0.526-1.052-0.309-1.636-0.836-0.584-2.26-0.987-3.162-1.057-0.904-0.071-2.465 0.45-2.596 0.616-0.475 0.604 1.173 0.56 1.972 0.578 0.799 0.019 1.7 0.117 1.583 0.5-0.118 0.382-1.646 0.232-1.924 0.626-0.279 0.394 1.95 0.418 1.95 0.418"
                          fill="#a05a2c"/>
                </g>
                <g transform="translate(361.75 154.39)">
                    <path d="m0 0c-0.391 0.444-0.536 1.046-0.415 1.624 0.57 2.747 1.884 9.377 1.811 11.938-0.037 1.252-1.063 2.245-2.317 2.245h-1.226c-0.468-1.084-1.457-1.921-2.998-1.921-1.536 0-2.526 0.837-2.994 1.921h-1.152c1.122-2.402 0.877-5.49-0.734-7.589-0.375-0.489-0.495-1.125-0.321-1.715 0.464-1.574 0.941-3.054 1.274-4.064 0.226-0.687 0.046-1.431-0.465-1.946-3.505-3.53-5.923-11.017-5.923-19.687 0-0.739 0.02-1.466 0.056-2.185 0.051-1.028 0.901-1.835 1.931-1.835h16.951c1.03 0 1.878 0.807 1.931 1.835 0.036 0.719 0.056 1.446 0.056 2.185 0 8.286-2.21 15.49-5.465 19.194"
                          fill="#ff8c46"/>
                </g>
                <g transform="translate(362.05 159.82)">
                    <path d="m0 0c0.427 2.207 0.869 4.769 1.033 6.631-1.485-4.41-5.521-7.769-10.246-8.253 1.029-0.418 2.455-0.945 3.833-1.441 2.353-0.843 4.904 0.609 5.38 3.063"
                          fill="#eb7731"/>
                </g>
                <g transform="translate(353.62 179.3)">
                    <path d="m0 0c0.368-0.827 0.202-1.372 3.134-2.072s3.644 0.092 4.782-1.168c0 0-0.88 2.34-2.517 2.808s-4.283 0.378-5.507 2.107c0 0-0.144-1.11 0.108-1.675"
                          fill="#fff"/>
                </g>
                <g transform="translate(364.1 167.12)" fill="#a05a2c">
                    <path d="m0 0c-0.146-0.793-0.292-1.105-0.476-1.588-0.193-0.427-0.397-0.836-0.627-1.222-0.244-0.365-0.473-0.753-0.743-1.088-0.275-0.331-0.549-0.663-0.835-0.981-0.618-0.559-1.217-1.166-1.898-1.597-0.333-0.23-0.663-0.467-1-0.685l-1.042-0.558c-2.817-1.396-5.742-2.029-8.613-2.356-2.875-0.205-5.71-0.24-8.495 0.061-1.387 0.182-2.781 0.26-4.145 0.528-1.364 0.263-2.726 0.507-4.076 0.791-0.402 0.085-0.659 0.478-0.574 0.881 0.072 0.346 0.376 0.585 0.715 0.59h0.042c1.365 0.022 2.717 3e-3 4.066 3e-3 1.348-0.024 2.689 0.097 4.023 0.137l1 0.044 0.991 0.111 1.971 0.195c0.661 0.042 1.299 0.183 1.942 0.294 0.639 0.118 1.282 0.219 1.914 0.349 2.489 0.606 4.908 1.376 6.882 2.609l0.74 0.448 0.652 0.517c0.465 0.321 0.785 0.738 1.168 1.101 0.147 0.207 0.309 0.4 0.467 0.596 0.154 0.197 0.255 0.41 0.392 0.609 0.113 0.202 0.205 0.411 0.29 0.604l0.107 0.278 0.027 0.1 0.015 0.044c-6e-3 -0.02-9e-3 -0.042-0.01-0.063 0.208 1.417 1.525 2.396 2.942 2.188 1.416-0.207 2.396-1.524 2.188-2.94"
                          fill="#a05a2c"/>
                </g>
                <g transform="translate(259.44 408.62)">
                    <path d="m0 0c0-5.167-4.188-9.355-9.355-9.355-5.166 0-9.355 4.188-9.355 9.355s4.189 9.355 9.355 9.355c5.167 0 9.355-4.188 9.355-9.355z"
                          fill="none" stroke="#d2afff" stroke-miterlimit="10" stroke-width="2"/>
                </g>
                <g transform="translate(253.94 408.62)">
                    <path d="m0 0c0-2.127-1.725-3.853-3.852-3.853-2.128 0-3.853 1.726-3.853 3.853 0 2.128 1.725 3.853 3.853 3.853 2.127 0 3.852-1.725 3.852-3.853z"
                          fill="none" stroke="#d2afff" stroke-miterlimit="10" stroke-width="2"/>
                </g>
            </g>
        </g>
    </g>
</svg>
