<?xml version="1.0" encoding="utf-8"?>
<!-- Generator: Adobe Illustrator 15.0.0, SVG Export Plug-In . SVG Version: 6.00 Build 0)  -->
<!DOCTYPE svg PUBLIC "-//W3C//DTD SVG 1.1//EN" "http://www.w3.org/Graphics/SVG/1.1/DTD/svg11.dtd">
<svg version="1.1" xmlns="http://www.w3.org/2000/svg" xmlns:xlink="http://www.w3.org/1999/xlink" x="0px" y="0px" viewBox="0 0 450.224 308.667" enable-background="new 0 0 450.224 308.667"
	 xml:space="preserve">
<g id="Bg">
</g>
<g id="Graphics">
	<g id="_x34_">
		<g id="XMLID_399_">
			<g id="XMLID_423_">
				<path fill="#FFFFFF" d="M395.346,298.521l4.18-34.899l-4.009-0.411l-4.182,34.9l1.346,4.808c0.025,0.096,0.166,0.11,0.214,0.022
					L395.346,298.521z"/>
			</g>
			<g id="XMLID_422_">
				<polygon fill="#F1B8A4" points="395.346,298.521 399.526,263.621 395.517,263.21 391.335,298.11 				"/>
			</g>
			<g id="XMLID_421_">
				<polygon fill="#E78967" points="393.341,298.315 397.523,263.415 395.517,263.21 391.335,298.11 				"/>
			</g>
			<g id="XMLID_420_">
				<polygon fill="#FFFFFF" points="399.12,267.956 399.638,263.626 395.408,263.19 394.888,267.522 				"/>
			</g>
			<g id="XMLID_418_">
				<path fill="#414042" d="M392.794,303.93c-0.042,0-0.086-0.002-0.129-0.009c-0.428-0.052-0.774-0.351-0.884-0.764l-1.392-4.975
					l4.311-35.992l5.861,0.603l-4.314,36.02l-2.538,4.579C393.526,303.727,393.175,303.93,392.794,303.93z M392.282,298.037
					l0.761,2.721l1.401-2.529l4.048-33.779l-2.16-0.222L392.282,298.037z"/>
			</g>
			<g id="XMLID_416_">
				
					<rect x="394.989" y="266.783" transform="matrix(0.9948 0.1022 -0.1022 0.9948 29.4521 -39.1635)" fill="#414042" width="3.524" height="1.86"/>
			</g>
			<g id="XMLID_415_">
				
					<rect x="391.578" y="297.385" transform="matrix(0.9948 0.1019 -0.1019 0.9948 32.4609 -38.5447)" fill="#414042" width="3.525" height="1.861"/>
			</g>
		</g>
		<g id="XMLID_30_">
			<g id="XMLID_41_">
				<path fill="#FFFFFF" d="M387.455,299.103l4.618-41.674l-4.43-0.489l-4.618,41.672l1.486,5.743
					c0.029,0.113,0.184,0.13,0.236,0.026L387.455,299.103z"/>
			</g>
			<g id="XMLID_40_">
				
					<rect x="366.584" y="275.793" transform="matrix(-0.1101 0.9939 -0.9939 -0.1101 706.564 -76.5479)" fill="#F1B8A4" width="41.929" height="4.457"/>
			</g>
			<g id="XMLID_39_">
				
					<rect x="365.478" y="276.783" transform="matrix(-0.1101 0.9939 -0.9939 -0.1101 705.2137 -75.5835)" fill="#E78967" width="41.928" height="2.229"/>
			</g>
			<g id="XMLID_38_">
				
					<rect x="386.972" y="257.41" transform="matrix(-0.1104 0.9939 -0.9939 -0.1104 690.7515 -98.7554)" fill="#FFFFFF" width="5.202" height="4.703"/>
			</g>
			<g id="XMLID_37_">
				<path fill="#414042" d="M384.637,305.379c-0.04,0-0.08-0.002-0.119-0.005c-0.442-0.05-0.798-0.359-0.908-0.79l-1.528-5.905
					l0.02-0.17l4.72-42.597l6.279,0.694l-4.818,42.919l-2.707,5.279C385.392,305.162,385.032,305.379,384.637,305.379z
					 M383.969,298.544l0.914,3.533l1.666-3.248l4.496-40.577l-2.579-0.285L383.969,298.544z"/>
			</g>
			<g id="XMLID_36_">
				
					<rect x="387.06" y="261.387" transform="matrix(0.9939 0.1105 -0.1105 0.9939 31.3809 -41.3939)" fill="#414042" width="3.896" height="1.858"/>
			</g>
			<g id="XMLID_35_">
				
					<rect x="383.292" y="297.928" transform="matrix(0.9939 0.1103 -0.1103 0.9939 35.3125 -40.6663)" fill="#414042" width="3.896" height="1.859"/>
			</g>
		</g>
		<g id="XMLID_2_">
			<g id="XMLID_9_">
				<path fill="#FFFFFF" d="M394.726,298.037l-12.861-38.529l-4.241,1.32l12.861,38.528l3.708,4.471
					c0.073,0.088,0.222,0.042,0.228-0.072L394.726,298.037z"/>
			</g>
			<g id="XMLID_8_">
				<polygon fill="#F1B8A4" points="394.726,298.037 381.865,259.508 377.624,260.828 390.485,299.356 				"/>
			</g>
			<g id="XMLID_7_">
				<polygon fill="#E78967" points="392.606,298.697 379.745,260.168 377.624,260.828 390.485,299.356 				"/>
			</g>
			<g id="XMLID_6_">
				<polygon fill="#FFFFFF" points="383.576,264.244 381.979,259.465 377.503,260.856 379.1,265.638 				"/>
			</g>
			<g id="XMLID_5_">
				<path fill="#414042" d="M394.29,304.805c-0.308,0-0.604-0.136-0.811-0.382l-3.821-4.606l-0.054-0.166l-13.164-39.429
					l6.019-1.873l13.207,39.562l-0.316,5.895c-0.022,0.436-0.307,0.806-0.72,0.944C394.516,304.786,394.403,304.805,394.29,304.805z
					 M391.312,298.896l2.29,2.76l0.186-3.491l-12.517-37.499l-2.464,0.768L391.312,298.896z"/>
			</g>
			<g id="XMLID_4_">
				
					<rect x="380.141" y="263.082" transform="matrix(0.2971 0.9548 -0.9548 0.2971 520.9076 -177.5801)" fill="#414042" width="1.86" height="3.884"/>
			</g>
			<g id="XMLID_3_">
				
					<rect x="391.675" y="296.755" transform="matrix(0.2973 0.9548 -0.9548 0.2973 561.0944 -164.9517)" fill="#414042" width="1.859" height="3.883"/>
			</g>
		</g>
		<g>
			<g>
				<polygon fill="#535151" points="397.452,306.539 377.916,306.539 375.163,271.691 400.206,271.691 				"/>
			</g>
			<g opacity="0.3">
				<polygon fill="#231F20" points="399.696,278.142 400.063,273.509 375.306,273.509 375.672,278.142 				"/>
			</g>
			<g>
				<path fill="#414042" d="M398.312,307.469h-21.257l-2.9-36.707h27.057L398.312,307.469z M378.775,305.608h17.817l2.606-32.987
					h-23.03L378.775,305.608z"/>
			</g>
			<g>
				<path fill="#535151" d="M402.029,275.389H373.34c-0.298,0-0.538-0.241-0.538-0.538v-3.556c0-0.298,0.24-0.539,0.538-0.539
					h28.688c0.296,0,0.537,0.241,0.537,0.539v3.556C402.566,275.147,402.325,275.389,402.029,275.389z"/>
			</g>
			<g>
				<path fill="#757474" d="M402.029,270.756H373.34c-0.298,0-0.538,0.241-0.538,0.539v1.074c0,0.297,0.24,0.539,0.538,0.539h28.688
					c0.296,0,0.537-0.242,0.537-0.539v-1.074C402.566,270.997,402.325,270.756,402.029,270.756z"/>
			</g>
			<g>
				<path fill="#414042" d="M402.029,276.319H373.34c-0.811,0-1.47-0.659-1.47-1.469v-3.556c0-0.81,0.659-1.469,1.47-1.469h28.688
					c0.808,0,1.467,0.659,1.467,1.469v3.556C403.496,275.66,402.836,276.319,402.029,276.319z M373.732,274.459h27.904v-2.772
					h-27.904V274.459z"/>
			</g>
		</g>
	</g>
	<g id="_x38_">
		<g>
			<g>
				<path fill="#E6E7E8" d="M37.105,265.489v-9.979c0-2.483-2.012-4.495-4.495-4.495h-2.17c-2.482,0-4.494,2.012-4.494,4.495v9.979
					l0,0c-3.683,0-6.668,2.986-6.668,6.669v34.381h24.495v-34.381C43.773,268.476,40.788,265.489,37.105,265.489L37.105,265.489z"/>
			</g>
			<g>
				<path fill="#FFFFFF" d="M34.625,265.489v-9.979c0-2.43-1.931-4.396-4.339-4.479c-0.93,0.032-1.782,0.344-2.485,0.858
					c1.126,0.812,1.863,2.125,1.863,3.621v9.979c3.683,0,6.667,2.986,6.667,6.669v34.381h4.961v-34.381
					C41.293,268.476,38.308,265.489,34.625,265.489z"/>
			</g>
			<g>
				<rect x="25.947" y="262.592" fill="#E78967" width="11.159" height="2.897"/>
			</g>
			<g>
				<path fill="#414042" d="M44.704,307.469H18.348v-35.311c0-3.876,2.916-7.081,6.668-7.541v-9.106
					c0-2.992,2.434-5.425,5.425-5.425h2.17c2.991,0,5.425,2.433,5.425,5.425v9.106c3.752,0.46,6.667,3.665,6.667,7.541V307.469z
					 M20.209,305.608h22.634v-33.45c0-3.165-2.574-5.738-5.738-5.738h-0.93v-10.909c0-1.966-1.599-3.564-3.565-3.564h-2.17
					c-1.966,0-3.564,1.599-3.564,3.564v10.909h-0.93c-3.164,0-5.738,2.573-5.738,5.738V305.608z"/>
			</g>
			<g>
				<rect x="25.117" y="254.795" fill="#E78967" width="12.773" height="6.402"/>
			</g>
			<g>
				<path fill="#414042" d="M36.845,262.127H26.162c-1.09,0-1.976-0.885-1.976-1.974v-4.313c0-1.089,0.886-1.976,1.976-1.976h10.683
					c1.089,0,1.975,0.887,1.975,1.976v4.313C38.819,261.242,37.934,262.127,36.845,262.127z M26.162,255.725
					c-0.063,0-0.116,0.053-0.116,0.115v4.313c0,0.063,0.052,0.114,0.116,0.114h10.683c0.063,0,0.114-0.051,0.114-0.114v-4.313
					c0-0.062-0.051-0.115-0.114-0.115H26.162z"/>
			</g>
		</g>
	</g>
	<g id="_x33_">
		<g>
			<g>
				<g>
					<path fill="#ACA39E" d="M85.99,278.384H58.901v8.236c0,5.855,2.2,11.498,6.165,15.808l0,0v4.111h14.759v-4.111l0,0
						c3.964-4.31,6.166-9.952,6.166-15.808V278.384z"/>
				</g>
				<g>
					<path fill="#DEDAD8" d="M80.417,278.384v8.236c0,5.855-2.2,11.498-6.165,15.807v0.001v4.111h3.184v-4.111v-0.001
						c3.964-4.309,6.165-9.951,6.165-15.807v-8.236H80.417z"/>
				</g>
				<g>
					<path fill="#414042" d="M80.755,307.469h-16.62v-4.683c-3.979-4.457-6.165-10.182-6.165-16.166v-9.166H86.92v9.166
						c0,5.982-2.186,11.709-6.165,16.166V307.469z M65.996,305.608h12.898v-3.543l0.246-0.268c3.818-4.15,5.919-9.541,5.919-15.178
						v-7.306H59.831v7.306c0,5.637,2.103,11.028,5.92,15.178l0.246,0.268V305.608z"/>
				</g>
				<g>
					<path fill="#414042" d="M60.276,294.899H55.82c-3.706,0-6.721-3.017-6.721-6.723s3.015-6.722,6.721-6.722h2.864v1.861H55.82
						c-2.68,0-4.861,2.181-4.861,4.86c0,2.681,2.181,4.862,4.861,4.862h4.456V294.899z"/>
				</g>
			</g>
			<g>
				<path fill="#414042" d="M69.951,275.447h-1.86v-1.616c0-2.909,2.366-5.274,5.274-5.274h4c0.349,0,0.633-0.283,0.633-0.633
					c0-0.348-0.284-0.632-0.633-0.632H64.78c-1.297,0-2.354-1.057-2.354-2.354c0-1.297,1.057-2.354,2.354-2.354h5.29v1.86h-5.29
					c-0.272,0-0.494,0.222-0.494,0.493c0,0.272,0.222,0.494,0.494,0.494h12.584c1.375,0,2.493,1.118,2.493,2.492
					c0,1.376-1.118,2.493-2.493,2.493h-4c-1.882,0-3.414,1.53-3.414,3.414V275.447z"/>
			</g>
			<g>
				<path fill="#414042" d="M76.794,264.737h-4.551v-1.859h4.551c0.37,0,0.671-0.302,0.671-0.671c0-0.37-0.301-0.672-0.671-0.672
					H65.091c-1.47,0-2.666-1.195-2.666-2.664c0-1.471,1.196-2.666,2.666-2.666H82.11v1.859H65.091c-0.444,0-0.805,0.362-0.805,0.807
					c0,0.443,0.361,0.804,0.805,0.804h11.703c1.396,0,2.531,1.137,2.531,2.532C79.326,263.602,78.19,264.737,76.794,264.737z"/>
			</g>
		</g>
	</g>
	<g id="_x31_1">
		<g>
			<g>
				<path fill="#E78967" d="M241.756,111.328h-1.009c-2.007,0-3.634-1.626-3.634-3.633l-1.24-38.082
					c0-4.133,1.878-8.042,5.102-10.626l4.472-3.583c-11.605-7.226-8.546-19.127-8.546-19.127c5.351,8.025,34.49,7.91,51.436,10.517
					c4.016,0.618,7.139,3.807,7.661,7.836l0.411,3.17l0,0c3.319,0,6.011,2.691,6.011,6.011l-1.239,43.884
					c0,2.006-1.628,3.633-3.634,3.633H241.756z"/>
			</g>
			<g>
				<g>
					<path fill="#AD674D" d="M236.901,39.998c5.351,8.025,34.49,7.909,51.436,10.516c4.016,0.618,6.005,2.64,6.528,6.67l0.41,3.17
						c3.041,0,6.661,3.433,7.062,6.363l0.082-2.906c0-3.32-2.691-6.011-6.011-6.011l-0.411-3.17
						c-0.522-4.03-3.646-7.218-7.661-7.836c-16.945-2.607-46.085-2.491-51.436-10.517c0,0-0.585,2.279-0.272,5.447
						C236.738,40.646,236.901,39.998,236.901,39.998z"/>
				</g>
			</g>
			<g>
				<path fill="#414042" d="M297.699,112.259h-57.103c-2.433,0-4.412-1.979-4.412-4.412l-1.24-38.204
					c0-4.469,1.986-8.606,5.45-11.382l3.476-2.784c-10.293-7.203-8.181-18.065-7.896-19.317l0.135-0.589l1.219-0.267l0.396,0.526
					c3.75,5.423,20.319,6.951,34.937,8.299c5.758,0.531,11.194,1.033,15.819,1.744c4.398,0.677,7.87,4.228,8.443,8.636l0.311,2.408
					c3.441,0.409,6.117,3.344,6.117,6.893l-1.239,44.062C302.11,110.279,300.13,112.259,297.699,112.259z M237.526,38.354
					c-0.304,3.508,0.139,11.108,8.413,16.26l1.115,0.694l-5.498,4.405c-3.021,2.42-4.752,6.029-4.752,9.9l1.24,38.203
					c0,1.437,1.145,2.582,2.552,2.582h57.103c1.406,0,2.551-1.145,2.551-2.551l1.24-44.062c0-2.775-2.28-5.055-5.081-5.055h-0.817
					l-0.517-3.981c-0.466-3.59-3.295-6.484-6.881-7.036c-4.567-0.703-9.978-1.202-15.705-1.73
					C258.069,44.652,243.199,43.281,237.526,38.354z"/>
			</g>
			<g id="XMLID_18_">
				<path fill="#FEDAC6" d="M302.33,99.058c0,2.118-1.724,3.836-3.842,3.836l0,0c-2.116,0-3.838-1.719-3.838-3.836v-3.721
					c0-2.121,1.722-3.837,3.838-3.837l0,0c2.118,0,3.842,1.716,3.842,3.837V99.058z"/>
			</g>
			<g id="XMLID_17_">
				<path fill="#414042" d="M298.488,103.825c-2.629,0-4.768-2.139-4.768-4.767v-3.721c0-2.629,2.139-4.768,4.768-4.768
					c2.633,0,4.772,2.139,4.772,4.768v3.721C303.26,101.686,301.121,103.825,298.488,103.825z M298.488,92.429
					c-1.604,0-2.908,1.305-2.908,2.908v3.721c0,1.603,1.305,2.907,2.908,2.907c1.606,0,2.912-1.304,2.912-2.907v-3.721
					C301.4,93.734,300.094,92.429,298.488,92.429z"/>
			</g>
			<g id="XMLID_20_">
				<path fill="#FEDAC6" d="M244.038,99.058c0,2.118-1.724,3.836-3.842,3.836l0,0c-2.117,0-3.839-1.719-3.839-3.836v-3.721
					c0-2.121,1.722-3.837,3.839-3.837l0,0c2.118,0,3.842,1.716,3.842,3.837V99.058z"/>
			</g>
			<g id="XMLID_19_">
				<path fill="#414042" d="M240.196,103.825c-2.63,0-4.77-2.139-4.77-4.767v-3.721c0-2.629,2.14-4.768,4.77-4.768
					c2.632,0,4.771,2.139,4.771,4.768v3.721C244.967,101.686,242.828,103.825,240.196,103.825z M240.196,92.429
					c-1.604,0-2.908,1.305-2.908,2.908v3.721c0,1.603,1.304,2.907,2.908,2.907c1.605,0,2.911-1.304,2.911-2.907v-3.721
					C243.107,93.734,241.801,92.429,240.196,92.429z"/>
			</g>
			<g id="XMLID_34_">
				<path fill="#D0CCCE" d="M304.182,306.539V169.604c0-19.351-15.832-35.184-35.183-35.184l0,0
					c-19.353,0-35.185,15.833-35.185,35.184v136.936H304.182z"/>
			</g>
			<g>
				<path fill="#ECEBEB" d="M269,134.42c-19.353,0-35.185,15.833-35.185,35.184v7.687c0-19.351,15.832-35.183,35.185-35.183
					c19.351,0,35.183,15.832,35.183,35.183v-7.687C304.182,150.253,288.35,134.42,269,134.42z"/>
			</g>
			<g id="XMLID_33_">
				<path fill="#414042" d="M305.112,306.539h-1.859V169.604c0-18.887-15.366-34.253-34.253-34.253
					c-18.888,0-34.255,15.366-34.255,34.253v136.936h-1.86V169.604c0-19.913,16.201-36.113,36.115-36.113
					c19.913,0,36.112,16.2,36.112,36.113V306.539z"/>
			</g>
			<g id="XMLID_32_">
				<rect x="251.118" y="167.162" fill="#414042" width="1.861" height="139.377"/>
			</g>
			<g id="XMLID_31_">
				<rect x="287.023" y="167.162" fill="#414042" width="1.86" height="139.377"/>
			</g>
			<g>
				<path fill="#FEDAC6" d="M270.502,148.645h-4.274c-3.055,0-5.531-2.477-5.531-5.532v-20.478c0-3.055,2.477-5.532,5.531-5.532
					h4.274c3.057,0,5.533,2.478,5.533,5.532v20.478C276.036,146.168,273.559,148.645,270.502,148.645z"/>
			</g>
			<g>
				<path fill="#414042" d="M270.502,149.575h-4.274c-3.563,0-6.463-2.899-6.463-6.462v-20.478c0-3.563,2.9-6.462,6.464-6.462h4.273
					c3.564,0,6.464,2.899,6.464,6.462v20.478C276.966,146.676,274.067,149.575,270.502,149.575z M266.229,118.033
					c-2.537,0-4.603,2.064-4.603,4.602v20.478c0,2.538,2.064,4.602,4.602,4.602h4.274c2.538,0,4.604-2.064,4.604-4.602v-20.478
					c0-2.537-2.065-4.602-4.604-4.602H266.229z"/>
			</g>
			<g>
				<path fill="#FEDAC6" d="M269,133.512L269,133.512c-16.044,0-29.169-13.125-29.169-29.168V84.572
					c0-16.042,13.125-29.168,29.169-29.168l0,0c16.042,0,29.168,13.126,29.168,29.168v19.772
					C298.167,120.387,285.042,133.512,269,133.512z"/>
			</g>
			<g>
				<path fill="#FFE6D9" d="M269,55.404L269,55.404c-0.837,0-1.662,0.044-2.481,0.114c14.893,1.27,26.688,13.847,26.688,29.054
					v19.772c0,15.207-11.795,27.784-26.688,29.054c0.819,0.07,1.645,0.114,2.481,0.114l0,0c16.042,0,29.168-13.125,29.168-29.168
					V84.572C298.167,68.53,285.042,55.404,269,55.404z"/>
			</g>
			<g opacity="0.3">
				<path fill="#58595B" d="M270.868,133.446c12.098-0.776,22.246-9.009,25.871-20.125c-6.414-0.368-17.014,2.895-17.014,2.895
					v-1.471c0-1.825-1.48-3.304-3.304-3.304h-16.292c-1.825,0-3.305,1.479-3.305,3.304v1.471c0,0-9.523-2.979-15.528-2.786
					c3.654,11.06,13.775,19.242,25.833,20.016c0.183,0.011,0.369,0.025,0.547,0.033c0.438,0.02,0.88,0.034,1.323,0.034l0,0
					c0.443,0,0.883-0.014,1.321-0.034C270.5,133.471,270.685,133.457,270.868,133.446z"/>
			</g>
			<g>
				<path fill="#414042" d="M269,134.442c-16.597,0-30.099-13.502-30.099-30.098V84.572c0-16.596,13.502-30.098,30.099-30.098
					c16.596,0,30.098,13.502,30.098,30.098v19.772C299.097,120.94,285.595,134.442,269,134.442z M269,56.334
					c-15.57,0-28.238,12.667-28.238,28.238v19.772c0,15.57,12.668,28.238,28.238,28.238s28.237-12.668,28.237-28.238V84.572
					C297.237,69.001,284.57,56.334,269,56.334z"/>
			</g>
			<g>
				<path fill="#E78967" d="M280.756,51.932c0,0-18.123-5.089-36.562,8.758l-7.238,14.951c0,0,34.11,10.608,54.038-17.563
					C296.739,49.957,280.756,51.932,280.756,51.932z"/>
			</g>
			<g>
				<path fill="#E78967" d="M285.445,58.967c0,0-4.704,18.349,15.526,22.598v-8.954l-1.177-7.528L285.445,58.967z"/>
			</g>
			<g>
				<path fill="#E78967" d="M299.794,65.083l-10.856-4.627c0.695-0.759,1.391-1.543,2.057-2.378
					c6.899-8.653-10.238-6.146-10.238-6.146s-18.123-5.089-36.562,8.758l-7.238,14.951c0,0,26.764,7.6,48.034-11.302
					c0.225,5.765,2.843,14.466,15.98,17.226v-8.954L299.794,65.083z"/>
			</g>
			<g>
				<g>
					<path fill="#ECA185" d="M287.189,63.123c-0.239-1.456-1.884-2.194-3.135-1.41c-19.805,12.432-39.148,15.652-44.949,14.437l0,0
						c0,0,24.615,7.091,45.886-11.81c0.225,5.765,0.723,13.943,13.86,16.701l0,0C291.086,75.937,288.109,68.725,287.189,63.123z"/>
				</g>
			</g>
			<g>
				<path fill="#414042" d="M299.684,82.223c-12.462-2.618-15.003-10.146-15.522-16.137c-21.369,17.38-46.049,10.793-46.302,10.724
					l0.498-1.793c0.245,0.068,24.793,6.587,45.615-11.196c0.351-0.298,0.829-0.373,1.25-0.19c0.417,0.18,0.688,0.576,0.708,1.031
					c0.271,6.003,2.122,13.219,14.136,15.742L299.684,82.223z"/>
			</g>
			<g>
				<path fill="#414042" d="M263.304,102.098h-20.739c-1.881,0-3.411-1.53-3.411-3.411V85.893c0-1.88,1.53-3.411,3.411-3.411h20.739
					c1.88,0,3.41,1.53,3.41,3.411v12.793C266.714,100.567,265.184,102.098,263.304,102.098z M242.565,84.343
					c-0.855,0-1.551,0.695-1.551,1.55v12.793c0,0.855,0.695,1.551,1.551,1.551h20.739c0.855,0,1.55-0.696,1.55-1.551V85.893
					c0-0.855-0.694-1.55-1.55-1.55H242.565z"/>
			</g>
			<g>
				<path fill="#414042" d="M295.413,102.098h-20.738c-1.881,0-3.411-1.53-3.411-3.411V85.893c0-1.88,1.53-3.411,3.411-3.411h20.738
					c1.881,0,3.411,1.53,3.411,3.411v12.793C298.824,100.567,297.293,102.098,295.413,102.098z M274.674,84.343
					c-0.854,0-1.55,0.695-1.55,1.55v12.793c0,0.855,0.695,1.551,1.55,1.551h20.738c0.856,0,1.551-0.696,1.551-1.551V85.893
					c0-0.855-0.694-1.55-1.551-1.55H274.674z"/>
			</g>
			<g>
				<g>
					<path fill="#414042" d="M250.708,89.763c-0.49,0.537-0.798,1.246-0.798,2.03c0,1.67,1.354,3.023,3.024,3.023
						c1.669,0,3.022-1.353,3.022-3.023c0-0.785-0.307-1.493-0.796-2.03H250.708z"/>
				</g>
			</g>
			<g>
				<g>
					<path fill="#414042" d="M283.537,89.763c-0.489,0.537-0.796,1.246-0.796,2.03c0,1.67,1.354,3.023,3.022,3.023
						c1.67,0,3.023-1.353,3.023-3.023c0-0.785-0.307-1.493-0.797-2.03H283.537z"/>
				</g>
			</g>
			<g>
				<rect x="265.785" y="91.36" fill="#414042" width="5.688" height="1.86"/>
			</g>
			<g>
				<path fill="#414042" d="M270.615,110.053h-3.479v-1.86h3.479c0.672,0,1.22-0.547,1.22-1.22v-0.198
					c0-0.673-0.548-1.219-1.22-1.219h-2.69v-7.07h1.861v5.209h0.829c1.698,0,3.08,1.382,3.08,3.08v0.198
					C273.695,108.672,272.313,110.053,270.615,110.053z"/>
			</g>
			<g>
				<path fill="#FFFFFE" d="M276.818,116.502c0,4.235-3.435,7.669-7.671,7.669c-4.235,0-7.67-3.434-7.67-7.669H276.818z"/>
			</g>
			<g>
				<path fill="#414042" d="M269.147,125.102c-4.742,0-8.6-3.858-8.6-8.6v-0.931h17.2v0.931
					C277.748,121.244,273.889,125.102,269.147,125.102z M262.472,117.432c0.453,3.278,3.274,5.81,6.675,5.81
					c3.401,0,6.222-2.532,6.677-5.81H262.472z"/>
			</g>
		</g>
	</g>
	<g id="_x36_">
		<g opacity="0.3">
			<path fill="#231F20" d="M305.112,306.539V169.604c0-1.936-0.16-3.833-0.455-5.688h-1.178c-16.83,0-30.521,13.691-30.521,30.521
				v16.372c-0.938,0.873-1.537,2.106-1.537,3.485v3.721c0,2.45,1.865,4.45,4.246,4.715c0.771,13.041,9.768,23.899,21.862,27.459
				v2.328c-15.454,4.091-26.881,18.188-26.881,34.912v19.109h1.859h14.516h1.857l0,0h0.003l0,0h1.858h12.511H305.112z"/>
		</g>
		<g>
			<g>
				<path fill="#535151" d="M357.833,242.115h-12.167h-25.535v-72.121c0-8.356,6.773-15.131,15.13-15.131l0,0
					c8.356,0,15.131,6.774,15.131,15.131v64.828C350.345,238.202,352.707,242.115,357.833,242.115z"/>
			</g>
			<g>
				<path fill="#414042" d="M357.833,243.045h-38.633v-73.051c0-8.855,7.204-16.061,16.061-16.061
					c8.857,0,16.061,7.206,16.061,16.061v64.828c-0.023,1.699,0.646,3.398,1.788,4.557c1.165,1.181,2.8,1.806,4.724,1.806V243.045z
					 M321.061,241.185h31.267c-0.188-0.157-0.368-0.323-0.541-0.499c-1.508-1.527-2.355-3.67-2.324-5.876v-64.815
					c0-7.83-6.37-14.201-14.201-14.201c-7.83,0-14.2,6.371-14.2,14.201V241.185z"/>
			</g>
			<g>
				<g>
					<path fill="#535151" d="M342.091,213.467v-19.029c0-16.275-13.315-29.592-29.591-29.592H307.2
						c-16.276,0-29.592,13.316-29.592,29.592v19.029H342.091z"/>
				</g>
				<g>
					<path fill="#414042" d="M343.021,214.398h-66.343v-19.961c0-16.83,13.691-30.521,30.521-30.521h5.301
						c16.83,0,30.521,13.691,30.521,30.521V214.398z M278.539,212.537h62.623v-18.1c0-15.804-12.856-28.661-28.661-28.661H307.2
						c-15.804,0-28.661,12.857-28.661,28.661V212.537z"/>
				</g>
			</g>
			<g id="XMLID_44_">
				<path fill="#FEDAC6" d="M343.277,218.016c0,2.118-1.717,3.837-3.836,3.837l0,0c-2.12,0-3.835-1.719-3.835-3.837v-3.721
					c0-2.12,1.715-3.838,3.835-3.838l0,0c2.119,0,3.836,1.718,3.836,3.838V218.016z"/>
			</g>
			<g id="XMLID_43_">
				<path fill="#414042" d="M339.441,222.782c-2.628,0-4.767-2.139-4.767-4.767v-3.721c0-2.628,2.139-4.768,4.767-4.768
					c2.629,0,4.767,2.14,4.767,4.768v3.721C344.208,220.644,342.07,222.782,339.441,222.782z M339.441,211.389
					c-1.602,0-2.906,1.303-2.906,2.906v3.721c0,1.603,1.305,2.907,2.906,2.907c1.603,0,2.906-1.305,2.906-2.907v-3.721
					C342.347,212.691,341.043,211.389,339.441,211.389z"/>
			</g>
			<g id="XMLID_42_">
				<path fill="#FEDAC6" d="M283.745,218.016c0,2.118-1.719,3.837-3.836,3.837l0,0c-2.121,0-3.837-1.719-3.837-3.837v-3.721
					c0-2.12,1.716-3.838,3.837-3.838l0,0c2.117,0,3.836,1.718,3.836,3.838V218.016z"/>
			</g>
			<g id="XMLID_14_">
				<path fill="#414042" d="M279.909,222.782c-2.629,0-4.768-2.139-4.768-4.767v-3.721c0-2.628,2.139-4.768,4.768-4.768
					s4.766,2.14,4.766,4.768v3.721C284.674,220.644,282.538,222.782,279.909,222.782z M279.909,211.389
					c-1.603,0-2.908,1.303-2.908,2.906v3.721c0,1.603,1.306,2.907,2.908,2.907s2.905-1.305,2.905-2.907v-3.721
					C282.814,212.691,281.511,211.389,279.909,211.389z"/>
			</g>
			<g id="XMLID_13_">
				<path fill="#E78967" d="M345.667,306.539V287.43c0-19.351-15.834-35.183-35.184-35.183l0,0
					c-19.352,0-35.185,15.832-35.185,35.183v19.109H345.667z"/>
			</g>
			<g>
				<path fill="#ECA185" d="M310.483,252.247c-19.352,0-35.185,15.832-35.185,35.183v7.687c0-19.351,15.833-35.183,35.185-35.183
					c19.35,0,35.184,15.832,35.184,35.183v-7.687C345.667,268.079,329.833,252.247,310.483,252.247z"/>
			</g>
			<g id="XMLID_12_">
				<path fill="#414042" d="M346.596,306.539h-1.861V287.43c0-18.888-15.364-34.253-34.252-34.253s-34.254,15.365-34.254,34.253
					v19.109h-1.86V287.43c0-19.913,16.201-36.113,36.114-36.113c19.914,0,36.113,16.2,36.113,36.113V306.539z"/>
			</g>
			<g id="XMLID_11_">
				<rect x="292.602" y="284.988" fill="#414042" width="1.86" height="21.551"/>
			</g>
			<g id="XMLID_10_">
				<rect x="328.507" y="284.988" fill="#414042" width="1.859" height="21.551"/>
			</g>
			<g>
				<path fill="#FEDAC6" d="M311.987,266.472h-4.275c-3.055,0-5.532-2.478-5.532-5.533v-20.478c0-3.055,2.478-5.532,5.532-5.532
					h4.275c3.057,0,5.533,2.478,5.533,5.532v20.478C317.52,263.994,315.043,266.472,311.987,266.472z"/>
			</g>
			<g>
				<path fill="#414042" d="M311.987,267.401h-4.275c-3.563,0-6.462-2.898-6.462-6.462v-20.479c0-3.562,2.898-6.463,6.462-6.463
					h4.275c3.563,0,6.463,2.9,6.463,6.463v20.478C318.45,264.502,315.55,267.401,311.987,267.401z M307.711,235.859
					c-2.537,0-4.601,2.064-4.601,4.602v20.479c0,2.537,2.063,4.601,4.601,4.601h4.275c2.538,0,4.604-2.064,4.604-4.602v-20.478
					c0-2.537-2.065-4.602-4.604-4.602H307.711z"/>
			</g>
			<g>
				<path fill="#FEDAC6" d="M339.441,201.479v19.43c0,16.274-13.315,29.591-29.591,29.591l0,0
					c-16.276,0-29.592-13.316-29.592-29.591v-19.43c14.637,0,26.126-12.408,29.329-16.246c0.469-0.562,1.328-0.565,1.801-0.006
					C314.625,189.061,326.135,201.479,339.441,201.479z"/>
			</g>
			<g>
				<path fill="#FFE6D9" d="M311.388,185.228c-0.473-0.56-1.332-0.556-1.801,0.006c-0.52,0.621-1.259,1.472-2.193,2.454
					c4.819,5.083,14.702,13.792,25.847,13.792v19.43c0,15.229-11.659,27.863-26.492,29.427c1.021,0.107,2.054,0.164,3.102,0.164
					c16.275,0,29.591-13.316,29.591-29.591v-19.43C326.135,201.479,314.625,189.061,311.388,185.228z"/>
			</g>
			<g>
				<path fill="#414042" d="M309.85,251.431c-16.83,0-30.521-13.691-30.521-30.521v-20.36h0.93
					c14.229,0,25.499-12.179,28.615-15.911c0.399-0.48,0.986-0.757,1.609-0.758c0.003,0,0.005,0,0.007,0
					c0.62,0,1.206,0.273,1.609,0.749c3.153,3.733,14.446,15.92,27.342,15.92h0.932v20.36
					C340.373,237.739,326.679,251.431,309.85,251.431z M281.188,202.394v18.516c0,15.804,12.857,28.66,28.662,28.66
					c15.803,0,28.661-12.856,28.661-28.66v-18.519c-13.298-0.554-24.623-12.761-27.834-16.562c-0.062-0.075-0.183-0.073-0.188-0.088
					c-0.052,0-0.126,0.015-0.187,0.088C307.124,189.639,295.779,201.887,281.188,202.394z"/>
			</g>
			<g>
				<path fill="#414042" d="M311.317,225.965h-2.238v-1.86h2.238c0.672,0,1.22-0.548,1.22-1.222v-0.196
					c0-0.674-0.548-1.221-1.22-1.221h-1.449v-7.069h1.86v5.235c1.505,0.202,2.669,1.494,2.669,3.055v0.196
					C314.397,224.582,313.015,225.965,311.317,225.965z"/>
			</g>
			<g>
				<path fill="#FFFFFF" d="M317.52,232.412c0,4.235-3.435,7.67-7.67,7.67c-4.236,0-7.671-3.435-7.671-7.67H317.52z"/>
			</g>
			<g>
				<path fill="#414042" d="M309.85,241.013c-4.742,0-8.601-3.857-8.601-8.601v-0.931h17.2v0.931
					C318.45,237.155,314.592,241.013,309.85,241.013z M303.174,233.342c0.454,3.278,3.274,5.811,6.676,5.811
					c3.4,0,6.222-2.532,6.676-5.811H303.174z"/>
			</g>
			<g>
				<path fill="#F9BDA9" d="M295.237,226.27h-3.41c-1.365,0-2.48-1.115-2.48-2.479l0,0c0-1.365,1.115-2.481,2.48-2.481h3.41
					c1.364,0,2.481,1.116,2.481,2.481l0,0C297.718,225.154,296.601,226.27,295.237,226.27z"/>
			</g>
			<g>
				<path fill="#F9BDA9" d="M326.023,227.602h-3.411c-1.363,0-2.48-1.115-2.48-2.479l0,0c0-1.364,1.117-2.481,2.48-2.481h3.411
					c1.364,0,2.479,1.117,2.479,2.481l0,0C328.502,226.486,327.387,227.602,326.023,227.602z"/>
			</g>
			<g>
				<circle fill="#414042" cx="296.549" cy="211.334" r="2.217"/>
			</g>
			<g>
				<circle fill="#414042" cx="323.149" cy="211.334" r="2.216"/>
			</g>
			<g>
				
					<rect x="294.799" y="201.1" transform="matrix(0.2646 0.9644 -0.9644 0.2646 415.953 -133.8397)" fill="#414042" width="1.86" height="9.406"/>
			</g>
			<g>
				
					<rect x="319.553" y="204.872" transform="matrix(0.9646 0.2636 -0.2636 0.9646 65.7129 -78.1906)" fill="#414042" width="9.407" height="1.862"/>
			</g>
			<g>
				<path fill="#FDE99D" d="M328.375,171.107l-12.884-5.28c-1.261-0.518-1.87-1.975-1.353-3.236l0.549-1.341
					c0.518-1.262,1.973-1.872,3.236-1.354l12.883,5.279c1.262,0.517,1.87,1.973,1.354,3.236l-0.551,1.341
					C331.093,171.015,329.638,171.624,328.375,171.107z"/>
			</g>
			<g>
				<path fill="#414042" d="M329.311,172.223c-0.437,0-0.874-0.085-1.287-0.255l-12.883-5.28c-1.741-0.713-2.576-2.709-1.863-4.449
					l0.549-1.341c0.346-0.841,0.999-1.497,1.84-1.85c0.843-0.354,1.77-0.357,2.61-0.013l12.883,5.28
					c1.739,0.714,2.575,2.708,1.862,4.448l-0.55,1.342c-0.345,0.84-0.999,1.497-1.84,1.85
					C330.207,172.134,329.757,172.223,329.311,172.223z M328.728,170.247c0.382,0.154,0.801,0.151,1.187-0.009
					c0.383-0.16,0.68-0.459,0.835-0.838l0.551-1.342c0.323-0.792-0.057-1.697-0.848-2.021l-12.881-5.281
					c-0.38-0.156-0.803-0.154-1.186,0.008c-0.385,0.16-0.682,0.459-0.837,0.839l-0.551,1.341c-0.323,0.792,0.057,1.698,0.848,2.023
					L328.728,170.247z"/>
			</g>
		</g>
	</g>
	<g id="_x32_">
		<g id="XMLID_726_">
			<g id="XMLID_736_">
				<rect x="318.066" y="290.933" fill="#FDE99D" width="75.168" height="15.606"/>
			</g>
			<g id="XMLID_735_">
				<rect x="318.066" y="290.933" fill="#FEF6D8" width="75.168" height="6.944"/>
			</g>
			<g id="XMLID_734_">
				<rect x="330.958" y="290.933" fill="#414042" width="1.859" height="4.795"/>
			</g>
			<g id="XMLID_733_">
				<rect x="321.371" y="290.933" fill="#414042" width="1.861" height="4.795"/>
			</g>
			<g id="XMLID_732_">
				<rect x="340.545" y="290.933" fill="#414042" width="1.861" height="4.795"/>
			</g>
			<g id="XMLID_731_">
				<rect x="350.133" y="290.933" fill="#414042" width="1.859" height="4.795"/>
			</g>
			<g id="XMLID_730_">
				<rect x="359.719" y="290.933" fill="#414042" width="1.861" height="4.795"/>
			</g>
			<g id="XMLID_729_">
				<rect x="378.894" y="290.933" fill="#414042" width="1.86" height="4.795"/>
			</g>
			<g id="XMLID_728_">
				<rect x="369.307" y="290.933" fill="#414042" width="1.86" height="4.795"/>
			</g>
			<g id="XMLID_727_">
				<rect x="388.481" y="290.933" fill="#414042" width="1.86" height="4.795"/>
			</g>
			<g id="XMLID_149_">
				<path fill="#414042" d="M392.135,307.469h-72.973c-1.117,0-2.026-0.91-2.026-2.028v-13.411c0-1.118,0.909-2.027,2.026-2.027
					h72.973c1.118,0,2.028,0.909,2.028,2.027v13.411C394.164,306.559,393.253,307.469,392.135,307.469z M319.163,291.862
					c-0.092,0-0.167,0.075-0.167,0.167v13.411c0,0.094,0.075,0.168,0.167,0.168h72.973c0.093,0,0.168-0.074,0.168-0.168v-13.411
					c0-0.092-0.075-0.167-0.168-0.167H319.163z"/>
			</g>
		</g>
	</g>
	<g id="_x31_2">
		<g>
			<g>
				<path fill="#FDE99D" d="M218.767,138.416c-6.063-13.895-2.036-39.38-2.036-39.38c0-20.097-16.292-36.389-36.393-36.389l0,0
					c-20.098,0-36.39,16.292-36.39,36.389c0,0,4.842,25.158-1.749,39.294c-1.57,3.369,0.205,7.332,3.811,8.229l35.263,8.783
					l33.664-8.761C218.488,145.658,220.234,141.778,218.767,138.416z"/>
			</g>
			<g>
				<path fill="#BEAF76" d="M149.252,146.559c-3.607-0.897-5.381-4.86-3.812-8.229c6.592-14.136,1.75-39.294,1.75-39.294
					c0-19.553,15.424-35.5,34.769-36.349c-0.538-0.023-1.077-0.041-1.621-0.041c-20.098,0-36.39,16.292-36.39,36.389
					c0,0,4.842,25.158-1.749,39.294c-1.57,3.369,0.205,7.332,3.811,8.229l35.264,8.784l1.585-0.413L149.252,146.559z"/>
			</g>
			<g>
				<path fill="#414042" d="M181.279,156.303l-34.345-8.554c-2.204-0.549-4.047-2.028-5.058-4.059
					c-1.012-2.033-1.081-4.399-0.188-6.492c5.893-13.83,1.394-37.746,1.348-37.986l-0.017-0.176
					c0-20.578,16.742-37.319,37.32-37.319c20.58,0,37.323,16.741,37.323,37.319l-0.012,0.146
					c-0.039,0.251-3.907,25.333,1.953,38.824l0,0c0.799,1.838,0.746,3.94-0.144,5.766c-0.92,1.889-2.611,3.275-4.642,3.803
					L181.279,156.303z M144.879,98.949c0.352,1.87,4.514,24.912-1.48,38.978c-0.678,1.591-0.626,3.389,0.143,4.934
					c0.768,1.542,2.168,2.666,3.842,3.083l33.885,8.44l33.08-8.61c1.504-0.391,2.757-1.418,3.439-2.817
					c0.66-1.356,0.699-2.851,0.109-4.209c-5.975-13.754-2.377-37.97-2.096-39.783c-0.039-19.519-15.932-35.387-35.462-35.387
					C160.815,63.577,144.926,79.436,144.879,98.949z"/>
			</g>
			<g id="XMLID_29_">
				<path fill="#E78967" d="M215.952,306.539V183.246c0-19.35-15.833-35.183-35.184-35.183l0,0
					c-19.351,0-35.183,15.833-35.183,35.183v123.293H215.952z"/>
			</g>
			<g id="XMLID_22_">
				<rect x="162.887" y="180.805" fill="#414042" width="1.861" height="125.734"/>
			</g>
			<g id="XMLID_21_">
				<rect x="198.792" y="180.805" fill="#414042" width="1.861" height="125.734"/>
			</g>
			<g>
				<path fill="#FEDAC6" d="M167.168,167.96l1.988,1.244c7.561,4.729,17.2,4.546,24.576-0.467l0,0
					c4.383-2.979,7.008-7.936,7.008-13.235v-1.17c-5.683-3.945-12.568-6.269-19.972-6.269s-14.288,2.324-19.972,6.269v2.126
					C160.796,161.135,163.204,165.48,167.168,167.96z"/>
			</g>
			<g>
				<path fill="#414042" d="M181.085,173.556c-4.307,0-8.619-1.185-12.422-3.563l-1.988-1.242c-4.264-2.667-6.81-7.262-6.81-12.292
					V154.4h1.86v2.058c0,4.385,2.219,8.391,5.936,10.715l1.988,1.242c7.244,4.53,16.492,4.355,23.56-0.446
					c4.132-2.811,6.601-7.47,6.601-12.467v-1.216h1.86v1.216c0,5.613-2.772,10.85-7.416,14.005
					C190.288,172.202,185.69,173.556,181.085,173.556z"/>
			</g>
			<g>
				<rect x="180.666" y="167.453" fill="#414042" width="1.86" height="6.116"/>
			</g>
			<g id="XMLID_28_">
				<path fill="#414042" d="M216.882,306.539h-1.86V183.246c0-18.887-15.366-34.252-34.253-34.252s-34.253,15.366-34.253,34.252
					v123.293h-1.86V183.246c0-19.913,16.201-36.113,36.114-36.113s36.114,16.2,36.114,36.113V306.539z"/>
			</g>
			<g>
				<path fill="#FEDAC6" d="M182.906,157.251h-4.276c-3.055,0-5.532-2.477-5.532-5.532v-20.478c0-3.056,2.477-5.533,5.533-5.533
					h4.276c3.055,0,5.532,2.477,5.532,5.533v20.477C188.438,154.774,185.961,157.251,182.906,157.251z"/>
			</g>
			<g>
				<path fill="#414042" d="M174.028,151.719h-1.86v-20.478c0-3.563,2.899-6.463,6.462-6.463h4.276c3.563,0,6.462,2.899,6.462,6.463
					v20.477h-1.86v-20.477c0-2.538-2.064-4.603-4.602-4.603h-4.276c-2.538,0-4.603,2.064-4.603,4.603V151.719z"/>
			</g>
			<g>
				<circle fill="#FEDAC6" cx="153.099" cy="112.479" r="5.385"/>
			</g>
			<g>
				<path fill="#414042" d="M153.1,117.88c-3.482,0-6.315-2.833-6.315-6.315c0-3.482,2.833-6.315,6.315-6.315
					c3.482,0,6.314,2.833,6.314,6.315C159.414,115.047,156.582,117.88,153.1,117.88z M153.1,107.111
					c-2.456,0-4.455,1.999-4.455,4.455s1.999,4.455,4.455,4.455c2.457,0,4.454-1.999,4.454-4.455S155.556,107.111,153.1,107.111z"/>
			</g>
			<g>
				<circle fill="#FEDAC6" cx="210.147" cy="112.479" r="5.385"/>
			</g>
			<g>
				<path fill="#414042" d="M210.147,117.88c-3.482,0-6.315-2.833-6.315-6.315c0-3.482,2.833-6.315,6.315-6.315
					s6.315,2.833,6.315,6.315C216.462,115.047,213.63,117.88,210.147,117.88z M210.147,107.111c-2.457,0-4.455,1.999-4.455,4.455
					s1.998,4.455,4.455,4.455c2.456,0,4.455-1.999,4.455-4.455S212.604,107.111,210.147,107.111z"/>
			</g>
			<g>
				<path fill="#FEDAC6" d="M171.297,84.666c-10.392,0-18.816,8.424-18.816,18.816v11.523c0,16.003,12.973,28.978,28.974,28.978l0,0
					c16.006,0,28.976-12.975,28.976-28.978c0,0,0-9.123,0-12.164c0-10.467-7.364-18.176-8.451-18.176H171.297L171.297,84.666z"/>
			</g>
			<g>
				<path fill="#FFE6D9" d="M201.98,84.666h-3.459c2.496,3.079,5.709,8.775,5.709,15.695c0,3.041,0,12.164,0,12.164
					c0,16.003-12.969,28.978-28.976,28.978c-2.634,0-5.183-0.358-7.608-1.017c4.105,2.23,8.81,3.497,13.81,3.497
					c16.006,0,28.976-12.975,28.976-28.978c0,0,0-9.123,0-12.164C210.431,92.375,203.067,84.666,201.98,84.666z"/>
			</g>
			<g>
				<path fill="#414042" d="M181.456,144.914c-16.489,0-29.904-13.417-29.904-29.908v-12.813c0-10.177,8.279-18.457,18.456-18.457
					h19.586c6.248,0,12.605,0.581,16.778,4.794c3.434,3.466,5.066,9.021,4.99,16.985v9.491
					C211.361,131.497,197.946,144.914,181.456,144.914z M170.007,85.596c-9.151,0-16.595,7.444-16.595,16.596v12.813
					c0,15.466,12.581,28.048,28.044,28.048c15.464,0,28.045-12.582,28.045-28.048v-9.5c0.071-7.45-1.385-12.571-4.453-15.667
					c-3.693-3.729-9.61-4.243-15.456-4.243H170.007z"/>
			</g>
			<g>
				<rect x="179.869" y="136.023" fill="#414042" width="3.985" height="1.86"/>
			</g>
			<g>
				<path fill="#FDE99D" d="M156.108,81.073c0,0,29.198,23.379,55.556,13.771v-10.15l-19.876-12.53l-32.045,2.151L156.108,81.073z"
					/>
			</g>
			<g>
				<g>
					<path fill="#FEF6D8" d="M156.494,79.277l-0.385,0.715c0,0,0.033,0.026,0.092,0.073L156.494,79.277z"/>
				</g>
				<g>
					<path fill="#FEF6D8" d="M158.737,81.919c7.008,4.88,27.01,17.126,46.812,13.5c3.654-0.668,6.519-3.527,7.304-7.157l0,0
						C192.576,98.004,166.767,86.032,158.737,81.919z"/>
				</g>
			</g>
			<g>
				<path fill="#FDE99D" d="M166.659,87.619c0,0-2.336,12.846-16.635,12.846l-1.441-6.243l5.703-14.281L166.659,87.619z"/>
			</g>
			<g>
				<path fill="#414042" d="M150.023,101.396v-1.86c13.325,0,15.628-11.591,15.72-12.083l1.831,0.334
					C167.549,87.922,164.927,101.396,150.023,101.396z"/>
			</g>
			<g>
				<path fill="#414042" d="M198.776,97.713c-21.844,0-41.898-14.91-42.142-15.094l1.121-1.485
					c0.289,0.218,29.21,21.704,54.778,12.384l0.637,1.748C208.413,97,203.551,97.713,198.776,97.713z"/>
			</g>
			<g>
				<circle fill="#F9BDA9" cx="166.658" cy="122.323" r="3.907"/>
			</g>
			<g>
				<circle fill="#F9BDA9" cx="197.56" cy="122.323" r="3.908"/>
			</g>
			<g>
				<path fill="#414042" d="M195.192,109.137h-1.86c0-1.379-1.122-2.5-2.5-2.5c-1.378,0-2.5,1.122-2.5,2.5h-1.86
					c0-2.405,1.956-4.361,4.361-4.361C193.237,104.776,195.192,106.732,195.192,109.137z"/>
			</g>
			<g>
				<path fill="#414042" d="M176.215,109.137h-1.861c0-1.379-1.121-2.5-2.5-2.5c-1.379,0-2.5,1.122-2.5,2.5h-1.86
					c0-2.405,1.956-4.361,4.361-4.361C174.259,104.776,176.215,106.732,176.215,109.137z"/>
			</g>
			<g>
				<path fill="#FFFFFF" d="M189.65,126.151c0,4.302-3.487,7.789-7.789,7.789c-4.301,0-7.788-3.487-7.788-7.789H189.65z"/>
			</g>
			<g>
				<path fill="#414042" d="M181.861,134.87c-4.807,0-8.718-3.911-8.718-8.719v-0.93h17.437v0.93
					C190.58,130.958,186.669,134.87,181.861,134.87z M175.067,127.082c0.455,3.343,3.329,5.928,6.794,5.928
					c3.467,0,6.34-2.584,6.795-5.928H175.067z"/>
			</g>
			<g>
				<path fill="#414042" d="M182.088,120.361h-1.631v-1.86h1.631c0.575,0,1.041-0.467,1.041-1.041c0-0.574-0.466-1.041-1.041-1.041
					h-1.157v-6.042h1.86v4.268c1.261,0.315,2.198,1.458,2.198,2.815C184.989,119.06,183.688,120.361,182.088,120.361z"/>
			</g>
		</g>
	</g>
	<g id="_x39_">
		<g opacity="0.3">
			<path fill="#231F20" d="M168.924,306.539v-22.83c0-13.724-7.696-25.683-18.999-31.792c6.642-5.3,10.91-13.454,10.91-22.593
				v-14.487c2.09-0.407,3.674-2.247,3.674-4.455v-3.215c0.319-0.216,0.628-0.45,0.916-0.721c1.468-1.382,2.276-3.25,2.276-5.266
				v-24.502c0-6.085-4.951-11.037-11.037-11.037h-7.395c-2.928,5.212-4.615,11.211-4.615,17.604v123.293h1.86h4.319h1.86h10.193
				h1.861h2.315H168.924z"/>
		</g>
		<g>
			<g id="XMLID_26_">
				<path fill="#FDE99D" d="M164.272,306.539v-22.83c0-19.351-15.832-35.183-35.183-35.183l0,0
					c-19.351,0-35.184,15.832-35.184,35.183v22.83H164.272z"/>
			</g>
			<g id="XMLID_25_">
				<path fill="#414042" d="M165.203,306.539h-1.86v-22.83c0-18.888-15.366-34.253-34.253-34.253
					c-18.888,0-34.253,15.365-34.253,34.253v22.83h-1.861v-22.83c0-19.913,16.201-36.114,36.114-36.114
					c19.913,0,36.113,16.201,36.113,36.114V306.539z"/>
			</g>
			<g id="XMLID_24_">
				<rect x="111.208" y="281.267" fill="#414042" width="1.86" height="25.272"/>
			</g>
			<g id="XMLID_23_">
				<rect x="147.113" y="281.267" fill="#414042" width="1.86" height="25.272"/>
			</g>
			<g>
				<path fill="#CCB5AA" d="M130.594,262.751h-4.275c-3.056,0-5.532-2.479-5.532-5.533V236.74c0-3.056,2.477-5.532,5.532-5.532
					h4.275c3.055,0,5.533,2.477,5.533,5.532v20.478C136.127,260.272,133.649,262.751,130.594,262.751z"/>
			</g>
			<g>
				<path fill="#414042" d="M130.594,263.681h-4.275c-3.563,0-6.463-2.899-6.463-6.462V236.74c0-3.563,2.899-6.463,6.463-6.463
					h4.275c3.564,0,6.463,2.899,6.463,6.463v20.478C137.057,260.78,134.158,263.681,130.594,263.681z M126.319,232.139
					c-2.538,0-4.602,2.064-4.602,4.602v20.479c0,2.538,2.064,4.601,4.602,4.601h4.275c2.538,0,4.603-2.065,4.603-4.602V236.74
					c0-2.537-2.064-4.602-4.603-4.602H126.319z"/>
			</g>
			<g>
				<g id="XMLID_15_">
					<path fill="#FFE6D9" d="M159.859,210.382c0,1.994-1.617,3.612-3.611,3.612l0,0c-1.996,0-3.61-1.618-3.61-3.612v-3.501
						c0-1.997,1.615-3.612,3.61-3.612l0,0c1.994,0,3.611,1.615,3.611,3.612V210.382z"/>
				</g>
				<g id="XMLID_1_">
					<path fill="#414042" d="M156.248,214.924c-2.503,0-4.541-2.036-4.541-4.542v-3.501c0-2.505,2.037-4.543,4.541-4.543
						c2.504,0,4.541,2.038,4.541,4.543v3.501C160.789,212.888,158.752,214.924,156.248,214.924z M156.248,204.198
						c-1.478,0-2.68,1.204-2.68,2.683v3.501c0,1.479,1.203,2.683,2.68,2.683c1.478,0,2.68-1.203,2.68-2.683v-3.501
						C158.928,205.402,157.726,204.198,156.248,204.198z"/>
				</g>
				<g id="XMLID_27_">
					<path fill="#FFE6D9" d="M103.824,210.382c0,1.994-1.617,3.612-3.61,3.612l0,0c-1.997,0-3.611-1.618-3.611-3.612v-3.501
						c0-1.997,1.614-3.612,3.611-3.612l0,0c1.993,0,3.61,1.615,3.61,3.612V210.382z"/>
				</g>
				<g id="XMLID_16_">
					<path fill="#414042" d="M100.213,214.924c-2.504,0-4.542-2.036-4.542-4.542v-3.501c0-2.505,2.038-4.543,4.542-4.543
						c2.503,0,4.54,2.038,4.54,4.543v3.501C104.753,212.888,102.716,214.924,100.213,214.924z M100.213,204.198
						c-1.478,0-2.681,1.204-2.681,2.683v3.501c0,1.479,1.203,2.683,2.681,2.683c1.478,0,2.68-1.203,2.68-2.683v-3.501
						C102.893,205.402,101.691,204.198,100.213,204.198z"/>
				</g>
				<g>
					<path fill="#535151" d="M128.217,257.293L128.217,257.293c-15.383,0-27.968-12.586-27.968-27.969v-32.12
						c0-15.382,12.585-27.967,27.968-27.967l0,0c15.382,0,27.968,12.585,27.968,27.967v32.12
						C156.185,244.707,143.599,257.293,128.217,257.293z"/>
				</g>
				<g opacity="0.46">
					<path fill="#414042" d="M142.35,173.104c5.451,5.112,8.873,12.364,8.873,20.381v32.12c0,15.382-12.585,27.967-27.968,27.967
						l0,0c-5.148,0-9.979-1.414-14.133-3.866c5.008,4.696,11.729,7.588,19.095,7.588l0,0c15.382,0,27.968-12.586,27.968-27.969
						v-32.12C156.185,186.971,150.61,177.979,142.35,173.104z"/>
				</g>
				<g>
					<path fill="#414042" d="M128.217,258.223c-15.935,0-28.898-12.964-28.898-28.898v-32.12c0-15.934,12.963-28.897,28.898-28.897
						s28.898,12.964,28.898,28.897v32.12C157.115,245.259,144.151,258.223,128.217,258.223z M128.217,170.167
						c-14.909,0-27.038,12.129-27.038,27.037v32.12c0,14.909,12.128,27.038,27.038,27.038c14.909,0,27.037-12.129,27.037-27.038
						v-32.12C155.254,182.296,143.125,170.167,128.217,170.167z"/>
				</g>
				<g>
					<path fill="#CCB5AA" d="M128.217,221.015L128.217,221.015c-12.79,0-25.589,10.003-25.589-2.785v-16.38
						c0-12.789-1.209-25.588,11.58-25.588h25.682c12.79,0,13.915,12.799,13.915,25.588v16.38
						C153.805,231.018,141.006,221.015,128.217,221.015z"/>
				</g>
				<g>
					<path fill="#FFFFFF" d="M136.4,229.321c0,4.521-3.664,8.184-8.183,8.184s-8.184-3.663-8.184-8.184H136.4z"/>
				</g>
				<g>
					<path fill="#414042" d="M128.217,238.436c-5.026,0-9.114-4.09-9.114-9.114v-0.931h18.228v0.931
						C137.331,234.346,133.242,238.436,128.217,238.436z M121.022,230.251c0.458,3.562,3.51,6.323,7.195,6.323
						c3.684,0,6.736-2.761,7.193-6.323H121.022z"/>
				</g>
				<g>
					
						<rect x="114.945" y="199.03" transform="matrix(0.1328 0.9911 -0.9911 0.1328 302.3856 61.8007)" fill="#414042" width="1.86" height="9.349"/>
				</g>
				<g>
					
						<rect x="136.006" y="202.775" transform="matrix(0.9912 0.1326 -0.1326 0.9912 28.2646 -16.8611)" fill="#414042" width="9.35" height="1.86"/>
				</g>
				<g>
					<circle fill="#414042" cx="117.115" cy="208.691" r="2.346"/>
				</g>
				<g>
					<path fill="#414042" d="M132.668,219.931h-6.229v-1.86h4.368v-1.281c0-0.603-0.491-1.093-1.094-1.093h-2.586v-9.189h1.86v7.328
						h0.726c1.629,0,2.954,1.326,2.954,2.954V219.931z"/>
				</g>
				<g>
					<g>
						<path fill="#535151" d="M99.965,208.216L99.965,208.216c-3.75,0-6.79-3.04-6.79-6.79v-16.324
							c0-5.617,4.555-10.172,10.173-10.172l0,0l0,0c0-4.616,3.742-8.357,8.358-8.357h41.237c5.583,0,10.107,4.524,10.107,10.106
							v24.502c0,3.63-3.061,6.508-6.683,6.286l0,0v-16.182c0,0-4.657,7.605-19.319,7.589c-17.72-0.022-29.236-8.771-29.236-8.771
							s-1.087,2.406-3.46,4.507c-2.18,1.931-4.387,1.247-4.387,1.247V208.216z"/>
					</g>
					<g opacity="0.46">
						<path fill="#414042" d="M99.965,208.216v-12.358c0,0,2.208,0.684,4.387-1.247c2.373-2.101,3.46-4.507,3.46-4.507
							s23.291,12.216,37.146,7.706c-15.067-6.48-34.594-10.416-37.837-29.865c-2.273,1.495-3.774,4.063-3.774,6.985
							c-5.618,0-10.173,4.555-10.173,10.172v16.324C93.175,205.176,96.215,208.216,99.965,208.216z"/>
					</g>
					<g>
						<path fill="#414042" d="M100.895,209.146h-0.93c-4.257,0-7.72-3.463-7.72-7.72v-16.324c0-5.822,4.506-10.614,10.216-11.067
							c0.452-4.703,4.425-8.393,9.245-8.393h41.237c6.086,0,11.038,4.952,11.038,11.037v24.502c0,2.016-0.809,3.884-2.276,5.266
							c-1.468,1.38-3.39,2.065-5.394,1.949l-0.874-0.056v-17.055h1.86v15.237c1.169-0.115,2.258-0.609,3.132-1.433
							c1.09-1.023,1.69-2.413,1.69-3.909v-24.502c0-5.061-4.116-9.176-9.177-9.176h-41.237c-4.095,0-7.428,3.33-7.428,7.427v0.93
							h-0.93c-5.096,0-9.243,4.146-9.243,9.242v16.324c0,2.914,2.139,5.339,4.929,5.786l0.001-12.615l1.205,0.372
							c0.062,0.019,1.763,0.481,3.496-1.055c2.198-1.947,3.219-4.172,3.229-4.194l1.696,0.767c-0.048,0.106-1.199,2.614-3.692,4.819
							c-1.51,1.34-3.062,1.62-4.074,1.597V209.146z"/>
					</g>
					<g>
						<path fill="#414042" d="M137.086,199.804c-0.014,0-0.025,0-0.039,0c-17.821-0.021-33.119-11.187-33.76-11.662l1.106-1.496
							c0.153,0.113,15.461,11.277,32.657,11.298c0.011,0,0.024,0,0.035,0c13.976,0,20.442-9.555,20.506-9.65l1.553,1.024
							C158.861,189.746,152.048,199.804,137.086,199.804z"/>
					</g>
				</g>
				<g>
					<path fill="#414042" d="M143.65,211.039h-1.86c0-1.362-1.109-2.473-2.472-2.473c-1.363,0-2.471,1.11-2.471,2.473h-1.861
						c0-2.389,1.944-4.332,4.332-4.332C141.707,206.707,143.65,208.65,143.65,211.039z"/>
				</g>
			</g>
		</g>
	</g>
	<g id="_x35_">
		<g opacity="0.3">
			<path fill="#231F20" d="M208.981,152.778c-6.779,0-12.363,5.21-12.96,11.838c-2.759-0.503-6.937-0.063-8.436,4.43l-0.048,23.251
				c0,0.709,0.351,1.335,0.885,1.724c-1.047,0.875-1.729,2.176-1.729,3.644v3.72c0,2.629,2.139,4.768,4.767,4.768
				c0.254,0,0.5-0.036,0.744-0.075c0.506,13.5,9.798,24.783,22.312,28.294v3.112c-15.454,4.09-26.881,18.188-26.881,34.911v10.428
				h1.86l0,0h16.372l0,0h1.86l0,0h34.044l0,0h1.861l0,0H258l0,0h1.861v-10.428c0-17.175-12.056-31.578-28.146-35.216v-3.005
				c12.216-3.741,21.196-14.937,21.628-28.257c0.447,0.139,0.913,0.235,1.405,0.235c2.632,0,4.771-2.139,4.771-4.768v-3.72
				c0-2.629-2.14-4.768-4.771-4.768c-0.483,0-0.94,0.093-1.38,0.229v-14.08c6.048-1.117,10.646-6.419,10.646-12.785v-13.481H208.981
				z"/>
		</g>
		<g id="XMLID_76_">
			<g id="XMLID_89_">
				<path fill="#E78967" d="M261.412,282.821v-10.428c0-19.35-15.831-35.184-35.183-35.184l0,0
					c-19.352,0-35.184,15.834-35.184,35.184v10.428H261.412z"/>
			</g>
			<g>
				<path fill="#ECA185" d="M226.229,237.21c-19.352,0-35.184,15.834-35.184,35.184v7.687c0-19.351,15.832-35.183,35.184-35.183
					s35.183,15.832,35.183,35.183v-7.687C261.412,253.044,245.581,237.21,226.229,237.21z"/>
			</g>
			<g id="XMLID_88_">
				<path fill="#414042" d="M262.342,282.821h-1.86v-10.428c0-18.888-15.365-34.253-34.253-34.253
					c-18.887,0-34.253,15.365-34.253,34.253v10.428h-1.86v-10.428c0-19.914,16.201-36.113,36.114-36.113
					s36.113,16.199,36.113,36.113V282.821z"/>
			</g>
			<g id="XMLID_87_">
				<rect x="208.348" y="269.952" fill="#414042" width="1.86" height="12.869"/>
			</g>
			<g id="XMLID_86_">
				<rect x="244.252" y="269.952" fill="#414042" width="1.861" height="12.869"/>
			</g>
			<g>
				<path fill="#FEDAC6" d="M227.735,251.436h-4.276c-3.056,0-5.532-2.478-5.532-5.532v-20.478c0-3.056,2.477-5.532,5.533-5.532
					h4.275c3.055,0,5.531,2.477,5.531,5.532v20.478C233.266,248.958,230.79,251.436,227.735,251.436z"/>
			</g>
			<g>
				<path fill="#414042" d="M227.735,252.365h-4.276c-3.563,0-6.462-2.898-6.462-6.462v-20.478c0-3.563,2.899-6.464,6.463-6.464
					h4.275c3.563,0,6.462,2.9,6.462,6.464v20.477C234.197,249.466,231.298,252.365,227.735,252.365z M223.459,220.823
					c-2.539,0-4.604,2.065-4.604,4.603v20.478c0,2.537,2.064,4.602,4.603,4.602h4.276c2.537,0,4.601-2.065,4.601-4.603v-20.477
					c0-2.537-2.063-4.603-4.601-4.603H223.459z"/>
			</g>
			<g id="XMLID_85_">
				<path fill="#FFE6D9" d="M197.776,201.384c0,2.119-1.718,3.838-3.835,3.838l0,0c-2.122,0-3.837-1.719-3.837-3.838v-3.72
					c0-2.12,1.715-3.837,3.837-3.837l0,0c2.118,0,3.835,1.717,3.835,3.837V201.384z"/>
			</g>
			<g id="XMLID_84_">
				<path fill="#414042" d="M193.94,206.151c-2.628,0-4.767-2.139-4.767-4.768v-3.72c0-2.629,2.138-4.768,4.767-4.768
					c2.628,0,4.766,2.139,4.766,4.768v3.72C198.707,204.013,196.568,206.151,193.94,206.151z M193.94,194.757
					c-1.603,0-2.906,1.305-2.906,2.907v3.72c0,1.604,1.303,2.907,2.906,2.907c1.602,0,2.906-1.304,2.906-2.907v-3.72
					C196.846,196.062,195.542,194.757,193.94,194.757z"/>
			</g>
			<g id="XMLID_83_">
				<path fill="#FFE6D9" d="M261.072,201.384c0,2.119-1.725,3.838-3.842,3.838l0,0c-2.118,0-3.84-1.719-3.84-3.838v-3.72
					c0-2.12,1.722-3.837,3.84-3.837l0,0c2.117,0,3.842,1.717,3.842,3.837V201.384z"/>
			</g>
			<g id="XMLID_82_">
				<path fill="#414042" d="M257.23,206.151c-2.63,0-4.77-2.139-4.77-4.768v-3.72c0-2.629,2.14-4.768,4.77-4.768
					c2.632,0,4.772,2.139,4.772,4.768v3.72C262.002,204.013,259.862,206.151,257.23,206.151z M257.23,194.757
					c-1.604,0-2.91,1.305-2.91,2.907v3.72c0,1.604,1.306,2.907,2.91,2.907c1.605,0,2.911-1.304,2.911-2.907v-3.72
					C260.141,196.062,258.835,194.757,257.23,194.757z"/>
			</g>
			<g id="XMLID_81_">
				<path fill="#FEDAC6" d="M254.92,173.853v31.064c0,16.382-13.279,29.663-29.671,29.663l0,0c-16.38,0-29.665-13.281-29.665-29.663
					v-31.064H254.92z"/>
			</g>
			<g>
				<path fill="#FFE6D9" d="M245.697,173.853v29.527c0,16.382-13.279,29.663-29.671,29.663c-0.06,0-0.117-0.009-0.178-0.01
					c2.957,0.989,6.111,1.547,9.401,1.547c16.392,0,29.671-13.281,29.671-29.663v-31.064H245.697z"/>
			</g>
			<g id="XMLID_80_">
				<path fill="#414042" d="M225.25,235.51c-16.871,0-30.596-13.724-30.596-30.593v-31.994h61.196v31.994
					C255.85,221.786,242.123,235.51,225.25,235.51z M196.514,174.783v30.134c0,15.843,12.891,28.733,28.735,28.733
					c15.847,0,28.74-12.891,28.74-28.733v-30.134H196.514z"/>
			</g>
			<g id="XMLID_79_">
				<path fill="#535151" d="M265.566,153.708v12.551c0,6.672-5.406,12.082-12.081,12.082h-48.066c-3.333,0-6.04,2.708-6.04,6.043
					v7.912c0,0.664-0.541,1.207-1.209,1.207h-6.016c-0.662,0-1.207-0.543-1.207-1.207V169.34c1.897-5.683,8.432-3.548,8.432-3.548
					c0-6.672,5.413-12.083,12.082-12.083H265.566z"/>
			</g>
			<g id="XMLID_78_">
				<path fill="#ACA39E" d="M252.21,173.384c7.223,0,13.08-5.857,13.08-13.076v-6.599h-53.829c-6.669,0-12.082,5.412-12.082,12.083
					c0,0-6.534-2.135-8.432,3.548v23.558h2.637c0.72,0,1.309-0.583,1.309-1.309v-11.665c0-3.611,2.933-6.54,6.537-6.54H252.21z"/>
			</g>
			<g id="XMLID_77_">
				<path fill="#414042" d="M198.17,194.435h-6.016c-1.178,0-2.136-0.96-2.136-2.138l0.047-23.251c1.5-4.493,5.678-4.933,8.437-4.43
					c0.596-6.628,6.181-11.838,12.959-11.838h55.035v13.481c0,7.175-5.837,13.012-13.012,13.012h-48.066
					c-2.817,0-5.11,2.294-5.11,5.113v7.912C200.309,193.475,199.35,194.435,198.17,194.435z M191.878,169.496v22.801
					c0,0.15,0.126,0.277,0.276,0.277h6.016c0.154,0,0.279-0.125,0.279-0.277v-7.912c0-3.845,3.127-6.975,6.97-6.975h48.066
					c6.149,0,11.151-5.001,11.151-11.15v-11.621h-53.175c-6.149,0-11.152,5.004-11.152,11.153v1.276l-1.217-0.391
					C198.862,166.604,193.515,164.94,191.878,169.496z"/>
			</g>
			<g>
				<path fill="#414042" d="M227.064,212.185h-3.479v-1.86h3.479c0.672,0,1.22-0.547,1.22-1.219v-0.199
					c0-0.673-0.548-1.22-1.22-1.22h-2.689v-7.069h1.86v5.208h0.829c1.697,0,3.08,1.383,3.08,3.081v0.199
					C230.144,210.803,228.761,212.185,227.064,212.185z"/>
			</g>
			<g>
				<rect x="209.24" y="190.609" fill="#414042" width="9.845" height="1.86"/>
			</g>
			<g>
				<rect x="232.828" y="190.609" fill="#414042" width="9.845" height="1.86"/>
			</g>
			<g>
				<circle fill="#414042" cx="214.162" cy="196.18" r="2.493"/>
			</g>
			<g>
				<circle fill="#414042" cx="237.75" cy="196.18" r="2.493"/>
			</g>
			<g>
				<path fill="#FFFFFF" d="M233.266,218.633c0,4.235-3.434,7.67-7.67,7.67c-4.235,0-7.67-3.435-7.67-7.67H233.266z"/>
			</g>
			<g>
				<path fill="#414042" d="M225.596,227.232c-4.742,0-8.6-3.857-8.6-8.6v-0.93h17.201v0.93
					C234.197,223.375,230.339,227.232,225.596,227.232z M218.92,219.563c0.454,3.277,3.274,5.809,6.676,5.809
					c3.4,0,6.222-2.531,6.676-5.809H218.92z"/>
			</g>
			<g>
				<rect x="222.66" y="228.789" fill="#414042" width="5.874" height="1.86"/>
			</g>
		</g>
	</g>
	<g id="_x37_">
		<g>
			<rect x="136.025" y="294.204" fill="#FEDAC6" width="43.192" height="12.335"/>
		</g>
		<g>
			<path fill="#414042" d="M180.147,307.469h-45.052v-14.194h45.052V307.469z M136.956,305.608h41.331v-10.475h-41.331V305.608z"/>
		</g>
		<g>
			<g>
				<path fill="#FEDAC6" d="M120.476,306.539L120.476,306.539c-1.476,0-2.684-1.207-2.684-2.685v-3.763
					c0-1.478,1.208-2.685,2.684-2.685l0,0c1.476,0,2.683,1.207,2.683,2.685v3.763C123.159,305.332,121.952,306.539,120.476,306.539z
					"/>
			</g>
			<g>
				<path fill="#414042" d="M120.476,307.469c-1.993,0-3.614-1.622-3.614-3.614v-3.763c0-1.992,1.621-3.614,3.614-3.614
					c1.992,0,3.613,1.622,3.613,3.614v3.763C124.089,305.847,122.468,307.469,120.476,307.469z M120.476,298.338
					c-0.967,0-1.753,0.787-1.753,1.754v3.763c0,0.966,0.787,1.754,1.753,1.754c0.966,0,1.753-0.788,1.753-1.754v-3.763
					C122.229,299.125,121.442,298.338,120.476,298.338z"/>
			</g>
		</g>
		<g>
			<g>
				<path fill="#FEDAC6" d="M142.801,306.539L142.801,306.539c-1.476,0-2.684-1.207-2.684-2.685v-3.763
					c0-1.478,1.208-2.685,2.684-2.685l0,0c1.476,0,2.684,1.207,2.684,2.685v3.763C145.484,305.332,144.277,306.539,142.801,306.539z
					"/>
			</g>
			<g>
				<path fill="#414042" d="M142.801,307.469c-1.993,0-3.613-1.622-3.613-3.614v-3.763c0-1.992,1.621-3.614,3.613-3.614
					s3.613,1.622,3.613,3.614v3.763C146.414,305.847,144.793,307.469,142.801,307.469z M142.801,298.338
					c-0.966,0-1.753,0.787-1.753,1.754v3.763c0,0.966,0.787,1.754,1.753,1.754s1.753-0.788,1.753-1.754v-3.763
					C144.554,299.125,143.767,298.338,142.801,298.338z"/>
			</g>
		</g>
		<g>
			<g>
				<path fill="#FFFFFE" d="M142.72,306.539v-4.147c0-5.884-4.814-10.697-10.697-10.697l0,0c-5.884,0-10.697,4.813-10.697,10.697
					v4.147H142.72z"/>
			</g>
			<g>
				<path fill="#414042" d="M143.65,307.469h-23.255v-5.077c0-6.411,5.216-11.627,11.627-11.627c6.412,0,11.627,5.216,11.627,11.627
					V307.469z M122.255,305.608h19.534v-3.217c0-5.385-4.382-9.768-9.767-9.768s-9.767,4.383-9.767,9.768V305.608z"/>
			</g>
		</g>
		<g>
			<g>
				<path fill="#FEDAC6" d="M138.009,300.62L138.009,300.62c-1.625,0-2.955-1.329-2.955-2.954v-4.145
					c0-1.625,1.33-2.954,2.955-2.954l0,0c1.625,0,2.955,1.329,2.955,2.954v4.145C140.963,299.291,139.634,300.62,138.009,300.62z"/>
			</g>
			<g>
				<path fill="#414042" d="M138.009,301.55c-2.142,0-3.884-1.743-3.884-3.884v-4.145c0-2.142,1.742-3.884,3.884-3.884
					c2.142,0,3.885,1.742,3.885,3.884v4.145C141.894,299.807,140.15,301.55,138.009,301.55z M138.009,291.498
					c-1.116,0-2.024,0.908-2.024,2.023v4.145c0,1.114,0.908,2.023,2.024,2.023s2.024-0.909,2.024-2.023v-4.145
					C140.033,292.406,139.125,291.498,138.009,291.498z"/>
			</g>
		</g>
		<g>
			<g>
				<path fill="#FEDAC6" d="M131.205,299.206L131.205,299.206c-1.625,0-2.955-1.329-2.955-2.954v-4.144
					c0-1.625,1.33-2.954,2.955-2.954l0,0c1.625,0,2.954,1.329,2.954,2.954v4.144C134.159,297.877,132.83,299.206,131.205,299.206z"
					/>
			</g>
			<g>
				<path fill="#414042" d="M131.205,300.136c-2.143,0-3.885-1.742-3.885-3.884v-4.144c0-2.142,1.743-3.884,3.885-3.884
					c2.142,0,3.885,1.742,3.885,3.884v4.144C135.089,298.394,133.346,300.136,131.205,300.136z M131.205,290.084
					c-1.116,0-2.024,0.909-2.024,2.024v4.144c0,1.115,0.908,2.024,2.024,2.024c1.115,0,2.024-0.909,2.024-2.024v-4.144
					C133.229,290.993,132.32,290.084,131.205,290.084z"/>
			</g>
		</g>
		<g>
			<g>
				<path fill="#FEDAC6" d="M124.399,301L124.399,301c-1.625,0-2.954-1.33-2.954-2.954v-4.145c0-1.625,1.329-2.955,2.954-2.955l0,0
					c1.625,0,2.955,1.33,2.955,2.955v4.145C127.354,299.67,126.025,301,124.399,301z"/>
			</g>
			<g>
				<path fill="#414042" d="M124.399,301.931c-2.142,0-3.884-1.744-3.884-3.885v-4.145c0-2.142,1.743-3.885,3.884-3.885
					c2.142,0,3.885,1.743,3.885,3.885v4.145C128.284,300.187,126.542,301.931,124.399,301.931z M124.399,291.877
					c-1.116,0-2.024,0.908-2.024,2.024v4.145c0,1.115,0.908,2.023,2.024,2.023s2.024-0.908,2.024-2.023v-4.145
					C126.424,292.785,125.516,291.877,124.399,291.877z"/>
			</g>
		</g>
	</g>
	<g id="_x31_0">
		<g>
			<g>
				<path fill="#E6E7E8" d="M278.451,306.539H171.775c-3.332,0-6.363-1.926-7.779-4.942l-2.641-5.624h127.515l-2.643,5.624
					C284.813,304.613,281.781,306.539,278.451,306.539z"/>
			</g>
			<g>
				<path fill="#414042" d="M278.451,307.469H171.775c-3.675,0-7.059-2.149-8.622-5.478l-2.064-4.396
					c-0.262-0.557-0.222-1.2,0.109-1.721c0.33-0.521,0.896-0.831,1.512-0.831h124.804c0.615,0,1.182,0.31,1.511,0.831
					c0.331,0.52,0.372,1.164,0.11,1.721l-2.064,4.398C285.509,305.319,282.125,307.469,278.451,307.469z M287.452,296.805
					l-124.741,0.1l2.127,4.298c1.258,2.677,3.98,4.406,6.938,4.406h106.675c2.956,0,5.679-1.729,6.936-4.406L287.452,296.805z"/>
			</g>
			<g>
				<path fill="#FFFFFE" d="M276.628,299.662H174.677c-2.188,0-3.961-1.774-3.961-3.962v-62.861c0-2.189,1.773-3.963,3.961-3.963
					h101.951c2.188,0,3.963,1.773,3.963,3.963V295.7C280.591,297.888,278.817,299.662,276.628,299.662z"/>
			</g>
			<g>
				<path fill="#414042" d="M276.087,301.313H174.136c-2.697,0-4.892-2.194-4.892-4.892v-62.861c0-2.698,2.195-4.893,4.892-4.893
					h101.951c2.698,0,4.893,2.194,4.893,4.893v62.861C280.98,299.119,278.786,301.313,276.087,301.313z M174.136,230.528
					c-1.671,0-3.032,1.36-3.032,3.032v62.861c0,1.671,1.361,3.031,3.032,3.031h101.951c1.672,0,3.032-1.36,3.032-3.031v-62.861
					c0-1.672-1.36-3.032-3.032-3.032H174.136z"/>
			</g>
			<g>
				<circle fill="#E6E7E8" cx="225.653" cy="264.269" r="9.178"/>
			</g>
		</g>
	</g>
	<g id="_x31_3">
		<g id="XMLID_95_">
			<rect x="327.141" y="129.115" fill="#414042" width="2.973" height="1.86"/>
		</g>
		<g id="XMLID_94_">
			<rect x="332.103" y="129.115" fill="#414042" width="32.426" height="1.86"/>
		</g>
		<g id="XMLID_66_">
			<rect x="373.958" y="183.879" fill="#414042" width="2.972" height="1.86"/>
		</g>
		<g id="XMLID_65_">
			<rect x="378.918" y="183.88" fill="#414042" width="32.426" height="1.861"/>
		</g>
		<g id="XMLID_56_">
			<rect x="128.746" y="54.474" fill="#414042" width="37.913" height="1.86"/>
		</g>
		<g id="XMLID_57_">
			<rect x="24.818" y="194.009" fill="#414042" width="37.912" height="1.861"/>
		</g>
		<g id="XMLID_60_">
			<rect x="51.48" y="93.112" fill="#414042" width="37.914" height="1.86"/>
		</g>
		<g id="XMLID_61_">
			<rect x="93.114" y="93.112" fill="#414042" width="4.512" height="1.86"/>
		</g>
		<g id="XMLID_58_">
			<rect x="350.871" y="90.57" fill="#414042" width="37.913" height="1.86"/>
		</g>
		<g id="XMLID_59_">
			<rect x="391.263" y="90.569" fill="#414042" width="6.375" height="1.86"/>
		</g>
		<g id="XMLID_93_">
			<rect x="322.026" y="129.115" fill="#414042" width="2.778" height="1.86"/>
		</g>
		<g id="XMLID_47_">
			<rect x="193.033" y="43.614" fill="#414042" width="2.972" height="1.86"/>
		</g>
		<g id="XMLID_46_">
			<rect x="158.617" y="43.614" fill="#414042" width="32.426" height="1.86"/>
		</g>
		<g id="XMLID_45_">
			<rect x="198.343" y="43.614" fill="#414042" width="2.778" height="1.86"/>
		</g>
		<g id="XMLID_50_">
			<rect x="80.467" y="143.053" fill="#414042" width="2.973" height="1.86"/>
		</g>
		<g id="XMLID_49_">
			<rect x="85.428" y="143.053" fill="#414042" width="32.427" height="1.86"/>
		</g>
		<g id="XMLID_121_">
			<g id="XMLID_123_">
				<rect x="309.614" y="129.115" fill="#414042" width="6.37" height="1.86"/>
			</g>
			<g id="XMLID_122_">
				<rect x="311.869" y="126.861" fill="#414042" width="1.86" height="6.37"/>
			</g>
		</g>
		<g id="XMLID_51_">
			<g id="XMLID_53_">
				<rect x="70.438" y="143.053" fill="#414042" width="6.37" height="1.86"/>
			</g>
			<g id="XMLID_52_">
				<rect x="72.691" y="140.798" fill="#414042" width="1.86" height="6.37"/>
			</g>
		</g>
		<g id="XMLID_48_">
			<g id="XMLID_55_">
				<rect x="208.479" y="43.614" fill="#414042" width="6.369" height="1.86"/>
			</g>
			<g id="XMLID_54_">
				<rect x="210.733" y="41.359" fill="#414042" width="1.86" height="6.37"/>
			</g>
		</g>
		<g id="XMLID_62_">
			<g id="XMLID_64_">
				<rect x="100.655" y="93.112" fill="#414042" width="6.37" height="1.86"/>
			</g>
			<g id="XMLID_63_">
				<rect x="102.91" y="90.857" fill="#414042" width="1.86" height="6.37"/>
			</g>
		</g>
		<g>
			<path fill="#414042" d="M342.994,96.058l-3.769-3.768l3.769-3.767l3.769,3.767L342.994,96.058z M341.856,92.29l1.138,1.137
				l1.138-1.137l-1.138-1.137L341.856,92.29z"/>
		</g>
		<g>
			<path fill="#414042" d="M365.846,188.577l-3.769-3.769l3.769-3.766l3.768,3.766L365.846,188.577z M364.708,184.809l1.138,1.138
				l1.137-1.138l-1.137-1.136L364.708,184.809z"/>
		</g>
		<g>
			<path fill="#414042" d="M72.445,199.947l-3.768-3.768l3.768-3.769l3.769,3.769L72.445,199.947z M71.308,196.18l1.137,1.138
				l1.137-1.138l-1.137-1.137L71.308,196.18z"/>
		</g>
		<g>
			<path fill="#414042" d="M432.954,291.234l-1.762-0.602c0.658-1.926,1.305-3.918,1.924-5.919c0.423-1.362,0.829-2.729,1.227-4.104
				l1.786,0.516c-0.397,1.384-0.809,2.764-1.234,4.139C434.27,287.281,433.618,289.29,432.954,291.234z"/>
		</g>
		<g>
			<path fill="#414042" d="M441.514,257.535l-1.834-0.312c0.29-1.697,0.56-3.4,0.81-5.111c1.527-10.441,2.302-21.132,2.302-31.771
				c0-120.029-97.65-217.68-217.679-217.68c-120.03,0-217.68,97.651-217.68,217.68c0,7.752,0.412,15.569,1.225,23.232
				c0.171,1.617,0.361,3.229,0.567,4.834l-1.845,0.238c-0.209-1.62-0.399-3.244-0.572-4.876c-0.82-7.729-1.236-15.611-1.236-23.429
				c0-121.055,98.485-219.54,219.541-219.54c121.055,0,219.54,98.485,219.54,219.54c0,10.729-0.782,21.509-2.322,32.041
				C442.079,254.105,441.806,255.823,441.514,257.535z"/>
		</g>
		<g>
			<path fill="#414042" d="M11.963,273.14c-0.284-1.147-0.558-2.299-0.823-3.454c-0.351-1.53-0.687-3.068-1.006-4.609l1.821-0.379
				c0.317,1.529,0.649,3.055,0.998,4.571c0.263,1.146,0.535,2.287,0.816,3.426L11.963,273.14z"/>
		</g>
	</g>
	<g id="line">
		<g>
			<g>
				<rect x="15.58" y="305.608" fill="#414042" width="424.51" height="1.86"/>
			</g>
			<g>
				<rect x="444.005" y="305.608" fill="#414042" width="6.219" height="1.86"/>
			</g>
			<g>
				<rect y="305.608" fill="#414042" width="10.547" height="1.86"/>
			</g>
		</g>
	</g>
</g>
<g id="Text">
</g>
</svg>
