<svg width="67.937mm" height="66.291mm" version="1.1" viewBox="0 0 67.937 66.291" xmlns="http://www.w3.org/2000/svg">
 <g transform="translate(8.6888 -230.71)">
  <g fill="#2f2e41">
   <ellipse transform="matrix(-.27156 -.96242 .95647 -.29182 0 0)" cx="-257.38" cy="-71.565" rx="3.2491" ry="10.556" stroke-width=".26461"/>
   <g stroke-width=".26458">
    <circle cx="24.211" cy="267.03" r="20.902"/>
    <path d="m33.813 294.79-6.35 0.0177-0.03175-11.377 6.35-0.0177zm-12.699 0.0365-6.35 0.018-0.03175-11.377 6.35-0.0177z"/>
    <ellipse transform="rotate(-.16)" cx="27.768" cy="295.09" rx="5.2917" ry="1.9844"/>
    <ellipse transform="rotate(-.16)" cx="15.068" cy="294.83" rx="5.2917" ry="1.9844"/>
   </g>
  </g>
  <g stroke-width=".26458">
   <circle cx="23.667" cy="261.74" r="7.1438" fill="#fff"/>
   <circle cx="24.234" cy="265.14" r="2.3812" fill="#3f3d56"/>
   <path d="m44.432 247.54c1.6666-7.5634-3.7499-15.186-12.098-17.025-8.3479-1.8394-16.467 2.8004-18.133 10.364-1.6666 7.5634 3.8703 10.335 12.218 12.175s16.346 2.0497 18.013-5.5134z" fill="#222"/>
   <ellipse transform="rotate(15.605)" cx="120.63" cy="249.22" rx="10.451" ry="3.2808" fill="#2f2e41"/>
   <path d="m34.499 274.54c0.0056 2.0458-5.2504 6.1002-11.096 6.1166-5.8452 0.0164-11.341-5.7277-11.347-7.7735-0.0058-2.0458 5.4816 0.38153 11.327 0.36512 5.8449-0.0164 11.11-0.75406 11.116 1.2917z" fill="#fff"/>
  </g>
 </g>
</svg>
