<svg width="63.807mm" height="128.55mm" version="1.1" viewBox="0 0 63.807 128.55" xmlns="http://www.w3.org/2000/svg">
 <g transform="translate(14.323 -201.08)" stroke-width=".26458">
  <g fill="#2f2e41">
   <circle cx="13.91" cy="299.74" r="20.902"/>
   <path d="m4.3851 316.14h6.35v11.377h-6.35zm12.7 0h6.35v11.377h-6.35z"/>
   <ellipse cx="9.6768" cy="327.65" rx="5.2917" ry="1.9844"/>
   <ellipse cx="22.377" cy="327.39" rx="5.2917" ry="1.9844"/>
  </g>
  <circle cx="14.439" cy="294.45" r="7.1438" fill="#fff"/>
  <circle cx="14.439" cy="291.27" r="2.3812" fill="#3f3d56"/>
  <path d="m-6.3657 280.3c-1.6878-7.5584 3.7073-15.196 12.05-17.059 8.3428-1.8629 16.474 2.7543 18.162 10.313 1.6878 7.5586-3.8412 10.346-12.184 12.209-8.3428 1.8629-16.34 2.0955-18.028-5.4631z" fill="#222"/>
  <g fill="#2f2e41">
   <ellipse transform="rotate(-65.077)" cx="-238.33" cy="143.52" rx="10.451" ry="3.2808"/>
   <ellipse transform="rotate(-27.893)" cx="-140.01" cy="246.05" rx="3.2808" ry="10.451"/>
   <circle cx="19.97" cy="237.88" r="20.902"/>
   <path d="m7.6757 252.32 6.2484 1.1311-2.0267 11.195-6.2484-1.1311zm12.497 2.2624 6.2484 1.1311-2.0267 11.195-6.2484-1.1311z"/>
   <ellipse transform="rotate(-49.739)" cx="-189.87" cy="190.1" rx="1.9844" ry="5.2917"/>
   <ellipse transform="rotate(-49.739)" cx="-196.09" cy="179.33" rx="1.9844" ry="5.2917"/>
  </g>
  <circle cx="21.434" cy="232.76" r="7.1438" fill="#fff"/>
  <circle cx="25.727" cy="232.72" r="2.3812" fill="#3f3d56"/>
  <path d="m3.4816 215.14c-0.31432-7.7383 6.355-14.293 14.896-14.64 8.541-0.34687 15.72 5.6449 16.035 13.383 0.31432 7.7383-5.6229 9.4964-14.164 9.8433-8.5413 0.34687-16.452-0.84852-16.767-8.5868z" fill="#222"/>
  <ellipse transform="rotate(-12.91)" cx="-14.018" cy="236.93" rx="10.451" ry="3.2808" fill="#2f2e41"/>
  <ellipse transform="rotate(-12.91)" cx="-55.535" cy="234.41" rx="10.451" ry="3.2808" fill="#2f2e41"/>
  <path d="m14.229 246.11a4.7626 4.7626 0 0 0 9.3729 1.6968c0.46831-2.5882-1.5327-3.5041-4.1209-3.9727-2.5882-0.46858-4.7834-0.31221-5.252 2.2759z" fill="#fff"/>
 </g>
</svg>
