<svg width="272.29mm" height="72.226mm" version="1.1" viewBox="0 0 272.29 72.226" xmlns="http://www.w3.org/2000/svg">
 <g transform="translate(0 -224.77)">
  <g fill="none" stroke-linecap="round" stroke-linejoin="round" stroke-miterlimit="10">
   <g stroke="#3a4144" stroke-width=".70556">
    <path d="m69.008 285.59h15.45"/>
    <path d="m57.217 285.59h6.2286"/>
    <path d="m87.623 275.47h140.94"/>
    <path d="m232.12 275.47h9.3218"/>
   </g>
   <path d="m0.3578 247.97h29.998" stroke="#fff" stroke-width=".70556"/>
   <g stroke="#3a4144">
    <g stroke-width=".70556">
     <path d="m251.94 275.47h9.3225"/>
     <path d="m74.138 233.05c-0.63712-0.15311-1.3021-0.2339-1.9861-0.2339-3.931 0-7.2358 2.6772-8.1929 6.3077-0.6283-0.24906-1.3116-0.39017-2.0288-0.39017-3.0455 0-5.5146 2.4687-5.5146 5.5146 0 3.0455 2.4691 5.5146 5.5146 5.5146h4.5166"/>
     <path d="m79.35 236.81c-0.82197-1.3204-1.9971-2.3985-3.3934-3.1013"/>
     <path d="m85.33 241.53c-0.78634-0.62371-1.7812-0.99625-2.8631-0.99625-0.65864 0-1.2838 0.14041-1.8503 0.38912-0.03916-0.91934-0.22437-1.8006-0.53305-2.6211"/>
     <path d="m72.122 249.76h10.345c2.5474 0 4.6129-2.0655 4.6129-4.6133"/>
     <path d="m68.003 249.76h2.5626"/>
    </g>
    <path d="m6.807 280.97h102.5" stroke-width=".70564"/>
    <path d="m84.458 285.59c0-1.0382 0.84173-1.8803 1.88-1.8803 1.0386 0 1.8803 0.84211 1.8803 1.8803 0 1.0386-0.84173 1.8799-1.8803 1.8799-1.0382 0-1.88-0.84131-1.88-1.8799z" stroke-width=".70556"/>
   </g>
   <path d="m222.13 294.77c0-1.0386 0.84173-1.8803 1.88-1.8803 1.0386 0 1.8803 0.84173 1.8803 1.8803 0 1.0382-0.84172 1.8803-1.8803 1.8803-1.0382 0-1.88-0.84208-1.88-1.8803z" stroke="#fff" stroke-width=".70556"/>
  </g>
  <path d="m104.09 271.39-4.5544-0.8075 5.769-32.526 4.5544 0.8075-5.769 32.526" fill="#fab44e"/>
  <g fill="none" stroke="#3a4144" stroke-linecap="round" stroke-linejoin="round" stroke-miterlimit="10" stroke-width=".70556">
   <path d="m104.09 271.39-4.5544-0.8075 5.769-32.526 4.5544 0.8075z"/>
   <path d="m105 239.78 2.0507 0.36372"/>
   <path d="m104.68 241.6 1.0252 0.18204"/>
   <path d="m104.36 243.41 1.0252 0.18168"/>
   <path d="m104.03 245.23 1.0255 0.18203"/>
   <path d="m103.71 247.05 2.0507 0.36407"/>
   <path d="m103.39 248.87 1.0255 0.18168"/>
   <path d="m103.07 250.68 1.0252 0.18168"/>
   <path d="m102.74 252.5 1.0255 0.18168"/>
   <path d="m102.42 254.32 2.0507 0.36371"/>
   <path d="m102.1 256.14 1.0255 0.18168"/>
   <path d="m101.78 257.95 1.0252 0.18204"/>
   <path d="m101.45 259.77 1.0252 0.18168"/>
   <path d="m101.13 261.59 2.0507 0.36371"/>
   <path d="m100.81 263.41 1.0255 0.18168"/>
   <path d="m100.49 265.23 1.0255 0.18168"/>
   <path d="m100.16 267.04 1.0255 0.18204"/>
   <path d="m99.842 268.86 2.0507 0.36371"/>
  </g>
  <path d="m103.12 270.87-2.4684-0.86748 6.9589-19.803 2.4684 0.86748-6.9589 19.803" fill="#93d9bd"/>
  <path d="m103.12 270.87-2.4684-0.86748 6.9589-19.803 2.4684 0.86748z" fill="none" stroke="#3a4144" stroke-linecap="round" stroke-linejoin="round" stroke-miterlimit="10" stroke-width=".70556"/>
  <path d="m107.61 250.2 2.1699-2.2288 0.29845 3.0963z" fill="#fab44e"/>
  <path d="m107.61 250.2 2.1699-2.2288 0.29845 3.0963z" fill="none" stroke="#3a4144" stroke-linecap="round" stroke-linejoin="round" stroke-miterlimit="10" stroke-width=".70556"/>
  <path d="m108.93 248.85 0.97543 0.34255-0.11783-1.2234z" fill="#3a4144"/>
  <path d="m108.93 248.85 0.97543 0.34255-0.11783-1.2234z" fill="none" stroke="#3a4144" stroke-linecap="round" stroke-linejoin="round" stroke-miterlimit="10" stroke-width=".70556"/>
  <path d="m101.89 270.43 6.9592-19.803" fill="none" stroke="#3a4144" stroke-linecap="round" stroke-linejoin="round" stroke-miterlimit="10" stroke-width=".70556"/>
  <path d="m102.73 271.98-2.4684-0.86748 0.39193-1.1151 2.4684 0.86748-0.39194 1.1151" fill="#c4cbc9"/>
  <path d="m102.73 271.98-2.4684-0.86748 0.39193-1.1151 2.4684 0.86748z" fill="none" stroke="#3a4144" stroke-linecap="round" stroke-linejoin="round" stroke-miterlimit="10" stroke-width=".70556"/>
  <path d="m101.99 274.09-2.4684-0.86748 0.74084-2.1078 2.4684 0.86748-0.74083 2.1078" fill="#f0f0ef"/>
  <path d="m101.99 274.09-2.4684-0.86748 0.74084-2.1078 2.4684 0.86748z" fill="none" stroke="#3a4144" stroke-linecap="round" stroke-linejoin="round" stroke-miterlimit="10" stroke-width=".70556"/>
  <path d="m97.452 250.18 2.6053-0.24165 1.9399 20.9-2.6053 0.24201-1.9399-20.901" fill="#ee43aa"/>
  <path d="m97.452 250.18 2.6053-0.24165 1.9399 20.9-2.6053 0.24201z" fill="none" stroke="#3a4144" stroke-linecap="round" stroke-linejoin="round" stroke-miterlimit="10" stroke-width=".70556"/>
  <path d="m102 270.84-1.0421 2.9312-1.5632-2.6892z" fill="#fab44e"/>
  <path d="m102 270.84-1.0421 2.9312-1.5632-2.6892z" fill="none" stroke="#3a4144" stroke-linecap="round" stroke-linejoin="round" stroke-miterlimit="10" stroke-width=".70556"/>
  <path d="m101.37 272.61-1.0294 0.0952 0.61771 1.0629z" fill="#3a4144"/>
  <path d="m101.37 272.61-1.0294 0.0952 0.61771 1.0629z" fill="none" stroke="#3a4144" stroke-linecap="round" stroke-linejoin="round" stroke-miterlimit="10" stroke-width=".70556"/>
  <path d="m98.755 250.06 1.9396 20.9" fill="none" stroke="#3a4144" stroke-linecap="round" stroke-linejoin="round" stroke-miterlimit="10" stroke-width=".70556"/>
  <path d="m97.343 249 2.6053-0.24201 0.109 1.1772-2.6053 0.24165-0.10901-1.1769" fill="#c4cbc9"/>
  <path d="m97.343 249 2.6053-0.24201 0.109 1.1772-2.6053 0.24165z" fill="none" stroke="#3a4144" stroke-linecap="round" stroke-linejoin="round" stroke-miterlimit="10" stroke-width=".70556"/>
  <path d="m97.136 246.78 2.6056-0.242 0.20638 2.2246-2.6053 0.24201-0.20673-2.2246" fill="#f0f0ef"/>
  <path d="m97.136 246.78 2.6056-0.242 0.20638 2.2246-2.6053 0.24201z" fill="none" stroke="#3a4144" stroke-linecap="round" stroke-linejoin="round" stroke-miterlimit="10" stroke-width=".70556"/>
  <path d="m108.38 261.89h-11.347v11.619c0 1.0809 0.87595 1.9569 1.9569 1.9569h7.4337c1.0809 0 1.9569-0.87595 1.9569-1.9569v-11.619" fill="#c4cbc9"/>
  <path d="m108.38 261.89h-11.347v11.619c0 1.0809 0.87595 1.9569 1.9569 1.9569h7.4337c1.0809 0 1.9569-0.87595 1.9569-1.9569z" fill="none" stroke="#3a4144" stroke-linecap="round" stroke-linejoin="round" stroke-miterlimit="10" stroke-width=".70556"/>
  <path d="m109.05 259.25h-12.7v2.6458h12.7v-2.6458" fill="#d7dcdb"/>
  <g fill="none" stroke="#3a4144" stroke-linecap="round" stroke-linejoin="round" stroke-miterlimit="10" stroke-width=".70556">
   <path d="m109.05 259.25h-12.7v2.6458h12.7z"/>
   <path d="m98.511 261.95v5.2712"/>
   <path d="m106.79 267.8v1.4256"/>
   <path d="m106.79 270.43v1.4256"/>
   <path d="m232.15 252.04c0.63147 1.3286 1.9854 2.2468 3.5542 2.2468h30.252c3.3031 0 5.9813-2.6779 5.9813-5.9814s-2.6783-5.9817-5.9813-5.9817c-0.77825 0-1.5194 0.15311-2.2013 0.42333-1.0379-3.9377-4.6224-6.8421-8.8865-6.8421-4.9438 0-8.974 3.9038-9.1807 8.7969-0.61524-0.26987-1.2929-0.42192-2.0073-0.42192-2.3185 0-4.2633 1.579-4.8309 3.719-0.7172-0.95674-1.8574-1.5783-3.145-1.5783"/>
   <path d="m233.86 246.88c-1.2411 0.6611-2.0863 1.9685-2.0863 3.4734"/>
  </g>
  <g transform="matrix(.13677 0 0 .11782 137.47 225.1)">
   <path d="m211.91 33.039h52.105v85.703h-52.105z" fill="#fab44e"/>
   <path d="m324 504.51h-172.07c-6.9453 0-9.9375-8.832-4.4062-13.039 13.488-10.242 22.32-23.047 28.086-35.32 10.535-22.375 10.895-42.953 10.895-42.953h102.92s0.36329 20.578 10.898 42.953c5.7656 12.273 14.594 25.078 28.086 35.32 5.5312 4.207 2.5391 13.039-4.4062 13.039z" fill="#93d9bd"/>
   <path d="m296.67 447.46c-6.9726-18.742-7.25-34.266-7.25-34.266h-102.92s-0.27735 15.523-7.25 34.266z" fill="#92e0c0"/>
   <path d="m468.42 123.64v249.49h-460.92v-249.49c0-18.875 15.285-34.16 34.141-34.16h392.64c18.855 0 34.141 15.285 34.141 34.16z" fill="#93d9bd"/>
   <path d="m7.5 348.45h460.92v24.691h-460.92z" fill="#92e0c0"/>
   <path d="m453.32 430.77h-430.71c-8.3438 0-15.109-6.7656-15.109-15.113v-48.746h460.93v48.746c0 8.3477-6.7656 15.113-15.109 15.113z" fill="#fff"/>
   <path d="m248.32 398.84c0 5.7226-4.6367 10.359-10.359 10.359-5.7226 0-10.363-4.6367-10.363-10.359 0-5.7227 4.6406-10.363 10.363-10.363 5.7227 0 10.359 4.6406 10.359 10.363z" fill="#fab44e"/>
   <path d="m292.32 53.852h-108.7c-5.1445 0-9.3125-4.168-9.3125-9.3086v-18.438c0-5.1406 4.168-9.3086 9.3125-9.3086h108.7c5.1406 0 9.3086 4.168 9.3086 9.3086v18.438c0 5.1406-4.168 9.3086-9.3086 9.3086z" fill="#fab44e"/>
   <g fill="none" stroke="#3a4144" stroke-width="5.5587">
    <path d="m465.14 50.852h-61.316c-4.1445 0-7.5 3.3594-7.5 7.5 0 4.1445 3.3555 7.5 7.5 7.5h61.316c4.1445 0 7.5-3.3555 7.5-7.5 0-4.1406-3.3555-7.5-7.5-7.5z"/>
    <path d="m10.789 15h26.445c4.1445 0 7.5-3.3594 7.5-7.5s-3.3555-7.5-7.5-7.5h-26.445c-4.1445 0-7.5 3.3594-7.5 7.5s3.3594 7.5 7.5 7.5z"/>
    <path d="m468.43 215.48c-4.1445 0-7.5 3.3555-7.5 7.5v192.67c0 4.1992-3.4141 7.6133-7.6094 7.6133h-59.047c-4.1406 0-7.5 3.3555-7.5 7.5 0 4.1406 3.3594 7.5 7.5 7.5h59.047c12.465 0 22.609-10.145 22.609-22.613v-192.67c0-4.1445-3.3594-7.5-7.5-7.5z"/>
    <path d="m363.66 423.27h-341.05c-4.1953 0-7.6094-3.4141-7.6094-7.6133v-292.02c0-14.691 11.953-26.648 26.648-26.648h56.004c4.1445 0 7.5-3.3555 7.5-7.5 0-4.1406-3.3555-7.5-7.5-7.5h-56.004c-22.965 0-41.648 18.684-41.648 41.648v292.02c0 12.469 10.145 22.613 22.609 22.613h151.85c-4.6406 15.414-13.715 33.766-31.465 47.234-5.125 3.8906-7.1094 10.348-5.0586 16.445 2.0547 6.1094 7.5469 10.055 13.988 10.055h172.08c6.4414 0 11.934-3.9453 13.988-10.055 2.0508-6.0976 0.0664-12.555-5.0586-16.445-17.75-13.469-26.824-31.824-31.465-47.238h62.188c4.1406 0 7.5-3.3555 7.5-7.5 0-4.1406-3.3555-7.4961-7.5-7.4961zm-40.379 73.734-170.62-4e-3c22.172-17.094 32.543-40.359 37.391-58.73h95.844c4.8476 18.363 15.211 41.617 37.391 58.734z"/>
    <path d="m434.28 81.984h-162.77v-20.633h20.801c9.2695 0 16.809-7.5391 16.809-16.809v-3.3555h156.02c4.1406 0 7.5-3.3594 7.5-7.5s-3.3594-7.5-7.5-7.5h-156.02v-0.07813c0-9.2695-7.5391-16.812-16.812-16.812h-108.7c-9.2695 0-16.812 7.543-16.812 16.812v0.07813h-156.01c-4.1445 0-7.5 3.3594-7.5 7.5s3.3555 7.5 7.5 7.5h156.01v3.3555c0 9.2695 7.543 16.809 16.812 16.809h20.797v20.633h-76.137c-4.1445 0-7.5039 3.3594-7.5039 7.5 0 4.1445 3.3594 7.5 7.5039 7.5h306.01c14.691 0 26.648 11.957 26.648 26.648v68.727c0 4.1445 3.3555 7.5 7.5 7.5 4.1406 0 7.5-3.3555 7.5-7.5v-68.727c0-22.965-18.684-41.648-41.648-41.648zm-252.48-37.441v-18.438c0-0.99609 0.8125-1.8086 1.8125-1.8086h108.7c0.99609 0 1.8086 0.8125 1.8086 1.8086v18.438c0 0.99609-0.8125 1.8086-1.8086 1.8086h-108.7c-1 0-1.8125-0.8125-1.8125-1.8086zm37.609 16.809h37.105v20.633h-37.105z"/>
   </g>
   <g fill="#48c397">
    <path d="m202.13 134.58c-4.1445 0-7.5 3.3594-7.5 7.5v1.5625c0 4.1406 3.3555 7.5 7.5 7.5s7.5-3.3594 7.5-7.5v-1.5625c0-4.1406-3.3555-7.5-7.5-7.5z"/>
    <path d="m245.46 143.64v-1.5625c0-4.1406-3.3594-7.5-7.5-7.5-4.1445 0-7.5 3.3594-7.5 7.5v1.5625c0 4.1406 3.3555 7.5 7.5 7.5 4.1406 0 7.5-3.3594 7.5-7.5z"/>
    <path d="m273.8 151.14c4.1406 0 7.5-3.3594 7.5-7.5v-1.5625c0-4.1406-3.3594-7.5-7.5-7.5-4.1445 0-7.5 3.3594-7.5 7.5v1.5625c0 4.1406 3.3555 7.5 7.5 7.5z"/>
    <path d="m182.77 261.79v-43.754c0-4.1406-3.3594-7.5-7.5-7.5-4.1445 0-7.5 3.3594-7.5 7.5v43.754c0 4.1406 3.3555 7.5 7.5 7.5 4.1406 0 7.5-3.3594 7.5-7.5z"/>
    <path d="m209.57 261.79c0 4.1406 3.3555 7.5 7.5 7.5 4.1445 0 7.5-3.3594 7.5-7.5v-43.754c0-4.1406-3.3555-7.5-7.5-7.5-4.1445 0-7.5 3.3594-7.5 7.5z"/>
    <path d="m258.86 210.54c-4.1445 0-7.5 3.3594-7.5 7.5v43.754c0 4.1406 3.3555 7.5 7.5 7.5 4.1406 0 7.5-3.3594 7.5-7.5v-43.754c0-4.1406-3.3594-7.5-7.5-7.5z"/>
    <path d="m308.16 261.79v-43.754c0-4.1406-3.3594-7.5-7.5-7.5-4.1445 0-7.5 3.3594-7.5 7.5v43.754c0 4.1406 3.3555 7.5 7.5 7.5 4.1406 0 7.5-3.3594 7.5-7.5z"/>
   </g>
  </g>
 </g>
</svg>
