<svg xmlns="http://www.w3.org/2000/svg" width="1000" height="666.667"><defs><clipPath clipPathUnits="userSpaceOnUse" id="a"><path d="M0 500h750V0H0z"/></clipPath><clipPath clipPathUnits="userSpaceOnUse" id="b"><path d="M0 500h750V0H0z"/></clipPath><clipPath clipPathUnits="userSpaceOnUse" id="c"><path d="M0 500h750V0H0z"/></clipPath><clipPath clipPathUnits="userSpaceOnUse" id="d"><path d="M0 500h750V0H0z"/></clipPath><clipPath clipPathUnits="userSpaceOnUse" id="e"><path d="M0 500h750V0H0z"/></clipPath><clipPath clipPathUnits="userSpaceOnUse" id="f"><path d="M0 500h750V0H0z"/></clipPath><clipPath clipPathUnits="userSpaceOnUse" id="g"><path d="M527.658 329.424h11.623v-10.527h-11.623z"/></clipPath><clipPath clipPathUnits="userSpaceOnUse" id="h"><path d="M518.618 331.617h7.117v-11.519h-7.117z"/></clipPath><clipPath clipPathUnits="userSpaceOnUse" id="i"><path d="M501.414 260.072h33.454v-10.356h-33.454z"/></clipPath><clipPath clipPathUnits="userSpaceOnUse" id="j"><path d="M0 500h750V0H0z"/></clipPath><clipPath clipPathUnits="userSpaceOnUse" id="k"><path d="M153.856 24.354h22.519v-2.661h-22.519z"/></clipPath><clipPath clipPathUnits="userSpaceOnUse" id="l"><path d="M241.948 29.765h2.869v-2.864h-2.869z"/></clipPath><clipPath clipPathUnits="userSpaceOnUse" id="m"><path d="M238.995 24.726h36.872v-2.99h-36.872z"/></clipPath><clipPath clipPathUnits="userSpaceOnUse" id="n"><path d="M182.536 277.752h30.602v-18.176h-30.602z"/></clipPath><clipPath clipPathUnits="userSpaceOnUse" id="o"><path d="M215.629 296.17h8.474v-33.003h-8.474z"/></clipPath><clipPath clipPathUnits="userSpaceOnUse" id="p"><path d="M0 500h750V0H0z"/></clipPath><clipPath clipPathUnits="userSpaceOnUse" id="q"><path d="M0 500h750V0H0z"/></clipPath></defs><g clip-path="url(#a)" transform="matrix(1.33333 0 0 -1.33333 0 666.667)"><path d="M107.058 100.246c4.183 2.158 9.107 2.438 13.751 1.67 2.494-.411 5.095-1.157 6.792-3.031 1.698-1.874 2.02-5.172.071-6.782-1.16-.96-2.779-1.104-4.283-1.086-3.635.04-7.668.682-10.573-1.505-1.656-1.248-2.759-3.323-4.74-3.936-1.938-.601-4.125.543-5.153 2.292-1.028 1.749-1.062 3.936-.583 5.907 0 0 .505 4.297 4.718 6.47M97.476 118.744c2.558-3.652 7.528-2.443 9.833-.214 2.305 2.23 3.279 5.46 4.166 8.543 2.026 7.04 4.068 14.427 2.562 21.597-.451 2.143-1.252 4.28-2.758 5.872-1.507 1.59-3.823 2.536-5.941 1.976-2.506-.662-4.064-3.117-5.19-5.452a51.473 51.473 0 01-5.087-22.093c-.012-3.56.408-7.291 2.415-10.23M90.453 113.503c2.777 3.296 3.304 8.103 2.068 12.23-1.235 4.13-4.027 7.642-7.244 10.509a38.983 38.983 0 01-12.973 7.655c-1.875.66-3.854 1.179-5.834.99-1.98-.188-3.973-1.2-4.896-2.961-1.365-2.604-.056-5.762 1.359-8.34a99.022 99.022 0 018.52-12.974c2.555-3.292 5.48-6.54 9.373-8.028 3.892-1.488 7.935-1.312 9.998 1.387" fill="#ececec"/><path d="M97.302 63.642c.048-.002.126.59.231 1.66l.441 4.53c.211 1.906.49 4.174 1.02 6.644.527 2.464 1.353 5.134 2.414 7.842 1.1 2.692 2.44 5.138 4.005 7.095 1.555 1.966 3.363 3.388 5.062 4.21a14.164 14.164 0 004.264 1.327c1.06.11 1.652.192 1.652.24.001.047-.593.054-1.68.025-1.079-.072-2.66-.344-4.447-1.157-1.79-.794-3.71-2.239-5.34-4.245-1.644-1.998-3.033-4.499-4.15-7.238-1.08-2.756-1.894-5.454-2.399-7.97-.503-2.514-.733-4.807-.883-6.729a90.614 90.614 0 01-.225-4.557c-.024-1.077-.01-1.674.035-1.677" fill="#e1e1e1"/><path d="M97.615 67.128c.023.002.038.267.044.77l-.005 2.204a235.76 235.76 0 00.098 8.09c.169 6.832.757 14.185 1.893 24.549 1.076 9.746 2.52 21.089 4.043 28.463.327 1.678.656 3.187.966 4.508.295 1.325.548 2.467.79 3.39l.516 2.14c.11.493.157.755.134.76-.022.008-.114-.24-.267-.721l-.64-2.11c-.283-.915-.574-2.05-.905-3.37a100.016 100.016 0 01-1.067-4.496c-1.508-6.682-3.104-16.021-4.251-26.41-1.14-10.387-1.651-19.844-1.697-26.692-.04-3.425.033-6.196.12-8.108l.134-2.201c.039-.503.07-.767.094-.766" fill="#e1e1e1"/><path d="M97.66 85.368c.048.002.04.819-.016 2.3-.085 1.479-.288 3.616-.704 6.234-.442 2.612-1.059 5.712-2.028 9.08-.419 1.54-1.406 5.233-3.797 10.747-3.15 7.473-7.43 13.58-11.153 17.366-.873 1.004-1.845 1.729-2.623 2.439-.403.34-.759.68-1.12.948l-1.019.7c-1.225.839-1.91 1.282-1.936 1.242-.11-.15 2.744-1.83 6.348-5.664 3.59-3.827 7.75-9.893 10.874-17.303a85.04 85.04 0 003.82-10.647c.995-3.337 1.657-6.406 2.156-8.991a90.79 90.79 0 00.916-6.172c.137-1.467.235-2.281.282-2.28M80.03 53.193l1.828-25.04h32.168l1.827 25.04zM76.923 53.193h42.769v9.869H76.923z" fill="#e1e1e1"/><path d="M76.924 29.111v-2.735h42.062v2.735z" fill="#ececec"/><path d="M80.903 21.56l-1.97 4.815h38.52l-2.298-4.815z" fill="#e1e1e1"/><path d="M115.257 45.01c.006-.007-.045-.084-.15-.23l-.48-.638c-.458-.584-1.086-1.388-1.875-2.398l-.083-.107-.08.112-4.605 6.367h.266l-4.534-6.418-.141-.201-.16.189-5.376 6.396.31.004-.296-.372-4.805-6.025-.16-.201-.148.209c-1.632 2.309-3.157 4.465-4.535 6.417l.264-.013-5.585-6.363-.1-.114-.075.127a3601.16 3601.16 0 01-1.75 2.939l-.447.782c-.1.179-.146.273-.138.279.009.005.073-.08.187-.248l.497-.753 1.836-2.885-.175.015 5.496 6.44.138.163.125-.175 4.576-6.388-.308.009 4.795 6.034c.1.128.203.255.296.372l.153.193.157-.19 5.36-6.407-.3-.012 4.578 6.386.134.186.13-.186 4.507-6.437-.164.005 1.95 2.337.522.605c.12.133.186.2.193.195M116.301 53.358c0-.11-8.06-.2-18-.2-9.944 0-18.003.09-18.003.2 0 .11 8.06.2 18.003.2 9.94 0 18-.09 18-.2M117.926 26.105c0-.11-8.76-.2-19.563-.2-10.807 0-19.565.09-19.565.2 0 .111 8.758.2 19.565.2 10.803 0 19.563-.089 19.563-.2" fill="#f5f5f5"/><path d="M245.04 320.022H31.911v80.769H245.04z" fill="#fafafa"/><path d="M227.063 381.686c0-.144-36.22-.26-80.889-.26-44.685 0-80.897.116-80.897.26 0 .144 36.212.26 80.897.26 44.67 0 80.89-.116 80.89-.26M227.063 372.129c0-.144-36.22-.26-80.889-.26-44.685 0-80.897.116-80.897.26 0 .144 36.212.26 80.897.26 44.67 0 80.89-.116 80.89-.26M227.063 362.572c0-.144-36.22-.261-80.889-.261-44.685 0-80.897.117-80.897.261 0 .144 36.212.26 80.897.26 44.67 0 80.89-.116 80.89-.26M227.063 353.015c0-.144-36.22-.26-80.889-.26-44.685 0-80.897.116-80.897.26 0 .144 36.212.26 80.897.26 44.67 0 80.89-.116 80.89-.26M227.063 343.458c0-.144-36.22-.26-80.889-.26-44.685 0-80.897.116-80.897.26 0 .144 36.212.26 80.897.26 44.67 0 80.89-.116 80.89-.26" fill="#ececec"/><path d="M212.975 354.589s-.11-.147-.353-.421c-.27-.237-.686-.608-1.359-.863-1.302-.512-3.677-.54-5.905 1.085-1.078.837-2.01 2.057-2.779 3.505-.776 1.448-1.39 3.12-2.118 4.87-.738 1.733-1.649 3.59-3.166 5.086-.76.735-1.688 1.34-2.748 1.676a7.259 7.259 0 01-3.383.187c-2.326-.39-4.56-1.672-6.455-3.421-1.927-1.74-3.62-3.882-5.694-5.824-2.042-1.937-4.71-3.604-7.814-3.841-1.538-.098-3.153.29-4.474 1.192-1.323.904-2.32 2.207-3.116 3.592-1.609 2.777-2.423 6.006-4.514 8.54-1.014 1.252-2.33 2.35-3.918 2.71-1.58.386-3.295-.071-4.6-1.104-1.324-1.02-2.324-2.463-3.024-4.025-.702-1.566-1.057-3.3-1.432-5.032-.37-1.737-.732-3.517-1.419-5.224a12.464 12.464 0 00-1.307-2.442c-.564-.738-1.175-1.454-1.91-2.034-1.43-1.21-3.147-2.028-4.935-2.464a11.737 11.737 0 00-5.445-.08c-1.8.365-3.399 1.32-4.807 2.374-1.42 1.057-2.707 2.23-4.055 3.284-1.35 1.029-2.772 2.002-4.372 2.38-1.583.429-3.278.169-4.68-.607-1.409-.781-2.559-1.962-3.492-3.25-.934-1.293-1.643-2.731-2.36-4.14-.715-1.41-1.432-2.82-2.337-4.1-.894-1.287-2.034-2.4-3.357-3.184-1.313-.785-2.866-1.236-4.38-1.026-1.518.196-2.846 1.055-3.804 2.123-.969 1.076-1.64 2.347-2.098 3.647-.452 1.304-.714 2.626-.957 3.91-.468 2.564-.925 5.059-2.25 7.043-1.235 1.984-3.104 3.552-5.2 3.867a5.785 5.785 0 01-2.995-.372c-.92-.371-1.717-.948-2.405-1.585-2.73-2.615-4.045-5.775-6.07-7.604-1.919-1.9-3.99-2.776-5.43-2.73-.714.009-1.247.15-1.583.28-.335.144-.5.228-.5.228.014.066.673-.411 2.081-.402 1.406-.012 3.417.873 5.29 2.769 1.973 1.815 3.241 4.969 6.013 7.672.7.658 1.521 1.264 2.486 1.66.96.397 2.06.567 3.162.412 2.23-.325 4.18-1.962 5.462-3.998a12.468 12.468 0 001.51-3.396c.346-1.22.577-2.486.824-3.768.247-1.28.512-2.583.956-3.847.446-1.256 1.101-2.478 2.024-3.495.914-1.012 2.148-1.796 3.543-1.972 1.391-.19 2.84.227 4.087.977 1.258.752 2.346 1.815 3.208 3.062.875 1.245 1.581 2.634 2.291 4.046.717 1.41 1.427 2.866 2.392 4.209.962 1.33 2.15 2.565 3.65 3.4 1.492.833 3.344 1.12 5.04.66 1.718-.407 3.19-1.422 4.564-2.466 1.37-1.068 2.656-2.24 4.05-3.274 1.388-1.035 2.901-1.936 4.614-2.282a11.236 11.236 0 015.207.079c1.713.419 3.36 1.206 4.725 2.36.702.554 1.281 1.236 1.82 1.936.492.733.926 1.507 1.248 2.335.664 1.646 1.023 3.398 1.394 5.137.38 1.736.734 3.494 1.47 5.135.73 1.622 1.767 3.129 3.183 4.219 1.391 1.106 3.293 1.62 5.023 1.19 1.745-.4 3.141-1.587 4.191-2.888 2.167-2.65 2.98-5.921 4.544-8.614.773-1.353 1.727-2.594 2.963-3.442 1.236-.847 2.73-1.21 4.183-1.124 2.942.216 5.542 1.805 7.548 3.7 2.047 1.904 3.754 4.045 5.72 5.806 1.94 1.775 4.242 3.093 6.663 3.487a7.626 7.626 0 003.55-.217c1.116-.36 2.088-1.004 2.872-1.773 1.564-1.562 2.47-3.458 3.204-5.21.72-1.766 1.316-3.432 2.068-4.868.744-1.433 1.65-2.636 2.683-3.46 2.144-1.602 4.466-1.617 5.745-1.146 1.322.507 1.715 1.237 1.75 1.185" fill="#e1e1e1"/><path d="M223.21 356.819s-.187-.022-.561-.039c-.186.007-.414.056-.688.094-.258.094-.581.154-.902.325-1.346.579-3.021 1.985-4.817 4.059-.45.52-.91 1.082-1.378 1.683-.48.594-.91 1.275-1.495 1.844a7.933 7.933 0 01-4.762 2.169 6.704 6.704 0 01-2.905-.365c-.954-.355-1.82-.986-2.591-1.748-1.557-1.534-2.728-3.576-4.26-5.51-.767-.963-1.64-1.912-2.727-2.65a8.417 8.417 0 00-3.73-1.396c-2.735-.32-5.55.431-8.212 1.537-2.684 1.115-5.25 2.651-8.138 3.635-1.433.505-2.945.849-4.492.901-1.543.025-3.111-.28-4.534-.991-2.891-1.384-5.15-3.908-7.871-5.969a16.062 16.062 0 00-4.556-2.497c-1.661-.581-3.435-.861-5.22-.904-3.577-.064-7.224.935-10.365 2.872-3.146 1.929-5.82 4.666-7.863 7.832-2.11 3.157-3.265 6.743-4.787 10.013-.77 1.632-1.643 3.214-2.782 4.555-1.146 1.333-2.535 2.455-4.101 3.167-1.555.721-3.324.959-4.942.522-1.624-.416-3.026-1.446-4.104-2.698-1.088-1.255-1.89-2.732-2.457-4.261-.567-1.538-.935-3.132-1.27-4.713-.337-1.581-.64-3.159-1.073-4.692a20.567 20.567 0 00-1.761-4.371 19.806 19.806 0 00-5.938-6.703 17.426 17.426 0 00-7.747-3.135c-2.695-.348-5.337.036-7.66.887-4.69 1.686-7.998 5.333-9.234 9.06-.64 1.859-.961 3.65-1.422 5.244-.457 1.588-1.007 3.033-1.842 4.097-1.697 2.139-3.943 2.878-5.342 2.739-1.445-.136-2.002-.807-2.026-.736.002-.045.536.664 2.017.841 1.435.174 3.745-.544 5.51-2.719.877-1.094 1.445-2.553 1.922-4.153.478-1.605.815-3.392 1.457-5.216 1.237-3.639 4.488-7.182 9.087-8.811 2.276-.821 4.858-1.184 7.479-.835a17.048 17.048 0 017.55 3.088 19.404 19.404 0 015.787 6.571c1.499 2.659 2.126 5.77 2.767 8.944.333 1.587.7 3.202 1.28 4.783.583 1.577 1.405 3.103 2.539 4.417 1.123 1.308 2.607 2.409 4.354 2.86 1.74.473 3.642.214 5.279-.544 1.65-.75 3.092-1.917 4.282-3.298 1.189-1.399 2.077-3.014 2.86-4.669 1.546-3.323 2.685-6.857 4.755-9.95 2.007-3.11 4.627-5.791 7.696-7.674 3.063-1.89 6.606-2.861 10.086-2.804 1.735.041 3.456.311 5.065.871a15.581 15.581 0 014.42 2.417c2.677 2.014 4.954 4.564 7.965 6.005 1.482.738 3.143 1.06 4.752 1.027 1.613-.057 3.17-.42 4.63-.937 2.935-1.01 5.519-2.568 8.154-3.67 2.624-1.101 5.375-1.835 7.996-1.537a8.042 8.042 0 013.565 1.317c1.04.7 1.895 1.616 2.655 2.561 1.519 1.896 2.706 3.946 4.316 5.516.798.78 1.706 1.437 2.713 1.804a6.995 6.995 0 003.04.363 8.179 8.179 0 004.91-2.282c.609-.604 1.03-1.291 1.5-1.884.46-.602.912-1.166 1.353-1.688 1.762-2.083 3.399-3.497 4.707-4.095 1.3-.663 2.122-.408 2.107-.476M54.17 381.21c0-.143-.958-.26-2.139-.26-1.182 0-2.14.117-2.14.26 0 .145.958.262 2.14.262 1.181 0 2.14-.117 2.14-.261M54.17 372.129c0-.144-.958-.26-2.139-.26-1.182 0-2.14.116-2.14.26 0 .144.958.26 2.14.26 1.181 0 2.14-.116 2.14-.26M54.17 363.047c0-.144-.958-.26-2.139-.26-1.182 0-2.14.116-2.14.26 0 .144.958.26 2.14.26 1.181 0 2.14-.116 2.14-.26M54.17 353.964c0-.144-.958-.26-2.139-.26-1.182 0-2.14.116-2.14.26 0 .144.958.26 2.14.26 1.181 0 2.14-.116 2.14-.26M54.17 344.882c0-.144-.958-.26-2.139-.26-1.182 0-2.14.116-2.14.26 0 .144.958.26 2.14.26 1.181 0 2.14-.116 2.14-.26M73.835 333.21c0-.145-1.916-.262-4.279-.262s-4.279.117-4.279.261c0 .144 1.916.26 4.28.26 2.362 0 4.278-.116 4.278-.26M111.558 333.21c0-.145-1.916-.262-4.278-.262-2.364 0-4.28.117-4.28.261 0 .144 1.916.26 4.28.26 2.362 0 4.278-.116 4.278-.26M149.28 333.21c0-.145-1.916-.262-4.278-.262-2.364 0-4.279.117-4.279.261 0 .144 1.915.26 4.28.26 2.361 0 4.277-.116 4.277-.26M187.004 333.21c0-.145-1.916-.262-4.28-.262-2.362 0-4.278.117-4.278.261 0 .144 1.916.26 4.279.26s4.279-.116 4.279-.26M224.726 333.21c0-.145-1.916-.262-4.278-.262-2.364 0-4.28.117-4.28.261 0 .144 1.916.26 4.28.26 2.362 0 4.278-.116 4.278-.26" fill="#e1e1e1"/><path d="M516.028 85.308H342.523v107.386h173.505z" fill="#fafafa"/><path d="M474.138 115.052c-12.03 4.561-25.869-8.055-37.663-2.91-6.862 2.994-9.975 10.757-13.338 17.446-3.362 6.69-9.155 13.747-16.603 12.97-7.51-.782-13.584-9.48-20.84-7.383-4.574 1.32-6.857 6.393-8.003 11.013-1.147 4.62-1.94 9.725-5.428 12.966-3.488 3.24-10.752 2.373-11.3-2.356v-56.93h135.683s-18.344 13.605-22.508 15.184" fill="#ececec"/><path d="M500.27 99.87c0-.122-32.889-.222-73.448-.222-40.574 0-73.454.1-73.454.222 0 .12 32.88.22 73.454.22 40.56 0 73.447-.1 73.447-.22M500.27 124.735c0-.122-32.889-.222-73.448-.222-40.574 0-73.454.1-73.454.222 0 .121 32.88.22 73.454.22 40.56 0 73.447-.099 73.447-.22M500.27 149.6c0-.122-32.889-.22-73.448-.22-40.574 0-73.454.098-73.454.22 0 .121 32.88.221 73.454.221 40.56 0 73.447-.1 73.447-.22M500.27 173.231c0-.122-32.889-.22-73.448-.22-40.574 0-73.454.098-73.454.22s32.88.221 73.454.221c40.56 0 73.447-.099 73.447-.22" fill="#e1e1e1"/><path d="M656.355 333.454H527.211v115.54h129.144z" fill="#fafafa"/><path d="M656.356 333.454s-.022.741-.033 2.145l-.033 6.19-.077 23.454-.15 83.751.292-.293-129.132-.052h-.012l.346.345-.042-115.54-.304.304 93.407-.154 26.344-.079 6.975-.036a663.77 663.77 0 011.8-.017c.404-.006.62-.018.62-.018s-.193-.01-.587-.017l-1.766-.017-6.915-.036-26.276-.08-93.602-.154h-.303v.304c-.012 33.95-.027 73.505-.04 115.54v.345H527.222l129.132-.052h.294v-.293c-.064-34.794-.115-63.705-.15-83.937l-.077-23.387-.034-6.135a105.511 105.511 0 00-.032-2.08" fill="#e1e1e1"/><path d="M576.73 428.465c0-.191-6.798-.345-15.18-.345-8.386 0-15.183.154-15.183.345 0 .19 6.797.345 15.182.345 8.383 0 15.181-.155 15.181-.345M631.45 419.79c0-.191-18.674-.345-41.705-.345-23.04 0-41.71.154-41.71.345 0 .19 18.67.345 41.71.345 23.03 0 41.706-.155 41.706-.345M552.031 399.654h-5.441v5.441h5.441zM565.423 399.654h-5.441v5.441h5.441zM579.063 399.901h-5.441v5.44h5.441zM592.209 399.654h-5.44v5.441h5.44zM605.601 399.654h-5.44v5.441h5.44zM618.994 399.654h-5.44v5.441h5.44z" fill="#e1e1e1"/><path d="M632.386 399.654h-5.44v5.441h5.44zM552.031 388.087h-5.441v5.441h5.441z" fill="#ececec"/><path d="M565.423 388.087h-5.441v5.441h5.441z" fill="#e1e1e1"/><path d="M578.816 388.087h-5.441v5.441h5.441z" fill="#ececec"/><path d="M592.209 388.087h-5.44v5.441h5.44zM605.601 388.087h-5.44v5.441h5.44zM619.241 388.334h-5.44v5.441h5.44zM632.386 388.087h-5.44v5.441h5.44zM552.031 376.52h-5.441v5.441h5.441zM565.671 376.767h-5.441v5.441h5.441zM578.816 376.52h-5.441v5.441h5.441z" fill="#e1e1e1"/><path d="M592.209 376.52h-5.44v5.441h5.44z" fill="#ececec"/><path d="M605.601 376.52h-5.44v5.441h5.44zM618.994 376.52h-5.44v5.441h5.44zM632.386 376.52h-5.44v5.441h5.44zM552.031 364.953h-5.441v5.441h5.441zM565.423 364.953h-5.441v5.441h5.441zM578.816 364.953h-5.441v5.441h5.441zM592.456 365.2h-5.44v5.441h5.44zM605.601 364.953h-5.44v5.441h5.44z" fill="#e1e1e1"/><path d="M618.994 364.953h-5.44v5.441h5.44z" fill="#ececec"/><path d="M632.386 364.953h-5.44v5.441h5.44zM552.031 353.386h-5.441v5.441h5.441z" fill="#e1e1e1"/><path d="M565.423 353.386h-5.441v5.441h5.441z" fill="#ececec"/><path d="M578.816 353.386h-5.441v5.441h5.441zM592.209 353.386h-5.44v5.441h5.44zM605.601 353.386h-5.44v5.441h5.44zM619.241 353.633h-5.44v5.441h5.44zM632.386 353.386h-5.44v5.441h5.44z" fill="#e1e1e1"/></g><g clip-path="url(#b)" transform="matrix(1.33333 0 0 -1.33333 0 666.667)"><path d="M623.786 289.898c-26.621 28.588-69.122 41.326-107.078 32.09-23.932-5.822-45.125-19.386-67.62-29.417-22.495-10.03-48.604-16.517-71.527-7.506-22.513 8.85-37.161 30.8-46.63 53.061-9.47 22.26-15.325 46.186-27.702 66.971-21.3 35.77-62.13 59.04-103.761 59.137a142.11 142.11 0 01-2.253-.014c-75.811-1.052-137.44-60.996-142.695-136.633-2.511-36.149-2.755-87.452 18.243-121.377 0 0 66.352-129.078 234.517-154.985 151.185-23.292 244.408 36.068 244.408 36.068l-3.481-.81c36.994 9.628 73.03 49.923 93.16 92.458 16.71 35.31 9.039 82.37-17.581 110.957" fill="#ececec"/></g><g clip-path="url(#c)" transform="matrix(1.33333 0 0 -1.33333 0 666.667)"><path d="M726.909 21.56c0-.144-153.11-.26-341.935-.26-188.891 0-341.967.116-341.967.26 0 .144 153.076.261 341.967.261 188.826 0 341.935-.117 341.935-.26" fill="#1a2e35"/></g><g clip-path="url(#d)" transform="matrix(1.33333 0 0 -1.33333 0 666.667)"><path d="M476.173 438.54s15.29-.213 8.748-30.485c-6.543-30.272-5.7-35.998-5.7-47.974 0-14.032 11.307-19.057 11.307-19.057h-20.735l-15.252 70.662v26.855z" fill="#e1e1e1"/><path d="M480.668 200.206H271.282l1.865 204.853 197.218 10.308z" fill="#e1e1e1"/><path d="M473.48 205.495H264.094l1.865 204.853 203.306 3.969z" fill="#ececec"/><path d="M469.14 211.208H260.175V416.06l209.09.488z" fill="#fafafa"/><path d="M469.14 211.208c-.002 1.913-.04 82.175-.1 205.34l.226-.223-208.76-.524-.329-.001.26.26-.035-204.852-.225.226 208.962-.226-208.962-.227h-.226v.227l-.035 204.853v.259h.26c.107 0 .217 0 .328.002l208.761.452h.226v-.225c-.21-123.166-.349-203.43-.352-205.341" fill="#1a2e35"/><path d="M469.265 417.101c-10.793 12.57 1.731 21.873 5.955 22.07l-198.97.112c-10.402.006-18.312-9.37-16.527-19.619.274-1.573.808-3.115.808-3.115" fill="#f5f5f5"/><path d="M474.544 341.024c0 .008.092.015.272.022l.803.022c.737.01 1.78.024 3.125.04 2.762.019 6.75.043 11.785.075l-.047-.31c-1.651.517-3.346 1.4-4.807 2.752-1.472 1.339-2.675 3.113-3.588 5.113-.924 2-1.6 4.214-2.145 6.543a76.536 76.536 0 00-.734 3.583c-.108.61-.234 1.222-.288 1.864a15.22 15.22 0 00-.145 1.922c-.09 2.583.056 5.24.268 7.96.2 2.725.504 5.512.834 8.36a394.275 394.275 0 002.548 17.697c.413 2.597.94 5.16 1.369 7.67.41 2.524.747 5.024 1.064 7.483.296 2.46.586 4.879.872 7.247.127 1.188.29 2.357.317 3.505a21.21 21.21 0 01-.19 3.41 20.531 20.531 0 01-1.886 6.28c-.942 1.904-2.2 3.626-3.821 4.766-1.626 1.142-3.62 1.494-5.438 1.216-1.824-.28-3.534-.936-4.844-2.012-1.326-1.058-2.3-2.393-3.023-3.743a16.09 16.09 0 01-1.47-4.073c-.635-2.663.046-5.043.797-6.775.775-1.754 1.63-2.993 2.202-3.827l.672-.937c.152-.211.227-.322.22-.328-.007-.005-.095.095-.262.295-.168.199-.407.504-.715.909-.6.816-1.488 2.042-2.303 3.806-.788 1.736-1.52 4.173-.895 6.917a16.316 16.316 0 001.46 4.167c.729 1.387 1.718 2.768 3.087 3.876 1.359 1.13 3.133 1.826 5.017 2.123 1.889.303 4.02-.057 5.74-1.258 1.714-1.196 3.01-2.97 3.986-4.917a20.862 20.862 0 001.95-6.418c.159-1.141.234-2.31.205-3.49-.025-1.188-.19-2.363-.312-3.547a467.578 467.578 0 00-.86-7.257c-.314-2.462-.648-4.966-1.06-7.502-.431-2.54-.951-5.072-1.365-7.672a408.046 408.046 0 01-2.56-17.671c-.333-2.842-.642-5.623-.85-8.337-.216-2.711-.37-5.36-.288-7.905-.002-.641.056-1.266.133-1.882.049-.617.173-1.232.278-1.842.217-1.217.45-2.407.715-3.565.53-2.313 1.188-4.503 2.084-6.473.886-1.97 2.049-3.706 3.47-5.016 1.41-1.323 3.047-2.194 4.655-2.714l.978-.317-1.025.007c-5.034.03-9.023.056-11.785.073l-3.125.042c-.335.008-.6.016-.803.02-.18.008-.272.016-.272.023M345.668 432.907c.08-.057-.515-.852-1.107-2.305-.305-.722-.561-1.623-.751-2.637a14.94 14.94 0 01-.16-3.346c.102-1.189.353-2.3.669-3.283.342-.974.733-1.825 1.144-2.492.807-1.346 1.517-2.04 1.446-2.109-.026-.026-.216.131-.543.441-.336.301-.76.805-1.214 1.471-.464.663-.906 1.528-1.286 2.53a13.892 13.892 0 00-.734 3.402c-.085 1.237.01 2.42.206 3.474.223 1.048.528 1.97.885 2.696.349.728.69 1.29.976 1.64.276.355.44.54.469.518" fill="#1a2e35"/><path d="M340.699 439.99c.08-.082-1.275-1.036-2.643-3.228-1.364-2.137-2.598-5.718-1.89-9.592.736-3.87 3.178-6.766 5.22-8.268 2.067-1.552 3.676-1.953 3.63-2.06-.008-.026-.407.054-1.1.302-.691.245-1.662.706-2.746 1.46-2.153 1.465-4.747 4.429-5.515 8.47-.74 4.046.61 7.746 2.09 9.888.74 1.094 1.48 1.874 2.037 2.352.556.48.9.699.917.677M453.16 280.08s-.221-.017-.653-.026l-1.921-.026c-1.707-.011-4.192-.027-7.386-.05-6.431-.018-15.707-.046-27.162-.081l-89.612-.077-38.646.013h-.248v.248l.093 63.26.072 18.279.04 4.877.022 1.258c.006.283.02.427.02.427s.015-.144.023-.427c.005-.3.01-.716.02-1.258.01-1.127.024-2.762.04-4.877l.073-18.28.093-63.26-.248.249 38.646.012 89.612-.076 27.162-.083 7.386-.05c.83-.01 1.47-.018 1.92-.025.433-.008.655-.026.655-.026" fill="#1a2e35"/><path d="M317.927 285.14h-16.706v16.706h16.706zM342.418 285.14h-16.706v28.649h16.706zM367.007 285.14h-16.706v42.216h16.706zM390.844 285.14h-16.706v57.317h16.706zM415.237 285.14h-16.706v76.654h16.706zM439.446 285.933H422.74v90.608h16.706z" fill="#007aff"/><path d="M301.22 318.974c-.003.006.069.062.214.164l.65.45 2.546 1.702 9.573 6.311 33.152 21.666.384.251v-.459l.006-7.478-.397.212 13.064 8.761 46.1 30.8c5.896 3.91 10.674 7.077 14.004 9.284l3.822 2.502 1.002.64c.226.142.345.211.35.203.005-.007-.103-.09-.321-.247l-.973-.683-3.767-2.583-13.911-9.422-46.016-30.927c-4.477-2.998-8.848-5.925-13.07-8.75l-.397-.268v.478l.007 7.478.384-.209-33.253-21.51-9.652-6.19-2.59-1.635-.673-.413c-.153-.09-.233-.134-.237-.128" fill="#1a2e35"/><path d="M425.69 386.913c-.068 0-.13.781-.177 2.06a162.475 162.475 0 00-.083 5.05l.26-.26h-.639c-2.139 0-4.076.027-5.478.075-1.403.047-2.27.112-2.27.184s.867.137 2.27.184c1.402.047 3.34.076 5.478.076h.9v-.26c-.007-1.993-.037-3.77-.084-5.049-.046-1.279-.109-2.06-.177-2.06M337.412 266.608c0-.144-5.164-.261-11.532-.261-6.37 0-11.532.117-11.532.26 0 .145 5.162.26 11.532.26 6.368 0 11.532-.115 11.532-.26M325.568 258.712c-.144 0-.261 1.209-.261 2.7 0 1.493.117 2.702.261 2.702.144 0 .26-1.21.26-2.701 0-1.492-.116-2.701-.26-2.701M353.827 256.01c0-.144-13.863-.26-30.959-.26-17.103 0-30.962.116-30.962.26 0 .144 13.86.26 30.962.26 17.096 0 30.96-.116 30.96-.26M292.321 248.322c-.144 0-.26 1.675-.26 3.74 0 2.066.116 3.74.26 3.74.144 0 .261-1.674.261-3.74 0-2.065-.117-3.74-.26-3.74M314.347 249.153c-.144 0-.26 1.442-.26 3.221 0 1.779.116 3.22.26 3.22.144 0 .26-1.441.26-3.22 0-1.779-.116-3.221-.26-3.221" fill="#1a2e35"/><path d="M336.996 248.738c-.144 0-.26 1.581-.26 3.532s.116 3.532.26 3.532c.144 0 .26-1.581.26-3.532s-.116-3.532-.26-3.532M354.243 248.738c-.144 0-.261 1.628-.261 3.636 0 2.009.117 3.636.26 3.636.145 0 .26-1.627.26-3.636 0-2.008-.115-3.636-.26-3.636M300.01 246.244c0-.144-3.35-.26-7.48-.26-4.132 0-7.481.116-7.481.26 0 .144 3.349.26 7.48.26 4.13 0 7.48-.116 7.48-.26M319.127 246.244c0-.144-2.56-.26-5.714-.26-3.157 0-5.715.116-5.715.26 0 .144 2.558.26 5.715.26 3.155 0 5.714-.116 5.714-.26M343.438 245.62c0-.143-2.745-.26-6.13-.26-3.386 0-6.13.117-6.13.26 0 .145 2.744.262 6.13.262 3.385 0 6.13-.117 6.13-.261M363.177 246.66c0-.145-2.93-.261-6.545-.261-3.615 0-6.545.116-6.545.26 0 .145 2.93.26 6.545.26 3.614 0 6.545-.115 6.545-.26M292.53 238.971c-.145 0-.26.977-.26 2.182s.115 2.181.26 2.181c.143 0 .26-.976.26-2.18 0-1.206-.117-2.183-.26-2.183" fill="#1a2e35"/><path d="M306.752 238.971c0-.144-6.047-.26-13.506-.26-7.46 0-13.507.116-13.507.26 0 .144 6.047.261 13.507.261 7.459 0 13.506-.117 13.506-.26" fill="#1a2e35"/><path d="M306.752 232.738c-.144 0-.26 1.396-.26 3.116 0 1.722.116 3.117.26 3.117.144 0 .26-1.395.26-3.117 0-1.72-.116-3.116-.26-3.116M279.739 232.322c-.144 0-.26 1.489-.26 3.324 0 1.837.116 3.325.26 3.325.144 0 .26-1.488.26-3.325 0-1.835-.116-3.324-.26-3.324M337.55 238.971c-.145 0-.26.977-.26 2.182s.115 2.181.26 2.181c.143 0 .26-.976.26-2.18 0-1.206-.117-2.183-.26-2.183" fill="#1a2e35"/><path d="M370.386 238.971c0-.144-10.214-.26-22.812-.26-12.602 0-22.814.116-22.814.26 0 .144 10.212.261 22.814.261 12.598 0 22.812-.117 22.812-.26" fill="#1a2e35"/><path d="M351.772 232.738c-.144 0-.26 1.396-.26 3.116 0 1.722.116 3.117.26 3.117.144 0 .26-1.395.26-3.117 0-1.72-.116-3.116-.26-3.116M371.318 232.738c-.144 0-.26 1.396-.26 3.116 0 1.722.116 3.117.26 3.117.144 0 .26-1.395.26-3.117 0-1.72-.116-3.116-.26-3.116M324.76 232.322c-.145 0-.262 1.489-.262 3.324 0 1.837.117 3.325.261 3.325.144 0 .26-1.488.26-3.325 0-1.835-.116-3.324-.26-3.324M285.063 228.49c0-.143-2.384-.26-5.324-.26s-5.324.117-5.324.26c0 .145 2.383.262 5.324.262 2.94 0 5.324-.117 5.324-.261M311.516 229.254c0-.144-2.576-.261-5.753-.261-3.178 0-5.753.117-5.753.26 0 .145 2.575.262 5.753.262 3.177 0 5.753-.117 5.753-.261M330.634 229.254c0-.144-2.268-.261-5.066-.261s-5.066.117-5.066.26c0 .145 2.268.262 5.066.262s5.066-.117 5.066-.261M356.4 229.254c0-.144-2.46-.261-5.495-.261s-5.496.117-5.496.26c0 .145 2.46.262 5.496.262 3.035 0 5.496-.117 5.496-.261M377.01 229.94c0-.144-2.5-.26-5.583-.26s-5.582.116-5.582.26c0 .145 2.5.261 5.582.261s5.582-.116 5.582-.26M382.516 225.938h70.444v43.581h-70.444zm70.495-.051h-70.546v43.682h70.546z" fill="#1a2e35"/><path d="M435.966 237.998c-4.888 1.854-10.51-3.272-15.303-1.182-2.788 1.216-4.052 4.37-5.419 7.088-1.366 2.718-3.719 5.586-6.745 5.27-3.053-.32-5.519-3.852-8.468-3-1.858.537-2.786 2.597-3.252 4.474-.465 1.877-.788 3.952-2.205 5.268-1.417 1.317-4.368.965-4.59-.957v-23.13h55.127s-7.454 5.527-9.145 6.169" fill="#ff4f5b"/><path d="M446.584 231.83c0-.05-13.362-.09-29.842-.09-16.484 0-29.844.04-29.844.09 0 .049 13.36.089 29.844.089 16.48 0 29.842-.04 29.842-.09" fill="#e1e1e1"/><path d="M446.584 241.932c0-.05-13.362-.09-29.842-.09-16.484 0-29.844.04-29.844.09 0 .05 13.36.09 29.844.09 16.48 0 29.842-.04 29.842-.09M446.584 252.035c0-.05-13.362-.09-29.842-.09-16.484 0-29.844.04-29.844.09 0 .049 13.36.089 29.844.089 16.48 0 29.842-.04 29.842-.09M446.584 261.636c0-.05-13.362-.09-29.842-.09-16.484 0-29.844.04-29.844.09 0 .05 13.36.09 29.844.09 16.48 0 29.842-.04 29.842-.09M287.788 401.714c0 .003.033.005.097.006h.286c.252.007.623-.025 1.098-.099a6.023 6.023 0 001.66-.568c.612-.32 1.238-.828 1.773-1.52.514-.705.976-1.57 1.165-2.599.177-1.027.02-2.168-.41-3.255a9.559 9.559 0 00-.808-1.603c-.32-.52-.641-1.044-.913-1.615-.546-1.134-.992-2.388-1.22-3.709l-.015-.088-.086.003-2.612.063-2.741.067-.097.002v.1c.01 1.332-.54 2.566-1.123 3.665-.296.554-.623 1.076-.928 1.603-.297.517-.636 1.014-.867 1.552a5.105 5.105 0 00-.284 3.238c.229.998.6 1.896 1.126 2.593a5.1 5.1 0 001.783 1.48 6.485 6.485 0 001.649.563 6.88 6.88 0 001.087.133c.125.002.22.003.284-.001a.31.31 0 00.096-.01c0-.003-.032-.005-.096-.01-.074-.003-.167-.01-.282-.016a8.148 8.148 0 01-1.074-.166 6.581 6.581 0 01-1.616-.584 5.021 5.021 0 01-1.725-1.467c-.504-.68-.862-1.57-1.08-2.547a4.957 4.957 0 01.293-3.134c.227-.52.559-1.004.866-1.532.302-.52.634-1.045.935-1.604.59-1.11 1.16-2.362 1.154-3.76l-.096.1 2.74-.065 2.613-.065-.1-.085c.235 1.358.688 2.615 1.245 3.765.276.576.608 1.114.928 1.628.318.513.592 1.037.8 1.57.426 1.064.583 2.17.419 3.166-.174.992-.622 1.855-1.116 2.544a5.452 5.452 0 01-1.716 1.509 6.097 6.097 0 01-1.624.589 7.337 7.337 0 01-1.087.132l-.284.019a.441.441 0 00-.097.013" fill="#1a2e35"/><path d="M288.552 386.973s-.006.028-.013.083l-.03.248-.106.949c-.085.825-.214 2.02-.273 3.505-.013.37-.023.759-.021 1.165.003.405.002.827.043 1.264.043.435.132.89.352 1.31.219.414.572.796 1.049.97a1.351 1.351 0 001.428-.332c.18-.193.297-.462.279-.736a1.286 1.286 0 00-.301-.747 1.719 1.719 0 00-.657-.488 3.295 3.295 0 00-.795-.23 9.512 9.512 0 00-1.677-.127c-.57.01-1.13.044-1.676.15a3.18 3.18 0 00-.787.262c-.247.123-.47.293-.647.5a1.53 1.53 0 00-.355.723c-.051.267 0 .546.125.78.124.232.326.429.575.515.25.09.528.05.752-.065.225-.116.409-.295.542-.5.132-.208.208-.44.254-.67.09-.464.068-.92.079-1.354l.029-2.427.036-3.514.005-.955-.001-.25c0-.054-.002-.083-.002-.083s-.004.029-.006.084l-.008.249-.021.955-.061 3.513-.04 2.427c-.011.435.008.889-.081 1.34a1.891 1.891 0 01-.245.645 1.353 1.353 0 01-.515.472.876.876 0 01-.691.06.991.991 0 01-.531-.48 1.118 1.118 0 01-.117-.728c.045-.251.169-.486.338-.684.34-.405.857-.63 1.389-.735.537-.104 1.098-.137 1.66-.147a9.416 9.416 0 011.662.125c.269.048.534.114.777.223.244.108.465.26.628.465.164.2.272.447.284.699a.926.926 0 01-.257.679 1.275 1.275 0 01-1.346.314c-.453-.164-.797-.531-1.01-.931-.215-.407-.305-.854-.348-1.283-.042-.432-.043-.854-.048-1.258a31.13 31.13 0 01.016-1.163c.052-1.482.17-2.678.246-3.504.04-.41.07-.73.09-.951l.023-.248c.005-.055.005-.084.005-.084" fill="#1a2e35"/><path d="M285.065 386.974c.013-.013.022-.33.033-.882l.026-2.295-.019.056 1.697-2.123-.09.043 2.062.034-.088-.041 1.075 1.21.54.605-.03-.08.057 3.393.108-.11-3.846.112-1.11.046c-.262.013-.406.023-.415.032-.008.009.12.015.368.02l1.087.013 3.92-.004h.11l-.002-.112a5380.69 5380.69 0 01-.035-3.393v-.045l-.03-.034-.539-.605c-.369-.414-.73-.82-1.078-1.208l-.036-.04h-.053l-2.063-.018-.056-.001-.033.044-1.663 2.15-.02.027v.03c.03.914.053 1.697.073 2.35.022.547.038.839.05.826" fill="#1a2e35"/><path d="M290.257 383.781c-.003-.005-.07.03-.192.09a6.022 6.022 0 01-.525.233 5.306 5.306 0 01-1.847.358 5.314 5.314 0 01-1.854-.32 6.162 6.162 0 01-.531-.224c-.122-.058-.19-.092-.193-.087a.87.87 0 00.179.116c.119.067.296.157.524.248a4.995 4.995 0 001.876.35 4.98 4.98 0 001.868-.387c.225-.096.4-.188.518-.258a.978.978 0 00.177-.119M290.29 384.605c-.004-.006-.07.03-.193.09-.12.061-.3.145-.526.233a5.297 5.297 0 01-1.847.358c-.74.008-1.4-.154-1.854-.322a5.988 5.988 0 01-.53-.222c-.122-.059-.19-.092-.194-.087a.901.901 0 00.18.116c.118.067.296.156.524.248a4.975 4.975 0 001.875.35 4.976 4.976 0 001.868-.387c.226-.096.402-.189.52-.259a.999.999 0 00.176-.118M290.272 385.39c-.003-.005-.07.029-.192.09a6.022 6.022 0 01-.525.233 5.306 5.306 0 01-1.847.358 5.289 5.289 0 01-1.854-.322 5.903 5.903 0 01-.53-.222c-.123-.058-.19-.092-.194-.087a.833.833 0 00.18.116c.117.067.295.157.523.248a4.993 4.993 0 001.875.35 4.99 4.99 0 001.868-.387c.226-.096.402-.19.52-.26a.999.999 0 00.176-.117" fill="#1a2e35"/><path d="M309.369 363.856s-2.018-18.446.576-28.545l24.647 1.077s-5.281 18.196-2.038 26.257z" fill="#ececec"/><path d="M309.467 364.449s.169-19.915 1.182-25.991l24.978 1.18s-2.194 19.579-1.35 24.81z" fill="#ff4f5b"/><path d="M330.512 356.084c.006-.092-3.742-.392-8.37-.67-4.63-.28-8.386-.43-8.392-.338-.005.092 3.742.392 8.372.67 4.628.279 8.385.43 8.39.338M330.519 351.865c.005-.092-3.743-.392-8.371-.67-4.63-.279-8.385-.43-8.391-.338-.005.092 3.742.392 8.37.671 4.629.278 8.387.43 8.392.337M326.273 347.724c.002-.046-.529-.12-1.392-.202-.862-.082-2.054-.172-3.373-.252a103.872 103.872 0 00-3.38-.154c-.865-.022-1.402-.012-1.405.034-.003.046.53.119 1.391.2.863.083 2.055.174 3.374.253 1.32.079 2.514.133 3.38.155.865.022 1.402.012 1.405-.034" fill="#fff"/><path d="M366.423 396.786c0-.144-14.61-.26-32.628-.26-18.025 0-32.632.116-32.632.26 0 .144 14.607.26 32.632.26 18.018 0 32.628-.116 32.628-.26M325.126 390.839c0-.144-5.48-.261-12.236-.261-6.76 0-12.237.117-12.237.26 0 .145 5.478.26 12.237.26 6.757 0 12.236-.115 12.236-.26M338.127 390.839c0-.144-2.112-.261-4.716-.261-2.605 0-4.716.117-4.716.26 0 .145 2.11.26 4.716.26 2.604 0 4.716-.115 4.716-.26M474.544 328.102c-.01 0-.022.076-.04.227-.02.18-.04.4-.066.668l-.203 2.574-.648 9.472-1.941 31.265c-.7 12.195-1.331 23.233-1.79 31.278l-.484 9.482c-.044 1.085-.08 1.945-.104 2.58l-.015.67c0 .153.004.23.013.23.009.002.022-.075.04-.226l.066-.668.202-2.574.649-9.472 1.942-31.27 1.79-31.272.483-9.482.105-2.58.014-.672c0-.151-.004-.23-.013-.23M469.265 439.174s-.196-.018-.579-.025l-1.7-.023-6.54-.034-24.055-.03-79.356.097-82.154.264.041.005a19.776 19.776 0 01-10.445-6.511c-2.37-2.827-3.523-5.875-4.06-8.378a20.1 20.1 0 01-.386-5.886c.061-.673.123-1.184.182-1.525.053-.342.067-.519.067-.519s-.196.684-.348 2.034a19.513 19.513 0 00.296 5.935c.513 2.533 1.651 5.63 4.036 8.517a20.015 20.015 0 0010.575 6.677l.02.005h.022l82.155-.097 79.356-.25 24.053-.135 6.54-.064 1.701-.029c.383-.01.58-.028.58-.028" fill="#1a2e35"/></g><g clip-path="url(#e)" transform="matrix(1.33333 0 0 -1.33333 0 666.667)"><path d="M629.872 125.587c13.225 13.536 33.946 19.224 52.229 14.335-15.881-10.648-33.727-16.354-52.846-16.511M647.586 188.318c-2.176 15.391 3.806 32.704 15.329 43.891.38-15.253-6.06-32.417-15.33-43.89M638.372 159.245c8.21 15.696 21.69 28.578 37.743 36.07-4.81-17.72-19.967-32.217-37.885-36.234M636.463 153.635c9.296-.26 18.703.065 27.692 2.444 8.991 2.38 17.601 6.952 23.582 14.072-18.083-.02-36.124-5.529-51.135-15.612M641.182 172.113c-4.719 17.684-12.504 29.917-26.403 39.827-1.052-8.604 1.062-17.56 5.852-24.785 4.79-7.226 12.216-12.661 20.551-15.042M606.093 141.615c-.244 10.276 6.38 20.375 15.902 24.245-.772-9.133-7.946-19.696-15.902-24.245M601.652 156.525c-1.057 14.772-11.553 28.44-25.553 33.271 3.211-14.777 11.756-27.08 25.553-33.27M608.344 130.065c-3.278 4.69-8.627 7.605-14.163 9.054-5.535 1.448-11.318 1.576-17.038 1.696 7.717-8.49 19.304-13.316 30.766-12.814M614.989 92.37c-10.313 3.184-21.806 2.36-31.56-2.26-9.753-4.62-17.67-12.992-21.74-22.988 19.362 3.675 38.467 12.273 53.3 25.249M636.238 105.47c-3.217-9.507-2.6-20.998 4.55-29.19 2.909 9.753 1.19 20.783-4.55 29.19M648.795 110.752c.896-12.224 8.71-23.706 19.754-29.021.55-.264 1.183-.517 1.747-.288.871.356.95 1.544.843 2.479-1.4 12.18-10.424 23.96-22.344 26.83M657 111.987c5.438-5.877 13.369-9.367 21.376-9.408 8.007-.041 15.974 3.368 21.472 9.189-13.62 1.49-29.335 2.485-42.848.219" fill="#007aff"/><path d="M659.039 220.866c.009-.004-.034-.14-.125-.4l-.415-1.151-1.643-4.41c-.733-1.908-1.58-4.261-2.558-6.993l-1.577-4.372-1.702-4.927c-2.413-6.896-5.091-15.175-7.984-24.391a988.354 988.354 0 01-8.758-30.18 917.822 917.822 0 01-7.645-30.488c-2.123-9.424-3.948-17.932-5.267-25.118-.34-1.794-.661-3.503-.967-5.121l-.778-4.582c-.493-2.86-.916-5.324-1.2-7.346l-.714-4.652-.198-1.208c-.048-.271-.076-.41-.086-.41-.01.002.003.144.033.417l.147 1.216.618 4.666c.254 2.029.646 4.498 1.113 7.364l.739 4.593.93 5.13c1.274 7.2 3.063 15.72 5.162 25.158a849.003 849.003 0 007.61 30.517 908.538 908.538 0 008.803 30.187c2.919 9.214 5.636 17.484 8.095 24.369l1.736 4.917c.572 1.543 1.11 2.999 1.616 4.36 1.007 2.725 1.88 5.069 2.643 6.965l1.734 4.377.463 1.133c.108.254.166.383.175.38" fill="#1a2e35"/><path d="M584.23 181.908c.006.006.085-.07.234-.222l.651-.684a85.413 85.413 0 002.422-2.71c2.055-2.391 4.958-5.94 8.018-10.692 3.062-4.74 6.2-10.776 8.385-17.938 2.247-7.141 3.641-15.258 5.03-23.74 2.77-16.983 6.166-32.193 8.626-43.196l2.95-13.023.786-3.546.191-.925c.04-.21.057-.316.048-.32-.009-.001-.042.103-.1.308-.06.233-.14.535-.242.914l-.88 3.522c-.743 3.102-1.804 7.529-3.11 12.988-2.553 10.983-6.01 26.193-8.783 43.193-1.389 8.484-2.765 16.575-4.974 23.683-2.148 7.127-5.228 13.136-8.237 17.883-3.008 4.758-5.859 8.33-7.864 10.759a144.819 144.819 0 01-2.344 2.769c-.254.299-.456.537-.613.719-.135.164-.202.25-.195.258M661.069 112.565c.001-.018-.169-.048-.491-.09l-1.41-.155-1.019-.1c-.375-.057-.776-.118-1.204-.18-.864-.129-1.85-.256-2.924-.495l-1.69-.336-1.812-.459c-1.261-.285-2.562-.747-3.951-1.165-2.738-.96-5.686-2.195-8.624-3.8-2.928-1.627-5.52-3.502-7.732-5.37-1.075-.973-2.11-1.883-2.967-2.849-.917-.909-1.66-1.853-2.347-2.708-.725-.828-1.228-1.688-1.738-2.396a17.683 17.683 0 01-1.191-1.893l-.722-1.22c-.17-.276-.268-.419-.284-.41-.016.008.05.165.191.458l.639 1.271c.275.554.625 1.227 1.122 1.953.491.728.979 1.611 1.691 2.462.675.878 1.41 1.845 2.323 2.778.854.99 1.889 1.922 2.968 2.915 2.22 1.911 4.835 3.82 7.795 5.464 2.969 1.623 5.953 2.857 8.724 3.8 1.404.411 2.722.86 3.998 1.13l1.832.431 1.709.307c1.085.216 2.081.318 2.954.42.431.05.836.095 1.215.138l1.027.055 1.421.06c.325.006.496.002.497-.016M664.948 181.582c.023-.027-.327-.362-.981-.945l-2.803-2.432a863.742 863.742 0 00-9.376-7.873 842.419 842.419 0 00-9.476-7.756l-2.908-2.304c-.693-.535-1.088-.817-1.11-.79-.023.029.329.365.984.949l2.804 2.43a839.991 839.991 0 009.373 7.872 858.257 858.257 0 009.47 7.752c1.167.925 2.142 1.698 2.91 2.305.694.536 1.09.819 1.113.792M668.295 163.565c.041-.138-7.11-2.372-15.97-4.99-8.864-2.618-16.08-4.629-16.12-4.49-.04.136 7.11 2.371 15.972 4.99 8.86 2.617 16.078 4.628 16.118 4.49M641.89 170.738c-.03-.019-.292.349-.738 1.026l-1.885 2.872a168.894 168.894 0 01-6.553 9.234 178.358 178.358 0 01-7.18 8.757 2627.35 2627.35 0 00-2.264 2.585c-.534.611-.817.962-.79.986.024.024.357-.278.937-.848.582-.568 1.4-1.413 2.391-2.476a120.944 120.944 0 007.32-8.688 116.387 116.387 0 006.45-9.35 75.203 75.203 0 001.748-2.966c.392-.712.595-1.114.564-1.132M617.055 160.738c.062-.044-.609-1.079-1.678-2.759a160.697 160.697 0 01-4.019-6.651 158.273 158.273 0 01-3.664-6.856c-.899-1.776-1.445-2.881-1.515-2.851-.062.027.366 1.187 1.182 3.011a83.901 83.901 0 003.544 6.954 83.3 83.3 0 004.167 6.597c1.15 1.634 1.928 2.594 1.983 2.555" fill="#1a2e35"/><path d="M608.558 129.572c-.037-.07-1.4.597-3.634 1.602a113.202 113.202 0 01-8.873 3.553 112.58 112.58 0 01-9.155 2.756c-2.372.608-3.854.937-3.839 1.015.007.035.386-.006 1.064-.112a48.558 48.558 0 002.86-.544c2.403-.517 5.696-1.384 9.242-2.623 3.543-1.243 6.657-2.618 8.858-3.712a48.4 48.4 0 002.576-1.358c.596-.341.918-.545.901-.577M615.248 92.313c.004-.018-.148-.068-.441-.149l-1.288-.329-4.755-1.097c-4.01-.932-9.596-2.096-15.536-4.1-5.94-2.022-11.036-4.594-14.493-6.808a55.512 55.512 0 01-3.992-2.78c-.915-.698-1.413-1.096-1.44-1.065-.012.014.098.13.32.338.225.204.546.52.993.885.875.753 2.2 1.78 3.919 2.93 3.43 2.311 8.547 4.958 14.525 6.992 5.987 2.02 11.594 3.127 15.626 3.968l4.79.936c1.134.212 1.764.315 1.772.28M639.437 83.13c-.143-.021-.994 4.995-1.9 11.202-.91 6.21-1.53 11.259-1.388 11.279.142.02.993-4.994 1.901-11.203.908-6.207 1.53-11.257 1.387-11.278M664.622 92.274c-.061-.045-.908 1.002-2.27 2.695a381.956 381.956 0 01-5.378 6.567 387.494 387.494 0 01-5.543 6.43c-1.434 1.633-2.32 2.648-2.264 2.7.025.024.28-.197.72-.619a58.603 58.603 0 001.815-1.833 134.247 134.247 0 005.67-6.343 134.647 134.647 0 005.272-6.677 60.163 60.163 0 001.493-2.103c.339-.505.513-.796.485-.817" fill="#1a2e35"/><path d="M597.974 68.917V56.473h3.11l11.062-34.912h24.53l10.715 34.566 4.148.346v12.444z" fill="#375a64"/><path d="M649.466 56.127c0-.144-10.831-.26-24.19-.26-13.362 0-24.191.116-24.191.26 0 .145 10.829.26 24.192.26 13.358 0 24.189-.115 24.189-.26M667.108 136.172c.007-.035-.554-.185-1.572-.425l-4.306-1.038a183.53 183.53 0 01-14.017-4.077 183.125 183.125 0 01-13.634-5.223l-4.058-1.774c-.956-.425-1.493-.644-1.509-.611-.015.032.491.312 1.422.794a93.911 93.911 0 003.995 1.928c3.404 1.567 8.195 3.552 13.618 5.379 5.424 1.82 10.44 3.134 14.098 3.943 1.829.406 3.317.703 4.35.877 1.032.18 1.606.262 1.613.227" fill="#1a2e35"/><path d="M641.322 36.74c0-.145-7.6-.261-16.972-.261-9.375 0-16.972.116-16.972.26 0 .145 7.597.26 16.972.26 9.372 0 16.972-.115 16.972-.26M642.276 39.626c0-.144-8.054-.261-17.985-.261-9.936 0-17.987.117-17.987.26 0 .145 8.051.262 17.987.262 9.931 0 17.985-.117 17.985-.261" fill="#fafafa"/></g><g clip-path="url(#f)" transform="matrix(1.33333 0 0 -1.33333 0 666.667)"><path d="M492.286 53.31l-1.623-20.53s-20.284-6.519-20.402-10.319l39.68-.522 1.173 31.412z" fill="#007aff"/><path d="M502.89 34.87c.775-.187 1.332-1.035 1.178-1.817-.156-.782-1.013-1.356-1.79-1.183-.78.174-1.479 1.172-1.238 1.93.242.76 1.286 1.38 2 1.024M509.941 21.94l-.08 3.183-37.578-.23s-2.155-1.283-2.098-2.522z" fill="#ececec"/><path d="M490.013 32.963c.012-.194.984-.253 1.957-.848.988-.57 1.506-1.394 1.682-1.312.177.043-.147 1.193-1.337 1.893-1.184.709-2.35.443-2.302.267M485.9 31.114c-.039-.189.812-.493 1.494-1.294.707-.78.9-1.662 1.093-1.647.183-.026.283 1.114-.586 2.092-.859.988-2.003 1.035-2.001.849M483.684 26.058c.178-.036.418.94-.11 1.987-.524 1.051-1.452 1.443-1.529 1.28-.104-.164.502-.716.924-1.582.442-.856.522-1.672.715-1.685M490.222 37.653c.087-.175.968.12 2.066.078 1.1-.018 1.963-.361 2.06-.192.107.143-.747.837-2.04.867-1.295.041-2.186-.604-2.086-.753M490.026 41.78c0-.08.77-.177 1.988.07a8.979 8.979 0 012.062.701c.371.18.75.392 1.124.641.18.123.392.248.586.486.209.208.315.727.058 1.035-.213.298-.576.42-.863.418-.293 0-.528-.067-.743-.126a7.016 7.016 0 01-3.022-1.721c-.895-.881-1.187-1.614-1.12-1.65.09-.061.52.559 1.436 1.292a7.93 7.93 0 001.744 1.052c.351.153.729.285 1.131.387.418.123.775.137.889-.047.041-.07.047-.099-.038-.225-.086-.116-.253-.232-.43-.354a10.829 10.829 0 00-1.033-.632 11.106 11.106 0 00-1.901-.795c-1.128-.351-1.875-.428-1.868-.532" fill="#1a2e35"/><path d="M490.287 41.51c.069-.027.434.679.467 1.937a6.47 6.47 0 01-.88 3.36c-.244.386-.544.902-1.3.967-.392.003-.71-.315-.813-.58-.123-.273-.142-.504-.182-.736a4.578 4.578 0 01.95-3.368c.807-1.006 1.623-1.213 1.638-1.147.06.1-.626.455-1.25 1.425a4.59 4.59 0 00-.685 1.85 4.18 4.18 0 00.002 1.15c.05.423.198.77.357.73.197.01.543-.297.716-.63a6.62 6.62 0 00.524-1.063c.27-.71.4-1.394.445-1.973.09-1.164-.095-1.897.01-1.923" fill="#1a2e35"/><path d="M578.087 56.726l4.587-23.976 9.095-17.918a2.5 2.5 0 00-1.252-3.433 2.483 2.483 0 00-2.284.17c-4.393 2.708-20.504 12.755-20.742 14.528-.274 2.054-6.516 24.97-6.516 24.97z" fill="#007aff"/><path d="M590.516 11.4l-23.372 16.308.218-1.01a3.761 3.761 0 011.385-2.2c1.9-1.454 7.23-5.357 19.414-12.947a2.496 2.496 0 012.355-.152M570.404 34.745c.687-.285 1.076-1.147.82-1.845-.257-.698-1.13-1.102-1.821-.83-.691.274-1.192 1.294-.86 1.959.334.664 1.385 1.083 1.992.653" fill="#ececec"/><path d="M582.819 20.652c.148-.036.418 1.329 1.693 2.307 1.245 1.015 2.636.963 2.634 1.116.009.063-.334.184-.909.142-.571-.037-1.361-.289-2.058-.837-.694-.552-1.122-1.262-1.29-1.81-.173-.55-.133-.911-.07-.918M585.206 17.823c.136-.08.734.86 1.894 1.48 1.144.645 2.258.645 2.265.802.042.137-1.215.396-2.524-.332-1.317-.713-1.773-1.913-1.635-1.95M578.773 24.068c.137-.089 1.051 1.362 2.768 2.482 1.7 1.148 3.391 1.427 3.362 1.587.012.136-1.833.086-3.659-1.139-1.838-1.207-2.6-2.888-2.47-2.93M576.77 31.24c.095-.13 1.294.705 2.996 1.136 1.697.454 3.151.31 3.171.47.04.13-1.48.533-3.306.049-1.828-.468-2.96-1.56-2.86-1.655M575.246 38.244c.104-.122 1.258.958 3.088 1.266 1.823.347 3.28-.265 3.335-.115.028.059-.296.302-.915.5-.614.203-1.531.317-2.515.142-.982-.178-1.803-.604-2.308-1.005-.511-.402-.732-.743-.685-.788M578.005 40.834c.03.006.016.339-.162.909a6.387 6.387 0 01-1.226 2.21c-.352.388-.744.9-1.477 1.07-.365.089-.846-.08-1.061-.456-.215-.367-.22-.778-.146-1.158.35-1.51 1.967-2.695 3.717-2.547 1.75.18 3.09 1.492 3.487 2.945.075.37.089.807-.184 1.17-.27.369-.79.426-1.118.294-.687-.258-1.047-.762-1.397-1.155a7.162 7.162 0 01-1.23-2.205c-.19-.565-.22-.896-.189-.903.096-.044.35 1.302 1.707 2.862.347.366.742.82 1.242.978.243.077.478.025.61-.157.133-.172.148-.483.075-.777-.34-1.193-1.569-2.388-3.05-2.518-1.475-.14-2.893.905-3.187 2.117-.067.293-.053.604.067.813a.544.544 0 00.582.26c.503-.087.922-.522 1.267-.884 1.383-1.536 1.571-2.915 1.672-2.868" fill="#1a2e35"/><path d="M492.014 241.968c-.252.01-3.294-201.147-3.294-201.147l24.307.84 8.413 98.894 2.021 72.601 16.54-67.147L560.63 40.62l24.274 6.093-30.893 196.566-29.085 5.627zM544.848 366.248c2.907 5.747 3.826 16.059.49 21.773-3.339 5.715-10.086 9.835-16.43 11.715-1.06.314-2.209.558-3.259.208-1.048-.351-1.9-1.507-1.542-2.553-1.235.909-2.498 1.833-3.96 2.288-1.465.456-3.19.366-4.366-.616-1.177-.982-1.503-2.981-.418-4.063-1.749.794-3.956.449-5.38-.84-1.424-1.29-1.985-3.451-1.366-5.27.59-1.743 1.978-3.743 3.236-5.086 1.257-1.343 1.382-2.646 1.02-4.451" fill="#1a2e35"/><path d="M520.883 318.943c.177 2.755.623 27.697.62 27.81 0 0-9.26 1.147-9.66 10.355-.193 4.448.154 13.64.565 21.956.442 8.938 7.675 16.035 16.62 16.313l.888.028c9.602-.262 14.744-8.563 14.217-18.154l-1.314-53.37" fill="#ffbf9d"/><path d="M521.503 346.753s5.817-.16 11.884 3.92c0 0-2.766-5.763-11.984-5.22z" fill="#ff9a6c"/><path d="M513.954 372.842c-.003-.696.583-1.27 1.31-1.288.724-.016 1.316.533 1.319 1.228.003.696-.584 1.273-1.31 1.29-.725.016-1.316-.535-1.32-1.23M514.529 374.614c.168-.167 1.142.602 2.558.642 1.414.061 2.475-.635 2.623-.457.073.08-.103.384-.565.7-.456.313-1.225.61-2.107.577-.882-.032-1.613-.38-2.03-.725-.424-.348-.562-.663-.48-.737M528.142 372.637c-.003-.695.584-1.27 1.311-1.288.724-.016 1.315.533 1.318 1.228.003.696-.583 1.273-1.309 1.29-.725.016-1.317-.535-1.32-1.23M528.452 374.783c.169-.167 1.144.602 2.559.642 1.414.061 2.475-.636 2.624-.457.072.08-.102.383-.567.698-.455.315-1.224.61-2.106.58-.881-.033-1.614-.38-2.03-.727-.423-.347-.562-.662-.48-.736M523.641 364.125c.004.08-.88.205-2.313.343-.362.026-.707.088-.775.332-.094.259.046.653.208 1.079l.984 2.786c1.362 3.965 2.336 7.22 2.176 7.275-.16.054-1.394-3.117-2.757-7.083l-.938-2.8c-.124-.415-.345-.89-.144-1.425.107-.267.377-.455.612-.51.233-.063.437-.061.616-.066 1.437-.033 2.328-.012 2.331.069M527.837 363.275c-.23.006-.186-1.53-1.467-2.662-1.279-1.135-2.922-1.013-2.928-1.23-.018-.095.374-.285 1.067-.283a3.83 3.83 0 012.446.939c.781.694 1.1 1.597 1.132 2.229.038.644-.145 1.02-.25 1.007M527.914 380.32c.152-.38 1.56-.154 3.227-.303 1.67-.114 3.025-.56 3.234-.207.094.168-.151.523-.704.879-.55.355-1.416.682-2.417.762-1 .078-1.908-.11-2.506-.374-.602-.264-.9-.576-.834-.757M514.922 378.728c.259-.314 1.224.05 2.396.103 1.17.093 2.172-.15 2.39.194.095.166-.07.484-.515.775-.437.29-1.16.515-1.964.466-.806-.051-1.496-.364-1.893-.706-.403-.343-.529-.68-.415-.832" fill="#1a2e35"/><path d="M543.593 370.406c.154.073 6.271 2.069 6.266-4.235-.005-6.305-6.333-4.998-6.344-4.818-.01.18.078 9.053.078 9.053" fill="#ffbf9d"/><path d="M545.443 363.74c.027.02.109-.077.295-.162.181-.083.492-.141.821-.018.666.244 1.228 1.3 1.259 2.437a3.621 3.621 0 01-.306 1.573c-.192.462-.49.784-.825.843a.558.558 0 01-.648-.3c-.085-.176-.045-.302-.078-.313-.018-.016-.136.106-.084.366a.69.69 0 00.248.395.83.83 0 00.607.16c.486-.034.923-.481 1.147-.978a3.72 3.72 0 00.378-1.758c-.041-1.27-.692-2.458-1.604-2.721-.443-.115-.814.019-1.004.168-.195.156-.228.297-.206.308" fill="#ff9a6c"/><path d="M508.388 390.972c-.737-8.174 9.33-11.586 13.747-7.016 2.044 2.113 3.826 4.755 6.607 5.707 1.873.641 3.986.297 5.747-.605l.053-.027c2.596-1.35 4.13-4.358 4.533-7.257.561-4.04-.086-7.605.963-11.316.151-.533.33-1.107.78-1.43.761-.55 1.863-.068 2.491.632 1.006 1.121 1.361 2.67 1.581 4.16.5 3.393.477 6.892-.379 10.214-.854 3.321-2.572 6.46-5.124 8.751-3.188 2.864-7.577 4.265-11.858 4.065-4.282-.199-8.43-1.938-11.769-4.625-1.549-1.247-2.965-2.74-3.729-4.576" fill="#1a2e35"/><path d="M515.063 395.467c.002.018-.313.076-.872-.037-.554-.108-1.343-.447-2.083-1.159a5.357 5.357 0 01-1.565-3.176c-.164-1.367.291-2.893 1.207-4.153a7.909 7.909 0 013.411-2.66c1.24-.513 2.442-.7 3.438-.763a13.35 13.35 0 012.36.072c.553.069.852.144.848.174-.006.089-1.23-.09-3.18.096-.967.105-2.12.32-3.292.833a7.712 7.712 0 00-3.194 2.533c-.853 1.178-1.279 2.58-1.153 3.824a5.154 5.154 0 001.364 2.98c.661.695 1.374 1.06 1.888 1.218.516.162.826.17.823.219M519.282 398.354c.002.024-.231.07-.601-.106-.358-.175-.816-.623-.983-1.346-.166-.725.056-1.604.48-2.413.427-.81.993-1.652 1.727-2.412 1.459-1.539 3.2-2.45 4.509-2.857 1.31-.43 2.177-.417 2.179-.37.014.085-.824.193-2.064.692a11.953 11.953 0 00-4.272 2.87 11.182 11.182 0 00-1.684 2.285c-.424.757-.64 1.521-.538 2.141.1.62.456 1.05.743 1.248.295.203.51.228.504.268" fill="#375a64"/><path d="M464.387 316.708l-43.354 4.114-6.865 1.648s-15.678 2.804-17.15 3.265c-1.7.533-2.367-.159-2.52-.799-.24-.998.747-2.066 2.194-2.568.5-.174 8.491-2.596 8.491-2.596s-.773-.158-2.633-.873c-1.86-.714-3.576-3.216-4.37-6.087-.795-2.869-.764-3.743.337-4.104.441-.145.876-.006 1.246.224.605.375 1.031.988 1.23 1.672 1.335 4.578 4.15 5.045 4.15 5.045l.898-.215s-2.838-2.152-2.69-4.614c.023-.402.125-.746.268-1.049-.365-1.212-.075-2.606.764-3.557a3.816 3.816 0 013.586-1.185c.617.132 1.274.526 1.34 1.153.033.331-.108.651-.238.957-.07.161-.135.33-.174.5l2.6-.253s5.871-.253 8.413-.653l40.866-10.576c5.666-1.467 11.433 1.998 12.8 7.69 1.485 6.188-2.852 12.26-9.189 12.861" fill="#ffbf9d"/><path d="M420.076 319.683c-.031-.907-.91-1.573-1.791-1.793-.88-.22-1.81-.137-2.702-.293-2.673-.468-4.666-2.994-7.36-3.333-.374-.047-.852.012-.978.37-.116.33.16.657.413.9l6.496 6.212" fill="#ffbf9d"/><path d="M414.154 321.746c-.024.025-.298-.19-.771-.6a95.648 95.648 0 01-1.972-1.773l-2.88-2.677-.826-.78c-.243-.266-.68-.506-.738-1.127-.013-.31.235-.606.49-.694.253-.102.495-.11.73-.091.444.059.87.152 1.288.308 1.675.619 2.942 1.695 4.23 2.358.637.34 1.274.596 1.895.714.62.119 1.235.123 1.8.186 1.149.072 2.06.602 2.416 1.158.379.562.276.97.26.955-.051.01-.031-.37-.417-.833-.382-.467-1.187-.89-2.29-.92-.547-.038-1.165-.018-1.844-.128-.678-.11-1.367-.37-2.038-.713-1.351-.672-2.633-1.728-4.184-2.294a5.506 5.506 0 00-1.163-.283c-.371-.041-.696.08-.671.28-.004.222.293.508.574.77l.815.793 2.803 2.757a93.459 93.459 0 011.859 1.89c.432.455.658.718.634.744M406.117 315.528c-.006-.067-.677.259-1.697-.044-.5-.151-1.03-.512-1.438-1.073-.417-.557-.72-1.276-.981-2.057-.266-.781-.52-1.55-.9-2.189-.378-.634-.846-1.14-1.356-1.413-.514-.286-1.04-.221-1.318-.082-.288.138-.4.277-.391.286.018.028.158-.074.436-.166.275-.09.717-.11 1.158.166.439.265.866.755 1.209 1.361.343.609.58 1.356.848 2.145.266.789.59 1.546 1.053 2.134.453.595 1.064.98 1.615 1.112.553.142 1.02.088 1.32.011.302-.079.45-.174.442-.191M396.137 322.57c.018.044.62-.152 1.592-.47l3.803-1.232 3.82-1.173c.978-.296 1.585-.482 1.574-.528-.01-.043-.638.063-1.636.302a59.25 59.25 0 00-3.858 1.084 58.527 58.527 0 00-3.782 1.326c-.955.377-1.53.65-1.513.691M407.352 313.17c.018-.019-.11-.156-.323-.408-.198-.244-.526-.66-.442-1.206.04-.265.234-.492.535-.619.293-.136.658-.179 1.053-.247.386-.066.866-.184 1.19-.578.306-.387.39-.926.251-1.41-.142-.498-.52-.87-.929-1.079a2.243 2.243 0 00-1.292-.244c-.815.13-1.48.406-2.03.667-.543.271-.95.563-1.186.815-.235.253-.3.44-.286.445.025.015.126-.14.374-.35.25-.212.657-.46 1.196-.697.538-.226 1.216-.475 1.967-.577.7-.075 1.633.314 1.867 1.111.115.39.042.826-.186 1.117-.23.292-.615.41-.992.481-.378.074-.772.127-1.116.298-.346.151-.62.491-.646.831-.064.686.351 1.106.577 1.33.25.232.404.334.418.32" fill="#ff9a6c"/><path d="M408.486 307.829c.002.016.185.007.437-.185.24-.185.545-.593.529-1.18-.016-.574-.407-1.234-1.083-1.577-.671-.347-1.536-.374-2.34-.125a3.816 3.816 0 00-1.916 1.345 3.65 3.65 0 00-.697 1.778c-.061.544.01.986.09 1.277.082.292.165.438.182.43.064-.011-.204-.65-.04-1.675a3.59 3.59 0 01.707-1.625 3.638 3.638 0 011.772-1.214c.735-.228 1.517-.207 2.105.082.59.28.946.836.986 1.32a1.37 1.37 0 01-.381 1.068c-.2.2-.362.254-.351.28M415.525 311.656c-.029.007.002.312.248.758.24.439.734 1.018 1.522 1.346l-.006-.292a9.511 9.511 0 00-1.008.507c-1.907 1.102-2.891 2.648-2.814 2.68.076.069 1.143-1.336 2.981-2.394.33-.192.659-.36.969-.503l.342-.158-.348-.134a3.28 3.28 0 01-1.47-1.16c-.276-.387-.375-.664-.416-.65M401.913 315.736c.06.063.536-.422.617-1.216.089-.794-.273-1.37-.346-1.32-.088.038.098.595.017 1.285-.066.69-.366 1.195-.288 1.25" fill="#ff9a6c"/><path d="M465.164 295.514l28.276 6.527s-1.463-51.84-1.458-52.33c.005-.491-2.334-1.305-2.134-5.067l2.033-4.475 62.004-.832 1.673 50.347 5.658 39.039-13.007 8.048-4.58 6.212-17.883-18.865-4.447 16.099.127 4.79-4.42-4.797-23.847-6.877-31.505-14.69-21.302 1.628-5.53-18.637z" fill="#50a3fd"/><path d="M523.277 329.915c.047-.058-.793-.255-1.28-1.427-.247-.57-.376-1.305-.389-2.178-.041-.863.017-1.9-.422-2.966l-.214-.517-.223.516c-.594 1.37-1.001 2.936-1.398 4.587-.755 3.24-1.236 6.205-1.558 8.355-.317 2.151-.445 3.49-.375 3.5.072.011.33-1.307.738-3.439.414-2.129.953-5.08 1.702-8.297.392-1.634.787-3.198 1.327-4.51l-.437-.002c.404.918.392 1.917.461 2.794.043.882.22 1.691.526 2.28.295.596.705.971 1.021 1.14.319.171.517.183.521.164M546.23 337.823c.027-.023-.189-.332-.604-.869a127.816 127.816 0 00-1.798-2.244 529.669 529.669 0 00-6.079-7.276c-1.37-1.596-2.664-3.106-3.819-4.454l-.295-.345-.109.438c-.542 2.172-.984 4.01-1.278 5.298-.12.647-.482 1.016-.83 1.024-.335.03-.46-.165-.48-.138-.025-.009.068.264.484.285a.897.897 0 00.66-.269c.204-.202.337-.504.435-.827.375-1.277.878-3.092 1.462-5.255l-.405.092 3.777 4.488a510.46 510.46 0 006.196 7.177c.804.91 1.46 1.64 1.924 2.137.463.497.732.761.76.738M519.855 255.021c-.018 0-.034.231-.05.671l-.044 1.924c-.03 1.671-.032 4.09.004 7.077.07 5.975.353 14.231 1.03 23.326.683 9.098 1.63 17.305 2.451 23.225.41 2.96.77 5.35 1.048 6.998l.33 1.896c.081.432.131.658.15.655.018-.002.001-.233-.047-.67l-.232-1.91-.884-7.017a507.294 507.294 0 01-2.297-23.216 506.257 506.257 0 01-1.18-23.295l-.17-7.07-.054-1.923c-.019-.44-.036-.67-.055-.67M514.807 242.873c-.142-.027-.542 1.969-.463 4.449.072 2.474.384 4.448.516 4.439.155-.011.075-2.008.005-4.451-.079-2.443.084-4.416-.058-4.437" fill="#1a2e35"/><path d="M540.212 257.423c.01-.034-.558-.247-1.597-.602-1.036-.36-2.551-.835-4.436-1.384-3.767-1.1-9.035-2.418-14.935-3.47-5.903-1.045-11.303-1.622-15.22-1.887a98.68 98.68 0 00-4.641-.23c-1.097-.023-1.703-.02-1.705.016-.001.036.602.1 1.695.187l4.622.393c3.9.36 9.275.991 15.157 2.034a185.94 185.94 0 0114.929 3.312c1.825.5 3.334.911 4.475 1.223 1.055.295 1.645.442 1.656.408M493.132 291.108c-.145 0-.234 7.356-.203 16.428.032 9.075.175 16.429.32 16.429.143-.001.234-7.356.201-16.43-.032-9.072-.174-16.427-.318-16.427" fill="#1a2e35"/><path d="M560.06 329.438s7.813-6.702 8.326-10.495c.397-2.934 8.08-30.484 11.542-42.818a17.986 17.986 0 00-.653-11.632l-9.984-24.702-16.153 9.556 8.077 23.168-6.688 19.658z" fill="#50a3fd"/><path d="M569.292 239.79c-.005-.008-.108.042-.304.147l-.861.476-3.267 1.869-11.823 6.893-.141.082.053.157 8.024 23.186.002-.175-2.946 7.906-6.677 17.994.008-.02c-2.047 4.3-3.82 8.449-4.313 12.428-.234 1.977-.191 3.877.167 5.583a16.479 16.479 0 001.62 4.49 18.67 18.67 0 004.174 5.267c.586.519 1.068.882 1.402 1.113.334.23.51.346.519.334.008-.011-.154-.147-.47-.4a19.87 19.87 0 01-1.346-1.163 19.304 19.304 0 01-4.016-5.286 16.3 16.3 0 01-1.535-4.424c-.332-1.67-.357-3.525-.112-5.462.514-3.896 2.283-7.986 4.347-12.272l.004-.01.005-.01 6.71-17.981c1.007-2.708 1.996-5.365 2.94-7.908l.032-.086-.03-.088-8.13-23.15-.087.24 11.734-7.043 3.212-1.963.832-.526c.185-.122.279-.188.273-.197" fill="#1a2e35"/><g clip-path="url(#g)" opacity=".3"><path d="M527.659 325.818c1.095-.028 2.202-.68 2.4-1.757.2-1.078.05-2.206.332-3.265.28-1.06 1.246-2.09 2.319-1.869.65.135 1.125.682 1.533 1.207 2.103 2.71 3.804 6.09 5.038 9.29-.03-.078-5.538-6.359-5.538-6.359-.17 1.576-.668 3.148-1.243 4.626-.186.477-.397 1.294-.862 1.506-.752.345-1.748-.755-2.245-1.416-.497-.66-1.586-1.81-1.735-1.865"/></g><g clip-path="url(#h)" opacity=".3"><path d="M518.629 331.522c.184-3.454.723-7.076 2.018-10.283.13-.327.277-.663.54-.897.263-.235.678-.336.972-.14.215.143.904 1.883.99 2.127.513 1.428 2.585 1.56 2.585 1.56s-.824 3.673-1.353 4.76c-.24.493-.747.92-1.288.831-.644-.108-1.342-.983-1.421-1.63-.313-2.567-.274-3.744-.651-4.639-.973 2.731-1.76 6.021-2.403 8.406"/></g><g clip-path="url(#i)" opacity=".3"><path d="M533.967 255.769c1.03.552 1.158 2.135.478 3.085-.68.95-1.962 1.334-3.123 1.187-1.159-.146-2.214-.741-3.163-1.425-.947-.685-1.823-1.471-2.819-2.083-2.45-1.507-5.436-1.848-8.31-1.895-2.877-.047-5.785.163-8.609-.385-2.824-.547-5.645-2.003-7.008-4.536 0 0 24.581 1.788 32.554 6.052"/></g><path d="M550.04 219.653c-3.491 2.282-5.016 4.476-6.44 6.637.034.087.04.161.008.217-.045.08-.135.122-.245.149a34.56 34.56 0 00-1.885 3.303c2.007 1.305 4.629 3.28 1.778 3.685-3.51.5-6.02 2.206-6.378 3.14-.358.934.812 1.772 1.737 1.176.747-.483 2.243-.899 3.379-1.166a8.449 8.449 0 012.86-.182c.595.066 2.688 1.501 4.925 2.552a1.75 1.75 0 001.019.135l.856.058a2.656 2.656 0 012.17 1.424l3.244 6.241 9.8-5.797-7.756-10.766s-5.344-7.102-9.072-10.806" fill="#ffbf9d"/><path d="M552.062 218.525c-.023-.053-.927.275-2.26 1.066-1.33.788-3.059 2.092-4.643 3.858-1.579 1.772-2.683 3.636-3.317 5.046-.638 1.412-.863 2.346-.807 2.364.158.08 1.38-3.6 4.512-7.063 3.09-3.499 6.612-5.122 6.515-5.27M521.186 212.218c-.007-.017-.1.013-.274.086a3.237 3.237 0 00-.695.442c-.557.457-1.177 1.338-1.6 2.541-.43 1.205-.714 2.672-1.087 4.285-.36 1.618-.735 3.4-1.102 5.277a201.752 201.752 0 00-1.658 9.651 87.253 87.253 0 00-.384 2.944c-.075.697-.099 1.085-.064 1.09.035.005.128-.373.264-1.059l.547-2.915c.452-2.462 1.071-5.863 1.806-9.612l1.06-5.276c.346-1.618.595-3.094.966-4.266.367-1.178.903-2.03 1.39-2.51.491-.475.854-.635.831-.678M520.351 234.674c.002.03.165.061.443-.032.274-.089.655-.339.913-.81.264-.446.357-1.22-.093-1.83-.415-.593-1.242-1.014-2.1-.8-.85.237-1.367.993-1.47 1.7-.119.737.242 1.38.63 1.718.83.714 1.577.504 1.538.456.018-.086-.655-.05-1.278-.716-.297-.323-.53-.829-.416-1.379.098-.54.525-1.115 1.128-1.276.6-.156 1.255.145 1.58.578.35.437.325.992.15 1.387-.37.835-1.063.928-1.025 1.004" fill="#375a64"/><g><path d="M499.087 238.69c.05.011.293-.858.262-2.304-.024-1.438-.424-3.447-1.47-5.402-1.056-1.95-2.512-3.393-3.698-4.206-1.19-.822-2.049-1.098-2.067-1.05-.042.082.75.474 1.845 1.345 1.097.863 2.445 2.283 3.461 4.157 1.004 1.88 1.445 3.787 1.562 5.178.123 1.393.013 2.27.105 2.281" fill="#375a64"/></g><g><path d="M460.282 308.854c-.145.028.167 2.24.504 4.967.34 2.73.579 4.95.726 4.941.14-.007.134-2.256-.21-5.005-.338-2.748-.882-4.93-1.02-4.903" fill="#1a2e35"/></g><g><path d="M440.352 320.271c.012-.003-.012-.123-.067-.352l-.264-1.006-1.064-3.8c-.959-3.319-2.307-7.972-3.92-13.543l-.16.281c5.653-1.404 12.466-2.546 19.732-3.885 3.621-.673 7.114-1.408 10.333-2.209l-.116.001c8.145 1.843 15.204 3.44 20.285 4.588l5.907 1.288 1.585.324c.361.068.552.097.555.083.003-.015-.18-.072-.535-.169l-1.567-.404-5.874-1.43c-5.07-1.196-12.115-2.854-20.244-4.769l-.058-.014-.059.015c-3.209.786-6.693 1.513-10.308 2.185-7.255 1.337-14.082 2.507-19.745 3.961l-.228.06.068.221 4.1 13.49 1.181 3.765.328.987c.078.222.124.335.135.332" fill="#1a2e35"/></g></g><path d="M214.16 547.636l-3.849 71.352 25.845 6.244 5.147-69.701z" fill="#bf654e"/><path d="M209.543 618.38l-4.402 19.362h29.742l1.273-12.604z" fill="#ff4f5b"/><g clip-path="url(#j)" transform="matrix(1.33333 0 0 -1.33333 0 666.667)"><path d="M176.618 23.802c0-.083-1.24-.167-3.25-.187-2.008-.02-4.782.033-7.84.145l-7.827.332c-2 .097-3.24.173-3.24.262 0 .082 1.241.16 3.25.176 2.008.017 4.781-.04 7.84-.152l7.825-.325c2.002-.092 3.242-.163 3.242-.25" fill="#1a2e35"/><path d="M167.168 33.385c.17-.012.167-2.117-.007-4.702-.174-2.586-.453-4.673-.624-4.661-.17.01-.167 2.116.007 4.703.174 2.585.454 4.671.624 4.66" fill="#1a2e35"/><g clip-path="url(#k)" opacity=".6"><path d="M153.856 21.693h22.306l.214 2.11-22.118.551-.402-2.409" fill="#fff"/></g><path d="M234.22 63.256l4.706-35.457 17.158 1.193-3.607 32.507z" fill="#bf654e"/><path d="M256.263 32.84s19.276-6.515 19.595-10.029l-36.863-1.075-.33 9.638 1.364-.27a27.394 27.394 0 0116.234 1.736" fill="#ff4f5b"/><g clip-path="url(#l)" opacity=".6"><path d="M242.98 29.693c-.708-.216-1.177-1.032-.991-1.748.187-.717 1.013-1.2 1.724-.998.712.204 1.306 1.167 1.04 1.857-.266.691-1.267 1.206-1.91.84" fill="#fff"/></g><g clip-path="url(#m)" opacity=".6"><path d="M238.995 21.736l.015 2.989 35.337-.087s1.662-.666 1.51-1.827z" fill="#fff"/></g><path d="M256.855 33.045c0-.18-.898-.288-1.767-.893-.885-.582-1.318-1.375-1.486-1.308-.167.03.07 1.114 1.135 1.828 1.057.723 2.152.539 2.118.373M260.768 31.558c.046-.173-.725-.502-1.313-1.28-.613-.763-.743-1.59-.922-1.588-.17-.033-.324 1.017.427 1.972.742.961 1.799 1.068 1.808.896M263.099 26.995c-.163-.043-.44.85-.006 1.849.426 1.002 1.264 1.416 1.344 1.267.106-.144-.425-.69-.768-1.515-.362-.818-.392-1.578-.57-1.601" fill="#1a2e35"/><path d="M256.451 33.137c.004-.075-.704-.207-1.847-.045a8.323 8.323 0 00-1.948.537 8.785 8.785 0 00-1.077.531c-.173.105-.377.21-.57.418-.205.182-.332.657-.11.955.18.29.511.421.776.435.272.018.493-.03.695-.075a6.528 6.528 0 002.894-1.428c.88-.767 1.19-1.43 1.13-1.468-.08-.06-.512.49-1.402 1.12a7.402 7.402 0 01-1.673.878 6.977 6.977 0 01-1.07.296c-.393.091-.726.084-.82-.092-.035-.068-.039-.094.046-.206.087-.103.248-.202.42-.305.331-.203.665-.378.991-.529.652-.3 1.273-.5 1.804-.632 1.065-.264 1.761-.292 1.761-.39" fill="#1a2e35"/><path d="M256.224 32.872c-.063-.03-.438.605-.539 1.77a6.012 6.012 0 00.63 3.163c.206.37.455.865 1.151.965.364.025.676-.251.786-.492.13-.245.16-.46.21-.671a4.252 4.252 0 00-.695-3.173c-.693-.976-1.439-1.213-1.455-1.153-.063.089.555.454 1.08 1.389a4.26 4.26 0 01.532 1.75c.026.344.01.706-.065 1.067-.069.39-.225.7-.37.657-.184-.002-.487-.306-.629-.623a6.22 6.22 0 01-.428-1.014 6.695 6.695 0 01-.304-1.853c-.019-1.083.193-1.752.096-1.782" fill="#1a2e35"/><path d="M174.956 242.74s-13.604-22.73-13.604-36.327l-3.354-165.606 21.5-5.125L195.9 197.518s39.723-162.256 40.998-162.256c1.275 0 20.834 3.508 20.834 3.508l-29.663 203.24z" fill="#1a2e35"/><path d="M183.423 201.968c.01-.002-.003-.144-.04-.418l-.178-1.217-.74-4.669c-.666-4.05-1.588-9.919-2.68-17.176a1232.592 1232.592 0 01-7.204-56.888 1233.322 1233.322 0 01-4.475-57.178c-.4-7.328-.687-13.26-.856-17.36l-.22-4.723-.074-1.227c-.019-.277-.034-.418-.045-.418-.01.001-.015.142-.015.42l.014 1.23.11 4.725c.098 4.104.32 10.042.667 17.375.69 14.667 2.028 34.918 4.304 57.216 2.29 22.29 5.081 42.39 7.38 56.891 1.145 7.252 2.131 13.111 2.866 17.151l.85 4.652.236 1.206c.057.271.09.41.1.408M217.454 199.228c.16.028 6.72-36.316 14.647-81.168 7.93-44.867 14.228-81.25 14.066-81.279-.16-.029-6.718 36.308-14.65 81.176-7.926 44.851-14.224 81.243-14.063 81.271M195.136 197.8c-.017-.008-.093.135-.225.411-.129.278-.32.69-.548 1.225a43.454 43.454 0 00-1.595 4.672c-1.13 4.006-2.036 9.796-1.536 16.167.107 1.591.323 3.133.57 4.618.271 1.49.65 2.886 1.025 4.212.755 2.65 1.543 5 2.221 6.966.68 1.966 1.263 3.545 1.681 4.631l.497 1.244c.12.282.192.427.208.42.017-.005-.02-.163-.11-.456l-.404-1.276-1.523-4.679c-.63-1.978-1.382-4.336-2.108-6.979-.36-1.32-.727-2.715-.985-4.17-.236-1.468-.447-2.996-.553-4.57-.494-6.303.342-12.034 1.373-16.034.504-2.009 1.058-3.593 1.43-4.693.4-1.088.616-1.694.582-1.709M201.226 225.614c.008-.009.019-.116.033-.317l.047-.876.14-3.271.405-11.52-.138.201c2.52-1.028 5.312-2.165 8.275-3.372l-.227-.018a16719.835 16719.835 0 017.156 4.357l-.124-.2 1.394 15.037.227-.25c-5.062.047-9.315.087-12.372.117l-3.527.059-.946.027c-.218.008-.334.017-.343.026-.018.017.397.033 1.192.052l3.475.06 12.52.117.252.001-.022-.251-1.331-15.042-.011-.13-.113-.069-.437-.265-6.728-4.078-.11-.067-.117.049-8.253 3.427-.136.055-.002.145-.18 11.671c-.008 1.343-.016 2.42-.022 3.221 0 .737.006 1.121.023 1.104M170.106 229.986c.013-.02-.038-.407-.142-1.113l-.464-3.03-1.724-10.648-.086.217 6.25-4.636-.217.041 7.6 2.114.387.108-.18-.178c1.453 4.954 2.82 9.608 3.997 13.625l.17-.286-11.228 2.678c-1.328.328-2.397.591-3.197.79-.746.188-1.152.297-1.166.318-.014.021.366-.049 1.093-.196l3.172-.661 11.426-2.484.237-.051-.068-.235-3.937-13.644-.04-.139-.14-.039-.389-.108-7.603-2.096-.119-.034-.098.075-6.218 4.679-.11.084.024.134 1.976 10.753.57 2.958c.135.675.211 1.024.224 1.004M213.532 201.013c.031-.14-4.065-1.148-9.147-2.252-5.083-1.104-9.228-1.885-9.258-1.744-.03.141 4.064 1.148 9.148 2.253 5.081 1.103 9.227 1.884 9.257 1.743" fill="#375a64"/><path d="M186.802 200.295c-.002-.065-.9-.108-2.347 0-1.446.107-3.434.384-5.59.879-2.159.49-4.068 1.117-5.415 1.652-1.348.536-2.137.967-2.11 1.027.031.072.868-.238 2.234-.68a64.065 64.065 0 015.406-1.491 65.46 65.46 0 015.515-1.02c1.422-.201 2.31-.29 2.307-.367" fill="#375a64"/><path d="M184.416 372.814c.742-2.14-1.795-3.965-4.004-4.472-2.208-.506-4.885-.823-5.897-2.85-.877-1.76.012-3.992-.787-5.788-1.519-3.417-7.656-2.703-8.859-6.244-.826-2.429 1.456-4.935 1.17-7.485-.246-2.197-2.258-3.692-4.023-5.022-1.766-1.33-3.62-3.165-3.343-5.358.322-2.533 3.413-4.286 3.13-6.824-.279-2.497-3.647-3.662-4.132-6.127-.575-2.925 3.087-4.806 4.265-7.545.9-2.093.344-4.787 1.863-6.485 1.557-1.739 4.32-1.398 6.602-.914 7.588 1.61 15.177 3.218 22.765 4.826-1.54 3.598-.092 7.81 2.101 11.05 2.193 3.24 5.115 5.976 7 9.406 1.884 3.43 2.503 8.02.036 11.056M224.45 354.611c-.13-.016-.016 1.463-.747 3.595-.199.51-.46 1.098-.91 1.477-.449.427-1.034.156-1.405-.458-.737-1.214-.985-2.914-1.003-4.614.017-1.699.266-3.4 1.003-4.614.371-.615.956-.885 1.405-.458.45.38.711.968.91 1.477.731 2.133.616 3.611.746 3.595.033 0 .09-.356.078-1.006a9.647 9.647 0 00-.428-2.726c-.196-.554-.418-1.19-.992-1.717-.276-.257-.766-.448-1.21-.282-.436.15-.732.48-.963.815-.873 1.393-1.114 3.137-1.142 4.917.03 1.78.27 3.523 1.142 4.916.231.334.527.665.962.815.445.166.935-.025 1.211-.283.574-.526.796-1.162.992-1.716a9.658 9.658 0 00.428-2.727c.012-.65-.045-1.006-.078-1.006" fill="#1a2e35"/><path d="M187.31 333.647c-4.117 6.958-5.297 16.228-6.338 24.247-.49 3.774-1.351 9.147 1.303 11.508 2.843 2.53 3.117 6.428 6.384 8.38 3.266 1.95 7.697 2.112 10.778-.12" fill="#1a2e35"/><path d="M198.721 308.998c6.314-.503 11.78 4.342 12.043 10.671.251 6.078.473 12.222.473 12.222s9.213.836 9.908 9.95c.695 9.113.451 30.157.451 30.157a31.762 31.762 0 01-32.107-1.969l.474-32.083-.05-17.26c.044-5.789 3.037-11.228 8.808-11.688" fill="#bf654e"/><path d="M212.092 352.996c-1.566 1.953-4.12 2.736-6.225 1.378-2.104-1.358-2.92-4.388-1.784-6.62.801-1.574 2.632-3.005 4.462-3.394 1.72-.365 2.935-2.031 2.73-3.777-.269-2.287-4.078-3.135-5.8-5.024-2.682-2.938-8.55-4.167-12.5-4.623-3.884-.447-3.415-.486-5.665 2.71-1.636 2.328-2.145 4.564-2.196 7.409l-.357 20.163c-.044 2.423-.083 4.877.48 7.234.563 2.356 1.805 4.645 3.833 5.97 2.222 1.454 5.03 1.57 7.56 2.379 3.158 1.012 5.846 3.098 8.804 4.6 2.958 1.503 6.582 2.396 9.543.899 2.126-1.075 3.546-3.203 5.613-4.387 2.942-1.685 6.955-1.316 8.373-5.653.49-1.5.448-3.143-.062-4.636-2.016-5.891-9.327-8.247-14.58-5.683-.106-.998.871-3.224-.19-6.377-.339-1.006-.463-2.544-2.039-2.568" fill="#1a2e35"/><path d="M210.445 347.31c.037-.014.036-.172-.127-.394-.159-.213-.505-.476-1.018-.504-1.021-.092-2.316 1.01-2.355 2.523-.042.736.232 1.458.675 1.926.437.475.973.721 1.429.818.94.193 1.48-.154 1.441-.214-.024-.103-.561.044-1.315-.229-.741-.236-1.667-1.067-1.579-2.272.029-1.189.978-2.058 1.709-2.09.763-.049 1.074.494 1.14.436" fill="#ae4f32"/><path d="M224.472 355.049c.026-.162-2.72-.746-6.133-1.305-3.414-.559-6.203-.881-6.229-.719-.027.161 2.718.745 6.133 1.304 3.414.559 6.202.881 6.23.72M188.043 324.754c.456-1.161 1.965-1.6 3.168-1.271 1.203.328 2.162 1.214 3.062 2.077.9.862 1.844 1.76 3.037 2.122 2.432.738 5.407-.884 7.452.625 1.863 1.373 1.619 4.482 3.448 5.9.97.754 2.323.85 3.31 1.58 1.849 1.366 1.544 4.415-.01 6.109-1.551 1.694-3.888 2.38-6.102 2.993l-19.588-8.348z" fill="#1a2e35"/><path d="M211.314 360.151c.005-.009-.05-.049-.163-.12-.113-.07-.282-.177-.518-.29-.464-.236-1.182-.53-2.145-.774-.96-.247-2.164-.425-3.558-.565-1.39-.15-2.982-.246-4.675-.646-1.67-.394-3.533-1.105-4.837-2.642-1.323-1.533-1.815-3.739-2.838-5.87-.515-1.064-1.25-2.12-2.28-2.87-1.012-.766-2.2-1.272-3.41-1.682-2.409-.807-5.057-1.29-7.062-2.99-.99-.829-1.643-1.963-1.808-3.205-.187-1.243-.034-2.524-.003-3.804.033-1.269-.062-2.632-.73-3.757-.62-1.138-1.629-1.946-2.642-2.549-2.049-1.206-4.196-1.845-5.91-2.938-.856-.536-1.594-1.18-2.109-1.944a5.137 5.137 0 01-.799-2.496c-.094-1.715.357-3.27.637-4.633.301-1.375.421-2.602.327-3.599-.085-.999-.38-1.744-.653-2.19-.276-.45-.495-.625-.495-.625-.08.026.818.86.918 2.832.056.968-.093 2.16-.42 3.507-.306 1.354-.8 2.911-.732 4.733.028.908.304 1.861.833 2.718.55.843 1.342 1.543 2.23 2.112 1.78 1.154 3.933 1.815 5.89 2.99.97.585 1.882 1.338 2.43 2.355.59.998.681 2.228.645 3.468-.03 1.245-.198 2.553 0 3.908.172 1.363.928 2.676 2.006 3.566 2.172 1.831 4.916 2.303 7.261 3.091 1.184.396 2.316.878 3.255 1.582.954.691 1.627 1.642 2.131 2.662 1.003 2.034 1.518 4.3 2.954 5.947 1.431 1.645 3.403 2.352 5.118 2.732 1.744.383 3.35.448 4.738.567 1.392.108 2.581.251 3.536.46 1.917.412 2.851 1.02 2.878.96" fill="#375a64"/><path d="M206.036 356.885c0-.064-.703 0-1.907-.274-1.19-.265-2.907-1.006-4.393-2.625a7.94 7.94 0 01-1.749-3.061c-.384-1.214-.363-2.618-.358-4.092-.01-1.463.06-3.11-.677-4.677a4.775 4.775 0 00-1.71-1.924c-.72-.487-1.51-.826-2.259-1.208-.748-.378-1.464-.792-1.948-1.385-.507-.577-.708-1.33-.766-2.098-.107-1.52.225-3.214-.524-4.67-.705-1.42-1.919-2.328-3.046-3.02-1.15-.685-2.265-1.19-3.21-1.76-.948-.565-1.735-1.183-2.26-1.87a5.13 5.13 0 01-.973-1.973c-.255-1.207.106-1.878.033-1.888-.01-.006-.11.144-.2.468-.092.32-.16.828-.059 1.465.112.632.393 1.389.935 2.127.531.75 1.347 1.426 2.304 2.028.957.608 2.072 1.14 3.172 1.82 1.08.685 2.204 1.572 2.813 2.84.65 1.262.345 2.82.437 4.476.053.824.288 1.744.891 2.432.576.702 1.37 1.147 2.133 1.536 1.538.744 3.082 1.433 3.716 2.859.664 1.376.634 2.96.652 4.423.012 1.47.001 2.928.434 4.235a8.263 8.263 0 001.912 3.202c1.598 1.659 3.413 2.362 4.652 2.565a6.033 6.033 0 001.452.109c.332-.02.504-.04.503-.06" fill="#375a64"/><path d="M213.473 323.376l-2.371 4.878-20.592.777-3.231-6.334h25.859" fill="#ff4f5b"/><path d="M284.246 279.335c-.148.74 5.448 29.815 6.99 37.8a1.69 1.69 0 01-1.66 2.01h-41.229a1.69 1.69 0 01-1.645-1.3l-8.443-35.593-20.808-1.552.731-1.365z" fill="#375a64"/><path d="M282.441 281.915l6.671 35.25-40.53-.245-8.901-35.055z" fill="#ececec"/><path d="M248.602 316.895l-8.89-35.005 42.709.05 6.66 35.199zm-8.953-35.055l.008.03 8.906 35.075h.019l40.56.245-.005-.03-6.675-35.27h-.021z" fill="#1a2e35"/><path d="M282.401 281.67c0-.144-11.86-.26-26.486-.26-14.631 0-26.488.116-26.488.26 0 .144 11.857.26 26.488.26 14.626 0 26.486-.116 26.486-.26" fill="#1a2e35"/><path d="M279.605 290.57c0-.018-.183-.035-.53-.052l-1.518-.05-5.586-.083c-4.717-.047-11.233-.076-18.428-.076l-5.915.007h-.327l.081.315 3.606 13.952 1.103 4.072c.267.95.427 1.463.457 1.456.03-.008-.073-.536-.287-1.499l-.957-4.108-3.43-13.997-.246.316 5.915.007c7.195 0 13.711-.03 18.428-.077l5.586-.082 1.518-.049c.347-.017.53-.035.53-.053" fill="#375a64"/><path d="M250.247 291.908l.758 3.4h5.216l-.666-3.4zM257.34 291.908l1.575 6.691h5.215l-1.483-6.69zM264.432 291.908l.758 3.4h5.216l-.667-3.4zM271.525 291.908l2.987 13h5.216l-2.896-13z" fill="#ff4f5b"/><path d="M254.339 288.109c-.008-.144-.952-.251-2.108-.241-1.156.01-2.098.137-2.103.28-.005.144.939.252 2.108.24 1.169-.01 2.11-.135 2.103-.28M261.214 288.12c-.008-.145-.952-.252-2.107-.242-1.157.011-2.099.137-2.103.281-.006.143.938.251 2.107.24 1.169-.01 2.111-.136 2.103-.28M268.09 288.13c-.008-.144-.952-.25-2.108-.24-1.157.011-2.098.136-2.103.28-.005.144.939.252 2.108.24 1.169-.01 2.11-.136 2.103-.28M274.966 288.141c-.008-.144-.952-.25-2.108-.24-1.156.01-2.098.136-2.102.28-.006.143.938.251 2.107.24 1.169-.01 2.11-.136 2.103-.28M264.855 311.64c0-.143-2.613-.26-5.836-.26-3.225 0-5.837.117-5.837.26 0 .145 2.612.26 5.837.26 3.223 0 5.836-.115 5.836-.26M258.717 313.085c0-.144-1.158-.26-2.587-.26-1.43 0-2.588.116-2.588.26 0 .144 1.158.26 2.588.26 1.429 0 2.587-.116 2.587-.26" fill="#375a64"/><path d="M247.536 257.898l23.86 17.271-.887 1.443a11.522 11.522 0 01-5.577 4.68l-3.73-.67-22.122-3.37zM162.714 261.868l19.822 7.876-4.425 16.42-16.155-5.493z" fill="#ff4f5b"/><path d="M246.712 257.436c4.939 2.454 6.208 8.348 3.796 13.308l-20.54 43.897a7.957 7.957 0 01-2.067 2.833c-8.076 7.012-16.99 5.818-16.99 5.818l-21.421.56s-16.827 0-23.14-13.261c-.462-.971-10.243-20.371-16.692-33.154-2.978-5.903-.143-13.082 6.064-15.36a11.058 11.058 0 0113.902 5.855l7.007 15.618 4.41-22.372-6.35-18.438 53.113-.728-4.084 24.664-1.29 17.586 10.772-22.213c2.438-5.026 8.507-7.098 13.51-4.613" fill="#ff4f5b"/><g clip-path="url(#n)" opacity=".2"><path d="M182.834 261.606c4.02-3.01 9.943-2.006 14.898-1.183 4.956.824 9.746 3.18 12.975 7.028 1.45 1.728 2.606 3.887 2.41 6.134-.197 2.246-2.183 4.414-4.422 4.145-2.567-.31-3.804-3.186-5.04-5.456-3.907-7.177-12.718-11.314-20.736-9.738 0 0-.8-.394-.085-.93"/></g><g clip-path="url(#o)" opacity=".2"><path d="M215.629 296.17c1.251-10.104.692-9.335 2.799-19.296 1.037-4.899 2.296-10.012 5.675-13.707l-1.674 21.094z"/></g><path d="M174.691 242.74l-1.522 4.435 3.957 2.635 48.721 4.018 3.435-6.454-1.479-5.363z" fill="#ff4f5b"/><path d="M184.75 326.332a7.382 7.382 0 01-4.303-4.608 7.376 7.376 0 01.92-6.238c.423-.625.968-1.26.929-2.013-.094-1.8-3.002-1.848-3.92-3.398-.611-1.037-.085-2.418.78-3.256.866-.837 2.007-1.318 2.998-2.003.99-.685 1.89-1.725 1.84-2.928 1.016.027 1.617 1.258 1.462 2.263-.156 1.005-.795 1.856-1.25 2.765-.455.91-.71 2.067-.126 2.899.665.946 2.02.985 3.097 1.403 2.09.81 3.203 3.514 2.288 5.562-.652 1.462-2.174 2.94-1.434 4.359.413.792 1.363 1.095 2.144 1.527 1.608.889 2.72 2.617 2.863 4.448.142 1.832-.688 3.712-2.14 4.839M176.5 281.41c.062-.032-.342-.989-1.08-2.495a86.214 86.214 0 00-3.124-5.76 86.497 86.497 0 00-3.55-5.512c-.967-1.37-1.61-2.185-1.669-2.146-.06.042.476.93 1.361 2.35.884 1.42 2.11 3.378 3.41 5.572 1.298 2.194 2.425 4.21 3.246 5.667.82 1.46 1.34 2.357 1.406 2.323" fill="#1a2e35"/><path d="M171.825 272.983c.131.015.305-1.694-.337-3.675-.628-1.986-1.763-3.276-1.86-3.187-.129.09.768 1.455 1.364 3.346.614 1.884.677 3.518.833 3.516M249.64 272.322c-.13-.06-4.286 8.634-9.279 19.418-4.995 10.787-8.938 19.578-8.807 19.639.13.06 4.284-8.633 9.28-19.42 4.992-10.784 8.935-19.576 8.805-19.637M224.337 317.164c.03-.083-.896-.41-2.22-1.234-1.318-.814-3.012-2.206-4.312-4.186-1.3-1.98-1.903-4.09-2.125-5.623-.231-1.542-.162-2.522-.251-2.527-.054-.008-.256.972-.114 2.571.132 1.586.7 3.801 2.055 5.864 1.354 2.064 3.159 3.466 4.562 4.218 1.41.766 2.39.97 2.405.917M180.978 260.959c-.14-.031-2.53 10.146-5.335 22.728-2.807 12.587-4.968 22.813-4.828 22.844.14.03 2.529-10.144 5.336-22.731 2.806-12.582 4.967-22.81 4.827-22.841" fill="#1a2e35"/><path d="M271.396 275.169l9.684 4.166h-12.9l2.818-3.652" fill="#bf654e"/><path d="M251.5 274.091c-.118-.09-1.081.981-2.35 2.208-1.264 1.234-2.363 2.164-2.275 2.285.079.113 1.343-.647 2.639-1.91 1.299-1.258 2.097-2.5 1.986-2.582M233.646 261.233c-.032-.017-.321.463-.815 1.347-.497.882-1.19 2.172-2.03 3.774-1.681 3.204-3.917 7.674-6.363 12.619-2.448 4.947-4.691 9.408-6.354 12.617-.798 1.542-1.461 2.822-1.97 3.802-.463.899-.704 1.404-.673 1.422.032.018.333-.455.85-1.324.522-.868 1.246-2.141 2.118-3.726 1.748-3.17 4.047-7.612 6.495-12.56l6.225-12.683c.764-1.561 1.396-2.856 1.88-3.848.44-.911.669-1.423.637-1.44" fill="#1a2e35"/><g><path d="M214.5 274.816c.019-.002.013-.122-.014-.349-.037-.224-.054-.565-.167-.985-.174-.85-.577-2.059-1.322-3.43-1.46-2.753-4.616-5.983-8.967-7.958-4.351-1.962-8.66-2.56-11.708-2.923a81.632 81.632 0 00-3.64-.33c-.861-.057-1.338-.07-1.342-.035-.004.036.467.117 1.32.236l3.614.494c3.028.454 7.279 1.11 11.539 3.031 4.25 1.932 7.359 5.03 8.864 7.667 1.55 2.645 1.7 4.62 1.824 4.582" fill="#1a2e35"/></g><g><path d="M203.816 249.053c.01-.143-6.578-.722-14.714-1.292-8.139-.572-14.742-.917-14.752-.774-.01.144 6.577.722 14.716 1.293 8.135.57 14.74.917 14.75.773" fill="#1a2e35"/></g><g><path d="M212.313 253.003c.132.034.776-2.174 1.068-4.986.3-2.812.13-5.105-.006-5.1-.151.002-.215 2.27-.512 5.045-.287 2.775-.697 5.008-.55 5.04" fill="#1a2e35"/></g><g><path d="M215.728 256.182c.064.01.273-.75.443-2.012.17-1.261.272-3.027.138-4.97-.138-1.942-.485-3.678-.83-4.902-.343-1.227-.656-1.95-.718-1.931-.157.046.775 3.043 1.028 6.87.282 3.823-.222 6.923-.061 6.945" fill="#1a2e35"/></g><g><path d="M213.526 323.027c-.008-.144-4.766.007-10.625.336-5.861.33-10.605.713-10.597.857.008.143 4.765-.007 10.626-.337 5.86-.328 10.604-.711 10.596-.855" fill="#1a2e35"/></g></g><path d="M904.846 260.133l-5.645-9.631-5.362 9.63h-76.02v39.745h118.376v-39.744z" fill="#007aff"/><g clip-path="url(#p)" transform="matrix(1.33333 0 0 -1.33333 0 666.667)"><path d="M629.332 289.736c1.522.624 2.615 2.179 2.64 4.023.03 2.416-1.781 4.398-4.046 4.428-2.264.03-4.125-1.905-4.156-4.32-.023-1.861 1.05-3.454 2.579-4.106-6.32-.897-6.091-7.758-6.091-7.758l14.923-.196s.399 6.93-5.85 7.929M692.016 296.066c0-.084-11.33-.153-25.307-.153-13.979 0-25.308.069-25.308.153 0 .084 11.33.152 25.308.152 13.976 0 25.307-.068 25.307-.152M692.016 291.52c0-.083-11.33-.152-25.307-.152-13.979 0-25.308.069-25.308.153 0 .084 11.33.152 25.308.152 13.976 0 25.307-.068 25.307-.152M692.016 286.976c0-.084-11.33-.153-25.307-.153-13.979 0-25.308.069-25.308.153 0 .084 11.33.153 25.308.153 13.976 0 25.307-.07 25.307-.153M666.709 282.477c0-.084-5.665-.153-12.653-.153-6.99 0-12.655.07-12.655.153 0 .084 5.665.153 12.655.153 6.988 0 12.653-.069 12.653-.153" fill="#fafafa"/></g><g clip-path="url(#q)" transform="matrix(1.33333 0 0 -1.33333 0 666.667)"><path d="M118.19 296.367a6.88 6.88 0 111.85-13.632 6.88 6.88 0 01-1.85 13.632m2.608 8.823a15.708 15.708 0 004.042-1.067l2.971 2.49 5.103-3.885-1.608-3.527a15.68 15.68 0 002.106-3.611l3.86-.34.862-6.355-3.63-1.357a15.668 15.668 0 00-1.067-4.042l2.49-2.971-3.884-5.103-3.527 1.608a15.729 15.729 0 00-3.613-2.106l-.339-3.86-6.355-.863-1.357 3.63a15.72 15.72 0 00-4.042 1.068l-2.97-2.49-5.105 3.884 1.61 3.527a15.758 15.758 0 00-2.107 3.612l-3.859.34-.862 6.355 3.63 1.356a15.664 15.664 0 001.066 4.043l-2.489 2.97 3.883 5.104 3.527-1.608a15.693 15.693 0 003.613 2.106l.34 3.859 6.354.862z" fill="#ff4f5b"/><path d="M118.19 296.367c-.004.019.145.05.432.093.287.048.72.072 1.272.027 1.09-.078 2.76-.525 4.218-1.938 1.452-1.36 2.54-3.844 1.97-6.507a7.027 7.027 0 00-2.005-3.631c-1.037-1.032-2.464-1.732-4-1.953-1.539-.196-3.102.097-4.377.816a7.036 7.036 0 00-2.9 2.966c-1.26 2.415-.874 5.1.165 6.796 1.03 1.752 2.52 2.627 3.548 2.992.521.19.945.283 1.234.313.288.035.44.045.442.026.011-.06-.603-.12-1.595-.54a6.86 6.86 0 01-3.288-2.984c-.939-1.628-1.246-4.14-.053-6.365a6.562 6.562 0 012.707-2.726c1.183-.658 2.621-.924 4.042-.744 1.418.207 2.733.845 3.697 1.795a6.563 6.563 0 011.883 3.348c.556 2.463-.409 4.8-1.748 6.12a6.863 6.863 0 01-3.964 2c-1.069.142-1.677.036-1.68.096" fill="#ff4f5b"/><path d="M120.798 305.19c-.005-.006-.039.066-.102.216l-.276.678-1.062 2.704.095-.056-6.347-.915.121.127-.318-3.86-.008-.098-.092-.039a15.665 15.665 0 01-3.562-2.099l-.087-.068-.101.046-3.534 1.593.239.061-3.866-5.116-.007.273 2.498-2.964.09-.106-.053-.129a15.551 15.551 0 01-1.043-3.984l-.017-.144-.136-.052-3.627-1.363.159.265.873-6.353-.233.222 3.859-.335.159-.013.062-.148a15.585 15.585 0 012.074-3.548l.1-.128-.067-.148c-.503-1.106-1.052-2.31-1.605-3.529l-.083.33 5.105-3.882-.344-.008 2.97 2.491.129.108.155-.064a15.46 15.46 0 013.967-1.048h.003l.226-.179.002-.004.002-.006.006-.015.01-.028.022-.058.042-.114.086-.228.171-.457.34-.91.675-1.81-.296.178 6.355.86-.237-.248.342 3.86.015.164.152.063a15.49 15.49 0 013.552 2.067l.129.1.148-.068c1.192-.545 2.366-1.082 3.525-1.61l-.32-.082 3.89 5.097.008-.319-2.485 2.976-.097.116.058.14a15.482 15.482 0 011.059 3.975l.019.145.136.051 3.632 1.348-.148-.248-.843 6.358.192-.183-3.859.353-.121.011-.046.111a15.547 15.547 0 01-2.066 3.576l-.068.088.046.1 1.624 3.52.05-.199-5.079 3.915.156.004c-1.193-.98-2.173-1.787-2.993-2.463l-.043-.035-.049.021a16.533 16.533 0 01-2.993.942l-.763.151c-.177.032-.256.051-.252.057.005.005.095.002.259-.01.171-.019.43-.049.773-.108.685-.12 1.722-.34 3.044-.867l-.091-.014 2.948 2.517.075.064.08-.06 5.127-3.853.104-.079-.054-.12-1.591-3.534-.022.187a15.845 15.845 0 002.146-3.647l-.166.122 3.861-.327.169-.014.023-.169.88-6.352.025-.183-.173-.065-3.626-1.365.154.195a15.937 15.937 0 00-1.076-4.107l-.039.254 2.494-2.966.132-.156-.124-.163-3.876-5.108-.128-.169-.193.088-3.529 1.604.277.032a16.013 16.013 0 00-3.673-2.145l.167.228-.337-3.86-.019-.219-.218-.029-6.355-.866-.219-.029-.078.208-.676 1.81-.341.91-.17.455-.086.23-.042.113-.022.057-.01.03-.006.013-.003.007-.001.004.225-.178h-.003c-1.45.18-2.861.57-4.109 1.086l.283.044-2.972-2.489-.169-.14-.175.132-5.101 3.887-.173.132.09.198 1.612 3.525.032-.276a16.066 16.066 0 00-2.137 3.675l.22-.16-3.859.344-.206.02-.027.203-.852 6.356-.026.197.185.07 3.632 1.347-.154-.194a15.922 15.922 0 001.094 4.1l.036-.235-2.482 2.978-.112.135.106.138 3.899 5.09.097.126.143-.066c1.235-.568 2.423-1.116 3.521-1.62l-.187-.023a15.924 15.924 0 003.661 2.112l-.1-.136.362 3.857.011.114.111.014 6.361.81.072.01.023-.067.961-2.703.241-.706c.052-.16.077-.245.072-.25" fill="#ff4f5b"/><path d="M107.361 256.768c-.001.012.091.032.272.059.18.029.452.045.799.017a4.308 4.308 0 002.649-1.218c.912-.853 1.595-2.414 1.237-4.086a4.414 4.414 0 00-1.259-2.28c-.652-.65-1.548-1.088-2.512-1.227-.967-.124-1.948.062-2.749.513a4.413 4.413 0 00-1.822 1.862c-.791 1.516-.548 3.203.104 4.269a4.301 4.301 0 002.229 1.878c.326.12.593.178.774.197.181.022.277.028.278.016.007-.037-.378-.075-1.002-.34a4.307 4.307 0 01-2.064-1.873c-.59-1.022-.783-2.6-.034-3.997.361-.69.95-1.314 1.7-1.712.743-.414 1.646-.58 2.539-.467.89.129 1.716.53 2.321 1.126a4.125 4.125 0 011.183 2.103c.349 1.547-.257 3.015-1.098 3.844a4.304 4.304 0 01-2.489 1.256c-.671.089-1.053.022-1.056.06" fill="#1a2e35"/><path d="M109 262.31a.672.672 0 00-.064.134l-.174.426-.666 1.698.059-.035-3.986-.574.076.08-.2-2.425-.004-.06-.058-.026a9.805 9.805 0 01-2.238-1.318l-.054-.043-.064.03c-.691.311-1.44.65-2.22 1l.152.038-2.43-3.213-.003.171 1.569-1.86.056-.067-.033-.082a9.747 9.747 0 01-.655-2.502l-.011-.09-.086-.033-2.277-.856.1.167.548-3.99-.147.14 2.424-.21.1-.01.039-.093a9.718 9.718 0 011.303-2.227l.063-.08-.043-.094-1.008-2.216-.052.206 3.206-2.436-.216-.006 1.866 1.564.08.07.098-.042a9.705 9.705 0 012.492-.658c.064-.05-.14.112.144-.113v-.002l.002-.004.003-.009.007-.018.013-.036.027-.07.054-.145.107-.287.213-.57.425-1.138-.186.111 3.99.541-.148-.156.215 2.424.009.103.096.04a9.714 9.714 0 012.23 1.297l.08.064.094-.043 2.214-1.012-.201-.05 2.443 3.2.005-.2-1.561 1.868-.061.074.037.087c.338.815.559 1.66.665 2.498l.012.09.085.032 2.28.847-.092-.155-.53 3.992.12-.115-2.422.222-.076.007-.028.07a9.818 9.818 0 01-1.298 2.245l-.043.056.029.062 1.02 2.211.03-.125-3.188 2.46.097.001c-.748-.616-1.364-1.123-1.88-1.546l-.026-.022-.031.012c-.814.344-1.455.5-1.88.592l-.48.095a.65.65 0 00-.157.036c.003.003.06.001.163-.007.107-.012.27-.03.485-.067a9.393 9.393 0 001.912-.545l-.058-.008 1.852 1.58.047.04.05-.038 3.22-2.419.066-.05-.034-.075-1-2.22-.014.118a9.942 9.942 0 001.349-2.29l-.105.076 2.425-.205.106-.009.015-.106.552-3.989.016-.115-.11-.04-2.276-.859.097.123a10.068 10.068 0 00-.676-2.58l-.025.161 1.567-1.864.083-.097-.08-.103-2.433-3.208-.08-.105-.121.054-2.216 1.007.174.021a10.055 10.055 0 00-2.307-1.347l.105.143-.212-2.424-.012-.138-.137-.019-3.991-.542-.138-.019-.05.13-.423 1.137-.214.571-.107.287-.053.144-.027.071-.014.036-.007.018-.003.008-.002.005-.001.002c.284-.223.079-.06.142-.11h-.002c-.911.112-1.797.356-2.581.681l.178.028-1.866-1.564-.107-.089-.11.084c-1.102.84-2.19 1.668-3.203 2.442l-.11.083.058.124 1.012 2.214.02-.174a10.09 10.09 0 00-1.342 2.308l.138-.1-2.423.216-.13.011-.017.13-.535 3.991-.016.124.116.043 2.28.846-.095-.122c.116.926.367 1.811.686 2.575l.023-.147-1.558 1.87-.071.085.067.086 2.449 3.197.06.08.09-.042c.776-.357 1.522-.7 2.21-1.019l-.117-.013c.745.573 1.529 1.01 2.3 1.326l-.063-.085.228 2.422.006.071.07.01 3.995.508.045.006.015-.042.603-1.697.152-.443c.032-.1.048-.155.045-.158" fill="#1a2e35"/><path d="M198.488 435.269c.787 11.983 11.139 21.059 23.122 20.272 11.982-.787 21.058-11.138 20.27-23.121-.786-11.983-11.137-21.06-23.12-20.272-11.982.787-21.06 11.139-20.272 23.12" fill="#f5f5f5"/><path d="M198.488 435.269c.009 0 .016-.12.02-.354l.01-1.033c0-.23 0-.483.002-.76.012-.28.054-.584.083-.914.064-.66.115-1.423.314-2.263.278-1.696.937-3.721 2.038-5.892a21.592 21.592 0 015.089-6.456c2.316-1.985 5.286-3.74 8.79-4.596 3.48-.834 7.46-.983 11.338.207.983.246 1.919.663 2.878 1.048.917.475 1.877.906 2.74 1.519.912.542 1.723 1.24 2.569 1.91.774.75 1.583 1.483 2.264 2.349 1.393 1.689 2.636 3.586 3.452 5.707a22.956 22.956 0 011.55 6.693 22.995 22.995 0 01-.66 6.84c-.531 2.21-1.516 4.254-2.676 6.11-.562.949-1.27 1.78-1.937 2.627-.752.774-1.465 1.573-2.297 2.23-.776.72-1.673 1.273-2.52 1.864-.9.508-1.774 1.044-2.716 1.416-3.69 1.688-7.655 2.06-11.215 1.688-3.586-.393-6.76-1.743-9.316-3.408a21.57 21.57 0 01-5.888-5.736c-1.376-2.008-2.294-3.93-2.791-5.574-.307-.806-.457-1.556-.607-2.202-.072-.324-.153-.62-.202-.895l-.1-.753-.145-1.024c-.035-.23-.058-.348-.067-.348-.01 0-.003.12.015.353l.095 1.032.076.76c.042.279.115.579.179.906.135.654.272 1.414.567 2.232.473 1.669 1.373 3.625 2.744 5.675a21.693 21.693 0 005.925 5.875c2.585 1.713 5.81 3.108 9.464 3.528 3.628.398 7.678.034 11.455-1.677.964-.378 1.859-.922 2.782-1.44.867-.601 1.784-1.165 2.58-1.9.853-.67 1.585-1.485 2.354-2.276.687-.863 1.41-1.714 1.987-2.682 1.19-1.9 2.2-3.99 2.747-6.253.572-2.251.803-4.618.678-7.002a23.461 23.461 0 00-1.59-6.851c-.838-2.171-2.112-4.112-3.54-5.838-.7-.883-1.527-1.632-2.32-2.398-.866-.684-1.698-1.396-2.631-1.948-.885-.624-1.868-1.064-2.806-1.546-.982-.392-1.941-.815-2.946-1.063-3.967-1.203-8.03-1.035-11.574-.166-3.57.893-6.583 2.699-8.923 4.735a21.713 21.713 0 00-5.106 6.598c-1.091 2.213-1.728 4.269-1.98 5.986-.184.85-.221 1.622-.27 2.288-.02.332-.053.639-.058.92l.024.765.04 1.036c.013.233.023.352.032.35" fill="#1a2e35"/><path d="M230.057 433.175c0-.018-.272-.035-.769-.05l-2.113-.042a621.915 621.915 0 00-7.112-.047h-.139V434.586c0 3.15.014 6 .04 8.065l.045 2.443c.016.578.035.896.054.896.02 0 .038-.318.055-.896l.045-2.443c.025-2.064.041-4.915.041-8.065v-1.41l-.14.14c2.82-.005 5.318-.022 7.111-.047l2.113-.043c.497-.016.77-.033.77-.05M220.13 452.016c.079 0 .142-.818.142-1.827 0-1.008-.063-1.826-.141-1.826-.078 0-.141.818-.141 1.826 0 1.01.063 1.827.14 1.827M230.038 449.083c.055-.055-.471-.67-1.174-1.372-.703-.704-1.317-1.23-1.372-1.174-.055.055.47.67 1.173 1.373.704.702 1.318 1.228 1.373 1.173M235.83 442.755c.036-.071-.654-.485-1.499-1-.845-.513-1.53-.934-1.577-.87-.045.062.575.59 1.431 1.11.856.522 1.611.828 1.645.76M239.225 433.364c0-.078-1.115-.14-2.49-.14-1.376 0-2.49.062-2.49.14 0 .078 1.114.141 2.49.141 1.375 0 2.49-.063 2.49-.14M204.689 433.697c0-.078-1.053-.141-2.352-.141-1.3 0-2.353.063-2.353.14 0 .078 1.054.141 2.353.141 1.299 0 2.352-.062 2.352-.14M207.131 426.705c.051-.06-.745-.78-1.777-1.612-1.033-.832-1.908-1.456-1.954-1.393-.047.062.749.784 1.777 1.612 1.028.828 1.903 1.452 1.954 1.393M213.157 421.298c.065-.047-.525-.955-1.21-2.097-.687-1.14-1.211-2.088-1.284-2.053-.068.032.348 1.045 1.043 2.198.692 1.155 1.39 1.997 1.45 1.952M220.13 414.325c-.077 0-.14 1.115-.14 2.49 0 1.376.063 2.49.14 2.49.079 0 .142-1.114.142-2.49 0-1.375-.063-2.49-.141-2.49M230.866 417.643c-.04-.062-1.014.498-2.054 1.407-1.042.906-1.73 1.795-1.674 1.842.061.054.833-.739 1.86-1.63 1.022-.895 1.913-1.55 1.868-1.619M235.904 423.07c-.055-.055-.793.595-1.649 1.45-.856.856-1.506 1.594-1.45 1.65.055.053.793-.596 1.65-1.452.854-.856 1.504-1.594 1.45-1.649M206.903 440.393c-.055-.055-.707.508-1.456 1.256-.75.75-1.311 1.401-1.256 1.456.055.055.707-.507 1.456-1.256.748-.749 1.31-1.4 1.256-1.456M213.12 446.943c-.055-.055-.695.494-1.43 1.226-.736.732-1.287 1.37-1.233 1.424.056.056.696-.493 1.431-1.225.735-.732 1.287-1.37 1.232-1.425M310.415 151.137c0-.02-.292-.038-.849-.057-.609-.012-1.419-.03-2.434-.052-2.172-.022-5.216-.05-8.953-.088l-29.536-.082h-2.105l-.28.001.001.278.086 28.13.087 8.452.051 2.29c.017.524.036.798.055.798.018 0 .036-.274.054-.798l.051-2.29.086-8.452.087-28.13-.278.278h2.105l29.536-.082 8.953-.088 2.434-.052c.557-.019.85-.037.85-.056" fill="#1a2e35"/><path d="M305.54 181.182c.025-.029-.443-.473-1.31-1.25l-3.704-3.253a1444.72 1444.72 0 00-12.357-10.568l-.734-.62-.189-.16-.18.167-5.496 5.107.343-.008-8.072-6.657c-.949-.76-1.73-1.384-2.343-1.873-.55-.429-.855-.649-.875-.626-.019.022.251.286.767.755l2.247 1.986 7.942 6.812.173.148.17-.156 5.522-5.079-.369.008.734.621a1436.2 1436.2 0 0012.462 10.444l3.82 3.117c.91.727 1.424 1.114 1.45 1.085" fill="#1a2e35"/><path d="M305.54 171.99c-.075 0-.143 1.04-.193 2.737-.05 1.698-.082 4.049-.085 6.67l.278-.278h-.474c-2.73 0-5.2.03-6.989.082-1.788.05-2.894.12-2.894.197 0 .076 1.106.147 2.894.196 1.788.05 4.26.083 6.99.083h.473l.28-.001-.002-.28a249.14 249.14 0 00-.086-6.67c-.05-1.695-.117-2.736-.192-2.736" fill="#1a2e35"/></g></svg>