<svg version="1.1" viewBox="0 0 50 200" xmlns="http://www.w3.org/2000/svg">
 <path d="m7e-5 150.63c0 2.0555 0.45806 3.6436 1.373 4.7461 0.91498 1.1212 2.1537 1.776 3.7168 1.9629 0.68626 0.11212 2.8786 0.16686 6.5958 0.18555v2.4863h6.0997v-2.6172h21.922v-6.7266h-21.922v-4.4844h-6.0997v3.9238l-3.5078-0.0176c-0.80062 0-1.3347-0.13096-1.6016-0.39258-0.34312-0.35503-0.51368-0.93391-0.51368-1.7188 0-0.61664 0.15158-1.4025 0.43751-2.3555h-5.4708c-0.68625 1.8686-1.0293 3.5316-1.0293 5.0078zm10.789-55.461c0 3.0085 0.66808 5.7173 2.0215 8.1465 1.3534 2.4292 3.2022 4.3167 5.547 5.6621 2.3637 1.3454 4.9376 2.0195 7.7208 2.0195 4.0412 0 7.5664-1.3829 10.578-4.1484 3.0118-2.7656 4.5176-6.5779 4.5176-11.455 0-5.4004-2.0004-9.5855-5.9845-12.557l-6.2521-5.1582c2.9737-0.54191 5.5848-1.9061 7.8341-4.1484 2.9546-2.9338 4.4219-6.4844 4.4219-10.633 0-2.803-0.6676-5.4005-2.002-7.7363s-3.1817-4.1847-5.5646-5.5488c-2.3637-1.3454-4.9186-2.0371-7.6446-2.0371-2.7259-0.0374-5.2432 0.63506-7.588 1.9805-2.3256 1.3454-4.1935 3.2145-5.547 5.625-1.3725 2.4105-2.0391 4.971-2.0391 7.6992 0 3.7746 1.3162 7.1181 3.9277 10.033 0.40031 0.42979 0.81892 0.84196 1.2383 1.2344h-0.01953l15.193 14.051 0.11327 0.0937c2.1921 1.7191 3.2793 4.1305 3.2793 7.2324 0 2.5227-0.78067 4.5595-2.3438 6.0918-1.5631 1.551-3.5844 2.3164-6.0625 2.3164-2.5543 0-4.6321-0.80398-6.2716-2.4297-1.6203-1.6257-2.4395-3.755-2.4395-6.3711 0-1.4388 0.24806-2.6916 0.72461-3.7754 0.47655-1.0651 1.3528-2.1662 2.5918-3.25l-3.3359-5.8496c-2.1159 1.4015-3.7547 3.2138-4.8984 5.4375-1.1437 2.205-1.7168 4.709-1.7168 7.4746zm0.32423 77.006c0 1.308 0.26656 2.58 0.78126 3.832 0.53374 1.252 1.4493 2.6533 2.8027 4.1855h-3.0117v6.9141h28.021v-6.9141h-11.076c-2.8784 0-4.7457-0.0944-5.6035-0.28125-1.6584-0.37373-2.9356-1.045-3.8887-1.998-0.93406-0.97167-1.4102-2.1125-1.4102-3.4766 0-1.0277 0.28555-1.9063 0.85742-2.5977 0.57188-0.71009 1.3915-1.1963 2.459-1.4766 1.0865-0.2803 3.278-0.4297 6.5567-0.4297h12.105v-6.9141h-18.434c-3.2024 0-5.6229 0.78582-7.2813 2.3555-1.9253 1.85-2.8789 4.1286-2.8789 6.8008zm0.05664-138.28c0 1.2706 0.3626 2.4116 1.0488 3.4394 0.7053 1.0464 3.0703 2.5215 3.0703 2.5215h-3.6035v5.9805h28.021v-6.9142h-11.209l-1.3535-0.0936c-3.8887 0-6.4997-0.35442-7.8341-1.0646-1.3344-0.71008-2.002-1.5699-2.002-2.5976 0-0.50449 0.20908-1.1389 0.60939-1.9237l-6.0235-2.0743c-0.47656 0.95303-0.72463 1.8671-0.72463 2.7267zm0-20.908c0 1.6631 0.32408 3.2312 0.95313 4.6699 0.62906 1.4576 1.5837 2.8223 2.8418 4.0742h-3.2793v6.9142h38.314v-6.9142h-13.516c1.3534-1.3454 2.327-2.7277 2.918-4.0918 0.59093-1.3829 0.89454-2.859 0.89454-4.4474 0-3.5691-1.3903-6.6711-4.1543-9.2872-2.7831-2.616-6.2341-3.9062-10.352-3.9062-4.289 0-7.7766 1.2516-10.521 3.793-2.7259 2.5226-4.0996 5.5888-4.0996 9.1953zm0.01952 116.06c0 3.6252 1.2587 6.8192 3.7559 9.6035 2.8974 3.1767 6.4816 4.7656 10.809 4.7656 4.0412 0 7.4719-1.4021 10.293-4.2051 2.8212-2.803 4.2324-6.2034 4.2324-10.184 0-2.6908-0.64862-5.1756-1.9258-7.418-1.2772-2.2424-3.0504-4.0173-5.3379-5.3066-2.2684-1.2894-4.7088-1.9434-7.3204-1.9434-2.5734-0.0187-4.9944 0.63446-7.2247 1.9238-2.2303 1.2894-4.0031 3.0844-5.3184 5.3828s-1.9629 4.7648-1.9629 7.3809zm0.4961 70.951h28.021v-6.9141h-28.021zm5.756-137.27c0-2.3732 0.80214-4.336 2.3652-5.8496 1.5822-1.5323 3.64-2.2969 6.1562-2.2969 2.5162 0 4.575 0.78498 6.1954 2.3359 1.6012 1.551 2.4023 3.5119 2.4023 5.8477s-0.80067 4.2802-2.3828 5.8125c-1.5822 1.5136-3.6605 2.2793-6.2149 2.2793-2.4781 0-4.5179-0.76741-6.1192-2.3184-1.6012-1.5323-2.4023-3.4748-2.4023-5.8106zm0.38281-48.248c0-2.1863 0.74316-3.9987 2.2109-5.4375 1.4678-1.439 3.3536-2.1484 5.6603-2.1484 2.3256 0 4.2319 0.72801 5.7189 2.1856 1.5059 1.4574 2.25 3.2701 2.25 5.4004 0 2.205-0.74269 4.0365-2.1914 5.494-1.4678 1.4576-3.3931 2.1856-5.795 2.1856-2.3256 0-4.2139-0.7279-5.6816-2.1856-1.4487-1.4575-2.1719-3.2891-2.1719-5.494zm0.01762 114.44c0-2.2237 0.72558-4.0553 2.1934-5.4941 1.4678-1.4388 3.3546-2.1484 5.6993-2.1484 2.3065-0.0374 4.2124 0.71044 5.6993 2.168 1.4868 1.4575 2.2305 3.2872 2.2305 5.4922s-0.74269 4.0182-2.1914 5.457c-1.4678 1.4388-3.3941 2.1484-5.7579 2.1484-2.2875 0-4.1733-0.72914-5.6603-2.168-1.4678-1.4388-2.2129-3.2688-2.2129-5.4551z" fill="#808080"/>
</svg>
