<svg width="280mm" height="65.588mm" version="1.1" viewBox="0 0 280 65.588" xmlns="http://www.w3.org/2000/svg">
 <g transform="translate(0 -231.41)">
  <g fill="none" stroke-linecap="round" stroke-linejoin="round" stroke-miterlimit="10">
   <g stroke="#3a4144" stroke-width=".6617">
    <path d="m77.582 285.16h15.386"/>
    <path d="m65.84 285.16h6.2028"/>
    <path d="m96.12 276.22h140.36"/>
    <path d="m240.02 276.22h9.2831"/>
   </g>
   <path d="m9.217 251.93h29.873" stroke="#fff" stroke-width=".6617"/>
   <path d="m106.3 296.67h9.4974" stroke="#fff" stroke-width=".6617"/>
   <g stroke="#3a4144">
    <g stroke-width=".6617">
     <path d="m259.76 276.22h9.2838"/>
     <path d="m82.691 238.75c-0.63447-0.13523-1.2967-0.20659-1.9779-0.20659-3.9147 0-7.2058 2.3646-8.1589 5.5711-0.62568-0.21998-1.3062-0.34461-2.0204-0.34461-3.0329 0-5.4917 2.1805-5.4917 4.8707 0 2.6899 2.4588 4.8707 5.4917 4.8707h4.4978"/>
     <path d="m87.881 242.07c-0.81856-1.1662-1.9888-2.1185-3.3793-2.7391"/>
     <path d="m93.836 246.24c-0.78308-0.55088-1.7738-0.87992-2.8512-0.87992-0.6559 0-1.2784 0.12401-1.8426 0.34368-0.039-0.81198-0.22344-1.5903-0.53083-2.315"/>
     <path d="m80.683 253.51h10.302c2.5368 0 4.5938-1.8243 4.5938-4.0746"/>
     <path d="m76.581 253.51h2.5519"/>
    </g>
    <path d="m15.639 281.07h102.08" stroke-width=".66179"/>
    <path d="m92.968 285.16c0-0.91698 0.83823-1.6608 1.8721-1.6608 1.0343 0 1.8725 0.74378 1.8725 1.6608 0 0.91734-0.83823 1.6604-1.8725 1.6604-1.0339 0-1.8721-0.74306-1.8721-1.6604z" stroke-width=".6617"/>
   </g>
   <path d="m230.07 293.26c0-0.9173 0.83824-1.6607 1.8722-1.6607 1.0342 0 1.8725 0.74344 1.8725 1.6607 0 0.91698-0.83824 1.6607-1.8725 1.6607-1.0339 0-1.8722-0.74375-1.8722-1.6607z" stroke="#fff" stroke-width=".6617"/>
   <path d="m0.33085 293.26c0-0.9173 0.83837-1.6607 1.8725-1.6607 1.0341 0 1.8724 0.74344 1.8724 1.6607 0 0.91698-0.83834 1.6607-1.8724 1.6607-1.0342 0-1.8725-0.74375-1.8725-1.6607z" stroke="#fff" stroke-width=".6617"/>
  </g>
  <path d="m112.52 272.61-4.5354-0.71321 5.745-28.728 4.5354 0.71321-5.745 28.728" fill="#fab44e"/>
  <g fill="none" stroke="#3a4144" stroke-linecap="round" stroke-linejoin="round" stroke-miterlimit="10" stroke-width=".6617">
   <path d="m112.52 272.61-4.5354-0.71321 5.745-28.728 4.5354 0.71321z"/>
   <path d="m113.42 244.69 2.0422 0.32125"/>
   <path d="m113.1 246.3 1.0209 0.16077"/>
   <path d="m112.78 247.9 1.0209 0.16046"/>
   <path d="m112.46 249.51 1.0212 0.16078"/>
   <path d="m112.14 251.11 2.0422 0.32156"/>
   <path d="m111.82 252.72 1.0213 0.16047"/>
   <path d="m111.5 254.33 1.0209 0.16046"/>
   <path d="m111.18 255.93 1.0213 0.16047"/>
   <path d="m110.86 257.54 2.0422 0.32124"/>
   <path d="m110.53 259.14 1.0213 0.16045"/>
   <path d="m110.21 260.75 1.0209 0.16078"/>
   <path d="m109.89 262.35 1.0209 0.16045"/>
   <path d="m109.57 263.96 2.0422 0.32124"/>
   <path d="m109.25 265.56 1.0213 0.16047"/>
   <path d="m108.93 267.17 1.0213 0.16047"/>
   <path d="m108.61 268.77 1.0213 0.16078"/>
   <path d="m108.29 270.38 2.0422 0.32125"/>
  </g>
  <path d="m111.55 272.15-2.4581-0.76618 6.93-17.491 2.4581 0.76619-6.93 17.491" fill="#93d9bd"/>
  <path d="m111.55 272.15-2.4581-0.76618 6.93-17.491 2.4581 0.76619z" fill="none" stroke="#3a4144" stroke-linecap="round" stroke-linejoin="round" stroke-miterlimit="10" stroke-width=".6617"/>
  <path d="m116.03 253.9 2.1609-1.9686 0.29721 2.7348z" fill="#fab44e"/>
  <path d="m116.03 253.9 2.1609-1.9686 0.29721 2.7348z" fill="none" stroke="#3a4144" stroke-linecap="round" stroke-linejoin="round" stroke-miterlimit="10" stroke-width=".6617"/>
  <path d="m117.33 252.71 0.97137 0.30255-0.11734-1.0806z" fill="#3a4144"/>
  <path d="m117.33 252.71 0.97137 0.30255-0.11734-1.0806z" fill="none" stroke="#3a4144" stroke-linecap="round" stroke-linejoin="round" stroke-miterlimit="10" stroke-width=".6617"/>
  <path d="m110.33 271.77 6.9303-17.49" fill="none" stroke="#3a4144" stroke-linecap="round" stroke-linejoin="round" stroke-miterlimit="10" stroke-width=".6617"/>
  <path d="m111.16 273.14-2.4582-0.76619 0.39033-0.98491 2.4581 0.76618-0.3903 0.98492" fill="#c4cbc9"/>
  <path d="m111.16 273.14-2.4582-0.76619 0.39033-0.98491 2.4581 0.76618z" fill="none" stroke="#3a4144" stroke-linecap="round" stroke-linejoin="round" stroke-miterlimit="10" stroke-width=".6617"/>
  <path d="m110.43 275-2.4582-0.76617 0.73775-1.8617 2.4582 0.76619-0.73775 1.8617" fill="#f0f0ef"/>
  <path d="m110.43 275-2.4582-0.76617 0.73775-1.8617 2.4582 0.76619z" fill="none" stroke="#3a4144" stroke-linecap="round" stroke-linejoin="round" stroke-miterlimit="10" stroke-width=".6617"/>
  <path d="m105.91 253.88 2.5944-0.21344 1.9319 18.46-2.5944 0.21375-1.9319-18.46" fill="#ee43aa"/>
  <path d="m105.91 253.88 2.5944-0.21344 1.9319 18.46-2.5944 0.21375z" fill="none" stroke="#3a4144" stroke-linecap="round" stroke-linejoin="round" stroke-miterlimit="10" stroke-width=".6617"/>
  <path d="m110.43 272.13-1.0378 2.5889-1.5567-2.3752z" fill="#fab44e"/>
  <path d="m110.43 272.13-1.0378 2.5889-1.5567-2.3752z" fill="none" stroke="#3a4144" stroke-linecap="round" stroke-linejoin="round" stroke-miterlimit="10" stroke-width=".6617"/>
  <path d="m109.81 273.69-1.0251 0.0842 0.61514 0.93879z" fill="#3a4144"/>
  <path d="m109.81 273.69-1.0251 0.0842 0.61514 0.93879z" fill="none" stroke="#3a4144" stroke-linecap="round" stroke-linejoin="round" stroke-miterlimit="10" stroke-width=".6617"/>
  <path d="m107.21 253.77 1.9315 18.46" fill="none" stroke="#3a4144" stroke-linecap="round" stroke-linejoin="round" stroke-miterlimit="10" stroke-width=".6617"/>
  <path d="m105.8 252.84 2.5944-0.21376 0.10856 1.0398-2.5944 0.21344-0.10855-1.0394" fill="#c4cbc9"/>
  <path d="m105.8 252.84 2.5944-0.21376 0.10856 1.0398-2.5944 0.21344z" fill="none" stroke="#3a4144" stroke-linecap="round" stroke-linejoin="round" stroke-miterlimit="10" stroke-width=".6617"/>
  <path d="m105.59 250.88 2.5948-0.21373 0.20551 1.9648-2.5944 0.21376-0.20587-1.9649" fill="#f0f0ef"/>
  <path d="m105.59 250.88 2.5948-0.21373 0.20551 1.9648-2.5944 0.21376z" fill="none" stroke="#3a4144" stroke-linecap="round" stroke-linejoin="round" stroke-miterlimit="10" stroke-width=".6617"/>
  <path d="m116.79 264.23h-11.3v10.262c0 0.95469 0.87231 1.7284 1.9487 1.7284h7.4028c1.0764 0 1.9487-0.77366 1.9487-1.7284v-10.262" fill="#c4cbc9"/>
  <path d="m116.79 264.23h-11.3v10.262c0 0.95469 0.87231 1.7284 1.9487 1.7284h7.4028c1.0764 0 1.9487-0.77366 1.9487-1.7284z" fill="none" stroke="#3a4144" stroke-linecap="round" stroke-linejoin="round" stroke-miterlimit="10" stroke-width=".6617"/>
  <path d="m117.46 261.89h-12.647v2.3369h12.647v-2.3369" fill="#d7dcdb"/>
  <g fill="none" stroke="#3a4144" stroke-linecap="round" stroke-linejoin="round" stroke-miterlimit="10" stroke-width=".6617">
   <path d="m117.46 261.89h-12.647v2.3369h12.647z"/>
   <path d="m106.96 264.28v4.6557"/>
   <path d="m115.21 269.44v1.2591"/>
   <path d="m115.21 271.77v1.2591"/>
   <path d="m240.05 255.52c0.62886 1.1734 1.9772 1.9845 3.5395 1.9845h30.126c3.2893 0 5.9565-2.3652 5.9565-5.2829 0-2.9177-2.6671-5.2832-5.9565-5.2832-0.77501 0-1.5131 0.13524-2.1922 0.3739-1.0336-3.4779-4.6033-6.0431-8.8496-6.0431-4.9233 0-8.9367 3.448-9.1425 7.7696-0.6127-0.23836-1.2876-0.37266-1.999-0.37266-2.3088 0-4.2456 1.3947-4.8109 3.2847-0.71421-0.84501-1.8496-1.394-3.132-1.394"/>
   <path d="m241.75 250.97c-1.2359 0.58391-2.0776 1.7386-2.0776 3.0678"/>
  </g>
  <g transform="matrix(.14059 0 0 .13532 145.34 231.76)">
   <path d="m504.5 27.68v327.16c0 11.145-9.0391 20.176-20.176 20.176h-175.62c-11.148 0-20.18-9.0312-20.18-20.176v-327.16c0-11.148 9.0312-20.18 20.18-20.18h175.62c11.141 0 20.18 9.0312 20.18 20.18z" fill="#93d9bd"/>
   <path d="m288.52 55.949h215.98v43.684h-215.98z" fill="#fff"/>
   <path d="m504.5 27.68v28.27h-215.98v-28.27c0-11.148 9.0312-20.18 20.18-20.18h175.62c11.141 0 20.18 9.0312 20.18 20.18z" fill="#fab44e"/>
   <path d="m504.5 325.93v28.91c0 11.145-9.0391 20.176-20.176 20.176h-175.62c-11.148 0-20.18-9.0312-20.18-20.176v-28.91z" fill="#fab44e"/>
   <path d="m223.48 27.68v327.16c0 11.145-9.0391 20.176-20.18 20.176h-175.62c-11.145 0-20.176-9.0312-20.176-20.176v-327.16c0-11.148 9.0312-20.18 20.176-20.18h175.62c11.141 0 20.18 9.0312 20.18 20.18z" fill="#fff"/>
   <g>
    <path d="m223.48 27.68v28.27h-215.98v-28.27c0-11.148 9.0312-20.18 20.176-20.18h175.62c11.141 0 20.18 9.0312 20.18 20.18z" fill="#93d9bd"/>
    <path d="m223.48 325.93v28.91c0 11.145-9.0391 20.176-20.18 20.176h-175.62c-11.145 0-20.176-9.0312-20.176-20.176v-28.91z" fill="#93d9bd"/>
    <path d="m33.516 116.02h163.95v49.188h-163.95z" fill="#fab44e"/>
   </g>
   <path d="m319.32 126.61h61.309v61.309h-61.309z" fill="#fff"/>
   <path d="m412.39 126.61h61.309v61.309h-61.309z" fill="#fab44e"/>
   <path d="m484.32 0h-175.62c-15.262 0-27.68 12.414-27.68 27.68v251.27c0 4.1445 3.3594 7.5 7.5 7.5 4.1445 0 7.5-3.3555 7.5-7.5v-251.27c0-6.9922 5.6875-12.68 12.68-12.68h175.62c6.9922 0 12.68 5.6875 12.68 12.68v327.16c0 6.9883-5.6875 12.676-12.68 12.676h-175.62c-6.9922 0-12.68-5.6875-12.68-12.676v-45.273c0-4.1445-3.3555-7.5-7.5-7.5-4.1406 0-7.5 3.3555-7.5 7.5v45.273c0 15.262 12.418 27.676 27.68 27.676h175.62c15.266 0 27.68-12.414 27.68-27.676v-327.16c0-15.266-12.414-27.68-27.68-27.68z" fill="none" stroke="#3a4144" stroke-width="5.0795"/>
   <g fill="#fff">
    <path d="m348.34 39.227h56.148c4.1445 0 7.5-3.3594 7.5-7.5 0-4.1445-3.3555-7.5-7.5-7.5h-56.148c-4.1445 0-7.5 3.3555-7.5 7.5 0 4.1406 3.3555 7.5 7.5 7.5z"/>
    <path d="m448.78 39.785c4.1445 0 7.5-3.3555 7.5-7.5v-1.1211c0-4.1445-3.3555-7.5-7.5-7.5-4.1406 0-7.5 3.3555-7.5 7.5v1.1211c0 4.1445 3.3594 7.5 7.5 7.5z"/>
    <path d="m429.25 39.785c4.1406 0 7.5-3.3555 7.5-7.5v-1.1211c0-4.1445-3.3594-7.5-7.5-7.5-4.1445 0-7.5 3.3555-7.5 7.5v1.1211c0 4.1445 3.3555 7.5 7.5 7.5z"/>
    <path d="m412.39 342.98h-31.77c-4.1406 0-7.5 3.3594-7.5 7.5 0 4.1445 3.3594 7.5 7.5 7.5h31.77c4.1445 0 7.5-3.3555 7.5-7.5 0-4.1406-3.3555-7.5-7.5-7.5z"/>
   </g>
   <path d="m203.3 0h-175.62c-15.262 0-27.676 12.414-27.676 27.68v159.27c0 4.1445 3.3594 7.5 7.5 7.5s7.5-3.3555 7.5-7.5v-159.27c0-6.9922 5.6875-12.68 12.676-12.68h175.62c6.9922 0 12.68 5.6875 12.68 12.68v327.16c0 6.9883-5.6875 12.676-12.68 12.676h-175.62c-6.9883 0-12.676-5.6875-12.676-12.676v-137.27c0-4.1445-3.3594-7.5-7.5-7.5s-7.5 3.3555-7.5 7.5v137.27c0 15.262 12.414 27.676 27.676 27.676h175.62c15.262 0 27.68-12.414 27.68-27.676v-327.16c0-15.266-12.418-27.68-27.68-27.68z" fill="none" stroke="#3a4144" stroke-width="5.0795"/>
   <g fill="#fff">
    <path d="m123.47 24.227h-56.152c-4.1406 0-7.5 3.3555-7.5 7.5 0 4.1406 3.3594 7.5 7.5 7.5h56.148c4.1445 0 7.5-3.3594 7.5-7.5 0-4.1445-3.3555-7.5-7.4961-7.5z"/>
    <path d="m167.76 23.664c-4.1445 0-7.5 3.3555-7.5 7.5v1.1211c0 4.1445 3.3555 7.5 7.5 7.5 4.1406 0 7.5-3.3555 7.5-7.5v-1.1211c0-4.1445-3.3594-7.5-7.5-7.5z"/>
    <path d="m148.23 23.664c-4.1406 0-7.5 3.3555-7.5 7.5v1.1211c0 4.1445 3.3594 7.5 7.5 7.5 4.1445 0 7.5-3.3555 7.5-7.5v-1.1211c0-4.1445-3.3555-7.5-7.5-7.5z"/>
    <path d="m131.38 342.98h-31.77c-4.1406 0-7.5 3.3594-7.5 7.5 0 4.1445 3.3594 7.5 7.5 7.5h31.77c4.1406 0 7.5-3.3555 7.5-7.5 0-4.1406-3.3594-7.5-7.5-7.5z"/>
   </g>
   <g fill="#abb0b7">
    <path d="m95.395 183.76h-59.488c-4.1406 0-7.5 3.3555-7.5 7.5 0 4.1406 3.3594 7.5 7.5 7.5h59.488c4.1406 0 7.5-3.3594 7.5-7.5 0-4.1445-3.3555-7.5-7.5-7.5z"/>
    <path d="m95.395 209.81h-59.488c-4.1406 0-7.5 3.3594-7.5 7.5 0 4.1445 3.3594 7.5 7.5 7.5h59.488c4.1406 0 7.5-3.3555 7.5-7.5 0-4.1406-3.3555-7.5-7.5-7.5z"/>
    <path d="m95.395 235.86h-59.488c-4.1406 0-7.5 3.3594-7.5 7.5 0 4.1445 3.3594 7.5 7.5 7.5h59.488c4.1406 0 7.5-3.3555 7.5-7.5 0-4.1406-3.3555-7.5-7.5-7.5z"/>
    <path d="m95.395 261.91h-59.488c-4.1406 0-7.5 3.3555-7.5 7.5 0 4.1445 3.3594 7.5 7.5 7.5h59.488c4.1406 0 7.5-3.3555 7.5-7.5 0-4.1445-3.3555-7.5-7.5-7.5z"/>
    <path d="m95.395 287.96h-59.488c-4.1406 0-7.5 3.3555-7.5 7.5 0 4.1406 3.3594 7.5 7.5 7.5h59.488c4.1406 0 7.5-3.3594 7.5-7.5 0-4.1445-3.3555-7.5-7.5-7.5z"/>
    <path d="m95.395 95.52c4.1445 0 7.5-3.3594 7.5-7.5 0-4.1445-3.3555-7.5-7.5-7.5h-59.488c-4.1406 0-7.5 3.3555-7.5 7.5 0 4.1406 3.3594 7.5 7.5 7.5z"/>
    <path d="m197.5 183.76h-74.031c-4.1445 0-7.5 3.3555-7.5 7.5 0 4.1406 3.3555 7.5 7.5 7.5h74.031c4.1406 0 7.5-3.3594 7.5-7.5 0-4.1445-3.3594-7.5-7.5-7.5z"/>
    <path d="m197.5 209.81h-74.031c-4.1445 0-7.5 3.3594-7.5 7.5 0 4.1445 3.3555 7.5 7.5 7.5h74.031c4.1406 0 7.5-3.3555 7.5-7.5 0-4.1406-3.3594-7.5-7.5-7.5z"/>
    <path d="m197.5 235.86h-74.031c-4.1445 0-7.5 3.3594-7.5 7.5 0 4.1445 3.3555 7.5 7.5 7.5h74.031c4.1406 0 7.5-3.3555 7.5-7.5 0-4.1406-3.3594-7.5-7.5-7.5z"/>
    <path d="m197.5 261.91h-74.031c-4.1445 0-7.5 3.3555-7.5 7.5 0 4.1445 3.3555 7.5 7.5 7.5h74.031c4.1406 0 7.5-3.3555 7.5-7.5 0-4.1445-3.3594-7.5-7.5-7.5z"/>
    <path d="m197.5 287.96h-74.031c-4.1445 0-7.5 3.3555-7.5 7.5 0 4.1406 3.3555 7.5 7.5 7.5h74.031c4.1406 0 7.5-3.3594 7.5-7.5 0-4.1445-3.3594-7.5-7.5-7.5z"/>
    <path d="m429.25 70.289h-114.98c-4.1406 0-7.5 3.3555-7.5 7.5 0 4.1445 3.3594 7.5 7.5 7.5h114.98c4.1406 0 7.5-3.3555 7.5-7.5 0-4.1445-3.3594-7.5-7.5-7.5z"/>
   </g>
   <g fill="#48c397">
    <path d="m319.32 217.8h61.309c4.1445 0 7.5-3.3594 7.5-7.5 0-4.1445-3.3555-7.5-7.5-7.5h-61.309c-4.1406 0-7.5 3.3555-7.5 7.5 0 4.1406 3.3594 7.5 7.5 7.5z"/>
    <path d="m319.32 241.75h61.309c4.1445 0 7.5-3.3555 7.5-7.5s-3.3555-7.5-7.5-7.5h-61.309c-4.1406 0-7.5 3.3555-7.5 7.5s3.3594 7.5 7.5 7.5z"/>
    <path d="m319.32 265.7h61.309c4.1445 0 7.5-3.3594 7.5-7.5 0-4.1445-3.3555-7.5-7.5-7.5h-61.309c-4.1406 0-7.5 3.3555-7.5 7.5 0 4.1406 3.3594 7.5 7.5 7.5z"/>
    <path d="m362.73 292.12v1.1445c0 4.1445 3.3555 7.5 7.5 7.5 4.1406 0 7.5-3.3555 7.5-7.5v-1.1445c0-4.1406-3.3594-7.5-7.5-7.5-4.1445 0-7.5 3.3594-7.5 7.5z"/>
    <path d="m404.01 293.27v-1.1445c0-4.1406-3.3594-7.5-7.5-7.5-4.1445 0-7.5 3.3594-7.5 7.5v1.1445c0 4.1445 3.3555 7.5 7.5 7.5 4.1406 0 7.5-3.3594 7.5-7.5z"/>
    <path d="m415.3 292.12v1.1445c0 4.1445 3.3555 7.5 7.5 7.5 4.1406 0 7.5-3.3555 7.5-7.5v-1.1445c0-4.1406-3.3594-7.5-7.5-7.5-4.1445 0-7.5 3.3594-7.5 7.5z"/>
    <path d="m412.39 217.8h61.309c4.1445 0 7.5-3.3594 7.5-7.5 0-4.1445-3.3555-7.5-7.5-7.5h-61.309c-4.1406 0-7.5 3.3555-7.5 7.5 0 4.1406 3.3594 7.5 7.5 7.5z"/>
    <path d="m412.39 241.75h61.309c4.1445 0 7.5-3.3555 7.5-7.5s-3.3555-7.5-7.5-7.5h-61.309c-4.1406 0-7.5 3.3555-7.5 7.5s3.3594 7.5 7.5 7.5z"/>
    <path d="m412.39 265.7h61.309c4.1445 0 7.5-3.3594 7.5-7.5 0-4.1445-3.3555-7.5-7.5-7.5h-61.309c-4.1406 0-7.5 3.3555-7.5 7.5 0 4.1406 3.3594 7.5 7.5 7.5z"/>
   </g>
   <path d="m252.32 167.98c-2.9297-2.9297-7.6797-2.9297-10.605 0-2.9297 2.9297-2.9297 7.6758 0 10.605l12.672 12.676-12.672 12.672c-2.9297 2.9297-2.9297 7.6758 0 10.605 1.4609 1.4648 3.3828 2.1953 5.3008 2.1953s3.8398-0.73046 5.3047-2.1953l17.977-17.977c2.9297-2.9297 2.9297-7.6758 0-10.605z" fill="none" stroke="#3a4144" stroke-width="5.0795"/>
  </g>
 </g>
</svg>
