<svg width="272.29mm" height="69.254mm" version="1.1" viewBox="0 0 272.29 69.254" xmlns="http://www.w3.org/2000/svg">
 <g transform="translate(0 -227.75)">
  <g fill="none" stroke-linecap="round" stroke-linejoin="round" stroke-miterlimit="10">
   <g stroke="#3a4144" stroke-width=".70556">
    <path d="m69.008 294.77h15.45"/>
    <path d="m57.217 294.77h6.2286"/>
    <path d="m87.623 284.65h140.94"/>
    <path d="m232.12 284.65h9.3218"/>
   </g>
   <path d="m0.3578 257.15h29.998" stroke="#fff" stroke-width=".70556"/>
   <g stroke="#3a4144">
    <g stroke-width=".70556">
     <path d="m251.94 284.65h9.3225"/>
     <path d="m74.138 242.22c-0.63712-0.15311-1.3021-0.23389-1.9861-0.23389-3.931 0-7.2358 2.6772-8.1929 6.3077-0.6283-0.24906-1.3116-0.39017-2.0288-0.39017-3.0455 0-5.5146 2.4687-5.5146 5.5146 0 3.0455 2.4691 5.5146 5.5146 5.5146h4.5166"/>
     <path d="m79.35 245.99c-0.82197-1.3204-1.9971-2.3985-3.3934-3.1013"/>
     <path d="m85.33 250.71c-0.78634-0.62371-1.7812-0.99624-2.8631-0.99624-0.65864 0-1.2838 0.14041-1.8503 0.38911-0.03916-0.91934-0.22437-1.8006-0.53305-2.6211"/>
     <path d="m72.122 258.94h10.345c2.5474 0 4.6129-2.0655 4.6129-4.6133"/>
     <path d="m68.003 258.94h2.5626"/>
    </g>
    <path d="m6.807 290.14h102.5" stroke-width=".70564"/>
    <path d="m84.458 294.77c0-1.0382 0.84173-1.8803 1.88-1.8803 1.0386 0 1.8803 0.84212 1.8803 1.8803 0 1.0386-0.84173 1.8799-1.8803 1.8799-1.0382 0-1.88-0.8413-1.88-1.8799z" stroke-width=".70556"/>
   </g>
  </g>
  <path d="m104.09 280.57-4.5544-0.80751 5.769-32.526 4.5544 0.80751-5.769 32.526" fill="#fab44e"/>
  <g fill="none" stroke="#3a4144" stroke-linecap="round" stroke-linejoin="round" stroke-miterlimit="10" stroke-width=".70556">
   <path d="m104.09 280.57-4.5544-0.80751 5.769-32.526 4.5544 0.80751z"/>
   <path d="m105 248.96 2.0507 0.36371"/>
   <path d="m104.68 250.77 1.0252 0.18203"/>
   <path d="m104.36 252.59 1.0252 0.18168"/>
   <path d="m104.03 254.41 1.0255 0.18204"/>
   <path d="m103.71 256.23 2.0507 0.36407"/>
   <path d="m103.39 258.04 1.0255 0.18168"/>
   <path d="m103.07 259.86 1.0252 0.18168"/>
   <path d="m102.74 261.68 1.0255 0.18169"/>
   <path d="m102.42 263.5 2.0507 0.36372"/>
   <path d="m102.1 265.31 1.0255 0.18168"/>
   <path d="m101.78 267.13 1.0252 0.18203"/>
   <path d="m101.45 268.95 1.0252 0.18168"/>
   <path d="m101.13 270.77 2.0507 0.36372"/>
   <path d="m100.81 272.59 1.0255 0.18168"/>
   <path d="m100.49 274.4 1.0255 0.18168"/>
   <path d="m100.16 276.22 1.0255 0.18203"/>
   <path d="m99.842 278.04 2.0507 0.36372"/>
  </g>
  <path d="m103.12 280.05-2.4684-0.86748 6.9589-19.803 2.4684 0.86748-6.9589 19.803" fill="#93d9bd"/>
  <path d="m103.12 280.05-2.4684-0.86748 6.9589-19.803 2.4684 0.86748z" fill="none" stroke="#3a4144" stroke-linecap="round" stroke-linejoin="round" stroke-miterlimit="10" stroke-width=".70556"/>
  <path d="m107.61 259.37 2.1699-2.2288 0.29845 3.0963z" fill="#fab44e"/>
  <path d="m107.61 259.37 2.1699-2.2288 0.29845 3.0963z" fill="none" stroke="#3a4144" stroke-linecap="round" stroke-linejoin="round" stroke-miterlimit="10" stroke-width=".70556"/>
  <path d="m108.93 258.03 0.97543 0.34255-0.11783-1.2234z" fill="#3a4144"/>
  <path d="m108.93 258.03 0.97543 0.34255-0.11783-1.2234z" fill="none" stroke="#3a4144" stroke-linecap="round" stroke-linejoin="round" stroke-miterlimit="10" stroke-width=".70556"/>
  <path d="m101.89 279.61 6.9592-19.803" fill="none" stroke="#3a4144" stroke-linecap="round" stroke-linejoin="round" stroke-miterlimit="10" stroke-width=".70556"/>
  <path d="m102.73 281.16-2.4684-0.86748 0.39193-1.1151 2.4684 0.86748-0.39194 1.1151" fill="#c4cbc9"/>
  <path d="m102.73 281.16-2.4684-0.86748 0.39193-1.1151 2.4684 0.86748z" fill="none" stroke="#3a4144" stroke-linecap="round" stroke-linejoin="round" stroke-miterlimit="10" stroke-width=".70556"/>
  <path d="m101.99 283.27-2.4684-0.86748 0.74084-2.1078 2.4684 0.86748-0.74083 2.1078" fill="#f0f0ef"/>
  <path d="m101.99 283.27-2.4684-0.86748 0.74084-2.1078 2.4684 0.86748z" fill="none" stroke="#3a4144" stroke-linecap="round" stroke-linejoin="round" stroke-miterlimit="10" stroke-width=".70556"/>
  <path d="m97.452 259.36 2.6053-0.24165 1.9399 20.9-2.6053 0.242-1.9399-20.901" fill="#ee43aa"/>
  <path d="m97.452 259.36 2.6053-0.24165 1.9399 20.9-2.6053 0.242z" fill="none" stroke="#3a4144" stroke-linecap="round" stroke-linejoin="round" stroke-miterlimit="10" stroke-width=".70556"/>
  <path d="m102 280.02-1.0421 2.9312-1.5632-2.6892z" fill="#fab44e"/>
  <path d="m102 280.02-1.0421 2.9312-1.5632-2.6892z" fill="none" stroke="#3a4144" stroke-linecap="round" stroke-linejoin="round" stroke-miterlimit="10" stroke-width=".70556"/>
  <path d="m101.37 281.79-1.0294 0.0953 0.61771 1.0629z" fill="#3a4144"/>
  <path d="m101.37 281.79-1.0294 0.0953 0.61771 1.0629z" fill="none" stroke="#3a4144" stroke-linecap="round" stroke-linejoin="round" stroke-miterlimit="10" stroke-width=".70556"/>
  <path d="m98.755 259.24 1.9396 20.9" fill="none" stroke="#3a4144" stroke-linecap="round" stroke-linejoin="round" stroke-miterlimit="10" stroke-width=".70556"/>
  <path d="m97.343 258.18 2.6053-0.242 0.109 1.1772-2.6053 0.24165-0.10901-1.1769" fill="#c4cbc9"/>
  <path d="m97.343 258.18 2.6053-0.242 0.109 1.1772-2.6053 0.24165z" fill="none" stroke="#3a4144" stroke-linecap="round" stroke-linejoin="round" stroke-miterlimit="10" stroke-width=".70556"/>
  <path d="m97.136 255.96 2.6056-0.24201 0.20638 2.2246-2.6053 0.242-0.20673-2.2246" fill="#f0f0ef"/>
  <path d="m97.136 255.96 2.6056-0.24201 0.20638 2.2246-2.6053 0.242z" fill="none" stroke="#3a4144" stroke-linecap="round" stroke-linejoin="round" stroke-miterlimit="10" stroke-width=".70556"/>
  <path d="m108.38 271.07h-11.347v11.619c0 1.0809 0.87595 1.9568 1.9569 1.9568h7.4337c1.0809 0 1.9569-0.87594 1.9569-1.9568v-11.619" fill="#c4cbc9"/>
  <path d="m108.38 271.07h-11.347v11.619c0 1.0809 0.87595 1.9568 1.9569 1.9568h7.4337c1.0809 0 1.9569-0.87594 1.9569-1.9568z" fill="none" stroke="#3a4144" stroke-linecap="round" stroke-linejoin="round" stroke-miterlimit="10" stroke-width=".70556"/>
  <path d="m109.05 268.43h-12.7v2.6458h12.7v-2.6458" fill="#d7dcdb"/>
  <g fill="none" stroke="#3a4144" stroke-linecap="round" stroke-linejoin="round" stroke-miterlimit="10" stroke-width=".70556">
   <path d="m109.05 268.43h-12.7v2.6458h12.7z"/>
   <path d="m98.511 271.13v5.2712"/>
   <path d="m106.79 276.98v1.4256"/>
   <path d="m106.79 279.61v1.4256"/>
   <path d="m232.15 261.22c0.63147 1.3286 1.9854 2.2468 3.5542 2.2468h30.252c3.3031 0 5.9813-2.6779 5.9813-5.9813s-2.6783-5.9817-5.9813-5.9817c-0.77825 0-1.5194 0.1531-2.2013 0.42333-1.0379-3.9377-4.6224-6.8421-8.8865-6.8421-4.9438 0-8.974 3.9038-9.1807 8.7969-0.61524-0.26987-1.2929-0.42192-2.0073-0.42192-2.3185 0-4.2633 1.579-4.8309 3.719-0.7172-0.95673-1.8574-1.5783-3.145-1.5783"/>
   <path d="m233.86 256.06c-1.2411 0.66111-2.0863 1.9685-2.0863 3.4734"/>
  </g>
  <g transform="matrix(.13539 0 0 .13539 136.08 228.03)">
   <path d="m269.12 130.77c0 67.805-54.969 122.77-122.77 122.77-67.805 0-122.77-54.969-122.77-122.77 0-67.805 54.969-122.77 122.77-122.77 67.805 0 122.77 54.969 122.77 122.77z" fill="#93d9bd"/>
   <g fill="#fab44e">
    <path d="m39.641 161.91c0 8.8789-7.1953 16.07-16.07 16.07s-16.07-7.1914-16.07-16.07c0-8.875 7.1953-16.066 16.07-16.066s16.07 7.1914 16.07 16.066z"/>
    <path d="m117.07 84.488c0 8.875-7.1953 16.07-16.07 16.07s-16.07-7.1953-16.07-16.07 7.1953-16.07 16.07-16.07 16.07 7.1953 16.07 16.07z"/>
    <path d="m199.19 166.61c0 8.875-7.1953 16.07-16.07 16.07s-16.07-7.1953-16.07-16.07 7.1953-16.07 16.07-16.07 16.07 7.1953 16.07 16.07z"/>
    <path d="m305.83 59.965c0 8.875-7.1953 16.07-16.07 16.07s-16.07-7.1953-16.07-16.07 7.1953-16.07 16.07-16.07 16.07 7.1953 16.07 16.07z"/>
   </g>
   <path d="m376.63 130.77c0 8.875-7.1953 16.07-16.07 16.07s-16.07-7.1953-16.07-16.07 7.1953-16.07 16.07-16.07 16.07 7.1953 16.07 16.07z" fill="#ffc850"/>
   <path d="m79.473 344.33h43.961v123.66h-43.961z" fill="#ff8031"/>
   <path d="m153.53 344.33h43.961v123.66h-43.961z" fill="#ff8031"/>
   <path d="m227.58 307.75h43.961v160.24h-43.961z" fill="#fab44e"/>
   <g fill="#93d9bd">
    <path d="m301.64 253.22h43.961v214.77h-43.961z"/>
    <path d="m375.69 196.82h43.961v271.17h-43.961z"/>
    <path d="m449.75 130.77h43.961v337.21h-43.961z"/>
   </g>
   <g fill="#474d54">
    <path d="m27.91 185.08c6.6523 14.508 15.828 27.547 27.332 38.805 1.4609 1.4297 3.3555 2.1406 5.2461 2.1406 1.9453 0 3.8906-0.75391 5.3594-2.2539 2.8984-2.9609 2.8477-7.7109-0.11328-10.605-10.473-10.25-18.773-22.16-24.699-35.438 3.793-4.1836 6.1055-9.7305 6.1055-15.809 0-3.7774-0.89844-7.3477-2.4844-10.516l45.828-45.828c3.168 1.5859 6.7383 2.4844 10.516 2.4844 3.543 0 6.9062-0.79296 9.9258-2.1992l50.398 50.398c0.14062 0.14063 0.28906 0.26953 0.4375 0.39453-1.418 3.0274-2.2148 6.3984-2.2148 9.9531 0 13 10.574 23.57 23.57 23.57 12.996 0 23.57-10.57 23.57-23.57 0-3.0391-0.58203-5.9414-1.6367-8.6133l53.535-53.531c1.9805 8.4531 3.0312 17.262 3.0312 26.312 0 63.562-51.711 115.27-115.27 115.27-20.207 0-40.086-5.3047-57.492-15.34-3.5859-2.0664-8.1758-0.83984-10.242 2.7539-2.0703 3.5859-0.83594 8.1719 2.75 10.242 19.68 11.348 42.152 17.344 64.984 17.344 71.832 0 130.27-58.441 130.27-130.27 0-13.406-2.0391-26.348-5.8164-38.527l10.348-10.348c2.668 1.0547 5.5703 1.6367 8.6094 1.6367 4.0664 0 7.8984-1.0352 11.238-2.8555l38.855 38.855c-1.8203 3.3398-2.8555 7.168-2.8555 11.238 0 12.996 10.57 23.57 23.57 23.57 12.996 0 23.57-10.574 23.57-23.57 0-13-10.574-23.57-23.57-23.57-3.4688 0-6.7578 0.75781-9.7266 2.1055l-39.617-39.617c1.3476-2.9688 2.1055-6.2578 2.1055-9.7266 0-12.996-10.57-23.57-23.57-23.57-12.996 0-23.57 10.574-23.57 23.57 0 4.4805 1.2578 8.6719 3.4375 12.242l-4.6836 4.6836c-20.535-45.023-65.969-76.391-118.6-76.391-71.832 0-130.27 58.441-130.27 130.27 0 2.8984 0.10938 5.8086 0.30078 8.7031-9.4883 3.0508-16.371 11.953-16.371 22.438 0 13 10.574 23.57 23.57 23.57 1.4844 4e-3 2.9336-0.14062 4.3398-0.40625zm332.65-62.875c4.7266 0 8.5703 3.8438 8.5703 8.5703 0 4.7226-3.8438 8.5703-8.5703 8.5703-4.7227 0-8.5703-3.8477-8.5703-8.5703 0-4.7266 3.8476-8.5703 8.5703-8.5703zm-70.805-70.809c4.7266 0 8.5703 3.8477 8.5703 8.5703 0 4.7266-3.8438 8.5703-8.5703 8.5703s-8.5703-3.8438-8.5703-8.5703c0-4.7227 3.8438-8.5703 8.5703-8.5703zm-197.33 33.094c0-4.7266 3.8438-8.5703 8.5703-8.5703 4.7227 0 8.5664 3.8438 8.5664 8.5703 0 4.7266-3.8438 8.5703-8.5664 8.5703-4.7266 0-8.5703-3.8438-8.5703-8.5703zm90.688 90.687c-4.7266 0-8.5703-3.8438-8.5703-8.5703 0-4.7227 3.8438-8.5703 8.5703-8.5703 4.7266 0 8.5703 3.8476 8.5703 8.5703 0 4.7266-3.8438 8.5703-8.5703 8.5703zm-36.773-159.68c48.578 0 90.23 30.203 107.17 72.816l-58.156 58.156c-3.5703-2.1797-7.7617-3.4375-12.242-3.4375-3.9922 0-7.7539 1-11.055 2.7617-0.043-0.0469-0.082-0.0977-0.12891-0.14453l-50.121-50.121c1.7578-3.2969 2.7578-7.0547 2.7578-11.043 0-12.996-10.574-23.57-23.57-23.57-12.996 0-23.57 10.574-23.57 23.57 0 3.7578 0.89062 7.3125 2.4609 10.465l-45.852 45.852c-0.84766-0.42188-1.7266-0.79297-2.6289-1.1133-0.22266-2.9609-0.33984-5.9492-0.33984-8.918 0-63.563 51.711-115.27 115.27-115.27zm-131.34 146.41c0-4.7226 3.8438-8.5664 8.5703-8.5664 4.7266 0 8.5703 3.8438 8.5703 8.5664 0 4.7266-3.8438 8.5703-8.5703 8.5703-4.7266 0-8.5703-3.8438-8.5703-8.5703z" fill="none" stroke="#3a4144" stroke-width="5.2118"/>
    <path d="m504.5 475.49c4.1445 0 7.5-3.3555 7.5-7.5s-3.3555-7.5-7.5-7.5h-3.2969v-164.18c0-4.1445-3.3555-7.5-7.5-7.5-4.1406 0-7.5 3.3555-7.5 7.5v164.18h-28.957v-322.21h28.957v127.41c0 4.1406 3.3594 7.5 7.5 7.5 4.1445 0 7.5-3.3594 7.5-7.5v-134.91c0-4.1445-3.3555-7.5-7.5-7.5h-43.957c-4.1445 0-7.5 3.3555-7.5 7.5v329.71h-15.098v-263.67c0-4.1406-3.3555-7.5-7.5-7.5h-43.957c-4.1406 0-7.5 3.3594-7.5 7.5v263.67h-15.094v-207.27c0-4.1445-3.3594-7.5-7.5-7.5h-43.961c-4.1445 0-7.5 3.3555-7.5 7.5v207.27h-15.098v-152.74c0-4.1445-3.3555-7.5-7.5-7.5h-43.957c-4.1445 0-7.5 3.3555-7.5 7.5v152.74h-15.098v-116.16c0-4.1445-3.3555-7.5-7.5-7.5h-43.957c-4.1445 0-7.5 3.3555-7.5 7.5v43.355c0 4.1445 3.3555 7.5 7.5 7.5s7.5-3.3555 7.5-7.5v-35.855h28.957v108.66h-28.957v-42.188c0-4.1406-3.3555-7.5-7.5-7.5s-7.5 3.3594-7.5 7.5v42.188h-15.098v-116.16c0-4.1445-3.3555-7.5-7.5-7.5h-43.953c-4.1445 0-7.5 3.3555-7.5 7.5v116.16h-57.469c-4.1406 0-7.5 3.3555-7.5 7.5 0 4.1406 3.3594 7.5 7.5 7.5zm-121.31-271.17h28.957v256.17h-28.957zm-74.055 56.398h28.961v199.77h-28.961zm-74.055 54.527h28.961v145.24h-28.961zm-148.11 36.582h28.957v108.66h-28.957z" fill="#93d9bd" stroke="#3a4144" stroke-width="5.2118"/>
    <path d="m493.7 29.414c4.1445 0 7.5-3.3555 7.5-7.5v-1.6484c0-4.1406-3.3555-7.5-7.5-7.5-4.1406 0-7.5 3.3594-7.5 7.5v1.6484c0 4.1445 3.3594 7.5 7.5 7.5z"/>
    <path d="m468.17 29.414c4.1445 0 7.5-3.3555 7.5-7.5v-1.6484c0-4.1406-3.3555-7.5-7.5-7.5-4.1406 0-7.5 3.3594-7.5 7.5v1.6484c0 4.1445 3.3594 7.5 7.5 7.5z"/>
    <path d="m468.17 59.332h25.355c4.1406 0 7.5-3.3555 7.5-7.5 0-4.1406-3.3594-7.5-7.5-7.5h-25.355c-4.1406 0-7.5 3.3594-7.5 7.5 0 4.1445 3.3594 7.5 7.5 7.5z" fill="#93d9bd" stroke="#3a4144" stroke-width="5.2118"/>
    <path d="m425.91 83.535h67.605c4.1445 0 7.5-3.3555 7.5-7.5 0-4.1406-3.3555-7.5-7.5-7.5h-67.605c-4.1406 0-7.5 3.3594-7.5 7.5 0 4.1445 3.3594 7.5 7.5 7.5z" fill="none" stroke="#3a4144" stroke-width="5.2118"/>
   </g>
  </g>
 </g>
</svg>
