<svg id="b7d5ffe4-d82c-44d1-8d1d-fd48d095fddc" data-name="Layer 1" version="1.1" viewBox="0 0 885.53 664.19" xmlns="http://www.w3.org/2000/svg">
 <polygon points="885.13 641.93 617.73 641.93 617.73 639.75 885.53 639.75" fill="#3f3d56"/>
 <g fill="#e6e6e6" stroke="#000">
  <circle cx="42.908" cy="7.7082" r="7.7074"/>
  <circle cx="81.923" cy="7.7082" r="7.7074"/>
  <circle cx="120.94" cy="7.7082" r="7.7074"/>
  <circle cx="159.95" cy="7.7082" r="7.7074"/>
  <circle cx="198.97" cy="7.7082" r="7.7074"/>
  <circle cx="237.98" cy="7.7082" r="7.7074"/>
  <circle cx="277" cy="7.7082" r="7.7074"/>
  <circle cx="316.01" cy="7.7082" r="7.7074"/>
  <circle cx="355.03" cy="7.7082" r="7.7074"/>
  <circle cx="394.04" cy="7.7082" r="7.7074"/>
  <circle cx="42.908" cy="47.213" r="7.7074"/>
  <circle cx="81.923" cy="47.213" r="7.7074"/>
  <circle cx="120.94" cy="47.213" r="7.7074"/>
 </g>
 <circle cx="159.95" cy="47.213" r="7.7074" fill="#007aff" stroke="#000"/>
 <g fill="#e6e6e6">
  <g stroke="#000">
   <circle cx="198.97" cy="47.213" r="7.7074"/>
   <circle cx="237.98" cy="47.213" r="7.7074"/>
   <circle cx="277" cy="47.213" r="7.7074"/>
   <circle cx="316.01" cy="47.213" r="7.7074"/>
   <circle cx="355.03" cy="47.213" r="7.7074"/>
   <circle cx="394.04" cy="47.213" r="7.7074"/>
   <circle cx="42.908" cy="86.717" r="7.7074"/>
   <circle cx="81.923" cy="86.717" r="7.7074"/>
   <circle cx="120.94" cy="86.717" r="7.7074"/>
   <circle cx="159.95" cy="86.717" r="7.7074"/>
   <circle cx="198.97" cy="86.717" r="7.7074"/>
   <circle cx="237.98" cy="86.717" r="7.7074"/>
   <circle cx="277" cy="86.717" r="7.7074"/>
   <circle cx="316.01" cy="86.717" r="7.7074"/>
   <circle cx="355.03" cy="86.717" r="7.7074"/>
   <circle cx="394.04" cy="86.717" r="7.7074"/>
  </g>
  <circle cx="42.908" cy="126.22" r="7.7074"/>
  <circle cx="81.923" cy="126.22" r="7.7074"/>
  <circle cx="120.94" cy="126.22" r="7.7074"/>
  <circle cx="159.95" cy="126.22" r="7.7074"/>
  <circle cx="198.97" cy="126.22" r="7.7074"/>
  <circle cx="237.98" cy="126.22" r="7.7074"/>
  <circle cx="277" cy="126.22" r="7.7074"/>
  <circle cx="316.01" cy="126.22" r="7.7074"/>
  <circle cx="355.03" cy="126.22" r="7.7074"/>
  <circle cx="394.04" cy="126.22" r="7.7074"/>
  <circle cx="42.908" cy="165.73" r="7.7074"/>
 </g>
 <circle cx="81.923" cy="165.73" r="7.7074" fill="#007aff"/>
 <g fill="#e6e6e6">
  <circle cx="120.94" cy="165.73" r="7.7074"/>
  <circle cx="159.95" cy="165.73" r="7.7074"/>
  <circle cx="198.97" cy="165.73" r="7.7074"/>
  <circle cx="237.98" cy="165.73" r="7.7074"/>
  <circle cx="277" cy="165.73" r="7.7074"/>
  <circle cx="316.01" cy="165.73" r="7.7074"/>
  <circle cx="355.03" cy="165.73" r="7.7074"/>
  <circle cx="394.04" cy="165.73" r="7.7074"/>
  <circle cx="42.908" cy="205.23" r="7.7074"/>
  <circle cx="81.923" cy="205.23" r="7.7074"/>
  <circle cx="120.94" cy="205.23" r="7.7074"/>
  <circle cx="159.95" cy="205.23" r="7.7074"/>
  <circle cx="198.97" cy="205.23" r="7.7074"/>
  <circle cx="237.98" cy="205.23" r="7.7074"/>
  <circle cx="277" cy="205.23" r="7.7074"/>
  <circle cx="316.01" cy="205.23" r="7.7074"/>
  <circle cx="355.03" cy="205.23" r="7.7074"/>
  <circle cx="394.04" cy="205.23" r="7.7074"/>
  <circle cx="42.908" cy="244.73" r="7.7074"/>
  <circle cx="81.923" cy="244.73" r="7.7074"/>
 </g>
 <circle cx="120.94" cy="244.73" r="7.7074" fill="#007aff"/>
 <g fill="#e6e6e6">
  <circle cx="159.95" cy="244.73" r="7.7074"/>
  <circle cx="198.97" cy="244.73" r="7.7074"/>
  <circle cx="237.98" cy="244.73" r="7.7074"/>
  <circle cx="277" cy="244.73" r="7.7074"/>
  <circle cx="316.01" cy="244.73" r="7.7074"/>
  <circle cx="355.03" cy="244.73" r="7.7074"/>
  <circle cx="394.04" cy="244.73" r="7.7074"/>
  <circle cx="42.908" cy="284.24" r="7.7074"/>
  <circle cx="81.923" cy="284.24" r="7.7074"/>
  <circle cx="120.94" cy="284.24" r="7.7074"/>
  <circle cx="159.95" cy="284.24" r="7.7074"/>
  <circle cx="198.97" cy="284.24" r="7.7074"/>
  <circle cx="237.98" cy="284.24" r="7.7074"/>
  <circle cx="277" cy="284.24" r="7.7074"/>
  <circle cx="316.01" cy="284.24" r="7.7074"/>
  <circle cx="355.03" cy="284.24" r="7.7074"/>
  <circle cx="394.04" cy="284.24" r="7.7074"/>
  <circle cx="42.908" cy="323.74" r="7.7074"/>
  <circle cx="81.923" cy="323.74" r="7.7074"/>
  <circle cx="120.94" cy="323.74" r="7.7074"/>
  <circle cx="159.95" cy="323.74" r="7.7074"/>
  <circle cx="198.97" cy="323.74" r="7.7074"/>
  <circle cx="237.98" cy="323.74" r="7.7074"/>
  <circle cx="277" cy="323.74" r="7.7074"/>
  <circle cx="316.01" cy="323.74" r="7.7074"/>
  <circle cx="355.03" cy="323.74" r="7.7074"/>
  <circle cx="394.04" cy="323.74" r="7.7074"/>
  <circle cx="42.908" cy="363.25" r="7.7074"/>
  <circle cx="81.923" cy="363.25" r="7.7074"/>
  <circle cx="120.94" cy="363.25" r="7.7074"/>
  <circle cx="159.95" cy="363.25" r="7.7074"/>
  <circle cx="198.97" cy="363.25" r="7.7074"/>
  <circle cx="237.98" cy="363.25" r="7.7074"/>
  <circle cx="277" cy="363.25" r="7.7074"/>
  <circle cx="316.01" cy="363.25" r="7.7074"/>
  <circle cx="355.03" cy="363.25" r="7.7074"/>
  <circle cx="394.04" cy="363.25" r="7.7074"/>
 </g>
 <polygon points="320.38 305.85 411.85 145.56 228.8 145.56 137.23 304.17 228.8 462.78 411.95 462.78 503.35 304.47" fill="#3f3d56" stroke="#000"/>
 <polygon points="526.06 291 526.24 290.71 434.66 132.1 434.57 132.1 343.09 292.39" fill="#007aff" stroke="#000"/>
 <path transform="translate(-157.24 -117.91)" d="m815.78 256.52q-2.2383-2.6148-2.2383-7.6565 0-4.9942 2.2383-7.6101a7.7212 7.7212 0 0 1 6.1956-2.615 7.8497 7.8497 0 0 1 6.2679 2.615q2.2605 2.6155 2.2613 7.6101 0 5.0423-2.2613 7.6565a7.8487 7.8487 0 0 1-6.2679 2.6154 7.7202 7.7202 0 0 1-6.1956-2.6154zm8.8825-2.7091a10.66 10.66 0 0 0 0.848-4.9474 10.29 10.29 0 0 0-0.87263-4.8772 2.8654 2.8654 0 0 0-2.6623-1.5312 2.7762 2.7762 0 0 0-2.5908 1.5312 10.537 10.537 0 0 0-0.84881 4.8772 10.665 10.665 0 0 0 0.84881 4.9236 2.7745 2.7745 0 0 0 2.5908 1.5316 2.8611 2.8611 0 0 0 2.6869-1.5078zm-3.0156 18.848 19.413-33.549h5.2301l-19.46 33.549zm18.023-2.2851q-2.2395-2.6154-2.2383-7.7042 0-4.9936 2.2383-7.5863a8.8168 8.8168 0 0 1 12.486 0q2.2371 2.592 2.2383 7.6335 0 5.0423-2.2383 7.657a8.7602 8.7602 0 0 1-12.486 0zm8.8809-2.733a10.668 10.668 0 0 0 0.84881-4.924 10.298 10.298 0 0 0-0.87182-4.8768 3.0186 3.0186 0 0 0-5.2539 0 10.546 10.546 0 0 0-0.848 4.8768 10.681 10.681 0 0 0 0.848 4.924 3.0388 3.0388 0 0 0 5.2769 0z" fill="#3f3d56"/>
 <path d="m43.75 463.89q-2.2383-2.6148-2.2383-7.6565 0-4.9942 2.2383-7.6101a7.7211 7.7211 0 0 1 6.1956-2.615 7.8497 7.8497 0 0 1 6.2679 2.615q2.2605 2.6154 2.2613 7.6101 0 5.0423-2.2613 7.6565a7.8487 7.8487 0 0 1-6.2679 2.6154 7.7202 7.7202 0 0 1-6.1956-2.6154zm8.8825-2.7091a10.66 10.66 0 0 0 0.848-4.9474 10.29 10.29 0 0 0-0.87264-4.8772 2.8654 2.8654 0 0 0-2.6623-1.5312 2.7763 2.7763 0 0 0-2.5908 1.5312 10.537 10.537 0 0 0-0.84881 4.8772 10.665 10.665 0 0 0 0.84881 4.9236 2.7745 2.7745 0 0 0 2.5908 1.5316 2.8611 2.8611 0 0 0 2.6869-1.5078zm-3.0156 18.848 19.412-33.549h5.2301l-19.46 33.549zm18.023-2.2851q-2.2395-2.6154-2.2383-7.7042 0-4.9936 2.2383-7.5863a8.8168 8.8168 0 0 1 12.486 0q2.2371 2.592 2.2383 7.6335 0 5.0423-2.2383 7.657a8.7602 8.7602 0 0 1-12.486 0zm8.8809-2.733a10.668 10.668 0 0 0 0.84881-4.924 10.299 10.299 0 0 0-0.87181-4.8767 3.0186 3.0186 0 0 0-5.2539 0 10.546 10.546 0 0 0-0.848 4.8767 10.681 10.681 0 0 0 0.848 4.924 3.0388 3.0388 0 0 0 5.2769 0z" fill="#3f3d56"/>
 <polygon points="439.28 234.86 438.1 234.55 463.95 137.29 613.91 137.29 613.91 138.52 464.89 138.52" fill="#2f2e41"/>
 <path transform="translate(-157.24 -117.91)" d="m783.4 268.68a12.866 12.866 0 1 1 12.866-12.866 12.881 12.881 0 0 1-12.866 12.866zm0-24.507a11.641 11.641 0 1 0 11.641 11.641 11.654 11.654 0 0 0-11.641-11.641z" fill="#2f2e41"/>
 <circle cx="626.17" cy="137.9" r="4.9013" fill="#007aff"/>
 <polygon points="249.96 330.34 251.14 330.66 225.29 427.91 75.326 427.91 75.326 426.69 224.34 426.69" fill="#2f2e41"/>
 <path transform="translate(-157.24 -117.91)" d="m220.31 532.34a12.866 12.866 0 1 1-12.866 12.866 12.881 12.881 0 0 1 12.866-12.866zm0 24.507a11.641 11.641 0 1 0-11.641-11.641 11.654 11.654 0 0 0 11.641 11.641z" fill="#2f2e41"/>
 <circle cx="63.073" cy="427.3" r="4.9013" fill="#007aff"/>
 <g fill="#a0616a">
  <rect x="719.15" y="621.28" width="18.604" height="25.301"/>
  <rect x="813.66" y="621.28" width="18.604" height="25.301"/>
  <path transform="translate(-157.24 -117.91)" d="m1002.4 529.33a11.04 11.04 0 0 1-10.906-12.75l3.047-19.425 0.90619-5.7769h14.139l0.74415 8.1857 2.9442 16.824a11.04 11.04 0 0 1-10.874 12.943z"/>
  <path transform="translate(-157.24 -117.91)" d="m863.99 527.1a11.04 11.04 0 0 1-10.906-12.75l3.047-19.425 0.90619-5.7769h14.139l0.74415 8.1857 2.9442 16.824a11.04 11.04 0 0 1-10.874 12.943z"/>
 </g>
 <g fill="#2f2e41">
  <polygon points="834.5 626.49 812.17 625.74 775.71 405.48 739.24 626.49 717.66 625.74 711.71 371.24 836.73 371.24"/>
  <path transform="translate(-157.24 -117.91)" d="m894.53 782.05c-18.941 0.54786-33.768-4.5727-43.49-16.728a8.0299 8.0299 0 0 1-0.60774-9.1433 8.0281 8.0281 0 0 1 7.816-3.8434l6.1551 0.71943 12.817-6.4042c-2.6219 15.247 4.5096 15.534 21.569 10.423l3.0734 15.751a7.7349 7.7349 0 0 1-7.3329 9.225z"/>
  <path transform="translate(-157.24 -117.91)" d="m989.03 782.05c-18.941 0.54786-33.768-4.5727-43.49-16.728a8.0299 8.0299 0 0 1-0.60774-9.1433 8.0281 8.0281 0 0 1 7.816-3.8434l6.1551 0.71943 12.721-5.3667c-2.6219 15.247 4.6058 14.496 21.665 9.3858l3.0734 15.751a7.7349 7.7349 0 0 1-7.3329 9.225z"/>
 </g>
 <circle cx="768.27" cy="108.56" r="29.766" fill="#a0616a"/>
 <polygon points="798.03 162.88 766.03 164.37 764.55 130.88 792.08 120.46" fill="#a0616a"/>
 <path transform="translate(-157.24 -117.91)" d="m1001.4 499.57c-43.636-8.2569-93.35-11.215-126.51 0l10.418-218.78 34.975-10.418 2.6046-4.0929 29.394-4.837 14.139 4.4649 8.9299 13.395 38.696 21.581c-19.048 73.683-24.69 140.63-12.651 198.69z" fill="#007aff"/>
 <g fill="#2f2e41">
  <path transform="translate(-157.24 -117.91)" d="m1022.2 498.08-31.999-3.7208c6.6697-32.497 3.9421-74.766 5.5812-117.2 1.0395-26.916 6.6217-51.411 8.5578-81.485 12.136 3.1644 18.419 14.433 18.491 27.713 0.34293 62.987 6.2925 122-0.63115 174.7z"/>
  <path transform="translate(-157.24 -117.91)" d="m883.09 495.1-31.255-2.2325 18.604-105.67 6.2984-87.934c-0.98006-12.824 5.8739-20.275 16.026-20.713 22.177 26.262 24.748 62.454 17.86 103.44z"/>
  <path d="m783.33 130.44-3.0081-10.928a28.087 35.842 0 0 0-22.254-23.551l-18.852-0.55155 5.2342-10.734a25.577 32.64 0 0 1 24.253-15.234l18.841 2.3966a17.067 21.779 0 0 1 15.3 23.694l-1.7279 23.646a11.671 14.893 0 0 1-17.786 11.262z" stroke-width=".88522"/>
 </g>
</svg>
