<svg data-name="Layer 1" version="1.1" viewBox="0 0 1100.5 691.71" xmlns="http://www.w3.org/2000/svg">
 <title>two_factor_authentication</title>
 <path transform="translate(-49.75 -104.15)" d="m1150.3 388.24h-1.8586v-50.915a29.468 29.468 0 0 0-29.469-29.469h-107.87a29.468 29.468 0 0 0-29.469 29.469v279.33a29.469 29.469 0 0 0 29.469 29.469h107.87a29.469 29.469 0 0 0 29.469-29.469v-192.17h1.8586z" fill="#3f3d56"/>
 <path transform="translate(-49.75 -104.15)" d="m1142.1 339.05v278.92a22.011 22.011 0 0 1-22.01 22.01h-108.39a22.002 22.002 0 0 1-22-22.01v-278.92a22 22 0 0 1 22-22h13.15a10.461 10.461 0 0 0 9.68 14.4h61.8a10.44 10.44 0 0 0 9.6799-14.4h14.08a22.009 22.009 0 0 1 22.01 22z" fill="#d0cde1"/>
 <rect x="945.85" y="355.71" width="126" height="34" fill="#007aff"/>
 <g fill="#3f3d56">
  <path transform="translate(-49.75 -104.15)" d="m1126.6 487.85h-122a3.0033 3.0033 0 0 1-3-3v-30a3.0033 3.0033 0 0 1 3-3h122a3.0033 3.0033 0 0 1 3 3v30a3.0033 3.0033 0 0 1-3 3zm-122-34a1.001 1.001 0 0 0-1 1v30a1.0007 1.0007 0 0 0 1 1h122a1.0007 1.0007 0 0 0 1-1v-30a1.001 1.001 0 0 0-1-1z"/>
  <rect x="959.85" y="374.71" width="16" height="2"/>
  <rect x="981.85" y="374.71" width="16" height="2"/>
  <rect x="1003.9" y="374.71" width="16" height="2"/>
  <rect x="1025.9" y="374.71" width="16" height="2"/>
  <rect x="1047.9" y="374.71" width="16" height="2"/>
 </g>
 <path transform="translate(-49.75 -104.15)" d="m1142.1 589.61v28.36a22.011 22.011 0 0 1-22.01 22.01h-108.39a22.002 22.002 0 0 1-22-22.01v-130.46z" opacity=".1"/>
 <rect x="99.851" y="459.71" width="473" height="232" fill="#d0cde1"/>
 <path transform="translate(-49.75 -104.15)" d="m502.35 795.85h-350.75a2.0059 2.0059 0 0 1-2-2v-228a2.0059 2.0059 0 0 1 2-2h4.44z" opacity=".1"/>
 <rect x="318.85" y="490.71" width="733" height="2" fill="#3f3d56"/>
 <path transform="translate(-49.75 -104.15)" d="m600.34 108.46h-209.49v-4.3178h-94.991v4.3178h-210.35a14.17 14.17 0 0 0-14.17 14.17v286.86a14.17 14.17 0 0 0 14.17 14.17h514.83a14.17 14.17 0 0 0 14.17-14.17v-286.86a14.17 14.17 0 0 0-14.17-14.17z" fill="#3f3d56"/>
 <rect x="40.591" y="29.357" width="505.17" height="284.98" fill="#d0cde1"/>
 <circle cx="292.74" cy="16.408" r="5.1813" fill="#007aff"/>
 <path transform="translate(-49.75 -104.15)" d="m240.6 239.85h-12a3.0033 3.0033 0 0 1-3-3v-12a3.0033 3.0033 0 0 1 3-3h12a3.0033 3.0033 0 0 1 3 3v12a3.0033 3.0033 0 0 1-3 3zm-12-16a1.0013 1.0013 0 0 0-1 1v12a1.0013 1.0013 0 0 0 1 1h12a1.0013 1.0013 0 0 0 1-1v-12a1.0013 1.0013 0 0 0-1-1z" fill="#3f3d56"/>
 <rect x="176.85" y="133.71" width="228" height="2" fill="#3f3d56"/>
 <rect x="345.85" y="188.71" width="53" height="16" fill="#007aff"/>
 <path transform="translate(-49.75 -104.15)" d="m452.6 304.85h-49a3.0033 3.0033 0 0 1-3-3v-12a3.0033 3.0033 0 0 1 3-3h49a3.0033 3.0033 0 0 1 3 3v12a3.0033 3.0033 0 0 1-3 3zm-49-16a1.0013 1.0013 0 0 0-1 1v12a1.0013 1.0013 0 0 0 1 1h49a1.0013 1.0013 0 0 0 1-1v-12a1.0013 1.0013 0 0 0-1-1z" fill="#3f3d56"/>
 <rect x="703.85" y="206.71" width="100" height="70" fill="#007aff"/>
 <g fill="#3f3d56">
  <path transform="translate(-49.75 -104.15)" d="m863.6 375.35h-96a4.0043 4.0043 0 0 1-4-4v-66a4.0043 4.0043 0 0 1 4-4h96a4.0043 4.0043 0 0 1 4 4v66a4.0043 4.0043 0 0 1-4 4zm-96-70v66h96.003l-0.00293-66z"/>
  <path transform="translate(-49.75 -104.15)" d="m852.6 302.85h-4a33 33 0 1 0-66 0h-4a37 37 0 1 1 74 0z"/>
  <path transform="translate(-49.75 -104.15)" d="m825.6 330.35a10 10 0 1 0-15.294 8.4726v10.733a5.2941 5.2941 0 0 0 5.2941 5.2941 5.2941 5.2941 0 0 0 5.2941-5.2941v-10.733a9.9833 9.9833 0 0 0 4.7059-8.4726z"/>
  <rect x="284.35" y="562.71" width="16" height="2"/>
  <rect x="306.35" y="562.71" width="16" height="2"/>
  <rect x="328.35" y="562.71" width="16" height="2"/>
  <rect x="350.35" y="562.71" width="16" height="2"/>
  <rect x="372.35" y="562.71" width="16" height="2"/>
  <path transform="translate(-49.75 -104.15)" d="m643.6 778.85h-469a4.0043 4.0043 0 0 1-4-4v-228a4.0043 4.0043 0 0 1 4-4h469a4.004 4.004 0 0 1 4 4v228a4.004 4.004 0 0 1-4 4zm-469-232v228h469l-0.00293-228z"/>
  <circle cx="145.85" cy="470.71" r="6"/>
  <circle cx="166.85" cy="470.71" r="6"/>
  <circle cx="187.85" cy="470.71" r="6"/>
  <path transform="translate(-49.75 -104.15)" d="m453.6 680.85h-135a3.0033 3.0033 0 0 1-3-3v-34a3.0033 3.0033 0 0 1 3-3h135a3.0033 3.0033 0 0 1 3 3v34a3.0033 3.0033 0 0 1-3 3zm-135-38a1.001 1.001 0 0 0-1 1v34a1.001 1.001 0 0 0 1 1h135a1.001 1.001 0 0 0 1-1v-34a1.001 1.001 0 0 0-1-1z"/>
 </g>
 <circle cx="437.85" cy="559.71" r="18" fill="#007aff"/>
 <path transform="translate(-49.75 -104.15)" d="m493.6 679.85a19 19 0 1 1 19-19 19.022 19.022 0 0 1-19 19zm0-36a17 17 0 1 0 17 17 17.019 17.019 0 0 0-17-17z" fill="#3f3d56"/>
 <polygon points="444.12 563.8 434.44 554.12 437.26 551.29 443.58 557.61 461.22 532.56 464.49 534.86" fill="#3f3d56"/>
 <polygon points="433.76 314.34 40.591 314.34 40.591 50.947" opacity=".1"/>
 <g fill="#3f3d56">
  <path transform="translate(-49.75 -104.15)" d="M628.69739,413.2984H579.39527v-3.55218a.7043.7043,0,0,0-.70431-.70432H561.78737a.70429.70429,0,0,0-.70431.70432v3.55218H550.51832v-3.55218a.7043.7043,0,0,0-.70432-.70432H532.91042a.7043.7043,0,0,0-.70432.70432v3.55218H521.64136v-3.55218a.70429.70429,0,0,0-.70431-.70432H504.03347a.7043.7043,0,0,0-.70432.70432v3.55218H492.76441v-3.55218a.7043.7043,0,0,0-.70432-.70432H475.15651a.70429.70429,0,0,0-.70431.70432v3.55218H463.88746v-3.55218a.7043.7043,0,0,0-.70432-.70432H446.27956a.7043.7043,0,0,0-.70432.70432v3.55218H435.0105v-3.55218a.70429.70429,0,0,0-.70431-.70432H417.4026a.7043.7043,0,0,0-.70431.70432v3.55218H406.13355v-3.55218a.7043.7043,0,0,0-.70432-.70432H273.01784a.7043.7043,0,0,0-.70432.70432v3.55218H261.74878v-3.55218a.7043.7043,0,0,0-.70432-.70432H244.14088a.70429.70429,0,0,0-.70431.70432v3.55218H232.87183v-3.55218a.7043.7043,0,0,0-.70432-.70432H215.26393a.7043.7043,0,0,0-.70432.70432v3.55218H203.99487v-3.55218a.70429.70429,0,0,0-.70431-.70432H186.387a.7043.7043,0,0,0-.70431.70432v3.55218H175.11792v-3.55218a.7043.7043,0,0,0-.70432-.70432H157.51a.7043.7043,0,0,0-.70432.70432v3.55218H146.241v-3.55218a.7043.7043,0,0,0-.70432-.70432H128.63307a.7043.7043,0,0,0-.70432.70432v3.55218H117.364v-3.55218a.7043.7043,0,0,0-.70431-.70432H99.75611a.70429.70429,0,0,0-.70431.70432v3.55218H66.65326A16.90359,16.90359,0,0,0,49.74968,430.202v7.6434a16.90358,16.90358,0,0,0,16.90358,16.90354H628.69739A16.90358,16.90358,0,0,0,645.601,437.84539V430.202A16.90359,16.90359,0,0,0,628.69739,413.2984Z"/>
  <path transform="translate(-49.75 -104.15)" d="m474.6 321.85h-264a3.0033 3.0033 0 0 1-3-3v-110a3.0033 3.0033 0 0 1 3-3h264a3.0033 3.0033 0 0 1 3 3v110a3.0033 3.0033 0 0 1-3 3zm-264-114a1.0013 1.0013 0 0 0-1 1v110a1.0013 1.0013 0 0 0 1 1h264a1.0013 1.0013 0 0 0 1-1v-110a1.0013 1.0013 0 0 0-1-1z"/>
  <path transform="translate(-49.75 -104.15)" d="m240.6 269.85h-12a3.0033 3.0033 0 0 1-3-3v-12a3.0033 3.0033 0 0 1 3-3h12a3.0033 3.0033 0 0 1 3 3v12a3.0033 3.0033 0 0 1-3 3zm-12-16a1.0013 1.0013 0 0 0-1 1v12a1.0013 1.0013 0 0 0 1 1h12a1.0013 1.0013 0 0 0 1-1v-12a1.0013 1.0013 0 0 0-1-1z"/>
  <rect x="176.85" y="163.71" width="228" height="2"/>
  <rect x="264.85" y="269.71" width="733" height="2"/>
  <circle cx="264.85" cy="269.71" r="14"/>
  <circle cx="997.85" cy="271.71" r="11"/>
  <circle cx="1051.9" cy="492.71" r="11"/>
  <circle cx="321.85" cy="492.71" r="11"/>
 </g>
 <path d="m57.8 207.44c0 2.055 0.458 3.644 1.373 4.746 0.915 1.121 2.154 1.776 3.717 1.963 0.686 0.112 2.878 0.167 6.596 0.186v2.486h6.1v-2.617h21.921v-6.727h-21.922v-4.484h-6.1v3.923l-3.507-0.017c-0.8 0-1.335-0.131-1.602-0.393-0.343-0.355-0.513-0.934-0.513-1.719 0-0.616 0.151-1.402 0.437-2.355h-5.47c-0.688 1.869-1.03 3.532-1.03 5.008zm10.79-55.461c0 3.009 0.667 5.717 2.02 8.146 1.354 2.43 3.203 4.317 5.548 5.663 2.363 1.345 4.937 2.02 7.72 2.02 4.042 0 7.567-1.384 10.578-4.15 3.012-2.765 4.518-6.577 4.518-11.454 0-5.4-2-9.586-5.985-12.557l-6.252-5.159c2.974-0.541 5.585-1.906 7.834-4.148 2.955-2.934 4.422-6.484 4.422-10.633 0-2.803-0.667-5.4-2.002-7.736s-3.181-4.185-5.564-5.549c-2.364-1.345-4.919-2.037-7.645-2.037-2.726-0.037-5.243 0.635-7.588 1.98a14.716 14.716 0 0 0-5.547 5.625 15.28 15.28 0 0 0-2.039 7.7c0 3.774 1.316 7.118 3.928 10.033 0.4 0.43 0.819 0.842 1.238 1.234h-0.02l15.194 14.051 0.113 0.094c2.192 1.719 3.28 4.13 3.28 7.232 0 2.523-0.782 4.56-2.345 6.092-1.563 1.55-3.584 2.316-6.062 2.316-2.554 0-4.632-0.804-6.272-2.43-1.62-1.625-2.44-3.754-2.44-6.37 0-1.44 0.249-2.692 0.725-3.776 0.477-1.065 1.353-2.166 2.592-3.25l-3.336-5.85c-2.116 1.402-3.754 3.214-4.898 5.438-1.144 2.205-1.717 4.709-1.717 7.475zm0.323 77.006c0 1.308 0.267 2.58 0.782 3.832 0.533 1.252 1.449 2.653 2.802 4.186h-3.011v6.914h28.02v-6.915h-11.074c-2.879 0-4.746-0.094-5.604-0.28-1.658-0.374-2.936-1.046-3.889-1.999-0.934-0.971-1.41-2.112-1.41-3.476 0-1.028 0.286-1.907 0.858-2.598 0.571-0.71 1.391-1.196 2.459-1.477 1.086-0.28 3.278-0.43 6.556-0.43h12.105v-6.913h-18.435c-3.202 0-5.623 0.785-7.281 2.355-1.925 1.85-2.879 4.129-2.879 6.8zm0.057-138.28c0 1.27 0.363 2.412 1.049 3.44 0.705 1.046 3.07 2.52 3.07 2.52h-3.603v5.981h28.02v-6.914h-11.207l-1.354-0.093c-3.889 0-6.5-0.355-7.834-1.065s-2.002-1.57-2.002-2.598c0-0.504 0.209-1.138 0.61-1.923l-6.024-2.075c-0.477 0.953-0.725 1.868-0.725 2.727zm0-20.908c0 1.663 0.324 3.231 0.953 4.67 0.63 1.458 1.584 2.822 2.842 4.074h-3.28v6.914h38.315v-6.914h-13.516c1.353-1.345 2.327-2.728 2.918-4.092 0.59-1.383 0.894-2.859 0.894-4.447 0-3.57-1.39-6.671-4.154-9.287-2.783-2.616-6.234-3.906-10.352-3.906-4.29 0-7.777 1.251-10.521 3.793-2.726 2.522-4.1 5.588-4.1 9.195zm0.02 116.06c0 3.625 1.258 6.82 3.755 9.604 2.898 3.176 6.482 4.765 10.81 4.765 4.04 0 7.471-1.402 10.292-4.205 2.822-2.803 4.233-6.203 4.233-10.184 0-2.69-0.649-5.176-1.926-7.418a13.863 13.863 0 0 0-5.338-5.307 14.581 14.581 0 0 0-7.32-1.943c-2.574-0.019-4.995 0.634-7.225 1.924s-4.003 3.084-5.318 5.383-1.963 4.764-1.963 7.38zm0.496 70.951h28.02v-6.914h-28.02zm5.756-137.27c0-2.373 0.802-4.336 2.365-5.85 1.582-1.532 3.64-2.296 6.156-2.296s4.575 0.784 6.195 2.335c1.602 1.551 2.403 3.512 2.403 5.848s-0.801 4.28-2.383 5.813c-1.582 1.513-3.66 2.279-6.215 2.279-2.478 0-4.518-0.768-6.12-2.318-1.6-1.533-2.402-3.475-2.402-5.811zm0.382-48.248c0-2.186 0.744-3.999 2.211-5.437 1.468-1.44 3.354-2.149 5.66-2.149 2.326 0 4.232 0.728 5.72 2.186 1.505 1.457 2.25 3.27 2.25 5.4 0 2.205-0.743 4.037-2.192 5.494-1.468 1.458-3.393 2.186-5.795 2.186-2.326 0-4.214-0.728-5.682-2.186-1.448-1.457-2.171-3.289-2.171-5.494zm0.018 114.44c0-2.224 0.726-4.055 2.193-5.494 1.468-1.439 3.355-2.148 5.7-2.148 2.306-0.038 4.212 0.71 5.699 2.168 1.487 1.457 2.23 3.287 2.23 5.492s-0.742 4.018-2.19 5.457c-1.469 1.439-3.395 2.148-5.759 2.148-2.287 0-4.173-0.729-5.66-2.168-1.468-1.439-2.213-3.269-2.213-5.455z" fill="#808080"/>
 <style type="text/css">.st0{fill:#007AFF;}</style>
 <g transform="matrix(.070634 0 0 .070634 256.48 184.75)" fill="#007aff">
  <rect class="st0" x="6.5" y="67.1" width="37" height="147"/>
  <path class="st0" d="m155.4 64.1c-7 0-13.8 1.4-20.5 4.1-6.7 2.8-14.2 7.6-22.4 14.7v-15.8h-37v147h37v-58.1c0-15.1 0.5-24.9 1.5-29.4 2-8.7 5.6-15.4 10.7-20.4 5.2-4.9 11.3-7.4 18.6-7.4 5.5 0 10.2 1.5 13.9 4.5 3.8 3 6.4 7.3 7.9 12.9 1.5 5.7 2.3 17.2 2.3 34.4v63.5h37v-96.7c0-16.8-4.2-29.5-12.6-38.2-9.9-10.1-22.1-15.1-36.4-15.1z"/>
  <path class="st0" d="m245.3 13c-6 4.8-9.5 11.3-10.5 19.5-0.6 3.6-0.9 15.1-1 34.6h-13.3v32h14v115h36v-115h24v-32h-21l0.1-18.4c0-4.2 0.7-7 2.1-8.4 1.9-1.8 5-2.7 9.2-2.7 3.3 0 7.5 0.8 12.6 2.3v-28.7c-10-3.6-18.9-5.4-26.8-5.4-11 0-19.5 2.4-25.4 7.2z"/>
  <path class="st0" d="m454.5 102.7c-6.9-11.7-16.5-21-28.8-27.9s-25.5-10.3-39.5-10.3c-19.4 0-36.5 6.6-51.4 19.7-17 15.2-25.5 34-25.5 56.7 0 21.2 7.5 39.2 22.5 54s33.2 22.2 54.5 22.2c14.4 0 27.7-3.4 39.7-10.1s21.5-16 28.4-28c6.9-11.9 10.4-24.7 10.4-38.4 0.1-13.5-3.4-26.2-10.3-37.9zm-38.3 68c-7.8 7.8-17.6 11.7-29.4 11.7s-21.5-3.9-29.2-11.5c-7.7-7.7-11.5-17.8-11.5-30.2 0-12 3.9-21.9 11.6-29.7 7.7-7.7 17.5-11.6 29.2-11.6 11.9 0 21.7 3.8 29.4 11.5s11.5 17.6 11.5 29.9c0.2 12.1-3.8 22.1-11.6 29.9z"/>
  <path class="st0" d="m877 69.9c-5.6 3.7-13.5 16.1-13.5 16.1v-18.9h-32v147h37v-58.8l0.5-7.1c0-20.4 1.9-34.1 5.7-41.1s8.4-10.5 13.9-10.5c2.7 0 6.1 1.1 10.3 3.2l11.1-31.6c-5.1-2.5-10-3.8-14.6-3.8-6.8 0-12.9 1.9-18.4 5.5z"/>
  <path class="st0" d="m1056.5 85.9c-13.5-14.3-29.9-21.5-49.2-21.5-8.9 0-17.3 1.7-25 5-7.8 3.3-15.1 8.3-21.8 14.9v-17.2h-37v201h37v-70.9c7.2 7.1 14.6 12.2 21.9 15.3 7.4 3.1 15.3 4.7 23.8 4.7 19.1 0 35.7-7.3 49.7-21.8 14-14.6 20.9-32.7 20.9-54.3 0-22.5-6.7-40.8-20.3-55.2zm-28.3 84.7c-7.8 7.9-17.5 11.8-28.9 11.8-11.8 0-21.6-3.9-29.4-11.5-7.8-7.7-11.7-17.8-11.7-30.4 0-12.2 3.9-22.1 11.7-29.8 7.8-7.6 17.6-11.4 29.4-11.4 11.7 0 21.4 3.9 29.1 11.6s11.5 17.6 11.5 29.7c0 12.2-3.9 22.2-11.7 30z"/>
  <path class="st0" d="m811.6 102.3c-7.2-12.2-17.2-22-30.1-29.1-12.9-7.2-26.6-10.7-41.2-10.7-20.2 0-38.1 6.9-53.7 20.6-2.3 2.1-4.5 4.3-6.6 6.5v-0.1l-75.2 79.7-0.5 0.6c-9.2 11.5-22.1 17.2-38.7 17.2-13.5 0-24.4-4.1-32.6-12.3-8.3-8.2-12.4-18.8-12.4-31.8 0-13.4 4.3-24.3 13-32.9 8.7-8.5 20.1-12.8 34.1-12.8 7.7 0 14.4 1.3 20.2 3.8 5.7 2.5 11.6 7.1 17.4 13.6l31.3-17.5c-7.5-11.1-17.2-19.7-29.1-25.7-11.8-6-25.2-9-40-9-16.1 0-30.6 3.5-43.6 10.6s-23.1 16.8-30.3 29.1c-7.2 12.4-10.8 25.9-10.8 40.5 0 21.2 7.4 39.7 22.2 55.5s35.2 23.7 61.3 23.7c28.9 0 51.3-10.5 67.2-31.4l27.6-32.8c2.9 15.6 10.2 29.3 22.2 41.1 15.7 15.5 34.7 23.2 56.9 23.2 15 0 28.9-3.5 41.4-10.5s22.4-16.7 29.7-29.2c7.2-12.4 10.9-25.8 10.9-40.1 0.2-14.3-3.4-27.5-10.6-39.8zm-39.4 72.2c-8.3 8.4-18.8 12.6-31.3 12.6s-22.9-4.2-31.1-12.5c-8.1-8.3-12.2-19.2-12.2-32.6 0-13 4.1-23.7 12.4-32.1 8.2-8.4 18.6-12.6 31.1-12.6 12.7 0 23.2 4.2 31.3 12.4 8.2 8.3 12.3 19.1 12.3 32.3s-4.2 24-12.5 32.5z"/>
 </g>
 <g transform="matrix(.070634 0 0 .070634 976.59 314.2)" fill="#007aff">
  <rect class="st0" x="6.5" y="67.1" width="37" height="147"/>
  <path class="st0" d="m155.4 64.1c-7 0-13.8 1.4-20.5 4.1-6.7 2.8-14.2 7.6-22.4 14.7v-15.8h-37v147h37v-58.1c0-15.1 0.5-24.9 1.5-29.4 2-8.7 5.6-15.4 10.7-20.4 5.2-4.9 11.3-7.4 18.6-7.4 5.5 0 10.2 1.5 13.9 4.5 3.8 3 6.4 7.3 7.9 12.9 1.5 5.7 2.3 17.2 2.3 34.4v63.5h37v-96.7c0-16.8-4.2-29.5-12.6-38.2-9.9-10.1-22.1-15.1-36.4-15.1z"/>
  <path class="st0" d="m245.3 13c-6 4.8-9.5 11.3-10.5 19.5-0.6 3.6-0.9 15.1-1 34.6h-13.3v32h14v115h36v-115h24v-32h-21l0.1-18.4c0-4.2 0.7-7 2.1-8.4 1.9-1.8 5-2.7 9.2-2.7 3.3 0 7.5 0.8 12.6 2.3v-28.7c-10-3.6-18.9-5.4-26.8-5.4-11 0-19.5 2.4-25.4 7.2z"/>
  <path class="st0" d="m454.5 102.7c-6.9-11.7-16.5-21-28.8-27.9s-25.5-10.3-39.5-10.3c-19.4 0-36.5 6.6-51.4 19.7-17 15.2-25.5 34-25.5 56.7 0 21.2 7.5 39.2 22.5 54s33.2 22.2 54.5 22.2c14.4 0 27.7-3.4 39.7-10.1s21.5-16 28.4-28c6.9-11.9 10.4-24.7 10.4-38.4 0.1-13.5-3.4-26.2-10.3-37.9zm-38.3 68c-7.8 7.8-17.6 11.7-29.4 11.7s-21.5-3.9-29.2-11.5c-7.7-7.7-11.5-17.8-11.5-30.2 0-12 3.9-21.9 11.6-29.7 7.7-7.7 17.5-11.6 29.2-11.6 11.9 0 21.7 3.8 29.4 11.5s11.5 17.6 11.5 29.9c0.2 12.1-3.8 22.1-11.6 29.9z"/>
  <path class="st0" d="m877 69.9c-5.6 3.7-13.5 16.1-13.5 16.1v-18.9h-32v147h37v-58.8l0.5-7.1c0-20.4 1.9-34.1 5.7-41.1s8.4-10.5 13.9-10.5c2.7 0 6.1 1.1 10.3 3.2l11.1-31.6c-5.1-2.5-10-3.8-14.6-3.8-6.8 0-12.9 1.9-18.4 5.5z"/>
  <path class="st0" d="m1056.5 85.9c-13.5-14.3-29.9-21.5-49.2-21.5-8.9 0-17.3 1.7-25 5-7.8 3.3-15.1 8.3-21.8 14.9v-17.2h-37v201h37v-70.9c7.2 7.1 14.6 12.2 21.9 15.3 7.4 3.1 15.3 4.7 23.8 4.7 19.1 0 35.7-7.3 49.7-21.8 14-14.6 20.9-32.7 20.9-54.3 0-22.5-6.7-40.8-20.3-55.2zm-28.3 84.7c-7.8 7.9-17.5 11.8-28.9 11.8-11.8 0-21.6-3.9-29.4-11.5-7.8-7.7-11.7-17.8-11.7-30.4 0-12.2 3.9-22.1 11.7-29.8 7.8-7.6 17.6-11.4 29.4-11.4 11.7 0 21.4 3.9 29.1 11.6s11.5 17.6 11.5 29.7c0 12.2-3.9 22.2-11.7 30z"/>
  <path class="st0" d="m811.6 102.3c-7.2-12.2-17.2-22-30.1-29.1-12.9-7.2-26.6-10.7-41.2-10.7-20.2 0-38.1 6.9-53.7 20.6-2.3 2.1-4.5 4.3-6.6 6.5v-0.1l-75.2 79.7-0.5 0.6c-9.2 11.5-22.1 17.2-38.7 17.2-13.5 0-24.4-4.1-32.6-12.3-8.3-8.2-12.4-18.8-12.4-31.8 0-13.4 4.3-24.3 13-32.9 8.7-8.5 20.1-12.8 34.1-12.8 7.7 0 14.4 1.3 20.2 3.8 5.7 2.5 11.6 7.1 17.4 13.6l31.3-17.5c-7.5-11.1-17.2-19.7-29.1-25.7-11.8-6-25.2-9-40-9-16.1 0-30.6 3.5-43.6 10.6s-23.1 16.8-30.3 29.1c-7.2 12.4-10.8 25.9-10.8 40.5 0 21.2 7.4 39.7 22.2 55.5s35.2 23.7 61.3 23.7c28.9 0 51.3-10.5 67.2-31.4l27.6-32.8c2.9 15.6 10.2 29.3 22.2 41.1 15.7 15.5 34.7 23.2 56.9 23.2 15 0 28.9-3.5 41.4-10.5s22.4-16.7 29.7-29.2c7.2-12.4 10.9-25.8 10.9-40.1 0.2-14.3-3.4-27.5-10.6-39.8zm-39.4 72.2c-8.3 8.4-18.8 12.6-31.3 12.6s-22.9-4.2-31.1-12.5c-8.1-8.3-12.2-19.2-12.2-32.6 0-13 4.1-23.7 12.4-32.1 8.2-8.4 18.6-12.6 31.1-12.6 12.7 0 23.2 4.2 31.3 12.4 8.2 8.3 12.3 19.1 12.3 32.3s-4.2 24-12.5 32.5z"/>
 </g>
 <g transform="matrix(.070634 0 0 .070634 285.12 543.77)" fill="#007aff">
  <rect class="st0" x="6.5" y="67.1" width="37" height="147"/>
  <path class="st0" d="m155.4 64.1c-7 0-13.8 1.4-20.5 4.1-6.7 2.8-14.2 7.6-22.4 14.7v-15.8h-37v147h37v-58.1c0-15.1 0.5-24.9 1.5-29.4 2-8.7 5.6-15.4 10.7-20.4 5.2-4.9 11.3-7.4 18.6-7.4 5.5 0 10.2 1.5 13.9 4.5 3.8 3 6.4 7.3 7.9 12.9 1.5 5.7 2.3 17.2 2.3 34.4v63.5h37v-96.7c0-16.8-4.2-29.5-12.6-38.2-9.9-10.1-22.1-15.1-36.4-15.1z"/>
  <path class="st0" d="m245.3 13c-6 4.8-9.5 11.3-10.5 19.5-0.6 3.6-0.9 15.1-1 34.6h-13.3v32h14v115h36v-115h24v-32h-21l0.1-18.4c0-4.2 0.7-7 2.1-8.4 1.9-1.8 5-2.7 9.2-2.7 3.3 0 7.5 0.8 12.6 2.3v-28.7c-10-3.6-18.9-5.4-26.8-5.4-11 0-19.5 2.4-25.4 7.2z"/>
  <path class="st0" d="m454.5 102.7c-6.9-11.7-16.5-21-28.8-27.9s-25.5-10.3-39.5-10.3c-19.4 0-36.5 6.6-51.4 19.7-17 15.2-25.5 34-25.5 56.7 0 21.2 7.5 39.2 22.5 54s33.2 22.2 54.5 22.2c14.4 0 27.7-3.4 39.7-10.1s21.5-16 28.4-28c6.9-11.9 10.4-24.7 10.4-38.4 0.1-13.5-3.4-26.2-10.3-37.9zm-38.3 68c-7.8 7.8-17.6 11.7-29.4 11.7s-21.5-3.9-29.2-11.5c-7.7-7.7-11.5-17.8-11.5-30.2 0-12 3.9-21.9 11.6-29.7 7.7-7.7 17.5-11.6 29.2-11.6 11.9 0 21.7 3.8 29.4 11.5s11.5 17.6 11.5 29.9c0.2 12.1-3.8 22.1-11.6 29.9z"/>
  <path class="st0" d="m877 69.9c-5.6 3.7-13.5 16.1-13.5 16.1v-18.9h-32v147h37v-58.8l0.5-7.1c0-20.4 1.9-34.1 5.7-41.1s8.4-10.5 13.9-10.5c2.7 0 6.1 1.1 10.3 3.2l11.1-31.6c-5.1-2.5-10-3.8-14.6-3.8-6.8 0-12.9 1.9-18.4 5.5z"/>
  <path class="st0" d="m1056.5 85.9c-13.5-14.3-29.9-21.5-49.2-21.5-8.9 0-17.3 1.7-25 5-7.8 3.3-15.1 8.3-21.8 14.9v-17.2h-37v201h37v-70.9c7.2 7.1 14.6 12.2 21.9 15.3 7.4 3.1 15.3 4.7 23.8 4.7 19.1 0 35.7-7.3 49.7-21.8 14-14.6 20.9-32.7 20.9-54.3 0-22.5-6.7-40.8-20.3-55.2zm-28.3 84.7c-7.8 7.9-17.5 11.8-28.9 11.8-11.8 0-21.6-3.9-29.4-11.5-7.8-7.7-11.7-17.8-11.7-30.4 0-12.2 3.9-22.1 11.7-29.8 7.8-7.6 17.6-11.4 29.4-11.4 11.7 0 21.4 3.9 29.1 11.6s11.5 17.6 11.5 29.7c0 12.2-3.9 22.2-11.7 30z"/>
  <path class="st0" d="m811.6 102.3c-7.2-12.2-17.2-22-30.1-29.1-12.9-7.2-26.6-10.7-41.2-10.7-20.2 0-38.1 6.9-53.7 20.6-2.3 2.1-4.5 4.3-6.6 6.5v-0.1l-75.2 79.7-0.5 0.6c-9.2 11.5-22.1 17.2-38.7 17.2-13.5 0-24.4-4.1-32.6-12.3-8.3-8.2-12.4-18.8-12.4-31.8 0-13.4 4.3-24.3 13-32.9 8.7-8.5 20.1-12.8 34.1-12.8 7.7 0 14.4 1.3 20.2 3.8 5.7 2.5 11.6 7.1 17.4 13.6l31.3-17.5c-7.5-11.1-17.2-19.7-29.1-25.7-11.8-6-25.2-9-40-9-16.1 0-30.6 3.5-43.6 10.6s-23.1 16.8-30.3 29.1c-7.2 12.4-10.8 25.9-10.8 40.5 0 21.2 7.4 39.7 22.2 55.5s35.2 23.7 61.3 23.7c28.9 0 51.3-10.5 67.2-31.4l27.6-32.8c2.9 15.6 10.2 29.3 22.2 41.1 15.7 15.5 34.7 23.2 56.9 23.2 15 0 28.9-3.5 41.4-10.5s22.4-16.7 29.7-29.2c7.2-12.4 10.9-25.8 10.9-40.1 0.2-14.3-3.4-27.5-10.6-39.8zm-39.4 72.2c-8.3 8.4-18.8 12.6-31.3 12.6s-22.9-4.2-31.1-12.5c-8.1-8.3-12.2-19.2-12.2-32.6 0-13 4.1-23.7 12.4-32.1 8.2-8.4 18.6-12.6 31.1-12.6 12.7 0 23.2 4.2 31.3 12.4 8.2 8.3 12.3 19.1 12.3 32.3s-4.2 24-12.5 32.5z"/>
 </g>
</svg>
