<svg width="280mm" height="70mm" version="1.1" viewBox="0 0 280 70" xmlns="http://www.w3.org/2000/svg">
 <g transform="translate(0,-227)">
  <g fill="none" stroke-linecap="round" stroke-linejoin="round" stroke-miterlimit="10">
   <g stroke="#3a4144" stroke-width=".69277">
    <path d="m77.589 284.03h15.384"/>
    <path d="m65.848 284.03h6.2021"/>
    <path d="m96.124 274.23h140.34"/>
    <path d="m240.01 274.23h9.282"/>
   </g>
   <path d="m9.2316 247.61h29.87" stroke="#fff" stroke-width=".69277"/>
   <path d="m106.3 296.65h9.4963" stroke="#fff" stroke-width=".69277"/>
   <g stroke="#3a4144">
    <g stroke-width=".69277">
     <path d="m259.74 274.23h9.2828"/>
     <path d="m82.697 233.16c-0.63439-0.14825-1.2965-0.22646-1.9777-0.22646-3.9142 0-7.205 2.5922-8.158 6.1072-0.62561-0.24115-1.306-0.37777-2.0202-0.37777-3.0325 0-5.4911 2.3903-5.4911 5.3394 0 2.9488 2.4586 5.3394 5.4911 5.3394h4.4973"/>
     <path d="m87.886 236.8c-0.81846-1.2785-1.9886-2.3223-3.3789-3.0027"/>
     <path d="m93.841 241.37c-0.78298-0.60389-1.7736-0.96459-2.8509-0.96459-0.65583 0-1.2783 0.13594-1.8424 0.37675-0.03903-0.89013-0.2234-1.7434-0.53076-2.5379"/>
     <path d="m80.689 249.34h10.301c2.5365 0 4.5932-1.9999 4.5932-4.4667"/>
     <path d="m76.588 249.34h2.5516"/>
    </g>
    <path d="m15.653 279.55h102.07" stroke-width=".69286"/>
    <path d="m92.973 284.03c0-1.0052 0.83814-1.8206 1.8719-1.8206 1.0342 0 1.8723 0.81536 1.8723 1.8206 0 1.0056-0.83813 1.8202-1.8723 1.8202-1.0338 0-1.8719-0.81456-1.8719-1.8202z" stroke-width=".69277"/>
   </g>
   <path d="m230.06 292.92c0-1.0056 0.83815-1.8206 1.872-1.8206 1.0341 0 1.8723 0.81499 1.8723 1.8206 0 1.0052-0.83813 1.8206-1.8723 1.8206-1.0338 0-1.872-0.81532-1.872-1.8206z" stroke="#fff" stroke-width=".69277"/>
   <path d="m0.34639 292.92c0-1.0056 0.83828-1.8206 1.8723-1.8206 1.0339 0 1.8722 0.81499 1.8722 1.8206 0 1.0052-0.83825 1.8206-1.8722 1.8206-1.034 0-1.8723-0.81532-1.8723-1.8206z" stroke="#fff" stroke-width=".69277"/>
  </g>
  <path d="m112.52 270.28-4.5349-0.78185 5.7444-31.493 4.5349 0.78185-5.7444 31.493" fill="#fab44e"/>
  <g fill="none" stroke="#3a4144" stroke-linecap="round" stroke-linejoin="round" stroke-miterlimit="10" stroke-width=".69277">
   <path d="m112.52 270.28-4.5349-0.78185 5.7444-31.493 4.5349 0.78185z"/>
   <path d="m113.43 239.68 2.042 0.35216"/>
   <path d="m113.11 241.43 1.0208 0.17624"/>
   <path d="m112.79 243.19 1.0208 0.17591"/>
   <path d="m112.46 244.95 1.0211 0.17625"/>
   <path d="m112.14 246.71 2.042 0.3525"/>
   <path d="m111.82 248.47 1.0212 0.17592"/>
   <path d="m111.5 250.23 1.0208 0.1759"/>
   <path d="m111.18 251.99 1.0212 0.17591"/>
   <path d="m110.86 253.75 2.042 0.35217"/>
   <path d="m110.54 255.51 1.0212 0.1759"/>
   <path d="m110.22 257.27 1.0208 0.17623"/>
   <path d="m109.9 259.03 1.0208 0.1759"/>
   <path d="m109.58 260.79 2.042 0.35217"/>
   <path d="m109.25 262.55 1.0212 0.17592"/>
   <path d="m108.93 264.31 1.0212 0.17591"/>
   <path d="m108.61 266.07 1.0212 0.17624"/>
   <path d="m108.29 267.83 2.042 0.35214"/>
  </g>
  <path d="m111.56 269.78-2.4578-0.83992 6.9292-19.174 2.4579 0.83992-6.9292 19.174" fill="#93d9bd"/>
  <path d="m111.56 269.78-2.4578-0.83992 6.9292-19.174 2.4579 0.83992z" fill="none" stroke="#3a4144" stroke-linecap="round" stroke-linejoin="round" stroke-miterlimit="10" stroke-width=".69277"/>
  <path d="m116.03 249.76 2.1607-2.158 0.29717 2.998z" fill="#fab44e"/>
  <path d="m116.03 249.76 2.1607-2.158 0.29717 2.998z" fill="none" stroke="#3a4144" stroke-linecap="round" stroke-linejoin="round" stroke-miterlimit="10" stroke-width=".69277"/>
  <path d="m117.34 248.46 0.97127 0.33167-0.11732-1.1846z" fill="#3a4144"/>
  <path d="m117.34 248.46 0.97127 0.33167-0.11732-1.1846z" fill="none" stroke="#3a4144" stroke-linecap="round" stroke-linejoin="round" stroke-miterlimit="10" stroke-width=".69277"/>
  <path d="m110.33 269.36 6.9296-19.174" fill="none" stroke="#3a4144" stroke-linecap="round" stroke-linejoin="round" stroke-miterlimit="10" stroke-width=".69277"/>
  <path d="m111.17 270.86-2.4579-0.83992 0.39028-1.0797 2.4578 0.83992-0.39026 1.0797" fill="#c4cbc9"/>
  <path d="m111.17 270.86-2.4579-0.83992 0.39028-1.0797 2.4578 0.83992z" fill="none" stroke="#3a4144" stroke-linecap="round" stroke-linejoin="round" stroke-miterlimit="10" stroke-width=".69277"/>
  <path d="m110.43 272.9-2.4579-0.83992 0.73767-2.0409 2.4579 0.83992-0.73767 2.0409" fill="#f0f0ef"/>
  <path d="m110.43 272.9-2.4579-0.83992 0.73767-2.0409 2.4579 0.83992z" fill="none" stroke="#3a4144" stroke-linecap="round" stroke-linejoin="round" stroke-miterlimit="10" stroke-width=".69277"/>
  <path d="m105.91 249.75 2.5942-0.23397 1.9316 20.236-2.5942 0.23431-1.9316-20.237" fill="#ee43aa"/>
  <path d="m105.91 249.75 2.5942-0.23397 1.9316 20.236-2.5942 0.23431z" fill="none" stroke="#3a4144" stroke-linecap="round" stroke-linejoin="round" stroke-miterlimit="10" stroke-width=".69277"/>
  <path d="m110.44 269.75-1.0377 2.8381-1.5565-2.6038z" fill="#fab44e"/>
  <path d="m110.44 269.75-1.0377 2.8381-1.5565-2.6038z" fill="none" stroke="#3a4144" stroke-linecap="round" stroke-linejoin="round" stroke-miterlimit="10" stroke-width=".69277"/>
  <path d="m109.81 271.47-1.025 0.0922 0.61507 1.0292z" fill="#3a4144"/>
  <path d="m109.81 271.47-1.025 0.0922 0.61507 1.0292z" fill="none" stroke="#3a4144" stroke-linecap="round" stroke-linejoin="round" stroke-miterlimit="10" stroke-width=".69277"/>
  <path d="m107.21 249.63 1.9313 20.236" fill="none" stroke="#3a4144" stroke-linecap="round" stroke-linejoin="round" stroke-miterlimit="10" stroke-width=".69277"/>
  <path d="m105.8 248.61 2.5941-0.23432 0.10856 1.1398-2.5942 0.23397-0.10854-1.1395" fill="#c4cbc9"/>
  <path d="m105.8 248.61 2.5941-0.23432 0.10856 1.1398-2.5942 0.23397z" fill="none" stroke="#3a4144" stroke-linecap="round" stroke-linejoin="round" stroke-miterlimit="10" stroke-width=".69277"/>
  <path d="m105.6 246.45 2.5945-0.2343 0.20549 2.1539-2.5941 0.23432-0.20585-2.154" fill="#f0f0ef"/>
  <path d="m105.6 246.45 2.5945-0.2343 0.20549 2.1539-2.5941 0.23432z" fill="none" stroke="#3a4144" stroke-linecap="round" stroke-linejoin="round" stroke-miterlimit="10" stroke-width=".69277"/>
  <path d="m116.79 261.09h-11.299v11.25c0 1.0466 0.87222 1.8947 1.9485 1.8947h7.402c1.0763 0 1.9485-0.84812 1.9485-1.8947v-11.25" fill="#c4cbc9"/>
  <path d="m116.79 261.09h-11.299v11.25c0 1.0466 0.87222 1.8947 1.9485 1.8947h7.402c1.0763 0 1.9485-0.84812 1.9485-1.8947z" fill="none" stroke="#3a4144" stroke-linecap="round" stroke-linejoin="round" stroke-miterlimit="10" stroke-width=".69277"/>
  <path d="m117.46 258.53h-12.646v2.5618h12.646v-2.5618" fill="#d7dcdb"/>
  <g fill="none" stroke="#3a4144" stroke-linecap="round" stroke-linejoin="round" stroke-miterlimit="10" stroke-width=".69277">
   <path d="m117.46 258.53h-12.646v2.5618h12.646z"/>
   <path d="m106.97 261.15v5.1037"/>
   <path d="m115.21 266.81v1.3803"/>
   <path d="m115.21 269.36v1.3803"/>
   <path d="m240.04 251.55c0.62877 1.2864 1.977 2.1755 3.5391 2.1755h30.123c3.289 0 5.9558-2.5929 5.9558-5.7913 0-3.1985-2.6668-5.7916-5.9558-5.7916-0.77492 0-1.5129 0.14824-2.1919 0.40988-1.0334-3.8126-4.6027-6.6247-8.8486-6.6247-4.9228 0-8.9357 3.7798-9.1415 8.5174-0.61262-0.26131-1.2874-0.40851-1.9987-0.40851-2.3086 0-4.2451 1.5288-4.8103 3.6008-0.71414-0.92634-1.8495-1.5282-3.1316-1.5282"/>
   <path d="m241.74 246.55c-1.2358 0.64011-2.0774 1.906-2.0774 3.3631"/>
  </g>
  <g transform="matrix(.13351 0 0 .13068 144.53 227.28)">
   <path d="m437.56 25.172v344.52c0 4.3359-3.5117 7.8438-7.8476 7.8438h-414.37c-4.332 0-7.8438-3.5078-7.8438-7.8438v-344.53c0-9.4727 7.6875-17.164 17.164-17.164h395.73c9.4727 0 17.164 7.6914 17.164 17.176z" fill="#fff"/>
   <path d="m437.56 235.61v134.07c0 4.3359-3.5117 7.8438-7.8476 7.8438h-121.68c-4.2461-11.582-6.5586-24.098-6.5586-37.133 0-59.758 48.617-108.38 108.38-108.38 9.5703 4e-3 18.859 1.25 27.707 3.5938z" fill="#e4eaf8"/>
   <path d="m437.56 25.172v61.379h-430.06v-61.379c0-9.4844 7.6875-17.176 17.164-17.176h395.73c9.4766 0 17.164 7.6914 17.164 17.176z" fill="#e4eaf8"/>
   <g>
    <path d="m437.56 72.82h-430.06v-47.145c0-9.7617 7.9141-17.676 17.676-17.676h394.71c9.7617 0 17.676 7.9141 17.676 17.676z" fill="#fab44e"/>
    <path d="m188.23 288.66h-97.012c-6.8984 0-12.492-5.5938-12.492-12.492v-26.66c0-6.8984 5.5938-12.492 12.492-12.492h97.012c6.8984 0 12.492 5.5938 12.492 12.492v26.66c0 6.8984-5.5938 12.492-12.492 12.492z" fill="#93d9bd"/>
    <path d="m363.54 249.15v27.383c0 6.6992-5.4336 12.133-12.133 12.133h-84.605c-6.6992 0-12.129-5.4336-12.129-12.133v-27.383c0-6.6992 5.4336-12.133 12.129-12.133h84.605c4.543 0 8.4961 2.4883 10.574 6.1797 1 1.7539 1.5586 3.7852 1.5586 5.9531z" fill="#fab44e"/>
   </g>
   <path d="m363.54 249.15v27.383c0 6.6992-5.4336 12.133-12.133 12.133h-36.77c10.699-19.605 27.277-35.566 47.344-45.469 1 1.7539 1.5586 3.7852 1.5586 5.9531z" fill="#f9b428"/>
   <path d="m504.5 340.4c0 52.273-42.375 94.648-94.648 94.648-52.27 0-94.645-42.375-94.645-94.648 0-52.273 42.375-94.648 94.645-94.648 52.273 0 94.648 42.375 94.648 94.648z" fill="#93d9bd"/>
   <path d="m448.38 319.59h-17.711v-17.715c0-3.9102-3.1719-7.082-7.0859-7.082h-27.453c-3.9141 0-7.0859 3.1719-7.0859 7.082v17.711h-17.711c-3.9102 0-7.082 3.1719-7.082 7.0859v27.453c0 3.9141 3.1719 7.0859 7.082 7.0859h17.711v17.711c0 3.9141 3.1719 7.0859 7.0859 7.0859h27.453c3.9141 0 7.0859-3.1719 7.0859-7.0859v-17.711h17.711c3.9141 0 7.0859-3.1719 7.0859-7.0859v-27.453c0-3.9141-3.1719-7.082-7.0859-7.082z" fill="#fff"/>
   <path d="m188.23 200.14h-97.012c-6.8984 0-12.492-5.5938-12.492-12.492v-26.66c0-6.8984 5.5938-12.492 12.492-12.492h97.012c6.8984 0 12.492 5.5938 12.492 12.492v26.66c0 6.9023-5.5938 12.492-12.492 12.492z" fill="#93d9bd"/>
   <path d="m351.04 200.14h-83.883c-6.8984 0-12.492-5.5938-12.492-12.492v-26.66c0-6.8984 5.5938-12.492 12.492-12.492h83.883c6.8984 0 12.492 5.5938 12.492 12.492v26.66c0 6.9023-5.5938 12.492-12.492 12.492z" fill="#93d9bd"/>
   <path d="m296.68 34.109h-231.5c-4.1406 0-7.5 3.3555-7.5 7.5 0 4.1406 3.3594 7.5 7.5 7.5h231.5c4.1445 0 7.5-3.3594 7.5-7.5 0-4.1445-3.3594-7.5-7.5-7.5z" fill="#fff"/>
   <g fill="#ff8031">
    <path d="m328.07 32.348c-4.1445 0-7.5 3.3555-7.5 7.5v1.125c0 4.1445 3.3555 7.5 7.5 7.5 4.1445 0 7.5-3.3555 7.5-7.5v-1.125c0-4.1445-3.3594-7.5-7.5-7.5z"/>
    <path d="m353.97 32.348c-4.1445 0-7.5 3.3555-7.5 7.5v1.125c0 4.1445 3.3555 7.5 7.5 7.5 4.1406 0 7.5-3.3555 7.5-7.5v-1.125c0-4.1445-3.3594-7.5-7.5-7.5z"/>
    <path d="m379.88 32.348c-4.1406 0-7.5 3.3555-7.5 7.5v1.125c0 4.1445 3.3594 7.5 7.5 7.5 4.1445 0 7.5-3.3555 7.5-7.5v-1.125c0-4.1445-3.3555-7.5-7.5-7.5z"/>
   </g>
   <path d="m503.49 299.55c-1.6562-3.793-6.0742-5.5273-9.875-3.8711-3.7969 1.6602-5.5274 6.082-3.8711 9.8789 4.8164 11.012 7.2539 22.734 7.2539 34.844 0 48.055-39.094 87.148-87.148 87.148-48.051 0-87.145-39.094-87.145-87.148 0-48.051 39.094-87.145 87.145-87.145 24.305 0 47.688 10.266 64.156 28.168 2.8047 3.0508 7.5469 3.25 10.598 0.44532 3.0469-2.8047 3.2461-7.5508 0.4414-10.598-11.094-12.062-24.871-21.16-39.988-26.723v-218.87c0-13.883-11.293-25.176-25.176-25.176h-394.71c-13.883 0-25.176 11.293-25.176 25.176v343.78c0 8.5898 6.9883 15.582 15.578 15.582h182.11c4.1445 0 7.5-3.3594 7.5-7.5039 0-4.1406-3.3555-7.5-7.5-7.5h-182.11c-0.31641 0-0.57812-0.25781-0.57812-0.57812v-343.78c0-5.6094 4.5625-10.176 10.176-10.176h394.71c5.6094 0 10.176 4.5625 10.176 10.176v214.61c-6.6094-1.3398-13.375-2.0391-20.207-2.0391-13.855 0-27.074 2.7812-39.137 7.8008-6.9336 2.9062-14.68 7.5664-14.68 7.5664-11.504 7.1602-21.492 16.539-29.355 27.543l-8.8906 15c-6.4609 13.391-10.086 28.398-10.086 44.238 0 10.301 1.5391 20.25 4.3906 29.633h-83.789c-4.1406 0-7.5 3.3594-7.5 7.5 0 4.1445 3.3594 7.5039 7.5 7.5039h89.68c16.598 34.016 51.539 57.512 91.867 57.512 56.324 0 102.15-45.824 102.15-102.15 0-14.188-2.8633-27.934-8.5078-40.852z" fill="none" stroke="#3a4144" stroke-width="5.2316"/>
   <g fill="#abb0b7">
    <path d="m167.32 317.39v1.1289c0 4.1406 3.3555 7.5 7.5 7.5 4.1445 0 7.5-3.3594 7.5-7.5v-1.1289c0-4.1445-3.3555-7.5-7.5-7.5-4.1445 0-7.5 3.3594-7.5 7.5z"/>
    <path d="m200.72 309.89c-4.1445 0-7.5 3.3555-7.5 7.5v1.1289c0 4.1406 3.3555 7.5 7.5 7.5 4.1445 0 7.5-3.3594 7.5-7.5v-1.1289c0-4.1406-3.3594-7.5-7.5-7.5z"/>
    <path d="m262.17 121.45v-1.1289c0-4.1406-3.3594-7.5-7.5-7.5-4.1445 0-7.5 3.3594-7.5 7.5v1.1289c0 4.1406 3.3555 7.5 7.5 7.5 4.1406 0 7.5-3.3594 7.5-7.5z"/>
    <path d="m288.07 121.45v-1.1289c0-4.1406-3.3555-7.5-7.5-7.5-4.1406 0-7.5 3.3594-7.5 7.5v1.1289c0 4.1406 3.3594 7.5 7.5 7.5 4.1445 0 7.5-3.3594 7.5-7.5z"/>
   </g>
  </g>
 </g>
</svg>
