<svg class="our_team__featured__illustration" version="1.1" viewBox="0 0 800 400" xmlns="http://www.w3.org/2000/svg">
   <g fill="#fff">
      <path d="m85.876 347.79 8.2-14.3c0.6-1 0.6-2.2 0-3.2l-8.2-14.3c-0.6-1-1.6-1.6-2.7-1.6h-16.4c-1.1 0-2.2 0.6-2.8 1.6l-8.2 14.3c-0.6 1-0.6 2.2 0 3.2l8.2 14.3c0.6 1 1.6 1.6 2.8 1.6h16.4c1.1 0 2.2-0.6 2.7-1.6zm241.2-296.3 8.2-14.3c0.6-1 0.6-2.2 0-3.2l-8.1-14.2c-0.6-1-1.6-1.6-2.8-1.6h-16.5c-1.1 0-2.2 0.6-2.7 1.6l-8.2 14.3c-0.6 1-0.6 2.2 0 3.2l8.2 14.3c0.6 1 1.6 1.6 2.8 1.6h16.3c1.2-0.1 2.2-0.7 2.8-1.7zm-221.1 313.8 3.2-5.5c0.6-1 0.6-2.2 0-3.2l-3.2-5.5c-0.6-1-1.6-1.6-2.7-1.6h-6.3c-1.1 0-2.2 0.6-2.7 1.6l-3.2 5.5c-0.6 1-0.6 2.2 0 3.2l3.2 5.5c0.6 1 1.6 1.6 2.7 1.6h6.3c1 0 2.1-0.6 2.7-1.6z"/>
      <path d="m41.848 365.76c-0.60533-0.96427-0.60533-2.1214 0-3.0857l8.2728-13.789c0.60533-0.96427 0.60533-2.1214 0-3.0857l-18.463-30.568c-0.60533-0.96429-0.60533-2.1214 0-3.0857l38.741-64.221c0.60533-0.96426 0.60533-2.1214 0-3.0857l-18.463-30.568c-0.60533-0.96428-0.60533-2.1214 0-3.0857l43.685-72.61c0.60533-0.96427 1.6142-1.5428 2.8249-1.5428h47.014c1.1098 0 2.2196 0.57857 2.724 1.5428l8.3737 13.982c0.60533 0.96426 1.6142 1.5428 2.724 1.5428h26.735c1.1098 0 2.2196-0.57857 2.724-1.5428l13.317-22.178c0.60532-0.96426 0.60532-2.1214 0-3.0857l-13.317-22.178c-0.60533-0.96429-0.60533-2.1214 0-3.0857l43.786-72.514c0.60533-0.96427 1.6142-1.5428 2.724-1.5428h26.735c1.1098 0 2.2195-0.57856 2.724-1.5428l18.664-30.471c0.60533-0.96428 1.6142-1.5428 2.8249-1.5428h-288.74v411.75h68.806zm139.23-253.7c1.1098 0 2.2195 0.57856 2.724 1.5428l8.2728 13.789c0.60532 0.96426 0.60532 2.1214 0 3.0857l-8.2728 13.789c-0.60532 0.96427-1.6142 1.5428-2.724 1.5428h-16.546c-1.1098 0-2.2195-0.57858-2.724-1.5428l-8.2729-13.789c-0.60532-0.96427-0.60532-2.1214 0-3.0857l8.2729-13.789c0.60533-0.96429 1.6142-1.5428 2.724-1.5428zm-40.557-33.557c1.1098 0 2.1187 0.57856 2.724 1.5428l13.317 22.178c0.60533 0.96426 0.60533 2.1214 0.10089 3.0857l-13.418 22.178c-0.60533 0.96428-1.6142 1.5428-2.724 1.5428h-26.735c-1.1098 0-2.2196-0.57857-2.724-1.5428l-13.317-22.178c-0.60533-0.96427-0.60533-2.1214 0-3.0857l13.418-22.178c0.60532-0.96428 1.6142-1.5428 2.724-1.5428zm-32.789-23.721 3.2284 5.3035c0.60532 0.96428 0.60532 2.1214 0 3.0857l-3.2284 5.3035c-0.60533 0.96428-1.6142 1.5428-2.724 1.5428h-6.356c-1.1098 0-2.2195-0.57856-2.724-1.5428l-3.2284-5.3035c-0.60533-0.96427-0.60533-2.1214 0-3.0857l3.2284-5.3035c0.60533-0.96428 1.6142-1.5428 2.724-1.5428h6.356c1.1098 0 2.2195 0.57856 2.724 1.5428zm98.669-51.974c1.1098 0 2.2196 0.57857 2.724 1.5428l13.317 22.178c0.60533 0.96428 0.60533 2.1214 0 3.0857l-13.317 22.178c-0.60534 0.96428-1.6142 1.5428-2.724 1.5428h-26.735c-1.1098 0-2.2195-0.57857-2.724-1.5428l-13.418-22.178c-0.60533-0.96428-0.60533-2.1214 0-3.0857l13.418-22.178c0.60533-0.96428 1.6142-1.5428 2.724-1.5428zm-205.51 243.67c0-0.48214 0.10089-0.96428 0.40355-1.4464l13.317-22.178c0.60533-0.96428 1.6142-1.5428 2.8249-1.5428h26.635c1.1098 0 2.2195 0.57856 2.8249 1.5428l13.317 22.178c0.60533 0.96428 0.60533 2.1214 0.10089 3.0857l-13.317 22.178c-0.60533 0.96429-1.6142 1.5428-2.8249 1.5428h-26.735c-1.1098 0-2.2195-0.57855-2.8249-1.5428l-13.317-22.178c-0.30267-0.48216-0.40355-0.96429-0.40355-1.4464z" stroke-width=".98633"/>
      <path d="m143.19 273.33 8.2-14.3c0.6-1 0.6-2.2 0-3.2l-8.2-14.3c-0.6-1-1.6-1.6-2.7-1.6h-16.4c-1.1 0-2.2 0.6-2.8 1.6l-8.2 14.3c-0.6 1-0.6 2.2 0 3.2l8.2 14.3c0.6 1 1.6 1.6 2.8 1.6h16.4c1.1 0 2.2-0.6 2.7-1.6zm136.12-89.52 8.2-14.3c0.6-1 0.6-2.2 0-3.2l-8.1-14.2c-0.6-1-1.6-1.6-2.8-1.6h-16.5c-1.1 0-2.2 0.6-2.7 1.6l-8.2 14.3c-0.6 1-0.6 2.2 0 3.2l8.2 14.3c0.6 1 1.6 1.6 2.8 1.6h16.3c1.2-0.1 2.2-0.7 2.8-1.7z"/>
   </g>
</svg>
