<svg height="512pt" viewBox="-43 0 512 512.002" width="512pt" xmlns="http://www.w3.org/2000/svg"><path d="m173.988281 462.371094c0-14.015625-11.402343-25.417969-25.417969-25.417969-14.015624 0-25.417968 11.402344-25.417968 25.417969s11.402344 25.417968 25.417968 25.417968c14.015626 0 25.417969-11.402343 25.417969-25.417968zm-25.417969 10.417968c-5.742187 0-10.414062-4.671874-10.414062-10.417968s4.671875-10.417969 10.414062-10.417969c5.742188 0 10.417969 4.671875 10.417969 10.417969s-4.675781 10.417968-10.417969 10.417968zm0 0"/><path d="m169.203125 47.714844c4.144531 0 7.5-3.359375 7.5-7.5 0-4.144532-3.355469-7.5-7.5-7.5h-41.265625c-4.144531 0-7.503906 3.355468-7.503906 7.5 0 4.140625 3.359375 7.5 7.503906 7.5zm0 0"/><path d="m338.015625 240.628906c25.597656 0 46.421875-20.824218 46.421875-46.421875 0-25.597656-20.824219-46.425781-46.421875-46.425781s-46.425781 20.828125-46.425781 46.425781c0 25.597657 20.828125 46.421875 46.425781 46.421875zm0-77.84375c17.324219 0 31.421875 14.09375 31.421875 31.421875 0 17.324219-14.097656 31.421875-31.421875 31.421875-17.328125 0-31.421875-14.097656-31.421875-31.421875 0-17.328125 14.09375-31.421875 31.421875-31.421875zm0 0"/><path d="m0 35.351562v441.296876c0 19.492187 15.859375 35.351562 35.355469 35.351562h95.714843c4.144532 0 7.5-3.355469 7.5-7.5 0-4.140625-3.355468-7.5-7.5-7.5h-95.714843c-11.222657 0-20.355469-9.128906-20.355469-20.351562v-441.296876c0-11.222656 9.132812-20.351562 20.355469-20.351562h226.433593c11.222657 0 20.351563 9.128906 20.351563 20.351562v89.652344c-.070313.066406-.140625.136719-.210937.207032l-12.914063 12.910156c-.808594.8125-1.464844 1.714844-1.972656 2.679687-2.191407 4.183594-1.535157 9.484375 1.976562 12.996094l7.609375 7.609375c-.5.929688-.972656 1.878906-1.429687 2.832031-.191407.398438-.367188.800781-.546875 1.203125-.253906.558594-.503906 1.113282-.742188 1.675782-.207031.488281-.402344.984374-.597656 1.476562-.191406.484375-.382812.964844-.5625 1.453125-.195312.53125-.382812 1.066406-.570312 1.605469-.074219.222656-.160157.445312-.234376.667968l-1.675781 1.671876h-7.613281v-89.988282c0-8.421875-6.851562-15.277344-15.273438-15.277344h-197.621093c-8.425781 0-15.277344 6.855469-15.277344 15.277344v329.40625c0 8.425782 6.855469 15.277344 15.277344 15.277344h197.617187c8.425782 0 15.277344-6.851562 15.277344-15.277344v-61.746094c.523438-.285156 1.046875-.566406 1.5625-.859374l12.949219 12.953124c.335937.335938.695312.644532 1.058593.9375.097657.078126.195313.148438.292969.222657.285157.214843.574219.417969.875.605469.097657.0625.195313.117187.292969.175781.324219.195312.65625.371093.996094.535156.066406.03125.136718.066406.203125.097656.40625.183594.820312.351563 1.246093.492188 0 0 .003907 0 .003907.003906v109.820313c0 11.222656-9.128907 20.351562-20.351563 20.351562h-95.714844c-4.144531 0-7.5 3.359375-7.5 7.5 0 4.144531 3.355469 7.503906 7.5 7.503906h95.714844c19.492188 0 35.355469-15.859375 35.355469-35.355468v-114.851563l16.894531-16.898437c4.964844-4.964844 4.964844-13.042969 0-18.007813l-12.949218-12.953125c4.027343-7.074219 7.152343-14.609375 9.304687-22.445312h18.308594c5.664062 0 10.46875-3.71875 12.117187-8.839844h6.328125c6.109375 0 11.082031-4.972656 11.082031-11.082032v-10.757812c4.351563-1.320312 8.566407-3.066406 12.585938-5.21875l7.609375 7.609375c2.09375 2.09375 4.878906 3.246094 7.839844 3.246094 2.957031 0 5.742187-1.152344 7.835937-3.246094l12.914063-12.914063c4.316406-4.320312 4.316406-11.351562-.003907-15.671874l-7.609374-7.609376c2.152343-4.015624 3.898437-8.230468 5.222656-12.589843h10.753906c6.113281 0 11.085938-4.972657 11.085938-11.082031v-18.257813c0-6.113281-4.972657-11.085937-11.085938-11.085937h-10.753906c-1.320313-4.355469-3.070313-8.570313-5.222656-12.589844l7.613281-7.609375c4.316406-4.320313 4.316406-11.351563-.003907-15.671875l-12.910156-12.914063c-2.09375-2.09375-4.875-3.246093-7.835937-3.246093-2.960938 0-5.742188 1.15625-7.835938 3.246093l-7.609375 7.609375c-4.019531-2.152344-8.234375-3.898437-12.589844-5.21875v-10.753906c0-6.113281-4.972656-11.085938-11.082031-11.085938h-18.257812c-6.113281 0-11.085938 4.972657-11.085938 11.085938v10.753906c-4.355469 1.320313-8.570312 3.070313-12.589843 5.222656l-7.605469-7.609374c-.148438-.148438-.308594-.28125-.464844-.421876v-89.4375c0-19.492187-15.859375-35.351562-35.351563-35.351562h-226.433593c-19.496094 0-35.355469 15.859375-35.355469 35.351562zm247.65625 48.652344v23.304688h-153.679688v-23.582032h153.402344c.152344 0 .277344.125.277344.277344zm-198.171875 0c0-.152344.125-.277344.277344-.277344h29.214843v23.582032h-29.492187zm197.894531 329.683594h-197.617187c-.152344 0-.277344-.125-.277344-.277344v-291.101562h198.171875v50.25c-.121094-.042969-.246094-.078125-.367188-.121094-.550781-.1875-1.105468-.367188-1.65625-.546875-.234374-.074219-.46875-.152344-.703124-.222656-.136719-.042969-.273438-.085938-.410157-.128907-.910156-.28125-1.828125-.550781-2.746093-.804687v-18.304687c0-6.582032-5.019532-12.015626-11.433594-12.667969-.425782-.042969-.859375-.066407-1.300782-.066407h-26.667968c-7.023438 0-12.734375 5.710938-12.734375 12.734376v18.304687c-7.832031 2.152344-15.371094 5.277344-22.449219 9.308594l-12.949219-12.953125c-2.402343-2.402344-5.601562-3.730469-9.003906-3.730469s-6.597656 1.324219-9.003906 3.730469l-18.859375 18.859375c-2.480469 2.480469-3.722656 5.742187-3.722656 9 0 1.632812.308593 3.261719.929687 4.796875.621094 1.53125 1.550781 2.96875 2.792969 4.210937l12.953125 12.949219c-1.511719 2.65625-2.898438 5.375-4.152344 8.148438-.226563.507812-.4375 1.019531-.660156 1.527343-.179688.421875-.371094.839844-.546875 1.265625-.117188.285156-.222656.570313-.339844.855469-1.402344 3.476563-2.613281 7.03125-3.609375 10.648437h-18.304687c-7.023438 0-12.734376 5.714844-12.734376 12.734376v26.671874c0 7.019532 5.710938 12.730469 12.734376 12.730469h18.304687c1.039063 3.777344 2.304687 7.480469 3.789063 11.097657 1.589843 3.890624 3.429687 7.683593 5.519531 11.351562l-12.953125 12.953125c-.617188.621094-1.160156 1.289063-1.628906 1.992187-1.394532 2.117188-2.09375 4.5625-2.09375 7.007813 0 3.261719 1.242187 6.523437 3.722656 9.003906l18.859375 18.859375c2.40625 2.40625 5.605469 3.730469 9.003906 3.730469 3.402344 0 6.601563-1.328125 9.003906-3.730469l12.953125-12.953125c5.765625 3.285157 11.835938 5.953125 18.121094 8 1.433594.464844 2.871094.910157 4.324219 1.308594v18.304687c0 7.023438 5.714843 12.734376 12.734375 12.734376h26.667968c.441407 0 .875-.023438 1.300782-.066407 6.414062-.652343 11.433594-6.085937 11.433594-12.667969v-18.304687c1.980468-.542969 3.945312-1.152344 5.882812-1.820313v55.117188c0 .15625-.125.28125-.277344.28125zm61.269532-137.195312c-5.820313 0-10.894532 3.957031-12.347657 9.625-1.945312 7.597656-4.964843 14.882812-8.976562 21.652343-2.984375 5.035157-2.195313 11.425781 1.917969 15.542969l12.585937 12.582031-15.652344 15.652344-12.582031-12.585937c-4.121094-4.117188-10.511719-4.902344-15.546875-1.917969-2 1.183593-4.050781 2.273437-6.136719 3.285156-.007812.003906-.015625.003906-.023437.007813-2.492188 1.207031-5.035157 2.285156-7.617188 3.234374-.023437.007813-.050781.019532-.074219.027344-1.136718.417969-2.28125.796875-3.429687 1.164063-.257813.078125-.511719.160156-.765625.238281-1.1875.363281-2.378906.707031-3.578125 1.015625-.007813 0-.015625.003906-.023437.003906-5.667969 1.453125-9.625 6.527344-9.625 12.347657v17.785156h-22.136719v-17.785156c0-5.820313-3.957031-10.894532-9.625-12.347657-7.597657-1.945312-14.882813-4.964843-21.648438-8.976562-.316406-.1875-.636719-.359375-.960937-.515625-4.238282-2.054688-9.226563-1.609375-12.992188 1.089844-.558594.398437-1.09375.847656-1.59375 1.34375l-12.582031 12.585937-15.652344-15.652344 12.585938-12.582031c3.597656-3.601562 4.652343-8.945312 2.863281-13.597656-.257812-.667969-.570312-1.316406-.945312-1.945313-4.011719-6.773437-7.03125-14.058593-8.976563-21.652343-.441406-1.730469-1.226563-3.300782-2.265625-4.648438-.023438-.03125-.042969-.0625-.070312-.09375-.164063-.207031-.339844-.40625-.515626-.605469-.054687-.058593-.101562-.125-.160156-.1875-.121094-.128906-.25-.25-.375-.375-.121094-.121093-.234375-.242187-.359375-.355469-.070312-.066406-.148437-.125-.21875-.1875-.1875-.164062-.375-.332031-.570312-.484374-.257813-.199219-.523438-.390626-.796875-.570313-.015625-.007813-.03125-.019531-.046875-.03125-.164063-.109375-.335938-.203125-.503907-.304687-.128906-.078126-.253906-.160157-.382812-.230469-1.820312-.996094-3.898438-1.550781-6.082031-1.550781h-17.785157v-22.136719h17.785157c1.21875 0 2.402343-.179688 3.527343-.507813 3.671876-1.0625 6.710938-3.746094 8.214844-7.335937.238282-.574219.445313-1.164063.605469-1.78125 1.652344-6.453125 4.089844-12.679688 7.246094-18.566407.558593-1.039062 1.128906-2.070312 1.730469-3.085937 1.121093-1.886719 1.707031-3.96875 1.789062-6.046875.042969-1.039062-.046875-2.078125-.253906-3.089844-.492188-2.367187-1.65625-4.605468-3.457032-6.402344l-12.582031-12.585937 15.652344-15.648437 12.585937 12.582031c.726563.730469 1.535157 1.351562 2.386719 1.867187.046875.03125.09375.066406.144531.09375.066407.039063.140626.074219.210938.113282 3.59375 2.027343 8.019531 2.210937 11.839844.359374.324218-.15625.644531-.328124.960937-.515624 6.765625-4.011719 14.050781-7.03125 21.648438-8.976563 5.667969-1.449219 9.625-6.527344 9.625-12.347656v-17.785157h22.136719v17.785157c0 5.820312 3.957031 10.898437 9.625 12.347656 1.226562.3125 2.453124.667969 3.671874 1.039063.011719.003906.019532.007812.03125.011718.363282.109375.722657.234375 1.085938.351563.867188.28125 1.730469.570312 2.59375.878906.402344.144531.804688.300781 1.207031.449219.832031.316406 1.664063.644531 2.488281.984375.382813.160156.765626.320312 1.148438.488281.316406.136719.628906.285156.941406.425781v13.878907c0 6.109374 4.972656 11.082031 11.085938 11.082031h10.753906c1.320312 4.351562 3.070312 8.566406 5.222656 12.589843l-5.589844 5.589844c-11.234374-18.859375-31.832031-31.523437-55.335937-31.523437-35.480469 0-64.347656 28.867187-64.347656 64.347656 0 35.484375 28.867187 64.351563 64.347656 64.351563 35.484375 0 64.351563-28.867188 64.351563-64.351563 0-1.421875-.042969-2.832031-.136719-4.230469l2.011719 2.011719c.132812.128906.269531.246094.40625.367187.136718.125.269531.257813.410156.375.125.101563.261718.191407.390625.289063.164062.121094.320312.25.484375.359375.101562.066406.207031.121094.308594.183594.207031.128906.410156.257812.621093.375.03125.015625.058594.027344.089844.039062.609375.320313 1.242187.582032 1.898437.78125.34375.105469.695313.195313 1.050782.261719.101562.023437.207031.03125.3125.046875.253906.042969.507812.089844.765625.113281.363281.035157.730469.054688 1.101562.054688 2.960938 0 5.742188-1.152344 7.835938-3.246094l7.609375-7.609375c4.019531 2.152344 8.234375 3.898438 12.589844 5.21875v10.757812c0 .414063.027343.820313.070312 1.226563.015625.128906.039062.253906.058594.382813.039062.273437.085937.542968.144531.808593.03125.144531.074219.289063.113281.433594.0625.242187.132813.480469.210938.714844.050781.144531.105468.289062.160156.433593.089844.226563.183594.449219.285156.667969.039063.082031.070313.171875.109375.253907zm-43.59375-11.070313c0 27.210937-22.140626 49.351563-49.351563 49.351563s-49.347656-22.140626-49.347656-49.351563 22.136719-49.347656 49.347656-49.347656 49.351563 22.136719 49.351563 49.347656zm45.175781-118.214844c4.441406-2.632812 9.21875-4.617187 14.199219-5.890625 4.929687-1.261718 8.371093-5.679687 8.371093-10.746094v-9.8125h10.425781v9.8125c0 5.066407 3.441407 9.484376 8.367188 10.746094 4.984375 1.273438 9.765625 3.257813 14.203125 5.890625 4.378906 2.59375 9.941406 1.90625 13.523437-1.679687l6.941407-6.941406 7.371093 7.371093-6.941406 6.941407c-3.582031 3.585937-4.273437 9.144531-1.675781 13.523437 2.628906 4.4375 4.609375 9.214844 5.886719 14.199219 1.261718 4.929687 5.679687 8.371094 10.746094 8.371094h9.8125v10.425781h-9.8125c-5.066407 0-9.484376 3.441406-10.742188 8.367187-1.277344 4.988282-3.261719 9.765625-5.894531 14.207032-2.59375 4.375-1.902344 9.9375 1.679687 13.519531l6.941406 6.941406-7.371093 7.371094-6.941407-6.941407c-3.582031-3.582031-9.140624-4.273437-13.519531-1.675781-4.441406 2.628907-9.222656 4.613281-14.203125 5.890625-4.929687 1.257813-8.371094 5.675782-8.371094 10.742188v9.8125h-10.425781v-9.8125c0-5.066406-3.441406-9.484375-8.367187-10.742188-4.980469-1.277344-9.761719-3.257812-14.207032-5.894531-4.378906-2.589844-9.9375-1.898437-13.519531 1.679687l-6.941406 6.941407-7.371094-7.371094 6.945313-6.941406c3.578125-3.582031 4.269531-9.140625 1.675781-13.519531-2.632813-4.445313-4.617187-9.222657-5.890625-14.199219-1.261719-4.929688-5.679688-8.375-10.746094-8.375h-9.8125v-10.421875h9.8125c5.066406 0 9.484375-3.445313 10.746094-8.371094.179688-.710938.382812-1.417969.59375-2.121094 0-.007812.003906-.011718.003906-.019531.617188-2.046875 1.355469-4.054687 2.207032-6.011719.046874-.113281.097656-.222656.144531-.335937.402343-.90625.824219-1.796875 1.273437-2.679688.066406-.128906.136719-.261719.207032-.394531.464843-.890625.945312-1.777344 1.460937-2.640625.808594-1.371094 1.300781-2.855469 1.480469-4.355469.398437-3.308594-.695313-6.703125-3.160156-9.164062l-6.941407-6.945313 7.371094-7.371093 6.945313 6.945312c3.582031 3.578125 9.140624 4.269531 13.519531 1.675781zm0 0"/><path d="m226.777344 246.25 3.128906 5.421875c2.070312 3.589844 6.65625 4.816406 10.246094 2.746094 3.585937-2.070313 4.816406-6.65625 2.746094-10.246094l-4.304688-7.457031c-1.949219-3.371094-5.574219-5.46875-9.472656-5.46875h-26.835938c-3.894531 0-7.519531 2.097656-9.46875 5.46875l-13.417968 23.242187c-1.945313 3.371094-1.945313 7.5625 0 10.933594l13.417968 23.238281c1.945313 3.375 5.574219 5.46875 9.46875 5.46875h26.835938c3.898437 0 7.523437-2.09375 9.472656-5.46875l4.304688-7.457031c2.070312-3.585937.839843-8.171875-2.746094-10.242187-3.589844-2.074219-8.175782-.84375-10.246094 2.742187l-3.128906 5.425781h-22.144532l-11.070312-19.175781 11.070312-19.175781h22.144532zm0 0"/></svg>