<svg height="512pt" viewBox="-53 0 512 512.00075" width="512pt" xmlns="http://www.w3.org/2000/svg"><path d="m406.820312 203.410156c0-4.140625-3.355468-7.5-7.5-7.5h-23.59375c-4.140624 0-7.496093 3.359375-7.496093 7.5 0 4.144532 3.355469 7.5 7.496093 7.5h23.59375c4.144532 0 7.5-3.359375 7.5-7.5zm0 0"/><path d="m0 203.410156c0 4.144532 3.355469 7.5 7.5 7.5h23.59375c4.140625 0 7.5-3.355468 7.5-7.5 0-4.140625-3.359375-7.5-7.5-7.5h-23.59375c-4.144531 0-7.5 3.359375-7.5 7.5zm0 0"/><path d="m356.390625 123.746094 20.433594-11.796875c3.585937-2.070313 4.816406-6.65625 2.746093-10.246094-2.074218-3.585937-6.660156-4.8125-10.246093-2.742187l-20.433594 11.796874c-3.585937 2.070313-4.8125 6.65625-2.742187 10.242188 2.074218 3.589844 6.660156 4.816406 10.242187 2.746094zm0 0"/><path d="m37.496094 307.859375 20.433594-11.796875c3.585937-2.070312 4.816406-6.65625 2.746093-10.242188-2.070312-3.589843-6.660156-4.8125-10.246093-2.746093l-20.433594 11.796875c-3.585938 2.070312-4.816406 6.660156-2.746094 10.246094 2.070312 3.585937 6.660156 4.8125 10.246094 2.742187zm0 0"/><path d="m296.0625 57.929688 11.796875-20.433594c2.074219-3.585938.84375-8.171875-2.742187-10.246094-3.585938-2.070312-8.175782-.839844-10.246094 2.746094l-11.796875 20.433594c-2.070313 3.585937-.839844 8.171874 2.746093 10.242187 3.582032 2.070313 8.171876.847656 10.242188-2.742187zm0 0"/><path d="m210.910156 31.09375v-23.59375c0-4.144531-3.355468-7.5-7.5-7.5-4.140625 0-7.5 3.355469-7.5 7.5v23.59375c0 4.140625 3.359375 7.5 7.5 7.5 4.144532 0 7.5-3.359375 7.5-7.5zm0 0"/><path d="m110.757812 57.929688c2.070313 3.585937 6.660157 4.8125 10.242188 2.742187 3.589844-2.070313 4.816406-6.65625 2.746094-10.242187l-11.796875-20.433594c-2.070313-3.585938-6.660157-4.8125-10.246094-2.746094-3.585937 2.074219-4.8125 6.660156-2.742187 10.246094zm0 0"/><path d="m50.429688 123.746094c3.585937 2.070312 8.171874.84375 10.242187-2.746094 2.074219-3.585938.84375-8.171875-2.742187-10.242188l-20.433594-11.796874c-3.585938-2.070313-8.175782-.84375-10.246094 2.742187-2.070312 3.589844-.839844 8.175781 2.746094 10.246094zm0 0"/><path d="m348.890625 296.0625 20.433594 11.796875c3.59375 2.074219 8.175781.839844 10.246093-2.742187 2.070313-3.585938.839844-8.175782-2.746093-10.246094l-20.433594-11.796875c-3.585937-2.070313-8.171875-.84375-10.242187 2.746093-2.070313 3.585938-.84375 8.171876 2.742187 10.242188zm0 0"/><path d="m170.523438 221.375-17.964844-17.964844 17.964844-17.960937c7.742187-7.742188 7.746093-20.269531 0-28.011719 0-.007812 0-.003906 0-.003906-7.726563-7.726563-20.277344-7.734375-28.011719 0l-31.96875 31.96875c-7.746094 7.742187-7.75 20.269531-.003907 28.015625l31.96875 31.964843c6.871094 6.875 17.519532 7.660157 25.253907 2.296876 1.914062 4.496093 5.464843 8.308593 10.289062 10.414062 10.035157 4.378906 21.699219-.210938 26.074219-10.246094l29.878906-68.574218c.582032.785156 1.203125 1.542968 1.90625 2.242187l17.894532 17.894531-17.894532 17.894532c-7.757812 7.757812-7.734375 20.28125 0 28.011718 7.730469 7.734375 20.269532 7.75 28.011719 0l31.898437-31.894531c7.746094-7.746094 7.746094-20.269531 0-28.015625l-31.898437-31.898438c-6.753906-6.757812-17.027344-7.527343-24.597656-2.71875-1.949219-4.34375-5.433594-8.011718-10.128907-10.058593-10.011718-4.367188-21.707031.230469-26.074218 10.246093l-30.199219 69.304688c-.699219-1.03125-1.5-2.003906-2.398437-2.90625zm75.992187-53.261719c1.871094-1.875 4.929687-1.875 6.800781 0l31.898438 31.898438h.003906c1.875 1.875 1.886719 4.910156-.003906 6.796875l-31.902344 31.90625c-1.871094 1.871094-4.90625 1.882812-6.796875-.007813-1.871094-1.871093-1.894531-4.90625 0-6.796875l23.195313-23.199218c2.929687-2.929688 2.929687-7.675782 0-10.601563l-23.195313-23.199219c-1.871094-1.871094-1.871094-4.929687 0-6.796875zm-64.957031 73.902344 35.3125-81.050781c1.0625-2.429688 3.898437-3.550782 6.332031-2.488282 2.429687 1.058594 3.546875 3.898438 2.488281 6.328126l-35.316406 81.050781c-1.0625 2.433593-3.890625 3.550781-6.332031 2.488281-2.429688-1.058594-3.546875-3.898438-2.484375-6.328125zm-21.644532-3.234375c-1.871093 1.871094-4.90625 1.894531-6.796874-.003906l-31.972657-31.96875c-1.878906-1.875-1.886719-4.910156 0-6.796875l31.972657-31.972657c2.996093-3 8.210937-.878906 8.210937 3.398438 0 1.285156-.5 2.492188-1.410156 3.402344l-23.269531 23.265625c-2.925782 2.929687-2.925782 7.675781 0 10.605469l23.269531 23.269531c1.875 1.878906 1.890625 4.910156-.003907 6.800781zm0 0"/><path d="m213.464844 60.835938c-.503906 4.109374 2.421875 7.851562 6.535156 8.355468 61.71875 7.542969 110.089844 55.917969 117.636719 117.628906.464843 3.804688 3.699219 6.59375 7.433593 6.59375.304688 0 .609376-.019531.917969-.058593 4.113281-.503907 7.039063-4.242188 6.535157-8.351563-8.320313-68.066406-62.386719-122.347656-130.703126-130.699218-4.097656-.511719-7.851562 2.417968-8.355468 6.53125zm0 0"/><path d="m294.648438 322.773438c31.925781-24.4375 53.019531-61.230469 57.875-100.953126.503906-4.113281-2.421876-7.855468-6.535157-8.355468-4.121093-.5-7.851562 2.421875-8.351562 6.535156-4.371094 35.746094-23.359375 68.863281-52.101563 90.863281-20.339844 15.570313-33.621094 40.410157-33.621094 69.355469h-97.003906v-5.375c0-24.675781-11.636718-47.894531-31.132812-62.121094-34.816406-25.40625-55.601563-66.269531-55.601563-109.308594-.003906-68.136718 51.011719-125.835937 118.660157-134.214843 4.109374-.507813 7.027343-4.253907 6.519531-8.363281-.511719-4.109376-4.257813-7.015626-8.363281-6.519532-35.996094 4.457032-69.25 21.96875-93.640626 49.304688-24.617187 27.59375-38.175781 63.03125-38.175781 99.792968 0 47.8125 23.089844 93.203126 61.761719 121.425782 15.640625 11.410156 24.976562 30.105468 24.976562 50.003906v6.023438c-6.707031 1.949218-11.628906 8.136718-11.628906 15.464843v37.15625c0 24.089844 17.695313 44.117188 40.765625 47.78125 13.167969 40.960938 55.546875 40.988281 68.722657 0 23.074218-3.664062 40.765624-23.691406 40.765624-47.78125 0-21.867187 0-15.480469 0-37.15625 0-7.328125-4.917968-13.515625-11.628906-15.464843 0-25.253907 11.15625-45.398438 27.738282-58.09375zm-32.222657 72.441406c.613281 0 1.113281.503906 1.113281 1.117187v27.214844h-120.257812v-27.214844c0-.613281.5-1.117187 1.113281-1.117187zm-32.273437 71.664062h-53.484375c-16.726563 0-30.660157-12.503906-33.003907-28.332031h119.492188c-2.347656 15.84375-16.28125 28.332031-33.003906 28.332031zm-44.808594 14.996094h36.132812c-9.324218 20.160156-26.808593 20.160156-36.132812 0zm0 0"/></svg>