<svg version="1.1" viewBox="0 0 944.32 942.7" xmlns="http://www.w3.org/2000/svg">
   <g transform="matrix(1.3333 0 0 -1.3333 -60.681 1013.1)">
      <g fill="none" stroke-linecap="round" stroke-linejoin="bevel" stroke-miterlimit="10" stroke-width="7.397">
         <path d="m308.12 756.08-61.886-107.19 71.05-123.52h114.87l71.05 123.52-7.296 12.638" stroke="#ff1d25"/>
         <path d="m317.28 294.67h114.87l71.05-123.52-61.886-107.19" stroke="#29aae1"/>
         <path d="m503.25 400.46-55.851-96.736 72.487-124.41h122.08l11.08 19.192" stroke="#8bc53f"/>
         <path d="m447.4 516.32 55.851-96.736h144.23l15.682 27.16" stroke="#ff921e"/>
         <path d="m246.17 400.46 55.851-96.736-72.487-124.41h-111.12" stroke="#662d90"/>
         <path d="m107.46 640.73h122.08l72.486-124.41-55.851-96.736h-144.23l-7.072 12.248" stroke="#ff7bab"/>
      </g>
      <g fill="#000000" font-family="sans-serif" font-size="30px" letter-spacing="0px" stroke-width=".75" word-spacing="0px">
         <text transform="scale(1,-1)" x="102.54238" y="-663.55939" xml:space="preserve"><tspan x="102.54238" y="-637.01642" stroke-width=".75"/></text>
         <text transform="scale(1,-1)" x="42.566467" y="-452.37527" xml:space="preserve"><tspan x="42.566467" y="-452.37527" stroke-width=".75">Evoluir</tspan></text>
         <text transform="scale(1,-1)" x="449.34619" y="-680.34137" xml:space="preserve"><tspan x="449.34619" y="-680.34137" stroke-width=".75">Ouvir</tspan></text>
         <text transform="scale(1,-1)" x="617.9903" y="-463.39221" xml:space="preserve"><tspan x="617.9903" y="-463.39221" stroke-width=".75">Analisar</tspan></text>
         <text transform="scale(1,-1)" x="606.12579" y="-211.69725" xml:space="preserve"><tspan x="606.12579" y="-211.69725" stroke-width=".75">Prototipar</tspan></text>
         <text transform="scale(1,-1)" x="236.63429" y="-53.222672" xml:space="preserve"><tspan x="236.63429" y="-53.222672" stroke-width=".75">Desenvolver</tspan></text>
         <text transform="scale(1,-1)" x="70.53257" y="-199.83286" xml:space="preserve"><tspan x="70.53257" y="-199.83286" stroke-width=".75">Testar</tspan></text>
      </g>
   </g>
</svg>
