<svg height="512pt" viewBox="0 -47 512 511" width="512pt" xmlns="http://www.w3.org/2000/svg"><path d="m86.996094 384.503906c-4.617188-.921875-8.972656 2.621094-8.972656 7.351563 0 4.140625 3.359374 7.5 7.5 7.5 4.195312 0 7.5-3.414063 7.5-7.5 0-3.367188-2.265626-6.546875-6.027344-7.351563zm0 0"/><path d="m493.339844 361.898438h-3.03125c2.007812-3.847657 3.148437-8.210938 3.148437-12.839844v-52.101563c0-4.140625-3.355469-7.5-7.5-7.5s-7.5 3.359375-7.5 7.5v52.101563c0 7.078125-5.761719 12.839844-12.839843 12.839844-7.421876 0-189.957032 0-197.402344 0-7.078125 0-12.839844-5.761719-12.839844-12.839844v-143.539063c0-7.078125 5.761719-12.839843 12.839844-12.839843h197.402344c7.078124 0 12.839843 5.761718 12.839843 12.839843v56.4375c0 4.144531 3.355469 7.5 7.5 7.5s7.5-3.355469 7.5-7.5v-56.4375c0-15.351562-12.488281-27.839843-27.839843-27.839843h-37.605469v-136.464844c0-22.449219-18.265625-40.714844-40.71875-40.714844h-155.785157c-4.144531 0-7.503906 3.355469-7.503906 7.5s3.359375 7.5 7.503906 7.5h155.785157c14.179687 0 25.714843 11.535156 25.714843 25.714844v136.464844h-15.652343c0-4.785157 0-130.007813 0-136.464844 0-5.546875-4.515625-10.058594-10.0625-10.058594-9.140625 0-336.960938 0-346.578125 0-5.546875 0-10.0625 4.511719-10.0625 10.058594v274.292968c-9.214844-3.953124-15.652344-13.152343-15.652344-23.644531v-250.648437c0-14.179688 11.535156-25.714844 25.714844-25.714844h155.789062c4.144532 0 7.5-3.355469 7.5-7.5s-3.355468-7.5-7.5-7.5h-155.789062c-22.449219 0-40.714844 18.265625-40.714844 40.714844v250.648437c0 18.761719 13 34.902344 30.652344 39.429688v70.285156c0 9.292969 7.5625 16.851563 16.855468 16.851563h445.832032c10.289062 0 18.660156-8.367188 18.660156-18.660157v-19.210937c0-10.289063-8.371094-18.660156-18.660156-18.660156zm-97.699219 15v5.34375c0 .8125-.660156 1.46875-1.46875 1.46875h-54.511719c-.8125 0-1.46875-.65625-1.46875-1.46875v-5.34375zm-255.25-4.121094v-40.199219h50.785156v40.195313h-50.785156zm0-55.199219v-15.652344h99.984375v15.652344c-11.605469 0-89.855469 0-99.984375 0zm-94.734375-42.199219h11.566406v8.15625h-11.566406zm26.570312 0h53.164063v8.15625h-53.164063zm53.164063-15c-6.6875 0-69.890625 0-79.734375 0v-6.980468c0-.765626.46875-1.421876 1.132812-1.707032.21875-.09375.464844-.144531.71875-.144531h76.03125c1.023438 0 1.855469.832031 1.855469 1.851563v6.980468zm-79.734375 38.15625h79.734375v67.253906h-79.734375c0-15.253906 0-51.933593 0-67.253906zm160.519531 34.042969h15.65625v40.195313h-15.65625zm30.65625 0h3.542969v16.480469c0 4.628906 1.140625 8.992187 3.148438 12.839844h-3.03125c-1.253907 0-2.476563.128906-3.660157.363281zm31.382813-154.898437c-1.917969 0-3.792969.195312-5.605469.566406-12.675781 2.601562-22.238281 13.839844-22.238281 27.273437v81.402344h-99.980469c0-18.671875 0-14.621094 0-33.523437 0-9.289063-7.558594-16.851563-16.851563-16.851563h-76.03125c-.605468 0-1.203124.035156-1.796874.097656-.015626.003907-.039063 0-.054688.003907v-159.835938h336.699219v100.867188zm114.140625-115.871094h-306.042969v-15.652344h306.042969zm-336.699219-15.652344h15.652344v15.652344h-15.652344zm0 355.421875v-20.789063h79.734375v20.789063c0 1.019531-.832031 1.851563-1.851563 1.851563h-76.03125c-1.023437 0-1.851562-.832032-1.851562-1.851563zm94.636719 1.851563c0-.023438 0-.046876.003906-.066407.0625-.589843.09375-1.183593.09375-1.785156v-13.800781h81.441406v11.992187c0 1.203125.160157 2.660157.359375 3.660157zm356.707031-3.660157c0 1.984375-1.675781 3.660157-3.660156 3.660157h-252.847656c-1.984376 0-3.660157-1.675782-3.660157-3.660157v-19.015625c.007813-.082031.011719-.164062.011719-.246094 0-.015624 0-.03125 0-.042968.054688-1.945313 1.699219-3.566406 3.648438-3.566406h82.699218v5.34375c0 9.082031 7.386719 16.472656 16.46875 16.472656h54.511719c9.082031 0 16.46875-7.390625 16.46875-16.472656v-5.34375h82.699219c1.984375 0 3.660156 1.675781 3.660156 3.660156zm0 0"/><path d="m458.519531 203.550781c-9.144531 0-175.851562 0-183.207031 0-5 0-9.066406 4.066407-9.066406 9.066407v129.339843c0 5 4.066406 9.070313 9.066406 9.070313h183.207031c5 0 9.066407-4.070313 9.066407-9.070313 0-1.332031 0-127.789062 0-129.339843 0-5-4.066407-9.066407-9.066407-9.066407zm-5.933593 26.882813h-139.863282v-11.882813h139.863282zm-171.339844-11.882813h16.476562v11.882813h-16.476562zm0 117.476563v-90.589844h171.339844v90.589844zm0 0"/></svg>