<svg version="1.1" xmlns="http://www.w3.org/2000/svg" xmlns:xlink="http://www.w3.org/1999/xlink" x="0px" y="0px"
	 viewBox="0 0 512 512" style="enable-background:new 0 0 512 512;" xml:space="preserve">
	<style>
		@keyframes animation{from {transform:rotateZ(360deg)}to{transform:rotateZ(0deg)}}
		.animation{transform-origin:center;animation:animation 3.5s infinite}
	</style>
<path style="fill:#999;" d="M503.467,290.133v-68.267H473.6c-13.38,0-25.574-8.525-29.355-21.367
	c-3.942-13.406-9.276-26.206-15.838-38.255c-6.426-11.793-3.917-26.462,5.581-35.959l21.137-21.137l-48.273-48.273l-21.137,21.137
	c-9.498,9.498-24.166,11.998-35.959,5.572c-12.041-6.562-24.849-11.895-38.255-15.838c-12.843-3.772-21.367-15.957-21.367-29.346
	V8.533h-68.267V38.4c0,13.38-8.525,25.574-21.367,29.355c-13.406,3.942-26.206,9.276-38.255,15.838
	c-11.793,6.426-26.462,3.917-35.959-5.572l-21.137-21.137l-48.273,48.273l21.137,21.137c9.498,9.498,11.998,24.166,5.581,35.959
	c-6.562,12.041-11.895,24.849-15.838,38.255c-3.78,12.834-15.966,21.359-29.355,21.359H8.533v68.267H38.4
	c13.38,0,25.574,8.525,29.355,21.367c3.942,13.406,9.276,26.206,15.838,38.255c6.426,11.793,3.917,26.462-5.572,35.959
	l-21.137,21.137l48.273,48.273l21.137-21.137c9.498-9.498,24.166-11.998,35.959-5.572c12.041,6.562,24.849,11.895,38.255,15.838
	c12.834,3.772,21.359,15.957,21.359,29.346v29.867h68.267V473.6c0-13.38,8.525-25.574,21.367-29.355
	c13.406-3.942,26.206-9.276,38.255-15.838c11.793-6.426,26.462-3.917,35.959,5.572l21.137,21.137l48.273-48.273l-21.137-21.137
	c-9.498-9.498-11.998-24.166-5.572-35.959c6.562-12.041,11.895-24.849,15.838-38.255c3.772-12.834,15.957-21.359,29.346-21.359
	H503.467z"/>
<g>
	<path class="animation" d="M290.133,512h-68.267c-4.71,0-8.533-3.823-8.533-8.533V473.6c0-9.822-6.263-18.526-15.241-21.163
		c-13.824-4.07-27.255-9.626-39.927-16.538c-8.277-4.506-18.901-2.825-25.839,4.113l-21.137,21.137
		c-3.337,3.337-8.73,3.337-12.066,0L50.85,412.877c-3.337-3.337-3.337-8.73,0-12.066l21.137-21.137
		c6.929-6.938,8.627-17.562,4.113-25.839c-6.912-12.672-12.467-26.112-16.538-39.927c-2.637-8.977-11.341-15.24-21.163-15.24H8.533
		c-4.71,0-8.533-3.823-8.533-8.533v-68.267c0-4.71,3.823-8.533,8.533-8.533H38.4c9.822,0,18.526-6.263,21.163-15.241
		c4.07-13.833,9.626-27.264,16.538-39.927c4.506-8.277,2.816-18.901-4.113-25.839L50.85,111.189c-3.337-3.337-3.337-8.73,0-12.066
		L99.123,50.85c3.337-3.337,8.73-3.337,12.066,0l21.137,21.137c6.946,6.929,17.57,8.627,25.839,4.113
		c12.672-6.912,26.112-12.467,39.927-16.538c8.977-2.637,15.241-11.341,15.241-21.163V8.533c0-4.71,3.823-8.533,8.533-8.533h68.267
		c4.71,0,8.533,3.823,8.533,8.533V38.4c0,9.822,6.263,18.526,15.241,21.163c13.824,4.07,27.255,9.626,39.927,16.538
		c8.277,4.497,18.893,2.816,25.839-4.113l21.137-21.137c3.337-3.337,8.73-3.337,12.066,0l48.273,48.273
		c3.337,3.337,3.337,8.73,0,12.066l-21.137,21.137c-6.929,6.938-8.627,17.562-4.113,25.839
		c6.904,12.663,12.467,26.103,16.538,39.927c2.637,8.977,11.341,15.241,21.163,15.241h29.867c4.71,0,8.533,3.823,8.533,8.533v68.267
		c0,4.71-3.823,8.533-8.533,8.533H473.6c-9.822,0-18.526,6.263-21.163,15.241c-4.07,13.824-9.626,27.255-16.538,39.927
		c-4.506,8.277-2.816,18.901,4.113,25.839l21.137,21.137c3.337,3.337,3.337,8.73,0,12.066l-48.273,48.273
		c-3.337,3.337-8.73,3.337-12.066,0l-21.137-21.137c-6.938-6.938-17.562-8.61-25.839-4.113
		c-12.672,6.912-26.112,12.467-39.927,16.538c-8.977,2.637-15.24,11.341-15.24,21.163v29.867
		C298.667,508.177,294.844,512,290.133,512z M230.4,494.933h51.2V473.6c0-17.34,11.307-32.777,27.494-37.538
		c12.663-3.721,24.969-8.815,36.582-15.138c14.874-8.107,33.818-5.214,46.071,7.031l15.104,15.104l36.207-36.207l-15.104-15.104
		c-12.254-12.254-15.138-31.198-7.031-46.071c6.323-11.614,11.418-23.919,15.138-36.582c4.762-16.188,20.198-27.494,37.538-27.494
		h21.333v-51.2H473.6c-17.34,0-32.777-11.307-37.538-27.494c-3.729-12.672-8.823-24.977-15.138-36.582
		c-8.107-14.874-5.214-33.818,7.031-46.071l15.104-15.104l-36.207-36.198l-15.104,15.104c-12.254,12.254-31.206,15.138-46.071,7.031
		c-11.614-6.323-23.919-11.418-36.582-15.138C292.907,71.177,281.6,55.74,281.6,38.4V17.067h-51.2V38.4
		c0,17.34-11.307,32.777-27.494,37.538c-12.663,3.721-24.969,8.815-36.582,15.138c-14.874,8.107-33.818,5.214-46.071-7.031
		l-15.104-15.104l-36.198,36.207l15.104,15.104c12.254,12.254,15.138,31.198,7.031,46.071c-6.323,11.605-11.418,23.91-15.138,36.582
		C71.177,219.093,55.74,230.4,38.4,230.4H17.067v51.2H38.4c17.34,0,32.777,11.307,37.538,27.494
		c3.721,12.663,8.815,24.969,15.138,36.582c8.107,14.874,5.214,33.818-7.031,46.071l-15.104,15.104l36.207,36.207l15.104-15.104
		c12.254-12.254,31.198-15.138,46.071-7.031c11.614,6.323,23.919,11.418,36.582,15.138c16.188,4.762,27.494,20.198,27.494,37.538
		V494.933z"/>
	<path d="M256,392.533c-75.281,0-136.533-61.252-136.533-136.533S180.719,119.467,256,119.467
		S392.533,180.719,392.533,256S331.281,392.533,256,392.533z M256,136.533c-65.877,0-119.467,53.589-119.467,119.467
		S190.123,375.467,256,375.467S375.467,321.877,375.467,256S321.877,136.533,256,136.533z"/>
	<path d="M204.8,298.667c-2.185,0-4.369-0.836-6.033-2.5l-34.133-34.133c-3.337-3.337-3.337-8.73,0-12.066
		l34.133-34.133c3.337-3.337,8.73-3.337,12.066,0c3.337,3.337,3.337,8.73,0,12.066l-28.1,28.1l28.1,28.1
		c3.337,3.337,3.337,8.73,0,12.066C209.169,297.83,206.985,298.667,204.8,298.667z"/>
	<path d="M307.2,298.667c-2.185,0-4.369-0.836-6.033-2.5c-3.337-3.337-3.337-8.73,0-12.066l28.1-28.1
		l-28.1-28.1c-3.337-3.337-3.337-8.73,0-12.066c3.337-3.337,8.73-3.337,12.066,0l34.133,34.133c3.337,3.337,3.337,8.73,0,12.066
		l-34.133,34.133C311.569,297.83,309.385,298.667,307.2,298.667z"/>
	<path d="M238.933,315.733c-0.836,0-1.681-0.128-2.509-0.384c-4.506-1.382-7.031-6.161-5.649-10.667
		l34.133-110.933c1.382-4.514,6.187-7.049,10.667-5.649c4.506,1.382,7.031,6.161,5.649,10.667L247.091,309.7
		C245.965,313.378,242.586,315.733,238.933,315.733z"/>
</g>
</svg>
