<svg version="1.1" viewBox="0 0 369 95" xmlns="http://www.w3.org/2000/svg">
 <g transform="translate(105,-57)">
  <path d="m202 122h-84v1c0 3 2 5 5 5h74c3 0 5-2 5-5v-1" fill="#fff"/>
  <path d="m202 122h-84v1c0 3 2 5 5 5h74c3 0 5-2 5-5z" fill="none" stroke="#3a4144" stroke-linecap="round" stroke-linejoin="round" stroke-miterlimit="10"/>
  <path d="m169 125h-18v-3h18v3" fill="#f0f0ef"/>
  <path d="m169 125h-18v-3h18z" fill="none" stroke="#3a4144" stroke-linecap="round" stroke-linejoin="round" stroke-miterlimit="10"/>
  <path d="m191 83h-61c-2 0-4 2-4 4v36h69v-36c0-2-2-4-4-4" fill="#fff"/>
  <path d="m191 83h-61c-2 0-4 2-4 4v36h69v-36c0-2-2-4-4-4z" fill="none" stroke="#3a4144" stroke-linecap="round" stroke-linejoin="round" stroke-miterlimit="10"/>
  <path d="m129 119v-32h62v32h-62" fill="#93d9bd"/>
  <path d="m129 119v-32h62v32z" fill="none" stroke="#3a4144" stroke-linecap="round" stroke-linejoin="round" stroke-miterlimit="10"/>
  <path d="m129 119v-32h62v32h-62" fill="#93d9bd"/>
  <path d="m129 119v-32h62v32z" fill="none" stroke="#3a4144" stroke-linecap="round" stroke-linejoin="round" stroke-miterlimit="10"/>
  <path d="m173 114h-27c-1 0-2-1-2-2v-18c0-1 1-2 2-2h27c1 0 2 1 2 2v18c0 1-1 2-2 2" fill="#3a4144"/>
  <path d="m173 114h-27c-1 0-2-1-2-2v-18c0-1 1-2 2-2h27c1 0 2 1 2 2v18c0 1-1 2-2 2z" fill="none" stroke="#3a4144" stroke-linecap="round" stroke-linejoin="round" stroke-miterlimit="10"/>
  <path d="m173 92h-27c-1 0-2 1-2 2v2h31v-2c0-1-1-2-2-2" fill="#f0f0ef"/>
  <g fill="none" stroke-linecap="round" stroke-linejoin="round" stroke-miterlimit="10">
   <path d="m173 92h-27c-1 0-2 1-2 2v2h31v-2c0-1-1-2-2-2z" stroke="#3a4144"/>
   <path d="m159 107c-1 0-1-1-1-1v-2l-1-1 1-1v-2c0-1 1-1 1-1" stroke="#ee43aa"/>
   <path d="m161 107c1 0 1-1 1-1v-2l1-1-1-1v-2c0-1-1-1-1-1" stroke="#ee43aa"/>
   <path d="m155 107h-4" stroke="#60a5df"/>
   <path d="m165 107 4-7" stroke="#fab44e"/>
  </g>
  <path d="m160 85s0-1 1-1 1 0 1 1c0 0 0 1-1 1s-1 0-1-1" fill="#3a4144"/>
  <g transform="translate(0 0)" fill="none" stroke-linecap="round" stroke-linejoin="round" stroke-miterlimit="10">
   <g stroke="#3a4144">
    <path d="m80 128h141"/>
    <path d="m224 128h9"/>
   </g>
   <path d="m90 152h10" stroke="#fff"/>
   <g stroke="#3a4144">
    <path d="m244 128h9"/>
    <path d="m66 86h-2c-4 0-7 3-8 6h-2c-3 0-6 2-6 6 0 3 2 6 6 6h5"/>
    <path d="m71 89-3-3"/>
    <path d="m78 94c-1-1-2-1-3-1h-2c0-1 0-2-1-3"/>
    <path d="m65 104h10c3 0 5-2 5-5"/>
    <path d="m60 104h3"/>
   </g>
  </g>
  <path d="m17 143v-25c0-3 2-5 5-5h42c3 0 5 2 5 5v25c0 3-2 5-5 5h-42c-3 0-5-2-5-5" fill="#fff"/>
  <path d="m17 143v-25c0-3 2-5 5-5h42c3 0 5 2 5 5v25c0 3-2 5-5 5h-42c-3 0-5-2-5-5z" fill="none" stroke="#3a4144" stroke-linecap="round" stroke-linejoin="round" stroke-miterlimit="10"/>
  <path d="m24 145v-30h37v30h-37" fill="#93d9bd"/>
  <path d="m24 145v-30h37v30z" fill="none" stroke="#3a4144" stroke-linecap="round" stroke-linejoin="round" stroke-miterlimit="10"/>
  <path d="m21 129c1 0 2 1 2 2s-1 2-2 2-2-1-2-2 1-2 2-2" fill="#f0f0ef"/>
  <path d="m21 129c1 0 2 1 2 2s-1 2-2 2-2-1-2-2 1-2 2-2z" fill="none" stroke="#3a4144" stroke-linecap="round" stroke-linejoin="round" stroke-miterlimit="10"/>
  <path d="m65 129s1 0 1 1c0 0 0 1-1 1 0 0-1 0-1-1 0 0 0-1 1-1" fill="#3a4144"/>
  <path d="m65 129s1 0 1 1c0 0 0 1-1 1 0 0-1 0-1-1 0 0 0-1 1-1z" fill="none" stroke="#3a4144" stroke-linecap="round" stroke-linejoin="round" stroke-miterlimit="10"/>
  <g transform="translate(-0 -0)" fill="none" stroke="#3a4144" stroke-linecap="round" stroke-linejoin="round" stroke-miterlimit="10">
   <path d="m65 138s1 0 1 1c0 0 0 1-1 1 0 0-1 0-1-1 0 0 0-1 1-1z"/>
   <path d="m49 128-4 4"/>
   <path d="m41 128-4 4"/>
   <path d="m47 127-8 8"/>
   <path d="m-104 128h103"/>
   <path d="m202 86c0-1 1-2 2-2s2 1 2 2-1 2-2 2-2-1-2-2z"/>
   <path d="m-5 84c0-1 1-2 2-2s2 1 2 2-1 2-2 2-2-1-2-2z"/>
   <path d="m212 57-2 2"/>
   <path d="m212 59-2-2"/>
  </g>
  <path d="m96 124-5-1 6-33 5 1-6 33" fill="#fab44e"/>
  <g fill="none" stroke="#3a4144" stroke-linecap="round" stroke-linejoin="round" stroke-miterlimit="10">
   <path d="m96 124-5-1 6-33 5 1z"/>
   <path d="m97 93h2"/>
   <path d="m97 95h1"/>
   <path d="m97 96h1"/>
   <path d="m96 98h1"/>
   <path d="m96 100h2"/>
   <path d="m95 105h1"/>
   <path d="m96 102h1"/>
   <path d="m95 104h1"/>
   <path d="m95 107h2"/>
   <path d="m94 109h1"/>
   <path d="m94 111h1"/>
   <path d="m94 113h1"/>
   <path d="m93 115h2"/>
   <path d="m93 116h1"/>
   <path d="m93 118h1"/>
   <path d="m92 120h1"/>
   <path d="m92 122h2"/>
  </g>
  <path d="m95 124-2-1 7-20 2 1-7 20" fill="#93d9bd"/>
  <path d="m95 124-2-1 7-20 2 1z" fill="none" stroke="#3a4144" stroke-linecap="round" stroke-linejoin="round" stroke-miterlimit="10"/>
  <path d="m100 103 2-2v3z" fill="#fab44e"/>
  <path d="m100 103 2-2v3z" fill="none" stroke="#3a4144" stroke-linecap="round" stroke-linejoin="round" stroke-miterlimit="10"/>
  <path d="m101 102h1v-1z" fill="#3a4144"/>
  <path d="m101 102h1v-1z" fill="none" stroke="#3a4144" stroke-linecap="round" stroke-linejoin="round" stroke-miterlimit="10"/>
  <path d="m94 123 7-20" fill="none" stroke="#3a4144" stroke-linecap="round" stroke-linejoin="round" stroke-miterlimit="10"/>
  <path d="m95 125-2-1v-1l2 1v1" fill="#c4cbc9"/>
  <path d="m95 125-2-1v-1l2 1z" fill="none" stroke="#3a4144" stroke-linecap="round" stroke-linejoin="round" stroke-miterlimit="10"/>
  <path d="m94 127-2-1 1-2 2 1-1 2" fill="#f0f0ef"/>
  <path d="m94 127-2-1 1-2 2 1z" fill="none" stroke="#3a4144" stroke-linecap="round" stroke-linejoin="round" stroke-miterlimit="10"/>
  <path d="m90 103h3l2 21h-3l-2-21" fill="#ee43aa"/>
  <path d="m90 103h3l2 21h-3z" fill="none" stroke="#3a4144" stroke-linecap="round" stroke-linejoin="round" stroke-miterlimit="10"/>
  <path d="m94 124-1 3-2-3z" fill="#fab44e"/>
  <path d="m94 124-1 3-2-3z" fill="none" stroke="#3a4144" stroke-linecap="round" stroke-linejoin="round" stroke-miterlimit="10"/>
  <path d="m94 126h-1l1 1z" fill="#3a4144"/>
  <path d="m94 126h-1l1 1z" fill="none" stroke="#3a4144" stroke-linecap="round" stroke-linejoin="round" stroke-miterlimit="10"/>
  <path d="m91 103 2 21" fill="none" stroke="#3a4144" stroke-linecap="round" stroke-linejoin="round" stroke-miterlimit="10"/>
  <path d="m89 102h3v1h-3v-1" fill="#c4cbc9"/>
  <path d="m89 102h3v1h-3z" fill="none" stroke="#3a4144" stroke-linecap="round" stroke-linejoin="round" stroke-miterlimit="10"/>
  <path d="m89 100h3v2h-3v-2" fill="#f0f0ef"/>
  <path d="m89 100h3v2h-3z" fill="none" stroke="#3a4144" stroke-linecap="round" stroke-linejoin="round" stroke-miterlimit="10"/>
  <path d="m101 115h-11v12c0 1 1 2 2 2h7c1 0 2-1 2-2v-12" fill="#c4cbc9"/>
  <path d="m101 115h-11v12c0 1 1 2 2 2h7c1 0 2-1 2-2z" fill="none" stroke="#3a4144" stroke-linecap="round" stroke-linejoin="round" stroke-miterlimit="10"/>
  <path d="m101 112h-13v3h13v-3" fill="#d7dcdb"/>
  <g fill="none" stroke="#3a4144" stroke-linecap="round" stroke-linejoin="round" stroke-miterlimit="10">
   <path d="m101 112h-13v3h13z"/>
   <path d="m91 115v5"/>
   <path d="m99 121v1"/>
   <path d="m99 123v1"/>
   <path d="m224 105c1 1 2 2 4 2h30c3 0 6-3 6-6s-3-6-6-6h-2c-1-4-5-7-9-7-5 0-9 4-9 9h-2c-2 0-4 2-5 4-1-1-2-2-3-2"/>
  </g>
 </g>
</svg>
