<svg class="our_dna__featured__illustration" version="1.1" viewBox="0 0 338 412" xmlns="http://www.w3.org/2000/svg">
      <path d="m87 359 8-15c1-1 1-2 0-3l-8-15c-1-1-2-2-3-2h-17c-1 0-2 1-3 2l-8 15c-1 1-1 2 0 3l8 15c1 1 2 2 3 2h17c1 0 2-1 3-2zm243-301 8-15c1-1 1-2 0-3l-8-14c-1-1-2-2-3-2h-17c-1 0-2 1-3 2l-8 15c-1 1-1 2 0 3l8 15c1 1 2 2 3 2h16c1-0 2-1 3-2zm-223 318 3-6c1-1 1-2 0-3l-3-6c-1-1-2-2-3-2h-6c-1 0-2 1-3 2l-3 6c-1 1-1 2 0 3l3 6c1 1 2 2 3 2h6c1 0 2-1 3-2z"/>
      <path d="m42 377c-1-1-1-2 0-3l8-14c1-1 1-2 0-3l-19-31c-1-1-1-2 0-3l39-65c1-1 1-2 0-3l-19-31c-1-1-1-2 0-3l44-74c1-1 2-2 3-2h47c1 0 2 1 3 2l8 14c1 1 2 2 3 2h27c1 0 2-1 3-2l13-23c1-1 1-2 0-3l-13-23c-1-1-1-2 0-3l44-74c1-1 2-2 3-2h27c1 0 2-1 3-2l19-31c1-1 2-2 3-2h-291v418h69zm140-257c1 0 2 1 3 2l8 14c1 1 1 2 0 3l-8 14c-1 1-2 2-3 2h-17c-1 0-2-1-3-2l-8-14c-1-1-1-2 0-3l8-14c1-1 2-2 3-2zm-41-34c1 0 2 1 3 2l13 23c1 1 1 2 0 3l-14 23c-1 1-2 2-3 2h-27c-1 0-2-1-3-2l-13-23c-1-1-1-2 0-3l14-23c1-1 2-2 3-2zm-33-24 3 5c1 1 1 2 0 3l-3 5c-1 1-2 2-3 2h-6c-1 0-2-1-3-2l-3-5c-1-1-1-2 0-3l3-5c1-1 2-2 3-2h6c1 0 2 1 3 2zm99-53c1 0 2 1 3 2l13 23c1 1 1 2 0 3l-13 23c-1 1-2 2-3 2h-27c-1 0-2-1-3-2l-14-23c-1-1-1-2 0-3l14-23c1-1 2-2 3-2zm-207 247c0-0 0-1 0-1l13-23c1-1 2-2 3-2h27c1 0 2 1 3 2l13 23c1 1 1 2 0 3l-13 23c-1 1-2 2-3 2h-27c-1 0-2-1-3-2l-13-23c-0-0-0-1-0-1z"/>
      <path d="m144 283 8-15c1-1 1-2 0-3l-8-15c-1-1-2-2-3-2h-17c-1 0-2 1-3 2l-8 15c-1 1-1 2 0 3l8 15c1 1 2 2 3 2h17c1 0 2-1 3-2zm137-91 8-15c1-1 1-2 0-3l-8-14c-1-1-2-2-3-2h-17c-1 0-2 1-3 2l-8 15c-1 1-1 2 0 3l8 15c1 1 2 2 3 2h16c1-0 2-1 3-2z"/>
</svg>
