<svg class="featured__content__infocorp bg-pan-top" version="1.1" viewBox="0 0 200 49" xmlns="http://www.w3.org/2000/svg">
   <path class="featured__content__infocorp__path" d="m-2.284-1.8v52.239l202.35-52.044h1.7544zm51.444 1.1125c1.4782 0 3.1435 0.34197 5.0147 1.0239v5.4364c-0.9543-0.28415-1.7393-0.43571-2.3567-0.43571-0.78589 0-1.3656 0.17-1.7212 0.51097-0.26196 0.26519-0.39312 0.79474-0.39312 1.5904l-0.01956 3.4857h3.9292v6.0623h-4.4906v21.783h-6.7359v-21.783h-2.6188v-6.0623h2.4878c0.01871-3.6938 0.07549-5.8715 0.18776-6.5534 0.18712-1.5533 0.84094-2.7844 1.9636-3.6936 1.104-0.90925 2.6943-1.3646 4.7526-1.3646zm55.537 10.722c2.7693 0 5.277 0.56666 7.4849 1.7032 2.2267 1.1366 4.0416 2.7673 5.445 4.87l-5.8577 3.3134c-1.0853-1.2313-2.1879-2.101-3.2545-2.5747-1.0853-0.47356-2.3398-0.7209-3.7806-0.7209-2.6196 0-4.7519 0.81398-6.3799 2.4241-1.6279 1.6291-2.433 3.6942-2.433 6.2326 0 2.4625 0.76652 4.4714 2.3196 6.0246 1.5344 1.5533 3.5741 2.3291 6.1002 2.3291 3.1062 0 5.5209-1.0795 7.2424-3.2579l0.0939-0.11289 14.07-15.098v0.01783c0.39295-0.41674 0.80569-0.83209 1.2361-1.2299 2.919-2.5952 6.2672-3.9035 10.047-3.9035 2.732 0 5.296 0.66415 7.7098 2.028 2.4138 1.345 4.2855 3.2007 5.6328 5.5116 1.3472 2.33 2.0206 4.8309 1.9832 7.5397 0 2.7088-0.69268 5.2463-2.0399 7.5951-1.366 2.3678-3.2194 4.2055-5.5584 5.5315-2.339 1.326-4.9383 1.9884-7.745 1.9884-4.154 0-7.7097-1.4586-10.648-4.3947-2.2454-2.2353-3.6116-4.8302-4.1541-7.7853l-5.1653 6.2128c-2.9752 3.959-7.1663 5.9494-12.574 5.9494-4.8838 1e-6 -8.7016-1.4968-11.471-4.4897-2.7693-2.9929-4.1522-6.4966-4.1522-10.512 0-2.7656 0.67312-5.3235 2.0204-7.6724 1.3473-2.33 3.2374-4.1668 5.6699-5.5116 2.4325-1.345 5.1451-2.0082 8.1577-2.0082zm-77.112 0.32084c2.6758 0 4.9596 0.94858 6.8121 2.8618 1.5718 1.648 2.3567 4.0524 2.3567 7.2347v18.317h-6.9236v-12.027c0-3.2581-0.14961-5.438-0.43028-6.5177-0.28068-1.0608-0.76559-1.8737-1.4766-2.4419-0.69233-0.56828-1.5721-0.85359-2.6013-0.85359-1.366 0-2.5083 0.47399-3.4814 1.4022-0.9543 0.94714-1.6265 2.2159-2.0008 3.8639-0.18712 0.85242-0.28164 2.7088-0.28164 5.5691v11.006h-6.9236v-27.846h6.9236v2.9925c1.5344-1.345 2.9376-2.2541 4.1913-2.7846 1.2537-0.51146 2.5256-0.77634 3.8354-0.77634zm138.47 0.05743c0.86074 0 1.7779 0.24535 2.7322 0.71891l-2.077 5.987c-0.78589-0.3978-1.4233-0.60603-1.9284-0.60603-1.0291 0-1.8902 0.66242-2.6012 1.9884s-1.0659 3.921-1.0659 7.7853l-0.0939 1.3448v11.138h-6.9236v-27.846h5.9887v3.5807s1.479-2.3491 2.5269-3.0499c1.0291-0.68194 2.1699-1.0417 3.4422-1.0417zm20.939 0c3.6114 0 6.68 1.363 9.2061 4.0719 2.5448 2.7278 3.7982 6.1949 3.7982 10.456 0 4.0916-1.292 7.521-3.9116 10.287-2.6196 2.7466-5.726 4.1293-9.2999 4.1293-1.5905 0-3.0687-0.304-4.4534-0.89122-1.366-0.58722-2.7502-1.5525-4.0974-2.8974v13.43h-6.9236v-38.075h6.9236v3.2579c1.2537-1.2502 2.6203-2.1971 4.0798-2.8222 1.4408-0.62511 3.0129-0.94667 4.6783-0.94667zm-116.22 0.0198c2.6196 0 5.0895 0.64373 7.3911 1.9508s4.0971 3.0677 5.3883 5.2839c1.2912 2.2162 1.9452 4.622 1.9264 7.1793 0 2.5952-0.65493 5.0202-1.9461 7.2743-1.2911 2.2731-3.0685 4.0345-5.3139 5.3038-2.2454 1.2691-4.7337 1.9131-7.4282 1.9131-3.9856 0-7.3909-1.4011-10.198-4.2046-2.8072-2.8035-4.2109-6.2133-4.2109-10.229 0-4.3 1.5912-7.8609 4.7722-10.74 2.788-2.4815 5.9886-3.7312 9.6187-3.7312zm-71.049 0.49117h6.9236v27.846h-6.9236zm137.46 5.7216c-2.339 0-4.2861 0.7953-5.8205 2.3865-1.553 1.5912-2.3196 3.6176-2.3196 6.0801 0 2.5384 0.76678 4.6029 2.2824 6.1751 1.5343 1.5722 3.4816 2.3686 5.8205 2.3686 2.3389 0 4.3026-0.7953 5.8557-2.3865 1.5531-1.6101 2.3391-3.6569 2.3391-6.1574s-0.76762-4.5455-2.302-6.1177c-1.5157-1.5533-3.4793-2.3488-5.8557-2.3488zm48.312 0.37828c-2.208 0-4.0402 0.71908-5.4998 2.1587-1.4595 1.4586-2.1905 3.3354-2.1905 5.6464 0 2.3868 0.731 4.2987 2.1905 5.7572 1.4595 1.4397 3.2917 2.1785 5.4998 2.1785 2.1331 0 3.9483-0.73752 5.4078-2.234 1.4595-1.4775 2.1905-3.373 2.1905-5.684 0-2.2921-0.71254-4.166-2.1534-5.6246-1.4408-1.4586-3.2557-2.1984-5.445-2.1984zm-114.59 0.0198c-2.1893 0-4.0237 0.73777-5.4645 2.1963-1.4408 1.4775-2.171 3.3534-2.171 5.6265 0 2.3488 0.7106 4.2611 2.1514 5.7196 1.4408 1.4397 3.2566 2.1785 5.4645 2.1785s4.0422-0.73863 5.5017-2.2161c1.4595-1.4775 2.2083-3.3721 2.171-5.6642 0-2.33-0.71255-4.2036-2.1534-5.6622s-3.2731-2.1785-5.4998-2.1785z" fill="#666" stroke-width="1.0077"/>
</svg>
