<svg class="featured__content__infocorp bg-pan-top" version="1.1" viewBox="0 0 200 49" xmlns="http://www.w3.org/2000/svg">
   <path class="featured__content__infocorp__path" d="m-1.5043-0.92281v51.017h202.91v-50.827zm51.143 1.0865c1.4696 0 3.1251 0.33398 4.9854 1v5.3093c-0.94872-0.2775-1.7291-0.42552-2.343-0.42552-0.7813 0-1.3576 0.16602-1.7111 0.49902-0.26043 0.25899-0.39082 0.77615-0.39082 1.5532l-0.01944 3.4041h3.9062v5.9205h-4.4643v21.273h-6.6965v-21.273h-2.6035v-5.9205h2.4733c0.0186-3.6074 0.07505-5.7342 0.18666-6.4002 0.18602-1.5169 0.83602-2.7192 1.9521-3.6072 1.0976-0.88799 2.6786-1.3326 4.7249-1.3326zm55.213 10.471c2.7531 0 5.2461 0.55341 7.4411 1.6634 2.2136 1.11 4.0179 2.7026 5.4132 4.7561l-5.8234 3.2359c-1.079-1.2025-2.1751-2.0519-3.2354-2.5145-1.079-0.46249-2.3261-0.70404-3.7585-0.70404-2.6043 0-4.7242 0.79495-6.3426 2.3674-1.6184 1.591-2.4188 3.6078-2.4188 6.0868 0 2.4049 0.76204 4.3668 2.306 5.8837 1.5254 1.5169 3.5532 2.2746 6.0645 2.2746 3.088 0 5.4886-1.0543 7.2-3.1817l0.0933-0.11025 13.988-14.744v0.01741c0.39066-0.40699 0.80099-0.81262 1.2289-1.2011 2.9019-2.5345 6.2306-3.8122 9.9881-3.8122 2.716 0 5.265 0.64861 7.6647 1.9806 2.3997 1.3135 4.2604 3.1259 5.5998 5.3827 1.3394 2.2755 2.0088 4.718 1.9716 7.3633 0 2.6455-0.68862 5.1236-2.028 7.4175-1.358 2.3124-3.2006 4.1071-5.5259 5.4021-2.3254 1.295-4.9094 1.9419-7.6998 1.9419-4.1297 0-7.6646-1.4244-10.585-4.2919-2.2323-2.183-3.5904-4.7173-4.1298-7.6032l-5.1351 6.0675c-2.9578 3.8664-7.1244 5.8102-12.501 5.8102-4.8553 1e-6 -8.6507-1.4618-11.404-4.3847-2.7531-2.9229-4.1279-6.3446-4.1279-10.266 0-2.7009 0.66918-5.199 2.0086-7.493 1.3394-2.2755 3.2184-4.0693 5.6367-5.3827 2.4183-1.3135 5.115-1.9613 8.11-1.9613zm-76.661 0.31334c2.6601 0 4.9306 0.9264 6.7722 2.7949 1.5626 1.6094 2.343 3.9576 2.343 7.0655v17.889h-6.8831v-11.746c0-3.1819-0.14873-5.3108-0.42777-6.3653-0.27903-1.0359-0.76112-1.8299-1.468-2.3848-0.68828-0.55499-1.5629-0.83363-2.5861-0.83363-1.358 0-2.4937 0.4629-3.461 1.3694-0.94872 0.92498-1.617 2.1641-1.9891 3.7735-0.18602 0.83248-0.27999 2.6455-0.27999 5.4389v10.749h-6.8831v-27.194h6.8831v2.9226c1.5254-1.3135 2.9205-2.2014 4.1668-2.7194 1.2464-0.49949 2.5108-0.75819 3.813-0.75819zm137.66 0.05608c0.85571 0 1.7676 0.23961 2.7163 0.7021l-2.0649 5.847c-0.7813-0.38849-1.4149-0.59186-1.9172-0.59186-1.0231 0-1.8792 0.64693-2.586 1.9419-0.70683 1.2949-1.0596 3.8293-1.0596 7.6032l-0.0933 1.3133v10.877h-6.8832v-27.194h5.9537v3.4969s1.4704-2.2941 2.5121-2.9786c1.0231-0.66599 2.1572-1.0173 3.4221-1.0173zm20.816 0c3.5903 0 6.6409 1.3312 9.1522 3.9766 2.5299 2.664 3.776 6.05 3.776 10.212 0 3.9959-1.2844 7.3451-3.8887 10.047-2.6043 2.6824-5.6925 4.0328-9.2455 4.0328-1.5812 0-3.0508-0.29689-4.4274-0.87038-1.358-0.57349-2.7341-1.5162-4.0735-2.8297v13.115h-6.8831v-37.184h6.8831v3.1817c1.2464-1.2209 2.605-2.1457 4.056-2.7562 1.4324-0.61049 2.9953-0.92453 4.651-0.92453zm-115.54 0.01934c2.6043 0 5.0597 0.62868 7.3479 1.9051 2.2881 1.2764 4.0732 2.9959 5.3568 5.1603 1.2836 2.1644 1.9338 4.5139 1.9152 7.0114 0 2.5345-0.6511 4.9027-1.9347 7.1042-1.2835 2.2199-3.0506 3.9402-5.2828 5.1797-2.2323 1.2394-4.706 1.8684-7.3848 1.8684-3.9623 0-7.3477-1.3683-10.138-4.1062-2.7907-2.738-4.1863-6.068-4.1863-9.9901 0-4.1994 1.5819-7.677 4.7443-10.489 2.7717-2.4234 5.9536-3.644 9.5625-3.644zm-70.633 0.47969h6.8831v27.194h-6.8831zm136.66 5.5878c-2.3253 0-4.261 0.7767-5.7865 2.3307-1.544 1.554-2.306 3.533-2.306 5.9379 0 2.479 0.7623 4.4952 2.2691 6.0307 1.5253 1.5354 3.4612 2.3132 5.7865 2.3132 2.3252 0 4.2775-0.7767 5.8214-2.3307 1.5441-1.5725 2.3254-3.5714 2.3254-6.0134 0-2.442-0.76313-4.4392-2.2885-5.9746-1.5068-1.5169-3.459-2.2939-5.8214-2.2939zm48.03 0.36943c-2.1951 0-4.0166 0.70226-5.4676 2.1082-1.451 1.4244-2.1777 3.2574-2.1777 5.5143 0 2.331 0.72673 4.1981 2.1777 5.6226 1.451 1.406 3.2725 2.1275 5.4676 2.1275 2.1207 0 3.9252-0.72027 5.3762-2.1817 1.451-1.443 2.1777-3.2941 2.1777-5.5511 0-2.2385-0.70837-4.0685-2.1408-5.4931-1.4324-1.4244-3.2366-2.147-5.4132-2.147zm-113.92 0.01934c-2.1765 0-4.0002 0.72052-5.4326 2.145-1.4324 1.443-2.1583 3.275-2.1583 5.4949 0 2.2939 0.70644 4.1614 2.1388 5.5858 1.4324 1.406 3.2375 2.1275 5.4326 2.1275 2.195 0 4.0185-0.72136 5.4695-2.1643 1.451-1.443 2.1954-3.2932 2.1583-5.5317 0-2.2755-0.70838-4.1053-2.1408-5.5298-1.4324-1.4245-3.254-2.1275-5.4676-2.1275z" fill="#fff" stroke-width=".9929"/>
</svg>
