<svg class="featured__content__infocorp bg-pan-top" viewBox="0 0 200 49">
 <path class="featured__content__infocorp__path" d="m-2-2v52l204-52zm51 1c1 0 3 0 5 1v5c-1-0-2-0-2-0-1 0-1 0-2 1-0 0-0 1-0 2l-0 3h4v6h-4v22h-7v-22h-3v-6h2c0-4 0-6 0-7 0-2 1-3 2-4 1-1 3-1 5-1zm56 11c3 0 5 1 7 2 2 1 4 3 5 5l-6 3c-1-1-2-2-3-3-1-0-2-1-4-1-3 0-5 1-6 2-2 2-2 4-2 6 0 2 1 4 2 6 2 2 4 2 6 2 3 0 6-1 7-3l0-0 14-15v0c0-0 1-1 1-1 3-3 6-4 10-4 3 0 5 1 8 2 2 1 4 3 6 6 1 2 2 5 2 8 0 3-1 5-2 8-1 2-3 4-6 6s-5 2-8 2c-4 0-8-1-11-4-2-2-4-5-4-8l-5 6c-3 4-7 6-13 6-5 0-9-1-11-4-3-3-4-6-4-11 0-3 1-5 2-8 1-2 3-4 6-6 2-1 5-2 8-2zm-77 0c3 0 5 1 7 3 2 2 2 4 2 7v18h-7v-12c0-3-0-5-0-7-0-1-1-2-1-2-1-1-2-1-3-1-1 0-3 0-3 1-1 1-2 2-2 4-0 1-0 3-0 6v11h-7v-28h7v3c2-1 3-2 4-3 1-1 3-1 4-1zm138 0c1 0 2 0 3 1l-2 6c-1-0-1-1-2-1-1 0-2 1-3 2s-1 4-1 8l-0 1v11h-7v-28h6v4s1-2 3-3c1-1 2-1 3-1zm21 0c4 0 7 1 9 4 3 3 4 6 4 10 0 4-1 8-4 10-3 3-6 4-9 4-2 0-3-0-4-1-1-1-3-2-4-3v13h-7v-38h7v3c1-1 3-2 4-3 1-1 3-1 5-1zm-116 0c3 0 5 1 7 2s4 3 5 5 2 5 2 7c0 3-1 5-2 7-1 2-3 4-5 5-2 1-5 2-7 2-4 0-7-1-10-4-3-3-4-6-4-10 0-4 2-8 5-11 3-2 6-4 10-4zm-71 0h7v28h-7zm137 6c-2 0-4 1-6 2-2 2-2 4-2 6 0 3 1 5 2 6 2 2 3 2 6 2s4-1 6-2c2-2 2-4 2-6s-1-5-2-6c-2-2-3-2-6-2zm48 0c-2 0-4 1-5 2-1 1-2 3-2 6 0 2 1 4 2 6 1 1 3 2 5 2 2 0 4-1 5-2 1-1 2-3 2-6 0-2-1-4-2-6-1-1-3-2-5-2zm-115 0c-2 0-4 1-5 2-1 1-2 3-2 6 0 2 1 4 2 6 1 1 3 2 5 2s4-1 6-2c1-1 2-3 2-6 0-2-1-4-2-6s-3-2-5-2z" fill="#666"/>
</svg>
