<svg class="featured__content__infocorp" version="1.1" viewBox="0 0 200 49" xmlns="http://www.w3.org/2000/svg">
 <g stroke-width="0">
  <rect class="i" y="11" width="7" height="27"/>
  <path class="n" d="m28 11c-1 0-3 0-4 1-1 1-3 1-4 3v-3h-7v27h7v-11c0-3 0-5 0-5 0-2 1-3 2-4 1-1 2-1 3-1 1 0 2 0 3 1 1 1 1 1 1 2 0 1 0 3 0 6v12h7v-18c0-3-1-6-2-7-2-2-4-3-7-3z"/>
  <path class="f" d="m45 1c-1 1-2 2-2 4-0 1-0 3-0 6h-2v6h3v21h7v-21h4v-6h-4l0-3c0-1 0-1 0-2 0-0 1-1 2-1 1 0 1 0 2 0v-5c-2-1-4-1-5-1-2 0-4 0-5 1z"/>
  <path class="o" d="m84 18c-1-2-3-4-5-5s-5-2-7-2c-4 0-7 1-10 4-3 3-5 6-5 11 0 4 1 7 4 10s6 4 10 4c3 0 5-1 7-2s4-3 5-5c1-2 2-5 2-7 0-3-1-5-2-7zm-7 13c-1 1-3 2-5 2s-4-1-5-2c-1-1-2-3-2-6 0-2 1-4 2-6 1-1 3-2 5-2 2 0 4 1 5 2s2 3 2 6c0 2-1 4-2 6z"/>
  <path class="co" d="m150 18c-1-2-3-4-6-5-2-1-5-2-8-2-4 0-7 1-10 4-0 0-1 1-1 1v-0l-14 15-0 0c-2 2-4 3-7 3-3 0-5-1-6-2-2-2-2-4-2-6 0-3 1-5 2-6 2-2 4-2 6-2 1 0 3 0 4 1 1 0 2 1 3 3l6-3c-1-2-3-4-5-5-2-1-5-2-7-2-3 0-6 1-8 2-2 1-4 3-6 5-1 2-2 5-2 8 0 4 1 7 4 10s7 4 11 4c5 0 10-2 13-6l5-6c1 3 2 5 4 8 3 3 6 4 11 4 3 0 5-1 8-2s4-3 6-5c1-2 2-5 2-7 0-3-1-5-2-7zm-7 13c-2 2-4 2-6 2s-4-1-6-2c-2-2-2-4-2-6 0-2 1-4 2-6 2-2 3-2 6-2 2 0 4 1 6 2 2 2 2 4 2 6s-1 4-2 6z"/>
  <path class="r" d="m163 12c-1 1-3 3-3 3v-4h-6v27h7v-11l0-1c0-4 0-6 1-8s2-2 3-2c1 0 1 0 2 1l2-6c-1-0-2-1-3-1-1 0-2 0-3 1z"/>
  <path class="p" d="m196 15c-3-3-6-4-9-4-2 0-3 0-5 1-1 1-3 2-4 3v-3h-7v38h7v-13c1 1 3 2 4 3 1 1 3 1 4 1 4 0 7-1 9-4 3-3 4-6 4-10 0-4-1-8-4-10zm-5 16c-1 1-3 2-5 2-2 0-4-1-5-2-1-1-2-3-2-6 0-2 1-4 2-6 1-1 3-2 5-2 2 0 4 1 5 2 1 1 2 3 2 6 0 2-1 4-2 6z"/>
 </g>
</svg>
