<?xml version="1.0" encoding="utf-8"?>
<!-- Generator: Adobe Illustrator 15.0.0, SVG Export Plug-In . SVG Version: 6.00 Build 0)  -->
<!DOCTYPE svg PUBLIC "-//W3C//DTD SVG 1.1//EN" "http://www.w3.org/Graphics/SVG/1.1/DTD/svg11.dtd">
<svg version="1.1" id="Layer_1" xmlns="http://www.w3.org/2000/svg" xmlns:xlink="http://www.w3.org/1999/xlink" x="0px" y="0px"
	 width="538.415px" height="273.037px" viewBox="0 0 538.415 273.037" enable-background="new 0 0 538.415 273.037"
	 xml:space="preserve">
<g id="Workspace_2">
	<g>
		<linearGradient id="SVGID_1_" gradientUnits="userSpaceOnUse" x1="350.9248" y1="85.9961" x2="536.915" y2="85.9961">
			<stop  offset="0" style="stop-color:#F16B90"/>
			<stop  offset="1" style="stop-color:#F89E71"/>
		</linearGradient>
		<rect x="350.925" y="26" fill="url(#SVGID_1_)" width="185.99" height="119.994"/>
		<path fill="#CDD0E0" d="M538.415,147.493h-188.99V24.5h188.99V147.493z M352.425,144.493h182.99V27.5h-182.99V144.493z"/>
	</g>
	<g>
		<rect x="328.429" y="1.5" fill="#5E4B8B" width="185.99" height="119.994"/>
		<path fill="#CDD0E0" d="M515.919,122.994h-188.99V0h188.99V122.994z M329.929,119.994h182.99V3h-182.99V119.994z"/>
	</g>
	<g>
		<rect x="354.186" y="19.749" fill="#271F3E" width="34.498" height="34.498"/>
		<path fill="#CDD0E0" d="M390.184,55.747h-37.498V18.249h37.498V55.747z M355.686,52.747h31.498V21.249h-31.498V52.747z"/>
	</g>
	<g>
		<rect x="354.186" y="41.749" fill="#FFFFFF" width="34.498" height="12.498"/>
		<path fill="#CDD0E0" d="M390.184,55.747h-37.498V40.249h37.498V55.747z M355.686,52.747h31.498v-9.498h-31.498V52.747z"/>
	</g>
	<g>
		<rect x="404.186" y="19.749" fill="#5E4B8B" width="34.498" height="34.498"/>
		<path fill="#CDD0E0" d="M440.184,55.747h-37.498V18.249h37.498V55.747z M405.686,52.747h31.498V21.249h-31.498V52.747z"/>
	</g>
	<g>
		<rect x="454.186" y="19.749" fill="#7379BA" width="34.498" height="34.498"/>
		<path fill="#CDD0E0" d="M490.184,55.747h-37.498V18.249h37.498V55.747z M455.686,52.747h31.498V21.249h-31.498V52.747z"/>
	</g>
	<g>
		<rect x="354.186" y="68.749" fill="#BC79B3" width="34.498" height="34.498"/>
		<path fill="#CDD0E0" d="M390.184,104.747h-37.498V67.249h37.498V104.747z M355.686,101.747h31.498V70.249h-31.498V101.747z"/>
	</g>
	<g>
		<rect x="404.186" y="68.749" fill="#F16B90" width="34.498" height="34.498"/>
		<path fill="#CDD0E0" d="M440.184,104.747h-37.498V67.249h37.498V104.747z M405.686,101.747h31.498V70.249h-31.498V101.747z"/>
	</g>
	<g>
		<rect x="454.186" y="68.749" fill="#F89E71" width="34.498" height="34.498"/>
		<path fill="#CDD0E0" d="M490.184,104.747h-37.498V67.249h37.498V104.747z M455.686,101.747h31.498V70.249h-31.498V101.747z"/>
	</g>
	<g>
		<path fill="#271F3E" d="M92.856,138.55c0,6.938-5.624,12.561-12.562,12.561H32.562C25.625,151.11,20,145.487,20,138.55V15.451
			C20,8.514,25.625,2.89,32.562,2.89h47.732c6.938,0,12.562,5.625,12.562,12.561V138.55z"/>
		<g>
			<path fill="#CDD0E0" d="M80.294,152.501H32.562c-7.692,0-13.951-6.259-13.951-13.951V15.451C18.611,7.758,24.87,1.5,32.562,1.5
				h47.732c7.692,0,13.951,6.258,13.951,13.951V138.55C94.246,146.242,87.987,152.501,80.294,152.501z M32.562,4.279
				c-6.161,0-11.172,5.011-11.172,11.171V138.55c0,6.16,5.011,11.172,11.172,11.172h47.732c6.16,0,11.172-5.012,11.172-11.172
				V15.451c0-6.16-5.012-11.171-11.172-11.171H32.562z"/>
		</g>
		<path fill="#F1F2F2" d="M86.428,136.79c0,4.535-3.907,8.211-8.727,8.211H35.155c-4.82,0-8.727-3.676-8.727-8.211V16.71
			c0-4.534,3.907-8.209,8.727-8.209h42.546c4.82,0,8.727,3.675,8.727,8.209V136.79z"/>
		<linearGradient id="SVGID_2_" gradientUnits="userSpaceOnUse" x1="40.0591" y1="65.375" x2="72.7987" y2="32.6354">
			<stop  offset="0" style="stop-color:#7379BA"/>
			<stop  offset="1" style="stop-color:#BC79B3"/>
		</linearGradient>
		<path fill="url(#SVGID_2_)" d="M78.978,57.289c0,2.542-2.061,4.602-4.602,4.602H38.48c-2.542,0-4.602-2.06-4.602-4.602V40.721
			c0-2.542,2.061-4.602,4.602-4.602h35.896c2.542,0,4.602,2.06,4.602,4.602V57.289z"/>
		<linearGradient id="SVGID_3_" gradientUnits="userSpaceOnUse" x1="40.0591" y1="116.375" x2="72.7987" y2="83.6354">
			<stop  offset="0" style="stop-color:#F16B90"/>
			<stop  offset="1" style="stop-color:#F89E71"/>
		</linearGradient>
		<path fill="url(#SVGID_3_)" d="M78.978,108.289c0,2.542-2.061,4.602-4.602,4.602H38.48c-2.542,0-4.602-2.06-4.602-4.602V91.721
			c0-2.542,2.061-4.602,4.602-4.602h35.896c2.542,0,4.602,2.06,4.602,4.602V108.289z"/>
		<path fill="#FFFFFF" d="M79.095,75.854c0,1.156-0.937,2.092-2.092,2.092H35.854c-1.155,0-2.092-0.937-2.092-2.092v-6.974
			c0-1.155,0.937-2.092,2.092-2.092h41.149c1.155,0,2.092,0.937,2.092,2.092V75.854z"/>
		<path fill="#FFFFFF" d="M79.095,126.854c0,1.156-0.937,2.092-2.092,2.092H35.854c-1.155,0-2.092-0.937-2.092-2.092v-6.974
			c0-1.155,0.937-2.092,2.092-2.092h41.149c1.155,0,2.092,0.937,2.092,2.092V126.854z"/>
		<path fill="#271F3E" d="M72.428,9.371c0,1.795-1.455,3.25-3.25,3.25h-25.5c-1.795,0-3.25-1.455-3.25-3.25l0,0
			c0-1.795,1.455-3.25,3.25-3.25h25.5C70.973,6.121,72.428,7.576,72.428,9.371L72.428,9.371z"/>
		<circle fill="#FFFFFF" cx="56.428" cy="36.121" r="8"/>
	</g>
	<g>
		<g>
			<polygon fill="#FFFFFF" points="24.929,184.291 2.312,189.511 0.619,177.594 20.975,172.895 			"/>
			
				<rect x="10.279" y="165.605" transform="matrix(0.225 0.9743 -0.9743 0.225 180.2511 125.4737)" fill="#CDD0E0" width="1.935" height="20.892"/>
			<g>
				<path fill="#CDD0E0" d="M1.877,190.467L0,177.245l21.518-4.967l4.385,12.643L1.877,190.467z M1.468,178.251l1.508,10.616
					l21.21-4.896l-3.521-10.15L1.468,178.251z"/>
			</g>
			<g>
				
					<rect x="-3.612" y="166.929" transform="matrix(0.0033 1 -1 0.0033 172.6834 161.9147)" fill="#CDD0E0" width="17.457" height="1.312"/>
			</g>
			<g>
				
					<rect x="3.927" y="165.189" transform="matrix(0.4352 0.9003 -0.9003 0.4352 156.4591 82.2661)" fill="#CDD0E0" width="17.458" height="1.311"/>
			</g>
			<g>
				<path fill="#CDD0E0" d="M4.935,158.927c-1.442-0.166-2.55-0.91-2.784-1.922c-0.159-0.693,0.088-1.453,0.697-2.139
					c0.665-0.748,1.66-1.307,2.805-1.569c0.456-0.106,0.917-0.159,1.367-0.159c1.739,0,3.139,0.805,3.405,1.957
					c0.161,0.694-0.086,1.455-0.697,2.141c-0.334,0.377-0.753,0.705-1.234,0.973c0.186,0.396,0.382,0.824,0.548,1.189
					c0.645-0.348,1.214-0.783,1.668-1.292c0.897-1.012,1.25-2.187,0.993-3.306c-0.411-1.778-2.293-2.974-4.683-2.974
					c-0.55,0-1.109,0.064-1.662,0.192c-1.408,0.324-2.647,1.026-3.49,1.977c-0.9,1.012-1.252,2.186-0.995,3.305
					c0.411,1.779,2.293,2.975,4.683,2.975l0,0C5.35,159.826,5.14,159.376,4.935,158.927z"/>
			</g>
		</g>
		<g>
			<polygon fill="#FFFFFF" points="46.127,207.765 23.714,201.73 27.828,190.418 48,195.849 			"/>
			
				<rect x="36.964" y="183.611" transform="matrix(-0.2598 0.9657 -0.9657 -0.2598 235.1796 207.8499)" fill="#CDD0E0" width="1.936" height="20.892"/>
			<g>
				<path fill="#CDD0E0" d="M22.881,202.369l4.564-12.551l21.324,5.742l-2.079,13.22L22.881,202.369z M28.268,191.397l-3.665,10.076
					l21.02,5.66l1.669-10.613L28.268,191.397z"/>
			</g>
			<g>
				
					<rect x="27.778" y="183.045" transform="matrix(-0.4675 0.884 -0.884 -0.4675 215.9607 237.32)" fill="#CDD0E0" width="17.457" height="1.312"/>
			</g>
			<g>
				
					<rect x="35.25" y="185.057" transform="matrix(-0.0395 0.9992 -0.9992 -0.0395 231.2842 149.1088)" fill="#CDD0E0" width="17.457" height="1.312"/>
			</g>
			<g>
				<path fill="#CDD0E0" d="M40.419,175.977c-1.194-0.825-1.822-2.003-1.552-3.006c0.186-0.687,0.761-1.241,1.622-1.56
					c0.938-0.347,2.08-0.371,3.213-0.064c0.452,0.121,0.883,0.291,1.281,0.502c1.534,0.818,2.391,2.188,2.083,3.33
					c-0.186,0.688-0.761,1.242-1.622,1.56c-0.472,0.176-0.996,0.269-1.546,0.278c-0.023,0.438-0.051,0.908-0.077,1.309
					c0.733-0.004,1.439-0.12,2.08-0.356c1.268-0.47,2.132-1.34,2.432-2.448c0.474-1.764-0.625-3.704-2.733-4.828
					c-0.485-0.26-1.009-0.465-1.557-0.613c-1.395-0.375-2.818-0.339-4.009,0.104c-1.27,0.469-2.133,1.339-2.432,2.447
					c-0.475,1.764,0.623,3.704,2.732,4.828l0,0C40.362,176.965,40.388,176.47,40.419,175.977z"/>
			</g>
		</g>
	</g>
	<g>
		<path fill="#CDD0E0" d="M453.483,155.418c-13.219,0-23.974,10.755-23.974,23.975s10.755,23.975,23.974,23.975
			c13.22,0,23.976-10.755,23.976-23.975S466.703,155.418,453.483,155.418z"/>
		<path fill="#FFFFFF" d="M419.572,165.185c0,2.096-1.699,3.794-3.794,3.794h-7.296c-2.096,0-3.794-1.698-3.794-3.794l0,0
			c0-2.095,1.698-3.793,3.794-3.793h7.296C417.873,161.392,419.572,163.09,419.572,165.185L419.572,165.185z"/>
		<path fill="#CDD0E0" d="M415.778,159.858h-7.296c-2.938,0-5.327,2.389-5.327,5.326s2.39,5.327,5.327,5.327h7.296
			c2.938,0,5.327-2.39,5.327-5.327S418.716,159.858,415.778,159.858z M415.778,167.445h-7.296c-1.246,0-2.26-1.015-2.26-2.261
			s1.014-2.26,2.26-2.26h7.296c1.246,0,2.261,1.014,2.261,2.26S417.024,167.445,415.778,167.445z"/>
		<path fill="#FFFFFF" d="M443.552,136.531c-15.149,0-27.476,12.325-27.476,27.474c0,15.15,12.326,27.475,27.476,27.475
			s27.474-12.324,27.474-27.475C471.025,148.856,458.701,136.531,443.552,136.531z"/>
		
			<radialGradient id="SVGID_4_" cx="446.2061" cy="171.4922" r="32.3131" gradientTransform="matrix(1 0 0 1.0093 0 -1.5897)" gradientUnits="userSpaceOnUse">
			<stop  offset="0" style="stop-color:#5E4B8B"/>
			<stop  offset="0.6909" style="stop-color:#5E4B8B"/>
			<stop  offset="0.7305" style="stop-color:#5C4988"/>
			<stop  offset="0.7786" style="stop-color:#55447E"/>
			<stop  offset="0.8311" style="stop-color:#4A3C6E"/>
			<stop  offset="0.8866" style="stop-color:#3B2F58"/>
			<stop  offset="0.9441" style="stop-color:#271F3F"/>
			<stop  offset="0.9455" style="stop-color:#271F3E"/>
		</radialGradient>
		<path fill="url(#SVGID_4_)" d="M443.506,142.714c-11.74,0-21.292,9.552-21.292,21.291c0,11.74,9.552,21.293,21.292,21.293
			s21.291-9.553,21.291-21.293C464.797,152.266,455.246,142.714,443.506,142.714z"/>
		<path fill="#CDD0E0" d="M443.506,134.703c-16.157,0-29.303,13.145-29.303,29.302c0,16.158,13.146,29.304,29.303,29.304
			c16.158,0,29.304-13.146,29.304-29.304C472.81,147.848,459.664,134.703,443.506,134.703z M443.506,190.242
			c-14.467,0-26.236-11.771-26.236-26.237s11.77-26.236,26.236-26.236s26.236,11.77,26.236,26.236S457.973,190.242,443.506,190.242z
			"/>
	</g>
	<g>
		<rect x="404.186" y="41.749" fill="#FFFFFF" width="34.498" height="12.498"/>
		<path fill="#CDD0E0" d="M440.184,55.747h-37.498V40.249h37.498V55.747z M405.686,52.747h31.498v-9.498h-31.498V52.747z"/>
	</g>
	<g>
		<rect x="454.186" y="41.749" fill="#FFFFFF" width="34.498" height="12.498"/>
		<path fill="#CDD0E0" d="M490.184,55.747h-37.498V40.249h37.498V55.747z M455.686,52.747h31.498v-9.498h-31.498V52.747z"/>
	</g>
	<g>
		<rect x="454.186" y="91.749" fill="#FFFFFF" width="34.498" height="12.498"/>
		<path fill="#CDD0E0" d="M490.184,105.747h-37.498V90.249h37.498V105.747z M455.686,102.747h31.498v-9.498h-31.498V102.747z"/>
	</g>
	<g>
		<rect x="404.186" y="91.749" fill="#FFFFFF" width="34.498" height="12.498"/>
		<path fill="#CDD0E0" d="M440.184,105.747h-37.498V90.249h37.498V105.747z M405.686,102.747h31.498v-9.498h-31.498V102.747z"/>
	</g>
	<g>
		<rect x="354.186" y="91.749" fill="#FFFFFF" width="34.498" height="12.498"/>
		<path fill="#CDD0E0" d="M390.184,105.747h-37.498V90.249h37.498V105.747z M355.686,102.747h31.498v-9.498h-31.498V102.747z"/>
	</g>
	<g>
		<g>
			<path fill="#D3D2D9" d="M247.392,185.462v-5.501h5.507v5.501H247.392z M252.898,189.961v5.501h-5.507v-5.501H252.898z
				 M247.392,175.462v-5.501h5.507v5.501H247.392z M247.392,165.462v-5.501h5.507v5.501H247.392z M247.392,155.462v-5.501h5.507
				v5.501H247.392z M247.392,145.462v-5.501h5.507v5.501H247.392z M247.392,199.961h5.507v5.501h-5.507V199.961z M252.898,135.462
				h-5.507v-5.501h5.507V135.462z M247.392,209.961h5.507v5.501h-5.507V209.961z M252.898,119.961v5.501h-5.507v-5.501H252.898z
				 M247.392,225.462v-5.501h5.507v5.501H247.392z"/>
			<linearGradient id="SVGID_5_" gradientUnits="userSpaceOnUse" x1="248.8984" y1="169.6143" x2="374.8916" y2="169.6143">
				<stop  offset="0" style="stop-color:#F1F2F2"/>
				<stop  offset="0.2605" style="stop-color:#F5F5F6"/>
				<stop  offset="1" style="stop-color:#FFFFFF"/>
			</linearGradient>
			<path fill="url(#SVGID_5_)" d="M374.892,252.266c0,2.761-2.24,5-5,5H253.899c-2.762,0-5.001-2.239-5.001-5V86.963
				c0-2.762,2.239-5,5.001-5h115.992c2.76,0,5,2.238,5,5V252.266z"/>
			<g>
				<path fill="#CDD0E0" d="M369.892,258.766H253.898c-3.584,0-6.5-2.916-6.5-6.5V86.963c0-3.584,2.916-6.5,6.5-6.5h115.993
					c3.584,0,6.5,2.916,6.5,6.5v165.303C376.392,255.85,373.476,258.766,369.892,258.766z M253.898,83.463c-1.93,0-3.5,1.57-3.5,3.5
					v165.303c0,1.93,1.57,3.5,3.5,3.5h115.993c1.93,0,3.5-1.57,3.5-3.5V86.963c0-1.93-1.57-3.5-3.5-3.5H253.898z"/>
			</g>
			
				<linearGradient id="SVGID_6_" gradientUnits="userSpaceOnUse" x1="130.9873" y1="169.6143" x2="256.9795" y2="169.6143" gradientTransform="matrix(-1 0 0 1 374.3789 0)">
				<stop  offset="0" style="stop-color:#F1F2F2"/>
				<stop  offset="0.2605" style="stop-color:#F5F5F6"/>
				<stop  offset="1" style="stop-color:#FFFFFF"/>
			</linearGradient>
			<path fill="url(#SVGID_6_)" d="M117.399,252.266c0,2.761,2.24,5,5,5h115.992c2.762,0,5-2.239,5-5V86.963c0-2.762-2.238-5-5-5
				H122.399c-2.76,0-5,2.238-5,5V252.266z"/>
			<g>
				<path fill="#CDD0E0" d="M238.392,258.766H122.399c-3.584,0-6.5-2.916-6.5-6.5V86.963c0-3.584,2.916-6.5,6.5-6.5h115.992
					c3.584,0,6.5,2.916,6.5,6.5v165.303C244.892,255.85,241.976,258.766,238.392,258.766z M122.399,83.463c-1.93,0-3.5,1.57-3.5,3.5
					v165.303c0,1.93,1.57,3.5,3.5,3.5h115.992c1.93,0,3.5-1.57,3.5-3.5V86.963c0-1.93-1.57-3.5-3.5-3.5H122.399z"/>
			</g>
			<g>
				<path fill="#CDD0E0" d="M254.26,113.711c0,1.243-0.612,2.25-1.366,2.25h-12.738c-0.754,0-1.365-1.007-1.365-2.25l0,0
					c0-1.242,0.611-2.249,1.365-2.249h12.738C253.647,111.462,254.26,112.469,254.26,113.711L254.26,113.711z"/>
				<path fill="#CDD0E0" d="M254.26,123.711c0,1.243-0.612,2.25-1.366,2.25h-12.738c-0.754,0-1.365-1.007-1.365-2.25l0,0
					c0-1.242,0.611-2.249,1.365-2.249h12.738C253.647,121.462,254.26,122.469,254.26,123.711L254.26,123.711z"/>
				<path fill="#CDD0E0" d="M254.26,133.711c0,1.243-0.612,2.25-1.366,2.25h-12.738c-0.754,0-1.365-1.007-1.365-2.25l0,0
					c0-1.242,0.611-2.249,1.365-2.249h12.738C253.647,131.462,254.26,132.469,254.26,133.711L254.26,133.711z"/>
				<path fill="#CDD0E0" d="M254.26,143.711c0,1.243-0.612,2.25-1.366,2.25h-12.738c-0.754,0-1.365-1.007-1.365-2.25l0,0
					c0-1.242,0.611-2.249,1.365-2.249h12.738C253.647,141.462,254.26,142.469,254.26,143.711L254.26,143.711z"/>
				<path fill="#CDD0E0" d="M254.26,153.711c0,1.243-0.612,2.25-1.366,2.25h-12.738c-0.754,0-1.365-1.007-1.365-2.25l0,0
					c0-1.242,0.611-2.249,1.365-2.249h12.738C253.647,151.462,254.26,152.469,254.26,153.711L254.26,153.711z"/>
				<path fill="#CDD0E0" d="M254.26,163.711c0,1.243-0.612,2.25-1.366,2.25h-12.738c-0.754,0-1.365-1.007-1.365-2.25l0,0
					c0-1.242,0.611-2.249,1.365-2.249h12.738C253.647,161.462,254.26,162.469,254.26,163.711L254.26,163.711z"/>
				<path fill="#CDD0E0" d="M254.26,173.711c0,1.243-0.612,2.25-1.366,2.25h-12.738c-0.754,0-1.365-1.007-1.365-2.25l0,0
					c0-1.242,0.611-2.249,1.365-2.249h12.738C253.647,171.462,254.26,172.469,254.26,173.711L254.26,173.711z"/>
				<path fill="#CDD0E0" d="M254.26,183.711c0,1.243-0.612,2.25-1.366,2.25h-12.738c-0.754,0-1.365-1.007-1.365-2.25l0,0
					c0-1.242,0.611-2.249,1.365-2.249h12.738C253.647,181.462,254.26,182.469,254.26,183.711L254.26,183.711z"/>
				<path fill="#CDD0E0" d="M254.26,193.711c0,1.243-0.612,2.25-1.366,2.25h-12.738c-0.754,0-1.365-1.007-1.365-2.25l0,0
					c0-1.242,0.611-2.249,1.365-2.249h12.738C253.647,191.462,254.26,192.469,254.26,193.711L254.26,193.711z"/>
				<path fill="#CDD0E0" d="M254.26,203.711c0,1.243-0.612,2.25-1.366,2.25h-12.738c-0.754,0-1.365-1.007-1.365-2.25l0,0
					c0-1.242,0.611-2.249,1.365-2.249h12.738C253.647,201.462,254.26,202.469,254.26,203.711L254.26,203.711z"/>
				<path fill="#CDD0E0" d="M254.26,213.711c0,1.243-0.612,2.25-1.366,2.25h-12.738c-0.754,0-1.365-1.007-1.365-2.25l0,0
					c0-1.242,0.611-2.249,1.365-2.249h12.738C253.647,211.462,254.26,212.469,254.26,213.711L254.26,213.711z"/>
				<path fill="#CDD0E0" d="M254.26,223.711c0,1.243-0.612,2.25-1.366,2.25h-12.738c-0.754,0-1.365-1.007-1.365-2.25l0,0
					c0-1.242,0.611-2.249,1.365-2.249h12.738C253.647,221.462,254.26,222.469,254.26,223.711L254.26,223.711z"/>
			</g>
		</g>
		<g>
			<rect x="145.943" y="139.491" fill="#CDD0E0" width="70.497" height="3"/>
		</g>
		<g>
			<rect x="145.943" y="199.491" fill="#CDD0E0" width="70.497" height="3"/>
		</g>
		<g>
			<rect x="149.691" y="135.743" fill="#CDD0E0" width="3" height="70.497"/>
		</g>
		<g>
			<rect x="209.691" y="135.743" fill="#CDD0E0" width="3" height="70.497"/>
		</g>
		<g>
			<rect x="276.943" y="139.491" fill="#CDD0E0" width="70.496" height="3"/>
		</g>
		<g>
			<rect x="276.943" y="199.491" fill="#CDD0E0" width="70.496" height="3"/>
		</g>
		<g>
			<rect x="280.691" y="135.743" fill="#CDD0E0" width="3" height="70.497"/>
		</g>
		<g>
			<rect x="340.691" y="135.743" fill="#CDD0E0" width="3" height="70.497"/>
		</g>
		<g>
			<path fill="#5E4B8B" d="M181.526,202.321c-17.323,0-31.416-14.093-31.416-31.415s14.093-31.415,31.416-31.415
				c17.322,0,31.414,14.093,31.414,31.415S198.848,202.321,181.526,202.321z M181.526,142.491
				c-15.668,0-28.416,12.747-28.416,28.415s12.747,28.415,28.416,28.415c15.667,0,28.414-12.747,28.414-28.415
				S197.194,142.491,181.526,142.491z"/>
		</g>
		<g>
			<path fill="#5E4B8B" d="M181.525,186.364c-8.891,0-16.124-7.233-16.124-16.124s7.233-16.124,16.124-16.124
				s16.124,7.233,16.124,16.124S190.416,186.364,181.525,186.364z M181.525,157.116c-7.237,0-13.124,5.887-13.124,13.124
				s5.887,13.124,13.124,13.124s13.124-5.887,13.124-13.124S188.762,157.116,181.525,157.116z"/>
		</g>
		<g>
			<linearGradient id="SVGID_7_" gradientUnits="userSpaceOnUse" x1="281.7695" y1="171.0313" x2="342.6006" y2="171.0313">
				<stop  offset="0" style="stop-color:#F16B90"/>
				<stop  offset="1" style="stop-color:#F89E71"/>
			</linearGradient>
			<path fill="url(#SVGID_7_)" d="M312.187,140.616c-16.772,0-30.417,13.644-30.417,30.415c0,16.771,13.645,30.415,30.417,30.415
				c16.771,0,30.414-13.645,30.414-30.415C342.601,154.26,328.957,140.616,312.187,140.616z M312.187,188.704
				c-9.746,0-17.675-7.928-17.675-17.673s7.929-17.674,17.675-17.674c9.744,0,17.673,7.929,17.673,17.674
				S321.931,188.704,312.187,188.704z"/>
			<linearGradient id="SVGID_8_" gradientUnits="userSpaceOnUse" x1="294.1016" y1="171.0732" x2="330.2715" y2="171.0732">
				<stop  offset="0" style="stop-color:#7379BA"/>
				<stop  offset="1" style="stop-color:#BC79B3"/>
			</linearGradient>
			<path fill="url(#SVGID_8_)" d="M312.187,152.989c-9.973,0-18.085,8.113-18.085,18.085s8.112,18.084,18.085,18.084
				s18.085-8.112,18.085-18.084S322.159,152.989,312.187,152.989z M312.187,181.583c-5.794,0-10.509-4.715-10.509-10.509
				s4.715-10.509,10.509-10.509s10.51,4.715,10.51,10.509S317.98,181.583,312.187,181.583z"/>
		</g>
	</g>
	<g>
		
			<rect x="128.318" y="170.236" transform="matrix(0.8319 -0.5549 0.5549 0.8319 -101.3426 111.0477)" fill="#FFFFFF" width="8.663" height="105.175"/>
		<path fill="#5E4B8B" d="M125.041,202.976l-17.671-26.502l-7.207,4.806l17.681,26.517
			C120.153,206.243,122.588,204.614,125.041,202.976z"/>
		<path fill="#CDD0E0" d="M108.021,173.224l-11.107,7.406l20.287,30.424l1.952-1.313c2.307-1.552,4.739-3.18,7.189-4.816
			l1.949-1.301L108.021,173.224z M106.721,179.724l15.071,22.604c-1.114,0.746-2.218,1.484-3.302,2.212l-15.077-22.61
			L106.721,179.724z"/>
		
			<rect x="161.119" y="265.735" transform="matrix(0.832 -0.5547 0.5547 0.832 -121.5841 136.1502)" fill="#5E4B8B" width="5.815" height="6.211"/>
		<g>
			<polygon fill="#CDD0E0" points="111.936,206.577 99.433,187.827 101.419,186.503 99.373,183.436 94.319,186.806 110.914,211.691 
				115.967,208.321 113.92,205.253 			"/>
			<path fill="#CDD0E0" d="M107.882,173.917l-10.275,6.852L158,271.342l10.274-6.851L107.882,173.917z M106.859,179.03
				l56.302,84.438l-4.139,2.761L102.72,181.79L106.859,179.03z"/>
		</g>
	</g>
	<g>
		<g>
			<path fill="#FFFFFF" d="M118.348,29.874v27h184v-27H118.348z M285.848,48.874c-3.037,0-5.5-2.462-5.5-5.5s2.463-5.5,5.5-5.5
				s5.5,2.462,5.5,5.5S288.885,48.874,285.848,48.874z"/>
			<path fill="#CDD0E0" d="M303.848,58.374h-187v-30h187V58.374z M119.848,55.374h181v-24h-181V55.374z M285.848,50.374
				c-3.859,0-7-3.14-7-7s3.141-7,7-7s7,3.14,7,7S289.707,50.374,285.848,50.374z M285.848,39.374c-2.206,0-4,1.794-4,4s1.794,4,4,4
				s4-1.794,4-4S288.054,39.374,285.848,39.374z"/>
		</g>
		<g>
			<rect x="139.848" y="30.874" fill="#CDD0E0" width="3" height="15"/>
		</g>
		<g>
			<rect x="129.848" y="30.434" fill="#CDD0E0" width="3" height="9.756"/>
		</g>
		<g>
			<rect x="149.848" y="30.434" fill="#CDD0E0" width="3" height="9.756"/>
		</g>
		<g>
			<rect x="169.848" y="30.434" fill="#CDD0E0" width="3" height="9.756"/>
		</g>
		<g>
			<rect x="189.848" y="30.434" fill="#CDD0E0" width="3" height="9.756"/>
		</g>
		<g>
			<rect x="209.848" y="30.434" fill="#CDD0E0" width="3" height="9.756"/>
		</g>
		<g>
			<rect x="229.848" y="30.434" fill="#CDD0E0" width="3" height="9.756"/>
		</g>
		<g>
			<rect x="249.848" y="30.434" fill="#CDD0E0" width="3" height="9.756"/>
		</g>
		<g>
			<rect x="269.848" y="30.434" fill="#CDD0E0" width="3" height="9.756"/>
		</g>
		<g>
			<rect x="159.848" y="30.874" fill="#CDD0E0" width="3" height="15"/>
		</g>
		<g>
			<rect x="179.848" y="30.874" fill="#CDD0E0" width="3" height="15"/>
		</g>
		<g>
			<rect x="199.848" y="30.874" fill="#CDD0E0" width="3" height="15"/>
		</g>
		<g>
			<rect x="219.848" y="30.874" fill="#CDD0E0" width="3" height="15"/>
		</g>
		<g>
			<rect x="239.848" y="30.874" fill="#CDD0E0" width="3" height="15"/>
		</g>
		<g>
			<rect x="259.848" y="30.874" fill="#CDD0E0" width="3" height="15"/>
		</g>
	</g>
	<g>
		<g>
			<path fill="#FFFFFF" d="M399.122,216.311c0.847,2.629-0.599,5.445-3.228,6.292l-21.894,7.047
				c-2.629,0.847-5.445-0.598-6.291-3.227l-2.758-8.567c-0.847-2.629,0.599-5.445,3.228-6.292l21.894-7.047
				c2.629-0.847,5.445,0.598,6.291,3.227L399.122,216.311z"/>
			<path fill="#CDD0E0" d="M372.468,231.392c-2.832,0-5.318-1.813-6.186-4.51l-2.758-8.566c-0.532-1.652-0.389-3.414,0.403-4.959
				c0.793-1.545,2.14-2.688,3.792-3.221l21.894-7.047c0.647-0.209,1.318-0.314,1.993-0.314c2.832,0,5.318,1.813,6.186,4.51
				l2.758,8.566c0.532,1.652,0.389,3.414-0.403,4.959c-0.793,1.545-2.14,2.688-3.792,3.221l-21.894,7.047
				C373.813,231.286,373.143,231.392,372.468,231.392z M391.606,205.774c-0.362,0-0.724,0.057-1.073,0.17l-21.894,7.047
				c-0.891,0.287-1.615,0.902-2.042,1.734s-0.504,1.78-0.218,2.67l2.758,8.567c0.468,1.452,1.806,2.429,3.33,2.429
				c0.362,0,0.724-0.057,1.073-0.17l21.894-7.047c0.891-0.287,1.615-0.902,2.042-1.734s0.504-1.78,0.218-2.67l-2.758-8.567
				C394.469,206.751,393.131,205.774,391.606,205.774z"/>
		</g>
		<g>
			<path fill="#F89E71" d="M381.148,207.39l-12.969,4.174c-2.629,0.847-4.074,3.663-3.228,6.292l2.758,8.567
				c0.846,2.629,3.662,4.073,6.291,3.227l12.931-4.162C384.981,219.442,382.975,213.159,381.148,207.39z"/>
			<path fill="#CDD0E0" d="M372.468,231.392L372.468,231.392c-2.832,0-5.318-1.813-6.186-4.51l-2.758-8.566
				c-1.099-3.412,0.783-7.081,4.195-8.18l14.404-4.637l0.454,1.438c1.826,5.768,3.832,12.048,5.781,18.09l0.461,1.429l-14.359,4.622
				C373.813,231.286,373.143,231.392,372.468,231.392z M380.174,209.278l-11.534,3.713c-1.838,0.592-2.852,2.568-2.26,4.404
				l2.758,8.567c0.468,1.452,1.806,2.429,3.33,2.429l0,0c0.362,0,0.724-0.057,1.073-0.17l11.503-3.702
				C383.4,219.417,381.73,214.188,380.174,209.278z"/>
		</g>
	</g>
</g>
</svg>
